<svg width="41" height="34" viewBox="0 0 41 34" fill="none" xmlns="http://www.w3.org/2000/svg">
<g clip-path="url(#clip0_316_253)">
<path d="M36.2489 9.22618V15.2823L36.8383 16.0867V19.8718C36.4302 21.0073 34.2086 21.0546 33.6192 20.203V16.4179L34.254 15.4716V9.79395L36.2489 9.22618ZM30.6722 10.7875V16.3706C30.6722 21.1019 8.86446 21.1019 8.86446 16.3706V10.4563L20.4258 13.6264L30.6722 10.7875ZM20.4258 12.3016L40.1933 6.71855V5.39377L20.4258 0L0.658203 5.53571V6.8605C0.658203 6.90781 18.7936 11.8758 20.4258 12.3016Z" fill="#0061B1"/>
<path fill-rule="evenodd" clip-rule="evenodd" d="M25.3224 30.4227C26.0479 31.227 26.5466 32.1733 26.6373 33.4034C25.5945 32.6937 24.461 32.0786 23.0102 31.7474C22.4661 32.5045 21.7407 33.1195 20.8339 33.5454C20.6072 32.3625 20.1539 31.3216 19.4284 30.5173C21.0606 30.5173 23.5996 30.3753 25.3224 30.4227ZM7.14173 29.3344C11.4942 28.9559 15.6654 28.7194 19.6098 28.6721C19.4738 29.1452 19.2471 29.6656 18.8844 29.9968C15.1666 30.1388 10.4061 30.5173 7.68579 30.8485C7.23241 30.8958 6.55233 30.9431 6.14429 30.8012C5.60023 30.6119 5.1015 30.0915 4.78414 29.3818C3.96804 27.6311 3.92271 24.887 4.7388 23.089C5.14684 22.1901 5.87226 21.3857 7.00572 21.575C8.36587 21.7642 14.0785 22.4266 18.295 22.6159C20.0178 23.7041 20.3806 26.2117 19.8365 28.057C14.8493 28.0097 11.6302 28.0097 7.68579 28.1989C7.4591 28.1989 7.23241 28.1989 7.05106 28.1043C5.73624 27.5838 5.60023 25.9279 6.23497 24.6977C6.46166 24.2719 6.82436 24.3192 7.00572 24.5084C7.18707 24.745 6.96038 25.3128 6.8697 25.6913C6.59767 26.8268 7.77647 27.4892 7.91249 26.5429C7.95782 26.1171 7.91249 25.5493 7.82181 25.0289C7.59512 23.9407 6.59767 22.0481 5.64557 23.5149C4.05872 25.6913 5.50955 31.1324 7.14173 29.3344ZM25.9118 28.5774C29.0402 28.6721 32.5766 29.0979 35.7049 29.6183C35.977 29.6656 36.0223 29.7603 35.8863 29.9968C35.7956 30.1388 35.6143 30.5173 35.4782 30.6119C35.0702 30.9904 33.8007 30.6119 31.9418 30.3753C30.1737 30.1388 27.8161 29.8549 25.4131 29.8549C25.5945 29.4764 25.7758 29.0506 25.9118 28.5774ZM24.2343 29.8549L20.0632 29.9495C21.1966 27.8204 21.242 24.4611 19.6551 22.6159H23.5089C25.5945 23.9407 25.6851 27.3946 24.5517 29.4291C24.461 29.6183 24.3703 29.7603 24.2343 29.8549ZM24.9597 22.5686C26.1385 22.5213 27.408 22.4739 28.6321 22.3793C31.2618 22.1901 33.6194 21.9062 34.1181 21.8116C34.6168 21.7169 35.0249 21.8589 35.4329 22.1428C36.9291 23.2783 36.9744 26.6376 36.5664 28.3409C36.4757 28.7667 36.2037 28.9559 35.7503 28.814C32.2139 28.2462 29.3122 28.1516 26.0479 28.0097C26.3652 26.1171 26.2745 24.1299 24.9597 22.5686Z" fill="#0061B1"/>
</g>
<defs>
<clipPath id="clip0_316_253">
<rect width="39.5804" height="33.5455" fill="white" transform="translate(0.658203)"/>
</clipPath>
</defs>
</svg>
