<svg width="41" height="33" viewBox="0 0 41 33" fill="none" xmlns="http://www.w3.org/2000/svg">
<g clip-path="url(#clip0_328_246)">
<path d="M37.4166 9.67137C37.257 8.43145 37.257 6.28226 38.3742 5.53831C38.3742 5.53831 38.3742 5.53831 38.454 5.45565C39.3317 5.125 39.9701 4.71169 39.4913 4.13307L25.9255 0L4.14026 3.14113C4.14026 3.14113 1.66648 3.55444 1.82608 7.52218C1.98568 9.67137 2.62407 10.746 3.18266 11.3246L1.42708 11.9032C0.948284 12.4819 1.58668 12.8952 2.46447 13.2258C2.46447 13.2258 2.46447 13.2258 2.54427 13.3085C3.66146 14.0524 3.66146 16.2016 3.50186 17.4415C-0.488103 18.5988 0.948284 19.0121 0.948284 19.0121L1.82608 19.2601C1.18768 19.8387 0.549288 20.9133 0.708886 23.0625C0.948284 27.1129 3.02307 27.3609 3.02307 27.3609L17.3071 32.1552L38.853 26.7823C38.853 26.7823 40.2893 26.369 36.2994 25.2117C36.1398 23.9718 36.1398 21.8226 37.257 21.0786C37.257 21.0786 37.257 21.0786 37.3368 20.996C38.2146 20.6653 38.8529 20.252 38.3742 19.6734L37.3368 19.2601C37.9752 18.8468 38.9327 17.8548 39.0125 15.2097C39.0923 13.3911 38.6934 12.3165 38.1348 11.6552L39.9701 11.1593C39.9701 11.2419 41.4065 10.8286 37.4166 9.67137ZM19.3819 9.58871L22.9729 8.84476L35.262 6.1996L37.0974 5.78629C36.5388 6.86089 36.5388 8.43145 36.6186 9.34073C36.6186 9.58871 36.6984 9.75403 36.6984 9.91936L34.7034 10.4153L19.2223 14.3831L19.3819 9.58871ZM3.82106 13.5565L5.65644 13.9698L17.4667 16.4496L18.5041 16.6976L21.6163 17.3589L21.7759 22.2359L5.89584 18.1028L4.29985 17.6895C4.29985 17.5242 4.37965 17.3589 4.37965 17.1109C4.37965 16.2016 4.37965 14.6311 3.82106 13.5565ZM3.10287 7.35686C3.10287 6.28226 3.26246 5.53831 3.66146 5.125C3.82106 4.87702 4.14026 4.79436 4.29985 4.79436C4.37965 4.79436 4.45945 4.79436 4.45945 4.79436L13.8758 7.93549L18.5839 9.50605L18.4243 14.4657L5.25745 10.6633L4.61905 10.498H4.53925C4.45945 10.498 3.10287 10.3327 3.10287 7.35686ZM17.2273 29.9234L3.34226 25.873H3.26246C3.18266 25.873 1.90588 25.7077 1.82608 22.7319C1.82608 21.6573 1.98568 20.9133 2.38467 20.5C2.62407 20.252 2.86347 20.1694 3.10287 20.1694C3.18266 20.1694 3.26246 20.1694 3.26246 20.1694L17.3869 24.9637L17.2273 29.9234ZM35.4216 24.7984C35.4216 25.0464 35.5014 25.2117 35.5014 25.377L18.0253 29.8407L18.1849 24.9637L21.9355 24.1371L22.4941 24.3024L24.5689 23.6411L34.065 21.5746L35.9004 21.1613C35.262 22.3186 35.3418 23.8891 35.4216 24.7984ZM36.3792 18.1855H36.2994L34.9428 18.5988L22.4143 22.2359L22.2547 17.2762L26.4043 15.871L36.3792 12.4819C36.3792 12.4819 36.9378 12.3992 37.257 12.7298C37.656 13.1431 37.8156 13.8871 37.8156 14.9617C37.7358 18.0202 36.459 18.1855 36.3792 18.1855Z" fill="#0061B1"/>
</g>
<defs>
<clipPath id="clip0_328_246">
<rect width="39.5804" height="32.0726" fill="white" transform="translate(0.628906)"/>
</clipPath>
</defs>
</svg>
