<svg width="45" height="29" viewBox="0 0 45 29" fill="none" xmlns="http://www.w3.org/2000/svg">
<g clip-path="url(#clip0_338_315)">
<path d="M14.5116 3.10869C14.1714 3.10869 13.8972 2.83447 13.8972 2.49434C13.8972 2.1542 14.1714 1.87998 14.5116 1.87998H27.5519V0.614355C27.5519 0.274219 27.8261 0 28.1663 0C28.5064 0 28.7806 0.274219 28.7806 0.614355V1.87998H44.3197C44.6598 1.87998 44.934 2.1542 44.934 2.49434C44.934 2.83447 44.6598 3.10869 44.3197 3.10869H42.9055V20.7642H44.3856C44.7257 20.7642 44.9999 21.0384 44.9999 21.3785C44.9999 21.7187 44.7257 21.9929 44.3856 21.9929H28.538V22.6169C28.5714 22.6389 28.5934 22.6608 28.6145 22.6828L32.3762 26.2582C32.617 26.4885 32.6285 26.8831 32.3982 27.1239C32.1679 27.3656 31.7733 27.3762 31.5316 27.1459L28.5495 24.3062V27.4201C28.5495 27.7603 28.2752 28.0345 27.9351 28.0345C27.595 28.0345 27.3207 27.7603 27.3207 27.4201V24.1857L24.2068 27.1459C23.9651 27.3762 23.5705 27.3762 23.3402 27.1239C23.1099 26.8831 23.1099 26.4885 23.3622 26.2582L27.1239 22.6828C27.1784 22.6283 27.2548 22.5844 27.3207 22.551V21.9929H14.3314C13.9913 21.9929 13.717 21.7187 13.717 21.3785C13.717 21.0384 13.9913 20.7642 14.3314 20.7642H41.6768V3.10869H14.5116ZM26.5165 18.1661C26.4427 18.1661 26.3695 18.1516 26.3013 18.1233C26.233 18.095 26.171 18.0536 26.1188 18.0014C26.0666 17.9491 26.0251 17.8871 25.9969 17.8189C25.9686 17.7506 25.954 17.6775 25.954 17.6036C25.954 17.2934 26.2063 17.042 26.5165 17.042H38.5022C38.8124 17.042 39.0638 17.2934 39.0638 17.6036C39.0638 17.9147 38.8124 18.1661 38.5022 18.1661H26.5165ZM27.3656 14.3877C27.0553 14.3877 26.804 14.1363 26.804 13.8261C26.804 13.5149 27.0553 13.2636 27.3656 13.2636H38.5022C38.8124 13.2636 39.0638 13.5149 39.0638 13.8261C39.0638 14.1363 38.8124 14.3877 38.5022 14.3877H27.3656ZM25.5392 10.6093C25.2289 10.6093 24.9776 10.3579 24.9776 10.0477C24.9776 9.7374 25.2289 9.48516 25.5392 9.48516H38.5022C38.8124 9.48516 39.0638 9.7374 39.0638 10.0477C39.0638 10.3579 38.8124 10.6093 38.5022 10.6093H25.5392ZM19.7586 6.83086C19.4484 6.83086 19.197 6.57949 19.197 6.26924C19.197 5.95898 19.4484 5.70674 19.7586 5.70674H38.5022C38.8124 5.70674 39.0638 5.95898 39.0638 6.26924C39.0638 6.57949 38.8124 6.83086 38.5022 6.83086H19.7586ZM19.3526 14.2594L23.6144 9.79102C23.8649 9.52734 24.2815 9.51768 24.5443 9.76729C24.808 10.0178 24.8176 10.4344 24.568 10.6972L20.5532 14.9071C20.8828 15.3062 21.0392 15.8432 20.9346 16.3907C20.7483 17.3654 19.807 18.0044 18.8331 17.8181L14.3762 16.9611C13.9315 16.8838 13.5149 16.6395 13.2292 16.2448L11.7834 14.2471L11.7799 14.4272V14.2972L11.6648 20.9628L11.8397 21.9612H4.36459L4.51928 21.0366L4.38217 14.4237V14.4272L4.35932 13.2935L4.35141 13.3022C3.58676 14.0678 3.55424 15.8924 3.46899 17.0007L3.27475 19.539C3.22993 20.1182 3.18159 20.4451 2.72807 20.8371C2.06889 21.4049 0.958832 21.5218 0.372601 20.8037C-0.00620734 20.3414 -0.0246644 19.6031 0.0140075 18.929C0.209125 15.5566 0.605511 10.481 4.38217 8.81104V8.85322C5.98354 8.2169 7.87055 8.49375 9.59321 8.49375C10.4132 8.49375 11.1339 8.61416 11.7738 8.85938C12.1825 8.95342 12.5595 9.18984 12.8249 9.55635L15.7218 13.5615L19.3526 14.2594ZM8.06567 0.275098C10.1654 0.275098 11.8669 1.97666 11.8669 4.07637C11.8669 6.1752 10.1654 7.87676 8.06567 7.87676C5.96596 7.87676 4.2644 6.1752 4.2644 4.07637C4.2644 1.97666 5.96596 0.275098 8.06567 0.275098Z" fill="white"/>
</g>
<defs>
<clipPath id="clip0_338_315">
<rect width="45" height="28.0345" fill="white"/>
</clipPath>
</defs>
</svg>
