<svg width="34" height="37" viewBox="0 0 32 30" fill="none" xmlns="http://www.w3.org/2000/svg">
<path d="M9.28 0.724854H22.72C27.84 0.724854 32 4.88485 32 10.0049V23.4449C32 25.9061 31.0223 28.2665 29.282 30.0068C27.5416 31.7471 25.1812 32.7249 22.72 32.7249H9.28C4.16 32.7249 0 28.5649 0 23.4449V10.0049C0 7.54364 0.977712 5.18324 2.71805 3.4429C4.45839 1.70257 6.81879 0.724854 9.28 0.724854ZM8.96 3.92485C7.43235 3.92485 5.96727 4.53171 4.88707 5.61192C3.80686 6.69213 3.2 8.15721 3.2 9.68485V23.7649C3.2 26.9489 5.776 29.5249 8.96 29.5249H23.04C24.5676 29.5249 26.0327 28.918 27.1129 27.8378C28.1931 26.7576 28.8 25.2925 28.8 23.7649V9.68485C28.8 6.50085 26.224 3.92485 23.04 3.92485H8.96ZM24.4 6.32485C24.9304 6.32485 25.4391 6.53557 25.8142 6.91064C26.1893 7.28571 26.4 7.79442 26.4 8.32485C26.4 8.85529 26.1893 9.36399 25.8142 9.73907C25.4391 10.1141 24.9304 10.3249 24.4 10.3249C23.8696 10.3249 23.3609 10.1141 22.9858 9.73907C22.6107 9.36399 22.4 8.85529 22.4 8.32485C22.4 7.79442 22.6107 7.28571 22.9858 6.91064C23.3609 6.53557 23.8696 6.32485 24.4 6.32485ZM16 8.72485C18.1217 8.72485 20.1566 9.56771 21.6569 11.068C23.1571 12.5683 24 14.6031 24 16.7249C24 18.8466 23.1571 20.8814 21.6569 22.3817C20.1566 23.882 18.1217 24.7249 16 24.7249C13.8783 24.7249 11.8434 23.882 10.3431 22.3817C8.84285 20.8814 8 18.8466 8 16.7249C8 14.6031 8.84285 12.5683 10.3431 11.068C11.8434 9.56771 13.8783 8.72485 16 8.72485ZM16 11.9249C14.727 11.9249 13.5061 12.4306 12.6059 13.3307C11.7057 14.2309 11.2 15.4518 11.2 16.7249C11.2 17.9979 11.7057 19.2188 12.6059 20.119C13.5061 21.0191 14.727 21.5249 16 21.5249C17.273 21.5249 18.4939 21.0191 19.3941 20.119C20.2943 19.2188 20.8 17.9979 20.8 16.7249C20.8 15.4518 20.2943 14.2309 19.3941 13.3307C18.4939 12.4306 17.273 11.9249 16 11.9249Z" fill="#FFFFFF"/>
</svg>
