<svg viewBox="0 0 41 31" fill="none" xmlns="http://www.w3.org/2000/svg">
<g clip-path="url(#clip0_328_244)">
<path d="M18.8673 0L11.7517 1.59243C11.53 1.63274 11.3486 1.85447 11.3486 2.0762V4.93855C11.3486 5.16028 11.1672 5.36185 10.9454 5.38201L7.13569 5.765C6.91396 5.78515 6.73255 5.98673 6.73255 6.20846V8.97001C6.73255 9.19174 6.55113 9.39331 6.3294 9.43363L0.403147 10.2601C0.181416 10.2802 0 10.4818 0 10.7035V29.9135C0 30.1352 0.181416 30.2763 0.403147 30.2561C0.403147 30.2561 6.02704 29.2684 7.92183 28.9862C8.97001 28.825 10.119 28.7645 11.3083 28.7645C14.1908 28.7645 20.117 30.498 20.117 30.498C20.3387 30.5585 20.6814 30.5585 20.883 30.498C20.883 30.498 26.8294 28.7645 29.6917 28.7645C30.881 28.7645 32.03 28.8451 33.0782 28.9862C34.9528 29.2483 40.5969 30.2561 40.5969 30.2561C40.8186 30.2965 41 30.1352 41 29.9135V10.7035C41 10.4818 40.8186 10.2802 40.5969 10.2399L34.6504 9.41347C34.4287 9.39331 34.2473 9.17158 34.2473 8.94985V6.20846C34.2473 5.98673 34.0659 5.78515 33.8442 5.765L30.0344 5.38201C29.8127 5.36185 29.6313 5.16028 29.6313 4.93855V2.09636C29.6313 1.87463 29.4499 1.6529 29.2281 1.61259L22.1126 0.0403147M6.3294 25.5998H3.72911V21.0846H6.3294V25.5998ZM6.3294 20.0364H3.72911V15.5211H6.3294V20.0364ZM9.85693 25.5998H7.25664V21.0846H9.85693V25.5998ZM9.85693 20.0364H7.25664V15.5211H9.85693V20.0364ZM17.4562 26.91H14.5939V13.203H17.4562V26.91ZM17.4562 12.2557H14.5939V7.31711H17.4562V12.2557ZM21.9312 26.91H19.0688V13.203H21.9312V26.91ZM21.9312 12.2557H19.0688V7.31711H21.9312V12.2557ZM26.3859 26.91H23.5236V13.203H26.3859V26.91ZM26.3859 12.2557H23.5236V7.31711H26.3859V12.2557ZM33.7434 25.5998H31.1431V21.0846H33.7434V25.5998ZM33.7434 20.0364H31.1431V15.5211H33.7434V20.0364ZM37.2507 25.5998H34.6504V21.0846H37.2507V25.5998ZM37.2507 20.0364H34.6504V15.5211H37.2507V20.0364Z" fill="#0061B1"/>
</g>
<defs>
<clipPath id="clip0_328_244">
<rect width="41" height="30.5383" fill="white"/>
</clipPath>
</defs>
</svg>
