<svg width="42" height="42" viewBox="0 0 44 45" fill="none" xmlns="http://www.w3.org/2000/svg">
<path d="M34.8333 6.22485C35.8058 6.22485 36.7384 6.61116 37.4261 7.2988C38.1137 7.98643 38.5 8.91906 38.5 9.89152V35.5582C38.5 36.5306 38.1137 37.4633 37.4261 38.1509C36.7384 38.8385 35.8058 39.2249 34.8333 39.2249H9.16667C8.19421 39.2249 7.26157 38.8385 6.57394 38.1509C5.88631 37.4633 5.5 36.5306 5.5 35.5582V9.89152C5.5 8.91906 5.88631 7.98643 6.57394 7.2988C7.26157 6.61116 8.19421 6.22485 9.16667 6.22485H34.8333ZM33.9167 34.6415V24.9249C33.9167 23.3397 33.287 21.8196 32.1661 20.6987C31.0453 19.5779 29.5251 18.9482 27.94 18.9482C26.3817 18.9482 24.5667 19.9015 23.6867 21.3315V19.2965H18.5717V34.6415H23.6867V25.6032C23.6867 24.1915 24.8233 23.0365 26.235 23.0365C26.9157 23.0365 27.5686 23.3069 28.0499 23.7883C28.5313 24.2696 28.8017 24.9225 28.8017 25.6032V34.6415H33.9167ZM12.6133 16.4182C13.4302 16.4182 14.2136 16.0937 14.7912 15.5161C15.3688 14.9385 15.6933 14.1551 15.6933 13.3382C15.6933 11.6332 14.3183 10.2399 12.6133 10.2399C11.7916 10.2399 11.0035 10.5663 10.4225 11.1473C9.84143 11.7284 9.515 12.5165 9.515 13.3382C9.515 15.0432 10.9083 16.4182 12.6133 16.4182ZM15.1617 34.6415V19.2965H10.0833V34.6415H15.1617Z" fill="#FFFFFF"/>
</svg>
