<svg width="45" height="38" viewBox="0 0 45 38" fill="none" xmlns="http://www.w3.org/2000/svg">
<path d="M22.6214 7.01618C24.762 7.01618 26.5035 5.44245 26.5035 3.50809C26.5035 1.57373 24.762 0 22.6214 0C20.4808 0 18.7393 1.57373 18.7393 3.50809C18.7393 5.44245 20.4808 7.01618 22.6214 7.01618Z" fill="white" stroke="white" stroke-width="0.00064"/>
<path d="M16.4739 17.7776H28.7136C29.5107 17.7776 30.1569 17.1937 30.1569 16.4734V11.6509C30.1569 10.3159 29.2075 9.13219 27.8036 8.71656L27.7971 8.71465L25.7436 8.40737C25.5689 8.3588 25.3821 8.4424 25.3193 8.59822L22.9894 14.3749C22.855 14.7082 22.3334 14.7082 22.199 14.3749L19.8691 8.59822C19.8184 8.47236 19.687 8.39355 19.5462 8.39355C19.5129 8.39355 19.4788 8.39807 19.4452 8.40737L17.3913 8.71424C15.9759 9.1404 15.0303 10.3261 15.0303 11.6669V16.4734C15.0306 17.1937 15.6767 17.7776 16.4739 17.7776Z" fill="white" stroke="white" stroke-width="0.00064"/>
<path d="M7.59845 27.2388C9.73907 27.2388 11.4806 25.6651 11.4806 23.7307C11.4806 21.7964 9.73907 20.2227 7.59845 20.2227C5.45784 20.2227 3.71631 21.7964 3.71631 23.7307C3.71631 25.6651 5.45784 27.2388 7.59845 27.2388Z" fill="white" stroke="white" stroke-width="0.00064"/>
<path d="M12.7731 28.939L12.7666 28.9371L10.7132 28.6298C10.5385 28.5812 10.3517 28.6648 10.2888 28.8206L7.95899 34.5973C7.82455 34.9306 7.30298 34.9306 7.16854 34.5973L4.83868 28.8206C4.78796 28.6948 4.65655 28.616 4.51575 28.616C4.48244 28.616 4.44837 28.6205 4.41476 28.6298L2.3609 28.9366C0.945631 29.3628 0 30.5485 0 31.8893V36.6958C0 37.4161 0.646166 38.0001 1.44328 38.0001H13.683C14.4801 38.0001 15.1263 37.4161 15.1263 36.6958V31.8733C15.1263 30.5384 14.177 29.3546 12.7731 28.939Z" fill="white" stroke="white" stroke-width="0.00064"/>
<path d="M37.4373 27.2388C39.5779 27.2388 41.3195 25.6651 41.3195 23.7307C41.3195 21.7964 39.5779 20.2227 37.4373 20.2227C35.2967 20.2227 33.5552 21.7964 33.5552 23.7307C33.5552 25.6651 35.2966 27.2388 37.4373 27.2388Z" fill="white" stroke="white" stroke-width="0.00064"/>
<path d="M42.6468 28.939L42.6403 28.9371L40.5869 28.6298C40.4122 28.5812 40.2254 28.6648 40.1625 28.8206L37.8327 34.5973C37.6982 34.9306 37.1767 34.9306 37.0422 34.5973L34.7124 28.8206C34.6616 28.6948 34.5302 28.616 34.3894 28.616C34.3561 28.616 34.3221 28.6205 34.2884 28.6298L32.2346 28.9366C30.8192 29.3628 29.8735 30.5485 29.8735 31.8893V36.6958C29.8735 37.4161 30.5197 38.0001 31.3168 38.0001H43.5566C44.3537 38.0001 44.9999 37.4161 44.9999 36.6958V31.8733C45.0002 30.5384 44.0507 29.3546 42.6468 28.939Z" fill="white" stroke="white" stroke-width="0.00064"/>
<path d="M23.9013 18.7649H21.3394V24.0389L15.3086 29.4886C15.8545 30.1639 16.1684 30.992 16.1684 31.8734V31.9858L22.6204 26.1554L28.8239 31.7613C28.8549 30.8684 29.2066 30.0348 29.7954 29.3651L23.9013 24.0389V18.7649Z" fill="white" stroke="white" stroke-width="0.00064"/>
<path d="M23.5482 8.38914C23.4472 8.28982 23.2998 8.23975 23.1505 8.23975H22.0372C21.888 8.23975 21.7405 8.28968 21.6395 8.38914C21.4833 8.54292 21.4606 8.7651 21.5715 8.93885L22.1665 9.74945L21.888 11.873L22.4365 13.1916C22.4899 13.3242 22.6975 13.3242 22.7511 13.1916L23.2996 11.873L23.021 9.74945L23.616 8.93885C23.727 8.7651 23.7044 8.54292 23.5482 8.38914Z" fill="white" stroke="white" stroke-width="0.00064"/>
<path d="M8.51743 28.6159C8.41645 28.5166 8.26899 28.4666 8.11971 28.4666H7.00648C6.8572 28.4666 6.70974 28.5165 6.60876 28.6159C6.45252 28.7697 6.42981 28.9919 6.54078 29.1657L7.13578 29.9763L6.8572 32.0997L7.40572 33.4183C7.45916 33.5508 7.66673 33.5508 7.72017 33.4183L8.26869 32.0997L7.99012 29.9763L8.58511 29.1657C8.69623 28.992 8.67368 28.7699 8.51743 28.6159Z" fill="white" stroke="white" stroke-width="0.00064"/>
<path d="M38.391 28.6159C38.29 28.5166 38.1425 28.4666 37.9932 28.4666H36.88C36.7307 28.4666 36.5833 28.5165 36.4823 28.6159C36.3261 28.7697 36.3033 28.9919 36.4143 29.1657L37.0093 29.9763L36.7307 32.0997L37.2793 33.4183C37.3327 33.5508 37.5403 33.5508 37.5937 33.4183L38.1422 32.0997L37.8636 29.9763L38.4586 29.1657C38.5699 28.992 38.5472 28.7699 38.391 28.6159Z" fill="white" stroke="white" stroke-width="0.00064"/>
</svg>
