<svg width="34" height="41" viewBox="0 0 34 41" fill="none" xmlns="http://www.w3.org/2000/svg">
<g clip-path="url(#clip0_316_244)">
<path fill-rule="evenodd" clip-rule="evenodd" d="M4.43653 21.2504C4.39877 21.3616 4.37989 21.3801 4.37989 21.3986C4.36102 24.2703 4.36102 27.142 4.36102 30.0136C4.36102 30.1804 4.58756 30.4027 4.75746 30.5139C5.2483 30.8659 5.81465 31.1252 6.26773 31.4958C6.83409 31.9404 7.13614 32.5333 7.02287 33.2929C6.81521 34.5898 5.47484 35.442 4.07784 35.0715C3.36046 34.8862 2.64308 34.6268 1.98233 34.2933C0.207767 33.4041 -0.226437 32.4777 0.0944939 30.5509C0.660847 27.1605 1.90682 23.9739 3.4171 20.8984C4.37989 18.9346 5.89017 17.6006 7.98567 17.0448C9.87351 16.5631 11.8369 16.3223 13.7813 15.9703C14.1778 15.8961 14.1967 16.1926 14.2911 16.4149C15.1217 18.527 15.9335 20.6205 16.7641 22.7326C16.8208 22.8808 16.8963 23.029 17.0095 23.2513C17.1228 22.9919 17.1794 22.8437 17.2361 22.714C18.0667 20.602 18.8785 18.5084 19.7092 16.3964C19.8035 16.1555 19.8602 15.9147 20.2377 15.9703C21.899 16.2482 23.5792 16.4334 25.2216 16.804C27.808 17.3783 29.7147 18.8604 30.7719 21.306C30.9796 21.8062 31.2439 22.2879 31.4515 22.7696C32.6409 25.5301 33.6414 28.3462 33.9812 31.3661C34.0945 32.3665 33.7169 33.1261 32.9429 33.719C31.999 34.4601 30.904 34.8862 29.7525 35.1271C28.6386 35.3494 27.4871 34.775 27.1095 33.8672C26.6942 32.8853 26.9773 32.0516 28.0156 31.2735C28.3932 30.9956 28.7897 30.7547 29.205 30.5694C29.5637 30.4212 29.6581 30.2174 29.6581 29.8469C29.6392 27.179 29.6581 24.4926 29.6392 21.8247C29.6392 21.658 29.6014 21.4913 29.5826 21.2875C29.3938 21.3431 29.2805 21.3616 29.1672 21.3986C25.2783 22.7696 21.4082 24.1406 17.5193 25.4931C17.1983 25.6042 16.783 25.6228 16.4809 25.5116C14.2722 24.7705 12.0823 23.9739 9.87351 23.1957C8.09894 22.5288 6.26773 21.8989 4.43653 21.2504ZM17.0284 15.1365C12.7619 15.1551 9.30716 11.7832 9.28828 7.5961C9.2694 3.42755 12.7053 0.0186037 16.934 7.68213e-05C21.2194 -0.0184501 24.6742 3.31639 24.7119 7.52199C24.7308 11.7091 21.2949 15.118 17.0284 15.1365ZM16.4432 41.0001C16.1789 40.9074 16.009 40.8704 15.8391 40.7963C12.5354 39.6291 9.23164 38.4434 5.92792 37.2762C5.04064 36.9612 5.04064 36.9612 5.17279 35.9608C5.38045 35.9052 5.58811 35.8496 5.79577 35.794C7.96679 35.09 8.60866 32.663 7.00399 31.0511C6.58867 30.625 6.06007 30.2915 5.55036 29.9951C5.22942 29.8098 5.09727 29.6246 5.11615 29.254C5.13503 27.7348 5.11615 26.2156 5.11615 24.6964C5.11615 23.9183 5.11615 23.1587 5.11615 22.325C5.39933 22.4176 5.60699 22.4732 5.81465 22.5473C9.15613 23.733 12.4976 24.9187 15.858 26.0674C16.3299 26.2341 16.4621 26.4379 16.4621 26.9196C16.4432 31.4587 16.4621 35.9793 16.4621 40.5184C16.4809 40.6481 16.4621 40.7778 16.4432 41.0001ZM28.8085 35.9793C28.9218 36.9797 28.9218 36.9797 28.0534 37.2947C25.5048 38.184 22.9751 39.0918 20.4265 39.9811C19.4826 40.3146 18.5387 40.6666 17.557 41.0186C17.5193 40.8704 17.5004 40.7963 17.5004 40.7222C17.5004 36.0534 17.5193 31.3846 17.5004 26.7158C17.5004 26.3268 17.708 26.2156 18.0101 26.1045C20.5209 25.2337 23.0129 24.3444 25.5237 23.4736C26.5998 23.0846 27.6947 22.714 28.8463 22.3064C28.8463 24.7705 28.8463 27.142 28.8274 29.5134C28.8274 29.6616 28.6009 29.8469 28.4499 29.9581C27.9024 30.3842 27.2416 30.7362 26.7886 31.2549C25.4482 32.7371 26.0523 35.0159 27.959 35.7199C28.2422 35.8125 28.5254 35.8867 28.8085 35.9793Z" fill="#0061B1"/>
<path fill-rule="evenodd" clip-rule="evenodd" d="M4.43644 21.2505C6.28653 21.8989 8.09886 22.5288 9.91118 23.1773C12.1011 23.9554 14.3099 24.7335 16.5186 25.4931C16.8207 25.6043 17.236 25.5858 17.5569 25.4746C21.4459 24.1221 25.316 22.7512 29.2049 21.3802C29.3182 21.3431 29.4314 21.3246 29.6202 21.269C29.6391 21.4728 29.6769 21.6395 29.6769 21.8063C29.6769 24.4742 29.6769 27.1606 29.6957 29.8284C29.6957 30.199 29.6014 30.4028 29.2427 30.551C28.8273 30.7362 28.412 30.9771 28.0533 31.255C27.015 32.0331 26.7318 32.8668 27.1472 33.8488C27.5247 34.7566 28.6763 35.3309 29.7901 35.1086C30.9606 34.8677 32.0367 34.4416 32.9806 33.7005C33.7546 33.1077 34.1133 32.3481 34.0189 31.3476C33.6791 28.3463 32.6785 25.5302 31.4892 22.7512C31.2815 22.2509 31.0172 21.7692 30.8096 21.2875C29.7524 18.842 27.8457 17.3598 25.2593 16.7855C23.6169 16.415 21.9367 16.2482 20.2754 15.9518C19.8979 15.8962 19.8412 16.1371 19.7468 16.3779C18.9351 18.49 18.1044 20.5835 17.2738 22.6956C17.2171 22.8438 17.1605 22.992 17.0472 23.2329C16.9339 23.0105 16.8584 22.8623 16.8018 22.7141C15.9711 20.602 15.1594 18.5085 14.3287 16.3964C14.2343 16.1741 14.2155 15.8777 13.819 15.9518C11.8934 16.3038 9.93006 16.5447 8.02334 17.0264C5.92784 17.5636 4.41757 18.9161 3.45477 20.8799C1.9445 23.9739 0.698524 27.142 0.132172 30.5325C-0.188763 32.4592 0.245441 33.3856 2.02001 34.2749C2.68076 34.6084 3.39813 34.8677 4.11551 35.053C5.51251 35.4235 6.85288 34.5713 7.06054 33.2744C7.17381 32.5148 6.87176 31.922 6.30541 31.4773C5.83345 31.1068 5.28597 30.8474 4.79514 30.4954C4.62523 30.3842 4.39869 30.1619 4.39869 29.9952C4.37981 27.1235 4.39869 24.2518 4.41757 21.3802C4.37981 21.3802 4.39869 21.3616 4.43644 21.2505Z" fill="#0061B1"/>
<path fill-rule="evenodd" clip-rule="evenodd" d="M17.0284 15.1365C21.2949 15.118 24.7308 11.7091 24.6931 7.52199C24.6742 3.31639 21.2194 -0.0184501 16.934 7.68213e-05C12.7053 0.0186037 9.28828 3.42755 9.28828 7.5961C9.30716 11.7832 12.7619 15.1551 17.0284 15.1365Z" fill="#0061B1"/>
<path fill-rule="evenodd" clip-rule="evenodd" d="M16.4432 41.0001C16.4621 40.7963 16.481 40.648 16.481 40.5184C16.481 35.9793 16.4621 31.4587 16.481 26.9196C16.481 26.4379 16.3488 26.2341 15.8768 26.0674C12.5165 24.9187 9.17502 23.7145 5.83354 22.5473C5.62588 22.4732 5.41822 22.4176 5.13504 22.325C5.13504 23.1587 5.13504 23.9183 5.13504 24.6964C5.13504 26.2156 5.15392 27.7348 5.13504 29.254C5.13504 29.6245 5.24831 29.8098 5.56924 29.9951C6.07896 30.31 6.60756 30.6435 7.02288 31.0511C8.62754 32.663 7.98568 35.09 5.81466 35.794C5.607 35.8681 5.39934 35.9052 5.19167 35.9607C5.05953 36.9612 5.05953 36.9612 5.94681 37.2761C9.25053 38.4433 12.5543 39.6105 15.858 40.7963C16.0279 40.8518 16.1978 40.9074 16.4432 41.0001Z" fill="#0061B1"/>
<path fill-rule="evenodd" clip-rule="evenodd" d="M28.8082 35.9792C28.5439 35.8866 28.2419 35.831 27.9587 35.7199C26.0708 34.9973 25.4479 32.737 26.7882 31.2549C27.2413 30.7361 27.9021 30.4026 28.4495 29.958C28.6006 29.8283 28.8271 29.6616 28.8271 29.5134C28.846 27.1419 28.846 24.7705 28.846 22.3064C27.6944 22.714 26.6183 23.0845 25.5234 23.4736C23.0125 24.3444 20.5206 25.2336 18.0098 26.1044C17.7077 26.2156 17.4812 26.3082 17.5001 26.7158C17.5001 31.3846 17.5001 36.0533 17.5001 40.7221C17.5001 40.7962 17.5189 40.8703 17.5567 41.0186C18.5384 40.6665 19.4823 40.3145 20.4262 39.981C22.9748 39.0918 25.5045 38.1839 28.0531 37.2946C28.9215 36.9797 28.9215 36.9797 28.8082 35.9792Z" fill="#0061B1"/>
</g>
<defs>
<clipPath id="clip0_316_244">
<rect width="34" height="41" fill="white" transform="matrix(-1 0 0 1 34 0)"/>
</clipPath>
</defs>
</svg>
