<svg width="950" height="60" viewBox="0 0 950 60" fill="none" xmlns="http://www.w3.org/2000/svg">
<path fill-rule="evenodd" clip-rule="evenodd" d="M950 0.52002L0 0.52002L0 0.0200195L950 0.0200195V0.52002Z" fill="black"/>
<path d="M21.1562 50L18.9219 43.6562H10.1875L7.95312 50H4L12.5 27.0625H16.6562L25.1406 50H21.1562ZM17.9531 40.4375L15.7812 34.1875C15.6979 33.9167 15.5781 33.5365 15.4219 33.0469C15.2656 32.5469 15.1094 32.0417 14.9531 31.5312C14.7969 31.0104 14.6667 30.5729 14.5625 30.2188C14.4583 30.6458 14.3281 31.125 14.1719 31.6562C14.026 32.1771 13.8802 32.6667 13.7344 33.125C13.599 33.5833 13.4948 33.9375 13.4219 34.1875L11.2344 40.4375H17.9531ZM31.4688 50H27.7812V25.6875H31.4688V50ZM51.7969 32.7031V50H48.9062L48.4062 47.6719H48.2031C47.8385 48.2656 47.375 48.7604 46.8125 49.1562C46.25 49.5417 45.625 49.8281 44.9375 50.0156C44.25 50.2135 43.526 50.3125 42.7656 50.3125C41.4635 50.3125 40.349 50.0938 39.4219 49.6562C38.5052 49.2083 37.8021 48.5208 37.3125 47.5938C36.8229 46.6667 36.5781 45.4688 36.5781 44V32.7031H40.2656V43.3125C40.2656 44.6562 40.5365 45.6615 41.0781 46.3281C41.6302 46.9948 42.4844 47.3281 43.6406 47.3281C44.7552 47.3281 45.6406 47.099 46.2969 46.6406C46.9531 46.1823 47.4167 45.5052 47.6875 44.6094C47.9688 43.7135 48.1094 42.6146 48.1094 41.3125V32.7031H51.7969ZM76.6094 32.375C78.5469 32.375 80.0052 32.875 80.9844 33.875C81.974 34.875 82.4688 36.4792 82.4688 38.6875V50H78.7969V39.3438C78.7969 38.0312 78.5417 37.0417 78.0312 36.375C77.5208 35.7083 76.7448 35.375 75.7031 35.375C74.2448 35.375 73.1927 35.8438 72.5469 36.7812C71.9115 37.7083 71.5938 39.0573 71.5938 40.8281V50H67.9219V39.3438C67.9219 38.4688 67.8073 37.7396 67.5781 37.1562C67.3594 36.5625 67.0208 36.1198 66.5625 35.8281C66.1042 35.526 65.526 35.375 64.8281 35.375C63.8177 35.375 63.0104 35.6042 62.4062 36.0625C61.8125 36.5208 61.3854 37.1979 61.125 38.0938C60.8646 38.9792 60.7344 40.0677 60.7344 41.3594V50H57.0625V32.7031H59.9219L60.4375 35.0312H60.6406C60.9948 34.4271 61.4323 33.9323 61.9531 33.5469C62.4844 33.151 63.0729 32.8594 63.7188 32.6719C64.3646 32.474 65.0365 32.375 65.7344 32.375C67.026 32.375 68.1146 32.6042 69 33.0625C69.8854 33.5104 70.5469 34.1979 70.9844 35.125H71.2656C71.8073 34.1875 72.5625 33.4948 73.5312 33.0469C74.5 32.599 75.526 32.375 76.6094 32.375ZM96.6094 32.375C98.5573 32.375 100.073 32.8802 101.156 33.8906C102.25 34.8906 102.797 36.5 102.797 38.7188V50H99.125V39.4062C99.125 38.0625 98.849 37.0573 98.2969 36.3906C97.7448 35.7135 96.8906 35.375 95.7344 35.375C94.0573 35.375 92.8906 35.8906 92.2344 36.9219C91.5885 37.9531 91.2656 39.4479 91.2656 41.4062V50H87.5938V32.7031H90.4531L90.9688 35.0469H91.1719C91.5469 34.4427 92.0104 33.9479 92.5625 33.5625C93.125 33.1667 93.75 32.8698 94.4375 32.6719C95.1354 32.474 95.8594 32.375 96.6094 32.375ZM111.609 32.7031V50H107.938V32.7031H111.609ZM109.797 26.0781C110.359 26.0781 110.844 26.2292 111.25 26.5312C111.667 26.8333 111.875 27.3542 111.875 28.0938C111.875 28.8229 111.667 29.3438 111.25 29.6562C110.844 29.9583 110.359 30.1094 109.797 30.1094C109.214 30.1094 108.719 29.9583 108.312 29.6562C107.917 29.3438 107.719 28.8229 107.719 28.0938C107.719 27.3542 107.917 26.8333 108.312 26.5312C108.719 26.2292 109.214 26.0781 109.797 26.0781ZM135.297 30.0156C134.203 30.0156 133.224 30.2135 132.359 30.6094C131.505 31.0052 130.781 31.5781 130.188 32.3281C129.594 33.0677 129.141 33.9688 128.828 35.0312C128.516 36.0833 128.359 37.2708 128.359 38.5938C128.359 40.3646 128.609 41.8906 129.109 43.1719C129.609 44.4427 130.37 45.4219 131.391 46.1094C132.411 46.7865 133.703 47.125 135.266 47.125C136.234 47.125 137.177 47.0312 138.094 46.8438C139.01 46.6562 139.958 46.401 140.938 46.0781V49.2656C140.01 49.6302 139.073 49.8958 138.125 50.0625C137.177 50.2292 136.083 50.3125 134.844 50.3125C132.51 50.3125 130.573 49.8281 129.031 48.8594C127.5 47.8906 126.354 46.526 125.594 44.7656C124.844 43.0052 124.469 40.9427 124.469 38.5781C124.469 36.849 124.708 35.2656 125.188 33.8281C125.667 32.3906 126.365 31.151 127.281 30.1094C128.198 29.0573 129.328 28.25 130.672 27.6875C132.026 27.1146 133.573 26.8281 135.312 26.8281C136.458 26.8281 137.583 26.9583 138.688 27.2188C139.802 27.4688 140.833 27.8281 141.781 28.2969L140.469 31.3906C139.677 31.0156 138.849 30.6927 137.984 30.4219C137.12 30.151 136.224 30.0156 135.297 30.0156ZM160.781 41.3125C160.781 42.75 160.594 44.026 160.219 45.1406C159.844 46.2552 159.297 47.1979 158.578 47.9688C157.859 48.7292 156.995 49.3125 155.984 49.7188C154.974 50.1146 153.833 50.3125 152.562 50.3125C151.375 50.3125 150.286 50.1146 149.297 49.7188C148.307 49.3125 147.448 48.7292 146.719 47.9688C146 47.1979 145.443 46.2552 145.047 45.1406C144.651 44.026 144.453 42.75 144.453 41.3125C144.453 39.4062 144.781 37.7917 145.438 36.4688C146.104 35.1354 147.052 34.1198 148.281 33.4219C149.51 32.724 150.974 32.375 152.672 32.375C154.266 32.375 155.672 32.724 156.891 33.4219C158.109 34.1198 159.062 35.1354 159.75 36.4688C160.438 37.8021 160.781 39.4167 160.781 41.3125ZM148.234 41.3125C148.234 42.5729 148.385 43.651 148.688 44.5469C149 45.4427 149.479 46.1302 150.125 46.6094C150.771 47.0781 151.604 47.3125 152.625 47.3125C153.646 47.3125 154.479 47.0781 155.125 46.6094C155.771 46.1302 156.245 45.4427 156.547 44.5469C156.849 43.651 157 42.5729 157 41.3125C157 40.0521 156.849 38.9844 156.547 38.1094C156.245 37.224 155.771 36.5521 155.125 36.0938C154.479 35.625 153.641 35.3906 152.609 35.3906C151.089 35.3906 149.979 35.901 149.281 36.9219C148.583 37.9427 148.234 39.4062 148.234 41.3125ZM174.016 32.375C175.964 32.375 177.479 32.8802 178.562 33.8906C179.656 34.8906 180.203 36.5 180.203 38.7188V50H176.531V39.4062C176.531 38.0625 176.255 37.0573 175.703 36.3906C175.151 35.7135 174.297 35.375 173.141 35.375C171.464 35.375 170.297 35.8906 169.641 36.9219C168.995 37.9531 168.672 39.4479 168.672 41.4062V50H165V32.7031H167.859L168.375 35.0469H168.578C168.953 34.4427 169.417 33.9479 169.969 33.5625C170.531 33.1667 171.156 32.8698 171.844 32.6719C172.542 32.474 173.266 32.375 174.016 32.375ZM191.781 47.3438C192.26 47.3438 192.734 47.3021 193.203 47.2188C193.672 47.125 194.099 47.0156 194.484 46.8906V49.6719C194.078 49.849 193.552 50 192.906 50.125C192.26 50.25 191.589 50.3125 190.891 50.3125C189.911 50.3125 189.031 50.151 188.25 49.8281C187.469 49.4948 186.849 48.9271 186.391 48.125C185.932 47.3229 185.703 46.2135 185.703 44.7969V35.5H183.344V33.8594L185.875 32.5625L187.078 28.8594H189.391V32.7031H194.344V35.5H189.391V44.75C189.391 45.625 189.609 46.276 190.047 46.7031C190.484 47.1302 191.062 47.3438 191.781 47.3438ZM204.781 32.375C206.969 32.375 208.62 32.8594 209.734 33.8281C210.859 34.7969 211.422 36.3073 211.422 38.3594V50H208.812L208.109 47.5469H207.984C207.495 48.1719 206.99 48.6875 206.469 49.0938C205.948 49.5 205.344 49.8021 204.656 50C203.979 50.2083 203.151 50.3125 202.172 50.3125C201.141 50.3125 200.219 50.125 199.406 49.75C198.594 49.3646 197.953 48.7812 197.484 48C197.016 47.2188 196.781 46.2292 196.781 45.0312C196.781 43.25 197.443 41.9115 198.766 41.0156C200.099 40.1198 202.109 39.625 204.797 39.5312L207.797 39.4219V38.5156C207.797 37.3177 207.516 36.4635 206.953 35.9531C206.401 35.4427 205.62 35.1875 204.609 35.1875C203.745 35.1875 202.906 35.3125 202.094 35.5625C201.281 35.8125 200.49 36.1198 199.719 36.4844L198.531 33.8906C199.375 33.4427 200.333 33.0781 201.406 32.7969C202.49 32.5156 203.615 32.375 204.781 32.375ZM207.781 41.7344L205.547 41.8125C203.714 41.875 202.427 42.1875 201.688 42.75C200.948 43.3125 200.578 44.0833 200.578 45.0625C200.578 45.9167 200.833 46.5417 201.344 46.9375C201.854 47.3229 202.526 47.5156 203.359 47.5156C204.63 47.5156 205.682 47.1562 206.516 46.4375C207.359 45.7083 207.781 44.6406 207.781 43.2344V41.7344ZM223.531 50.3125C221.896 50.3125 220.479 49.9948 219.281 49.3594C218.083 48.724 217.161 47.75 216.516 46.4375C215.87 45.125 215.547 43.4583 215.547 41.4375C215.547 39.3333 215.901 37.6146 216.609 36.2812C217.318 34.9479 218.297 33.9635 219.547 33.3281C220.807 32.6927 222.25 32.375 223.875 32.375C224.906 32.375 225.839 32.4792 226.672 32.6875C227.516 32.8854 228.229 33.1302 228.812 33.4219L227.719 36.3594C227.083 36.099 226.432 35.8802 225.766 35.7031C225.099 35.526 224.458 35.4375 223.844 35.4375C222.833 35.4375 221.99 35.6615 221.312 36.1094C220.646 36.5573 220.146 37.224 219.812 38.1094C219.49 38.9948 219.328 40.0938 219.328 41.4062C219.328 42.6771 219.495 43.75 219.828 44.625C220.161 45.4896 220.656 46.1458 221.312 46.5938C221.969 47.0312 222.776 47.25 223.734 47.25C224.682 47.25 225.531 47.1354 226.281 46.9062C227.031 46.6771 227.74 46.3802 228.406 46.0156V49.2031C227.75 49.5781 227.047 49.8542 226.297 50.0312C225.547 50.2188 224.625 50.3125 223.531 50.3125ZM238.906 47.3438C239.385 47.3438 239.859 47.3021 240.328 47.2188C240.797 47.125 241.224 47.0156 241.609 46.8906V49.6719C241.203 49.849 240.677 50 240.031 50.125C239.385 50.25 238.714 50.3125 238.016 50.3125C237.036 50.3125 236.156 50.151 235.375 49.8281C234.594 49.4948 233.974 48.9271 233.516 48.125C233.057 47.3229 232.828 46.2135 232.828 44.7969V35.5H230.469V33.8594L233 32.5625L234.203 28.8594H236.516V32.7031H241.469V35.5H236.516V44.75C236.516 45.625 236.734 46.276 237.172 46.7031C237.609 47.1302 238.188 47.3438 238.906 47.3438Z" fill="black"/>
</svg>
