<svg width="952" height="200" viewBox="0 0 952 200" fill="none" xmlns="http://www.w3.org/2000/svg">
<rect width="952" height="200" fill="white"/>
<path d="M123.578 104H120.004V85.7656H123.578V104ZM132.742 90.6523C133.953 90.6523 134.996 90.8867 135.871 91.3555C136.746 91.8164 137.422 92.4883 137.898 93.3711C138.375 94.2539 138.613 95.332 138.613 96.6055V98.3398H130.164C130.203 99.3477 130.504 100.141 131.066 100.719C131.637 101.289 132.426 101.574 133.434 101.574C134.27 101.574 135.035 101.488 135.73 101.316C136.426 101.145 137.141 100.887 137.875 100.543V103.309C137.227 103.629 136.547 103.863 135.836 104.012C135.133 104.16 134.277 104.234 133.27 104.234C131.957 104.234 130.793 103.992 129.777 103.508C128.77 103.023 127.977 102.285 127.398 101.293C126.828 100.301 126.543 99.0508 126.543 97.543C126.543 96.0117 126.801 94.7383 127.316 93.7227C127.84 92.6992 128.566 91.9336 129.496 91.4258C130.426 90.9102 131.508 90.6523 132.742 90.6523ZM132.766 93.1953C132.07 93.1953 131.492 93.418 131.031 93.8633C130.578 94.3086 130.316 95.0078 130.246 95.9609H135.262C135.254 95.4297 135.156 94.957 134.969 94.543C134.789 94.1289 134.516 93.8008 134.148 93.5586C133.789 93.3164 133.328 93.1953 132.766 93.1953ZM150.66 100.109C150.66 101 150.449 101.754 150.027 102.371C149.613 102.98 148.992 103.445 148.164 103.766C147.336 104.078 146.305 104.234 145.07 104.234C144.156 104.234 143.371 104.176 142.715 104.059C142.066 103.941 141.41 103.746 140.746 103.473V100.52C141.457 100.84 142.219 101.105 143.031 101.316C143.852 101.52 144.57 101.621 145.188 101.621C145.883 101.621 146.379 101.52 146.676 101.316C146.98 101.105 147.133 100.832 147.133 100.496C147.133 100.277 147.07 100.082 146.945 99.9102C146.828 99.7305 146.57 99.5312 146.172 99.3125C145.773 99.0859 145.148 98.793 144.297 98.4336C143.477 98.0898 142.801 97.7422 142.27 97.3906C141.746 97.0391 141.355 96.625 141.098 96.1484C140.848 95.6641 140.723 95.0508 140.723 94.3086C140.723 93.0977 141.191 92.1875 142.129 91.5781C143.074 90.9609 144.336 90.6523 145.914 90.6523C146.727 90.6523 147.5 90.7344 148.234 90.8984C148.977 91.0625 149.738 91.3242 150.52 91.6836L149.441 94.2617C148.793 93.9805 148.18 93.75 147.602 93.5703C147.031 93.3906 146.449 93.3008 145.855 93.3008C145.332 93.3008 144.938 93.3711 144.672 93.5117C144.406 93.6523 144.273 93.8672 144.273 94.1562C144.273 94.3672 144.34 94.5547 144.473 94.7188C144.613 94.8828 144.879 95.0664 145.27 95.2695C145.668 95.4648 146.25 95.7188 147.016 96.0312C147.758 96.3359 148.402 96.6562 148.949 96.9922C149.496 97.3203 149.918 97.7305 150.215 98.2227C150.512 98.707 150.66 99.3359 150.66 100.109ZM166.973 90.6523C168.449 90.6523 169.641 91.2266 170.547 92.375C171.461 93.5234 171.918 95.207 171.918 97.4258C171.918 98.9102 171.703 100.16 171.273 101.176C170.844 102.184 170.25 102.945 169.492 103.461C168.734 103.977 167.863 104.234 166.879 104.234C166.246 104.234 165.703 104.156 165.25 104C164.797 103.836 164.41 103.629 164.09 103.379C163.77 103.121 163.492 102.848 163.258 102.559H163.07C163.133 102.871 163.18 103.191 163.211 103.52C163.242 103.848 163.258 104.168 163.258 104.48V109.766H159.684V90.8984H162.59L163.094 92.5977H163.258C163.492 92.2461 163.777 91.9219 164.113 91.625C164.449 91.3281 164.852 91.0938 165.32 90.9219C165.797 90.7422 166.348 90.6523 166.973 90.6523ZM165.824 93.5117C165.199 93.5117 164.703 93.6406 164.336 93.8984C163.969 94.1562 163.699 94.543 163.527 95.0586C163.363 95.5742 163.273 96.2266 163.258 97.0156V97.4023C163.258 98.2461 163.336 98.9609 163.492 99.5469C163.656 100.133 163.926 100.578 164.301 100.883C164.684 101.188 165.207 101.34 165.871 101.34C166.418 101.34 166.867 101.188 167.219 100.883C167.57 100.578 167.832 100.133 168.004 99.5469C168.184 98.9531 168.273 98.2305 168.273 97.3789C168.273 96.0977 168.074 95.1328 167.676 94.4844C167.277 93.8359 166.66 93.5117 165.824 93.5117ZM180.238 90.6289C181.996 90.6289 183.344 91.0117 184.281 91.7773C185.219 92.543 185.688 93.707 185.688 95.2695V104H183.191L182.5 102.219H182.406C182.031 102.688 181.648 103.07 181.258 103.367C180.867 103.664 180.418 103.883 179.91 104.023C179.402 104.164 178.785 104.234 178.059 104.234C177.285 104.234 176.59 104.086 175.973 103.789C175.363 103.492 174.883 103.039 174.531 102.43C174.18 101.812 174.004 101.031 174.004 100.086C174.004 98.6953 174.492 97.6719 175.469 97.0156C176.445 96.3516 177.91 95.9844 179.863 95.9141L182.137 95.8438V95.2695C182.137 94.582 181.957 94.0781 181.598 93.7578C181.238 93.4375 180.738 93.2773 180.098 93.2773C179.465 93.2773 178.844 93.3672 178.234 93.5469C177.625 93.7266 177.016 93.9531 176.406 94.2266L175.223 91.8125C175.918 91.4453 176.695 91.1562 177.555 90.9453C178.422 90.7344 179.316 90.6289 180.238 90.6289ZM182.137 97.9297L180.754 97.9766C179.598 98.0078 178.793 98.2148 178.34 98.5977C177.895 98.9805 177.672 99.4844 177.672 100.109C177.672 100.656 177.832 101.047 178.152 101.281C178.473 101.508 178.891 101.621 179.406 101.621C180.172 101.621 180.816 101.395 181.34 100.941C181.871 100.488 182.137 99.8438 182.137 99.0078V97.9297ZM196.691 90.6523C196.871 90.6523 197.078 90.6641 197.312 90.6875C197.555 90.7031 197.75 90.7266 197.898 90.7578L197.629 94.1094C197.512 94.0703 197.344 94.043 197.125 94.0273C196.914 94.0039 196.73 93.9922 196.574 93.9922C196.113 93.9922 195.664 94.0508 195.227 94.168C194.797 94.2852 194.41 94.4766 194.066 94.7422C193.723 95 193.449 95.3438 193.246 95.7734C193.051 96.1953 192.953 96.7148 192.953 97.332V104H189.379V90.8984H192.086L192.613 93.1016H192.789C193.047 92.6562 193.367 92.25 193.75 91.8828C194.141 91.5078 194.582 91.2109 195.074 90.9922C195.574 90.7656 196.113 90.6523 196.691 90.6523ZM205.598 104.234C204.301 104.234 203.195 104 202.281 103.531C201.367 103.055 200.672 102.32 200.195 101.328C199.719 100.336 199.48 99.0664 199.48 97.5195C199.48 95.918 199.75 94.6133 200.289 93.6055C200.836 92.5898 201.59 91.8438 202.551 91.3672C203.52 90.8906 204.641 90.6523 205.914 90.6523C206.82 90.6523 207.602 90.7422 208.258 90.9219C208.922 91.0938 209.5 91.3008 209.992 91.543L208.938 94.3086C208.375 94.082 207.852 93.8984 207.367 93.7578C206.883 93.6094 206.398 93.5352 205.914 93.5352C205.289 93.5352 204.77 93.6836 204.355 93.9805C203.941 94.2695 203.633 94.707 203.43 95.293C203.227 95.8789 203.125 96.6133 203.125 97.4961C203.125 98.3633 203.234 99.082 203.453 99.6523C203.672 100.223 203.988 100.648 204.402 100.93C204.816 101.203 205.32 101.34 205.914 101.34C206.656 101.34 207.316 101.242 207.895 101.047C208.473 100.844 209.035 100.562 209.582 100.203V103.262C209.035 103.605 208.461 103.852 207.859 104C207.266 104.156 206.512 104.234 205.598 104.234ZM224.535 97.4258C224.535 98.5195 224.387 99.4883 224.09 100.332C223.801 101.176 223.375 101.891 222.812 102.477C222.258 103.055 221.586 103.492 220.797 103.789C220.016 104.086 219.133 104.234 218.148 104.234C217.227 104.234 216.379 104.086 215.605 103.789C214.84 103.492 214.172 103.055 213.602 102.477C213.039 101.891 212.602 101.176 212.289 100.332C211.984 99.4883 211.832 98.5195 211.832 97.4258C211.832 95.9727 212.09 94.7422 212.605 93.7344C213.121 92.7266 213.855 91.9609 214.809 91.4375C215.762 90.9141 216.898 90.6523 218.219 90.6523C219.445 90.6523 220.531 90.9141 221.477 91.4375C222.43 91.9609 223.176 92.7266 223.715 93.7344C224.262 94.7422 224.535 95.9727 224.535 97.4258ZM215.477 97.4258C215.477 98.2852 215.57 99.0078 215.758 99.5938C215.945 100.18 216.238 100.621 216.637 100.918C217.035 101.215 217.555 101.363 218.195 101.363C218.828 101.363 219.34 101.215 219.73 100.918C220.129 100.621 220.418 100.18 220.598 99.5938C220.785 99.0078 220.879 98.2852 220.879 97.4258C220.879 96.5586 220.785 95.8398 220.598 95.2695C220.418 94.6914 220.129 94.2578 219.73 93.9688C219.332 93.6797 218.812 93.5352 218.172 93.5352C217.227 93.5352 216.539 93.8594 216.109 94.5078C215.688 95.1562 215.477 96.1289 215.477 97.4258ZM239.512 90.8984V104H236.77L236.289 102.324H236.102C235.82 102.77 235.469 103.133 235.047 103.414C234.625 103.695 234.16 103.902 233.652 104.035C233.145 104.168 232.617 104.234 232.07 104.234C231.133 104.234 230.316 104.07 229.621 103.742C228.926 103.406 228.383 102.887 227.992 102.184C227.609 101.48 227.418 100.566 227.418 99.4414V90.8984H230.992V98.5508C230.992 99.4883 231.16 100.195 231.496 100.672C231.832 101.148 232.367 101.387 233.102 101.387C233.828 101.387 234.398 101.223 234.812 100.895C235.227 100.559 235.516 100.07 235.68 99.4297C235.852 98.7812 235.938 97.9922 235.938 97.0625V90.8984H239.512ZM250.574 90.6523C250.754 90.6523 250.961 90.6641 251.195 90.6875C251.438 90.7031 251.633 90.7266 251.781 90.7578L251.512 94.1094C251.395 94.0703 251.227 94.043 251.008 94.0273C250.797 94.0039 250.613 93.9922 250.457 93.9922C249.996 93.9922 249.547 94.0508 249.109 94.168C248.68 94.2852 248.293 94.4766 247.949 94.7422C247.605 95 247.332 95.3438 247.129 95.7734C246.934 96.1953 246.836 96.7148 246.836 97.332V104H243.262V90.8984H245.969L246.496 93.1016H246.672C246.93 92.6562 247.25 92.25 247.633 91.8828C248.023 91.5078 248.465 91.2109 248.957 90.9922C249.457 90.7656 249.996 90.6523 250.574 90.6523ZM263.301 100.109C263.301 101 263.09 101.754 262.668 102.371C262.254 102.98 261.633 103.445 260.805 103.766C259.977 104.078 258.945 104.234 257.711 104.234C256.797 104.234 256.012 104.176 255.355 104.059C254.707 103.941 254.051 103.746 253.387 103.473V100.52C254.098 100.84 254.859 101.105 255.672 101.316C256.492 101.52 257.211 101.621 257.828 101.621C258.523 101.621 259.02 101.52 259.316 101.316C259.621 101.105 259.773 100.832 259.773 100.496C259.773 100.277 259.711 100.082 259.586 99.9102C259.469 99.7305 259.211 99.5312 258.812 99.3125C258.414 99.0859 257.789 98.793 256.938 98.4336C256.117 98.0898 255.441 97.7422 254.91 97.3906C254.387 97.0391 253.996 96.625 253.738 96.1484C253.488 95.6641 253.363 95.0508 253.363 94.3086C253.363 93.0977 253.832 92.1875 254.77 91.5781C255.715 90.9609 256.977 90.6523 258.555 90.6523C259.367 90.6523 260.141 90.7344 260.875 90.8984C261.617 91.0625 262.379 91.3242 263.16 91.6836L262.082 94.2617C261.434 93.9805 260.82 93.75 260.242 93.5703C259.672 93.3906 259.09 93.3008 258.496 93.3008C257.973 93.3008 257.578 93.3711 257.312 93.5117C257.047 93.6523 256.914 93.8672 256.914 94.1562C256.914 94.3672 256.98 94.5547 257.113 94.7188C257.254 94.8828 257.52 95.0664 257.91 95.2695C258.309 95.4648 258.891 95.7188 259.656 96.0312C260.398 96.3359 261.043 96.6562 261.59 96.9922C262.137 97.3203 262.559 97.7305 262.855 98.2227C263.152 98.707 263.301 99.3359 263.301 100.109ZM277.727 90.6523C278.938 90.6523 279.98 90.8867 280.855 91.3555C281.73 91.8164 282.406 92.4883 282.883 93.3711C283.359 94.2539 283.598 95.332 283.598 96.6055V98.3398H275.148C275.188 99.3477 275.488 100.141 276.051 100.719C276.621 101.289 277.41 101.574 278.418 101.574C279.254 101.574 280.02 101.488 280.715 101.316C281.41 101.145 282.125 100.887 282.859 100.543V103.309C282.211 103.629 281.531 103.863 280.82 104.012C280.117 104.16 279.262 104.234 278.254 104.234C276.941 104.234 275.777 103.992 274.762 103.508C273.754 103.023 272.961 102.285 272.383 101.293C271.812 100.301 271.527 99.0508 271.527 97.543C271.527 96.0117 271.785 94.7383 272.301 93.7227C272.824 92.6992 273.551 91.9336 274.48 91.4258C275.41 90.9102 276.492 90.6523 277.727 90.6523ZM277.75 93.1953C277.055 93.1953 276.477 93.418 276.016 93.8633C275.562 94.3086 275.301 95.0078 275.23 95.9609H280.246C280.238 95.4297 280.141 94.957 279.953 94.543C279.773 94.1289 279.5 93.8008 279.133 93.5586C278.773 93.3164 278.312 93.1953 277.75 93.1953ZM289.188 97.3086L284.969 90.8984H289.023L291.566 95.0703L294.133 90.8984H298.188L293.922 97.3086L298.387 104H294.32L291.566 99.5117L288.801 104H284.746L289.188 97.3086ZM305.699 104.234C304.402 104.234 303.297 104 302.383 103.531C301.469 103.055 300.773 102.32 300.297 101.328C299.82 100.336 299.582 99.0664 299.582 97.5195C299.582 95.918 299.852 94.6133 300.391 93.6055C300.938 92.5898 301.691 91.8438 302.652 91.3672C303.621 90.8906 304.742 90.6523 306.016 90.6523C306.922 90.6523 307.703 90.7422 308.359 90.9219C309.023 91.0938 309.602 91.3008 310.094 91.543L309.039 94.3086C308.477 94.082 307.953 93.8984 307.469 93.7578C306.984 93.6094 306.5 93.5352 306.016 93.5352C305.391 93.5352 304.871 93.6836 304.457 93.9805C304.043 94.2695 303.734 94.707 303.531 95.293C303.328 95.8789 303.227 96.6133 303.227 97.4961C303.227 98.3633 303.336 99.082 303.555 99.6523C303.773 100.223 304.09 100.648 304.504 100.93C304.918 101.203 305.422 101.34 306.016 101.34C306.758 101.34 307.418 101.242 307.996 101.047C308.574 100.844 309.137 100.562 309.684 100.203V103.262C309.137 103.605 308.562 103.852 307.961 104C307.367 104.156 306.613 104.234 305.699 104.234ZM318.133 90.6523C319.344 90.6523 320.387 90.8867 321.262 91.3555C322.137 91.8164 322.812 92.4883 323.289 93.3711C323.766 94.2539 324.004 95.332 324.004 96.6055V98.3398H315.555C315.594 99.3477 315.895 100.141 316.457 100.719C317.027 101.289 317.816 101.574 318.824 101.574C319.66 101.574 320.426 101.488 321.121 101.316C321.816 101.145 322.531 100.887 323.266 100.543V103.309C322.617 103.629 321.938 103.863 321.227 104.012C320.523 104.16 319.668 104.234 318.66 104.234C317.348 104.234 316.184 103.992 315.168 103.508C314.16 103.023 313.367 102.285 312.789 101.293C312.219 100.301 311.934 99.0508 311.934 97.543C311.934 96.0117 312.191 94.7383 312.707 93.7227C313.23 92.6992 313.957 91.9336 314.887 91.4258C315.816 90.9102 316.898 90.6523 318.133 90.6523ZM318.156 93.1953C317.461 93.1953 316.883 93.418 316.422 93.8633C315.969 94.3086 315.707 95.0078 315.637 95.9609H320.652C320.645 95.4297 320.547 94.957 320.359 94.543C320.18 94.1289 319.906 93.8008 319.539 93.5586C319.18 93.3164 318.719 93.1953 318.156 93.1953ZM334.199 90.6523C335.676 90.6523 336.867 91.2266 337.773 92.375C338.688 93.5234 339.145 95.207 339.145 97.4258C339.145 98.9102 338.93 100.16 338.5 101.176C338.07 102.184 337.477 102.945 336.719 103.461C335.961 103.977 335.09 104.234 334.105 104.234C333.473 104.234 332.93 104.156 332.477 104C332.023 103.836 331.637 103.629 331.316 103.379C330.996 103.121 330.719 102.848 330.484 102.559H330.297C330.359 102.871 330.406 103.191 330.438 103.52C330.469 103.848 330.484 104.168 330.484 104.48V109.766H326.91V90.8984H329.816L330.32 92.5977H330.484C330.719 92.2461 331.004 91.9219 331.34 91.625C331.676 91.3281 332.078 91.0938 332.547 90.9219C333.023 90.7422 333.574 90.6523 334.199 90.6523ZM333.051 93.5117C332.426 93.5117 331.93 93.6406 331.562 93.8984C331.195 94.1562 330.926 94.543 330.754 95.0586C330.59 95.5742 330.5 96.2266 330.484 97.0156V97.4023C330.484 98.2461 330.562 98.9609 330.719 99.5469C330.883 100.133 331.152 100.578 331.527 100.883C331.91 101.188 332.434 101.34 333.098 101.34C333.645 101.34 334.094 101.188 334.445 100.883C334.797 100.578 335.059 100.133 335.23 99.5469C335.41 98.9531 335.5 98.2305 335.5 97.3789C335.5 96.0977 335.301 95.1328 334.902 94.4844C334.504 93.8359 333.887 93.5117 333.051 93.5117ZM347.617 101.387C348.008 101.387 348.387 101.348 348.754 101.27C349.129 101.191 349.5 101.094 349.867 100.977V103.637C349.484 103.809 349.008 103.949 348.438 104.059C347.875 104.176 347.258 104.234 346.586 104.234C345.805 104.234 345.102 104.109 344.477 103.859C343.859 103.602 343.371 103.16 343.012 102.535C342.66 101.902 342.484 101.023 342.484 99.8984V93.582H340.773V92.0703L342.742 90.875L343.773 88.1094H346.059V90.8984H349.727V93.582H346.059V99.8984C346.059 100.398 346.199 100.773 346.48 101.023C346.77 101.266 347.148 101.387 347.617 101.387ZM356.102 90.8984V104H352.527V90.8984H356.102ZM354.32 85.7656C354.852 85.7656 355.309 85.8906 355.691 86.1406C356.074 86.3828 356.266 86.8398 356.266 87.5117C356.266 88.1758 356.074 88.6367 355.691 88.8945C355.309 89.1445 354.852 89.2695 354.32 89.2695C353.781 89.2695 353.32 89.1445 352.938 88.8945C352.562 88.6367 352.375 88.1758 352.375 87.5117C352.375 86.8398 352.562 86.3828 352.938 86.1406C353.32 85.8906 353.781 85.7656 354.32 85.7656ZM371.77 97.4258C371.77 98.5195 371.621 99.4883 371.324 100.332C371.035 101.176 370.609 101.891 370.047 102.477C369.492 103.055 368.82 103.492 368.031 103.789C367.25 104.086 366.367 104.234 365.383 104.234C364.461 104.234 363.613 104.086 362.84 103.789C362.074 103.492 361.406 103.055 360.836 102.477C360.273 101.891 359.836 101.176 359.523 100.332C359.219 99.4883 359.066 98.5195 359.066 97.4258C359.066 95.9727 359.324 94.7422 359.84 93.7344C360.355 92.7266 361.09 91.9609 362.043 91.4375C362.996 90.9141 364.133 90.6523 365.453 90.6523C366.68 90.6523 367.766 90.9141 368.711 91.4375C369.664 91.9609 370.41 92.7266 370.949 93.7344C371.496 94.7422 371.77 95.9727 371.77 97.4258ZM362.711 97.4258C362.711 98.2852 362.805 99.0078 362.992 99.5938C363.18 100.18 363.473 100.621 363.871 100.918C364.27 101.215 364.789 101.363 365.43 101.363C366.062 101.363 366.574 101.215 366.965 100.918C367.363 100.621 367.652 100.18 367.832 99.5938C368.02 99.0078 368.113 98.2852 368.113 97.4258C368.113 96.5586 368.02 95.8398 367.832 95.2695C367.652 94.6914 367.363 94.2578 366.965 93.9688C366.566 93.6797 366.047 93.5352 365.406 93.5352C364.461 93.5352 363.773 93.8594 363.344 94.5078C362.922 95.1562 362.711 96.1289 362.711 97.4258ZM382.164 90.6523C383.562 90.6523 384.688 91.0352 385.539 91.8008C386.391 92.5586 386.816 93.7773 386.816 95.457V104H383.242V96.3477C383.242 95.4102 383.07 94.7031 382.727 94.2266C382.391 93.75 381.859 93.5117 381.133 93.5117C380.039 93.5117 379.293 93.8828 378.895 94.625C378.496 95.3672 378.297 96.4375 378.297 97.8359V104H374.723V90.8984H377.453L377.934 92.5742H378.133C378.414 92.1211 378.762 91.7539 379.176 91.4727C379.598 91.1914 380.062 90.9844 380.57 90.8516C381.086 90.7188 381.617 90.6523 382.164 90.6523ZM397.938 90.6523C399.336 90.6523 400.461 91.0352 401.312 91.8008C402.164 92.5586 402.59 93.7773 402.59 95.457V104H399.016V96.3477C399.016 95.4102 398.844 94.7031 398.5 94.2266C398.164 93.75 397.633 93.5117 396.906 93.5117C395.812 93.5117 395.066 93.8828 394.668 94.625C394.27 95.3672 394.07 96.4375 394.07 97.8359V104H390.496V90.8984H393.227L393.707 92.5742H393.906C394.188 92.1211 394.535 91.7539 394.949 91.4727C395.371 91.1914 395.836 90.9844 396.344 90.8516C396.859 90.7188 397.391 90.6523 397.938 90.6523ZM411.672 90.6523C412.883 90.6523 413.926 90.8867 414.801 91.3555C415.676 91.8164 416.352 92.4883 416.828 93.3711C417.305 94.2539 417.543 95.332 417.543 96.6055V98.3398H409.094C409.133 99.3477 409.434 100.141 409.996 100.719C410.566 101.289 411.355 101.574 412.363 101.574C413.199 101.574 413.965 101.488 414.66 101.316C415.355 101.145 416.07 100.887 416.805 100.543V103.309C416.156 103.629 415.477 103.863 414.766 104.012C414.062 104.16 413.207 104.234 412.199 104.234C410.887 104.234 409.723 103.992 408.707 103.508C407.699 103.023 406.906 102.285 406.328 101.293C405.758 100.301 405.473 99.0508 405.473 97.543C405.473 96.0117 405.73 94.7383 406.246 93.7227C406.77 92.6992 407.496 91.9336 408.426 91.4258C409.355 90.9102 410.438 90.6523 411.672 90.6523ZM411.695 93.1953C411 93.1953 410.422 93.418 409.961 93.8633C409.508 94.3086 409.246 95.0078 409.176 95.9609H414.191C414.184 95.4297 414.086 94.957 413.898 94.543C413.719 94.1289 413.445 93.8008 413.078 93.5586C412.719 93.3164 412.258 93.1953 411.695 93.1953ZM424.023 104H420.449V85.7656H424.023V104ZM436.926 100.109C436.926 101 436.715 101.754 436.293 102.371C435.879 102.98 435.258 103.445 434.43 103.766C433.602 104.078 432.57 104.234 431.336 104.234C430.422 104.234 429.637 104.176 428.98 104.059C428.332 103.941 427.676 103.746 427.012 103.473V100.52C427.723 100.84 428.484 101.105 429.297 101.316C430.117 101.52 430.836 101.621 431.453 101.621C432.148 101.621 432.645 101.52 432.941 101.316C433.246 101.105 433.398 100.832 433.398 100.496C433.398 100.277 433.336 100.082 433.211 99.9102C433.094 99.7305 432.836 99.5312 432.438 99.3125C432.039 99.0859 431.414 98.793 430.562 98.4336C429.742 98.0898 429.066 97.7422 428.535 97.3906C428.012 97.0391 427.621 96.625 427.363 96.1484C427.113 95.6641 426.988 95.0508 426.988 94.3086C426.988 93.0977 427.457 92.1875 428.395 91.5781C429.34 90.9609 430.602 90.6523 432.18 90.6523C432.992 90.6523 433.766 90.7344 434.5 90.8984C435.242 91.0625 436.004 91.3242 436.785 91.6836L435.707 94.2617C435.059 93.9805 434.445 93.75 433.867 93.5703C433.297 93.3906 432.715 93.3008 432.121 93.3008C431.598 93.3008 431.203 93.3711 430.938 93.5117C430.672 93.6523 430.539 93.8672 430.539 94.1562C430.539 94.3672 430.605 94.5547 430.738 94.7188C430.879 94.8828 431.145 95.0664 431.535 95.2695C431.934 95.4648 432.516 95.7188 433.281 96.0312C434.023 96.3359 434.668 96.6562 435.215 96.9922C435.762 97.3203 436.184 97.7305 436.48 98.2227C436.777 98.707 436.926 99.3359 436.926 100.109ZM450.098 104.234C448.637 104.234 447.445 103.664 446.523 102.523C445.609 101.375 445.152 99.6914 445.152 97.4727C445.152 95.2305 445.617 93.5352 446.547 92.3867C447.477 91.2305 448.691 90.6523 450.191 90.6523C450.816 90.6523 451.367 90.7383 451.844 90.9102C452.32 91.082 452.73 91.3125 453.074 91.6016C453.426 91.8906 453.723 92.2148 453.965 92.5742H454.082C454.035 92.3242 453.977 91.957 453.906 91.4727C453.844 90.9805 453.812 90.4766 453.812 89.9609V85.7656H457.398V104H454.656L453.965 102.301H453.812C453.586 102.66 453.301 102.988 452.957 103.285C452.621 103.574 452.219 103.805 451.75 103.977C451.281 104.148 450.73 104.234 450.098 104.234ZM451.352 101.387C452.328 101.387 453.016 101.098 453.414 100.52C453.82 99.9336 454.035 99.0547 454.059 97.8828V97.4961C454.059 96.2227 453.863 95.25 453.473 94.5781C453.082 93.8984 452.355 93.5586 451.293 93.5586C450.504 93.5586 449.887 93.8984 449.441 94.5781C448.996 95.2578 448.773 96.2383 448.773 97.5195C448.773 98.8008 448.996 99.7656 449.441 100.414C449.895 101.062 450.531 101.387 451.352 101.387ZM466.539 90.6523C467.75 90.6523 468.793 90.8867 469.668 91.3555C470.543 91.8164 471.219 92.4883 471.695 93.3711C472.172 94.2539 472.41 95.332 472.41 96.6055V98.3398H463.961C464 99.3477 464.301 100.141 464.863 100.719C465.434 101.289 466.223 101.574 467.23 101.574C468.066 101.574 468.832 101.488 469.527 101.316C470.223 101.145 470.938 100.887 471.672 100.543V103.309C471.023 103.629 470.344 103.863 469.633 104.012C468.93 104.16 468.074 104.234 467.066 104.234C465.754 104.234 464.59 103.992 463.574 103.508C462.566 103.023 461.773 102.285 461.195 101.293C460.625 100.301 460.34 99.0508 460.34 97.543C460.34 96.0117 460.598 94.7383 461.113 93.7227C461.637 92.6992 462.363 91.9336 463.293 91.4258C464.223 90.9102 465.305 90.6523 466.539 90.6523ZM466.562 93.1953C465.867 93.1953 465.289 93.418 464.828 93.8633C464.375 94.3086 464.113 95.0078 464.043 95.9609H469.059C469.051 95.4297 468.953 94.957 468.766 94.543C468.586 94.1289 468.312 93.8008 467.945 93.5586C467.586 93.3164 467.125 93.1953 466.562 93.1953ZM488.992 90.6523C490.391 90.6523 491.516 91.0352 492.367 91.8008C493.219 92.5586 493.645 93.7773 493.645 95.457V104H490.07V96.3477C490.07 95.4102 489.898 94.7031 489.555 94.2266C489.219 93.75 488.688 93.5117 487.961 93.5117C486.867 93.5117 486.121 93.8828 485.723 94.625C485.324 95.3672 485.125 96.4375 485.125 97.8359V104H481.551V90.8984H484.281L484.762 92.5742H484.961C485.242 92.1211 485.59 91.7539 486.004 91.4727C486.426 91.1914 486.891 90.9844 487.398 90.8516C487.914 90.7188 488.445 90.6523 488.992 90.6523ZM509.23 97.4258C509.23 98.5195 509.082 99.4883 508.785 100.332C508.496 101.176 508.07 101.891 507.508 102.477C506.953 103.055 506.281 103.492 505.492 103.789C504.711 104.086 503.828 104.234 502.844 104.234C501.922 104.234 501.074 104.086 500.301 103.789C499.535 103.492 498.867 103.055 498.297 102.477C497.734 101.891 497.297 101.176 496.984 100.332C496.68 99.4883 496.527 98.5195 496.527 97.4258C496.527 95.9727 496.785 94.7422 497.301 93.7344C497.816 92.7266 498.551 91.9609 499.504 91.4375C500.457 90.9141 501.594 90.6523 502.914 90.6523C504.141 90.6523 505.227 90.9141 506.172 91.4375C507.125 91.9609 507.871 92.7266 508.41 93.7344C508.957 94.7422 509.23 95.9727 509.23 97.4258ZM500.172 97.4258C500.172 98.2852 500.266 99.0078 500.453 99.5938C500.641 100.18 500.934 100.621 501.332 100.918C501.73 101.215 502.25 101.363 502.891 101.363C503.523 101.363 504.035 101.215 504.426 100.918C504.824 100.621 505.113 100.18 505.293 99.5938C505.48 99.0078 505.574 98.2852 505.574 97.4258C505.574 96.5586 505.48 95.8398 505.293 95.2695C505.113 94.6914 504.824 94.2578 504.426 93.9688C504.027 93.6797 503.508 93.5352 502.867 93.5352C501.922 93.5352 501.234 93.8594 500.805 94.5078C500.383 95.1562 500.172 96.1289 500.172 97.4258ZM521.324 100.109C521.324 101 521.113 101.754 520.691 102.371C520.277 102.98 519.656 103.445 518.828 103.766C518 104.078 516.969 104.234 515.734 104.234C514.82 104.234 514.035 104.176 513.379 104.059C512.73 103.941 512.074 103.746 511.41 103.473V100.52C512.121 100.84 512.883 101.105 513.695 101.316C514.516 101.52 515.234 101.621 515.852 101.621C516.547 101.621 517.043 101.52 517.34 101.316C517.645 101.105 517.797 100.832 517.797 100.496C517.797 100.277 517.734 100.082 517.609 99.9102C517.492 99.7305 517.234 99.5312 516.836 99.3125C516.438 99.0859 515.812 98.793 514.961 98.4336C514.141 98.0898 513.465 97.7422 512.934 97.3906C512.41 97.0391 512.02 96.625 511.762 96.1484C511.512 95.6641 511.387 95.0508 511.387 94.3086C511.387 93.0977 511.855 92.1875 512.793 91.5781C513.738 90.9609 515 90.6523 516.578 90.6523C517.391 90.6523 518.164 90.7344 518.898 90.8984C519.641 91.0625 520.402 91.3242 521.184 91.6836L520.105 94.2617C519.457 93.9805 518.844 93.75 518.266 93.5703C517.695 93.3906 517.113 93.3008 516.52 93.3008C515.996 93.3008 515.602 93.3711 515.336 93.5117C515.07 93.6523 514.938 93.8672 514.938 94.1562C514.938 94.3672 515.004 94.5547 515.137 94.7188C515.277 94.8828 515.543 95.0664 515.934 95.2695C516.332 95.4648 516.914 95.7188 517.68 96.0312C518.422 96.3359 519.066 96.6562 519.613 96.9922C520.16 97.3203 520.582 97.7305 520.879 98.2227C521.176 98.707 521.324 99.3359 521.324 100.109ZM535.715 90.6289C537.473 90.6289 538.82 91.0117 539.758 91.7773C540.695 92.543 541.164 93.707 541.164 95.2695V104H538.668L537.977 102.219H537.883C537.508 102.688 537.125 103.07 536.734 103.367C536.344 103.664 535.895 103.883 535.387 104.023C534.879 104.164 534.262 104.234 533.535 104.234C532.762 104.234 532.066 104.086 531.449 103.789C530.84 103.492 530.359 103.039 530.008 102.43C529.656 101.812 529.48 101.031 529.48 100.086C529.48 98.6953 529.969 97.6719 530.945 97.0156C531.922 96.3516 533.387 95.9844 535.34 95.9141L537.613 95.8438V95.2695C537.613 94.582 537.434 94.0781 537.074 93.7578C536.715 93.4375 536.215 93.2773 535.574 93.2773C534.941 93.2773 534.32 93.3672 533.711 93.5469C533.102 93.7266 532.492 93.9531 531.883 94.2266L530.699 91.8125C531.395 91.4453 532.172 91.1562 533.031 90.9453C533.898 90.7344 534.793 90.6289 535.715 90.6289ZM537.613 97.9297L536.23 97.9766C535.074 98.0078 534.27 98.2148 533.816 98.5977C533.371 98.9805 533.148 99.4844 533.148 100.109C533.148 100.656 533.309 101.047 533.629 101.281C533.949 101.508 534.367 101.621 534.883 101.621C535.648 101.621 536.293 101.395 536.816 100.941C537.348 100.488 537.613 99.8438 537.613 99.0078V97.9297ZM552.297 90.6523C553.695 90.6523 554.82 91.0352 555.672 91.8008C556.523 92.5586 556.949 93.7773 556.949 95.457V104H553.375V96.3477C553.375 95.4102 553.203 94.7031 552.859 94.2266C552.523 93.75 551.992 93.5117 551.266 93.5117C550.172 93.5117 549.426 93.8828 549.027 94.625C548.629 95.3672 548.43 96.4375 548.43 97.8359V104H544.855V90.8984H547.586L548.066 92.5742H548.266C548.547 92.1211 548.895 91.7539 549.309 91.4727C549.73 91.1914 550.195 90.9844 550.703 90.8516C551.219 90.7188 551.75 90.6523 552.297 90.6523ZM565.949 104.234C564.652 104.234 563.547 104 562.633 103.531C561.719 103.055 561.023 102.32 560.547 101.328C560.07 100.336 559.832 99.0664 559.832 97.5195C559.832 95.918 560.102 94.6133 560.641 93.6055C561.188 92.5898 561.941 91.8438 562.902 91.3672C563.871 90.8906 564.992 90.6523 566.266 90.6523C567.172 90.6523 567.953 90.7422 568.609 90.9219C569.273 91.0938 569.852 91.3008 570.344 91.543L569.289 94.3086C568.727 94.082 568.203 93.8984 567.719 93.7578C567.234 93.6094 566.75 93.5352 566.266 93.5352C565.641 93.5352 565.121 93.6836 564.707 93.9805C564.293 94.2695 563.984 94.707 563.781 95.293C563.578 95.8789 563.477 96.6133 563.477 97.4961C563.477 98.3633 563.586 99.082 563.805 99.6523C564.023 100.223 564.34 100.648 564.754 100.93C565.168 101.203 565.672 101.34 566.266 101.34C567.008 101.34 567.668 101.242 568.246 101.047C568.824 100.844 569.387 100.562 569.934 100.203V103.262C569.387 103.605 568.812 103.852 568.211 104C567.617 104.156 566.863 104.234 565.949 104.234ZM576.555 90.8984V104H572.98V90.8984H576.555ZM574.773 85.7656C575.305 85.7656 575.762 85.8906 576.145 86.1406C576.527 86.3828 576.719 86.8398 576.719 87.5117C576.719 88.1758 576.527 88.6367 576.145 88.8945C575.762 89.1445 575.305 89.2695 574.773 89.2695C574.234 89.2695 573.773 89.1445 573.391 88.8945C573.016 88.6367 572.828 88.1758 572.828 87.5117C572.828 86.8398 573.016 86.3828 573.391 86.1406C573.773 85.8906 574.234 85.7656 574.773 85.7656ZM585.719 90.6523C586.93 90.6523 587.973 90.8867 588.848 91.3555C589.723 91.8164 590.398 92.4883 590.875 93.3711C591.352 94.2539 591.59 95.332 591.59 96.6055V98.3398H583.141C583.18 99.3477 583.48 100.141 584.043 100.719C584.613 101.289 585.402 101.574 586.41 101.574C587.246 101.574 588.012 101.488 588.707 101.316C589.402 101.145 590.117 100.887 590.852 100.543V103.309C590.203 103.629 589.523 103.863 588.812 104.012C588.109 104.16 587.254 104.234 586.246 104.234C584.934 104.234 583.77 103.992 582.754 103.508C581.746 103.023 580.953 102.285 580.375 101.293C579.805 100.301 579.52 99.0508 579.52 97.543C579.52 96.0117 579.777 94.7383 580.293 93.7227C580.816 92.6992 581.543 91.9336 582.473 91.4258C583.402 90.9102 584.484 90.6523 585.719 90.6523ZM585.742 93.1953C585.047 93.1953 584.469 93.418 584.008 93.8633C583.555 94.3086 583.293 95.0078 583.223 95.9609H588.238C588.23 95.4297 588.133 94.957 587.945 94.543C587.766 94.1289 587.492 93.8008 587.125 93.5586C586.766 93.3164 586.305 93.1953 585.742 93.1953ZM601.938 90.6523C603.336 90.6523 604.461 91.0352 605.312 91.8008C606.164 92.5586 606.59 93.7773 606.59 95.457V104H603.016V96.3477C603.016 95.4102 602.844 94.7031 602.5 94.2266C602.164 93.75 601.633 93.5117 600.906 93.5117C599.812 93.5117 599.066 93.8828 598.668 94.625C598.27 95.3672 598.07 96.4375 598.07 97.8359V104H594.496V90.8984H597.227L597.707 92.5742H597.906C598.188 92.1211 598.535 91.7539 598.949 91.4727C599.371 91.1914 599.836 90.9844 600.344 90.8516C600.859 90.7188 601.391 90.6523 601.938 90.6523ZM619.41 100.109C619.41 101 619.199 101.754 618.777 102.371C618.363 102.98 617.742 103.445 616.914 103.766C616.086 104.078 615.055 104.234 613.82 104.234C612.906 104.234 612.121 104.176 611.465 104.059C610.816 103.941 610.16 103.746 609.496 103.473V100.52C610.207 100.84 610.969 101.105 611.781 101.316C612.602 101.52 613.32 101.621 613.938 101.621C614.633 101.621 615.129 101.52 615.426 101.316C615.73 101.105 615.883 100.832 615.883 100.496C615.883 100.277 615.82 100.082 615.695 99.9102C615.578 99.7305 615.32 99.5312 614.922 99.3125C614.523 99.0859 613.898 98.793 613.047 98.4336C612.227 98.0898 611.551 97.7422 611.02 97.3906C610.496 97.0391 610.105 96.625 609.848 96.1484C609.598 95.6641 609.473 95.0508 609.473 94.3086C609.473 93.0977 609.941 92.1875 610.879 91.5781C611.824 90.9609 613.086 90.6523 614.664 90.6523C615.477 90.6523 616.25 90.7344 616.984 90.8984C617.727 91.0625 618.488 91.3242 619.27 91.6836L618.191 94.2617C617.543 93.9805 616.93 93.75 616.352 93.5703C615.781 93.3906 615.199 93.3008 614.605 93.3008C614.082 93.3008 613.688 93.3711 613.422 93.5117C613.156 93.6523 613.023 93.8672 613.023 94.1562C613.023 94.3672 613.09 94.5547 613.223 94.7188C613.363 94.8828 613.629 95.0664 614.02 95.2695C614.418 95.4648 615 95.7188 615.766 96.0312C616.508 96.3359 617.152 96.6562 617.699 96.9922C618.246 97.3203 618.668 97.7305 618.965 98.2227C619.262 98.707 619.41 99.3359 619.41 100.109ZM633.836 90.6523C635.047 90.6523 636.09 90.8867 636.965 91.3555C637.84 91.8164 638.516 92.4883 638.992 93.3711C639.469 94.2539 639.707 95.332 639.707 96.6055V98.3398H631.258C631.297 99.3477 631.598 100.141 632.16 100.719C632.73 101.289 633.52 101.574 634.527 101.574C635.363 101.574 636.129 101.488 636.824 101.316C637.52 101.145 638.234 100.887 638.969 100.543V103.309C638.32 103.629 637.641 103.863 636.93 104.012C636.227 104.16 635.371 104.234 634.363 104.234C633.051 104.234 631.887 103.992 630.871 103.508C629.863 103.023 629.07 102.285 628.492 101.293C627.922 100.301 627.637 99.0508 627.637 97.543C627.637 96.0117 627.895 94.7383 628.41 93.7227C628.934 92.6992 629.66 91.9336 630.59 91.4258C631.52 90.9102 632.602 90.6523 633.836 90.6523ZM633.859 93.1953C633.164 93.1953 632.586 93.418 632.125 93.8633C631.672 94.3086 631.41 95.0078 631.34 95.9609H636.355C636.348 95.4297 636.25 94.957 636.062 94.543C635.883 94.1289 635.609 93.8008 635.242 93.5586C634.883 93.3164 634.422 93.1953 633.859 93.1953ZM638.266 85.6133V85.8594C638.039 86.0781 637.742 86.3477 637.375 86.668C637.008 86.9883 636.613 87.3242 636.191 87.6758C635.77 88.0195 635.355 88.3516 634.949 88.6719C634.543 88.9844 634.188 89.2461 633.883 89.457H631.504V89.1406C631.762 88.8438 632.059 88.4922 632.395 88.0859C632.738 87.6719 633.078 87.2461 633.414 86.8086C633.75 86.3711 634.031 85.9727 634.258 85.6133H638.266ZM648.133 101.387C648.523 101.387 648.902 101.348 649.27 101.27C649.645 101.191 650.016 101.094 650.383 100.977V103.637C650 103.809 649.523 103.949 648.953 104.059C648.391 104.176 647.773 104.234 647.102 104.234C646.32 104.234 645.617 104.109 644.992 103.859C644.375 103.602 643.887 103.16 643.527 102.535C643.176 101.902 643 101.023 643 99.8984V93.582H641.289V92.0703L643.258 90.875L644.289 88.1094H646.574V90.8984H650.242V93.582H646.574V99.8984C646.574 100.398 646.715 100.773 646.996 101.023C647.285 101.266 647.664 101.387 648.133 101.387ZM665.066 90.8984V104H662.324L661.844 102.324H661.656C661.375 102.77 661.023 103.133 660.602 103.414C660.18 103.695 659.715 103.902 659.207 104.035C658.699 104.168 658.172 104.234 657.625 104.234C656.688 104.234 655.871 104.07 655.176 103.742C654.48 103.406 653.938 102.887 653.547 102.184C653.164 101.48 652.973 100.566 652.973 99.4414V90.8984H656.547V98.5508C656.547 99.4883 656.715 100.195 657.051 100.672C657.387 101.148 657.922 101.387 658.656 101.387C659.383 101.387 659.953 101.223 660.367 100.895C660.781 100.559 661.07 100.07 661.234 99.4297C661.406 98.7812 661.492 97.9922 661.492 97.0625V90.8984H665.066ZM672.965 104.234C671.504 104.234 670.312 103.664 669.391 102.523C668.477 101.375 668.02 99.6914 668.02 97.4727C668.02 95.2305 668.484 93.5352 669.414 92.3867C670.344 91.2305 671.559 90.6523 673.059 90.6523C673.684 90.6523 674.234 90.7383 674.711 90.9102C675.188 91.082 675.598 91.3125 675.941 91.6016C676.293 91.8906 676.59 92.2148 676.832 92.5742H676.949C676.902 92.3242 676.844 91.957 676.773 91.4727C676.711 90.9805 676.68 90.4766 676.68 89.9609V85.7656H680.266V104H677.523L676.832 102.301H676.68C676.453 102.66 676.168 102.988 675.824 103.285C675.488 103.574 675.086 103.805 674.617 103.977C674.148 104.148 673.598 104.234 672.965 104.234ZM674.219 101.387C675.195 101.387 675.883 101.098 676.281 100.52C676.688 99.9336 676.902 99.0547 676.926 97.8828V97.4961C676.926 96.2227 676.73 95.25 676.34 94.5781C675.949 93.8984 675.223 93.5586 674.16 93.5586C673.371 93.5586 672.754 93.8984 672.309 94.5781C671.863 95.2578 671.641 96.2383 671.641 97.5195C671.641 98.8008 671.863 99.7656 672.309 100.414C672.762 101.062 673.398 101.387 674.219 101.387ZM687.578 90.8984V104H684.004V90.8984H687.578ZM685.797 85.7656C686.328 85.7656 686.785 85.8906 687.168 86.1406C687.551 86.3828 687.742 86.8398 687.742 87.5117C687.742 88.1758 687.551 88.6367 687.168 88.8945C686.785 89.1445 686.328 89.2695 685.797 89.2695C685.258 89.2695 684.797 89.1445 684.414 88.8945C684.039 88.6367 683.852 88.1758 683.852 87.5117C683.852 86.8398 684.039 86.3828 684.414 86.1406C684.797 85.8906 685.258 85.7656 685.797 85.7656ZM696.707 90.6289C698.465 90.6289 699.812 91.0117 700.75 91.7773C701.688 92.543 702.156 93.707 702.156 95.2695V104H699.66L698.969 102.219H698.875C698.5 102.688 698.117 103.07 697.727 103.367C697.336 103.664 696.887 103.883 696.379 104.023C695.871 104.164 695.254 104.234 694.527 104.234C693.754 104.234 693.059 104.086 692.441 103.789C691.832 103.492 691.352 103.039 691 102.43C690.648 101.812 690.473 101.031 690.473 100.086C690.473 98.6953 690.961 97.6719 691.938 97.0156C692.914 96.3516 694.379 95.9844 696.332 95.9141L698.605 95.8438V95.2695C698.605 94.582 698.426 94.0781 698.066 93.7578C697.707 93.4375 697.207 93.2773 696.566 93.2773C695.934 93.2773 695.312 93.3672 694.703 93.5469C694.094 93.7266 693.484 93.9531 692.875 94.2266L691.691 91.8125C692.387 91.4453 693.164 91.1562 694.023 90.9453C694.891 90.7344 695.785 90.6289 696.707 90.6289ZM698.605 97.9297L697.223 97.9766C696.066 98.0078 695.262 98.2148 694.809 98.5977C694.363 98.9805 694.141 99.4844 694.141 100.109C694.141 100.656 694.301 101.047 694.621 101.281C694.941 101.508 695.359 101.621 695.875 101.621C696.641 101.621 697.285 101.395 697.809 100.941C698.34 100.488 698.605 99.8438 698.605 99.0078V97.9297ZM713.289 90.6523C714.688 90.6523 715.812 91.0352 716.664 91.8008C717.516 92.5586 717.941 93.7773 717.941 95.457V104H714.367V96.3477C714.367 95.4102 714.195 94.7031 713.852 94.2266C713.516 93.75 712.984 93.5117 712.258 93.5117C711.164 93.5117 710.418 93.8828 710.02 94.625C709.621 95.3672 709.422 96.4375 709.422 97.8359V104H705.848V90.8984H708.578L709.059 92.5742H709.258C709.539 92.1211 709.887 91.7539 710.301 91.4727C710.723 91.1914 711.188 90.9844 711.695 90.8516C712.211 90.7188 712.742 90.6523 713.289 90.6523ZM727.141 101.387C727.531 101.387 727.91 101.348 728.277 101.27C728.652 101.191 729.023 101.094 729.391 100.977V103.637C729.008 103.809 728.531 103.949 727.961 104.059C727.398 104.176 726.781 104.234 726.109 104.234C725.328 104.234 724.625 104.109 724 103.859C723.383 103.602 722.895 103.16 722.535 102.535C722.184 101.902 722.008 101.023 722.008 99.8984V93.582H720.297V92.0703L722.266 90.875L723.297 88.1094H725.582V90.8984H729.25V93.582H725.582V99.8984C725.582 100.398 725.723 100.773 726.004 101.023C726.293 101.266 726.672 101.387 727.141 101.387ZM741.191 100.109C741.191 101 740.98 101.754 740.559 102.371C740.145 102.98 739.523 103.445 738.695 103.766C737.867 104.078 736.836 104.234 735.602 104.234C734.688 104.234 733.902 104.176 733.246 104.059C732.598 103.941 731.941 103.746 731.277 103.473V100.52C731.988 100.84 732.75 101.105 733.562 101.316C734.383 101.52 735.102 101.621 735.719 101.621C736.414 101.621 736.91 101.52 737.207 101.316C737.512 101.105 737.664 100.832 737.664 100.496C737.664 100.277 737.602 100.082 737.477 99.9102C737.359 99.7305 737.102 99.5312 736.703 99.3125C736.305 99.0859 735.68 98.793 734.828 98.4336C734.008 98.0898 733.332 97.7422 732.801 97.3906C732.277 97.0391 731.887 96.625 731.629 96.1484C731.379 95.6641 731.254 95.0508 731.254 94.3086C731.254 93.0977 731.723 92.1875 732.66 91.5781C733.605 90.9609 734.867 90.6523 736.445 90.6523C737.258 90.6523 738.031 90.7344 738.766 90.8984C739.508 91.0625 740.27 91.3242 741.051 91.6836L739.973 94.2617C739.324 93.9805 738.711 93.75 738.133 93.5703C737.562 93.3906 736.98 93.3008 736.387 93.3008C735.863 93.3008 735.469 93.3711 735.203 93.5117C734.938 93.6523 734.805 93.8672 734.805 94.1562C734.805 94.3672 734.871 94.5547 735.004 94.7188C735.145 94.8828 735.41 95.0664 735.801 95.2695C736.199 95.4648 736.781 95.7188 737.547 96.0312C738.289 96.3359 738.934 96.6562 739.48 96.9922C740.027 97.3203 740.449 97.7305 740.746 98.2227C741.043 98.707 741.191 99.3359 741.191 100.109ZM747.309 101.211L747.484 101.48C747.344 102.043 747.16 102.648 746.934 103.297C746.715 103.945 746.473 104.594 746.207 105.242C745.949 105.891 745.688 106.508 745.422 107.094H742.844C743 106.461 743.152 105.797 743.301 105.102C743.449 104.406 743.586 103.723 743.711 103.051C743.844 102.379 743.949 101.766 744.027 101.211H747.309ZM762.578 101.387C762.969 101.387 763.348 101.348 763.715 101.27C764.09 101.191 764.461 101.094 764.828 100.977V103.637C764.445 103.809 763.969 103.949 763.398 104.059C762.836 104.176 762.219 104.234 761.547 104.234C760.766 104.234 760.062 104.109 759.438 103.859C758.82 103.602 758.332 103.16 757.973 102.535C757.621 101.902 757.445 101.023 757.445 99.8984V93.582H755.734V92.0703L757.703 90.875L758.734 88.1094H761.02V90.8984H764.688V93.582H761.02V99.8984C761.02 100.398 761.16 100.773 761.441 101.023C761.73 101.266 762.109 101.387 762.578 101.387ZM772.891 90.6523C774.102 90.6523 775.145 90.8867 776.02 91.3555C776.895 91.8164 777.57 92.4883 778.047 93.3711C778.523 94.2539 778.762 95.332 778.762 96.6055V98.3398H770.312C770.352 99.3477 770.652 100.141 771.215 100.719C771.785 101.289 772.574 101.574 773.582 101.574C774.418 101.574 775.184 101.488 775.879 101.316C776.574 101.145 777.289 100.887 778.023 100.543V103.309C777.375 103.629 776.695 103.863 775.984 104.012C775.281 104.16 774.426 104.234 773.418 104.234C772.105 104.234 770.941 103.992 769.926 103.508C768.918 103.023 768.125 102.285 767.547 101.293C766.977 100.301 766.691 99.0508 766.691 97.543C766.691 96.0117 766.949 94.7383 767.465 93.7227C767.988 92.6992 768.715 91.9336 769.645 91.4258C770.574 90.9102 771.656 90.6523 772.891 90.6523ZM772.914 93.1953C772.219 93.1953 771.641 93.418 771.18 93.8633C770.727 94.3086 770.465 95.0078 770.395 95.9609H775.41C775.402 95.4297 775.305 94.957 775.117 94.543C774.938 94.1289 774.664 93.8008 774.297 93.5586C773.938 93.3164 773.477 93.1953 772.914 93.1953ZM777.32 85.6133V85.8594C777.094 86.0781 776.797 86.3477 776.43 86.668C776.062 86.9883 775.668 87.3242 775.246 87.6758C774.824 88.0195 774.41 88.3516 774.004 88.6719C773.598 88.9844 773.242 89.2461 772.938 89.457H770.559V89.1406C770.816 88.8438 771.113 88.4922 771.449 88.0859C771.793 87.6719 772.133 87.2461 772.469 86.8086C772.805 86.3711 773.086 85.9727 773.312 85.6133H777.32ZM797.055 90.6523C798.539 90.6523 799.66 91.0352 800.418 91.8008C801.184 92.5586 801.566 93.7773 801.566 95.457V104H797.98V96.3477C797.98 95.4102 797.82 94.7031 797.5 94.2266C797.18 93.75 796.684 93.5117 796.012 93.5117C795.066 93.5117 794.395 93.8516 793.996 94.5312C793.598 95.2031 793.398 96.168 793.398 97.4258V104H789.824V96.3477C789.824 95.7227 789.754 95.1992 789.613 94.7773C789.473 94.3555 789.258 94.0391 788.969 93.8281C788.68 93.6172 788.309 93.5117 787.855 93.5117C787.191 93.5117 786.668 93.6797 786.285 94.0156C785.91 94.3438 785.641 94.832 785.477 95.4805C785.32 96.1211 785.242 96.9062 785.242 97.8359V104H781.668V90.8984H784.398L784.879 92.5742H785.078C785.344 92.1211 785.676 91.7539 786.074 91.4727C786.48 91.1914 786.926 90.9844 787.41 90.8516C787.895 90.7188 788.387 90.6523 788.887 90.6523C789.848 90.6523 790.66 90.8086 791.324 91.1211C791.996 91.4336 792.512 91.918 792.871 92.5742H793.188C793.578 91.9023 794.129 91.4141 794.84 91.1094C795.559 90.8047 796.297 90.6523 797.055 90.6523ZM817.152 97.4258C817.152 98.5195 817.004 99.4883 816.707 100.332C816.418 101.176 815.992 101.891 815.43 102.477C814.875 103.055 814.203 103.492 813.414 103.789C812.633 104.086 811.75 104.234 810.766 104.234C809.844 104.234 808.996 104.086 808.223 103.789C807.457 103.492 806.789 103.055 806.219 102.477C805.656 101.891 805.219 101.176 804.906 100.332C804.602 99.4883 804.449 98.5195 804.449 97.4258C804.449 95.9727 804.707 94.7422 805.223 93.7344C805.738 92.7266 806.473 91.9609 807.426 91.4375C808.379 90.9141 809.516 90.6523 810.836 90.6523C812.062 90.6523 813.148 90.9141 814.094 91.4375C815.047 91.9609 815.793 92.7266 816.332 93.7344C816.879 94.7422 817.152 95.9727 817.152 97.4258ZM808.094 97.4258C808.094 98.2852 808.188 99.0078 808.375 99.5938C808.562 100.18 808.855 100.621 809.254 100.918C809.652 101.215 810.172 101.363 810.812 101.363C811.445 101.363 811.957 101.215 812.348 100.918C812.746 100.621 813.035 100.18 813.215 99.5938C813.402 99.0078 813.496 98.2852 813.496 97.4258C813.496 96.5586 813.402 95.8398 813.215 95.2695C813.035 94.6914 812.746 94.2578 812.348 93.9688C811.949 93.6797 811.43 93.5352 810.789 93.5352C809.844 93.5352 809.156 93.8594 808.727 94.5078C808.305 95.1562 808.094 96.1289 808.094 97.4258ZM823.68 90.8984V104H820.105V90.8984H823.68ZM821.898 85.7656C822.43 85.7656 822.887 85.8906 823.27 86.1406C823.652 86.3828 823.844 86.8398 823.844 87.5117C823.844 88.1758 823.652 88.6367 823.27 88.8945C822.887 89.1445 822.43 89.2695 821.898 89.2695C821.359 89.2695 820.898 89.1445 820.516 88.8945C820.141 88.6367 819.953 88.1758 819.953 87.5117C819.953 86.8398 820.141 86.3828 820.516 86.1406C820.898 85.8906 821.359 85.7656 821.898 85.7656ZM834.883 90.6523C836.281 90.6523 837.406 91.0352 838.258 91.8008C839.109 92.5586 839.535 93.7773 839.535 95.457V104H835.961V96.3477C835.961 95.4102 835.789 94.7031 835.445 94.2266C835.109 93.75 834.578 93.5117 833.852 93.5117C832.758 93.5117 832.012 93.8828 831.613 94.625C831.215 95.3672 831.016 96.4375 831.016 97.8359V104H827.441V90.8984H830.172L830.652 92.5742H830.852C831.133 92.1211 831.48 91.7539 831.895 91.4727C832.316 91.1914 832.781 90.9844 833.289 90.8516C833.805 90.7188 834.336 90.6523 834.883 90.6523ZM852.355 100.109C852.355 101 852.145 101.754 851.723 102.371C851.309 102.98 850.688 103.445 849.859 103.766C849.031 104.078 848 104.234 846.766 104.234C845.852 104.234 845.066 104.176 844.41 104.059C843.762 103.941 843.105 103.746 842.441 103.473V100.52C843.152 100.84 843.914 101.105 844.727 101.316C845.547 101.52 846.266 101.621 846.883 101.621C847.578 101.621 848.074 101.52 848.371 101.316C848.676 101.105 848.828 100.832 848.828 100.496C848.828 100.277 848.766 100.082 848.641 99.9102C848.523 99.7305 848.266 99.5312 847.867 99.3125C847.469 99.0859 846.844 98.793 845.992 98.4336C845.172 98.0898 844.496 97.7422 843.965 97.3906C843.441 97.0391 843.051 96.625 842.793 96.1484C842.543 95.6641 842.418 95.0508 842.418 94.3086C842.418 93.0977 842.887 92.1875 843.824 91.5781C844.77 90.9609 846.031 90.6523 847.609 90.6523C848.422 90.6523 849.195 90.7344 849.93 90.8984C850.672 91.0625 851.434 91.3242 852.215 91.6836L851.137 94.2617C850.488 93.9805 849.875 93.75 849.297 93.5703C848.727 93.3906 848.145 93.3008 847.551 93.3008C847.027 93.3008 846.633 93.3711 846.367 93.5117C846.102 93.6523 845.969 93.8672 845.969 94.1562C845.969 94.3672 846.035 94.5547 846.168 94.7188C846.309 94.8828 846.574 95.0664 846.965 95.2695C847.363 95.4648 847.945 95.7188 848.711 96.0312C849.453 96.3359 850.098 96.6562 850.645 96.9922C851.191 97.3203 851.613 97.7305 851.91 98.2227C852.207 98.707 852.355 99.3359 852.355 100.109ZM865.527 104.234C864.066 104.234 862.875 103.664 861.953 102.523C861.039 101.375 860.582 99.6914 860.582 97.4727C860.582 95.2305 861.047 93.5352 861.977 92.3867C862.906 91.2305 864.121 90.6523 865.621 90.6523C866.246 90.6523 866.797 90.7383 867.273 90.9102C867.75 91.082 868.16 91.3125 868.504 91.6016C868.855 91.8906 869.152 92.2148 869.395 92.5742H869.512C869.465 92.3242 869.406 91.957 869.336 91.4727C869.273 90.9805 869.242 90.4766 869.242 89.9609V85.7656H872.828V104H870.086L869.395 102.301H869.242C869.016 102.66 868.73 102.988 868.387 103.285C868.051 103.574 867.648 103.805 867.18 103.977C866.711 104.148 866.16 104.234 865.527 104.234ZM866.781 101.387C867.758 101.387 868.445 101.098 868.844 100.52C869.25 99.9336 869.465 99.0547 869.488 97.8828V97.4961C869.488 96.2227 869.293 95.25 868.902 94.5781C868.512 93.8984 867.785 93.5586 866.723 93.5586C865.934 93.5586 865.316 93.8984 864.871 94.5781C864.426 95.2578 864.203 96.2383 864.203 97.5195C864.203 98.8008 864.426 99.7656 864.871 100.414C865.324 101.062 865.961 101.387 866.781 101.387ZM881.969 90.6523C883.18 90.6523 884.223 90.8867 885.098 91.3555C885.973 91.8164 886.648 92.4883 887.125 93.3711C887.602 94.2539 887.84 95.332 887.84 96.6055V98.3398H879.391C879.43 99.3477 879.73 100.141 880.293 100.719C880.863 101.289 881.652 101.574 882.66 101.574C883.496 101.574 884.262 101.488 884.957 101.316C885.652 101.145 886.367 100.887 887.102 100.543V103.309C886.453 103.629 885.773 103.863 885.062 104.012C884.359 104.16 883.504 104.234 882.496 104.234C881.184 104.234 880.02 103.992 879.004 103.508C877.996 103.023 877.203 102.285 876.625 101.293C876.055 100.301 875.77 99.0508 875.77 97.543C875.77 96.0117 876.027 94.7383 876.543 93.7227C877.066 92.6992 877.793 91.9336 878.723 91.4258C879.652 90.9102 880.734 90.6523 881.969 90.6523ZM881.992 93.1953C881.297 93.1953 880.719 93.418 880.258 93.8633C879.805 94.3086 879.543 95.0078 879.473 95.9609H884.488C884.48 95.4297 884.383 94.957 884.195 94.543C884.016 94.1289 883.742 93.8008 883.375 93.5586C883.016 93.3164 882.555 93.1953 881.992 93.1953ZM164.488 137H160.914V118.766H164.488V137ZM171.203 119.867L170.723 126.055H168.414L167.934 119.867H171.203ZM180.051 123.652C181.262 123.652 182.305 123.887 183.18 124.355C184.055 124.816 184.73 125.488 185.207 126.371C185.684 127.254 185.922 128.332 185.922 129.605V131.34H177.473C177.512 132.348 177.812 133.141 178.375 133.719C178.945 134.289 179.734 134.574 180.742 134.574C181.578 134.574 182.344 134.488 183.039 134.316C183.734 134.145 184.449 133.887 185.184 133.543V136.309C184.535 136.629 183.855 136.863 183.145 137.012C182.441 137.16 181.586 137.234 180.578 137.234C179.266 137.234 178.102 136.992 177.086 136.508C176.078 136.023 175.285 135.285 174.707 134.293C174.137 133.301 173.852 132.051 173.852 130.543C173.852 129.012 174.109 127.738 174.625 126.723C175.148 125.699 175.875 124.934 176.805 124.426C177.734 123.91 178.816 123.652 180.051 123.652ZM180.074 126.195C179.379 126.195 178.801 126.418 178.34 126.863C177.887 127.309 177.625 128.008 177.555 128.961H182.57C182.562 128.43 182.465 127.957 182.277 127.543C182.098 127.129 181.824 126.801 181.457 126.559C181.098 126.316 180.637 126.195 180.074 126.195ZM191.512 130.309L187.293 123.898H191.348L193.891 128.07L196.457 123.898H200.512L196.246 130.309L200.711 137H196.645L193.891 132.512L191.125 137H187.07L191.512 130.309ZM208.023 137.234C206.727 137.234 205.621 137 204.707 136.531C203.793 136.055 203.098 135.32 202.621 134.328C202.145 133.336 201.906 132.066 201.906 130.52C201.906 128.918 202.176 127.613 202.715 126.605C203.262 125.59 204.016 124.844 204.977 124.367C205.945 123.891 207.066 123.652 208.34 123.652C209.246 123.652 210.027 123.742 210.684 123.922C211.348 124.094 211.926 124.301 212.418 124.543L211.363 127.309C210.801 127.082 210.277 126.898 209.793 126.758C209.309 126.609 208.824 126.535 208.34 126.535C207.715 126.535 207.195 126.684 206.781 126.98C206.367 127.27 206.059 127.707 205.855 128.293C205.652 128.879 205.551 129.613 205.551 130.496C205.551 131.363 205.66 132.082 205.879 132.652C206.098 133.223 206.414 133.648 206.828 133.93C207.242 134.203 207.746 134.34 208.34 134.34C209.082 134.34 209.742 134.242 210.32 134.047C210.898 133.844 211.461 133.562 212.008 133.203V136.262C211.461 136.605 210.887 136.852 210.285 137C209.691 137.156 208.938 137.234 208.023 137.234ZM220.457 123.652C221.668 123.652 222.711 123.887 223.586 124.355C224.461 124.816 225.137 125.488 225.613 126.371C226.09 127.254 226.328 128.332 226.328 129.605V131.34H217.879C217.918 132.348 218.219 133.141 218.781 133.719C219.352 134.289 220.141 134.574 221.148 134.574C221.984 134.574 222.75 134.488 223.445 134.316C224.141 134.145 224.855 133.887 225.59 133.543V136.309C224.941 136.629 224.262 136.863 223.551 137.012C222.848 137.16 221.992 137.234 220.984 137.234C219.672 137.234 218.508 136.992 217.492 136.508C216.484 136.023 215.691 135.285 215.113 134.293C214.543 133.301 214.258 132.051 214.258 130.543C214.258 129.012 214.516 127.738 215.031 126.723C215.555 125.699 216.281 124.934 217.211 124.426C218.141 123.91 219.223 123.652 220.457 123.652ZM220.48 126.195C219.785 126.195 219.207 126.418 218.746 126.863C218.293 127.309 218.031 128.008 217.961 128.961H222.977C222.969 128.43 222.871 127.957 222.684 127.543C222.504 127.129 222.23 126.801 221.863 126.559C221.504 126.316 221.043 126.195 220.48 126.195ZM232.809 137H229.234V118.766H232.809V137ZM240.145 137H236.57V118.766H240.145V137ZM249.309 123.652C250.52 123.652 251.562 123.887 252.438 124.355C253.312 124.816 253.988 125.488 254.465 126.371C254.941 127.254 255.18 128.332 255.18 129.605V131.34H246.73C246.77 132.348 247.07 133.141 247.633 133.719C248.203 134.289 248.992 134.574 250 134.574C250.836 134.574 251.602 134.488 252.297 134.316C252.992 134.145 253.707 133.887 254.441 133.543V136.309C253.793 136.629 253.113 136.863 252.402 137.012C251.699 137.16 250.844 137.234 249.836 137.234C248.523 137.234 247.359 136.992 246.344 136.508C245.336 136.023 244.543 135.285 243.965 134.293C243.395 133.301 243.109 132.051 243.109 130.543C243.109 129.012 243.367 127.738 243.883 126.723C244.406 125.699 245.133 124.934 246.062 124.426C246.992 123.91 248.074 123.652 249.309 123.652ZM249.332 126.195C248.637 126.195 248.059 126.418 247.598 126.863C247.145 127.309 246.883 128.008 246.812 128.961H251.828C251.82 128.43 251.723 127.957 251.535 127.543C251.355 127.129 251.082 126.801 250.715 126.559C250.355 126.316 249.895 126.195 249.332 126.195ZM265.527 123.652C266.926 123.652 268.051 124.035 268.902 124.801C269.754 125.559 270.18 126.777 270.18 128.457V137H266.605V129.348C266.605 128.41 266.434 127.703 266.09 127.227C265.754 126.75 265.223 126.512 264.496 126.512C263.402 126.512 262.656 126.883 262.258 127.625C261.859 128.367 261.66 129.438 261.66 130.836V137H258.086V123.898H260.816L261.297 125.574H261.496C261.777 125.121 262.125 124.754 262.539 124.473C262.961 124.191 263.426 123.984 263.934 123.852C264.449 123.719 264.98 123.652 265.527 123.652ZM279.18 137.234C277.883 137.234 276.777 137 275.863 136.531C274.949 136.055 274.254 135.32 273.777 134.328C273.301 133.336 273.062 132.066 273.062 130.52C273.062 128.918 273.332 127.613 273.871 126.605C274.418 125.59 275.172 124.844 276.133 124.367C277.102 123.891 278.223 123.652 279.496 123.652C280.402 123.652 281.184 123.742 281.84 123.922C282.504 124.094 283.082 124.301 283.574 124.543L282.52 127.309C281.957 127.082 281.434 126.898 280.949 126.758C280.465 126.609 279.98 126.535 279.496 126.535C278.871 126.535 278.352 126.684 277.938 126.98C277.523 127.27 277.215 127.707 277.012 128.293C276.809 128.879 276.707 129.613 276.707 130.496C276.707 131.363 276.816 132.082 277.035 132.652C277.254 133.223 277.57 133.648 277.984 133.93C278.398 134.203 278.902 134.34 279.496 134.34C280.238 134.34 280.898 134.242 281.477 134.047C282.055 133.844 282.617 133.562 283.164 133.203V136.262C282.617 136.605 282.043 136.852 281.441 137C280.848 137.156 280.094 137.234 279.18 137.234ZM291.613 123.652C292.824 123.652 293.867 123.887 294.742 124.355C295.617 124.816 296.293 125.488 296.77 126.371C297.246 127.254 297.484 128.332 297.484 129.605V131.34H289.035C289.074 132.348 289.375 133.141 289.938 133.719C290.508 134.289 291.297 134.574 292.305 134.574C293.141 134.574 293.906 134.488 294.602 134.316C295.297 134.145 296.012 133.887 296.746 133.543V136.309C296.098 136.629 295.418 136.863 294.707 137.012C294.004 137.16 293.148 137.234 292.141 137.234C290.828 137.234 289.664 136.992 288.648 136.508C287.641 136.023 286.848 135.285 286.27 134.293C285.699 133.301 285.414 132.051 285.414 130.543C285.414 129.012 285.672 127.738 286.188 126.723C286.711 125.699 287.438 124.934 288.367 124.426C289.297 123.91 290.379 123.652 291.613 123.652ZM291.637 126.195C290.941 126.195 290.363 126.418 289.902 126.863C289.449 127.309 289.188 128.008 289.117 128.961H294.133C294.125 128.43 294.027 127.957 293.84 127.543C293.66 127.129 293.387 126.801 293.02 126.559C292.66 126.316 292.199 126.195 291.637 126.195ZM311.992 123.629C313.75 123.629 315.098 124.012 316.035 124.777C316.973 125.543 317.441 126.707 317.441 128.27V137H314.945L314.254 135.219H314.16C313.785 135.688 313.402 136.07 313.012 136.367C312.621 136.664 312.172 136.883 311.664 137.023C311.156 137.164 310.539 137.234 309.812 137.234C309.039 137.234 308.344 137.086 307.727 136.789C307.117 136.492 306.637 136.039 306.285 135.43C305.934 134.812 305.758 134.031 305.758 133.086C305.758 131.695 306.246 130.672 307.223 130.016C308.199 129.352 309.664 128.984 311.617 128.914L313.891 128.844V128.27C313.891 127.582 313.711 127.078 313.352 126.758C312.992 126.438 312.492 126.277 311.852 126.277C311.219 126.277 310.598 126.367 309.988 126.547C309.379 126.727 308.77 126.953 308.16 127.227L306.977 124.812C307.672 124.445 308.449 124.156 309.309 123.945C310.176 123.734 311.07 123.629 311.992 123.629ZM313.891 130.93L312.508 130.977C311.352 131.008 310.547 131.215 310.094 131.598C309.648 131.98 309.426 132.484 309.426 133.109C309.426 133.656 309.586 134.047 309.906 134.281C310.227 134.508 310.645 134.621 311.16 134.621C311.926 134.621 312.57 134.395 313.094 133.941C313.625 133.488 313.891 132.844 313.891 132.008V130.93ZM326.453 137.234C325.156 137.234 324.051 137 323.137 136.531C322.223 136.055 321.527 135.32 321.051 134.328C320.574 133.336 320.336 132.066 320.336 130.52C320.336 128.918 320.605 127.613 321.145 126.605C321.691 125.59 322.445 124.844 323.406 124.367C324.375 123.891 325.496 123.652 326.77 123.652C327.676 123.652 328.457 123.742 329.113 123.922C329.777 124.094 330.355 124.301 330.848 124.543L329.793 127.309C329.23 127.082 328.707 126.898 328.223 126.758C327.738 126.609 327.254 126.535 326.77 126.535C326.145 126.535 325.625 126.684 325.211 126.98C324.797 127.27 324.488 127.707 324.285 128.293C324.082 128.879 323.98 129.613 323.98 130.496C323.98 131.363 324.09 132.082 324.309 132.652C324.527 133.223 324.844 133.648 325.258 133.93C325.672 134.203 326.176 134.34 326.77 134.34C327.512 134.34 328.172 134.242 328.75 134.047C329.328 133.844 329.891 133.562 330.438 133.203V136.262C329.891 136.605 329.316 136.852 328.715 137C328.121 137.156 327.367 137.234 326.453 137.234ZM338.852 123.629C340.609 123.629 341.957 124.012 342.895 124.777C343.832 125.543 344.301 126.707 344.301 128.27V137H341.805L341.113 135.219H341.02C340.645 135.688 340.262 136.07 339.871 136.367C339.48 136.664 339.031 136.883 338.523 137.023C338.016 137.164 337.398 137.234 336.672 137.234C335.898 137.234 335.203 137.086 334.586 136.789C333.977 136.492 333.496 136.039 333.145 135.43C332.793 134.812 332.617 134.031 332.617 133.086C332.617 131.695 333.105 130.672 334.082 130.016C335.059 129.352 336.523 128.984 338.477 128.914L340.75 128.844V128.27C340.75 127.582 340.57 127.078 340.211 126.758C339.852 126.438 339.352 126.277 338.711 126.277C338.078 126.277 337.457 126.367 336.848 126.547C336.238 126.727 335.629 126.953 335.02 127.227L333.836 124.812C334.531 124.445 335.309 124.156 336.168 123.945C337.035 123.734 337.93 123.629 338.852 123.629ZM340.75 130.93L339.367 130.977C338.211 131.008 337.406 131.215 336.953 131.598C336.508 131.98 336.285 132.484 336.285 133.109C336.285 133.656 336.445 134.047 336.766 134.281C337.086 134.508 337.504 134.621 338.02 134.621C338.785 134.621 339.43 134.395 339.953 133.941C340.484 133.488 340.75 132.844 340.75 132.008V130.93ZM352.141 137.234C350.68 137.234 349.488 136.664 348.566 135.523C347.652 134.375 347.195 132.691 347.195 130.473C347.195 128.23 347.66 126.535 348.59 125.387C349.52 124.23 350.734 123.652 352.234 123.652C352.859 123.652 353.41 123.738 353.887 123.91C354.363 124.082 354.773 124.312 355.117 124.602C355.469 124.891 355.766 125.215 356.008 125.574H356.125C356.078 125.324 356.02 124.957 355.949 124.473C355.887 123.98 355.855 123.477 355.855 122.961V118.766H359.441V137H356.699L356.008 135.301H355.855C355.629 135.66 355.344 135.988 355 136.285C354.664 136.574 354.262 136.805 353.793 136.977C353.324 137.148 352.773 137.234 352.141 137.234ZM353.395 134.387C354.371 134.387 355.059 134.098 355.457 133.52C355.863 132.934 356.078 132.055 356.102 130.883V130.496C356.102 129.223 355.906 128.25 355.516 127.578C355.125 126.898 354.398 126.559 353.336 126.559C352.547 126.559 351.93 126.898 351.484 127.578C351.039 128.258 350.816 129.238 350.816 130.52C350.816 131.801 351.039 132.766 351.484 133.414C351.938 134.062 352.574 134.387 353.395 134.387ZM368.582 123.652C369.793 123.652 370.836 123.887 371.711 124.355C372.586 124.816 373.262 125.488 373.738 126.371C374.215 127.254 374.453 128.332 374.453 129.605V131.34H366.004C366.043 132.348 366.344 133.141 366.906 133.719C367.477 134.289 368.266 134.574 369.273 134.574C370.109 134.574 370.875 134.488 371.57 134.316C372.266 134.145 372.98 133.887 373.715 133.543V136.309C373.066 136.629 372.387 136.863 371.676 137.012C370.973 137.16 370.117 137.234 369.109 137.234C367.797 137.234 366.633 136.992 365.617 136.508C364.609 136.023 363.816 135.285 363.238 134.293C362.668 133.301 362.383 132.051 362.383 130.543C362.383 129.012 362.641 127.738 363.156 126.723C363.68 125.699 364.406 124.934 365.336 124.426C366.266 123.91 367.348 123.652 368.582 123.652ZM368.605 126.195C367.91 126.195 367.332 126.418 366.871 126.863C366.418 127.309 366.156 128.008 366.086 128.961H371.102C371.094 128.43 370.996 127.957 370.809 127.543C370.629 127.129 370.355 126.801 369.988 126.559C369.629 126.316 369.168 126.195 368.605 126.195ZM373.012 118.613V118.859C372.785 119.078 372.488 119.348 372.121 119.668C371.754 119.988 371.359 120.324 370.938 120.676C370.516 121.02 370.102 121.352 369.695 121.672C369.289 121.984 368.934 122.246 368.629 122.457H366.25V122.141C366.508 121.844 366.805 121.492 367.141 121.086C367.484 120.672 367.824 120.246 368.16 119.809C368.496 119.371 368.777 118.973 369.004 118.613H373.012ZM392.746 123.652C394.23 123.652 395.352 124.035 396.109 124.801C396.875 125.559 397.258 126.777 397.258 128.457V137H393.672V129.348C393.672 128.41 393.512 127.703 393.191 127.227C392.871 126.75 392.375 126.512 391.703 126.512C390.758 126.512 390.086 126.852 389.688 127.531C389.289 128.203 389.09 129.168 389.09 130.426V137H385.516V129.348C385.516 128.723 385.445 128.199 385.305 127.777C385.164 127.355 384.949 127.039 384.66 126.828C384.371 126.617 384 126.512 383.547 126.512C382.883 126.512 382.359 126.68 381.977 127.016C381.602 127.344 381.332 127.832 381.168 128.48C381.012 129.121 380.934 129.906 380.934 130.836V137H377.359V123.898H380.09L380.57 125.574H380.77C381.035 125.121 381.367 124.754 381.766 124.473C382.172 124.191 382.617 123.984 383.102 123.852C383.586 123.719 384.078 123.652 384.578 123.652C385.539 123.652 386.352 123.809 387.016 124.121C387.688 124.434 388.203 124.918 388.562 125.574H388.879C389.27 124.902 389.82 124.414 390.531 124.109C391.25 123.805 391.988 123.652 392.746 123.652ZM404.512 123.898V137H400.938V123.898H404.512ZM402.73 118.766C403.262 118.766 403.719 118.891 404.102 119.141C404.484 119.383 404.676 119.84 404.676 120.512C404.676 121.176 404.484 121.637 404.102 121.895C403.719 122.145 403.262 122.27 402.73 122.27C402.191 122.27 401.73 122.145 401.348 121.895C400.973 121.637 400.785 121.176 400.785 120.512C400.785 119.84 400.973 119.383 401.348 119.141C401.73 118.891 402.191 118.766 402.73 118.766ZM416.137 142.766V137.27C416.137 136.941 416.148 136.613 416.172 136.285C416.203 135.949 416.242 135.621 416.289 135.301H416.137C415.801 135.84 415.336 136.297 414.742 136.672C414.156 137.047 413.383 137.234 412.422 137.234C410.945 137.234 409.75 136.664 408.836 135.523C407.93 134.375 407.477 132.691 407.477 130.473C407.477 128.98 407.688 127.73 408.109 126.723C408.531 125.707 409.117 124.941 409.867 124.426C410.625 123.91 411.5 123.652 412.492 123.652C413.453 123.652 414.23 123.84 414.824 124.215C415.426 124.582 415.914 125.035 416.289 125.574H416.383L416.699 123.898H419.723V142.766H416.137ZM413.699 134.434C414.355 134.434 414.875 134.305 415.258 134.047C415.648 133.789 415.93 133.402 416.102 132.887C416.273 132.363 416.367 131.711 416.383 130.93V130.496C416.383 129.223 416.188 128.25 415.797 127.578C415.406 126.898 414.688 126.559 413.641 126.559C412.789 126.559 412.156 126.898 411.742 127.578C411.328 128.258 411.121 129.238 411.121 130.52C411.121 131.824 411.332 132.805 411.754 133.461C412.176 134.109 412.824 134.434 413.699 134.434ZM435.484 123.898V137H432.742L432.262 135.324H432.074C431.793 135.77 431.441 136.133 431.02 136.414C430.598 136.695 430.133 136.902 429.625 137.035C429.117 137.168 428.59 137.234 428.043 137.234C427.105 137.234 426.289 137.07 425.594 136.742C424.898 136.406 424.355 135.887 423.965 135.184C423.582 134.48 423.391 133.566 423.391 132.441V123.898H426.965V131.551C426.965 132.488 427.133 133.195 427.469 133.672C427.805 134.148 428.34 134.387 429.074 134.387C429.801 134.387 430.371 134.223 430.785 133.895C431.199 133.559 431.488 133.07 431.652 132.43C431.824 131.781 431.91 130.992 431.91 130.062V123.898H435.484ZM444.637 123.652C445.848 123.652 446.891 123.887 447.766 124.355C448.641 124.816 449.316 125.488 449.793 126.371C450.27 127.254 450.508 128.332 450.508 129.605V131.34H442.059C442.098 132.348 442.398 133.141 442.961 133.719C443.531 134.289 444.32 134.574 445.328 134.574C446.164 134.574 446.93 134.488 447.625 134.316C448.32 134.145 449.035 133.887 449.77 133.543V136.309C449.121 136.629 448.441 136.863 447.73 137.012C447.027 137.16 446.172 137.234 445.164 137.234C443.852 137.234 442.688 136.992 441.672 136.508C440.664 136.023 439.871 135.285 439.293 134.293C438.723 133.301 438.438 132.051 438.438 130.543C438.438 129.012 438.695 127.738 439.211 126.723C439.734 125.699 440.461 124.934 441.391 124.426C442.32 123.91 443.402 123.652 444.637 123.652ZM444.66 126.195C443.965 126.195 443.387 126.418 442.926 126.863C442.473 127.309 442.211 128.008 442.141 128.961H447.156C447.148 128.43 447.051 127.957 446.863 127.543C446.684 127.129 446.41 126.801 446.043 126.559C445.684 126.316 445.223 126.195 444.66 126.195ZM465.051 123.652C466.262 123.652 467.305 123.887 468.18 124.355C469.055 124.816 469.73 125.488 470.207 126.371C470.684 127.254 470.922 128.332 470.922 129.605V131.34H462.473C462.512 132.348 462.812 133.141 463.375 133.719C463.945 134.289 464.734 134.574 465.742 134.574C466.578 134.574 467.344 134.488 468.039 134.316C468.734 134.145 469.449 133.887 470.184 133.543V136.309C469.535 136.629 468.855 136.863 468.145 137.012C467.441 137.16 466.586 137.234 465.578 137.234C464.266 137.234 463.102 136.992 462.086 136.508C461.078 136.023 460.285 135.285 459.707 134.293C459.137 133.301 458.852 132.051 458.852 130.543C458.852 129.012 459.109 127.738 459.625 126.723C460.148 125.699 460.875 124.934 461.805 124.426C462.734 123.91 463.816 123.652 465.051 123.652ZM465.074 126.195C464.379 126.195 463.801 126.418 463.34 126.863C462.887 127.309 462.625 128.008 462.555 128.961H467.57C467.562 128.43 467.465 127.957 467.277 127.543C467.098 127.129 466.824 126.801 466.457 126.559C466.098 126.316 465.637 126.195 465.074 126.195ZM479.348 134.387C479.738 134.387 480.117 134.348 480.484 134.27C480.859 134.191 481.23 134.094 481.598 133.977V136.637C481.215 136.809 480.738 136.949 480.168 137.059C479.605 137.176 478.988 137.234 478.316 137.234C477.535 137.234 476.832 137.109 476.207 136.859C475.59 136.602 475.102 136.16 474.742 135.535C474.391 134.902 474.215 134.023 474.215 132.898V126.582H472.504V125.07L474.473 123.875L475.504 121.109H477.789V123.898H481.457V126.582H477.789V132.898C477.789 133.398 477.93 133.773 478.211 134.023C478.5 134.266 478.879 134.387 479.348 134.387ZM494.641 137.234C493.18 137.234 491.988 136.664 491.066 135.523C490.152 134.375 489.695 132.691 489.695 130.473C489.695 128.23 490.16 126.535 491.09 125.387C492.02 124.23 493.234 123.652 494.734 123.652C495.359 123.652 495.91 123.738 496.387 123.91C496.863 124.082 497.273 124.312 497.617 124.602C497.969 124.891 498.266 125.215 498.508 125.574H498.625C498.578 125.324 498.52 124.957 498.449 124.473C498.387 123.98 498.355 123.477 498.355 122.961V118.766H501.941V137H499.199L498.508 135.301H498.355C498.129 135.66 497.844 135.988 497.5 136.285C497.164 136.574 496.762 136.805 496.293 136.977C495.824 137.148 495.273 137.234 494.641 137.234ZM495.895 134.387C496.871 134.387 497.559 134.098 497.957 133.52C498.363 132.934 498.578 132.055 498.602 130.883V130.496C498.602 129.223 498.406 128.25 498.016 127.578C497.625 126.898 496.898 126.559 495.836 126.559C495.047 126.559 494.43 126.898 493.984 127.578C493.539 128.258 493.316 129.238 493.316 130.52C493.316 131.801 493.539 132.766 493.984 133.414C494.438 134.062 495.074 134.387 495.895 134.387ZM511.082 123.652C512.293 123.652 513.336 123.887 514.211 124.355C515.086 124.816 515.762 125.488 516.238 126.371C516.715 127.254 516.953 128.332 516.953 129.605V131.34H508.504C508.543 132.348 508.844 133.141 509.406 133.719C509.977 134.289 510.766 134.574 511.773 134.574C512.609 134.574 513.375 134.488 514.07 134.316C514.766 134.145 515.48 133.887 516.215 133.543V136.309C515.566 136.629 514.887 136.863 514.176 137.012C513.473 137.16 512.617 137.234 511.609 137.234C510.297 137.234 509.133 136.992 508.117 136.508C507.109 136.023 506.316 135.285 505.738 134.293C505.168 133.301 504.883 132.051 504.883 130.543C504.883 129.012 505.141 127.738 505.656 126.723C506.18 125.699 506.906 124.934 507.836 124.426C508.766 123.91 509.848 123.652 511.082 123.652ZM511.105 126.195C510.41 126.195 509.832 126.418 509.371 126.863C508.918 127.309 508.656 128.008 508.586 128.961H513.602C513.594 128.43 513.496 127.957 513.309 127.543C513.129 127.129 512.855 126.801 512.488 126.559C512.129 126.316 511.668 126.195 511.105 126.195ZM529 133.109C529 134 528.789 134.754 528.367 135.371C527.953 135.98 527.332 136.445 526.504 136.766C525.676 137.078 524.645 137.234 523.41 137.234C522.496 137.234 521.711 137.176 521.055 137.059C520.406 136.941 519.75 136.746 519.086 136.473V133.52C519.797 133.84 520.559 134.105 521.371 134.316C522.191 134.52 522.91 134.621 523.527 134.621C524.223 134.621 524.719 134.52 525.016 134.316C525.32 134.105 525.473 133.832 525.473 133.496C525.473 133.277 525.41 133.082 525.285 132.91C525.168 132.73 524.91 132.531 524.512 132.312C524.113 132.086 523.488 131.793 522.637 131.434C521.816 131.09 521.141 130.742 520.609 130.391C520.086 130.039 519.695 129.625 519.438 129.148C519.188 128.664 519.062 128.051 519.062 127.309C519.062 126.098 519.531 125.188 520.469 124.578C521.414 123.961 522.676 123.652 524.254 123.652C525.066 123.652 525.84 123.734 526.574 123.898C527.316 124.062 528.078 124.324 528.859 124.684L527.781 127.262C527.133 126.98 526.52 126.75 525.941 126.57C525.371 126.391 524.789 126.301 524.195 126.301C523.672 126.301 523.277 126.371 523.012 126.512C522.746 126.652 522.613 126.867 522.613 127.156C522.613 127.367 522.68 127.555 522.812 127.719C522.953 127.883 523.219 128.066 523.609 128.27C524.008 128.465 524.59 128.719 525.355 129.031C526.098 129.336 526.742 129.656 527.289 129.992C527.836 130.32 528.258 130.73 528.555 131.223C528.852 131.707 529 132.336 529 133.109ZM545.336 123.652C545.516 123.652 545.723 123.664 545.957 123.688C546.199 123.703 546.395 123.727 546.543 123.758L546.273 127.109C546.156 127.07 545.988 127.043 545.77 127.027C545.559 127.004 545.375 126.992 545.219 126.992C544.758 126.992 544.309 127.051 543.871 127.168C543.441 127.285 543.055 127.477 542.711 127.742C542.367 128 542.094 128.344 541.891 128.773C541.695 129.195 541.598 129.715 541.598 130.332V137H538.023V123.898H540.73L541.258 126.102H541.434C541.691 125.656 542.012 125.25 542.395 124.883C542.785 124.508 543.227 124.211 543.719 123.992C544.219 123.766 544.758 123.652 545.336 123.652ZM554.324 123.652C555.535 123.652 556.578 123.887 557.453 124.355C558.328 124.816 559.004 125.488 559.48 126.371C559.957 127.254 560.195 128.332 560.195 129.605V131.34H551.746C551.785 132.348 552.086 133.141 552.648 133.719C553.219 134.289 554.008 134.574 555.016 134.574C555.852 134.574 556.617 134.488 557.312 134.316C558.008 134.145 558.723 133.887 559.457 133.543V136.309C558.809 136.629 558.129 136.863 557.418 137.012C556.715 137.16 555.859 137.234 554.852 137.234C553.539 137.234 552.375 136.992 551.359 136.508C550.352 136.023 549.559 135.285 548.98 134.293C548.41 133.301 548.125 132.051 548.125 130.543C548.125 129.012 548.383 127.738 548.898 126.723C549.422 125.699 550.148 124.934 551.078 124.426C552.008 123.91 553.09 123.652 554.324 123.652ZM554.348 126.195C553.652 126.195 553.074 126.418 552.613 126.863C552.16 127.309 551.898 128.008 551.828 128.961H556.844C556.836 128.43 556.738 127.957 556.551 127.543C556.371 127.129 556.098 126.801 555.73 126.559C555.371 126.316 554.91 126.195 554.348 126.195ZM558.754 118.613V118.859C558.527 119.078 558.23 119.348 557.863 119.668C557.496 119.988 557.102 120.324 556.68 120.676C556.258 121.02 555.844 121.352 555.438 121.672C555.031 121.984 554.676 122.246 554.371 122.457H551.992V122.141C552.25 121.844 552.547 121.492 552.883 121.086C553.227 120.672 553.566 120.246 553.902 119.809C554.238 119.371 554.52 118.973 554.746 118.613H558.754ZM575.125 123.898V137H572.383L571.902 135.324H571.715C571.434 135.77 571.082 136.133 570.66 136.414C570.238 136.695 569.773 136.902 569.266 137.035C568.758 137.168 568.23 137.234 567.684 137.234C566.746 137.234 565.93 137.07 565.234 136.742C564.539 136.406 563.996 135.887 563.605 135.184C563.223 134.48 563.031 133.566 563.031 132.441V123.898H566.605V131.551C566.605 132.488 566.773 133.195 567.109 133.672C567.445 134.148 567.98 134.387 568.715 134.387C569.441 134.387 570.012 134.223 570.426 133.895C570.84 133.559 571.129 133.07 571.293 132.43C571.465 131.781 571.551 130.992 571.551 130.062V123.898H575.125ZM588.016 133.109C588.016 134 587.805 134.754 587.383 135.371C586.969 135.98 586.348 136.445 585.52 136.766C584.691 137.078 583.66 137.234 582.426 137.234C581.512 137.234 580.727 137.176 580.07 137.059C579.422 136.941 578.766 136.746 578.102 136.473V133.52C578.812 133.84 579.574 134.105 580.387 134.316C581.207 134.52 581.926 134.621 582.543 134.621C583.238 134.621 583.734 134.52 584.031 134.316C584.336 134.105 584.488 133.832 584.488 133.496C584.488 133.277 584.426 133.082 584.301 132.91C584.184 132.73 583.926 132.531 583.527 132.312C583.129 132.086 582.504 131.793 581.652 131.434C580.832 131.09 580.156 130.742 579.625 130.391C579.102 130.039 578.711 129.625 578.453 129.148C578.203 128.664 578.078 128.051 578.078 127.309C578.078 126.098 578.547 125.188 579.484 124.578C580.43 123.961 581.691 123.652 583.27 123.652C584.082 123.652 584.855 123.734 585.59 123.898C586.332 124.062 587.094 124.324 587.875 124.684L586.797 127.262C586.148 126.98 585.535 126.75 584.957 126.57C584.387 126.391 583.805 126.301 583.211 126.301C582.688 126.301 582.293 126.371 582.027 126.512C581.762 126.652 581.629 126.867 581.629 127.156C581.629 127.367 581.695 127.555 581.828 127.719C581.969 127.883 582.234 128.066 582.625 128.27C583.023 128.465 583.605 128.719 584.371 129.031C585.113 129.336 585.758 129.656 586.305 129.992C586.852 130.32 587.273 130.73 587.57 131.223C587.867 131.707 588.016 132.336 588.016 133.109ZM599.945 133.109C599.945 134 599.734 134.754 599.312 135.371C598.898 135.98 598.277 136.445 597.449 136.766C596.621 137.078 595.59 137.234 594.355 137.234C593.441 137.234 592.656 137.176 592 137.059C591.352 136.941 590.695 136.746 590.031 136.473V133.52C590.742 133.84 591.504 134.105 592.316 134.316C593.137 134.52 593.855 134.621 594.473 134.621C595.168 134.621 595.664 134.52 595.961 134.316C596.266 134.105 596.418 133.832 596.418 133.496C596.418 133.277 596.355 133.082 596.23 132.91C596.113 132.73 595.855 132.531 595.457 132.312C595.059 132.086 594.434 131.793 593.582 131.434C592.762 131.09 592.086 130.742 591.555 130.391C591.031 130.039 590.641 129.625 590.383 129.148C590.133 128.664 590.008 128.051 590.008 127.309C590.008 126.098 590.477 125.188 591.414 124.578C592.359 123.961 593.621 123.652 595.199 123.652C596.012 123.652 596.785 123.734 597.52 123.898C598.262 124.062 599.023 124.324 599.805 124.684L598.727 127.262C598.078 126.98 597.465 126.75 596.887 126.57C596.316 126.391 595.734 126.301 595.141 126.301C594.617 126.301 594.223 126.371 593.957 126.512C593.691 126.652 593.559 126.867 593.559 127.156C593.559 127.367 593.625 127.555 593.758 127.719C593.898 127.883 594.164 128.066 594.555 128.27C594.953 128.465 595.535 128.719 596.301 129.031C597.043 129.336 597.688 129.656 598.234 129.992C598.781 130.32 599.203 130.73 599.5 131.223C599.797 131.707 599.945 132.336 599.945 133.109ZM606.309 123.898V137H602.734V123.898H606.309ZM604.527 118.766C605.059 118.766 605.516 118.891 605.898 119.141C606.281 119.383 606.473 119.84 606.473 120.512C606.473 121.176 606.281 121.637 605.898 121.895C605.516 122.145 605.059 122.27 604.527 122.27C603.988 122.27 603.527 122.145 603.145 121.895C602.77 121.637 602.582 121.176 602.582 120.512C602.582 119.84 602.77 119.383 603.145 119.141C603.527 118.891 603.988 118.766 604.527 118.766ZM615.59 134.387C615.98 134.387 616.359 134.348 616.727 134.27C617.102 134.191 617.473 134.094 617.84 133.977V136.637C617.457 136.809 616.98 136.949 616.41 137.059C615.848 137.176 615.23 137.234 614.559 137.234C613.777 137.234 613.074 137.109 612.449 136.859C611.832 136.602 611.344 136.16 610.984 135.535C610.633 134.902 610.457 134.023 610.457 132.898V126.582H608.746V125.07L610.715 123.875L611.746 121.109H614.031V123.898H617.699V126.582H614.031V132.898C614.031 133.398 614.172 133.773 614.453 134.023C614.742 134.266 615.121 134.387 615.59 134.387ZM625.902 123.652C627.113 123.652 628.156 123.887 629.031 124.355C629.906 124.816 630.582 125.488 631.059 126.371C631.535 127.254 631.773 128.332 631.773 129.605V131.34H623.324C623.363 132.348 623.664 133.141 624.227 133.719C624.797 134.289 625.586 134.574 626.594 134.574C627.43 134.574 628.195 134.488 628.891 134.316C629.586 134.145 630.301 133.887 631.035 133.543V136.309C630.387 136.629 629.707 136.863 628.996 137.012C628.293 137.16 627.438 137.234 626.43 137.234C625.117 137.234 623.953 136.992 622.938 136.508C621.93 136.023 621.137 135.285 620.559 134.293C619.988 133.301 619.703 132.051 619.703 130.543C619.703 129.012 619.961 127.738 620.477 126.723C621 125.699 621.727 124.934 622.656 124.426C623.586 123.91 624.668 123.652 625.902 123.652ZM625.926 126.195C625.23 126.195 624.652 126.418 624.191 126.863C623.738 127.309 623.477 128.008 623.406 128.961H628.422C628.414 128.43 628.316 127.957 628.129 127.543C627.949 127.129 627.676 126.801 627.309 126.559C626.949 126.316 626.488 126.195 625.926 126.195ZM643.82 133.109C643.82 134 643.609 134.754 643.188 135.371C642.773 135.98 642.152 136.445 641.324 136.766C640.496 137.078 639.465 137.234 638.23 137.234C637.316 137.234 636.531 137.176 635.875 137.059C635.227 136.941 634.57 136.746 633.906 136.473V133.52C634.617 133.84 635.379 134.105 636.191 134.316C637.012 134.52 637.73 134.621 638.348 134.621C639.043 134.621 639.539 134.52 639.836 134.316C640.141 134.105 640.293 133.832 640.293 133.496C640.293 133.277 640.23 133.082 640.105 132.91C639.988 132.73 639.73 132.531 639.332 132.312C638.934 132.086 638.309 131.793 637.457 131.434C636.637 131.09 635.961 130.742 635.43 130.391C634.906 130.039 634.516 129.625 634.258 129.148C634.008 128.664 633.883 128.051 633.883 127.309C633.883 126.098 634.352 125.188 635.289 124.578C636.234 123.961 637.496 123.652 639.074 123.652C639.887 123.652 640.66 123.734 641.395 123.898C642.137 124.062 642.898 124.324 643.68 124.684L642.602 127.262C641.953 126.98 641.34 126.75 640.762 126.57C640.191 126.391 639.609 126.301 639.016 126.301C638.492 126.301 638.098 126.371 637.832 126.512C637.566 126.652 637.434 126.867 637.434 127.156C637.434 127.367 637.5 127.555 637.633 127.719C637.773 127.883 638.039 128.066 638.43 128.27C638.828 128.465 639.41 128.719 640.176 129.031C640.918 129.336 641.562 129.656 642.109 129.992C642.656 130.32 643.078 130.73 643.375 131.223C643.672 131.707 643.82 132.336 643.82 133.109ZM660.133 123.652C661.609 123.652 662.801 124.227 663.707 125.375C664.621 126.523 665.078 128.207 665.078 130.426C665.078 131.91 664.863 133.16 664.434 134.176C664.004 135.184 663.41 135.945 662.652 136.461C661.895 136.977 661.023 137.234 660.039 137.234C659.406 137.234 658.863 137.156 658.41 137C657.957 136.836 657.57 136.629 657.25 136.379C656.93 136.121 656.652 135.848 656.418 135.559H656.23C656.293 135.871 656.34 136.191 656.371 136.52C656.402 136.848 656.418 137.168 656.418 137.48V142.766H652.844V123.898H655.75L656.254 125.598H656.418C656.652 125.246 656.938 124.922 657.273 124.625C657.609 124.328 658.012 124.094 658.48 123.922C658.957 123.742 659.508 123.652 660.133 123.652ZM658.984 126.512C658.359 126.512 657.863 126.641 657.496 126.898C657.129 127.156 656.859 127.543 656.688 128.059C656.523 128.574 656.434 129.227 656.418 130.016V130.402C656.418 131.246 656.496 131.961 656.652 132.547C656.816 133.133 657.086 133.578 657.461 133.883C657.844 134.188 658.367 134.34 659.031 134.34C659.578 134.34 660.027 134.188 660.379 133.883C660.73 133.578 660.992 133.133 661.164 132.547C661.344 131.953 661.434 131.23 661.434 130.379C661.434 129.098 661.234 128.133 660.836 127.484C660.438 126.836 659.82 126.512 658.984 126.512ZM675.344 123.652C675.523 123.652 675.73 123.664 675.965 123.688C676.207 123.703 676.402 123.727 676.551 123.758L676.281 127.109C676.164 127.07 675.996 127.043 675.777 127.027C675.566 127.004 675.383 126.992 675.227 126.992C674.766 126.992 674.316 127.051 673.879 127.168C673.449 127.285 673.062 127.477 672.719 127.742C672.375 128 672.102 128.344 671.898 128.773C671.703 129.195 671.605 129.715 671.605 130.332V137H668.031V123.898H670.738L671.266 126.102H671.441C671.699 125.656 672.02 125.25 672.402 124.883C672.793 124.508 673.234 124.211 673.727 123.992C674.227 123.766 674.766 123.652 675.344 123.652ZM690.836 130.426C690.836 131.52 690.688 132.488 690.391 133.332C690.102 134.176 689.676 134.891 689.113 135.477C688.559 136.055 687.887 136.492 687.098 136.789C686.316 137.086 685.434 137.234 684.449 137.234C683.527 137.234 682.68 137.086 681.906 136.789C681.141 136.492 680.473 136.055 679.902 135.477C679.34 134.891 678.902 134.176 678.59 133.332C678.285 132.488 678.133 131.52 678.133 130.426C678.133 128.973 678.391 127.742 678.906 126.734C679.422 125.727 680.156 124.961 681.109 124.438C682.062 123.914 683.199 123.652 684.52 123.652C685.746 123.652 686.832 123.914 687.777 124.438C688.73 124.961 689.477 125.727 690.016 126.734C690.562 127.742 690.836 128.973 690.836 130.426ZM681.777 130.426C681.777 131.285 681.871 132.008 682.059 132.594C682.246 133.18 682.539 133.621 682.938 133.918C683.336 134.215 683.855 134.363 684.496 134.363C685.129 134.363 685.641 134.215 686.031 133.918C686.43 133.621 686.719 133.18 686.898 132.594C687.086 132.008 687.18 131.285 687.18 130.426C687.18 129.559 687.086 128.84 686.898 128.27C686.719 127.691 686.43 127.258 686.031 126.969C685.633 126.68 685.113 126.535 684.473 126.535C683.527 126.535 682.84 126.859 682.41 127.508C681.988 128.156 681.777 129.129 681.777 130.426ZM701.031 126.582H697.938V137H694.363V126.582H692.395V124.859L694.363 123.898V122.938C694.363 121.82 694.551 120.953 694.926 120.336C695.309 119.711 695.844 119.273 696.531 119.023C697.227 118.766 698.047 118.637 698.992 118.637C699.688 118.637 700.32 118.695 700.891 118.812C701.461 118.922 701.926 119.047 702.285 119.188L701.371 121.812C701.098 121.727 700.801 121.648 700.48 121.578C700.16 121.508 699.793 121.473 699.379 121.473C698.879 121.473 698.512 121.625 698.277 121.93C698.051 122.227 697.938 122.609 697.938 123.078V123.898H701.031V126.582ZM708.496 123.652C709.707 123.652 710.75 123.887 711.625 124.355C712.5 124.816 713.176 125.488 713.652 126.371C714.129 127.254 714.367 128.332 714.367 129.605V131.34H705.918C705.957 132.348 706.258 133.141 706.82 133.719C707.391 134.289 708.18 134.574 709.188 134.574C710.023 134.574 710.789 134.488 711.484 134.316C712.18 134.145 712.895 133.887 713.629 133.543V136.309C712.98 136.629 712.301 136.863 711.59 137.012C710.887 137.16 710.031 137.234 709.023 137.234C707.711 137.234 706.547 136.992 705.531 136.508C704.523 136.023 703.73 135.285 703.152 134.293C702.582 133.301 702.297 132.051 702.297 130.543C702.297 129.012 702.555 127.738 703.07 126.723C703.594 125.699 704.32 124.934 705.25 124.426C706.18 123.91 707.262 123.652 708.496 123.652ZM708.52 126.195C707.824 126.195 707.246 126.418 706.785 126.863C706.332 127.309 706.07 128.008 706 128.961H711.016C711.008 128.43 710.91 127.957 710.723 127.543C710.543 127.129 710.27 126.801 709.902 126.559C709.543 126.316 709.082 126.195 708.52 126.195ZM726.414 133.109C726.414 134 726.203 134.754 725.781 135.371C725.367 135.98 724.746 136.445 723.918 136.766C723.09 137.078 722.059 137.234 720.824 137.234C719.91 137.234 719.125 137.176 718.469 137.059C717.82 136.941 717.164 136.746 716.5 136.473V133.52C717.211 133.84 717.973 134.105 718.785 134.316C719.605 134.52 720.324 134.621 720.941 134.621C721.637 134.621 722.133 134.52 722.43 134.316C722.734 134.105 722.887 133.832 722.887 133.496C722.887 133.277 722.824 133.082 722.699 132.91C722.582 132.73 722.324 132.531 721.926 132.312C721.527 132.086 720.902 131.793 720.051 131.434C719.23 131.09 718.555 130.742 718.023 130.391C717.5 130.039 717.109 129.625 716.852 129.148C716.602 128.664 716.477 128.051 716.477 127.309C716.477 126.098 716.945 125.188 717.883 124.578C718.828 123.961 720.09 123.652 721.668 123.652C722.48 123.652 723.254 123.734 723.988 123.898C724.73 124.062 725.492 124.324 726.273 124.684L725.195 127.262C724.547 126.98 723.934 126.75 723.355 126.57C722.785 126.391 722.203 126.301 721.609 126.301C721.086 126.301 720.691 126.371 720.426 126.512C720.16 126.652 720.027 126.867 720.027 127.156C720.027 127.367 720.094 127.555 720.227 127.719C720.367 127.883 720.633 128.066 721.023 128.27C721.422 128.465 722.004 128.719 722.77 129.031C723.512 129.336 724.156 129.656 724.703 129.992C725.25 130.32 725.672 130.73 725.969 131.223C726.266 131.707 726.414 132.336 726.414 133.109ZM738.344 133.109C738.344 134 738.133 134.754 737.711 135.371C737.297 135.98 736.676 136.445 735.848 136.766C735.02 137.078 733.988 137.234 732.754 137.234C731.84 137.234 731.055 137.176 730.398 137.059C729.75 136.941 729.094 136.746 728.43 136.473V133.52C729.141 133.84 729.902 134.105 730.715 134.316C731.535 134.52 732.254 134.621 732.871 134.621C733.566 134.621 734.062 134.52 734.359 134.316C734.664 134.105 734.816 133.832 734.816 133.496C734.816 133.277 734.754 133.082 734.629 132.91C734.512 132.73 734.254 132.531 733.855 132.312C733.457 132.086 732.832 131.793 731.98 131.434C731.16 131.09 730.484 130.742 729.953 130.391C729.43 130.039 729.039 129.625 728.781 129.148C728.531 128.664 728.406 128.051 728.406 127.309C728.406 126.098 728.875 125.188 729.812 124.578C730.758 123.961 732.02 123.652 733.598 123.652C734.41 123.652 735.184 123.734 735.918 123.898C736.66 124.062 737.422 124.324 738.203 124.684L737.125 127.262C736.477 126.98 735.863 126.75 735.285 126.57C734.715 126.391 734.133 126.301 733.539 126.301C733.016 126.301 732.621 126.371 732.355 126.512C732.09 126.652 731.957 126.867 731.957 127.156C731.957 127.367 732.023 127.555 732.156 127.719C732.297 127.883 732.562 128.066 732.953 128.27C733.352 128.465 733.934 128.719 734.699 129.031C735.441 129.336 736.086 129.656 736.633 129.992C737.18 130.32 737.602 130.73 737.898 131.223C738.195 131.707 738.344 132.336 738.344 133.109ZM744.707 123.898V137H741.133V123.898H744.707ZM742.926 118.766C743.457 118.766 743.914 118.891 744.297 119.141C744.68 119.383 744.871 119.84 744.871 120.512C744.871 121.176 744.68 121.637 744.297 121.895C743.914 122.145 743.457 122.27 742.926 122.27C742.387 122.27 741.926 122.145 741.543 121.895C741.168 121.637 740.98 121.176 740.98 120.512C740.98 119.84 741.168 119.383 741.543 119.141C741.926 118.891 742.387 118.766 742.926 118.766ZM760.375 130.426C760.375 131.52 760.227 132.488 759.93 133.332C759.641 134.176 759.215 134.891 758.652 135.477C758.098 136.055 757.426 136.492 756.637 136.789C755.855 137.086 754.973 137.234 753.988 137.234C753.066 137.234 752.219 137.086 751.445 136.789C750.68 136.492 750.012 136.055 749.441 135.477C748.879 134.891 748.441 134.176 748.129 133.332C747.824 132.488 747.672 131.52 747.672 130.426C747.672 128.973 747.93 127.742 748.445 126.734C748.961 125.727 749.695 124.961 750.648 124.438C751.602 123.914 752.738 123.652 754.059 123.652C755.285 123.652 756.371 123.914 757.316 124.438C758.27 124.961 759.016 125.727 759.555 126.734C760.102 127.742 760.375 128.973 760.375 130.426ZM751.316 130.426C751.316 131.285 751.41 132.008 751.598 132.594C751.785 133.18 752.078 133.621 752.477 133.918C752.875 134.215 753.395 134.363 754.035 134.363C754.668 134.363 755.18 134.215 755.57 133.918C755.969 133.621 756.258 133.18 756.438 132.594C756.625 132.008 756.719 131.285 756.719 130.426C756.719 129.559 756.625 128.84 756.438 128.27C756.258 127.691 755.969 127.258 755.57 126.969C755.172 126.68 754.652 126.535 754.012 126.535C753.066 126.535 752.379 126.859 751.949 127.508C751.527 128.156 751.316 129.129 751.316 130.426ZM770.77 123.652C772.168 123.652 773.293 124.035 774.145 124.801C774.996 125.559 775.422 126.777 775.422 128.457V137H771.848V129.348C771.848 128.41 771.676 127.703 771.332 127.227C770.996 126.75 770.465 126.512 769.738 126.512C768.645 126.512 767.898 126.883 767.5 127.625C767.102 128.367 766.902 129.438 766.902 130.836V137H763.328V123.898H766.059L766.539 125.574H766.738C767.02 125.121 767.367 124.754 767.781 124.473C768.203 124.191 768.668 123.984 769.176 123.852C769.691 123.719 770.223 123.652 770.77 123.652ZM786.543 123.652C787.941 123.652 789.066 124.035 789.918 124.801C790.77 125.559 791.195 126.777 791.195 128.457V137H787.621V129.348C787.621 128.41 787.449 127.703 787.105 127.227C786.77 126.75 786.238 126.512 785.512 126.512C784.418 126.512 783.672 126.883 783.273 127.625C782.875 128.367 782.676 129.438 782.676 130.836V137H779.102V123.898H781.832L782.312 125.574H782.512C782.793 125.121 783.141 124.754 783.555 124.473C783.977 124.191 784.441 123.984 784.949 123.852C785.465 123.719 785.996 123.652 786.543 123.652ZM800.277 123.652C801.488 123.652 802.531 123.887 803.406 124.355C804.281 124.816 804.957 125.488 805.434 126.371C805.91 127.254 806.148 128.332 806.148 129.605V131.34H797.699C797.738 132.348 798.039 133.141 798.602 133.719C799.172 134.289 799.961 134.574 800.969 134.574C801.805 134.574 802.57 134.488 803.266 134.316C803.961 134.145 804.676 133.887 805.41 133.543V136.309C804.762 136.629 804.082 136.863 803.371 137.012C802.668 137.16 801.812 137.234 800.805 137.234C799.492 137.234 798.328 136.992 797.312 136.508C796.305 136.023 795.512 135.285 794.934 134.293C794.363 133.301 794.078 132.051 794.078 130.543C794.078 129.012 794.336 127.738 794.852 126.723C795.375 125.699 796.102 124.934 797.031 124.426C797.961 123.91 799.043 123.652 800.277 123.652ZM800.301 126.195C799.605 126.195 799.027 126.418 798.566 126.863C798.113 127.309 797.852 128.008 797.781 128.961H802.797C802.789 128.43 802.691 127.957 802.504 127.543C802.324 127.129 802.051 126.801 801.684 126.559C801.324 126.316 800.863 126.195 800.301 126.195ZM812.629 137H809.055V118.766H812.629V137ZM819.965 137H816.391V118.766H819.965V137ZM829.129 123.652C830.34 123.652 831.383 123.887 832.258 124.355C833.133 124.816 833.809 125.488 834.285 126.371C834.762 127.254 835 128.332 835 129.605V131.34H826.551C826.59 132.348 826.891 133.141 827.453 133.719C828.023 134.289 828.812 134.574 829.82 134.574C830.656 134.574 831.422 134.488 832.117 134.316C832.812 134.145 833.527 133.887 834.262 133.543V136.309C833.613 136.629 832.934 136.863 832.223 137.012C831.52 137.16 830.664 137.234 829.656 137.234C828.344 137.234 827.18 136.992 826.164 136.508C825.156 136.023 824.363 135.285 823.785 134.293C823.215 133.301 822.93 132.051 822.93 130.543C822.93 129.012 823.188 127.738 823.703 126.723C824.227 125.699 824.953 124.934 825.883 124.426C826.812 123.91 827.895 123.652 829.129 123.652ZM829.152 126.195C828.457 126.195 827.879 126.418 827.418 126.863C826.965 127.309 826.703 128.008 826.633 128.961H831.648C831.641 128.43 831.543 127.957 831.355 127.543C831.176 127.129 830.902 126.801 830.535 126.559C830.176 126.316 829.715 126.195 829.152 126.195ZM847.047 133.109C847.047 134 846.836 134.754 846.414 135.371C846 135.98 845.379 136.445 844.551 136.766C843.723 137.078 842.691 137.234 841.457 137.234C840.543 137.234 839.758 137.176 839.102 137.059C838.453 136.941 837.797 136.746 837.133 136.473V133.52C837.844 133.84 838.605 134.105 839.418 134.316C840.238 134.52 840.957 134.621 841.574 134.621C842.27 134.621 842.766 134.52 843.062 134.316C843.367 134.105 843.52 133.832 843.52 133.496C843.52 133.277 843.457 133.082 843.332 132.91C843.215 132.73 842.957 132.531 842.559 132.312C842.16 132.086 841.535 131.793 840.684 131.434C839.863 131.09 839.188 130.742 838.656 130.391C838.133 130.039 837.742 129.625 837.484 129.148C837.234 128.664 837.109 128.051 837.109 127.309C837.109 126.098 837.578 125.188 838.516 124.578C839.461 123.961 840.723 123.652 842.301 123.652C843.113 123.652 843.887 123.734 844.621 123.898C845.363 124.062 846.125 124.324 846.906 124.684L845.828 127.262C845.18 126.98 844.566 126.75 843.988 126.57C843.418 126.391 842.836 126.301 842.242 126.301C841.719 126.301 841.324 126.371 841.059 126.512C840.793 126.652 840.66 126.867 840.66 127.156C840.66 127.367 840.727 127.555 840.859 127.719C841 127.883 841.266 128.066 841.656 128.27C842.055 128.465 842.637 128.719 843.402 129.031C844.145 129.336 844.789 129.656 845.336 129.992C845.883 130.32 846.305 130.73 846.602 131.223C846.898 131.707 847.047 132.336 847.047 133.109Z" fill="black"/>
<path d="M454.961 49L453.719 44.9219H447.473L446.23 49H442.316L448.363 31.7969H452.805L458.875 49H454.961ZM452.852 41.875L451.609 37.8906C451.531 37.625 451.426 37.2852 451.293 36.8711C451.168 36.4492 451.039 36.0234 450.906 35.5938C450.781 35.1562 450.68 34.7773 450.602 34.457C450.523 34.7773 450.414 35.1758 450.273 35.6523C450.141 36.1211 450.012 36.5664 449.887 36.9883C449.762 37.4102 449.672 37.7109 449.617 37.8906L448.387 41.875H452.852ZM464.336 49H460.762V30.7656H464.336V49ZM480.121 35.8984V49H477.379L476.898 47.3242H476.711C476.43 47.7695 476.078 48.1328 475.656 48.4141C475.234 48.6953 474.77 48.9023 474.262 49.0352C473.754 49.168 473.227 49.2344 472.68 49.2344C471.742 49.2344 470.926 49.0703 470.23 48.7422C469.535 48.4062 468.992 47.8867 468.602 47.1836C468.219 46.4805 468.027 45.5664 468.027 44.4414V35.8984H471.602V43.5508C471.602 44.4883 471.77 45.1953 472.105 45.6719C472.441 46.1484 472.977 46.3867 473.711 46.3867C474.438 46.3867 475.008 46.2227 475.422 45.8945C475.836 45.5586 476.125 45.0703 476.289 44.4297C476.461 43.7812 476.547 42.9922 476.547 42.0625V35.8984H480.121ZM499.258 35.6523C500.742 35.6523 501.863 36.0352 502.621 36.8008C503.387 37.5586 503.77 38.7773 503.77 40.457V49H500.184V41.3477C500.184 40.4102 500.023 39.7031 499.703 39.2266C499.383 38.75 498.887 38.5117 498.215 38.5117C497.27 38.5117 496.598 38.8516 496.199 39.5312C495.801 40.2031 495.602 41.168 495.602 42.4258V49H492.027V41.3477C492.027 40.7227 491.957 40.1992 491.816 39.7773C491.676 39.3555 491.461 39.0391 491.172 38.8281C490.883 38.6172 490.512 38.5117 490.059 38.5117C489.395 38.5117 488.871 38.6797 488.488 39.0156C488.113 39.3438 487.844 39.832 487.68 40.4805C487.523 41.1211 487.445 41.9062 487.445 42.8359V49H483.871V35.8984H486.602L487.082 37.5742H487.281C487.547 37.1211 487.879 36.7539 488.277 36.4727C488.684 36.1914 489.129 35.9844 489.613 35.8516C490.098 35.7188 490.59 35.6523 491.09 35.6523C492.051 35.6523 492.863 35.8086 493.527 36.1211C494.199 36.4336 494.715 36.918 495.074 37.5742H495.391C495.781 36.9023 496.332 36.4141 497.043 36.1094C497.762 35.8047 498.5 35.6523 499.258 35.6523ZM514.891 35.6523C516.289 35.6523 517.414 36.0352 518.266 36.8008C519.117 37.5586 519.543 38.7773 519.543 40.457V49H515.969V41.3477C515.969 40.4102 515.797 39.7031 515.453 39.2266C515.117 38.75 514.586 38.5117 513.859 38.5117C512.766 38.5117 512.02 38.8828 511.621 39.625C511.223 40.3672 511.023 41.4375 511.023 42.8359V49H507.449V35.8984H510.18L510.66 37.5742H510.859C511.141 37.1211 511.488 36.7539 511.902 36.4727C512.324 36.1914 512.789 35.9844 513.297 35.8516C513.812 35.7188 514.344 35.6523 514.891 35.6523ZM526.797 35.8984V49H523.223V35.8984H526.797ZM525.016 30.7656C525.547 30.7656 526.004 30.8906 526.387 31.1406C526.77 31.3828 526.961 31.8398 526.961 32.5117C526.961 33.1758 526.77 33.6367 526.387 33.8945C526.004 34.1445 525.547 34.2695 525.016 34.2695C524.477 34.2695 524.016 34.1445 523.633 33.8945C523.258 33.6367 523.07 33.1758 523.07 32.5117C523.07 31.8398 523.258 31.3828 523.633 31.1406C524.016 30.8906 524.477 30.7656 525.016 30.7656Z" fill="#0061B1"/>
</svg>
