<svg width="1023" height="51" viewBox="0 0 1023 51" fill="none" xmlns="http://www.w3.org/2000/svg">
<rect width="1023" height="51" fill="#0061B1"/>
<path d="M30.0571 20.768C30.0571 22.0693 29.7585 23.264 29.1611 24.352C28.5638 25.4187 27.6465 26.2827 26.4091 26.944C25.1718 27.6053 23.6358 27.936 21.8011 27.936H18.4091V36H12.9371V13.536H21.8011C23.5931 13.536 25.1078 13.8453 26.3451 14.464C27.5825 15.0827 28.5105 15.936 29.1291 17.024C29.7478 18.112 30.0571 19.36 30.0571 20.768ZM21.3851 23.584C22.4305 23.584 23.2091 23.3387 23.7211 22.848C24.2331 22.3573 24.4891 21.664 24.4891 20.768C24.4891 19.872 24.2331 19.1787 23.7211 18.688C23.2091 18.1973 22.4305 17.952 21.3851 17.952H18.4091V23.584H21.3851ZM41.0339 36.256C39.2845 36.256 37.7059 35.8827 36.2979 35.136C34.9112 34.3893 33.8125 33.3227 33.0019 31.936C32.2125 30.5493 31.8179 28.928 31.8179 27.072C31.8179 25.2373 32.2232 23.6267 33.0339 22.24C33.8445 20.832 34.9539 19.7547 36.3619 19.008C37.7699 18.2613 39.3485 17.888 41.0979 17.888C42.8472 17.888 44.4259 18.2613 45.8339 19.008C47.2419 19.7547 48.3512 20.832 49.1619 22.24C49.9725 23.6267 50.3779 25.2373 50.3779 27.072C50.3779 28.9067 49.9619 30.528 49.1299 31.936C48.3192 33.3227 47.1992 34.3893 45.7699 35.136C44.3619 35.8827 42.7832 36.256 41.0339 36.256ZM41.0339 31.52C42.0792 31.52 42.9645 31.136 43.6899 30.368C44.4365 29.6 44.8099 28.5013 44.8099 27.072C44.8099 25.6427 44.4472 24.544 43.7219 23.776C43.0179 23.008 42.1432 22.624 41.0979 22.624C40.0312 22.624 39.1459 23.008 38.4419 23.776C37.7379 24.5227 37.3859 25.6213 37.3859 27.072C37.3859 28.5013 37.7272 29.6 38.4099 30.368C39.1139 31.136 39.9885 31.52 41.0339 31.52ZM60.5449 36.256C58.9875 36.256 57.6009 35.9893 56.3849 35.456C55.1689 34.9227 54.2089 34.1973 53.5049 33.28C52.8009 32.3413 52.4062 31.296 52.3209 30.144H57.7289C57.7929 30.7627 58.0809 31.264 58.5929 31.648C59.1049 32.032 59.7342 32.224 60.4809 32.224C61.1635 32.224 61.6862 32.096 62.0489 31.84C62.4329 31.5627 62.6249 31.2107 62.6249 30.784C62.6249 30.272 62.3582 29.8987 61.8249 29.664C61.2915 29.408 60.4275 29.1307 59.2329 28.832C57.9529 28.5333 56.8862 28.224 56.0329 27.904C55.1795 27.5627 54.4435 27.04 53.8249 26.336C53.2062 25.6107 52.8969 24.64 52.8969 23.424C52.8969 22.4 53.1742 21.472 53.7289 20.64C54.3049 19.7867 55.1369 19.1147 56.2249 18.624C57.3342 18.1333 58.6462 17.888 60.1609 17.888C62.4009 17.888 64.1609 18.4427 65.4409 19.552C66.7422 20.6613 67.4889 22.1333 67.6809 23.968H62.6249C62.5395 23.3493 62.2622 22.8587 61.7929 22.496C61.3449 22.1333 60.7475 21.952 60.0009 21.952C59.3609 21.952 58.8702 22.08 58.5289 22.336C58.1875 22.5707 58.0169 22.9013 58.0169 23.328C58.0169 23.84 58.2835 24.224 58.8169 24.48C59.3715 24.736 60.2249 24.992 61.3769 25.248C62.6995 25.5893 63.7769 25.9307 64.6089 26.272C65.4409 26.592 66.1662 27.1253 66.7849 27.872C67.4249 28.5973 67.7555 29.5787 67.7769 30.816C67.7769 31.8613 67.4782 32.8 66.8809 33.632C66.3049 34.4427 65.4622 35.0827 64.3529 35.552C63.2649 36.0213 61.9955 36.256 60.5449 36.256ZM73.8766 16.288C72.9166 16.288 72.1273 16.0107 71.5086 15.456C70.9113 14.88 70.6126 14.176 70.6126 13.344C70.6126 12.4907 70.9113 11.7867 71.5086 11.232C72.1273 10.656 72.9166 10.368 73.8766 10.368C74.8153 10.368 75.5833 10.656 76.1806 11.232C76.7993 11.7867 77.1086 12.4907 77.1086 13.344C77.1086 14.176 76.7993 14.88 76.1806 15.456C75.5833 16.0107 74.8153 16.288 73.8766 16.288ZM76.5966 18.144V36H71.1246V18.144H76.5966ZM90.5141 31.36V36H87.7301C85.7461 36 84.1995 35.52 83.0901 34.56C81.9808 33.5787 81.4261 31.9893 81.4261 29.792V22.688H79.2501V18.144H81.4261V13.792H86.8981V18.144H90.4821V22.688H86.8981V29.856C86.8981 30.3893 87.0261 30.7733 87.2821 31.008C87.5381 31.2427 87.9648 31.36 88.5621 31.36H90.5141ZM96.3141 16.288C95.3541 16.288 94.5648 16.0107 93.9461 15.456C93.3488 14.88 93.0501 14.176 93.0501 13.344C93.0501 12.4907 93.3488 11.7867 93.9461 11.232C94.5648 10.656 95.3541 10.368 96.3141 10.368C97.2528 10.368 98.0208 10.656 98.6181 11.232C99.2368 11.7867 99.5461 12.4907 99.5461 13.344C99.5461 14.176 99.2368 14.88 98.6181 15.456C98.0208 16.0107 97.2528 16.288 96.3141 16.288ZM99.0341 18.144V36H93.5621V18.144H99.0341ZM111.128 36.256C109.378 36.256 107.8 35.8827 106.392 35.136C105.005 34.3893 103.906 33.3227 103.096 31.936C102.306 30.5493 101.912 28.928 101.912 27.072C101.912 25.2373 102.317 23.6267 103.128 22.24C103.938 20.832 105.048 19.7547 106.456 19.008C107.864 18.2613 109.442 17.888 111.192 17.888C112.941 17.888 114.52 18.2613 115.928 19.008C117.336 19.7547 118.445 20.832 119.256 22.24C120.066 23.6267 120.472 25.2373 120.472 27.072C120.472 28.9067 120.056 30.528 119.224 31.936C118.413 33.3227 117.293 34.3893 115.864 35.136C114.456 35.8827 112.877 36.256 111.128 36.256ZM111.128 31.52C112.173 31.52 113.058 31.136 113.784 30.368C114.53 29.6 114.904 28.5013 114.904 27.072C114.904 25.6427 114.541 24.544 113.816 23.776C113.112 23.008 112.237 22.624 111.192 22.624C110.125 22.624 109.24 23.008 108.536 23.776C107.832 24.5227 107.48 25.6213 107.48 27.072C107.48 28.5013 107.821 29.6 108.504 30.368C109.208 31.136 110.082 31.52 111.128 31.52ZM134.255 17.952C136.345 17.952 138.009 18.6347 139.247 20C140.505 21.344 141.135 23.2 141.135 25.568V36H135.695V26.304C135.695 25.1093 135.385 24.1813 134.767 23.52C134.148 22.8587 133.316 22.528 132.271 22.528C131.225 22.528 130.393 22.8587 129.775 23.52C129.156 24.1813 128.847 25.1093 128.847 26.304V36H123.375V18.144H128.847V20.512C129.401 19.7227 130.148 19.104 131.087 18.656C132.025 18.1867 133.081 17.952 134.255 17.952ZM150.63 27.04C150.63 25.2053 150.972 23.5947 151.654 22.208C152.358 20.8213 153.308 19.7547 154.502 19.008C155.697 18.2613 157.03 17.888 158.502 17.888C159.676 17.888 160.742 18.1333 161.702 18.624C162.684 19.1147 163.452 19.776 164.006 20.608V12.32H169.478V36H164.006V33.44C163.494 34.2933 162.758 34.976 161.798 35.488C160.86 36 159.761 36.256 158.502 36.256C157.03 36.256 155.697 35.8827 154.502 35.136C153.308 34.368 152.358 33.2907 151.654 31.904C150.972 30.496 150.63 28.8747 150.63 27.04ZM164.006 27.072C164.006 25.7067 163.622 24.6293 162.854 23.84C162.108 23.0507 161.19 22.656 160.102 22.656C159.014 22.656 158.086 23.0507 157.318 23.84C156.572 24.608 156.198 25.6747 156.198 27.04C156.198 28.4053 156.572 29.4933 157.318 30.304C158.086 31.0933 159.014 31.488 160.102 31.488C161.19 31.488 162.108 31.0933 162.854 30.304C163.622 29.5147 164.006 28.4373 164.006 27.072ZM190.269 26.784C190.269 27.296 190.237 27.8293 190.173 28.384H177.789C177.874 29.4933 178.226 30.3467 178.845 30.944C179.485 31.52 180.264 31.808 181.181 31.808C182.546 31.808 183.496 31.232 184.029 30.08H189.853C189.554 31.2533 189.01 32.3093 188.221 33.248C187.453 34.1867 186.482 34.9227 185.309 35.456C184.136 35.9893 182.824 36.256 181.373 36.256C179.624 36.256 178.066 35.8827 176.701 35.136C175.336 34.3893 174.269 33.3227 173.501 31.936C172.733 30.5493 172.349 28.928 172.349 27.072C172.349 25.216 172.722 23.5947 173.469 22.208C174.237 20.8213 175.304 19.7547 176.669 19.008C178.034 18.2613 179.602 17.888 181.373 17.888C183.101 17.888 184.637 18.2507 185.981 18.976C187.325 19.7013 188.37 20.736 189.117 22.08C189.885 23.424 190.269 24.992 190.269 26.784ZM184.669 25.344C184.669 24.4053 184.349 23.6587 183.709 23.104C183.069 22.5493 182.269 22.272 181.309 22.272C180.392 22.272 179.613 22.5387 178.973 23.072C178.354 23.6053 177.97 24.3627 177.821 25.344H184.669ZM220.033 36H214.561L205.409 22.144V36H199.937V13.536H205.409L214.561 27.456V13.536H220.033V36ZM232.128 36.256C230.378 36.256 228.8 35.8827 227.392 35.136C226.005 34.3893 224.906 33.3227 224.096 31.936C223.306 30.5493 222.912 28.928 222.912 27.072C222.912 25.2373 223.317 23.6267 224.128 22.24C224.938 20.832 226.048 19.7547 227.456 19.008C228.864 18.2613 230.442 17.888 232.192 17.888C233.941 17.888 235.52 18.2613 236.928 19.008C238.336 19.7547 239.445 20.832 240.256 22.24C241.066 23.6267 241.472 25.2373 241.472 27.072C241.472 28.9067 241.056 30.528 240.224 31.936C239.413 33.3227 238.293 34.3893 236.864 35.136C235.456 35.8827 233.877 36.256 232.128 36.256ZM232.128 31.52C233.173 31.52 234.058 31.136 234.784 30.368C235.53 29.6 235.904 28.5013 235.904 27.072C235.904 25.6427 235.541 24.544 234.816 23.776C234.112 23.008 233.237 22.624 232.192 22.624C231.125 22.624 230.24 23.008 229.536 23.776C228.832 24.5227 228.48 25.6213 228.48 27.072C228.48 28.5013 228.821 29.6 229.504 30.368C230.208 31.136 231.082 31.52 232.128 31.52ZM254.327 31.36V36H251.543C249.559 36 248.012 35.52 246.903 34.56C245.793 33.5787 245.239 31.9893 245.239 29.792V22.688H243.063V18.144H245.239V13.792H250.711V18.144H254.295V22.688H250.711V29.856C250.711 30.3893 250.839 30.7733 251.095 31.008C251.351 31.2427 251.777 31.36 252.375 31.36H254.327ZM262.847 21.12C263.487 20.1387 264.287 19.3707 265.247 18.816C266.207 18.24 267.273 17.952 268.447 17.952V23.744H266.943C265.577 23.744 264.553 24.0427 263.871 24.64C263.188 25.216 262.847 26.24 262.847 27.712V36H257.375V18.144H262.847V21.12ZM287.894 26.784C287.894 27.296 287.862 27.8293 287.798 28.384H275.414C275.499 29.4933 275.851 30.3467 276.47 30.944C277.11 31.52 277.889 31.808 278.806 31.808C280.171 31.808 281.121 31.232 281.654 30.08H287.478C287.179 31.2533 286.635 32.3093 285.846 33.248C285.078 34.1867 284.107 34.9227 282.934 35.456C281.761 35.9893 280.449 36.256 278.998 36.256C277.249 36.256 275.691 35.8827 274.326 35.136C272.961 34.3893 271.894 33.3227 271.126 31.936C270.358 30.5493 269.974 28.928 269.974 27.072C269.974 25.216 270.347 23.5947 271.094 22.208C271.862 20.8213 272.929 19.7547 274.294 19.008C275.659 18.2613 277.227 17.888 278.998 17.888C280.726 17.888 282.262 18.2507 283.606 18.976C284.95 19.7013 285.995 20.736 286.742 22.08C287.51 23.424 287.894 24.992 287.894 26.784ZM282.294 25.344C282.294 24.4053 281.974 23.6587 281.334 23.104C280.694 22.5493 279.894 22.272 278.934 22.272C278.017 22.272 277.238 22.5387 276.598 23.072C275.979 23.6053 275.595 24.3627 275.446 25.344H282.294ZM311.546 32.032H303.162L301.818 36H296.09L304.218 13.536H310.554L318.682 36H312.89L311.546 32.032ZM310.138 27.808L307.354 19.584L304.602 27.808H310.138ZM326.628 12.32V36H321.156V12.32H326.628ZM348.225 18.144V36H342.753V33.568C342.199 34.3573 341.441 34.9973 340.481 35.488C339.543 35.9573 338.497 36.192 337.345 36.192C335.98 36.192 334.775 35.8933 333.729 35.296C332.684 34.6773 331.873 33.792 331.297 32.64C330.721 31.488 330.433 30.1333 330.433 28.576V18.144H335.873V27.84C335.873 29.0347 336.183 29.9627 336.801 30.624C337.42 31.2853 338.252 31.616 339.297 31.616C340.364 31.616 341.207 31.2853 341.825 30.624C342.444 29.9627 342.753 29.0347 342.753 27.84V18.144H348.225ZM374.94 17.952C377.159 17.952 378.919 18.624 380.22 19.968C381.543 21.312 382.204 23.1787 382.204 25.568V36H376.764V26.304C376.764 25.152 376.455 24.2667 375.836 23.648C375.239 23.008 374.407 22.688 373.34 22.688C372.273 22.688 371.431 23.008 370.812 23.648C370.215 24.2667 369.916 25.152 369.916 26.304V36H364.476V26.304C364.476 25.152 364.167 24.2667 363.548 23.648C362.951 23.008 362.119 22.688 361.052 22.688C359.985 22.688 359.143 23.008 358.524 23.648C357.927 24.2667 357.628 25.152 357.628 26.304V36H352.156V18.144H357.628V20.384C358.183 19.6373 358.908 19.0507 359.804 18.624C360.7 18.176 361.713 17.952 362.844 17.952C364.188 17.952 365.383 18.24 366.428 18.816C367.495 19.392 368.327 20.2133 368.924 21.28C369.543 20.2987 370.385 19.4987 371.452 18.88C372.519 18.2613 373.681 17.952 374.94 17.952ZM396.911 17.952C399.002 17.952 400.666 18.6347 401.903 20C403.162 21.344 403.791 23.2 403.791 25.568V36H398.351V26.304C398.351 25.1093 398.042 24.1813 397.423 23.52C396.804 22.8587 395.972 22.528 394.927 22.528C393.882 22.528 393.05 22.8587 392.431 23.52C391.812 24.1813 391.503 25.1093 391.503 26.304V36H386.031V18.144H391.503V20.512C392.058 19.7227 392.804 19.104 393.743 18.656C394.682 18.1867 395.738 17.952 396.911 17.952ZM410.345 16.288C409.385 16.288 408.596 16.0107 407.977 15.456C407.38 14.88 407.081 14.176 407.081 13.344C407.081 12.4907 407.38 11.7867 407.977 11.232C408.596 10.656 409.385 10.368 410.345 10.368C411.284 10.368 412.052 10.656 412.649 11.232C413.268 11.7867 413.577 12.4907 413.577 13.344C413.577 14.176 413.268 14.88 412.649 15.456C412.052 16.0107 411.284 16.288 410.345 16.288ZM413.065 18.144V36H407.593V18.144H413.065Z" fill="white"/>
</svg>
