<svg width="10" height="10" viewBox="0 0 10 10" fill="none" xmlns="http://www.w3.org/2000/svg">
<path d="M4.99967 5.83333C5.91884 5.83333 6.66634 5.08583 6.66634 4.16667C6.66634 3.2475 5.91884 2.5 4.99967 2.5C4.08051 2.5 3.33301 3.2475 3.33301 4.16667C3.33301 5.08583 4.08051 5.83333 4.99967 5.83333ZM4.99967 3.33333C5.45926 3.33333 5.83301 3.70708 5.83301 4.16667C5.83301 4.62625 5.45926 5 4.99967 5C4.54009 5 4.16634 4.62625 4.16634 4.16667C4.16634 3.70708 4.54009 3.33333 4.99967 3.33333Z" fill="#636366"/>
<path d="M4.7587 9.08915C4.82922 9.13951 4.91371 9.16658 5.00036 9.16658C5.08702 9.16658 5.17151 9.13951 5.24203 9.08915C5.3687 8.99956 8.34578 6.84998 8.3337 4.16665C8.3337 2.32873 6.83828 0.833313 5.00036 0.833313C3.16245 0.833313 1.66703 2.32873 1.66703 4.16456C1.65495 6.84998 4.63203 8.99956 4.7587 9.08915ZM5.00036 1.66665C6.37911 1.66665 7.50036 2.7879 7.50036 4.16873C7.50911 6.0179 5.67203 7.67831 5.00036 8.2229C4.32911 7.6779 2.49161 6.01706 2.50036 4.16665C2.50036 2.7879 3.62161 1.66665 5.00036 1.66665Z" fill="#636366"/>
</svg>
