<svg width="193" height="327" viewBox="0 0 193 327" fill="none" xmlns="http://www.w3.org/2000/svg">
<rect x="1" y="1" width="190.75" height="325" rx="10" fill="white"/>
<rect x="1" y="1" width="190.75" height="325" rx="10" stroke="#F9FCFF"/>
<g clip-path="url(#clip0_420_1069)">
<path opacity="0.2" d="M90 52.5H40C39.337 52.5 38.7011 52.7634 38.2322 53.2322C37.7634 53.7011 37.5 54.337 37.5 55V90C37.5 90.663 37.7634 91.2989 38.2322 91.7678C38.7011 92.2366 39.337 92.5 40 92.5H90C90.663 92.5 91.2989 92.2366 91.7678 91.7678C92.2366 91.2989 92.5 90.663 92.5 90V55C92.5 54.337 92.2366 53.7011 91.7678 53.2322C91.2989 52.7634 90.663 52.5 90 52.5ZM65 75C63.7639 75 62.5555 74.6334 61.5277 73.9467C60.4999 73.2599 59.6988 72.2838 59.2258 71.1418C58.7527 69.9997 58.6289 68.7431 58.8701 67.5307C59.1112 66.3183 59.7065 65.2047 60.5806 64.3306C61.4547 63.4565 62.5683 62.8612 63.7807 62.6201C64.9931 62.3789 66.2497 62.5027 67.3918 62.9758C68.5338 63.4488 69.5099 64.2499 70.1967 65.2777C70.8834 66.3055 71.25 67.5139 71.25 68.75C71.25 70.4076 70.5915 71.9973 69.4194 73.1694C68.2473 74.3415 66.6576 75 65 75Z" fill="#0061B1"/>
<path d="M90 52.5H40C38.6193 52.5 37.5 53.6193 37.5 55V90C37.5 91.3807 38.6193 92.5 40 92.5H90C91.3807 92.5 92.5 91.3807 92.5 90V55C92.5 53.6193 91.3807 52.5 90 52.5Z" stroke="#0061B1" stroke-width="2" stroke-linecap="round" stroke-linejoin="round"/>
<path d="M52.5 52.5V42.5C52.5 39.1848 53.817 36.0054 56.1612 33.6612C58.5054 31.317 61.6848 30 65 30C71.0469 30 76.3406 34.2937 77.5 40" stroke="#0061B1" stroke-width="2" stroke-linecap="round" stroke-linejoin="round"/>
<path d="M65 75C68.4518 75 71.25 72.2018 71.25 68.75C71.25 65.2982 68.4518 62.5 65 62.5C61.5482 62.5 58.75 65.2982 58.75 68.75C58.75 72.2018 61.5482 75 65 75Z" stroke="#0061B1" stroke-width="2" stroke-linecap="round" stroke-linejoin="round"/>
<path d="M65 75V82.5" stroke="#0061B1" stroke-width="2" stroke-linecap="round" stroke-linejoin="round"/>
</g>
<path d="M26.848 153V135.12H29.68V150.48H37.408V153H26.848ZM39.5215 153V140.016H42.2335V153H39.5215ZM39.5215 138.24V135.12H42.2335V138.24H39.5215ZM46.8683 153V142.464H44.4683V140.016H46.8683V139.344C46.8683 138.368 47.0683 137.552 47.4683 136.896C47.8683 136.224 48.4203 135.712 49.1243 135.36C49.8443 135.008 50.6683 134.832 51.5963 134.832C51.7723 134.832 51.9723 134.848 52.1963 134.88C52.4203 134.896 52.6043 134.92 52.7483 134.952V137.304C52.6203 137.272 52.4763 137.256 52.3163 137.256C52.1563 137.24 52.0283 137.232 51.9323 137.232C51.2123 137.232 50.6363 137.4 50.2043 137.736C49.7723 138.056 49.5563 138.592 49.5563 139.344V140.016H52.5323V142.464H49.5563V153H46.8683ZM60.6644 153.288C59.3684 153.288 58.2164 152.992 57.2084 152.4C56.2164 151.792 55.4404 150.976 54.8804 149.952C54.3204 148.912 54.0404 147.752 54.0404 146.472C54.0404 145.16 54.3204 144 54.8804 142.992C55.4564 141.984 56.2244 141.192 57.1844 140.616C58.1444 140.024 59.2324 139.728 60.4484 139.728C61.4244 139.728 62.2964 139.896 63.0644 140.232C63.8324 140.568 64.4804 141.032 65.0084 141.624C65.5364 142.2 65.9364 142.864 66.2084 143.616C66.4964 144.368 66.6404 145.168 66.6404 146.016C66.6404 146.224 66.6324 146.44 66.6164 146.664C66.6004 146.888 66.5684 147.096 66.5204 147.288H56.1764V145.128H64.9844L63.6884 146.112C63.8484 145.328 63.7924 144.632 63.5204 144.024C63.2644 143.4 62.8644 142.912 62.3204 142.56C61.7924 142.192 61.1684 142.008 60.4484 142.008C59.7284 142.008 59.0884 142.192 58.5284 142.56C57.9684 142.912 57.5364 143.424 57.2324 144.096C56.9284 144.752 56.8084 145.552 56.8724 146.496C56.7924 147.376 56.9124 148.144 57.2324 148.8C57.5684 149.456 58.0324 149.968 58.6244 150.336C59.2324 150.704 59.9204 150.888 60.6884 150.888C61.4724 150.888 62.1364 150.712 62.6804 150.36C63.2404 150.008 63.6804 149.552 64.0004 148.992L66.2084 150.072C65.9524 150.68 65.5524 151.232 65.0084 151.728C64.4804 152.208 63.8404 152.592 63.0884 152.88C62.3524 153.152 61.5444 153.288 60.6644 153.288ZM74.9031 153.144C73.5431 153.144 72.4871 152.76 71.7351 151.992C70.9831 151.224 70.6071 150.144 70.6071 148.752V142.464H68.3271V140.016H68.6871C69.2951 140.016 69.7671 139.84 70.1031 139.488C70.4391 139.136 70.6071 138.656 70.6071 138.048V137.04H73.3191V140.016H76.2711V142.464H73.3191V148.632C73.3191 149.08 73.3911 149.464 73.5351 149.784C73.6791 150.088 73.9111 150.328 74.2311 150.504C74.5511 150.664 74.9671 150.744 75.4791 150.744C75.6071 150.744 75.7511 150.736 75.9111 150.72C76.0711 150.704 76.2231 150.688 76.3671 150.672V153C76.1431 153.032 75.8951 153.064 75.6231 153.096C75.3511 153.128 75.1111 153.144 74.9031 153.144ZM79.0137 153V140.016H81.7257V153H79.0137ZM79.0137 138.24V135.12H81.7257V138.24H79.0137ZM84.8965 153V140.016H87.4885V142.824L87.1525 142.392C87.4245 141.512 87.9205 140.848 88.6405 140.4C89.3605 139.952 90.1845 139.728 91.1125 139.728C92.1525 139.728 93.0725 140.008 93.8725 140.568C94.6885 141.112 95.2325 141.84 95.5045 142.752L94.7365 142.824C95.1205 141.784 95.7045 141.008 96.4885 140.496C97.2885 139.984 98.2005 139.728 99.2245 139.728C100.121 139.728 100.929 139.936 101.649 140.352C102.385 140.768 102.969 141.344 103.401 142.08C103.833 142.816 104.049 143.656 104.049 144.6V153H101.337V145.344C101.337 144.688 101.217 144.136 100.977 143.688C100.753 143.224 100.433 142.872 100.017 142.632C99.6165 142.376 99.1445 142.248 98.6005 142.248C98.0565 142.248 97.5765 142.376 97.1605 142.632C96.7445 142.872 96.4165 143.224 96.1765 143.688C95.9365 144.152 95.8165 144.704 95.8165 145.344V153H93.1285V145.344C93.1285 144.688 93.0085 144.136 92.7685 143.688C92.5445 143.224 92.2245 142.872 91.8085 142.632C91.4085 142.376 90.9285 142.248 90.3685 142.248C89.8245 142.248 89.3445 142.376 88.9285 142.632C88.5125 142.872 88.1845 143.224 87.9445 143.688C87.7205 144.152 87.6085 144.704 87.6085 145.344V153H84.8965ZM113.047 153.288C111.751 153.288 110.599 152.992 109.591 152.4C108.599 151.792 107.823 150.976 107.263 149.952C106.703 148.912 106.423 147.752 106.423 146.472C106.423 145.16 106.703 144 107.263 142.992C107.839 141.984 108.607 141.192 109.567 140.616C110.527 140.024 111.615 139.728 112.831 139.728C113.807 139.728 114.679 139.896 115.447 140.232C116.215 140.568 116.863 141.032 117.391 141.624C117.919 142.2 118.319 142.864 118.591 143.616C118.879 144.368 119.023 145.168 119.023 146.016C119.023 146.224 119.015 146.44 118.999 146.664C118.983 146.888 118.951 147.096 118.903 147.288H108.559V145.128H117.367L116.071 146.112C116.231 145.328 116.175 144.632 115.903 144.024C115.647 143.4 115.247 142.912 114.703 142.56C114.175 142.192 113.551 142.008 112.831 142.008C112.111 142.008 111.471 142.192 110.911 142.56C110.351 142.912 109.919 143.424 109.615 144.096C109.311 144.752 109.191 145.552 109.255 146.496C109.175 147.376 109.295 148.144 109.615 148.8C109.951 149.456 110.415 149.968 111.007 150.336C111.615 150.704 112.303 150.888 113.071 150.888C113.855 150.888 114.519 150.712 115.063 150.36C115.623 150.008 116.063 149.552 116.383 148.992L118.591 150.072C118.335 150.68 117.935 151.232 117.391 151.728C116.863 152.208 116.223 152.592 115.471 152.88C114.735 153.152 113.927 153.288 113.047 153.288ZM25.264 182L31.552 164.12H35.056L41.344 182H38.32L36.952 177.992H29.68L28.288 182H25.264ZM30.496 175.472H36.088L32.92 166.112H33.712L30.496 175.472ZM48.9004 182.288C47.6044 182.288 46.4524 181.992 45.4444 181.4C44.4524 180.792 43.6604 179.976 43.0684 178.952C42.4924 177.928 42.2044 176.768 42.2044 175.472C42.2044 174.192 42.4924 173.04 43.0684 172.016C43.6444 170.992 44.4364 170.192 45.4444 169.616C46.4524 169.024 47.6044 168.728 48.9004 168.728C49.7804 168.728 50.6044 168.888 51.3724 169.208C52.1404 169.512 52.8044 169.936 53.3644 170.48C53.9404 171.024 54.3644 171.656 54.6364 172.376L52.2604 173.48C51.9884 172.808 51.5484 172.272 50.9404 171.872C50.3484 171.456 49.6684 171.248 48.9004 171.248C48.1644 171.248 47.5004 171.432 46.9084 171.8C46.3324 172.152 45.8764 172.656 45.5404 173.312C45.2044 173.952 45.0364 174.68 45.0364 175.496C45.0364 176.312 45.2044 177.048 45.5404 177.704C45.8764 178.344 46.3324 178.848 46.9084 179.216C47.5004 179.584 48.1644 179.768 48.9004 179.768C49.6844 179.768 50.3644 179.568 50.9404 179.168C51.5324 178.752 51.9724 178.2 52.2604 177.512L54.6364 178.64C54.3804 179.328 53.9644 179.952 53.3884 180.512C52.8284 181.056 52.1644 181.488 51.3964 181.808C50.6284 182.128 49.7964 182.288 48.9004 182.288ZM63.4551 182.288C62.1591 182.288 61.0071 181.992 59.9991 181.4C59.0071 180.792 58.2151 179.976 57.6231 178.952C57.0471 177.928 56.7591 176.768 56.7591 175.472C56.7591 174.192 57.0471 173.04 57.6231 172.016C58.1991 170.992 58.9911 170.192 59.9991 169.616C61.0071 169.024 62.1591 168.728 63.4551 168.728C64.3351 168.728 65.1591 168.888 65.9271 169.208C66.6951 169.512 67.3591 169.936 67.9191 170.48C68.4951 171.024 68.9191 171.656 69.1911 172.376L66.8151 173.48C66.5431 172.808 66.1031 172.272 65.4951 171.872C64.9031 171.456 64.2231 171.248 63.4551 171.248C62.7191 171.248 62.0551 171.432 61.4631 171.8C60.8871 172.152 60.4311 172.656 60.0951 173.312C59.7591 173.952 59.5911 174.68 59.5911 175.496C59.5911 176.312 59.7591 177.048 60.0951 177.704C60.4311 178.344 60.8871 178.848 61.4631 179.216C62.0551 179.584 62.7191 179.768 63.4551 179.768C64.2391 179.768 64.9191 179.568 65.4951 179.168C66.0871 178.752 66.5271 178.2 66.8151 177.512L69.1911 178.64C68.9351 179.328 68.5191 179.952 67.9431 180.512C67.3831 181.056 66.7191 181.488 65.9511 181.808C65.1831 182.128 64.3511 182.288 63.4551 182.288ZM77.9378 182.288C76.6418 182.288 75.4898 181.992 74.4818 181.4C73.4898 180.792 72.7138 179.976 72.1538 178.952C71.5938 177.912 71.3138 176.752 71.3138 175.472C71.3138 174.16 71.5938 173 72.1538 171.992C72.7298 170.984 73.4978 170.192 74.4578 169.616C75.4178 169.024 76.5058 168.728 77.7218 168.728C78.6978 168.728 79.5698 168.896 80.3378 169.232C81.1058 169.568 81.7538 170.032 82.2818 170.624C82.8098 171.2 83.2098 171.864 83.4818 172.616C83.7698 173.368 83.9138 174.168 83.9138 175.016C83.9138 175.224 83.9058 175.44 83.8898 175.664C83.8738 175.888 83.8418 176.096 83.7938 176.288H73.4498V174.128H82.2578L80.9618 175.112C81.1218 174.328 81.0658 173.632 80.7938 173.024C80.5378 172.4 80.1378 171.912 79.5938 171.56C79.0658 171.192 78.4418 171.008 77.7218 171.008C77.0018 171.008 76.3618 171.192 75.8018 171.56C75.2418 171.912 74.8098 172.424 74.5058 173.096C74.2018 173.752 74.0818 174.552 74.1458 175.496C74.0658 176.376 74.1858 177.144 74.5058 177.8C74.8418 178.456 75.3058 178.968 75.8978 179.336C76.5058 179.704 77.1938 179.888 77.9618 179.888C78.7458 179.888 79.4098 179.712 79.9538 179.36C80.5138 179.008 80.9538 178.552 81.2738 177.992L83.4818 179.072C83.2258 179.68 82.8258 180.232 82.2818 180.728C81.7538 181.208 81.1138 181.592 80.3618 181.88C79.6258 182.152 78.8178 182.288 77.9378 182.288ZM91.3606 182.288C90.0326 182.288 88.8646 181.96 87.8566 181.304C86.8646 180.648 86.1686 179.768 85.7686 178.664L87.8566 177.68C88.2086 178.416 88.6886 179 89.2966 179.432C89.9206 179.864 90.6086 180.08 91.3606 180.08C92.0006 180.08 92.5206 179.936 92.9206 179.648C93.3206 179.36 93.5206 178.968 93.5206 178.472C93.5206 178.152 93.4326 177.896 93.2566 177.704C93.0806 177.496 92.8566 177.328 92.5846 177.2C92.3286 177.072 92.0646 176.976 91.7926 176.912L89.7526 176.336C88.6326 176.016 87.7926 175.536 87.2326 174.896C86.6886 174.24 86.4166 173.48 86.4166 172.616C86.4166 171.832 86.6166 171.152 87.0166 170.576C87.4166 169.984 87.9686 169.528 88.6726 169.208C89.3766 168.888 90.1686 168.728 91.0486 168.728C92.2326 168.728 93.2886 169.024 94.2166 169.616C95.1446 170.192 95.8006 171 96.1846 172.04L94.0966 173.024C93.8406 172.4 93.4326 171.904 92.8726 171.536C92.3286 171.168 91.7126 170.984 91.0246 170.984C90.4326 170.984 89.9606 171.128 89.6086 171.416C89.2566 171.688 89.0806 172.048 89.0806 172.496C89.0806 172.8 89.1606 173.056 89.3206 173.264C89.4806 173.456 89.6886 173.616 89.9446 173.744C90.2006 173.856 90.4646 173.952 90.7366 174.032L92.8486 174.656C93.9206 174.96 94.7446 175.44 95.3206 176.096C95.8966 176.736 96.1846 177.504 96.1846 178.4C96.1846 179.168 95.9766 179.848 95.5606 180.44C95.1606 181.016 94.6006 181.472 93.8806 181.808C93.1606 182.128 92.3206 182.288 91.3606 182.288ZM103.642 182.288C102.314 182.288 101.146 181.96 100.138 181.304C99.1458 180.648 98.4498 179.768 98.0498 178.664L100.138 177.68C100.49 178.416 100.97 179 101.578 179.432C102.202 179.864 102.89 180.08 103.642 180.08C104.282 180.08 104.802 179.936 105.202 179.648C105.602 179.36 105.802 178.968 105.802 178.472C105.802 178.152 105.714 177.896 105.538 177.704C105.362 177.496 105.138 177.328 104.866 177.2C104.61 177.072 104.346 176.976 104.074 176.912L102.034 176.336C100.914 176.016 100.074 175.536 99.5138 174.896C98.9698 174.24 98.6978 173.48 98.6978 172.616C98.6978 171.832 98.8978 171.152 99.2978 170.576C99.6978 169.984 100.25 169.528 100.954 169.208C101.658 168.888 102.45 168.728 103.33 168.728C104.514 168.728 105.57 169.024 106.498 169.616C107.426 170.192 108.082 171 108.466 172.04L106.378 173.024C106.122 172.4 105.714 171.904 105.154 171.536C104.61 171.168 103.994 170.984 103.306 170.984C102.714 170.984 102.242 171.128 101.89 171.416C101.538 171.688 101.362 172.048 101.362 172.496C101.362 172.8 101.442 173.056 101.602 173.264C101.762 173.456 101.97 173.616 102.226 173.744C102.482 173.856 102.746 173.952 103.018 174.032L105.13 174.656C106.202 174.96 107.026 175.44 107.602 176.096C108.178 176.736 108.466 177.504 108.466 178.4C108.466 179.168 108.258 179.848 107.842 180.44C107.442 181.016 106.882 181.472 106.162 181.808C105.442 182.128 104.602 182.288 103.642 182.288Z" fill="#0061B1"/>
<path opacity="0.7" d="M26.321 230V219.091H32.9048V220.263H27.642V223.949H32.5639V225.121H27.642V228.828H32.9901V230H26.321ZM35.4154 230V221.818H36.6299V223.097H36.7364C36.9069 222.66 37.1821 222.321 37.5621 222.079C37.942 221.834 38.3984 221.712 38.931 221.712C39.4708 221.712 39.92 221.834 40.2787 222.079C40.6409 222.321 40.9232 222.66 41.1256 223.097H41.2109C41.4204 222.674 41.7347 222.338 42.1537 222.09C42.5727 221.838 43.0752 221.712 43.6612 221.712C44.3927 221.712 44.9911 221.941 45.4563 222.399C45.9214 222.853 46.154 223.562 46.154 224.524V230H44.8969V224.524C44.8969 223.92 44.7318 223.489 44.4016 223.23C44.0713 222.971 43.6825 222.841 43.235 222.841C42.6597 222.841 42.2141 223.015 41.898 223.363C41.582 223.707 41.4239 224.144 41.4239 224.673V230H40.1455V224.396C40.1455 223.931 39.9946 223.556 39.6928 223.272C39.3909 222.985 39.0021 222.841 38.5262 222.841C38.1995 222.841 37.8941 222.928 37.61 223.102C37.3295 223.276 37.1022 223.517 36.9282 223.826C36.7577 224.132 36.6725 224.485 36.6725 224.886V230H35.4154ZM48.7525 233.068V221.818H49.967V223.118H50.1162C50.2085 222.976 50.3363 222.795 50.4997 222.575C50.6666 222.351 50.9045 222.152 51.2135 221.978C51.526 221.8 51.9485 221.712 52.4812 221.712C53.1701 221.712 53.7774 221.884 54.3029 222.228C54.8285 222.573 55.2387 223.061 55.5334 223.693C55.8282 224.325 55.9755 225.071 55.9755 225.93C55.9755 226.797 55.8282 227.548 55.5334 228.184C55.2387 228.816 54.8303 229.306 54.3083 229.654C53.7863 229.998 53.1843 230.17 52.5025 230.17C51.977 230.17 51.5561 230.083 51.2401 229.909C50.924 229.732 50.6808 229.531 50.5103 229.308C50.3399 229.08 50.2085 228.892 50.1162 228.743H50.0096V233.068H48.7525ZM49.9883 225.909C49.9883 226.527 50.0789 227.072 50.26 227.544C50.4411 228.013 50.7056 228.381 51.0537 228.647C51.4017 228.91 51.8278 229.041 52.3321 229.041C52.8576 229.041 53.2962 228.903 53.6478 228.626C54.0029 228.345 54.2692 227.969 54.4468 227.496C54.6279 227.021 54.7184 226.491 54.7184 225.909C54.7184 225.334 54.6297 224.815 54.4521 224.354C54.2781 223.888 54.0135 223.521 53.6584 223.251C53.3069 222.978 52.8647 222.841 52.3321 222.841C51.8207 222.841 51.391 222.971 51.043 223.23C50.695 223.485 50.4322 223.844 50.2547 224.306C50.0771 224.764 49.9883 225.298 49.9883 225.909ZM61.517 230.17C60.7784 230.17 60.1303 229.995 59.5728 229.643C59.0188 229.292 58.5855 228.8 58.273 228.168C57.9641 227.536 57.8096 226.797 57.8096 225.952C57.8096 225.099 57.9641 224.355 58.273 223.72C58.5855 223.084 59.0188 222.591 59.5728 222.239C60.1303 221.887 60.7784 221.712 61.517 221.712C62.2556 221.712 62.902 221.887 63.4559 222.239C64.0135 222.591 64.4467 223.084 64.7556 223.72C65.0681 224.355 65.2244 225.099 65.2244 225.952C65.2244 226.797 65.0681 227.536 64.7556 228.168C64.4467 228.8 64.0135 229.292 63.4559 229.643C62.902 229.995 62.2556 230.17 61.517 230.17ZM61.517 229.041C62.0781 229.041 62.5397 228.897 62.902 228.61C63.2642 228.322 63.5323 227.944 63.7063 227.475C63.8803 227.006 63.9673 226.499 63.9673 225.952C63.9673 225.405 63.8803 224.895 63.7063 224.423C63.5323 223.951 63.2642 223.569 62.902 223.278C62.5397 222.987 62.0781 222.841 61.517 222.841C60.9559 222.841 60.4943 222.987 60.1321 223.278C59.7699 223.569 59.5017 223.951 59.3277 224.423C59.1537 224.895 59.0667 225.405 59.0667 225.952C59.0667 226.499 59.1537 227.006 59.3277 227.475C59.5017 227.944 59.7699 228.322 60.1321 228.61C60.4943 228.897 60.9559 229.041 61.517 229.041ZM69.0187 230L66.5258 221.818H67.8468L69.6153 228.082H69.7005L71.4477 221.818H72.79L74.5159 228.061H74.6011L76.3696 221.818H77.6906L75.1977 230H73.9619L72.1721 223.714H72.0443L70.2545 230H69.0187ZM82.8046 230.17C82.0162 230.17 81.3362 229.996 80.7645 229.648C80.1963 229.297 79.7577 228.807 79.4488 228.178C79.1434 227.546 78.9907 226.811 78.9907 225.973C78.9907 225.135 79.1434 224.396 79.4488 223.757C79.7577 223.114 80.1874 222.614 80.7378 222.255C81.2918 221.893 81.9381 221.712 82.6768 221.712C83.1029 221.712 83.5237 221.783 83.9392 221.925C84.3547 222.067 84.7329 222.298 85.0738 222.617C85.4147 222.933 85.6863 223.352 85.8888 223.874C86.0912 224.396 86.1924 225.039 86.1924 225.803V226.335H79.8856V225.249H84.914C84.914 224.787 84.8216 224.375 84.637 224.013C84.4559 223.651 84.1966 223.365 83.8593 223.155C83.5255 222.946 83.1313 222.841 82.6768 222.841C82.176 222.841 81.7428 222.965 81.377 223.214C81.0148 223.459 80.7361 223.778 80.5407 224.173C80.3454 224.567 80.2478 224.989 80.2478 225.44V226.165C80.2478 226.783 80.3543 227.306 80.5674 227.736C80.784 228.162 81.0841 228.487 81.4676 228.711C81.8511 228.931 82.2968 229.041 82.8046 229.041C83.1349 229.041 83.4332 228.995 83.6995 228.903C83.9694 228.807 84.202 228.665 84.3973 228.477C84.5926 228.285 84.7435 228.047 84.8501 227.763L86.0645 228.104C85.9367 228.516 85.7219 228.878 85.42 229.19C85.1182 229.499 84.7453 229.741 84.3014 229.915C83.8575 230.085 83.3586 230.17 82.8046 230.17ZM88.4047 230V221.818H89.6192V223.054H89.7044C89.8535 222.649 90.1234 222.321 90.514 222.069C90.9047 221.816 91.345 221.69 91.8351 221.69C91.9274 221.69 92.0428 221.692 92.1813 221.696C92.3198 221.699 92.4246 221.705 92.4956 221.712V222.99C92.453 222.979 92.3553 222.963 92.2026 222.942C92.0535 222.917 91.8954 222.905 91.7285 222.905C91.3308 222.905 90.9757 222.988 90.6632 223.155C90.3542 223.319 90.1092 223.546 89.9281 223.837C89.7505 224.125 89.6618 224.453 89.6618 224.822V230H88.4047ZM99.6141 233.068C99.4011 233.068 99.2111 233.05 99.0442 233.015C98.8773 232.983 98.7619 232.951 98.6979 232.919L99.0175 231.811C99.3229 231.889 99.5928 231.918 99.8272 231.896C100.062 231.875 100.269 231.77 100.45 231.582C100.635 231.397 100.804 231.097 100.956 230.682L101.191 230.043L98.1653 221.818H99.5289L101.787 228.338H101.873L104.131 221.818H105.495L102.022 231.193C101.866 231.616 101.672 231.966 101.441 232.243C101.21 232.523 100.942 232.731 100.637 232.866C100.335 233.001 99.9941 233.068 99.6141 233.068ZM110.485 230.17C109.746 230.17 109.098 229.995 108.541 229.643C107.987 229.292 107.554 228.8 107.241 228.168C106.932 227.536 106.778 226.797 106.778 225.952C106.778 225.099 106.932 224.355 107.241 223.72C107.554 223.084 107.987 222.591 108.541 222.239C109.098 221.887 109.746 221.712 110.485 221.712C111.224 221.712 111.87 221.887 112.424 222.239C112.981 222.591 113.415 223.084 113.724 223.72C114.036 224.355 114.192 225.099 114.192 225.952C114.192 226.797 114.036 227.536 113.724 228.168C113.415 228.8 112.981 229.292 112.424 229.643C111.87 229.995 111.224 230.17 110.485 230.17ZM110.485 229.041C111.046 229.041 111.508 228.897 111.87 228.61C112.232 228.322 112.5 227.944 112.674 227.475C112.848 227.006 112.935 226.499 112.935 225.952C112.935 225.405 112.848 224.895 112.674 224.423C112.5 223.951 112.232 223.569 111.87 223.278C111.508 222.987 111.046 222.841 110.485 222.841C109.924 222.841 109.462 222.987 109.1 223.278C108.738 223.569 108.47 223.951 108.296 224.423C108.122 224.895 108.035 225.405 108.035 225.952C108.035 226.499 108.122 227.006 108.296 227.475C108.47 227.944 108.738 228.322 109.1 228.61C109.462 228.897 109.924 229.041 110.485 229.041ZM121.568 226.655V221.818H122.825V230H121.568V228.615H121.482C121.291 229.031 120.992 229.384 120.587 229.675C120.183 229.963 119.671 230.107 119.053 230.107C118.542 230.107 118.087 229.995 117.69 229.771C117.292 229.544 116.979 229.203 116.752 228.748C116.525 228.29 116.411 227.713 116.411 227.017V221.818H117.668V226.932C117.668 227.528 117.835 228.004 118.169 228.359C118.506 228.714 118.936 228.892 119.458 228.892C119.771 228.892 120.089 228.812 120.412 228.652C120.738 228.493 121.012 228.248 121.232 227.917C121.456 227.587 121.568 227.166 121.568 226.655ZM125.427 230V221.818H126.642V223.054H126.727C126.876 222.649 127.146 222.321 127.537 222.069C127.927 221.816 128.367 221.69 128.858 221.69C128.95 221.69 129.065 221.692 129.204 221.696C129.342 221.699 129.447 221.705 129.518 221.712V222.99C129.475 222.979 129.378 222.963 129.225 222.942C129.076 222.917 128.918 222.905 128.751 222.905C128.353 222.905 127.998 222.988 127.686 223.155C127.377 223.319 127.132 223.546 126.951 223.837C126.773 224.125 126.684 224.453 126.684 224.822V230H125.427ZM137.104 223.651L135.974 223.97C135.903 223.782 135.799 223.599 135.66 223.422C135.525 223.24 135.34 223.091 135.106 222.974C134.872 222.857 134.572 222.798 134.206 222.798C133.705 222.798 133.288 222.914 132.954 223.145C132.624 223.372 132.459 223.661 132.459 224.013C132.459 224.325 132.572 224.572 132.8 224.753C133.027 224.934 133.382 225.085 133.865 225.206L135.079 225.504C135.811 225.682 136.356 225.953 136.715 226.319C137.073 226.681 137.253 227.148 137.253 227.72C137.253 228.189 137.118 228.608 136.848 228.977C136.582 229.347 136.209 229.638 135.729 229.851C135.25 230.064 134.692 230.17 134.057 230.17C133.222 230.17 132.532 229.989 131.985 229.627C131.438 229.265 131.092 228.736 130.946 228.04L132.139 227.741C132.253 228.182 132.468 228.512 132.784 228.732C133.103 228.952 133.521 229.062 134.035 229.062C134.621 229.062 135.087 228.938 135.431 228.69C135.779 228.437 135.953 228.136 135.953 227.784C135.953 227.5 135.854 227.262 135.655 227.07C135.456 226.875 135.151 226.729 134.739 226.634L133.375 226.314C132.626 226.136 132.075 225.861 131.724 225.488C131.376 225.112 131.202 224.641 131.202 224.077C131.202 223.615 131.331 223.207 131.59 222.852C131.853 222.496 132.21 222.218 132.661 222.015C133.116 221.813 133.631 221.712 134.206 221.712C135.016 221.712 135.651 221.889 136.113 222.244C136.578 222.599 136.908 223.068 137.104 223.651ZM142.875 230.17C142.087 230.17 141.407 229.996 140.835 229.648C140.267 229.297 139.829 228.807 139.52 228.178C139.214 227.546 139.062 226.811 139.062 225.973C139.062 225.135 139.214 224.396 139.52 223.757C139.829 223.114 140.258 222.614 140.809 222.255C141.363 221.893 142.009 221.712 142.748 221.712C143.174 221.712 143.595 221.783 144.01 221.925C144.426 222.067 144.804 222.298 145.145 222.617C145.486 222.933 145.757 223.352 145.96 223.874C146.162 224.396 146.263 225.039 146.263 225.803V226.335H139.956V225.249H144.985C144.985 224.787 144.893 224.375 144.708 224.013C144.527 223.651 144.268 223.365 143.93 223.155C143.596 222.946 143.202 222.841 142.748 222.841C142.247 222.841 141.814 222.965 141.448 223.214C141.086 223.459 140.807 223.778 140.612 224.173C140.416 224.567 140.319 224.989 140.319 225.44V226.165C140.319 226.783 140.425 227.306 140.638 227.736C140.855 228.162 141.155 228.487 141.538 228.711C141.922 228.931 142.368 229.041 142.875 229.041C143.206 229.041 143.504 228.995 143.77 228.903C144.04 228.807 144.273 228.665 144.468 228.477C144.663 228.285 144.814 228.047 144.921 227.763L146.135 228.104C146.008 228.516 145.793 228.878 145.491 229.19C145.189 229.499 144.816 229.741 144.372 229.915C143.928 230.085 143.429 230.17 142.875 230.17ZM149.733 219.091V230H148.476V219.091H149.733ZM155.979 221.818V222.884H151.568V221.818H155.979ZM152.889 230V220.689C152.889 220.22 152.999 219.83 153.219 219.517C153.44 219.205 153.725 218.97 154.077 218.814C154.429 218.658 154.8 218.58 155.19 218.58C155.499 218.58 155.751 218.604 155.947 218.654C156.142 218.704 156.288 218.75 156.383 218.793L156.021 219.879C155.957 219.858 155.869 219.831 155.755 219.799C155.645 219.767 155.499 219.751 155.318 219.751C154.903 219.751 154.603 219.856 154.418 220.066C154.237 220.275 154.146 220.582 154.146 220.987V230H152.889ZM28.0043 257L25.5114 248.818H26.8324L28.6009 255.082H28.6861L30.4332 248.818H31.7756L33.5014 255.061H33.5866L35.3551 248.818H36.6761L34.1832 257H32.9474L31.1577 250.714H31.0298L29.2401 257H28.0043ZM38.6381 257V248.818H39.8952V257H38.6381ZM39.2773 247.455C39.0322 247.455 38.821 247.371 38.6434 247.204C38.4694 247.037 38.3824 246.837 38.3824 246.602C38.3824 246.368 38.4694 246.167 38.6434 246C38.821 245.833 39.0322 245.75 39.2773 245.75C39.5223 245.75 39.7318 245.833 39.9058 246C40.0834 246.167 40.1722 246.368 40.1722 246.602C40.1722 246.837 40.0834 247.037 39.9058 247.204C39.7318 247.371 39.5223 247.455 39.2773 247.455ZM46.0559 248.818V249.884H41.8158V248.818H46.0559ZM43.0516 246.858H44.3087V254.656C44.3087 255.011 44.3602 255.278 44.4632 255.455C44.5697 255.629 44.7047 255.746 44.868 255.807C45.0349 255.864 45.2107 255.892 45.3954 255.892C45.5339 255.892 45.6475 255.885 45.7363 255.871C45.8251 255.853 45.8961 255.839 45.9493 255.828L46.205 256.957C46.1198 256.989 46.0008 257.021 45.8481 257.053C45.6954 257.089 45.5019 257.107 45.2675 257.107C44.9124 257.107 44.5644 257.03 44.2235 256.877C43.8861 256.725 43.6056 256.492 43.3819 256.18C43.1617 255.867 43.0516 255.473 43.0516 254.997V246.858ZM49.6797 252.078V257H48.4226V246.091H49.6797V250.097H49.7863C49.978 249.674 50.2657 249.338 50.6492 249.09C51.0363 248.838 51.5512 248.712 52.1939 248.712C52.7515 248.712 53.2398 248.824 53.6588 249.047C54.0778 249.267 54.4028 249.607 54.6336 250.065C54.868 250.519 54.9851 251.098 54.9851 251.801V257H53.728V251.886C53.728 251.237 53.5594 250.734 53.222 250.379C52.8882 250.02 52.4248 249.841 51.8317 249.841C51.4198 249.841 51.0505 249.928 50.7238 250.102C50.4006 250.276 50.1449 250.53 49.9567 250.864C49.7721 251.197 49.6797 251.602 49.6797 252.078ZM65.6619 248.818V249.884H61.4219V248.818H65.6619ZM62.6577 246.858H63.9148V254.656C63.9148 255.011 63.9663 255.278 64.0692 255.455C64.1758 255.629 64.3107 255.746 64.4741 255.807C64.641 255.864 64.8168 255.892 65.0014 255.892C65.1399 255.892 65.2536 255.885 65.3423 255.871C65.4311 255.853 65.5021 255.839 65.5554 255.828L65.8111 256.957C65.7259 256.989 65.6069 257.021 65.4542 257.053C65.3015 257.089 65.108 257.107 64.8736 257.107C64.5185 257.107 64.1705 257.03 63.8295 256.877C63.4922 256.725 63.2116 256.492 62.9879 256.18C62.7678 255.867 62.6577 255.473 62.6577 254.997V246.858ZM69.2858 252.078V257H68.0287V246.091H69.2858V250.097H69.3923C69.5841 249.674 69.8717 249.338 70.2553 249.09C70.6423 248.838 71.1572 248.712 71.8 248.712C72.3575 248.712 72.8458 248.824 73.2648 249.047C73.6839 249.267 74.0088 249.607 74.2396 250.065C74.474 250.519 74.5912 251.098 74.5912 251.801V257H73.3341V251.886C73.3341 251.237 73.1654 250.734 72.8281 250.379C72.4942 250.02 72.0308 249.841 71.4378 249.841C71.0259 249.841 70.6565 249.928 70.3298 250.102C70.0067 250.276 69.751 250.53 69.5628 250.864C69.3781 251.197 69.2858 251.602 69.2858 252.078ZM80.6214 257.17C79.833 257.17 79.153 256.996 78.5813 256.648C78.0131 256.297 77.5745 255.807 77.2656 255.178C76.9602 254.546 76.8075 253.811 76.8075 252.973C76.8075 252.135 76.9602 251.396 77.2656 250.757C77.5745 250.114 78.0042 249.614 78.5546 249.255C79.1086 248.893 79.7549 248.712 80.4936 248.712C80.9197 248.712 81.3405 248.783 81.756 248.925C82.1715 249.067 82.5497 249.298 82.8906 249.617C83.2315 249.933 83.5031 250.352 83.7056 250.874C83.908 251.396 84.0092 252.039 84.0092 252.803V253.335H77.7024V252.249H82.7308C82.7308 251.787 82.6384 251.375 82.4538 251.013C82.2727 250.651 82.0134 250.365 81.6761 250.155C81.3423 249.946 80.9481 249.841 80.4936 249.841C79.9928 249.841 79.5596 249.965 79.1938 250.214C78.8316 250.459 78.5529 250.778 78.3575 251.173C78.1622 251.567 78.0646 251.989 78.0646 252.44V253.165C78.0646 253.783 78.1711 254.306 78.3842 254.736C78.6008 255.162 78.9009 255.487 79.2844 255.711C79.6679 255.931 80.1136 256.041 80.6214 256.041C80.9517 256.041 81.2499 255.995 81.5163 255.903C81.7862 255.807 82.0188 255.665 82.2141 255.477C82.4094 255.285 82.5603 255.047 82.6668 254.763L83.8813 255.104C83.7535 255.516 83.5387 255.878 83.2368 256.19C82.935 256.499 82.5621 256.741 82.1182 256.915C81.6743 257.085 81.1754 257.17 80.6214 257.17ZM27.3224 281.017L27.3011 279.462H27.5568L31.1364 275.818H32.6918L28.8778 279.675H28.7713L27.3224 281.017ZM26.1506 284V273.091H27.4077V284H26.1506ZM31.3494 284L28.1534 279.952L29.0483 279.078L32.9474 284H31.3494ZM35.8669 279.078V284H34.6097V275.818H35.8242V277.097H35.9308C36.1225 276.681 36.4137 276.347 36.8044 276.095C37.195 275.839 37.6992 275.712 38.3171 275.712C38.8711 275.712 39.3558 275.825 39.7713 276.053C40.1868 276.276 40.51 276.617 40.7408 277.075C40.9716 277.53 41.087 278.105 41.087 278.801V284H39.8299V278.886C39.8299 278.244 39.663 277.743 39.3292 277.384C38.9954 277.022 38.5373 276.841 37.9549 276.841C37.5536 276.841 37.195 276.928 36.8789 277.102C36.5664 277.276 36.3196 277.53 36.1385 277.864C35.9574 278.197 35.8669 278.602 35.8669 279.078ZM47.008 284.17C46.2694 284.17 45.6213 283.995 45.0638 283.643C44.5098 283.292 44.0766 282.8 43.7641 282.168C43.4551 281.536 43.3006 280.797 43.3006 279.952C43.3006 279.099 43.4551 278.355 43.7641 277.72C44.0766 277.084 44.5098 276.591 45.0638 276.239C45.6213 275.887 46.2694 275.712 47.008 275.712C47.7467 275.712 48.393 275.887 48.9469 276.239C49.5045 276.591 49.9377 277.084 50.2467 277.72C50.5592 278.355 50.7154 279.099 50.7154 279.952C50.7154 280.797 50.5592 281.536 50.2467 282.168C49.9377 282.8 49.5045 283.292 48.9469 283.643C48.393 283.995 47.7467 284.17 47.008 284.17ZM47.008 283.041C47.5691 283.041 48.0308 282.897 48.393 282.61C48.7552 282.322 49.0233 281.944 49.1973 281.475C49.3713 281.006 49.4583 280.499 49.4583 279.952C49.4583 279.405 49.3713 278.895 49.1973 278.423C49.0233 277.951 48.7552 277.569 48.393 277.278C48.0308 276.987 47.5691 276.841 47.008 276.841C46.4469 276.841 45.9853 276.987 45.6231 277.278C45.2609 277.569 44.9928 277.951 44.8188 278.423C44.6447 278.895 44.5577 279.405 44.5577 279.952C44.5577 280.499 44.6447 281.006 44.8188 281.475C44.9928 281.944 45.2609 282.322 45.6231 282.61C45.9853 282.897 46.4469 283.041 47.008 283.041ZM54.5097 284L52.0168 275.818H53.3379L55.1063 282.082H55.1915L56.9387 275.818H58.281L60.0069 282.061H60.0921L61.8606 275.818H63.1816L60.6887 284H59.4529L57.6631 277.714H57.5353L55.7455 284H54.5097ZM66.4006 273.091V284H65.1435V273.091H66.4006ZM72.4335 284.17C71.6452 284.17 70.9651 283.996 70.3934 283.648C69.8252 283.297 69.3866 282.807 69.0777 282.178C68.7723 281.546 68.6196 280.811 68.6196 279.973C68.6196 279.135 68.7723 278.396 69.0777 277.757C69.3866 277.114 69.8163 276.614 70.3667 276.255C70.9207 275.893 71.567 275.712 72.3057 275.712C72.7318 275.712 73.1526 275.783 73.5681 275.925C73.9836 276.067 74.3618 276.298 74.7027 276.617C75.0436 276.933 75.3153 277.352 75.5177 277.874C75.7201 278.396 75.8213 279.039 75.8213 279.803V280.335H69.5145V279.249H74.5429C74.5429 278.787 74.4506 278.375 74.2659 278.013C74.0848 277.651 73.8256 277.365 73.4882 277.155C73.1544 276.946 72.7602 276.841 72.3057 276.841C71.805 276.841 71.3717 276.965 71.0059 277.214C70.6437 277.459 70.365 277.778 70.1697 278.173C69.9743 278.567 69.8767 278.989 69.8767 279.44V280.165C69.8767 280.783 69.9832 281.306 70.1963 281.736C70.4129 282.162 70.713 282.487 71.0965 282.711C71.48 282.931 71.9257 283.041 72.4335 283.041C72.7638 283.041 73.0621 282.995 73.3284 282.903C73.5983 282.807 73.8309 282.665 74.0262 282.477C74.2215 282.285 74.3724 282.047 74.479 281.763L75.6934 282.104C75.5656 282.516 75.3508 282.878 75.0489 283.19C74.7471 283.499 74.3742 283.741 73.9303 283.915C73.4864 284.085 72.9875 284.17 72.4335 284.17ZM81.1231 284.17C80.4412 284.17 79.8393 283.998 79.3173 283.654C78.7953 283.306 78.3869 282.816 78.0922 282.184C77.7974 281.548 77.6501 280.797 77.6501 279.93C77.6501 279.071 77.7974 278.325 78.0922 277.693C78.3869 277.061 78.7971 276.573 79.3226 276.228C79.8482 275.884 80.4555 275.712 81.1444 275.712C81.677 275.712 82.0979 275.8 82.4068 275.978C82.7193 276.152 82.9572 276.351 83.1206 276.575C83.2875 276.795 83.4171 276.976 83.5094 277.118H83.616V273.091H84.8731V284H83.6586V282.743H83.5094C83.4171 282.892 83.2857 283.08 83.1153 283.308C82.9448 283.531 82.7015 283.732 82.3855 283.909C82.0694 284.083 81.6486 284.17 81.1231 284.17ZM81.2935 283.041C81.7978 283.041 82.2239 282.91 82.5719 282.647C82.9199 282.381 83.1845 282.013 83.3656 281.544C83.5467 281.072 83.6373 280.527 83.6373 279.909C83.6373 279.298 83.5485 278.764 83.3709 278.306C83.1934 277.844 82.9306 277.485 82.5826 277.23C82.2346 276.971 81.8049 276.841 81.2935 276.841C80.7608 276.841 80.317 276.978 79.9618 277.251C79.6103 277.521 79.3457 277.888 79.1682 278.354C78.9942 278.815 78.9072 279.334 78.9072 279.909C78.9072 280.491 78.9959 281.021 79.1735 281.496C79.3546 281.969 79.6209 282.345 79.9725 282.626C80.3276 282.903 80.768 283.041 81.2935 283.041ZM90.9525 287.239C90.3453 287.239 89.8233 287.161 89.3865 287.004C88.9497 286.852 88.5857 286.649 88.2945 286.397C88.0069 286.148 87.7778 285.882 87.6074 285.598L88.6088 284.895C88.7224 285.044 88.8662 285.214 89.0403 285.406C89.2143 285.602 89.4522 285.77 89.754 285.912C90.0594 286.058 90.4589 286.131 90.9525 286.131C91.613 286.131 92.1581 285.971 92.5878 285.651C93.0175 285.332 93.2324 284.831 93.2324 284.149V282.487H93.1258C93.0335 282.636 92.9021 282.821 92.7317 283.041C92.5648 283.258 92.3233 283.451 92.0072 283.622C91.6947 283.789 91.2721 283.872 90.7395 283.872C90.079 283.872 89.4859 283.716 88.9604 283.403C88.4383 283.091 88.0246 282.636 87.7192 282.04C87.4174 281.443 87.2665 280.719 87.2665 279.866C87.2665 279.028 87.4138 278.299 87.7086 277.677C88.0033 277.052 88.4135 276.569 88.939 276.228C89.4646 275.884 90.0719 275.712 90.7608 275.712C91.2934 275.712 91.716 275.8 92.0285 275.978C92.3446 276.152 92.5861 276.351 92.753 276.575C92.9234 276.795 93.0548 276.976 93.1471 277.118H93.275V275.818H94.4895V284.234C94.4895 284.938 94.3297 285.509 94.0101 285.95C93.694 286.393 93.2679 286.718 92.7317 286.924C92.199 287.134 91.6059 287.239 90.9525 287.239ZM90.9099 282.743C91.4142 282.743 91.8403 282.627 92.1883 282.397C92.5363 282.166 92.8009 281.834 92.982 281.401C93.1631 280.967 93.2537 280.449 93.2537 279.845C93.2537 279.256 93.1649 278.735 92.9873 278.284C92.8098 277.833 92.547 277.48 92.199 277.224C91.851 276.969 91.4213 276.841 90.9099 276.841C90.3773 276.841 89.9334 276.976 89.5782 277.246C89.2267 277.516 88.9621 277.878 88.7846 278.332C88.6106 278.787 88.5236 279.291 88.5236 279.845C88.5236 280.413 88.6123 280.916 88.7899 281.353C88.971 281.786 89.2373 282.127 89.5889 282.375C89.944 282.62 90.3844 282.743 90.9099 282.743ZM100.521 284.17C99.7327 284.17 99.0526 283.996 98.4809 283.648C97.9127 283.297 97.4741 282.807 97.1652 282.178C96.8598 281.546 96.7071 280.811 96.7071 279.973C96.7071 279.135 96.8598 278.396 97.1652 277.757C97.4741 277.114 97.9038 276.614 98.4542 276.255C99.0082 275.893 99.6545 275.712 100.393 275.712C100.819 275.712 101.24 275.783 101.656 275.925C102.071 276.067 102.449 276.298 102.79 276.617C103.131 276.933 103.403 277.352 103.605 277.874C103.808 278.396 103.909 279.039 103.909 279.803V280.335H97.602V279.249H102.63C102.63 278.787 102.538 278.375 102.353 278.013C102.172 277.651 101.913 277.365 101.576 277.155C101.242 276.946 100.848 276.841 100.393 276.841C99.8925 276.841 99.4592 276.965 99.0934 277.214C98.7312 277.459 98.4525 277.778 98.2572 278.173C98.0618 278.567 97.9642 278.989 97.9642 279.44V280.165C97.9642 280.783 98.0707 281.306 98.2838 281.736C98.5004 282.162 98.8005 282.487 99.184 282.711C99.5675 282.931 100.013 283.041 100.521 283.041C100.851 283.041 101.15 282.995 101.416 282.903C101.686 282.807 101.918 282.665 102.114 282.477C102.309 282.285 102.46 282.047 102.566 281.763L103.781 282.104C103.653 282.516 103.438 282.878 103.136 283.19C102.835 283.499 102.462 283.741 102.018 283.915C101.574 284.085 101.075 284.17 100.521 284.17ZM113.047 284.192C112.529 284.192 112.059 284.094 111.636 283.899C111.213 283.7 110.878 283.414 110.629 283.041C110.381 282.665 110.256 282.21 110.256 281.678C110.256 281.209 110.349 280.829 110.533 280.538C110.718 280.243 110.965 280.012 111.274 279.845C111.583 279.678 111.924 279.554 112.296 279.472C112.673 279.387 113.051 279.32 113.431 279.27C113.928 279.206 114.331 279.158 114.64 279.126C114.953 279.091 115.18 279.032 115.322 278.95C115.468 278.869 115.54 278.727 115.54 278.524V278.482C115.54 277.956 115.397 277.548 115.109 277.256C114.825 276.965 114.393 276.82 113.815 276.82C113.214 276.82 112.744 276.951 112.403 277.214C112.062 277.477 111.822 277.757 111.684 278.055L110.491 277.629C110.704 277.132 110.988 276.745 111.343 276.468C111.702 276.187 112.092 275.992 112.515 275.882C112.941 275.768 113.36 275.712 113.772 275.712C114.035 275.712 114.337 275.744 114.677 275.808C115.022 275.868 115.354 275.994 115.674 276.186C115.997 276.377 116.265 276.667 116.478 277.054C116.691 277.441 116.797 277.96 116.797 278.609V284H115.54V282.892H115.476C115.391 283.07 115.249 283.26 115.05 283.462C114.851 283.664 114.587 283.837 114.257 283.979C113.926 284.121 113.523 284.192 113.047 284.192ZM113.239 283.062C113.736 283.062 114.155 282.965 114.496 282.77C114.841 282.574 115.1 282.322 115.274 282.013C115.452 281.704 115.54 281.379 115.54 281.038V279.888C115.487 279.952 115.37 280.01 115.189 280.064C115.011 280.113 114.805 280.158 114.571 280.197C114.34 280.232 114.115 280.264 113.894 280.293C113.678 280.317 113.502 280.339 113.367 280.357C113.04 280.399 112.735 280.468 112.451 280.564C112.17 280.657 111.943 280.797 111.769 280.985C111.599 281.17 111.513 281.422 111.513 281.741C111.513 282.178 111.675 282.509 111.998 282.732C112.325 282.952 112.739 283.062 113.239 283.062ZM120.649 279.078V284H119.392V275.818H120.606V277.097H120.713C120.905 276.681 121.196 276.347 121.587 276.095C121.977 275.839 122.481 275.712 123.099 275.712C123.653 275.712 124.138 275.825 124.554 276.053C124.969 276.276 125.292 276.617 125.523 277.075C125.754 277.53 125.869 278.105 125.869 278.801V284H124.612V278.886C124.612 278.244 124.445 277.743 124.111 277.384C123.778 277.022 123.32 276.841 122.737 276.841C122.336 276.841 121.977 276.928 121.661 277.102C121.349 277.276 121.102 277.53 120.921 277.864C120.74 278.197 120.649 278.602 120.649 279.078ZM131.556 284.17C130.874 284.17 130.272 283.998 129.75 283.654C129.228 283.306 128.82 282.816 128.525 282.184C128.23 281.548 128.083 280.797 128.083 279.93C128.083 279.071 128.23 278.325 128.525 277.693C128.82 277.061 129.23 276.573 129.755 276.228C130.281 275.884 130.888 275.712 131.577 275.712C132.11 275.712 132.531 275.8 132.84 275.978C133.152 276.152 133.39 276.351 133.553 276.575C133.72 276.795 133.85 276.976 133.942 277.118H134.049V273.091H135.306V284H134.091V282.743H133.942C133.85 282.892 133.719 283.08 133.548 283.308C133.378 283.531 133.134 283.732 132.818 283.909C132.502 284.083 132.081 284.17 131.556 284.17ZM131.726 283.041C132.231 283.041 132.657 282.91 133.005 282.647C133.353 282.381 133.617 282.013 133.798 281.544C133.98 281.072 134.07 280.527 134.07 279.909C134.07 279.298 133.981 278.764 133.804 278.306C133.626 277.844 133.363 277.485 133.015 277.23C132.667 276.971 132.238 276.841 131.726 276.841C131.194 276.841 130.75 276.978 130.395 277.251C130.043 277.521 129.779 277.888 129.601 278.354C129.427 278.815 129.34 279.334 129.34 279.909C129.34 280.491 129.429 281.021 129.606 281.496C129.787 281.969 130.054 282.345 130.405 282.626C130.76 282.903 131.201 283.041 131.726 283.041ZM31.946 304.651L30.8168 304.97C30.7457 304.782 30.641 304.599 30.5025 304.422C30.3675 304.24 30.1829 304.091 29.9485 303.974C29.7141 303.857 29.4141 303.798 29.0483 303.798C28.5476 303.798 28.1303 303.914 27.7965 304.145C27.4663 304.372 27.3011 304.661 27.3011 305.013C27.3011 305.325 27.4148 305.572 27.642 305.753C27.8693 305.934 28.2244 306.085 28.7074 306.206L29.9219 306.504C30.6534 306.682 31.1985 306.953 31.5572 307.319C31.9158 307.681 32.0952 308.148 32.0952 308.72C32.0952 309.189 31.9602 309.608 31.6903 309.977C31.424 310.347 31.0511 310.638 30.5717 310.851C30.0923 311.064 29.5348 311.17 28.8991 311.17C28.0646 311.17 27.3739 310.989 26.8271 310.627C26.2802 310.265 25.9339 309.736 25.7884 309.04L26.9815 308.741C27.0952 309.182 27.31 309.512 27.6261 309.732C27.9457 309.952 28.3629 310.062 28.8778 310.062C29.4638 310.062 29.929 309.938 30.2734 309.69C30.6214 309.437 30.7955 309.136 30.7955 308.784C30.7955 308.5 30.696 308.262 30.4972 308.07C30.2983 307.875 29.9929 307.729 29.581 307.634L28.2173 307.314C27.468 307.136 26.9176 306.861 26.5661 306.488C26.218 306.112 26.044 305.641 26.044 305.077C26.044 304.615 26.1737 304.207 26.4329 303.852C26.6957 303.496 27.0526 303.218 27.5036 303.015C27.9581 302.813 28.473 302.712 29.0483 302.712C29.858 302.712 30.4936 302.889 30.9553 303.244C31.4205 303.599 31.7507 304.068 31.946 304.651ZM35.4594 308.017L35.4381 306.462H35.6937L39.2733 302.818H40.8287L37.0148 306.675H36.9082L35.4594 308.017ZM34.2875 311V300.091H35.5446V311H34.2875ZM39.4863 311L36.2903 306.952L37.1852 306.078L41.0844 311H39.4863ZM42.7467 311V302.818H44.0038V311H42.7467ZM43.3859 301.455C43.1408 301.455 42.9295 301.371 42.752 301.204C42.578 301.037 42.491 300.837 42.491 300.602C42.491 300.368 42.578 300.167 42.752 300C42.9295 299.833 43.1408 299.75 43.3859 299.75C43.6309 299.75 43.8404 299.833 44.0144 300C44.192 300.167 44.2808 300.368 44.2808 300.602C44.2808 300.837 44.192 301.037 44.0144 301.204C43.8404 301.371 43.6309 301.455 43.3859 301.455ZM47.8633 300.091V311H46.6062V300.091H47.8633ZM51.7229 300.091V311H50.4658V300.091H51.7229ZM60.1208 304.651L58.9916 304.97C58.9205 304.782 58.8158 304.599 58.6773 304.422C58.5423 304.24 58.3577 304.091 58.1233 303.974C57.8889 303.857 57.5889 303.798 57.2231 303.798C56.7224 303.798 56.3051 303.914 55.9713 304.145C55.6411 304.372 55.4759 304.661 55.4759 305.013C55.4759 305.325 55.5896 305.572 55.8169 305.753C56.0441 305.934 56.3992 306.085 56.8822 306.206L58.0967 306.504C58.8282 306.682 59.3733 306.953 59.732 307.319C60.0906 307.681 60.27 308.148 60.27 308.72C60.27 309.189 60.135 309.608 59.8651 309.977C59.5988 310.347 59.2259 310.638 58.7465 310.851C58.2671 311.064 57.7096 311.17 57.074 311.17C56.2394 311.17 55.5487 310.989 55.0019 310.627C54.455 310.265 54.1088 309.736 53.9632 309.04L55.1563 308.741C55.27 309.182 55.4848 309.512 55.8009 309.732C56.1205 309.952 56.5377 310.062 57.0526 310.062C57.6386 310.062 58.1038 309.938 58.4482 309.69C58.7963 309.437 58.9703 309.136 58.9703 308.784C58.9703 308.5 58.8708 308.262 58.672 308.07C58.4731 307.875 58.1677 307.729 57.7558 307.634L56.3921 307.314C55.6428 307.136 55.0924 306.861 54.7409 306.488C54.3928 306.112 54.2188 305.641 54.2188 305.077C54.2188 304.615 54.3485 304.207 54.6077 303.852C54.8705 303.496 55.2274 303.218 55.6784 303.015C56.1329 302.813 56.6478 302.712 57.2231 302.712C58.0328 302.712 58.6684 302.889 59.1301 303.244C59.5953 303.599 59.9255 304.068 60.1208 304.651ZM70.2836 314.239C69.6763 314.239 69.1543 314.161 68.7175 314.004C68.2808 313.852 67.9168 313.649 67.6256 313.397C67.3379 313.148 67.1089 312.882 66.9384 312.598L67.9398 311.895C68.0535 312.044 68.1973 312.214 68.3713 312.406C68.5453 312.602 68.7832 312.77 69.0851 312.912C69.3905 313.058 69.79 313.131 70.2836 313.131C70.9441 313.131 71.4892 312.971 71.9189 312.651C72.3486 312.332 72.5634 311.831 72.5634 311.149V309.487H72.4569C72.3646 309.636 72.2332 309.821 72.0627 310.041C71.8958 310.258 71.6543 310.451 71.3383 310.622C71.0258 310.789 70.6032 310.872 70.0705 310.872C69.41 310.872 68.817 310.716 68.2914 310.403C67.7694 310.091 67.3557 309.636 67.0503 309.04C66.7484 308.443 66.5975 307.719 66.5975 306.866C66.5975 306.028 66.7449 305.299 67.0396 304.677C67.3344 304.052 67.7445 303.569 68.2701 303.228C68.7957 302.884 69.4029 302.712 70.0918 302.712C70.6245 302.712 71.0471 302.8 71.3596 302.978C71.6756 303.152 71.9171 303.351 72.084 303.575C72.2545 303.795 72.3859 303.976 72.4782 304.118H72.606V302.818H73.8205V311.234C73.8205 311.938 73.6607 312.509 73.3411 312.95C73.0251 313.393 72.5989 313.718 72.0627 313.924C71.53 314.134 70.937 314.239 70.2836 314.239ZM70.241 309.743C70.7452 309.743 71.1714 309.627 71.5194 309.397C71.8674 309.166 72.132 308.834 72.3131 308.401C72.4942 307.967 72.5847 307.449 72.5847 306.845C72.5847 306.256 72.496 305.735 72.3184 305.284C72.1408 304.833 71.8781 304.48 71.53 304.224C71.182 303.969 70.7523 303.841 70.241 303.841C69.7083 303.841 69.2644 303.976 68.9093 304.246C68.5577 304.516 68.2932 304.878 68.1156 305.332C67.9416 305.787 67.8546 306.291 67.8546 306.845C67.8546 307.413 67.9434 307.916 68.121 308.353C68.3021 308.786 68.5684 309.127 68.92 309.375C69.2751 309.62 69.7154 309.743 70.241 309.743ZM78.8293 311.192C78.3109 311.192 77.8403 311.094 77.4178 310.899C76.9952 310.7 76.6596 310.414 76.411 310.041C76.1624 309.665 76.0381 309.21 76.0381 308.678C76.0381 308.209 76.1305 307.829 76.3151 307.538C76.4998 307.243 76.7466 307.012 77.0555 306.845C77.3645 306.678 77.7054 306.554 78.0783 306.472C78.4547 306.387 78.8329 306.32 79.2129 306.27C79.71 306.206 80.1131 306.158 80.422 306.126C80.7345 306.091 80.9618 306.032 81.1038 305.95C81.2494 305.869 81.3222 305.727 81.3222 305.524V305.482C81.3222 304.956 81.1784 304.548 80.8908 304.256C80.6067 303.965 80.1752 303.82 79.5964 303.82C78.9962 303.82 78.5257 303.951 78.1848 304.214C77.8439 304.477 77.6042 304.757 77.4657 305.055L76.2725 304.629C76.4856 304.132 76.7697 303.745 77.1248 303.468C77.4835 303.187 77.8741 302.992 78.2967 302.882C78.7228 302.768 79.1418 302.712 79.5538 302.712C79.8165 302.712 80.1184 302.744 80.4593 302.808C80.8038 302.868 81.1358 302.994 81.4554 303.186C81.7786 303.377 82.0467 303.667 82.2597 304.054C82.4728 304.441 82.5793 304.96 82.5793 305.609V311H81.3222V309.892H81.2583C81.1731 310.07 81.031 310.26 80.8322 310.462C80.6333 310.664 80.3688 310.837 80.0385 310.979C79.7082 311.121 79.3052 311.192 78.8293 311.192ZM79.0211 310.062C79.5183 310.062 79.9373 309.965 80.2782 309.77C80.6227 309.574 80.8819 309.322 81.0559 309.013C81.2335 308.704 81.3222 308.379 81.3222 308.038V306.888C81.269 306.952 81.1518 307.01 80.9707 307.064C80.7931 307.113 80.5871 307.158 80.3528 307.197C80.1219 307.232 79.8965 307.264 79.6763 307.293C79.4597 307.317 79.2839 307.339 79.1489 307.357C78.8222 307.399 78.5168 307.468 78.2327 307.564C77.9522 307.657 77.7249 307.797 77.5509 307.985C77.3805 308.17 77.2952 308.422 77.2952 308.741C77.2952 309.178 77.4568 309.509 77.78 309.732C78.1067 309.952 78.5204 310.062 79.0211 310.062ZM85.1738 311V302.818H86.4309V311H85.1738ZM85.813 301.455C85.568 301.455 85.3567 301.371 85.1791 301.204C85.0051 301.037 84.9181 300.837 84.9181 300.602C84.9181 300.368 85.0051 300.167 85.1791 300C85.3567 299.833 85.568 299.75 85.813 299.75C86.058 299.75 86.2676 299.833 86.4416 300C86.6191 300.167 86.7079 300.368 86.7079 300.602C86.7079 300.837 86.6191 301.037 86.4416 301.204C86.2676 301.371 86.058 301.455 85.813 301.455ZM90.2905 306.078V311H89.0334V302.818H90.2479V304.097H90.3544C90.5462 303.681 90.8374 303.347 91.228 303.095C91.6186 302.839 92.1229 302.712 92.7408 302.712C93.2947 302.712 93.7795 302.825 94.195 303.053C94.6104 303.276 94.9336 303.617 95.1644 304.075C95.3952 304.53 95.5107 305.105 95.5107 305.801V311H94.2536V305.886C94.2536 305.244 94.0866 304.743 93.7528 304.384C93.419 304.022 92.9609 303.841 92.3786 303.841C91.9773 303.841 91.6186 303.928 91.3026 304.102C90.9901 304.276 90.7433 304.53 90.5621 304.864C90.381 305.197 90.2905 305.602 90.2905 306.078ZM101.538 311.17C100.75 311.17 100.07 310.996 99.4981 310.648C98.9299 310.297 98.4913 309.807 98.1824 309.178C97.877 308.546 97.7243 307.811 97.7243 306.973C97.7243 306.135 97.877 305.396 98.1824 304.757C98.4913 304.114 98.921 303.614 99.4714 303.255C100.025 302.893 100.672 302.712 101.41 302.712C101.836 302.712 102.257 302.783 102.673 302.925C103.088 303.067 103.466 303.298 103.807 303.617C104.148 303.933 104.42 304.352 104.622 304.874C104.825 305.396 104.926 306.039 104.926 306.803V307.335H98.6192V306.249H103.648C103.648 305.787 103.555 305.375 103.371 305.013C103.189 304.651 102.93 304.365 102.593 304.155C102.259 303.946 101.865 303.841 101.41 303.841C100.91 303.841 100.476 303.965 100.111 304.214C99.7484 304.459 99.4697 304.778 99.2743 305.173C99.079 305.567 98.9814 305.989 98.9814 306.44V307.165C98.9814 307.783 99.0879 308.306 99.301 308.736C99.5176 309.162 99.8177 309.487 100.201 309.711C100.585 309.931 101.03 310.041 101.538 310.041C101.868 310.041 102.167 309.995 102.433 309.903C102.703 309.807 102.936 309.665 103.131 309.477C103.326 309.285 103.477 309.047 103.584 308.763L104.798 309.104C104.67 309.516 104.455 309.878 104.154 310.19C103.852 310.499 103.479 310.741 103.035 310.915C102.591 311.085 102.092 311.17 101.538 311.17ZM110.228 311.17C109.546 311.17 108.944 310.998 108.422 310.654C107.9 310.306 107.492 309.816 107.197 309.184C106.902 308.548 106.755 307.797 106.755 306.93C106.755 306.071 106.902 305.325 107.197 304.693C107.492 304.061 107.902 303.573 108.427 303.228C108.953 302.884 109.56 302.712 110.249 302.712C110.782 302.712 111.203 302.8 111.511 302.978C111.824 303.152 112.062 303.351 112.225 303.575C112.392 303.795 112.522 303.976 112.614 304.118H112.721V300.091H113.978V311H112.763V309.743H112.614C112.522 309.892 112.39 310.08 112.22 310.308C112.049 310.531 111.806 310.732 111.49 310.909C111.174 311.083 110.753 311.17 110.228 311.17ZM110.398 310.041C110.902 310.041 111.329 309.91 111.677 309.647C112.025 309.381 112.289 309.013 112.47 308.544C112.651 308.072 112.742 307.527 112.742 306.909C112.742 306.298 112.653 305.764 112.476 305.306C112.298 304.844 112.035 304.485 111.687 304.23C111.339 303.971 110.91 303.841 110.398 303.841C109.866 303.841 109.422 303.978 109.067 304.251C108.715 304.521 108.45 304.888 108.273 305.354C108.099 305.815 108.012 306.334 108.012 306.909C108.012 307.491 108.101 308.021 108.278 308.496C108.459 308.969 108.726 309.345 109.077 309.626C109.432 309.903 109.873 310.041 110.398 310.041ZM117.671 311.085C117.408 311.085 117.183 310.991 116.994 310.803C116.806 310.615 116.712 310.389 116.712 310.126C116.712 309.864 116.806 309.638 116.994 309.45C117.183 309.262 117.408 309.168 117.671 309.168C117.934 309.168 118.159 309.262 118.347 309.45C118.536 309.638 118.63 309.864 118.63 310.126C118.63 310.3 118.585 310.46 118.497 310.606C118.411 310.751 118.296 310.869 118.15 310.957C118.008 311.043 117.848 311.085 117.671 311.085ZM122.102 311.085C121.839 311.085 121.613 310.991 121.425 310.803C121.237 310.615 121.143 310.389 121.143 310.126C121.143 309.864 121.237 309.638 121.425 309.45C121.613 309.262 121.839 309.168 122.102 309.168C122.365 309.168 122.59 309.262 122.778 309.45C122.966 309.638 123.061 309.864 123.061 310.126C123.061 310.3 123.016 310.46 122.927 310.606C122.842 310.751 122.727 310.869 122.581 310.957C122.439 311.043 122.279 311.085 122.102 311.085ZM126.533 311.085C126.27 311.085 126.044 310.991 125.856 310.803C125.668 310.615 125.574 310.389 125.574 310.126C125.574 309.864 125.668 309.638 125.856 309.45C126.044 309.262 126.27 309.168 126.533 309.168C126.795 309.168 127.021 309.262 127.209 309.45C127.397 309.638 127.491 309.864 127.491 310.126C127.491 310.3 127.447 310.46 127.358 310.606C127.273 310.751 127.158 310.869 127.012 310.957C126.87 311.043 126.71 311.085 126.533 311.085Z" fill="#1A2434"/>
<defs>
<clipPath id="clip0_420_1069">
<rect width="80" height="80" fill="white" transform="translate(25 25)"/>
</clipPath>
</defs>
</svg>
