<svg width="192" height="367" viewBox="0 0 192 367" fill="none" xmlns="http://www.w3.org/2000/svg">
<rect x="0.75" y="1" width="190.75" height="325" rx="10" fill="white"/>
<rect x="0.75" y="1" width="190.75" height="325" rx="10" stroke="#F9FCFF"/>
<g clip-path="url(#clip0_420_1085)">
<path opacity="0.2" d="M92.25 40H37.25C36.587 40 35.9511 40.2634 35.4822 40.7322C35.0134 41.2011 34.75 41.837 34.75 42.5V82.5C34.75 83.163 35.0134 83.7989 35.4822 84.2678C35.9511 84.7366 36.587 85 37.25 85H74.75V76.1875C71.7841 73.5353 69.9933 69.8136 69.7715 65.8411C69.5497 61.8685 70.915 57.9706 73.5672 55.0047C76.2193 52.0388 79.9411 50.248 83.9136 50.0262C87.8862 49.8044 91.7841 51.1697 94.75 53.8219V42.5C94.75 41.837 94.4866 41.2011 94.0178 40.7322C93.5489 40.2634 92.913 40 92.25 40Z" fill="#0061B1"/>
<path d="M84.75 80C93.0343 80 99.75 73.2843 99.75 65C99.75 56.7157 93.0343 50 84.75 50C76.4657 50 69.75 56.7157 69.75 65C69.75 73.2843 76.4657 80 84.75 80Z" stroke="#0061B1" stroke-width="2" stroke-linecap="round" stroke-linejoin="round"/>
<path d="M94.75 76.1906V95L84.75 90L74.75 95V76.1875" stroke="#0061B1" stroke-width="2" stroke-linecap="round" stroke-linejoin="round"/>
<path d="M64.75 85H37.25C36.587 85 35.9511 84.7366 35.4822 84.2678C35.0134 83.7989 34.75 83.163 34.75 82.5V42.5C34.75 41.837 35.0134 41.2011 35.4822 40.7322C35.9511 40.2634 36.587 40 37.25 40H92.25C92.913 40 93.5489 40.2634 94.0178 40.7322C94.4866 41.2011 94.75 41.837 94.75 42.5" stroke="#0061B1" stroke-width="2" stroke-linecap="round" stroke-linejoin="round"/>
<path d="M47.25 67.5H59.75" stroke="#0061B1" stroke-width="2" stroke-linecap="round" stroke-linejoin="round"/>
<path d="M47.25 57.5H59.75" stroke="#0061B1" stroke-width="2" stroke-linecap="round" stroke-linejoin="round"/>
</g>
<path d="M31.35 153L25.014 135.12H28.062L33.246 150.384H32.646L37.806 135.12H40.854L34.518 153H31.35ZM47.5941 153.288C46.2981 153.288 45.1461 152.992 44.1381 152.4C43.1461 151.792 42.3701 150.976 41.8101 149.952C41.2501 148.912 40.9701 147.752 40.9701 146.472C40.9701 145.16 41.2501 144 41.8101 142.992C42.3861 141.984 43.1541 141.192 44.1141 140.616C45.0741 140.024 46.1621 139.728 47.3781 139.728C48.3541 139.728 49.2261 139.896 49.9941 140.232C50.7621 140.568 51.4101 141.032 51.9381 141.624C52.4661 142.2 52.8661 142.864 53.1381 143.616C53.4261 144.368 53.5701 145.168 53.5701 146.016C53.5701 146.224 53.5621 146.44 53.5461 146.664C53.5301 146.888 53.4981 147.096 53.4501 147.288H43.1061V145.128H51.9141L50.6181 146.112C50.7781 145.328 50.7221 144.632 50.4501 144.024C50.1941 143.4 49.7941 142.912 49.2501 142.56C48.7221 142.192 48.0981 142.008 47.3781 142.008C46.6581 142.008 46.0181 142.192 45.4581 142.56C44.8981 142.912 44.4661 143.424 44.1621 144.096C43.8581 144.752 43.7381 145.552 43.8021 146.496C43.7221 147.376 43.8421 148.144 44.1621 148.8C44.4981 149.456 44.9621 149.968 45.5541 150.336C46.1621 150.704 46.8501 150.888 47.6181 150.888C48.4021 150.888 49.0661 150.712 49.6101 150.36C50.1701 150.008 50.6101 149.552 50.9301 148.992L53.1381 150.072C52.8821 150.68 52.4821 151.232 51.9381 151.728C51.4101 152.208 50.7701 152.592 50.0181 152.88C49.2821 153.152 48.4741 153.288 47.5941 153.288ZM56.2168 153V140.016H58.8088V142.632L58.5688 142.248C58.8568 141.4 59.3208 140.792 59.9608 140.424C60.6008 140.04 61.3688 139.848 62.2648 139.848H63.0568V142.32H61.9288C61.0328 142.32 60.3048 142.6 59.7448 143.16C59.2008 143.704 58.9288 144.488 58.9288 145.512V153H56.2168ZM64.9121 153V140.016H67.6241V153H64.9121ZM64.9121 138.24V135.12H67.6241V138.24H64.9121ZM72.2589 153V142.464H69.8589V140.016H72.2589V139.344C72.2589 138.368 72.4589 137.552 72.8589 136.896C73.2589 136.224 73.8109 135.712 74.5149 135.36C75.2349 135.008 76.0589 134.832 76.9869 134.832C77.1629 134.832 77.3629 134.848 77.5869 134.88C77.8109 134.896 77.9949 134.92 78.1389 134.952V137.304C78.0109 137.272 77.8669 137.256 77.7069 137.256C77.5469 137.24 77.4189 137.232 77.3229 137.232C76.6029 137.232 76.0269 137.4 75.5949 137.736C75.1629 138.056 74.9469 138.592 74.9469 139.344V140.016H81.1629V142.464H74.9469V153H72.2589ZM79.8909 153V140.016H82.5789V153H79.8909ZM91.5394 153.288C90.2434 153.288 89.0914 152.992 88.0834 152.4C87.0914 151.792 86.3154 150.976 85.7554 149.952C85.1954 148.912 84.9154 147.752 84.9154 146.472C84.9154 145.16 85.1954 144 85.7554 142.992C86.3314 141.984 87.0994 141.192 88.0594 140.616C89.0194 140.024 90.1074 139.728 91.3234 139.728C92.2994 139.728 93.1714 139.896 93.9394 140.232C94.7074 140.568 95.3554 141.032 95.8834 141.624C96.4114 142.2 96.8114 142.864 97.0834 143.616C97.3714 144.368 97.5154 145.168 97.5154 146.016C97.5154 146.224 97.5074 146.44 97.4914 146.664C97.4754 146.888 97.4434 147.096 97.3954 147.288H87.0514V145.128H95.8594L94.5634 146.112C94.7234 145.328 94.6674 144.632 94.3954 144.024C94.1394 143.4 93.7394 142.912 93.1954 142.56C92.6674 142.192 92.0434 142.008 91.3234 142.008C90.6034 142.008 89.9634 142.192 89.4034 142.56C88.8434 142.912 88.4114 143.424 88.1074 144.096C87.8034 144.752 87.6834 145.552 87.7474 146.496C87.6674 147.376 87.7874 148.144 88.1074 148.8C88.4434 149.456 88.9074 149.968 89.4994 150.336C90.1074 150.704 90.7954 150.888 91.5634 150.888C92.3474 150.888 93.0114 150.712 93.5554 150.36C94.1154 150.008 94.5554 149.552 94.8754 148.992L97.0834 150.072C96.8274 150.68 96.4274 151.232 95.8834 151.728C95.3554 152.208 94.7154 152.592 93.9634 152.88C93.2274 153.152 92.4194 153.288 91.5394 153.288ZM106.162 153.288C104.914 153.288 103.794 152.992 102.802 152.4C101.826 151.792 101.05 150.976 100.474 149.952C99.9141 148.928 99.6341 147.776 99.6341 146.496C99.6341 145.216 99.9221 144.064 100.498 143.04C101.074 142.016 101.85 141.208 102.826 140.616C103.802 140.024 104.906 139.728 106.138 139.728C107.178 139.728 108.098 139.936 108.898 140.352C109.698 140.768 110.33 141.344 110.794 142.08L110.386 142.704V134.832H113.074V153H110.506V150.36L110.818 150.864C110.37 151.648 109.73 152.248 108.898 152.664C108.066 153.08 107.154 153.288 106.162 153.288ZM106.426 150.768C107.178 150.768 107.85 150.584 108.442 150.216C109.05 149.848 109.522 149.344 109.858 148.704C110.21 148.048 110.386 147.312 110.386 146.496C110.386 145.68 110.21 144.952 109.858 144.312C109.522 143.672 109.05 143.168 108.442 142.8C107.85 142.432 107.178 142.248 106.426 142.248C105.674 142.248 104.994 142.432 104.386 142.8C103.778 143.168 103.306 143.672 102.97 144.312C102.634 144.952 102.466 145.68 102.466 146.496C102.466 147.312 102.634 148.048 102.97 148.704C103.306 149.344 103.77 149.848 104.362 150.216C104.97 150.584 105.658 150.768 106.426 150.768ZM34.926 182.288C33.662 182.288 32.486 182.056 31.398 181.592C30.326 181.128 29.39 180.488 28.59 179.672C27.806 178.84 27.19 177.864 26.742 176.744C26.294 175.624 26.07 174.392 26.07 173.048C26.07 171.72 26.286 170.496 26.718 169.376C27.166 168.24 27.79 167.264 28.59 166.448C29.39 165.616 30.326 164.976 31.398 164.528C32.47 164.064 33.646 163.832 34.926 163.832C36.19 163.832 37.318 164.048 38.31 164.48C39.318 164.912 40.166 165.48 40.854 166.184C41.542 166.872 42.038 167.624 42.342 168.44L39.798 169.64C39.414 168.68 38.798 167.904 37.95 167.312C37.118 166.704 36.11 166.4 34.926 166.4C33.742 166.4 32.694 166.68 31.782 167.24C30.87 167.8 30.158 168.576 29.646 169.568C29.15 170.56 28.902 171.72 28.902 173.048C28.902 174.376 29.15 175.544 29.646 176.552C30.158 177.544 30.87 178.32 31.782 178.88C32.694 179.424 33.742 179.696 34.926 179.696C36.11 179.696 37.118 179.4 37.95 178.808C38.798 178.216 39.414 177.44 39.798 176.48L42.342 177.68C42.038 178.48 41.542 179.232 40.854 179.936C40.166 180.64 39.318 181.208 38.31 181.64C37.318 182.072 36.19 182.288 34.926 182.288ZM50.8519 182.288C49.5559 182.288 48.4039 181.992 47.3959 181.4C46.4039 180.792 45.6279 179.976 45.0679 178.952C44.5079 177.912 44.2279 176.752 44.2279 175.472C44.2279 174.16 44.5079 173 45.0679 171.992C45.6439 170.984 46.4119 170.192 47.3719 169.616C48.3319 169.024 49.4199 168.728 50.6359 168.728C51.6119 168.728 52.4839 168.896 53.2519 169.232C54.0199 169.568 54.6679 170.032 55.1959 170.624C55.7239 171.2 56.1239 171.864 56.3959 172.616C56.6839 173.368 56.8279 174.168 56.8279 175.016C56.8279 175.224 56.8199 175.44 56.8039 175.664C56.7879 175.888 56.7559 176.096 56.7079 176.288H46.3639V174.128H55.1719L53.8759 175.112C54.0359 174.328 53.9799 173.632 53.7079 173.024C53.4519 172.4 53.0519 171.912 52.5079 171.56C51.9799 171.192 51.3559 171.008 50.6359 171.008C49.9159 171.008 49.2759 171.192 48.7159 171.56C48.1559 171.912 47.7239 172.424 47.4199 173.096C47.1159 173.752 46.9959 174.552 47.0599 175.496C46.9799 176.376 47.0999 177.144 47.4199 177.8C47.7559 178.456 48.2199 178.968 48.8119 179.336C49.4199 179.704 50.1079 179.888 50.8759 179.888C51.6599 179.888 52.3239 179.712 52.8679 179.36C53.4279 179.008 53.8679 178.552 54.1879 177.992L56.3959 179.072C56.1399 179.68 55.7399 180.232 55.1959 180.728C54.6679 181.208 54.0279 181.592 53.2759 181.88C52.5399 182.152 51.7319 182.288 50.8519 182.288ZM59.4746 182V169.016H62.0666V171.632L61.8266 171.248C62.1146 170.4 62.5786 169.792 63.2186 169.424C63.8586 169.04 64.6266 168.848 65.5226 168.848H66.3146V171.32H65.1866C64.2906 171.32 63.5626 171.6 63.0026 172.16C62.4586 172.704 62.1866 173.488 62.1866 174.512V182H59.4746ZM74.0203 182.144C72.6603 182.144 71.6043 181.76 70.8523 180.992C70.1003 180.224 69.7243 179.144 69.7243 177.752V171.464H67.4443V169.016H67.8043C68.4123 169.016 68.8843 168.84 69.2203 168.488C69.5563 168.136 69.7243 167.656 69.7243 167.048V166.04H72.4363V169.016H75.3883V171.464H72.4363V177.632C72.4363 178.08 72.5083 178.464 72.6523 178.784C72.7963 179.088 73.0283 179.328 73.3483 179.504C73.6683 179.664 74.0843 179.744 74.5963 179.744C74.7243 179.744 74.8683 179.736 75.0283 179.72C75.1883 179.704 75.3403 179.688 75.4843 179.672V182C75.2603 182.032 75.0123 182.064 74.7403 182.096C74.4683 182.128 74.2283 182.144 74.0203 182.144ZM78.1309 182V169.016H80.8429V182H78.1309ZM78.1309 167.24V164.12H80.8429V167.24H78.1309ZM85.4777 182V171.464H83.0777V169.016H85.4777V168.344C85.4777 167.368 85.6777 166.552 86.0777 165.896C86.4777 165.224 87.0297 164.712 87.7337 164.36C88.4537 164.008 89.2777 163.832 90.2057 163.832C90.3817 163.832 90.5817 163.848 90.8057 163.88C91.0297 163.896 91.2137 163.92 91.3577 163.952V166.304C91.2297 166.272 91.0857 166.256 90.9257 166.256C90.7657 166.24 90.6377 166.232 90.5417 166.232C89.8217 166.232 89.2457 166.4 88.8137 166.736C88.3817 167.056 88.1657 167.592 88.1657 168.344V169.016H94.3817V171.464H88.1657V182H85.4777ZM93.1097 182V169.016H95.7977V182H93.1097ZM104.83 182.288C103.534 182.288 102.382 181.992 101.374 181.4C100.382 180.792 99.5901 179.976 98.9981 178.952C98.4221 177.928 98.1341 176.768 98.1341 175.472C98.1341 174.192 98.4221 173.04 98.9981 172.016C99.5741 170.992 100.366 170.192 101.374 169.616C102.382 169.024 103.534 168.728 104.83 168.728C105.71 168.728 106.534 168.888 107.302 169.208C108.07 169.512 108.734 169.936 109.294 170.48C109.87 171.024 110.294 171.656 110.566 172.376L108.19 173.48C107.918 172.808 107.478 172.272 106.87 171.872C106.278 171.456 105.598 171.248 104.83 171.248C104.094 171.248 103.43 171.432 102.838 171.8C102.262 172.152 101.806 172.656 101.47 173.312C101.134 173.952 100.966 174.68 100.966 175.496C100.966 176.312 101.134 177.048 101.47 177.704C101.806 178.344 102.262 178.848 102.838 179.216C103.43 179.584 104.094 179.768 104.83 179.768C105.614 179.768 106.294 179.568 106.87 179.168C107.462 178.752 107.902 178.2 108.19 177.512L110.566 178.64C110.31 179.328 109.894 179.952 109.318 180.512C108.758 181.056 108.094 181.488 107.326 181.808C106.558 182.128 105.726 182.288 104.83 182.288ZM116.988 182.288C116.108 182.288 115.332 182.136 114.66 181.832C114.004 181.512 113.492 181.08 113.124 180.536C112.756 179.976 112.572 179.32 112.572 178.568C112.572 177.864 112.724 177.232 113.028 176.672C113.348 176.112 113.836 175.64 114.492 175.256C115.148 174.872 115.972 174.6 116.964 174.44L121.476 173.696V175.832L117.492 176.528C116.772 176.656 116.244 176.888 115.908 177.224C115.572 177.544 115.404 177.96 115.404 178.472C115.404 178.968 115.588 179.376 115.956 179.696C116.34 180 116.828 180.152 117.42 180.152C118.156 180.152 118.796 179.992 119.34 179.672C119.9 179.352 120.332 178.928 120.636 178.4C120.94 177.856 121.092 177.256 121.092 176.6V173.264C121.092 172.624 120.852 172.104 120.372 171.704C119.908 171.288 119.284 171.08 118.5 171.08C117.78 171.08 117.148 171.272 116.604 171.656C116.076 172.024 115.684 172.504 115.428 173.096L113.172 171.968C113.412 171.328 113.804 170.768 114.348 170.288C114.892 169.792 115.524 169.408 116.244 169.136C116.98 168.864 117.756 168.728 118.572 168.728C119.596 168.728 120.5 168.92 121.284 169.304C122.084 169.688 122.7 170.224 123.132 170.912C123.58 171.584 123.804 172.368 123.804 173.264V182H121.212V179.648L121.764 179.72C121.46 180.248 121.068 180.704 120.588 181.088C120.124 181.472 119.588 181.768 118.98 181.976C118.388 182.184 117.724 182.288 116.988 182.288ZM132.356 182.144C130.996 182.144 129.94 181.76 129.188 180.992C128.436 180.224 128.06 179.144 128.06 177.752V171.464H125.78V169.016H126.14C126.748 169.016 127.22 168.84 127.556 168.488C127.892 168.136 128.06 167.656 128.06 167.048V166.04H130.772V169.016H133.724V171.464H130.772V177.632C130.772 178.08 130.844 178.464 130.988 178.784C131.132 179.088 131.364 179.328 131.684 179.504C132.004 179.664 132.42 179.744 132.932 179.744C133.06 179.744 133.204 179.736 133.364 179.72C133.524 179.704 133.676 179.688 133.82 179.672V182C133.596 182.032 133.348 182.064 133.076 182.096C132.804 182.128 132.564 182.144 132.356 182.144ZM142.328 182.288C141.032 182.288 139.88 181.992 138.872 181.4C137.88 180.792 137.104 179.976 136.544 178.952C135.984 177.912 135.704 176.752 135.704 175.472C135.704 174.16 135.984 173 136.544 171.992C137.12 170.984 137.888 170.192 138.848 169.616C139.808 169.024 140.896 168.728 142.112 168.728C143.088 168.728 143.96 168.896 144.728 169.232C145.496 169.568 146.144 170.032 146.672 170.624C147.2 171.2 147.6 171.864 147.872 172.616C148.16 173.368 148.304 174.168 148.304 175.016C148.304 175.224 148.296 175.44 148.28 175.664C148.264 175.888 148.232 176.096 148.184 176.288H137.84V174.128H146.648L145.352 175.112C145.512 174.328 145.456 173.632 145.184 173.024C144.928 172.4 144.528 171.912 143.984 171.56C143.456 171.192 142.832 171.008 142.112 171.008C141.392 171.008 140.752 171.192 140.192 171.56C139.632 171.912 139.2 172.424 138.896 173.096C138.592 173.752 138.472 174.552 138.536 175.496C138.456 176.376 138.576 177.144 138.896 177.8C139.232 178.456 139.696 178.968 140.288 179.336C140.896 179.704 141.584 179.888 142.352 179.888C143.136 179.888 143.8 179.712 144.344 179.36C144.904 179.008 145.344 178.552 145.664 177.992L147.872 179.072C147.616 179.68 147.216 180.232 146.672 180.728C146.144 181.208 145.504 181.592 144.752 181.88C144.016 182.152 143.208 182.288 142.328 182.288Z" fill="#0061B1"/>
<path opacity="0.7" d="M26.071 230V219.091H32.6548V220.263H27.392V223.949H32.3139V225.121H27.392V228.828H32.7401V230H26.071ZM35.1654 230V221.818H36.3799V223.097H36.4864C36.6569 222.66 36.9321 222.321 37.3121 222.079C37.692 221.834 38.1484 221.712 38.681 221.712C39.2208 221.712 39.67 221.834 40.0287 222.079C40.3909 222.321 40.6732 222.66 40.8756 223.097H40.9609C41.1704 222.674 41.4847 222.338 41.9037 222.09C42.3227 221.838 42.8252 221.712 43.4112 221.712C44.1427 221.712 44.7411 221.941 45.2063 222.399C45.6714 222.853 45.904 223.562 45.904 224.524V230H44.6469V224.524C44.6469 223.92 44.4818 223.489 44.1516 223.23C43.8213 222.971 43.4325 222.841 42.985 222.841C42.4097 222.841 41.9641 223.015 41.648 223.363C41.332 223.707 41.1739 224.144 41.1739 224.673V230H39.8955V224.396C39.8955 223.931 39.7446 223.556 39.4428 223.272C39.1409 222.985 38.7521 222.841 38.2762 222.841C37.9495 222.841 37.6441 222.928 37.36 223.102C37.0795 223.276 36.8522 223.517 36.6782 223.826C36.5077 224.132 36.4225 224.485 36.4225 224.886V230H35.1654ZM48.5025 233.068V221.818H49.717V223.118H49.8662C49.9585 222.976 50.0863 222.795 50.2497 222.575C50.4166 222.351 50.6545 222.152 50.9635 221.978C51.276 221.8 51.6985 221.712 52.2312 221.712C52.9201 221.712 53.5274 221.884 54.0529 222.228C54.5785 222.573 54.9887 223.061 55.2834 223.693C55.5782 224.325 55.7255 225.071 55.7255 225.93C55.7255 226.797 55.5782 227.548 55.2834 228.184C54.9887 228.816 54.5803 229.306 54.0583 229.654C53.5363 229.998 52.9343 230.17 52.2525 230.17C51.727 230.17 51.3061 230.083 50.9901 229.909C50.674 229.732 50.4308 229.531 50.2603 229.308C50.0899 229.08 49.9585 228.892 49.8662 228.743H49.7596V233.068H48.5025ZM49.7383 225.909C49.7383 226.527 49.8289 227.072 50.01 227.544C50.1911 228.013 50.4556 228.381 50.8037 228.647C51.1517 228.91 51.5778 229.041 52.0821 229.041C52.6076 229.041 53.0462 228.903 53.3978 228.626C53.7529 228.345 54.0192 227.969 54.1968 227.496C54.3779 227.021 54.4684 226.491 54.4684 225.909C54.4684 225.334 54.3797 224.815 54.2021 224.354C54.0281 223.888 53.7635 223.521 53.4084 223.251C53.0569 222.978 52.6147 222.841 52.0821 222.841C51.5707 222.841 51.141 222.971 50.793 223.23C50.445 223.485 50.1822 223.844 50.0047 224.306C49.8271 224.764 49.7383 225.298 49.7383 225.909ZM61.267 230.17C60.5284 230.17 59.8803 229.995 59.3228 229.643C58.7688 229.292 58.3355 228.8 58.023 228.168C57.7141 227.536 57.5596 226.797 57.5596 225.952C57.5596 225.099 57.7141 224.355 58.023 223.72C58.3355 223.084 58.7688 222.591 59.3228 222.239C59.8803 221.887 60.5284 221.712 61.267 221.712C62.0056 221.712 62.652 221.887 63.2059 222.239C63.7635 222.591 64.1967 223.084 64.5056 223.72C64.8181 224.355 64.9744 225.099 64.9744 225.952C64.9744 226.797 64.8181 227.536 64.5056 228.168C64.1967 228.8 63.7635 229.292 63.2059 229.643C62.652 229.995 62.0056 230.17 61.267 230.17ZM61.267 229.041C61.8281 229.041 62.2897 228.897 62.652 228.61C63.0142 228.322 63.2823 227.944 63.4563 227.475C63.6303 227.006 63.7173 226.499 63.7173 225.952C63.7173 225.405 63.6303 224.895 63.4563 224.423C63.2823 223.951 63.0142 223.569 62.652 223.278C62.2897 222.987 61.8281 222.841 61.267 222.841C60.7059 222.841 60.2443 222.987 59.8821 223.278C59.5199 223.569 59.2517 223.951 59.0777 224.423C58.9037 224.895 58.8167 225.405 58.8167 225.952C58.8167 226.499 58.9037 227.006 59.0777 227.475C59.2517 227.944 59.5199 228.322 59.8821 228.61C60.2443 228.897 60.7059 229.041 61.267 229.041ZM68.7687 230L66.2758 221.818H67.5968L69.3653 228.082H69.4505L71.1977 221.818H72.54L74.2659 228.061H74.3511L76.1196 221.818H77.4406L74.9477 230H73.7119L71.9221 223.714H71.7943L70.0045 230H68.7687ZM82.5546 230.17C81.7662 230.17 81.0862 229.996 80.5145 229.648C79.9463 229.297 79.5077 228.807 79.1988 228.178C78.8934 227.546 78.7407 226.811 78.7407 225.973C78.7407 225.135 78.8934 224.396 79.1988 223.757C79.5077 223.114 79.9374 222.614 80.4878 222.255C81.0418 221.893 81.6881 221.712 82.4268 221.712C82.8529 221.712 83.2737 221.783 83.6892 221.925C84.1047 222.067 84.4829 222.298 84.8238 222.617C85.1647 222.933 85.4363 223.352 85.6388 223.874C85.8412 224.396 85.9424 225.039 85.9424 225.803V226.335H79.6356V225.249H84.664C84.664 224.787 84.5716 224.375 84.387 224.013C84.2059 223.651 83.9466 223.365 83.6093 223.155C83.2755 222.946 82.8813 222.841 82.4268 222.841C81.926 222.841 81.4928 222.965 81.127 223.214C80.7648 223.459 80.4861 223.778 80.2907 224.173C80.0954 224.567 79.9978 224.989 79.9978 225.44V226.165C79.9978 226.783 80.1043 227.306 80.3174 227.736C80.534 228.162 80.8341 228.487 81.2176 228.711C81.6011 228.931 82.0468 229.041 82.5546 229.041C82.8849 229.041 83.1832 228.995 83.4495 228.903C83.7194 228.807 83.952 228.665 84.1473 228.477C84.3426 228.285 84.4935 228.047 84.6001 227.763L85.8145 228.104C85.6867 228.516 85.4719 228.878 85.17 229.19C84.8682 229.499 84.4953 229.741 84.0514 229.915C83.6075 230.085 83.1086 230.17 82.5546 230.17ZM88.1547 230V221.818H89.3692V223.054H89.4544C89.6035 222.649 89.8734 222.321 90.264 222.069C90.6547 221.816 91.095 221.69 91.5851 221.69C91.6774 221.69 91.7928 221.692 91.9313 221.696C92.0698 221.699 92.1746 221.705 92.2456 221.712V222.99C92.203 222.979 92.1053 222.963 91.9526 222.942C91.8035 222.917 91.6454 222.905 91.4785 222.905C91.0808 222.905 90.7257 222.988 90.4132 223.155C90.1042 223.319 89.8592 223.546 89.6781 223.837C89.5005 224.125 89.4118 224.453 89.4118 224.822V230H88.1547ZM99.3641 233.068C99.1511 233.068 98.9611 233.05 98.7942 233.015C98.6273 232.983 98.5119 232.951 98.4479 232.919L98.7675 231.811C99.0729 231.889 99.3428 231.918 99.5772 231.896C99.8116 231.875 100.019 231.77 100.2 231.582C100.385 231.397 100.554 231.097 100.706 230.682L100.941 230.043L97.9153 221.818H99.2789L101.537 228.338H101.623L103.881 221.818H105.245L101.772 231.193C101.616 231.616 101.422 231.966 101.191 232.243C100.96 232.523 100.692 232.731 100.387 232.866C100.085 233.001 99.7441 233.068 99.3641 233.068ZM110.235 230.17C109.496 230.17 108.848 229.995 108.291 229.643C107.737 229.292 107.304 228.8 106.991 228.168C106.682 227.536 106.528 226.797 106.528 225.952C106.528 225.099 106.682 224.355 106.991 223.72C107.304 223.084 107.737 222.591 108.291 222.239C108.848 221.887 109.496 221.712 110.235 221.712C110.974 221.712 111.62 221.887 112.174 222.239C112.731 222.591 113.165 223.084 113.474 223.72C113.786 224.355 113.942 225.099 113.942 225.952C113.942 226.797 113.786 227.536 113.474 228.168C113.165 228.8 112.731 229.292 112.174 229.643C111.62 229.995 110.974 230.17 110.235 230.17ZM110.235 229.041C110.796 229.041 111.258 228.897 111.62 228.61C111.982 228.322 112.25 227.944 112.424 227.475C112.598 227.006 112.685 226.499 112.685 225.952C112.685 225.405 112.598 224.895 112.424 224.423C112.25 223.951 111.982 223.569 111.62 223.278C111.258 222.987 110.796 222.841 110.235 222.841C109.674 222.841 109.212 222.987 108.85 223.278C108.488 223.569 108.22 223.951 108.046 224.423C107.872 224.895 107.785 225.405 107.785 225.952C107.785 226.499 107.872 227.006 108.046 227.475C108.22 227.944 108.488 228.322 108.85 228.61C109.212 228.897 109.674 229.041 110.235 229.041ZM121.318 226.655V221.818H122.575V230H121.318V228.615H121.232C121.041 229.031 120.742 229.384 120.337 229.675C119.933 229.963 119.421 230.107 118.803 230.107C118.292 230.107 117.837 229.995 117.44 229.771C117.042 229.544 116.729 229.203 116.502 228.748C116.275 228.29 116.161 227.713 116.161 227.017V221.818H117.418V226.932C117.418 227.528 117.585 228.004 117.919 228.359C118.256 228.714 118.686 228.892 119.208 228.892C119.521 228.892 119.839 228.812 120.162 228.652C120.488 228.493 120.762 228.248 120.982 227.917C121.206 227.587 121.318 227.166 121.318 226.655ZM125.177 230V221.818H126.392V223.054H126.477C126.626 222.649 126.896 222.321 127.287 222.069C127.677 221.816 128.117 221.69 128.608 221.69C128.7 221.69 128.815 221.692 128.954 221.696C129.092 221.699 129.197 221.705 129.268 221.712V222.99C129.225 222.979 129.128 222.963 128.975 222.942C128.826 222.917 128.668 222.905 128.501 222.905C128.103 222.905 127.748 222.988 127.436 223.155C127.127 223.319 126.882 223.546 126.701 223.837C126.523 224.125 126.434 224.453 126.434 224.822V230H125.177ZM136.854 223.651L135.724 223.97C135.653 223.782 135.549 223.599 135.41 223.422C135.275 223.24 135.09 223.091 134.856 222.974C134.622 222.857 134.322 222.798 133.956 222.798C133.455 222.798 133.038 222.914 132.704 223.145C132.374 223.372 132.209 223.661 132.209 224.013C132.209 224.325 132.322 224.572 132.55 224.753C132.777 224.934 133.132 225.085 133.615 225.206L134.829 225.504C135.561 225.682 136.106 225.953 136.465 226.319C136.823 226.681 137.003 227.148 137.003 227.72C137.003 228.189 136.868 228.608 136.598 228.977C136.332 229.347 135.959 229.638 135.479 229.851C135 230.064 134.442 230.17 133.807 230.17C132.972 230.17 132.282 229.989 131.735 229.627C131.188 229.265 130.842 228.736 130.696 228.04L131.889 227.741C132.003 228.182 132.218 228.512 132.534 228.732C132.853 228.952 133.271 229.062 133.785 229.062C134.371 229.062 134.837 228.938 135.181 228.69C135.529 228.437 135.703 228.136 135.703 227.784C135.703 227.5 135.604 227.262 135.405 227.07C135.206 226.875 134.901 226.729 134.489 226.634L133.125 226.314C132.376 226.136 131.825 225.861 131.474 225.488C131.126 225.112 130.952 224.641 130.952 224.077C130.952 223.615 131.081 223.207 131.34 222.852C131.603 222.496 131.96 222.218 132.411 222.015C132.866 221.813 133.381 221.712 133.956 221.712C134.766 221.712 135.401 221.889 135.863 222.244C136.328 222.599 136.658 223.068 136.854 223.651ZM142.625 230.17C141.837 230.17 141.157 229.996 140.585 229.648C140.017 229.297 139.579 228.807 139.27 228.178C138.964 227.546 138.812 226.811 138.812 225.973C138.812 225.135 138.964 224.396 139.27 223.757C139.579 223.114 140.008 222.614 140.559 222.255C141.113 221.893 141.759 221.712 142.498 221.712C142.924 221.712 143.345 221.783 143.76 221.925C144.176 222.067 144.554 222.298 144.895 222.617C145.236 222.933 145.507 223.352 145.71 223.874C145.912 224.396 146.013 225.039 146.013 225.803V226.335H139.706V225.249H144.735C144.735 224.787 144.643 224.375 144.458 224.013C144.277 223.651 144.018 223.365 143.68 223.155C143.346 222.946 142.952 222.841 142.498 222.841C141.997 222.841 141.564 222.965 141.198 223.214C140.836 223.459 140.557 223.778 140.362 224.173C140.166 224.567 140.069 224.989 140.069 225.44V226.165C140.069 226.783 140.175 227.306 140.388 227.736C140.605 228.162 140.905 228.487 141.288 228.711C141.672 228.931 142.118 229.041 142.625 229.041C142.956 229.041 143.254 228.995 143.52 228.903C143.79 228.807 144.023 228.665 144.218 228.477C144.413 228.285 144.564 228.047 144.671 227.763L145.885 228.104C145.758 228.516 145.543 228.878 145.241 229.19C144.939 229.499 144.566 229.741 144.122 229.915C143.678 230.085 143.179 230.17 142.625 230.17ZM149.483 219.091V230H148.226V219.091H149.483ZM155.729 221.818V222.884H151.318V221.818H155.729ZM152.639 230V220.689C152.639 220.22 152.749 219.83 152.969 219.517C153.19 219.205 153.475 218.97 153.827 218.814C154.179 218.658 154.55 218.58 154.94 218.58C155.249 218.58 155.501 218.604 155.697 218.654C155.892 218.704 156.038 218.75 156.133 218.793L155.771 219.879C155.707 219.858 155.619 219.831 155.505 219.799C155.395 219.767 155.249 219.751 155.068 219.751C154.653 219.751 154.353 219.856 154.168 220.066C153.987 220.275 153.896 220.582 153.896 220.987V230H152.639ZM27.7543 257L25.2614 248.818H26.5824L28.3509 255.082H28.4361L30.1832 248.818H31.5256L33.2514 255.061H33.3366L35.1051 248.818H36.4261L33.9332 257H32.6974L30.9077 250.714H30.7798L28.9901 257H27.7543ZM38.3881 257V248.818H39.6452V257H38.3881ZM39.0273 247.455C38.7822 247.455 38.571 247.371 38.3934 247.204C38.2194 247.037 38.1324 246.837 38.1324 246.602C38.1324 246.368 38.2194 246.167 38.3934 246C38.571 245.833 38.7822 245.75 39.0273 245.75C39.2723 245.75 39.4818 245.833 39.6558 246C39.8334 246.167 39.9222 246.368 39.9222 246.602C39.9222 246.837 39.8334 247.037 39.6558 247.204C39.4818 247.371 39.2723 247.455 39.0273 247.455ZM45.8059 248.818V249.884H41.5658V248.818H45.8059ZM42.8016 246.858H44.0587V254.656C44.0587 255.011 44.1102 255.278 44.2132 255.455C44.3197 255.629 44.4547 255.746 44.618 255.807C44.7849 255.864 44.9607 255.892 45.1454 255.892C45.2839 255.892 45.3975 255.885 45.4863 255.871C45.5751 255.853 45.6461 255.839 45.6993 255.828L45.955 256.957C45.8698 256.989 45.7508 257.021 45.5981 257.053C45.4454 257.089 45.2519 257.107 45.0175 257.107C44.6624 257.107 44.3144 257.03 43.9735 256.877C43.6361 256.725 43.3556 256.492 43.1319 256.18C42.9117 255.867 42.8016 255.473 42.8016 254.997V246.858ZM49.4297 252.078V257H48.1726V246.091H49.4297V250.097H49.5363C49.728 249.674 50.0157 249.338 50.3992 249.09C50.7863 248.838 51.3012 248.712 51.9439 248.712C52.5015 248.712 52.9898 248.824 53.4088 249.047C53.8278 249.267 54.1528 249.607 54.3836 250.065C54.618 250.519 54.7351 251.098 54.7351 251.801V257H53.478V251.886C53.478 251.237 53.3094 250.734 52.972 250.379C52.6382 250.02 52.1748 249.841 51.5817 249.841C51.1698 249.841 50.8005 249.928 50.4738 250.102C50.1506 250.276 49.8949 250.53 49.7067 250.864C49.5221 251.197 49.4297 251.602 49.4297 252.078ZM65.4119 248.818V249.884H61.1719V248.818H65.4119ZM62.4077 246.858H63.6648V254.656C63.6648 255.011 63.7163 255.278 63.8192 255.455C63.9258 255.629 64.0607 255.746 64.2241 255.807C64.391 255.864 64.5668 255.892 64.7514 255.892C64.8899 255.892 65.0036 255.885 65.0923 255.871C65.1811 255.853 65.2521 255.839 65.3054 255.828L65.5611 256.957C65.4759 256.989 65.3569 257.021 65.2042 257.053C65.0515 257.089 64.858 257.107 64.6236 257.107C64.2685 257.107 63.9205 257.03 63.5795 256.877C63.2422 256.725 62.9616 256.492 62.7379 256.18C62.5178 255.867 62.4077 255.473 62.4077 254.997V246.858ZM69.0358 252.078V257H67.7787V246.091H69.0358V250.097H69.1423C69.3341 249.674 69.6217 249.338 70.0053 249.09C70.3923 248.838 70.9072 248.712 71.55 248.712C72.1075 248.712 72.5958 248.824 73.0148 249.047C73.4339 249.267 73.7588 249.607 73.9896 250.065C74.224 250.519 74.3412 251.098 74.3412 251.801V257H73.0841V251.886C73.0841 251.237 72.9154 250.734 72.5781 250.379C72.2442 250.02 71.7808 249.841 71.1878 249.841C70.7759 249.841 70.4065 249.928 70.0798 250.102C69.7567 250.276 69.501 250.53 69.3128 250.864C69.1281 251.197 69.0358 251.602 69.0358 252.078ZM80.3714 257.17C79.583 257.17 78.903 256.996 78.3313 256.648C77.7631 256.297 77.3245 255.807 77.0156 255.178C76.7102 254.546 76.5575 253.811 76.5575 252.973C76.5575 252.135 76.7102 251.396 77.0156 250.757C77.3245 250.114 77.7542 249.614 78.3046 249.255C78.8586 248.893 79.5049 248.712 80.2436 248.712C80.6697 248.712 81.0905 248.783 81.506 248.925C81.9215 249.067 82.2997 249.298 82.6406 249.617C82.9815 249.933 83.2531 250.352 83.4556 250.874C83.658 251.396 83.7592 252.039 83.7592 252.803V253.335H77.4524V252.249H82.4808C82.4808 251.787 82.3884 251.375 82.2038 251.013C82.0227 250.651 81.7634 250.365 81.4261 250.155C81.0923 249.946 80.6981 249.841 80.2436 249.841C79.7428 249.841 79.3096 249.965 78.9438 250.214C78.5816 250.459 78.3029 250.778 78.1075 251.173C77.9122 251.567 77.8146 251.989 77.8146 252.44V253.165C77.8146 253.783 77.9211 254.306 78.1342 254.736C78.3508 255.162 78.6509 255.487 79.0344 255.711C79.4179 255.931 79.8636 256.041 80.3714 256.041C80.7017 256.041 80.9999 255.995 81.2663 255.903C81.5362 255.807 81.7688 255.665 81.9641 255.477C82.1594 255.285 82.3103 255.047 82.4168 254.763L83.6313 255.104C83.5035 255.516 83.2887 255.878 82.9868 256.19C82.685 256.499 82.3121 256.741 81.8682 256.915C81.4243 257.085 80.9254 257.17 80.3714 257.17ZM27.0724 281.017L27.0511 279.462H27.3068L30.8864 275.818H32.4418L28.6278 279.675H28.5213L27.0724 281.017ZM25.9006 284V273.091H27.1577V284H25.9006ZM31.0994 284L27.9034 279.952L28.7983 279.078L32.6974 284H31.0994ZM35.6169 279.078V284H34.3597V275.818H35.5742V277.097H35.6808C35.8725 276.681 36.1637 276.347 36.5544 276.095C36.945 275.839 37.4492 275.712 38.0671 275.712C38.6211 275.712 39.1058 275.825 39.5213 276.053C39.9368 276.276 40.26 276.617 40.4908 277.075C40.7216 277.53 40.837 278.105 40.837 278.801V284H39.5799V278.886C39.5799 278.244 39.413 277.743 39.0792 277.384C38.7454 277.022 38.2873 276.841 37.7049 276.841C37.3036 276.841 36.945 276.928 36.6289 277.102C36.3164 277.276 36.0696 277.53 35.8885 277.864C35.7074 278.197 35.6169 278.602 35.6169 279.078ZM46.758 284.17C46.0194 284.17 45.3713 283.995 44.8138 283.643C44.2598 283.292 43.8266 282.8 43.5141 282.168C43.2051 281.536 43.0506 280.797 43.0506 279.952C43.0506 279.099 43.2051 278.355 43.5141 277.72C43.8266 277.084 44.2598 276.591 44.8138 276.239C45.3713 275.887 46.0194 275.712 46.758 275.712C47.4967 275.712 48.143 275.887 48.6969 276.239C49.2545 276.591 49.6877 277.084 49.9967 277.72C50.3092 278.355 50.4654 279.099 50.4654 279.952C50.4654 280.797 50.3092 281.536 49.9967 282.168C49.6877 282.8 49.2545 283.292 48.6969 283.643C48.143 283.995 47.4967 284.17 46.758 284.17ZM46.758 283.041C47.3191 283.041 47.7808 282.897 48.143 282.61C48.5052 282.322 48.7733 281.944 48.9473 281.475C49.1213 281.006 49.2083 280.499 49.2083 279.952C49.2083 279.405 49.1213 278.895 48.9473 278.423C48.7733 277.951 48.5052 277.569 48.143 277.278C47.7808 276.987 47.3191 276.841 46.758 276.841C46.1969 276.841 45.7353 276.987 45.3731 277.278C45.0109 277.569 44.7428 277.951 44.5688 278.423C44.3947 278.895 44.3077 279.405 44.3077 279.952C44.3077 280.499 44.3947 281.006 44.5688 281.475C44.7428 281.944 45.0109 282.322 45.3731 282.61C45.7353 282.897 46.1969 283.041 46.758 283.041ZM54.2597 284L51.7668 275.818H53.0879L54.8563 282.082H54.9415L56.6887 275.818H58.031L59.7569 282.061H59.8421L61.6106 275.818H62.9316L60.4387 284H59.2029L57.4131 277.714H57.2853L55.4955 284H54.2597ZM66.1506 273.091V284H64.8935V273.091H66.1506ZM72.1835 284.17C71.3952 284.17 70.7151 283.996 70.1434 283.648C69.5752 283.297 69.1366 282.807 68.8277 282.178C68.5223 281.546 68.3696 280.811 68.3696 279.973C68.3696 279.135 68.5223 278.396 68.8277 277.757C69.1366 277.114 69.5663 276.614 70.1167 276.255C70.6707 275.893 71.317 275.712 72.0557 275.712C72.4818 275.712 72.9026 275.783 73.3181 275.925C73.7336 276.067 74.1118 276.298 74.4527 276.617C74.7936 276.933 75.0653 277.352 75.2677 277.874C75.4701 278.396 75.5713 279.039 75.5713 279.803V280.335H69.2645V279.249H74.2929C74.2929 278.787 74.2006 278.375 74.0159 278.013C73.8348 277.651 73.5756 277.365 73.2382 277.155C72.9044 276.946 72.5102 276.841 72.0557 276.841C71.555 276.841 71.1217 276.965 70.7559 277.214C70.3937 277.459 70.115 277.778 69.9197 278.173C69.7243 278.567 69.6267 278.989 69.6267 279.44V280.165C69.6267 280.783 69.7332 281.306 69.9463 281.736C70.1629 282.162 70.463 282.487 70.8465 282.711C71.23 282.931 71.6757 283.041 72.1835 283.041C72.5138 283.041 72.8121 282.995 73.0784 282.903C73.3483 282.807 73.5809 282.665 73.7762 282.477C73.9715 282.285 74.1224 282.047 74.229 281.763L75.4434 282.104C75.3156 282.516 75.1008 282.878 74.7989 283.19C74.4971 283.499 74.1242 283.741 73.6803 283.915C73.2364 284.085 72.7375 284.17 72.1835 284.17ZM80.8731 284.17C80.1912 284.17 79.5893 283.998 79.0673 283.654C78.5453 283.306 78.1369 282.816 77.8422 282.184C77.5474 281.548 77.4001 280.797 77.4001 279.93C77.4001 279.071 77.5474 278.325 77.8422 277.693C78.1369 277.061 78.5471 276.573 79.0726 276.228C79.5982 275.884 80.2055 275.712 80.8944 275.712C81.427 275.712 81.8479 275.8 82.1568 275.978C82.4693 276.152 82.7072 276.351 82.8706 276.575C83.0375 276.795 83.1671 276.976 83.2594 277.118H83.366V273.091H84.6231V284H83.4086V282.743H83.2594C83.1671 282.892 83.0357 283.08 82.8653 283.308C82.6948 283.531 82.4515 283.732 82.1355 283.909C81.8194 284.083 81.3986 284.17 80.8731 284.17ZM81.0435 283.041C81.5478 283.041 81.9739 282.91 82.3219 282.647C82.6699 282.381 82.9345 282.013 83.1156 281.544C83.2967 281.072 83.3873 280.527 83.3873 279.909C83.3873 279.298 83.2985 278.764 83.1209 278.306C82.9434 277.844 82.6806 277.485 82.3326 277.23C81.9846 276.971 81.5549 276.841 81.0435 276.841C80.5108 276.841 80.067 276.978 79.7118 277.251C79.3603 277.521 79.0957 277.888 78.9182 278.354C78.7442 278.815 78.6572 279.334 78.6572 279.909C78.6572 280.491 78.7459 281.021 78.9235 281.496C79.1046 281.969 79.3709 282.345 79.7225 282.626C80.0776 282.903 80.518 283.041 81.0435 283.041ZM90.7025 287.239C90.0953 287.239 89.5733 287.161 89.1365 287.004C88.6997 286.852 88.3357 286.649 88.0445 286.397C87.7569 286.148 87.5278 285.882 87.3574 285.598L88.3588 284.895C88.4724 285.044 88.6162 285.214 88.7903 285.406C88.9643 285.602 89.2022 285.77 89.504 285.912C89.8094 286.058 90.2089 286.131 90.7025 286.131C91.363 286.131 91.9081 285.971 92.3378 285.651C92.7675 285.332 92.9824 284.831 92.9824 284.149V282.487H92.8758C92.7835 282.636 92.6521 282.821 92.4817 283.041C92.3148 283.258 92.0733 283.451 91.7572 283.622C91.4447 283.789 91.0221 283.872 90.4895 283.872C89.829 283.872 89.2359 283.716 88.7104 283.403C88.1883 283.091 87.7746 282.636 87.4692 282.04C87.1674 281.443 87.0165 280.719 87.0165 279.866C87.0165 279.028 87.1638 278.299 87.4586 277.677C87.7533 277.052 88.1635 276.569 88.689 276.228C89.2146 275.884 89.8219 275.712 90.5108 275.712C91.0434 275.712 91.466 275.8 91.7785 275.978C92.0946 276.152 92.3361 276.351 92.503 276.575C92.6734 276.795 92.8048 276.976 92.8971 277.118H93.025V275.818H94.2395V284.234C94.2395 284.938 94.0797 285.509 93.7601 285.95C93.444 286.393 93.0179 286.718 92.4817 286.924C91.949 287.134 91.3559 287.239 90.7025 287.239ZM90.6599 282.743C91.1642 282.743 91.5903 282.627 91.9383 282.397C92.2863 282.166 92.5509 281.834 92.732 281.401C92.9131 280.967 93.0037 280.449 93.0037 279.845C93.0037 279.256 92.9149 278.735 92.7373 278.284C92.5598 277.833 92.297 277.48 91.949 277.224C91.601 276.969 91.1713 276.841 90.6599 276.841C90.1273 276.841 89.6834 276.976 89.3282 277.246C88.9767 277.516 88.7121 277.878 88.5346 278.332C88.3606 278.787 88.2736 279.291 88.2736 279.845C88.2736 280.413 88.3623 280.916 88.5399 281.353C88.721 281.786 88.9873 282.127 89.3389 282.375C89.694 282.62 90.1344 282.743 90.6599 282.743ZM100.271 284.17C99.4827 284.17 98.8026 283.996 98.2309 283.648C97.6627 283.297 97.2241 282.807 96.9152 282.178C96.6098 281.546 96.4571 280.811 96.4571 279.973C96.4571 279.135 96.6098 278.396 96.9152 277.757C97.2241 277.114 97.6538 276.614 98.2042 276.255C98.7582 275.893 99.4045 275.712 100.143 275.712C100.569 275.712 100.99 275.783 101.406 275.925C101.821 276.067 102.199 276.298 102.54 276.617C102.881 276.933 103.153 277.352 103.355 277.874C103.558 278.396 103.659 279.039 103.659 279.803V280.335H97.352V279.249H102.38C102.38 278.787 102.288 278.375 102.103 278.013C101.922 277.651 101.663 277.365 101.326 277.155C100.992 276.946 100.598 276.841 100.143 276.841C99.6425 276.841 99.2092 276.965 98.8434 277.214C98.4812 277.459 98.2025 277.778 98.0072 278.173C97.8118 278.567 97.7142 278.989 97.7142 279.44V280.165C97.7142 280.783 97.8207 281.306 98.0338 281.736C98.2504 282.162 98.5505 282.487 98.934 282.711C99.3175 282.931 99.7632 283.041 100.271 283.041C100.601 283.041 100.9 282.995 101.166 282.903C101.436 282.807 101.668 282.665 101.864 282.477C102.059 282.285 102.21 282.047 102.316 281.763L103.531 282.104C103.403 282.516 103.188 282.878 102.886 283.19C102.585 283.499 102.212 283.741 101.768 283.915C101.324 284.085 100.825 284.17 100.271 284.17ZM112.797 284.192C112.279 284.192 111.809 284.094 111.386 283.899C110.963 283.7 110.628 283.414 110.379 283.041C110.131 282.665 110.006 282.21 110.006 281.678C110.006 281.209 110.099 280.829 110.283 280.538C110.468 280.243 110.715 280.012 111.024 279.845C111.333 279.678 111.674 279.554 112.046 279.472C112.423 279.387 112.801 279.32 113.181 279.27C113.678 279.206 114.081 279.158 114.39 279.126C114.703 279.091 114.93 279.032 115.072 278.95C115.218 278.869 115.29 278.727 115.29 278.524V278.482C115.29 277.956 115.147 277.548 114.859 277.256C114.575 276.965 114.143 276.82 113.565 276.82C112.964 276.82 112.494 276.951 112.153 277.214C111.812 277.477 111.572 277.757 111.434 278.055L110.241 277.629C110.454 277.132 110.738 276.745 111.093 276.468C111.452 276.187 111.842 275.992 112.265 275.882C112.691 275.768 113.11 275.712 113.522 275.712C113.785 275.712 114.087 275.744 114.427 275.808C114.772 275.868 115.104 275.994 115.424 276.186C115.747 276.377 116.015 276.667 116.228 277.054C116.441 277.441 116.547 277.96 116.547 278.609V284H115.29V282.892H115.226C115.141 283.07 114.999 283.26 114.8 283.462C114.601 283.664 114.337 283.837 114.007 283.979C113.676 284.121 113.273 284.192 112.797 284.192ZM112.989 283.062C113.486 283.062 113.905 282.965 114.246 282.77C114.591 282.574 114.85 282.322 115.024 282.013C115.202 281.704 115.29 281.379 115.29 281.038V279.888C115.237 279.952 115.12 280.01 114.939 280.064C114.761 280.113 114.555 280.158 114.321 280.197C114.09 280.232 113.865 280.264 113.644 280.293C113.428 280.317 113.252 280.339 113.117 280.357C112.79 280.399 112.485 280.468 112.201 280.564C111.92 280.657 111.693 280.797 111.519 280.985C111.349 281.17 111.263 281.422 111.263 281.741C111.263 282.178 111.425 282.509 111.748 282.732C112.075 282.952 112.489 283.062 112.989 283.062ZM120.399 279.078V284H119.142V275.818H120.356V277.097H120.463C120.655 276.681 120.946 276.347 121.337 276.095C121.727 275.839 122.231 275.712 122.849 275.712C123.403 275.712 123.888 275.825 124.304 276.053C124.719 276.276 125.042 276.617 125.273 277.075C125.504 277.53 125.619 278.105 125.619 278.801V284H124.362V278.886C124.362 278.244 124.195 277.743 123.861 277.384C123.528 277.022 123.07 276.841 122.487 276.841C122.086 276.841 121.727 276.928 121.411 277.102C121.099 277.276 120.852 277.53 120.671 277.864C120.49 278.197 120.399 278.602 120.399 279.078ZM131.306 284.17C130.624 284.17 130.022 283.998 129.5 283.654C128.978 283.306 128.57 282.816 128.275 282.184C127.98 281.548 127.833 280.797 127.833 279.93C127.833 279.071 127.98 278.325 128.275 277.693C128.57 277.061 128.98 276.573 129.505 276.228C130.031 275.884 130.638 275.712 131.327 275.712C131.86 275.712 132.281 275.8 132.59 275.978C132.902 276.152 133.14 276.351 133.303 276.575C133.47 276.795 133.6 276.976 133.692 277.118H133.799V273.091H135.056V284H133.841V282.743H133.692C133.6 282.892 133.469 283.08 133.298 283.308C133.128 283.531 132.884 283.732 132.568 283.909C132.252 284.083 131.831 284.17 131.306 284.17ZM131.476 283.041C131.981 283.041 132.407 282.91 132.755 282.647C133.103 282.381 133.367 282.013 133.548 281.544C133.73 281.072 133.82 280.527 133.82 279.909C133.82 279.298 133.731 278.764 133.554 278.306C133.376 277.844 133.113 277.485 132.765 277.23C132.417 276.971 131.988 276.841 131.476 276.841C130.944 276.841 130.5 276.978 130.145 277.251C129.793 277.521 129.529 277.888 129.351 278.354C129.177 278.815 129.09 279.334 129.09 279.909C129.09 280.491 129.179 281.021 129.356 281.496C129.537 281.969 129.804 282.345 130.155 282.626C130.51 282.903 130.951 283.041 131.476 283.041ZM31.696 304.651L30.5668 304.97C30.4957 304.782 30.391 304.599 30.2525 304.422C30.1175 304.24 29.9329 304.091 29.6985 303.974C29.4641 303.857 29.1641 303.798 28.7983 303.798C28.2976 303.798 27.8803 303.914 27.5465 304.145C27.2163 304.372 27.0511 304.661 27.0511 305.013C27.0511 305.325 27.1648 305.572 27.392 305.753C27.6193 305.934 27.9744 306.085 28.4574 306.206L29.6719 306.504C30.4034 306.682 30.9485 306.953 31.3072 307.319C31.6658 307.681 31.8452 308.148 31.8452 308.72C31.8452 309.189 31.7102 309.608 31.4403 309.977C31.174 310.347 30.8011 310.638 30.3217 310.851C29.8423 311.064 29.2848 311.17 28.6491 311.17C27.8146 311.17 27.1239 310.989 26.5771 310.627C26.0302 310.265 25.6839 309.736 25.5384 309.04L26.7315 308.741C26.8452 309.182 27.06 309.512 27.3761 309.732C27.6957 309.952 28.1129 310.062 28.6278 310.062C29.2138 310.062 29.679 309.938 30.0234 309.69C30.3714 309.437 30.5455 309.136 30.5455 308.784C30.5455 308.5 30.446 308.262 30.2472 308.07C30.0483 307.875 29.7429 307.729 29.331 307.634L27.9673 307.314C27.218 307.136 26.6676 306.861 26.3161 306.488C25.968 306.112 25.794 305.641 25.794 305.077C25.794 304.615 25.9237 304.207 26.1829 303.852C26.4457 303.496 26.8026 303.218 27.2536 303.015C27.7081 302.813 28.223 302.712 28.7983 302.712C29.608 302.712 30.2436 302.889 30.7053 303.244C31.1705 303.599 31.5007 304.068 31.696 304.651ZM35.2094 308.017L35.1881 306.462H35.4437L39.0233 302.818H40.5787L36.7648 306.675H36.6582L35.2094 308.017ZM34.0375 311V300.091H35.2946V311H34.0375ZM39.2363 311L36.0403 306.952L36.9352 306.078L40.8344 311H39.2363ZM42.4967 311V302.818H43.7538V311H42.4967ZM43.1359 301.455C42.8908 301.455 42.6795 301.371 42.502 301.204C42.328 301.037 42.241 300.837 42.241 300.602C42.241 300.368 42.328 300.167 42.502 300C42.6795 299.833 42.8908 299.75 43.1359 299.75C43.3809 299.75 43.5904 299.833 43.7644 300C43.942 300.167 44.0308 300.368 44.0308 300.602C44.0308 300.837 43.942 301.037 43.7644 301.204C43.5904 301.371 43.3809 301.455 43.1359 301.455ZM47.6133 300.091V311H46.3562V300.091H47.6133ZM51.4729 300.091V311H50.2158V300.091H51.4729ZM59.8708 304.651L58.7416 304.97C58.6705 304.782 58.5658 304.599 58.4273 304.422C58.2923 304.24 58.1077 304.091 57.8733 303.974C57.6389 303.857 57.3389 303.798 56.9731 303.798C56.4724 303.798 56.0551 303.914 55.7213 304.145C55.3911 304.372 55.2259 304.661 55.2259 305.013C55.2259 305.325 55.3396 305.572 55.5669 305.753C55.7941 305.934 56.1492 306.085 56.6322 306.206L57.8467 306.504C58.5782 306.682 59.1233 306.953 59.482 307.319C59.8406 307.681 60.02 308.148 60.02 308.72C60.02 309.189 59.885 309.608 59.6151 309.977C59.3488 310.347 58.9759 310.638 58.4965 310.851C58.0171 311.064 57.4596 311.17 56.824 311.17C55.9894 311.17 55.2987 310.989 54.7519 310.627C54.205 310.265 53.8588 309.736 53.7132 309.04L54.9063 308.741C55.02 309.182 55.2348 309.512 55.5509 309.732C55.8705 309.952 56.2877 310.062 56.8026 310.062C57.3886 310.062 57.8538 309.938 58.1982 309.69C58.5463 309.437 58.7203 309.136 58.7203 308.784C58.7203 308.5 58.6208 308.262 58.422 308.07C58.2231 307.875 57.9177 307.729 57.5058 307.634L56.1421 307.314C55.3928 307.136 54.8424 306.861 54.4909 306.488C54.1428 306.112 53.9688 305.641 53.9688 305.077C53.9688 304.615 54.0985 304.207 54.3577 303.852C54.6205 303.496 54.9774 303.218 55.4284 303.015C55.8829 302.813 56.3978 302.712 56.9731 302.712C57.7828 302.712 58.4184 302.889 58.8801 303.244C59.3453 303.599 59.6755 304.068 59.8708 304.651ZM70.0336 314.239C69.4263 314.239 68.9043 314.161 68.4675 314.004C68.0308 313.852 67.6668 313.649 67.3756 313.397C67.0879 313.148 66.8589 312.882 66.6884 312.598L67.6898 311.895C67.8035 312.044 67.9473 312.214 68.1213 312.406C68.2953 312.602 68.5332 312.77 68.8351 312.912C69.1405 313.058 69.54 313.131 70.0336 313.131C70.6941 313.131 71.2392 312.971 71.6689 312.651C72.0986 312.332 72.3134 311.831 72.3134 311.149V309.487H72.2069C72.1146 309.636 71.9832 309.821 71.8127 310.041C71.6458 310.258 71.4043 310.451 71.0883 310.622C70.7758 310.789 70.3532 310.872 69.8205 310.872C69.16 310.872 68.567 310.716 68.0414 310.403C67.5194 310.091 67.1057 309.636 66.8003 309.04C66.4984 308.443 66.3475 307.719 66.3475 306.866C66.3475 306.028 66.4949 305.299 66.7896 304.677C67.0844 304.052 67.4945 303.569 68.0201 303.228C68.5457 302.884 69.1529 302.712 69.8418 302.712C70.3745 302.712 70.7971 302.8 71.1096 302.978C71.4256 303.152 71.6671 303.351 71.834 303.575C72.0045 303.795 72.1359 303.976 72.2282 304.118H72.356V302.818H73.5705V311.234C73.5705 311.938 73.4107 312.509 73.0911 312.95C72.7751 313.393 72.3489 313.718 71.8127 313.924C71.28 314.134 70.687 314.239 70.0336 314.239ZM69.991 309.743C70.4952 309.743 70.9214 309.627 71.2694 309.397C71.6174 309.166 71.882 308.834 72.0631 308.401C72.2442 307.967 72.3347 307.449 72.3347 306.845C72.3347 306.256 72.246 305.735 72.0684 305.284C71.8908 304.833 71.6281 304.48 71.28 304.224C70.932 303.969 70.5023 303.841 69.991 303.841C69.4583 303.841 69.0144 303.976 68.6593 304.246C68.3077 304.516 68.0432 304.878 67.8656 305.332C67.6916 305.787 67.6046 306.291 67.6046 306.845C67.6046 307.413 67.6934 307.916 67.871 308.353C68.0521 308.786 68.3184 309.127 68.67 309.375C69.0251 309.62 69.4654 309.743 69.991 309.743ZM78.5793 311.192C78.0609 311.192 77.5903 311.094 77.1678 310.899C76.7452 310.7 76.4096 310.414 76.161 310.041C75.9124 309.665 75.7881 309.21 75.7881 308.678C75.7881 308.209 75.8805 307.829 76.0651 307.538C76.2498 307.243 76.4966 307.012 76.8055 306.845C77.1145 306.678 77.4554 306.554 77.8283 306.472C78.2047 306.387 78.5829 306.32 78.9629 306.27C79.46 306.206 79.8631 306.158 80.172 306.126C80.4845 306.091 80.7118 306.032 80.8538 305.95C80.9994 305.869 81.0722 305.727 81.0722 305.524V305.482C81.0722 304.956 80.9284 304.548 80.6408 304.256C80.3567 303.965 79.9252 303.82 79.3464 303.82C78.7462 303.82 78.2757 303.951 77.9348 304.214C77.5939 304.477 77.3542 304.757 77.2157 305.055L76.0225 304.629C76.2356 304.132 76.5197 303.745 76.8748 303.468C77.2335 303.187 77.6241 302.992 78.0467 302.882C78.4728 302.768 78.8918 302.712 79.3038 302.712C79.5665 302.712 79.8684 302.744 80.2093 302.808C80.5538 302.868 80.8858 302.994 81.2054 303.186C81.5286 303.377 81.7967 303.667 82.0097 304.054C82.2228 304.441 82.3293 304.96 82.3293 305.609V311H81.0722V309.892H81.0083C80.9231 310.07 80.781 310.26 80.5822 310.462C80.3833 310.664 80.1188 310.837 79.7885 310.979C79.4582 311.121 79.0552 311.192 78.5793 311.192ZM78.7711 310.062C79.2683 310.062 79.6873 309.965 80.0282 309.77C80.3727 309.574 80.6319 309.322 80.8059 309.013C80.9835 308.704 81.0722 308.379 81.0722 308.038V306.888C81.019 306.952 80.9018 307.01 80.7207 307.064C80.5431 307.113 80.3371 307.158 80.1028 307.197C79.8719 307.232 79.6465 307.264 79.4263 307.293C79.2097 307.317 79.0339 307.339 78.8989 307.357C78.5722 307.399 78.2668 307.468 77.9827 307.564C77.7022 307.657 77.4749 307.797 77.3009 307.985C77.1305 308.17 77.0452 308.422 77.0452 308.741C77.0452 309.178 77.2068 309.509 77.53 309.732C77.8567 309.952 78.2704 310.062 78.7711 310.062ZM84.9238 311V302.818H86.1809V311H84.9238ZM85.563 301.455C85.318 301.455 85.1067 301.371 84.9291 301.204C84.7551 301.037 84.6681 300.837 84.6681 300.602C84.6681 300.368 84.7551 300.167 84.9291 300C85.1067 299.833 85.318 299.75 85.563 299.75C85.808 299.75 86.0176 299.833 86.1916 300C86.3691 300.167 86.4579 300.368 86.4579 300.602C86.4579 300.837 86.3691 301.037 86.1916 301.204C86.0176 301.371 85.808 301.455 85.563 301.455ZM90.0405 306.078V311H88.7834V302.818H89.9979V304.097H90.1044C90.2962 303.681 90.5874 303.347 90.978 303.095C91.3686 302.839 91.8729 302.712 92.4908 302.712C93.0447 302.712 93.5295 302.825 93.945 303.053C94.3604 303.276 94.6836 303.617 94.9144 304.075C95.1452 304.53 95.2607 305.105 95.2607 305.801V311H94.0036V305.886C94.0036 305.244 93.8366 304.743 93.5028 304.384C93.169 304.022 92.7109 303.841 92.1286 303.841C91.7273 303.841 91.3686 303.928 91.0526 304.102C90.7401 304.276 90.4933 304.53 90.3121 304.864C90.131 305.197 90.0405 305.602 90.0405 306.078ZM101.288 311.17C100.5 311.17 99.8198 310.996 99.2481 310.648C98.6799 310.297 98.2413 309.807 97.9324 309.178C97.627 308.546 97.4743 307.811 97.4743 306.973C97.4743 306.135 97.627 305.396 97.9324 304.757C98.2413 304.114 98.671 303.614 99.2214 303.255C99.7754 302.893 100.422 302.712 101.16 302.712C101.586 302.712 102.007 302.783 102.423 302.925C102.838 303.067 103.216 303.298 103.557 303.617C103.898 303.933 104.17 304.352 104.372 304.874C104.575 305.396 104.676 306.039 104.676 306.803V307.335H98.3692V306.249H103.398C103.398 305.787 103.305 305.375 103.121 305.013C102.939 304.651 102.68 304.365 102.343 304.155C102.009 303.946 101.615 303.841 101.16 303.841C100.66 303.841 100.226 303.965 99.8606 304.214C99.4984 304.459 99.2197 304.778 99.0243 305.173C98.829 305.567 98.7314 305.989 98.7314 306.44V307.165C98.7314 307.783 98.8379 308.306 99.051 308.736C99.2676 309.162 99.5677 309.487 99.9512 309.711C100.335 309.931 100.78 310.041 101.288 310.041C101.618 310.041 101.917 309.995 102.183 309.903C102.453 309.807 102.686 309.665 102.881 309.477C103.076 309.285 103.227 309.047 103.334 308.763L104.548 309.104C104.42 309.516 104.205 309.878 103.904 310.19C103.602 310.499 103.229 310.741 102.785 310.915C102.341 311.085 101.842 311.17 101.288 311.17ZM109.978 311.17C109.296 311.17 108.694 310.998 108.172 310.654C107.65 310.306 107.242 309.816 106.947 309.184C106.652 308.548 106.505 307.797 106.505 306.93C106.505 306.071 106.652 305.325 106.947 304.693C107.242 304.061 107.652 303.573 108.177 303.228C108.703 302.884 109.31 302.712 109.999 302.712C110.532 302.712 110.953 302.8 111.261 302.978C111.574 303.152 111.812 303.351 111.975 303.575C112.142 303.795 112.272 303.976 112.364 304.118H112.471V300.091H113.728V311H112.513V309.743H112.364C112.272 309.892 112.14 310.08 111.97 310.308C111.799 310.531 111.556 310.732 111.24 310.909C110.924 311.083 110.503 311.17 109.978 311.17ZM110.148 310.041C110.652 310.041 111.079 309.91 111.427 309.647C111.775 309.381 112.039 309.013 112.22 308.544C112.401 308.072 112.492 307.527 112.492 306.909C112.492 306.298 112.403 305.764 112.226 305.306C112.048 304.844 111.785 304.485 111.437 304.23C111.089 303.971 110.66 303.841 110.148 303.841C109.616 303.841 109.172 303.978 108.817 304.251C108.465 304.521 108.2 304.888 108.023 305.354C107.849 305.815 107.762 306.334 107.762 306.909C107.762 307.491 107.851 308.021 108.028 308.496C108.209 308.969 108.476 309.345 108.827 309.626C109.182 309.903 109.623 310.041 110.148 310.041ZM117.421 311.085C117.158 311.085 116.933 310.991 116.744 310.803C116.556 310.615 116.462 310.389 116.462 310.126C116.462 309.864 116.556 309.638 116.744 309.45C116.933 309.262 117.158 309.168 117.421 309.168C117.684 309.168 117.909 309.262 118.097 309.45C118.286 309.638 118.38 309.864 118.38 310.126C118.38 310.3 118.335 310.46 118.247 310.606C118.161 310.751 118.046 310.869 117.9 310.957C117.758 311.043 117.598 311.085 117.421 311.085ZM121.852 311.085C121.589 311.085 121.363 310.991 121.175 310.803C120.987 310.615 120.893 310.389 120.893 310.126C120.893 309.864 120.987 309.638 121.175 309.45C121.363 309.262 121.589 309.168 121.852 309.168C122.115 309.168 122.34 309.262 122.528 309.45C122.716 309.638 122.811 309.864 122.811 310.126C122.811 310.3 122.766 310.46 122.677 310.606C122.592 310.751 122.477 310.869 122.331 310.957C122.189 311.043 122.029 311.085 121.852 311.085ZM126.283 311.085C126.02 311.085 125.794 310.991 125.606 310.803C125.418 310.615 125.324 310.389 125.324 310.126C125.324 309.864 125.418 309.638 125.606 309.45C125.794 309.262 126.02 309.168 126.283 309.168C126.545 309.168 126.771 309.262 126.959 309.45C127.147 309.638 127.241 309.864 127.241 310.126C127.241 310.3 127.197 310.46 127.108 310.606C127.023 310.751 126.908 310.869 126.762 310.957C126.62 311.043 126.46 311.085 126.283 311.085Z" fill="#1A2434"/>
<defs>
<clipPath id="clip0_420_1085">
<rect width="80" height="80" fill="white" transform="translate(24.75 25)"/>
</clipPath>
</defs>
</svg>
