<svg width="193" height="327" viewBox="0 0 193 327" fill="none" xmlns="http://www.w3.org/2000/svg">
<rect x="1.25" y="1" width="190.75" height="325" rx="10" fill="white"/>
<rect x="1.25" y="1" width="190.75" height="325" rx="10" stroke="#F9FCFF"/>
<g clip-path="url(#clip0_420_1054)">
<path opacity="0.2" d="M90.25 40H40.25C38.9239 40 37.6521 40.5268 36.7145 41.4645C35.7768 42.4021 35.25 43.6739 35.25 45V80C35.25 81.3261 35.7768 82.5979 36.7145 83.5355C37.6521 84.4732 38.9239 85 40.25 85H90.25C91.5761 85 92.8479 84.4732 93.7855 83.5355C94.7232 82.5979 95.25 81.3261 95.25 80V45C95.25 43.6739 94.7232 42.4021 93.7855 41.4645C92.8479 40.5268 91.5761 40 90.25 40ZM60.25 72.5V52.5L75.25 62.5L60.25 72.5Z" fill="#0061B1"/>
<path d="M40.25 85H90.25C93.0114 85 95.25 82.7614 95.25 80V45C95.25 42.2386 93.0114 40 90.25 40L40.25 40C37.4886 40 35.25 42.2386 35.25 45L35.25 80C35.25 82.7614 37.4886 85 40.25 85Z" stroke="#0061B1" stroke-width="2" stroke-linecap="round" stroke-linejoin="round"/>
<path d="M75.25 95H55.25" stroke="#0061B1" stroke-width="2" stroke-linecap="round" stroke-linejoin="round"/>
<path d="M75.25 62.5L60.25 52.5V72.5L75.25 62.5Z" stroke="#0061B1" stroke-width="2" stroke-linecap="round" stroke-linejoin="round"/>
</g>
<path d="M27.098 153V135.12H29.93V153H27.098ZM33.3731 153V140.016H35.9651V142.56L35.6531 142.224C35.9731 141.408 36.4851 140.792 37.1891 140.376C37.8931 139.944 38.7091 139.728 39.6371 139.728C40.5971 139.728 41.4451 139.936 42.1811 140.352C42.9171 140.768 43.4931 141.344 43.9091 142.08C44.3251 142.816 44.5331 143.664 44.5331 144.624V153H41.8451V145.344C41.8451 144.688 41.7251 144.136 41.4851 143.688C41.2451 143.224 40.9011 142.872 40.4531 142.632C40.0211 142.376 39.5251 142.248 38.9651 142.248C38.4051 142.248 37.9011 142.376 37.4531 142.632C37.0211 142.872 36.6851 143.224 36.4451 143.688C36.2051 144.152 36.0851 144.704 36.0851 145.344V153H33.3731ZM53.0516 153.144C51.6916 153.144 50.6356 152.76 49.8836 151.992C49.1316 151.224 48.7556 150.144 48.7556 148.752V142.464H46.4756V140.016H46.8356C47.4436 140.016 47.9156 139.84 48.2516 139.488C48.5876 139.136 48.7556 138.656 48.7556 138.048V137.04H51.4676V140.016H54.4196V142.464H51.4676V148.632C51.4676 149.08 51.5396 149.464 51.6836 149.784C51.8276 150.088 52.0596 150.328 52.3796 150.504C52.6996 150.664 53.1156 150.744 53.6276 150.744C53.7556 150.744 53.8996 150.736 54.0596 150.72C54.2196 150.704 54.3716 150.688 54.5156 150.672V153C54.2916 153.032 54.0436 153.064 53.7716 153.096C53.4996 153.128 53.2596 153.144 53.0516 153.144ZM63.0238 153.288C61.7278 153.288 60.5758 152.992 59.5678 152.4C58.5758 151.792 57.7998 150.976 57.2398 149.952C56.6798 148.912 56.3998 147.752 56.3998 146.472C56.3998 145.16 56.6798 144 57.2398 142.992C57.8158 141.984 58.5838 141.192 59.5438 140.616C60.5038 140.024 61.5918 139.728 62.8078 139.728C63.7838 139.728 64.6558 139.896 65.4238 140.232C66.1918 140.568 66.8398 141.032 67.3678 141.624C67.8958 142.2 68.2958 142.864 68.5677 143.616C68.8558 144.368 68.9998 145.168 68.9998 146.016C68.9998 146.224 68.9918 146.44 68.9758 146.664C68.9598 146.888 68.9278 147.096 68.8798 147.288H58.5358V145.128H67.3438L66.0478 146.112C66.2078 145.328 66.1518 144.632 65.8798 144.024C65.6238 143.4 65.2238 142.912 64.6798 142.56C64.1518 142.192 63.5278 142.008 62.8078 142.008C62.0878 142.008 61.4478 142.192 60.8878 142.56C60.3278 142.912 59.8958 143.424 59.5918 144.096C59.2878 144.752 59.1678 145.552 59.2318 146.496C59.1518 147.376 59.2718 148.144 59.5918 148.8C59.9278 149.456 60.3918 149.968 60.9838 150.336C61.5918 150.704 62.2798 150.888 63.0478 150.888C63.8318 150.888 64.4958 150.712 65.0398 150.36C65.5998 150.008 66.0398 149.552 66.3598 148.992L68.5677 150.072C68.3118 150.68 67.9118 151.232 67.3678 151.728C66.8398 152.208 66.1998 152.592 65.4478 152.88C64.7118 153.152 63.9038 153.288 63.0238 153.288ZM71.6465 153V140.016H74.2385V142.632L73.9985 142.248C74.2865 141.4 74.7505 140.792 75.3905 140.424C76.0305 140.04 76.7985 139.848 77.6945 139.848H78.4865V142.32H77.3585C76.4625 142.32 75.7345 142.6 75.1745 143.16C74.6305 143.704 74.3585 144.488 74.3585 145.512V153H71.6465ZM84.2298 153.288C83.3498 153.288 82.5738 153.136 81.9018 152.832C81.2458 152.512 80.7338 152.08 80.3658 151.536C79.9978 150.976 79.8138 150.32 79.8138 149.568C79.8138 148.864 79.9658 148.232 80.2698 147.672C80.5898 147.112 81.0778 146.64 81.7338 146.256C82.3898 145.872 83.2138 145.6 84.2058 145.44L88.7178 144.696V146.832L84.7338 147.528C84.0138 147.656 83.4858 147.888 83.1498 148.224C82.8138 148.544 82.6458 148.96 82.6458 149.472C82.6458 149.968 82.8298 150.376 83.1978 150.696C83.5818 151 84.0698 151.152 84.6618 151.152C85.3978 151.152 86.0378 150.992 86.5818 150.672C87.1418 150.352 87.5738 149.928 87.8778 149.4C88.1818 148.856 88.3338 148.256 88.3338 147.6V144.264C88.3338 143.624 88.0938 143.104 87.6138 142.704C87.1498 142.288 86.5258 142.08 85.7418 142.08C85.0218 142.08 84.3898 142.272 83.8458 142.656C83.3178 143.024 82.9258 143.504 82.6698 144.096L80.4138 142.968C80.6538 142.328 81.0458 141.768 81.5898 141.288C82.1338 140.792 82.7658 140.408 83.4858 140.136C84.2218 139.864 84.9978 139.728 85.8138 139.728C86.8378 139.728 87.7418 139.92 88.5258 140.304C89.3258 140.688 89.9418 141.224 90.3738 141.912C90.8218 142.584 91.0458 143.368 91.0458 144.264V153H88.4538V150.648L89.0058 150.72C88.7018 151.248 88.3098 151.704 87.8298 152.088C87.3658 152.472 86.8298 152.768 86.2218 152.976C85.6298 153.184 84.9658 153.288 84.2298 153.288ZM100.385 153.288C99.0888 153.288 97.9368 152.992 96.9288 152.4C95.9368 151.792 95.1448 150.976 94.5528 149.952C93.9768 148.928 93.6888 147.768 93.6888 146.472C93.6888 145.192 93.9768 144.04 94.5528 143.016C95.1288 141.992 95.9208 141.192 96.9288 140.616C97.9368 140.024 99.0888 139.728 100.385 139.728C101.265 139.728 102.089 139.888 102.857 140.208C103.625 140.512 104.289 140.936 104.849 141.48C105.425 142.024 105.849 142.656 106.121 143.376L103.745 144.48C103.473 143.808 103.033 143.272 102.425 142.872C101.833 142.456 101.153 142.248 100.385 142.248C99.6488 142.248 98.9848 142.432 98.3928 142.8C97.8168 143.152 97.3608 143.656 97.0248 144.312C96.6888 144.952 96.5208 145.68 96.5208 146.496C96.5208 147.312 96.6888 148.048 97.0248 148.704C97.3608 149.344 97.8168 149.848 98.3928 150.216C98.9848 150.584 99.6488 150.768 100.385 150.768C101.169 150.768 101.849 150.568 102.425 150.168C103.017 149.752 103.457 149.2 103.745 148.512L106.121 149.64C105.865 150.328 105.449 150.952 104.873 151.512C104.313 152.056 103.649 152.488 102.881 152.808C102.113 153.128 101.281 153.288 100.385 153.288ZM114.388 153.144C113.028 153.144 111.972 152.76 111.22 151.992C110.468 151.224 110.092 150.144 110.092 148.752V142.464H107.812V140.016H108.172C108.78 140.016 109.252 139.84 109.588 139.488C109.924 139.136 110.092 138.656 110.092 138.048V137.04H112.804V140.016H115.756V142.464H112.804V148.632C112.804 149.08 112.876 149.464 113.02 149.784C113.164 150.088 113.396 150.328 113.716 150.504C114.036 150.664 114.452 150.744 114.964 150.744C115.092 150.744 115.236 150.736 115.396 150.72C115.556 150.704 115.708 150.688 115.852 150.672V153C115.628 153.032 115.38 153.064 115.108 153.096C114.836 153.128 114.596 153.144 114.388 153.144ZM118.498 153V140.016H121.21V153H118.498ZM118.498 138.24V135.12H121.21V138.24H118.498ZM128.149 153L123.061 140.016H126.013L129.925 150.6H128.845L132.757 140.016H135.733L130.621 153H128.149ZM143.438 153.288C142.142 153.288 140.99 152.992 139.982 152.4C138.99 151.792 138.214 150.976 137.654 149.952C137.094 148.912 136.814 147.752 136.814 146.472C136.814 145.16 137.094 144 137.654 142.992C138.23 141.984 138.998 141.192 139.958 140.616C140.918 140.024 142.006 139.728 143.222 139.728C144.198 139.728 145.07 139.896 145.838 140.232C146.606 140.568 147.254 141.032 147.782 141.624C148.31 142.2 148.71 142.864 148.982 143.616C149.27 144.368 149.414 145.168 149.414 146.016C149.414 146.224 149.406 146.44 149.39 146.664C149.374 146.888 149.342 147.096 149.294 147.288H138.95V145.128H147.758L146.462 146.112C146.622 145.328 146.566 144.632 146.294 144.024C146.038 143.4 145.638 142.912 145.094 142.56C144.566 142.192 143.942 142.008 143.222 142.008C142.502 142.008 141.862 142.192 141.302 142.56C140.742 142.912 140.31 143.424 140.006 144.096C139.702 144.752 139.582 145.552 139.646 146.496C139.566 147.376 139.686 148.144 140.006 148.8C140.342 149.456 140.806 149.968 141.398 150.336C142.006 150.704 142.694 150.888 143.462 150.888C144.246 150.888 144.91 150.712 145.454 150.36C146.014 150.008 146.454 149.552 146.774 148.992L148.982 150.072C148.726 150.68 148.326 151.232 147.782 151.728C147.254 152.208 146.614 152.592 145.862 152.88C145.126 153.152 144.318 153.288 143.438 153.288ZM27.098 182V164.12H29.93V179.48H37.658V182H27.098ZM45.8675 182.288C44.5715 182.288 43.4195 181.992 42.4115 181.4C41.4195 180.792 40.6435 179.976 40.0835 178.952C39.5235 177.912 39.2435 176.752 39.2435 175.472C39.2435 174.16 39.5235 173 40.0835 171.992C40.6595 170.984 41.4275 170.192 42.3875 169.616C43.3475 169.024 44.4355 168.728 45.6515 168.728C46.6275 168.728 47.4995 168.896 48.2675 169.232C49.0355 169.568 49.6835 170.032 50.2115 170.624C50.7395 171.2 51.1395 171.864 51.4115 172.616C51.6995 173.368 51.8435 174.168 51.8435 175.016C51.8435 175.224 51.8355 175.44 51.8195 175.664C51.8035 175.888 51.7715 176.096 51.7235 176.288H41.3795V174.128H50.1875L48.8915 175.112C49.0515 174.328 48.9955 173.632 48.7235 173.024C48.4675 172.4 48.0675 171.912 47.5235 171.56C46.9955 171.192 46.3715 171.008 45.6515 171.008C44.9315 171.008 44.2915 171.192 43.7315 171.56C43.1715 171.912 42.7395 172.424 42.4355 173.096C42.1315 173.752 42.0115 174.552 42.0755 175.496C41.9955 176.376 42.1155 177.144 42.4355 177.8C42.7715 178.456 43.2355 178.968 43.8275 179.336C44.4355 179.704 45.1235 179.888 45.8915 179.888C46.6755 179.888 47.3395 179.712 47.8835 179.36C48.4435 179.008 48.8835 178.552 49.2035 177.992L51.4115 179.072C51.1555 179.68 50.7555 180.232 50.2115 180.728C49.6835 181.208 49.0435 181.592 48.2915 181.88C47.5555 182.152 46.7475 182.288 45.8675 182.288ZM58.2611 182.288C57.3811 182.288 56.6051 182.136 55.9331 181.832C55.2771 181.512 54.7651 181.08 54.3971 180.536C54.0291 179.976 53.8451 179.32 53.8451 178.568C53.8451 177.864 53.9971 177.232 54.3011 176.672C54.6211 176.112 55.1091 175.64 55.7651 175.256C56.4211 174.872 57.2451 174.6 58.2371 174.44L62.7491 173.696V175.832L58.7651 176.528C58.0451 176.656 57.5171 176.888 57.1811 177.224C56.8451 177.544 56.6771 177.96 56.6771 178.472C56.6771 178.968 56.8611 179.376 57.2291 179.696C57.6131 180 58.1011 180.152 58.6931 180.152C59.4291 180.152 60.0691 179.992 60.6131 179.672C61.1731 179.352 61.6051 178.928 61.9091 178.4C62.2131 177.856 62.3651 177.256 62.3651 176.6V173.264C62.3651 172.624 62.1251 172.104 61.6451 171.704C61.1811 171.288 60.5571 171.08 59.7731 171.08C59.0531 171.08 58.4211 171.272 57.8771 171.656C57.3491 172.024 56.9571 172.504 56.7011 173.096L54.4451 171.968C54.6851 171.328 55.0771 170.768 55.6211 170.288C56.1651 169.792 56.7971 169.408 57.5171 169.136C58.2531 168.864 59.0291 168.728 59.8451 168.728C60.8691 168.728 61.7731 168.92 62.5571 169.304C63.3571 169.688 63.9731 170.224 64.4051 170.912C64.8531 171.584 65.0771 172.368 65.0771 173.264V182H62.4851V179.648L63.0371 179.72C62.7331 180.248 62.3411 180.704 61.8611 181.088C61.3971 181.472 60.8611 181.768 60.2531 181.976C59.6611 182.184 58.9971 182.288 58.2611 182.288ZM68.2481 182V169.016H70.8401V171.632L70.6001 171.248C70.8881 170.4 71.3521 169.792 71.9921 169.424C72.6321 169.04 73.4001 168.848 74.2961 168.848H75.0881V171.32H73.9601C73.0641 171.32 72.3361 171.6 71.7761 172.16C71.2321 172.704 70.9601 173.488 70.9601 174.512V182H68.2481ZM76.9434 182V169.016H79.5354V171.56L79.2234 171.224C79.5434 170.408 80.0554 169.792 80.7594 169.376C81.4634 168.944 82.2794 168.728 83.2074 168.728C84.1674 168.728 85.0154 168.936 85.7514 169.352C86.4874 169.768 87.0634 170.344 87.4794 171.08C87.8954 171.816 88.1034 172.664 88.1034 173.624V182H85.4154V174.344C85.4154 173.688 85.2954 173.136 85.0554 172.688C84.8154 172.224 84.4714 171.872 84.0234 171.632C83.5914 171.376 83.0954 171.248 82.5354 171.248C81.9754 171.248 81.4714 171.376 81.0234 171.632C80.5914 171.872 80.2554 172.224 80.0154 172.688C79.7754 173.152 79.6554 173.704 79.6554 174.344V182H76.9434ZM91.0059 182V169.016H93.7179V182H91.0059ZM91.0059 167.24V164.12H93.7179V167.24H91.0059ZM96.8887 182V169.016H99.4807V171.56L99.1687 171.224C99.4887 170.408 100.001 169.792 100.705 169.376C101.409 168.944 102.225 168.728 103.153 168.728C104.113 168.728 104.961 168.936 105.697 169.352C106.433 169.768 107.009 170.344 107.425 171.08C107.841 171.816 108.049 172.664 108.049 173.624V182H105.361V174.344C105.361 173.688 105.241 173.136 105.001 172.688C104.761 172.224 104.417 171.872 103.969 171.632C103.537 171.376 103.041 171.248 102.481 171.248C101.921 171.248 101.417 171.376 100.969 171.632C100.537 171.872 100.201 172.224 99.9607 172.688C99.7207 173.152 99.6007 173.704 99.6007 174.344V182H96.8887ZM117.215 187.28C116.271 187.28 115.399 187.128 114.599 186.824C113.799 186.52 113.111 186.096 112.535 185.552C111.959 185.024 111.527 184.4 111.239 183.68L113.735 182.648C113.959 183.256 114.367 183.76 114.959 184.16C115.567 184.56 116.311 184.76 117.191 184.76C117.879 184.76 118.495 184.624 119.039 184.352C119.583 184.096 120.015 183.712 120.335 183.2C120.655 182.704 120.815 182.104 120.815 181.4V178.472L121.295 179.024C120.847 179.856 120.223 180.488 119.423 180.92C118.639 181.352 117.751 181.568 116.759 181.568C115.559 181.568 114.479 181.288 113.519 180.728C112.559 180.168 111.799 179.4 111.239 178.424C110.695 177.448 110.423 176.352 110.423 175.136C110.423 173.904 110.695 172.808 111.239 171.848C111.799 170.888 112.551 170.128 113.495 169.568C114.439 169.008 115.519 168.728 116.735 168.728C117.727 168.728 118.607 168.944 119.375 169.376C120.159 169.792 120.799 170.4 121.295 171.2L120.935 171.872V169.016H123.503V181.4C123.503 182.52 123.231 183.52 122.687 184.4C122.159 185.296 121.423 186 120.479 186.512C119.535 187.024 118.447 187.28 117.215 187.28ZM117.071 179.048C117.791 179.048 118.431 178.88 118.991 178.544C119.551 178.192 119.991 177.728 120.311 177.152C120.647 176.56 120.815 175.896 120.815 175.16C120.815 174.424 120.647 173.76 120.311 173.168C119.975 172.576 119.527 172.112 118.967 171.776C118.407 171.424 117.775 171.248 117.071 171.248C116.335 171.248 115.679 171.424 115.103 171.776C114.527 172.112 114.071 172.576 113.735 173.168C113.415 173.744 113.255 174.408 113.255 175.16C113.255 175.88 113.415 176.536 113.735 177.128C114.071 177.72 114.527 178.192 115.103 178.544C115.679 178.88 116.335 179.048 117.071 179.048Z" fill="#0061B1"/>
<path opacity="0.7" d="M26.571 230V219.091H33.1548V220.263H27.892V223.949H32.8139V225.121H27.892V228.828H33.2401V230H26.571ZM35.6654 230V221.818H36.8799V223.097H36.9864C37.1569 222.66 37.4321 222.321 37.8121 222.079C38.192 221.834 38.6484 221.712 39.181 221.712C39.7208 221.712 40.17 221.834 40.5287 222.079C40.8909 222.321 41.1732 222.66 41.3756 223.097H41.4609C41.6704 222.674 41.9847 222.338 42.4037 222.09C42.8227 221.838 43.3252 221.712 43.9112 221.712C44.6427 221.712 45.2411 221.941 45.7063 222.399C46.1714 222.853 46.404 223.562 46.404 224.524V230H45.1469V224.524C45.1469 223.92 44.9818 223.489 44.6516 223.23C44.3213 222.971 43.9325 222.841 43.485 222.841C42.9097 222.841 42.4641 223.015 42.148 223.363C41.832 223.707 41.6739 224.144 41.6739 224.673V230H40.3955V224.396C40.3955 223.931 40.2446 223.556 39.9428 223.272C39.6409 222.985 39.2521 222.841 38.7762 222.841C38.4495 222.841 38.1441 222.928 37.86 223.102C37.5795 223.276 37.3522 223.517 37.1782 223.826C37.0077 224.132 36.9225 224.485 36.9225 224.886V230H35.6654ZM49.0025 233.068V221.818H50.217V223.118H50.3662C50.4585 222.976 50.5863 222.795 50.7497 222.575C50.9166 222.351 51.1545 222.152 51.4635 221.978C51.776 221.8 52.1985 221.712 52.7312 221.712C53.4201 221.712 54.0274 221.884 54.5529 222.228C55.0785 222.573 55.4887 223.061 55.7834 223.693C56.0782 224.325 56.2255 225.071 56.2255 225.93C56.2255 226.797 56.0782 227.548 55.7834 228.184C55.4887 228.816 55.0803 229.306 54.5583 229.654C54.0363 229.998 53.4343 230.17 52.7525 230.17C52.227 230.17 51.8061 230.083 51.4901 229.909C51.174 229.732 50.9308 229.531 50.7603 229.308C50.5899 229.08 50.4585 228.892 50.3662 228.743H50.2596V233.068H49.0025ZM50.2383 225.909C50.2383 226.527 50.3289 227.072 50.51 227.544C50.6911 228.013 50.9556 228.381 51.3037 228.647C51.6517 228.91 52.0778 229.041 52.5821 229.041C53.1076 229.041 53.5462 228.903 53.8978 228.626C54.2529 228.345 54.5192 227.969 54.6968 227.496C54.8779 227.021 54.9684 226.491 54.9684 225.909C54.9684 225.334 54.8797 224.815 54.7021 224.354C54.5281 223.888 54.2635 223.521 53.9084 223.251C53.5569 222.978 53.1147 222.841 52.5821 222.841C52.0707 222.841 51.641 222.971 51.293 223.23C50.945 223.485 50.6822 223.844 50.5047 224.306C50.3271 224.764 50.2383 225.298 50.2383 225.909ZM61.767 230.17C61.0284 230.17 60.3803 229.995 59.8228 229.643C59.2688 229.292 58.8355 228.8 58.523 228.168C58.2141 227.536 58.0596 226.797 58.0596 225.952C58.0596 225.099 58.2141 224.355 58.523 223.72C58.8355 223.084 59.2688 222.591 59.8228 222.239C60.3803 221.887 61.0284 221.712 61.767 221.712C62.5056 221.712 63.152 221.887 63.7059 222.239C64.2635 222.591 64.6967 223.084 65.0056 223.72C65.3181 224.355 65.4744 225.099 65.4744 225.952C65.4744 226.797 65.3181 227.536 65.0056 228.168C64.6967 228.8 64.2635 229.292 63.7059 229.643C63.152 229.995 62.5056 230.17 61.767 230.17ZM61.767 229.041C62.3281 229.041 62.7897 228.897 63.152 228.61C63.5142 228.322 63.7823 227.944 63.9563 227.475C64.1303 227.006 64.2173 226.499 64.2173 225.952C64.2173 225.405 64.1303 224.895 63.9563 224.423C63.7823 223.951 63.5142 223.569 63.152 223.278C62.7897 222.987 62.3281 222.841 61.767 222.841C61.2059 222.841 60.7443 222.987 60.3821 223.278C60.0199 223.569 59.7517 223.951 59.5777 224.423C59.4037 224.895 59.3167 225.405 59.3167 225.952C59.3167 226.499 59.4037 227.006 59.5777 227.475C59.7517 227.944 60.0199 228.322 60.3821 228.61C60.7443 228.897 61.2059 229.041 61.767 229.041ZM69.2687 230L66.7758 221.818H68.0968L69.8653 228.082H69.9505L71.6977 221.818H73.04L74.7659 228.061H74.8511L76.6196 221.818H77.9406L75.4477 230H74.2119L72.4221 223.714H72.2943L70.5045 230H69.2687ZM83.0546 230.17C82.2662 230.17 81.5862 229.996 81.0145 229.648C80.4463 229.297 80.0077 228.807 79.6988 228.178C79.3934 227.546 79.2407 226.811 79.2407 225.973C79.2407 225.135 79.3934 224.396 79.6988 223.757C80.0077 223.114 80.4374 222.614 80.9878 222.255C81.5418 221.893 82.1881 221.712 82.9268 221.712C83.3529 221.712 83.7737 221.783 84.1892 221.925C84.6047 222.067 84.9829 222.298 85.3238 222.617C85.6647 222.933 85.9363 223.352 86.1388 223.874C86.3412 224.396 86.4424 225.039 86.4424 225.803V226.335H80.1356V225.249H85.164C85.164 224.787 85.0716 224.375 84.887 224.013C84.7059 223.651 84.4466 223.365 84.1093 223.155C83.7755 222.946 83.3813 222.841 82.9268 222.841C82.426 222.841 81.9928 222.965 81.627 223.214C81.2648 223.459 80.9861 223.778 80.7907 224.173C80.5954 224.567 80.4978 224.989 80.4978 225.44V226.165C80.4978 226.783 80.6043 227.306 80.8174 227.736C81.034 228.162 81.3341 228.487 81.7176 228.711C82.1011 228.931 82.5468 229.041 83.0546 229.041C83.3849 229.041 83.6832 228.995 83.9495 228.903C84.2194 228.807 84.452 228.665 84.6473 228.477C84.8426 228.285 84.9935 228.047 85.1001 227.763L86.3145 228.104C86.1867 228.516 85.9719 228.878 85.67 229.19C85.3682 229.499 84.9953 229.741 84.5514 229.915C84.1075 230.085 83.6086 230.17 83.0546 230.17ZM88.6547 230V221.818H89.8692V223.054H89.9544C90.1035 222.649 90.3734 222.321 90.764 222.069C91.1547 221.816 91.595 221.69 92.0851 221.69C92.1774 221.69 92.2928 221.692 92.4313 221.696C92.5698 221.699 92.6746 221.705 92.7456 221.712V222.99C92.703 222.979 92.6053 222.963 92.4526 222.942C92.3035 222.917 92.1454 222.905 91.9785 222.905C91.5808 222.905 91.2257 222.988 90.9132 223.155C90.6042 223.319 90.3592 223.546 90.1781 223.837C90.0005 224.125 89.9118 224.453 89.9118 224.822V230H88.6547ZM99.8641 233.068C99.6511 233.068 99.4611 233.05 99.2942 233.015C99.1273 232.983 99.0119 232.951 98.9479 232.919L99.2675 231.811C99.5729 231.889 99.8428 231.918 100.077 231.896C100.312 231.875 100.519 231.77 100.7 231.582C100.885 231.397 101.054 231.097 101.206 230.682L101.441 230.043L98.4153 221.818H99.7789L102.037 228.338H102.123L104.381 221.818H105.745L102.272 231.193C102.116 231.616 101.922 231.966 101.691 232.243C101.46 232.523 101.192 232.731 100.887 232.866C100.585 233.001 100.244 233.068 99.8641 233.068ZM110.735 230.17C109.996 230.17 109.348 229.995 108.791 229.643C108.237 229.292 107.804 228.8 107.491 228.168C107.182 227.536 107.028 226.797 107.028 225.952C107.028 225.099 107.182 224.355 107.491 223.72C107.804 223.084 108.237 222.591 108.791 222.239C109.348 221.887 109.996 221.712 110.735 221.712C111.474 221.712 112.12 221.887 112.674 222.239C113.231 222.591 113.665 223.084 113.974 223.72C114.286 224.355 114.442 225.099 114.442 225.952C114.442 226.797 114.286 227.536 113.974 228.168C113.665 228.8 113.231 229.292 112.674 229.643C112.12 229.995 111.474 230.17 110.735 230.17ZM110.735 229.041C111.296 229.041 111.758 228.897 112.12 228.61C112.482 228.322 112.75 227.944 112.924 227.475C113.098 227.006 113.185 226.499 113.185 225.952C113.185 225.405 113.098 224.895 112.924 224.423C112.75 223.951 112.482 223.569 112.12 223.278C111.758 222.987 111.296 222.841 110.735 222.841C110.174 222.841 109.712 222.987 109.35 223.278C108.988 223.569 108.72 223.951 108.546 224.423C108.372 224.895 108.285 225.405 108.285 225.952C108.285 226.499 108.372 227.006 108.546 227.475C108.72 227.944 108.988 228.322 109.35 228.61C109.712 228.897 110.174 229.041 110.735 229.041ZM121.818 226.655V221.818H123.075V230H121.818V228.615H121.732C121.541 229.031 121.242 229.384 120.837 229.675C120.433 229.963 119.921 230.107 119.303 230.107C118.792 230.107 118.337 229.995 117.94 229.771C117.542 229.544 117.229 229.203 117.002 228.748C116.775 228.29 116.661 227.713 116.661 227.017V221.818H117.918V226.932C117.918 227.528 118.085 228.004 118.419 228.359C118.756 228.714 119.186 228.892 119.708 228.892C120.021 228.892 120.339 228.812 120.662 228.652C120.988 228.493 121.262 228.248 121.482 227.917C121.706 227.587 121.818 227.166 121.818 226.655ZM125.677 230V221.818H126.892V223.054H126.977C127.126 222.649 127.396 222.321 127.787 222.069C128.177 221.816 128.617 221.69 129.108 221.69C129.2 221.69 129.315 221.692 129.454 221.696C129.592 221.699 129.697 221.705 129.768 221.712V222.99C129.725 222.979 129.628 222.963 129.475 222.942C129.326 222.917 129.168 222.905 129.001 222.905C128.603 222.905 128.248 222.988 127.936 223.155C127.627 223.319 127.382 223.546 127.201 223.837C127.023 224.125 126.934 224.453 126.934 224.822V230H125.677ZM137.354 223.651L136.224 223.97C136.153 223.782 136.049 223.599 135.91 223.422C135.775 223.24 135.59 223.091 135.356 222.974C135.122 222.857 134.822 222.798 134.456 222.798C133.955 222.798 133.538 222.914 133.204 223.145C132.874 223.372 132.709 223.661 132.709 224.013C132.709 224.325 132.822 224.572 133.05 224.753C133.277 224.934 133.632 225.085 134.115 225.206L135.329 225.504C136.061 225.682 136.606 225.953 136.965 226.319C137.323 226.681 137.503 227.148 137.503 227.72C137.503 228.189 137.368 228.608 137.098 228.977C136.832 229.347 136.459 229.638 135.979 229.851C135.5 230.064 134.942 230.17 134.307 230.17C133.472 230.17 132.782 229.989 132.235 229.627C131.688 229.265 131.342 228.736 131.196 228.04L132.389 227.741C132.503 228.182 132.718 228.512 133.034 228.732C133.353 228.952 133.771 229.062 134.285 229.062C134.871 229.062 135.337 228.938 135.681 228.69C136.029 228.437 136.203 228.136 136.203 227.784C136.203 227.5 136.104 227.262 135.905 227.07C135.706 226.875 135.401 226.729 134.989 226.634L133.625 226.314C132.876 226.136 132.325 225.861 131.974 225.488C131.626 225.112 131.452 224.641 131.452 224.077C131.452 223.615 131.581 223.207 131.84 222.852C132.103 222.496 132.46 222.218 132.911 222.015C133.366 221.813 133.881 221.712 134.456 221.712C135.266 221.712 135.901 221.889 136.363 222.244C136.828 222.599 137.158 223.068 137.354 223.651ZM143.125 230.17C142.337 230.17 141.657 229.996 141.085 229.648C140.517 229.297 140.079 228.807 139.77 228.178C139.464 227.546 139.312 226.811 139.312 225.973C139.312 225.135 139.464 224.396 139.77 223.757C140.079 223.114 140.508 222.614 141.059 222.255C141.613 221.893 142.259 221.712 142.998 221.712C143.424 221.712 143.845 221.783 144.26 221.925C144.676 222.067 145.054 222.298 145.395 222.617C145.736 222.933 146.007 223.352 146.21 223.874C146.412 224.396 146.513 225.039 146.513 225.803V226.335H140.206V225.249H145.235C145.235 224.787 145.143 224.375 144.958 224.013C144.777 223.651 144.518 223.365 144.18 223.155C143.846 222.946 143.452 222.841 142.998 222.841C142.497 222.841 142.064 222.965 141.698 223.214C141.336 223.459 141.057 223.778 140.862 224.173C140.666 224.567 140.569 224.989 140.569 225.44V226.165C140.569 226.783 140.675 227.306 140.888 227.736C141.105 228.162 141.405 228.487 141.788 228.711C142.172 228.931 142.618 229.041 143.125 229.041C143.456 229.041 143.754 228.995 144.02 228.903C144.29 228.807 144.523 228.665 144.718 228.477C144.913 228.285 145.064 228.047 145.171 227.763L146.385 228.104C146.258 228.516 146.043 228.878 145.741 229.19C145.439 229.499 145.066 229.741 144.622 229.915C144.178 230.085 143.679 230.17 143.125 230.17ZM149.983 219.091V230H148.726V219.091H149.983ZM156.229 221.818V222.884H151.818V221.818H156.229ZM153.139 230V220.689C153.139 220.22 153.249 219.83 153.469 219.517C153.69 219.205 153.975 218.97 154.327 218.814C154.679 218.658 155.05 218.58 155.44 218.58C155.749 218.58 156.001 218.604 156.197 218.654C156.392 218.704 156.538 218.75 156.633 218.793L156.271 219.879C156.207 219.858 156.119 219.831 156.005 219.799C155.895 219.767 155.749 219.751 155.568 219.751C155.153 219.751 154.853 219.856 154.668 220.066C154.487 220.275 154.396 220.582 154.396 220.987V230H153.139ZM28.2543 257L25.7614 248.818H27.0824L28.8509 255.082H28.9361L30.6832 248.818H32.0256L33.7514 255.061H33.8366L35.6051 248.818H36.9261L34.4332 257H33.1974L31.4077 250.714H31.2798L29.4901 257H28.2543ZM38.8881 257V248.818H40.1452V257H38.8881ZM39.5273 247.455C39.2822 247.455 39.071 247.371 38.8934 247.204C38.7194 247.037 38.6324 246.837 38.6324 246.602C38.6324 246.368 38.7194 246.167 38.8934 246C39.071 245.833 39.2822 245.75 39.5273 245.75C39.7723 245.75 39.9818 245.833 40.1558 246C40.3334 246.167 40.4222 246.368 40.4222 246.602C40.4222 246.837 40.3334 247.037 40.1558 247.204C39.9818 247.371 39.7723 247.455 39.5273 247.455ZM46.3059 248.818V249.884H42.0658V248.818H46.3059ZM43.3016 246.858H44.5587V254.656C44.5587 255.011 44.6102 255.278 44.7132 255.455C44.8197 255.629 44.9547 255.746 45.118 255.807C45.2849 255.864 45.4607 255.892 45.6454 255.892C45.7839 255.892 45.8975 255.885 45.9863 255.871C46.0751 255.853 46.1461 255.839 46.1993 255.828L46.455 256.957C46.3698 256.989 46.2508 257.021 46.0981 257.053C45.9454 257.089 45.7519 257.107 45.5175 257.107C45.1624 257.107 44.8144 257.03 44.4735 256.877C44.1361 256.725 43.8556 256.492 43.6319 256.18C43.4117 255.867 43.3016 255.473 43.3016 254.997V246.858ZM49.9297 252.078V257H48.6726V246.091H49.9297V250.097H50.0363C50.228 249.674 50.5157 249.338 50.8992 249.09C51.2863 248.838 51.8012 248.712 52.4439 248.712C53.0015 248.712 53.4898 248.824 53.9088 249.047C54.3278 249.267 54.6528 249.607 54.8836 250.065C55.118 250.519 55.2351 251.098 55.2351 251.801V257H53.978V251.886C53.978 251.237 53.8094 250.734 53.472 250.379C53.1382 250.02 52.6748 249.841 52.0817 249.841C51.6698 249.841 51.3005 249.928 50.9738 250.102C50.6506 250.276 50.3949 250.53 50.2067 250.864C50.0221 251.197 49.9297 251.602 49.9297 252.078ZM65.9119 248.818V249.884H61.6719V248.818H65.9119ZM62.9077 246.858H64.1648V254.656C64.1648 255.011 64.2163 255.278 64.3192 255.455C64.4258 255.629 64.5607 255.746 64.7241 255.807C64.891 255.864 65.0668 255.892 65.2514 255.892C65.3899 255.892 65.5036 255.885 65.5923 255.871C65.6811 255.853 65.7521 255.839 65.8054 255.828L66.0611 256.957C65.9759 256.989 65.8569 257.021 65.7042 257.053C65.5515 257.089 65.358 257.107 65.1236 257.107C64.7685 257.107 64.4205 257.03 64.0795 256.877C63.7422 256.725 63.4616 256.492 63.2379 256.18C63.0178 255.867 62.9077 255.473 62.9077 254.997V246.858ZM69.5358 252.078V257H68.2787V246.091H69.5358V250.097H69.6423C69.8341 249.674 70.1217 249.338 70.5053 249.09C70.8923 248.838 71.4072 248.712 72.05 248.712C72.6075 248.712 73.0958 248.824 73.5148 249.047C73.9339 249.267 74.2588 249.607 74.4896 250.065C74.724 250.519 74.8412 251.098 74.8412 251.801V257H73.5841V251.886C73.5841 251.237 73.4154 250.734 73.0781 250.379C72.7442 250.02 72.2808 249.841 71.6878 249.841C71.2759 249.841 70.9065 249.928 70.5798 250.102C70.2567 250.276 70.001 250.53 69.8128 250.864C69.6281 251.197 69.5358 251.602 69.5358 252.078ZM80.8714 257.17C80.083 257.17 79.403 256.996 78.8313 256.648C78.2631 256.297 77.8245 255.807 77.5156 255.178C77.2102 254.546 77.0575 253.811 77.0575 252.973C77.0575 252.135 77.2102 251.396 77.5156 250.757C77.8245 250.114 78.2542 249.614 78.8046 249.255C79.3586 248.893 80.0049 248.712 80.7436 248.712C81.1697 248.712 81.5905 248.783 82.006 248.925C82.4215 249.067 82.7997 249.298 83.1406 249.617C83.4815 249.933 83.7531 250.352 83.9556 250.874C84.158 251.396 84.2592 252.039 84.2592 252.803V253.335H77.9524V252.249H82.9808C82.9808 251.787 82.8884 251.375 82.7038 251.013C82.5227 250.651 82.2634 250.365 81.9261 250.155C81.5923 249.946 81.1981 249.841 80.7436 249.841C80.2428 249.841 79.8096 249.965 79.4438 250.214C79.0816 250.459 78.8029 250.778 78.6075 251.173C78.4122 251.567 78.3146 251.989 78.3146 252.44V253.165C78.3146 253.783 78.4211 254.306 78.6342 254.736C78.8508 255.162 79.1509 255.487 79.5344 255.711C79.9179 255.931 80.3636 256.041 80.8714 256.041C81.2017 256.041 81.4999 255.995 81.7663 255.903C82.0362 255.807 82.2688 255.665 82.4641 255.477C82.6594 255.285 82.8103 255.047 82.9168 254.763L84.1313 255.104C84.0035 255.516 83.7887 255.878 83.4868 256.19C83.185 256.499 82.8121 256.741 82.3682 256.915C81.9243 257.085 81.4254 257.17 80.8714 257.17ZM27.5724 281.017L27.5511 279.462H27.8068L31.3864 275.818H32.9418L29.1278 279.675H29.0213L27.5724 281.017ZM26.4006 284V273.091H27.6577V284H26.4006ZM31.5994 284L28.4034 279.952L29.2983 279.078L33.1974 284H31.5994ZM36.1169 279.078V284H34.8597V275.818H36.0742V277.097H36.1808C36.3725 276.681 36.6637 276.347 37.0544 276.095C37.445 275.839 37.9492 275.712 38.5671 275.712C39.1211 275.712 39.6058 275.825 40.0213 276.053C40.4368 276.276 40.76 276.617 40.9908 277.075C41.2216 277.53 41.337 278.105 41.337 278.801V284H40.0799V278.886C40.0799 278.244 39.913 277.743 39.5792 277.384C39.2454 277.022 38.7873 276.841 38.2049 276.841C37.8036 276.841 37.445 276.928 37.1289 277.102C36.8164 277.276 36.5696 277.53 36.3885 277.864C36.2074 278.197 36.1169 278.602 36.1169 279.078ZM47.258 284.17C46.5194 284.17 45.8713 283.995 45.3138 283.643C44.7598 283.292 44.3266 282.8 44.0141 282.168C43.7051 281.536 43.5506 280.797 43.5506 279.952C43.5506 279.099 43.7051 278.355 44.0141 277.72C44.3266 277.084 44.7598 276.591 45.3138 276.239C45.8713 275.887 46.5194 275.712 47.258 275.712C47.9967 275.712 48.643 275.887 49.1969 276.239C49.7545 276.591 50.1877 277.084 50.4967 277.72C50.8092 278.355 50.9654 279.099 50.9654 279.952C50.9654 280.797 50.8092 281.536 50.4967 282.168C50.1877 282.8 49.7545 283.292 49.1969 283.643C48.643 283.995 47.9967 284.17 47.258 284.17ZM47.258 283.041C47.8191 283.041 48.2808 282.897 48.643 282.61C49.0052 282.322 49.2733 281.944 49.4473 281.475C49.6213 281.006 49.7083 280.499 49.7083 279.952C49.7083 279.405 49.6213 278.895 49.4473 278.423C49.2733 277.951 49.0052 277.569 48.643 277.278C48.2808 276.987 47.8191 276.841 47.258 276.841C46.6969 276.841 46.2353 276.987 45.8731 277.278C45.5109 277.569 45.2428 277.951 45.0688 278.423C44.8947 278.895 44.8077 279.405 44.8077 279.952C44.8077 280.499 44.8947 281.006 45.0688 281.475C45.2428 281.944 45.5109 282.322 45.8731 282.61C46.2353 282.897 46.6969 283.041 47.258 283.041ZM54.7597 284L52.2668 275.818H53.5879L55.3563 282.082H55.4415L57.1887 275.818H58.531L60.2569 282.061H60.3421L62.1106 275.818H63.4316L60.9387 284H59.7029L57.9131 277.714H57.7853L55.9955 284H54.7597ZM66.6506 273.091V284H65.3935V273.091H66.6506ZM72.6835 284.17C71.8952 284.17 71.2151 283.996 70.6434 283.648C70.0752 283.297 69.6366 282.807 69.3277 282.178C69.0223 281.546 68.8696 280.811 68.8696 279.973C68.8696 279.135 69.0223 278.396 69.3277 277.757C69.6366 277.114 70.0663 276.614 70.6167 276.255C71.1707 275.893 71.817 275.712 72.5557 275.712C72.9818 275.712 73.4026 275.783 73.8181 275.925C74.2336 276.067 74.6118 276.298 74.9527 276.617C75.2936 276.933 75.5653 277.352 75.7677 277.874C75.9701 278.396 76.0713 279.039 76.0713 279.803V280.335H69.7645V279.249H74.7929C74.7929 278.787 74.7006 278.375 74.5159 278.013C74.3348 277.651 74.0756 277.365 73.7382 277.155C73.4044 276.946 73.0102 276.841 72.5557 276.841C72.055 276.841 71.6217 276.965 71.2559 277.214C70.8937 277.459 70.615 277.778 70.4197 278.173C70.2243 278.567 70.1267 278.989 70.1267 279.44V280.165C70.1267 280.783 70.2332 281.306 70.4463 281.736C70.6629 282.162 70.963 282.487 71.3465 282.711C71.73 282.931 72.1757 283.041 72.6835 283.041C73.0138 283.041 73.3121 282.995 73.5784 282.903C73.8483 282.807 74.0809 282.665 74.2762 282.477C74.4715 282.285 74.6224 282.047 74.729 281.763L75.9434 282.104C75.8156 282.516 75.6008 282.878 75.2989 283.19C74.9971 283.499 74.6242 283.741 74.1803 283.915C73.7364 284.085 73.2375 284.17 72.6835 284.17ZM81.3731 284.17C80.6912 284.17 80.0893 283.998 79.5673 283.654C79.0453 283.306 78.6369 282.816 78.3422 282.184C78.0474 281.548 77.9001 280.797 77.9001 279.93C77.9001 279.071 78.0474 278.325 78.3422 277.693C78.6369 277.061 79.0471 276.573 79.5726 276.228C80.0982 275.884 80.7055 275.712 81.3944 275.712C81.927 275.712 82.3479 275.8 82.6568 275.978C82.9693 276.152 83.2072 276.351 83.3706 276.575C83.5375 276.795 83.6671 276.976 83.7594 277.118H83.866V273.091H85.1231V284H83.9086V282.743H83.7594C83.6671 282.892 83.5357 283.08 83.3653 283.308C83.1948 283.531 82.9515 283.732 82.6355 283.909C82.3194 284.083 81.8986 284.17 81.3731 284.17ZM81.5435 283.041C82.0478 283.041 82.4739 282.91 82.8219 282.647C83.1699 282.381 83.4345 282.013 83.6156 281.544C83.7967 281.072 83.8873 280.527 83.8873 279.909C83.8873 279.298 83.7985 278.764 83.6209 278.306C83.4434 277.844 83.1806 277.485 82.8326 277.23C82.4846 276.971 82.0549 276.841 81.5435 276.841C81.0108 276.841 80.567 276.978 80.2118 277.251C79.8603 277.521 79.5957 277.888 79.4182 278.354C79.2442 278.815 79.1572 279.334 79.1572 279.909C79.1572 280.491 79.2459 281.021 79.4235 281.496C79.6046 281.969 79.8709 282.345 80.2225 282.626C80.5776 282.903 81.018 283.041 81.5435 283.041ZM91.2025 287.239C90.5953 287.239 90.0733 287.161 89.6365 287.004C89.1997 286.852 88.8357 286.649 88.5445 286.397C88.2569 286.148 88.0278 285.882 87.8574 285.598L88.8588 284.895C88.9724 285.044 89.1162 285.214 89.2903 285.406C89.4643 285.602 89.7022 285.77 90.004 285.912C90.3094 286.058 90.7089 286.131 91.2025 286.131C91.863 286.131 92.4081 285.971 92.8378 285.651C93.2675 285.332 93.4824 284.831 93.4824 284.149V282.487H93.3758C93.2835 282.636 93.1521 282.821 92.9817 283.041C92.8148 283.258 92.5733 283.451 92.2572 283.622C91.9447 283.789 91.5221 283.872 90.9895 283.872C90.329 283.872 89.7359 283.716 89.2104 283.403C88.6883 283.091 88.2746 282.636 87.9692 282.04C87.6674 281.443 87.5165 280.719 87.5165 279.866C87.5165 279.028 87.6638 278.299 87.9586 277.677C88.2533 277.052 88.6635 276.569 89.189 276.228C89.7146 275.884 90.3219 275.712 91.0108 275.712C91.5434 275.712 91.966 275.8 92.2785 275.978C92.5946 276.152 92.8361 276.351 93.003 276.575C93.1734 276.795 93.3048 276.976 93.3971 277.118H93.525V275.818H94.7395V284.234C94.7395 284.938 94.5797 285.509 94.2601 285.95C93.944 286.393 93.5179 286.718 92.9817 286.924C92.449 287.134 91.8559 287.239 91.2025 287.239ZM91.1599 282.743C91.6642 282.743 92.0903 282.627 92.4383 282.397C92.7863 282.166 93.0509 281.834 93.232 281.401C93.4131 280.967 93.5037 280.449 93.5037 279.845C93.5037 279.256 93.4149 278.735 93.2373 278.284C93.0598 277.833 92.797 277.48 92.449 277.224C92.101 276.969 91.6713 276.841 91.1599 276.841C90.6273 276.841 90.1834 276.976 89.8282 277.246C89.4767 277.516 89.2121 277.878 89.0346 278.332C88.8606 278.787 88.7736 279.291 88.7736 279.845C88.7736 280.413 88.8623 280.916 89.0399 281.353C89.221 281.786 89.4873 282.127 89.8389 282.375C90.194 282.62 90.6344 282.743 91.1599 282.743ZM100.771 284.17C99.9827 284.17 99.3026 283.996 98.7309 283.648C98.1627 283.297 97.7241 282.807 97.4152 282.178C97.1098 281.546 96.9571 280.811 96.9571 279.973C96.9571 279.135 97.1098 278.396 97.4152 277.757C97.7241 277.114 98.1538 276.614 98.7042 276.255C99.2582 275.893 99.9045 275.712 100.643 275.712C101.069 275.712 101.49 275.783 101.906 275.925C102.321 276.067 102.699 276.298 103.04 276.617C103.381 276.933 103.653 277.352 103.855 277.874C104.058 278.396 104.159 279.039 104.159 279.803V280.335H97.852V279.249H102.88C102.88 278.787 102.788 278.375 102.603 278.013C102.422 277.651 102.163 277.365 101.826 277.155C101.492 276.946 101.098 276.841 100.643 276.841C100.142 276.841 99.7092 276.965 99.3434 277.214C98.9812 277.459 98.7025 277.778 98.5072 278.173C98.3118 278.567 98.2142 278.989 98.2142 279.44V280.165C98.2142 280.783 98.3207 281.306 98.5338 281.736C98.7504 282.162 99.0505 282.487 99.434 282.711C99.8175 282.931 100.263 283.041 100.771 283.041C101.101 283.041 101.4 282.995 101.666 282.903C101.936 282.807 102.168 282.665 102.364 282.477C102.559 282.285 102.71 282.047 102.816 281.763L104.031 282.104C103.903 282.516 103.688 282.878 103.386 283.19C103.085 283.499 102.712 283.741 102.268 283.915C101.824 284.085 101.325 284.17 100.771 284.17ZM113.297 284.192C112.779 284.192 112.309 284.094 111.886 283.899C111.463 283.7 111.128 283.414 110.879 283.041C110.631 282.665 110.506 282.21 110.506 281.678C110.506 281.209 110.599 280.829 110.783 280.538C110.968 280.243 111.215 280.012 111.524 279.845C111.833 279.678 112.174 279.554 112.546 279.472C112.923 279.387 113.301 279.32 113.681 279.27C114.178 279.206 114.581 279.158 114.89 279.126C115.203 279.091 115.43 279.032 115.572 278.95C115.718 278.869 115.79 278.727 115.79 278.524V278.482C115.79 277.956 115.647 277.548 115.359 277.256C115.075 276.965 114.643 276.82 114.065 276.82C113.464 276.82 112.994 276.951 112.653 277.214C112.312 277.477 112.072 277.757 111.934 278.055L110.741 277.629C110.954 277.132 111.238 276.745 111.593 276.468C111.952 276.187 112.342 275.992 112.765 275.882C113.191 275.768 113.61 275.712 114.022 275.712C114.285 275.712 114.587 275.744 114.927 275.808C115.272 275.868 115.604 275.994 115.924 276.186C116.247 276.377 116.515 276.667 116.728 277.054C116.941 277.441 117.047 277.96 117.047 278.609V284H115.79V282.892H115.726C115.641 283.07 115.499 283.26 115.3 283.462C115.101 283.664 114.837 283.837 114.507 283.979C114.176 284.121 113.773 284.192 113.297 284.192ZM113.489 283.062C113.986 283.062 114.405 282.965 114.746 282.77C115.091 282.574 115.35 282.322 115.524 282.013C115.702 281.704 115.79 281.379 115.79 281.038V279.888C115.737 279.952 115.62 280.01 115.439 280.064C115.261 280.113 115.055 280.158 114.821 280.197C114.59 280.232 114.365 280.264 114.144 280.293C113.928 280.317 113.752 280.339 113.617 280.357C113.29 280.399 112.985 280.468 112.701 280.564C112.42 280.657 112.193 280.797 112.019 280.985C111.849 281.17 111.763 281.422 111.763 281.741C111.763 282.178 111.925 282.509 112.248 282.732C112.575 282.952 112.989 283.062 113.489 283.062ZM120.899 279.078V284H119.642V275.818H120.856V277.097H120.963C121.155 276.681 121.446 276.347 121.837 276.095C122.227 275.839 122.731 275.712 123.349 275.712C123.903 275.712 124.388 275.825 124.804 276.053C125.219 276.276 125.542 276.617 125.773 277.075C126.004 277.53 126.119 278.105 126.119 278.801V284H124.862V278.886C124.862 278.244 124.695 277.743 124.361 277.384C124.028 277.022 123.57 276.841 122.987 276.841C122.586 276.841 122.227 276.928 121.911 277.102C121.599 277.276 121.352 277.53 121.171 277.864C120.99 278.197 120.899 278.602 120.899 279.078ZM131.806 284.17C131.124 284.17 130.522 283.998 130 283.654C129.478 283.306 129.07 282.816 128.775 282.184C128.48 281.548 128.333 280.797 128.333 279.93C128.333 279.071 128.48 278.325 128.775 277.693C129.07 277.061 129.48 276.573 130.005 276.228C130.531 275.884 131.138 275.712 131.827 275.712C132.36 275.712 132.781 275.8 133.09 275.978C133.402 276.152 133.64 276.351 133.803 276.575C133.97 276.795 134.1 276.976 134.192 277.118H134.299V273.091H135.556V284H134.341V282.743H134.192C134.1 282.892 133.969 283.08 133.798 283.308C133.628 283.531 133.384 283.732 133.068 283.909C132.752 284.083 132.331 284.17 131.806 284.17ZM131.976 283.041C132.481 283.041 132.907 282.91 133.255 282.647C133.603 282.381 133.867 282.013 134.048 281.544C134.23 281.072 134.32 280.527 134.32 279.909C134.32 279.298 134.231 278.764 134.054 278.306C133.876 277.844 133.613 277.485 133.265 277.23C132.917 276.971 132.488 276.841 131.976 276.841C131.444 276.841 131 276.978 130.645 277.251C130.293 277.521 130.029 277.888 129.851 278.354C129.677 278.815 129.59 279.334 129.59 279.909C129.59 280.491 129.679 281.021 129.856 281.496C130.037 281.969 130.304 282.345 130.655 282.626C131.01 282.903 131.451 283.041 131.976 283.041ZM32.196 304.651L31.0668 304.97C30.9957 304.782 30.891 304.599 30.7525 304.422C30.6175 304.24 30.4329 304.091 30.1985 303.974C29.9641 303.857 29.6641 303.798 29.2983 303.798C28.7976 303.798 28.3803 303.914 28.0465 304.145C27.7163 304.372 27.5511 304.661 27.5511 305.013C27.5511 305.325 27.6648 305.572 27.892 305.753C28.1193 305.934 28.4744 306.085 28.9574 306.206L30.1719 306.504C30.9034 306.682 31.4485 306.953 31.8072 307.319C32.1658 307.681 32.3452 308.148 32.3452 308.72C32.3452 309.189 32.2102 309.608 31.9403 309.977C31.674 310.347 31.3011 310.638 30.8217 310.851C30.3423 311.064 29.7848 311.17 29.1491 311.17C28.3146 311.17 27.6239 310.989 27.0771 310.627C26.5302 310.265 26.1839 309.736 26.0384 309.04L27.2315 308.741C27.3452 309.182 27.56 309.512 27.8761 309.732C28.1957 309.952 28.6129 310.062 29.1278 310.062C29.7138 310.062 30.179 309.938 30.5234 309.69C30.8714 309.437 31.0455 309.136 31.0455 308.784C31.0455 308.5 30.946 308.262 30.7472 308.07C30.5483 307.875 30.2429 307.729 29.831 307.634L28.4673 307.314C27.718 307.136 27.1676 306.861 26.8161 306.488C26.468 306.112 26.294 305.641 26.294 305.077C26.294 304.615 26.4237 304.207 26.6829 303.852C26.9457 303.496 27.3026 303.218 27.7536 303.015C28.2081 302.813 28.723 302.712 29.2983 302.712C30.108 302.712 30.7436 302.889 31.2053 303.244C31.6705 303.599 32.0007 304.068 32.196 304.651ZM35.7094 308.017L35.6881 306.462H35.9437L39.5233 302.818H41.0787L37.2648 306.675H37.1582L35.7094 308.017ZM34.5375 311V300.091H35.7946V311H34.5375ZM39.7363 311L36.5403 306.952L37.4352 306.078L41.3344 311H39.7363ZM42.9967 311V302.818H44.2538V311H42.9967ZM43.6359 301.455C43.3908 301.455 43.1795 301.371 43.002 301.204C42.828 301.037 42.741 300.837 42.741 300.602C42.741 300.368 42.828 300.167 43.002 300C43.1795 299.833 43.3908 299.75 43.6359 299.75C43.8809 299.75 44.0904 299.833 44.2644 300C44.442 300.167 44.5308 300.368 44.5308 300.602C44.5308 300.837 44.442 301.037 44.2644 301.204C44.0904 301.371 43.8809 301.455 43.6359 301.455ZM48.1133 300.091V311H46.8562V300.091H48.1133ZM51.9729 300.091V311H50.7158V300.091H51.9729ZM60.3708 304.651L59.2416 304.97C59.1705 304.782 59.0658 304.599 58.9273 304.422C58.7923 304.24 58.6077 304.091 58.3733 303.974C58.1389 303.857 57.8389 303.798 57.4731 303.798C56.9724 303.798 56.5551 303.914 56.2213 304.145C55.8911 304.372 55.7259 304.661 55.7259 305.013C55.7259 305.325 55.8396 305.572 56.0669 305.753C56.2941 305.934 56.6492 306.085 57.1322 306.206L58.3467 306.504C59.0782 306.682 59.6233 306.953 59.982 307.319C60.3406 307.681 60.52 308.148 60.52 308.72C60.52 309.189 60.385 309.608 60.1151 309.977C59.8488 310.347 59.4759 310.638 58.9965 310.851C58.5171 311.064 57.9596 311.17 57.324 311.17C56.4894 311.17 55.7987 310.989 55.2519 310.627C54.705 310.265 54.3588 309.736 54.2132 309.04L55.4063 308.741C55.52 309.182 55.7348 309.512 56.0509 309.732C56.3705 309.952 56.7877 310.062 57.3026 310.062C57.8886 310.062 58.3538 309.938 58.6982 309.69C59.0463 309.437 59.2203 309.136 59.2203 308.784C59.2203 308.5 59.1208 308.262 58.922 308.07C58.7231 307.875 58.4177 307.729 58.0058 307.634L56.6421 307.314C55.8928 307.136 55.3424 306.861 54.9909 306.488C54.6428 306.112 54.4688 305.641 54.4688 305.077C54.4688 304.615 54.5985 304.207 54.8577 303.852C55.1205 303.496 55.4774 303.218 55.9284 303.015C56.3829 302.813 56.8978 302.712 57.4731 302.712C58.2828 302.712 58.9184 302.889 59.3801 303.244C59.8453 303.599 60.1755 304.068 60.3708 304.651ZM70.5336 314.239C69.9263 314.239 69.4043 314.161 68.9675 314.004C68.5308 313.852 68.1668 313.649 67.8756 313.397C67.5879 313.148 67.3589 312.882 67.1884 312.598L68.1898 311.895C68.3035 312.044 68.4473 312.214 68.6213 312.406C68.7953 312.602 69.0332 312.77 69.3351 312.912C69.6405 313.058 70.04 313.131 70.5336 313.131C71.1941 313.131 71.7392 312.971 72.1689 312.651C72.5986 312.332 72.8134 311.831 72.8134 311.149V309.487H72.7069C72.6146 309.636 72.4832 309.821 72.3127 310.041C72.1458 310.258 71.9043 310.451 71.5883 310.622C71.2758 310.789 70.8532 310.872 70.3205 310.872C69.66 310.872 69.067 310.716 68.5414 310.403C68.0194 310.091 67.6057 309.636 67.3003 309.04C66.9984 308.443 66.8475 307.719 66.8475 306.866C66.8475 306.028 66.9949 305.299 67.2896 304.677C67.5844 304.052 67.9945 303.569 68.5201 303.228C69.0457 302.884 69.6529 302.712 70.3418 302.712C70.8745 302.712 71.2971 302.8 71.6096 302.978C71.9256 303.152 72.1671 303.351 72.334 303.575C72.5045 303.795 72.6359 303.976 72.7282 304.118H72.856V302.818H74.0705V311.234C74.0705 311.938 73.9107 312.509 73.5911 312.95C73.2751 313.393 72.8489 313.718 72.3127 313.924C71.78 314.134 71.187 314.239 70.5336 314.239ZM70.491 309.743C70.9952 309.743 71.4214 309.627 71.7694 309.397C72.1174 309.166 72.382 308.834 72.5631 308.401C72.7442 307.967 72.8347 307.449 72.8347 306.845C72.8347 306.256 72.746 305.735 72.5684 305.284C72.3908 304.833 72.1281 304.48 71.78 304.224C71.432 303.969 71.0023 303.841 70.491 303.841C69.9583 303.841 69.5144 303.976 69.1593 304.246C68.8077 304.516 68.5432 304.878 68.3656 305.332C68.1916 305.787 68.1046 306.291 68.1046 306.845C68.1046 307.413 68.1934 307.916 68.371 308.353C68.5521 308.786 68.8184 309.127 69.17 309.375C69.5251 309.62 69.9654 309.743 70.491 309.743ZM79.0793 311.192C78.5609 311.192 78.0903 311.094 77.6678 310.899C77.2452 310.7 76.9096 310.414 76.661 310.041C76.4124 309.665 76.2881 309.21 76.2881 308.678C76.2881 308.209 76.3805 307.829 76.5651 307.538C76.7498 307.243 76.9966 307.012 77.3055 306.845C77.6145 306.678 77.9554 306.554 78.3283 306.472C78.7047 306.387 79.0829 306.32 79.4629 306.27C79.96 306.206 80.3631 306.158 80.672 306.126C80.9845 306.091 81.2118 306.032 81.3538 305.95C81.4994 305.869 81.5722 305.727 81.5722 305.524V305.482C81.5722 304.956 81.4284 304.548 81.1408 304.256C80.8567 303.965 80.4252 303.82 79.8464 303.82C79.2462 303.82 78.7757 303.951 78.4348 304.214C78.0939 304.477 77.8542 304.757 77.7157 305.055L76.5225 304.629C76.7356 304.132 77.0197 303.745 77.3748 303.468C77.7335 303.187 78.1241 302.992 78.5467 302.882C78.9728 302.768 79.3918 302.712 79.8038 302.712C80.0665 302.712 80.3684 302.744 80.7093 302.808C81.0538 302.868 81.3858 302.994 81.7054 303.186C82.0286 303.377 82.2967 303.667 82.5097 304.054C82.7228 304.441 82.8293 304.96 82.8293 305.609V311H81.5722V309.892H81.5083C81.4231 310.07 81.281 310.26 81.0822 310.462C80.8833 310.664 80.6188 310.837 80.2885 310.979C79.9582 311.121 79.5552 311.192 79.0793 311.192ZM79.2711 310.062C79.7683 310.062 80.1873 309.965 80.5282 309.77C80.8727 309.574 81.1319 309.322 81.3059 309.013C81.4835 308.704 81.5722 308.379 81.5722 308.038V306.888C81.519 306.952 81.4018 307.01 81.2207 307.064C81.0431 307.113 80.8371 307.158 80.6028 307.197C80.3719 307.232 80.1465 307.264 79.9263 307.293C79.7097 307.317 79.5339 307.339 79.3989 307.357C79.0722 307.399 78.7668 307.468 78.4827 307.564C78.2022 307.657 77.9749 307.797 77.8009 307.985C77.6305 308.17 77.5452 308.422 77.5452 308.741C77.5452 309.178 77.7068 309.509 78.03 309.732C78.3567 309.952 78.7704 310.062 79.2711 310.062ZM85.4238 311V302.818H86.6809V311H85.4238ZM86.063 301.455C85.818 301.455 85.6067 301.371 85.4291 301.204C85.2551 301.037 85.1681 300.837 85.1681 300.602C85.1681 300.368 85.2551 300.167 85.4291 300C85.6067 299.833 85.818 299.75 86.063 299.75C86.308 299.75 86.5176 299.833 86.6916 300C86.8691 300.167 86.9579 300.368 86.9579 300.602C86.9579 300.837 86.8691 301.037 86.6916 301.204C86.5176 301.371 86.308 301.455 86.063 301.455ZM90.5405 306.078V311H89.2834V302.818H90.4979V304.097H90.6044C90.7962 303.681 91.0874 303.347 91.478 303.095C91.8686 302.839 92.3729 302.712 92.9908 302.712C93.5447 302.712 94.0295 302.825 94.445 303.053C94.8604 303.276 95.1836 303.617 95.4144 304.075C95.6452 304.53 95.7607 305.105 95.7607 305.801V311H94.5036V305.886C94.5036 305.244 94.3366 304.743 94.0028 304.384C93.669 304.022 93.2109 303.841 92.6286 303.841C92.2273 303.841 91.8686 303.928 91.5526 304.102C91.2401 304.276 90.9933 304.53 90.8121 304.864C90.631 305.197 90.5405 305.602 90.5405 306.078ZM101.788 311.17C101 311.17 100.32 310.996 99.7481 310.648C99.1799 310.297 98.7413 309.807 98.4324 309.178C98.127 308.546 97.9743 307.811 97.9743 306.973C97.9743 306.135 98.127 305.396 98.4324 304.757C98.7413 304.114 99.171 303.614 99.7214 303.255C100.275 302.893 100.922 302.712 101.66 302.712C102.086 302.712 102.507 302.783 102.923 302.925C103.338 303.067 103.716 303.298 104.057 303.617C104.398 303.933 104.67 304.352 104.872 304.874C105.075 305.396 105.176 306.039 105.176 306.803V307.335H98.8692V306.249H103.898C103.898 305.787 103.805 305.375 103.621 305.013C103.439 304.651 103.18 304.365 102.843 304.155C102.509 303.946 102.115 303.841 101.66 303.841C101.16 303.841 100.726 303.965 100.361 304.214C99.9984 304.459 99.7197 304.778 99.5243 305.173C99.329 305.567 99.2314 305.989 99.2314 306.44V307.165C99.2314 307.783 99.3379 308.306 99.551 308.736C99.7676 309.162 100.068 309.487 100.451 309.711C100.835 309.931 101.28 310.041 101.788 310.041C102.118 310.041 102.417 309.995 102.683 309.903C102.953 309.807 103.186 309.665 103.381 309.477C103.576 309.285 103.727 309.047 103.834 308.763L105.048 309.104C104.92 309.516 104.705 309.878 104.404 310.19C104.102 310.499 103.729 310.741 103.285 310.915C102.841 311.085 102.342 311.17 101.788 311.17ZM110.478 311.17C109.796 311.17 109.194 310.998 108.672 310.654C108.15 310.306 107.742 309.816 107.447 309.184C107.152 308.548 107.005 307.797 107.005 306.93C107.005 306.071 107.152 305.325 107.447 304.693C107.742 304.061 108.152 303.573 108.677 303.228C109.203 302.884 109.81 302.712 110.499 302.712C111.032 302.712 111.453 302.8 111.761 302.978C112.074 303.152 112.312 303.351 112.475 303.575C112.642 303.795 112.772 303.976 112.864 304.118H112.971V300.091H114.228V311H113.013V309.743H112.864C112.772 309.892 112.64 310.08 112.47 310.308C112.299 310.531 112.056 310.732 111.74 310.909C111.424 311.083 111.003 311.17 110.478 311.17ZM110.648 310.041C111.152 310.041 111.579 309.91 111.927 309.647C112.275 309.381 112.539 309.013 112.72 308.544C112.901 308.072 112.992 307.527 112.992 306.909C112.992 306.298 112.903 305.764 112.726 305.306C112.548 304.844 112.285 304.485 111.937 304.23C111.589 303.971 111.16 303.841 110.648 303.841C110.116 303.841 109.672 303.978 109.317 304.251C108.965 304.521 108.7 304.888 108.523 305.354C108.349 305.815 108.262 306.334 108.262 306.909C108.262 307.491 108.351 308.021 108.528 308.496C108.709 308.969 108.976 309.345 109.327 309.626C109.682 309.903 110.123 310.041 110.648 310.041ZM117.921 311.085C117.658 311.085 117.433 310.991 117.244 310.803C117.056 310.615 116.962 310.389 116.962 310.126C116.962 309.864 117.056 309.638 117.244 309.45C117.433 309.262 117.658 309.168 117.921 309.168C118.184 309.168 118.409 309.262 118.597 309.45C118.786 309.638 118.88 309.864 118.88 310.126C118.88 310.3 118.835 310.46 118.747 310.606C118.661 310.751 118.546 310.869 118.4 310.957C118.258 311.043 118.098 311.085 117.921 311.085ZM122.352 311.085C122.089 311.085 121.863 310.991 121.675 310.803C121.487 310.615 121.393 310.389 121.393 310.126C121.393 309.864 121.487 309.638 121.675 309.45C121.863 309.262 122.089 309.168 122.352 309.168C122.615 309.168 122.84 309.262 123.028 309.45C123.216 309.638 123.311 309.864 123.311 310.126C123.311 310.3 123.266 310.46 123.177 310.606C123.092 310.751 122.977 310.869 122.831 310.957C122.689 311.043 122.529 311.085 122.352 311.085ZM126.783 311.085C126.52 311.085 126.294 310.991 126.106 310.803C125.918 310.615 125.824 310.389 125.824 310.126C125.824 309.864 125.918 309.638 126.106 309.45C126.294 309.262 126.52 309.168 126.783 309.168C127.045 309.168 127.271 309.262 127.459 309.45C127.647 309.638 127.741 309.864 127.741 310.126C127.741 310.3 127.697 310.46 127.608 310.606C127.523 310.751 127.408 310.869 127.262 310.957C127.12 311.043 126.96 311.085 126.783 311.085Z" fill="#1A2434"/>
<defs>
<clipPath id="clip0_420_1054">
<rect width="80" height="80" fill="white" transform="translate(25.25 25)"/>
</clipPath>
</defs>
</svg>
