<svg width="192" height="327" viewBox="0 0 192 327" fill="none" xmlns="http://www.w3.org/2000/svg">
<rect x="0.5" y="1" width="190.75" height="325" rx="10" fill="white"/>
<rect x="0.5" y="1" width="190.75" height="325" rx="10" stroke="white"/>
<g clip-path="url(#clip0_420_1039)">
<path opacity="0.2" d="M71.5 37.5C71.5 41.366 68.366 44.5 64.5 44.5C60.634 44.5 57.5 41.366 57.5 37.5C57.5 33.634 60.634 30.5 64.5 30.5C68.366 30.5 71.5 33.634 71.5 37.5Z" fill="#0061B1" stroke="#0061B1"/>
<path opacity="0.2" d="M71.1155 50C72.1797 50.0002 73.2316 50.2268 74.2015 50.6649C75.1713 51.1029 76.0368 51.7423 76.7405 52.5406L90.903 68.5969C91.2518 68.9457 91.5285 69.3598 91.7173 69.8156C91.9061 70.2713 92.0032 70.7598 92.0032 71.2531C92.0032 71.7464 91.9061 72.2349 91.7173 72.6907C91.5285 73.1464 91.2518 73.5605 90.903 73.9094C90.5542 74.2582 90.14 74.5349 89.6843 74.7237C89.2285 74.9125 88.7401 75.0096 88.2467 75.0096C87.7534 75.0096 87.2649 74.9125 86.8092 74.7237C86.3534 74.5349 85.9393 74.2582 85.5905 73.9094L74.4999 65L81.6467 92.1656C82.0502 93.0645 82.0838 94.086 81.7401 95.0094C81.3964 95.9328 80.7032 96.6838 79.8102 97.1002C78.9172 97.5165 77.8962 97.5646 76.968 97.2342C76.0398 96.9038 75.2789 96.2213 74.8499 95.3344L64.4999 77.5L54.1499 95.3344C53.7208 96.2213 52.9599 96.9038 52.0317 97.2342C51.1035 97.5646 50.0826 97.5165 49.1896 97.1002C48.2966 96.6838 47.6033 95.9328 47.2596 95.0094C46.916 94.086 46.9495 93.0645 47.353 92.1656L54.4999 65L43.403 73.9031C42.6985 74.6076 41.743 75.0034 40.7467 75.0034C39.7505 75.0034 38.795 74.6076 38.0905 73.9031C37.386 73.1986 36.9902 72.2432 36.9902 71.2469C36.9902 70.2506 37.386 69.2951 38.0905 68.5906L52.2592 52.5406C52.9629 51.7423 53.8284 51.1029 54.7983 50.6649C55.7681 50.2268 56.8201 50.0002 57.8842 50H71.1155Z" fill="#1A2434"/>
<path d="M64.5 45C68.6421 45 72 41.6421 72 37.5C72 33.3579 68.6421 30 64.5 30C60.3579 30 57 33.3579 57 37.5C57 41.6421 60.3579 45 64.5 45Z" stroke="#0061B1" stroke-width="2" stroke-linecap="round" stroke-linejoin="round"/>
<path d="M71.1155 50C72.1797 50.0002 73.2316 50.2268 74.2015 50.6649C75.1713 51.1029 76.0368 51.7423 76.7405 52.5406L90.903 68.5969C91.2518 68.9457 91.5285 69.3598 91.7173 69.8156C91.9061 70.2713 92.0032 70.7598 92.0032 71.2531C92.0032 71.7464 91.9061 72.2349 91.7173 72.6907C91.5285 73.1464 91.2518 73.5605 90.903 73.9094C90.5542 74.2582 90.14 74.5349 89.6843 74.7237C89.2285 74.9125 88.7401 75.0096 88.2467 75.0096C87.7534 75.0096 87.2649 74.9125 86.8092 74.7237C86.3534 74.5349 85.9393 74.2582 85.5905 73.9094L74.4999 65L81.6467 92.1656C82.0502 93.0645 82.0838 94.086 81.7401 95.0094C81.3964 95.9328 80.7032 96.6838 79.8102 97.1002C78.9172 97.5165 77.8962 97.5646 76.968 97.2342C76.0398 96.9038 75.2789 96.2213 74.8499 95.3344L64.4999 77.5L54.1499 95.3344C53.7208 96.2213 52.9599 96.9038 52.0317 97.2342C51.1035 97.5646 50.0826 97.5165 49.1896 97.1002C48.2966 96.6838 47.6033 95.9328 47.2596 95.0094C46.916 94.086 46.9495 93.0645 47.353 92.1656L54.4999 65L43.403 73.9031C42.6985 74.6076 41.743 75.0034 40.7467 75.0034C39.7505 75.0034 38.795 74.6076 38.0905 73.9031C37.386 73.1986 36.9902 72.2432 36.9902 71.2469C36.9902 70.2506 37.386 69.2951 38.0905 68.5906L52.2592 52.5406C52.9629 51.7423 53.8284 51.1029 54.7983 50.6649C55.7681 50.2268 56.8201 50.0002 57.8842 50H71.1155Z" fill="#CCDFEF" stroke="#0061B1" stroke-width="2" stroke-linecap="round" stroke-linejoin="round"/>
</g>
<path d="M26.348 153V135.12H38.132V137.64H29.18V142.776H37.652V145.296H29.18V150.48H38.132V153H26.348ZM39.2021 153L43.7381 146.496L39.2021 140.016H42.3941L46.1141 145.44H44.5781L48.2981 140.016H51.4901L46.9301 146.496L51.4661 153H48.2741L44.6021 147.552H46.0901L42.3941 153H39.2021ZM53.3418 157.8V140.016H55.9338V142.704L55.6218 142.08C56.1018 141.344 56.7418 140.768 57.5418 140.352C58.3418 139.936 59.2538 139.728 60.2778 139.728C61.5098 139.728 62.6138 140.024 63.5898 140.616C64.5818 141.208 65.3578 142.016 65.9178 143.04C66.4938 144.064 66.7818 145.216 66.7818 146.496C66.7818 147.776 66.4938 148.928 65.9178 149.952C65.3578 150.976 64.5898 151.792 63.6138 152.4C62.6378 152.992 61.5258 153.288 60.2778 153.288C59.2698 153.288 58.3498 153.08 57.5178 152.664C56.7018 152.248 56.0698 151.648 55.6218 150.864L56.0538 150.36V157.8H53.3418ZM60.0138 150.768C60.7818 150.768 61.4618 150.584 62.0538 150.216C62.6458 149.848 63.1098 149.344 63.4458 148.704C63.7978 148.048 63.9738 147.312 63.9738 146.496C63.9738 145.68 63.7978 144.952 63.4458 144.312C63.1098 143.672 62.6458 143.168 62.0538 142.8C61.4618 142.432 60.7818 142.248 60.0138 142.248C59.2618 142.248 58.5818 142.432 57.9738 142.8C57.3818 143.168 56.9098 143.672 56.5578 144.312C56.2218 144.952 56.0538 145.68 56.0538 146.496C56.0538 147.312 56.2218 148.048 56.5578 148.704C56.9098 149.344 57.3818 149.848 57.9738 150.216C58.5818 150.584 59.2618 150.768 60.0138 150.768ZM75.5159 153.288C74.2199 153.288 73.0679 152.992 72.0599 152.4C71.0679 151.792 70.2919 150.976 69.7319 149.952C69.1719 148.912 68.8919 147.752 68.8919 146.472C68.8919 145.16 69.1719 144 69.7319 142.992C70.3079 141.984 71.0759 141.192 72.0359 140.616C72.9959 140.024 74.0839 139.728 75.2999 139.728C76.2759 139.728 77.1479 139.896 77.9159 140.232C78.6839 140.568 79.3319 141.032 79.8599 141.624C80.3879 142.2 80.7879 142.864 81.0599 143.616C81.3479 144.368 81.4919 145.168 81.4919 146.016C81.4919 146.224 81.4839 146.44 81.4679 146.664C81.4519 146.888 81.4199 147.096 81.3719 147.288H71.0279V145.128H79.8359L78.5399 146.112C78.6999 145.328 78.6439 144.632 78.3719 144.024C78.1159 143.4 77.7159 142.912 77.1719 142.56C76.6439 142.192 76.0199 142.008 75.2999 142.008C74.5799 142.008 73.9399 142.192 73.3799 142.56C72.8199 142.912 72.3879 143.424 72.0839 144.096C71.7799 144.752 71.6599 145.552 71.7239 146.496C71.6439 147.376 71.7639 148.144 72.0839 148.8C72.4199 149.456 72.8839 149.968 73.4759 150.336C74.0839 150.704 74.7719 150.888 75.5399 150.888C76.3239 150.888 76.9879 150.712 77.5319 150.36C78.0919 150.008 78.5319 149.552 78.8519 148.992L81.0599 150.072C80.8039 150.68 80.4039 151.232 79.8599 151.728C79.3319 152.208 78.6919 152.592 77.9399 152.88C77.2039 153.152 76.3959 153.288 75.5159 153.288ZM84.1387 153V140.016H86.7307V142.632L86.4907 142.248C86.7787 141.4 87.2427 140.792 87.8827 140.424C88.5227 140.04 89.2907 139.848 90.1867 139.848H90.9787V142.32H89.8507C88.9547 142.32 88.2267 142.6 87.6667 143.16C87.1227 143.704 86.8507 144.488 86.8507 145.512V153H84.1387ZM98.6844 153.144C97.3244 153.144 96.2684 152.76 95.5164 151.992C94.7644 151.224 94.3884 150.144 94.3884 148.752V142.464H92.1084V140.016H92.4684C93.0764 140.016 93.5484 139.84 93.8844 139.488C94.2204 139.136 94.3884 138.656 94.3884 138.048V137.04H97.1004V140.016H100.052V142.464H97.1004V148.632C97.1004 149.08 97.1724 149.464 97.3164 149.784C97.4604 150.088 97.6924 150.328 98.0124 150.504C98.3324 150.664 98.7484 150.744 99.2604 150.744C99.3884 150.744 99.5324 150.736 99.6924 150.72C99.8524 150.704 100.004 150.688 100.148 150.672V153C99.9244 153.032 99.6764 153.064 99.4044 153.096C99.1324 153.128 98.8924 153.144 98.6844 153.144ZM26.348 182V164.12H29.18V182H26.348ZM32.6231 182V169.016H35.2151V171.56L34.9031 171.224C35.2231 170.408 35.7351 169.792 36.4391 169.376C37.1431 168.944 37.9591 168.728 38.8871 168.728C39.8471 168.728 40.6951 168.936 41.4311 169.352C42.1671 169.768 42.7431 170.344 43.1591 171.08C43.5751 171.816 43.7831 172.664 43.7831 173.624V182H41.0951V174.344C41.0951 173.688 40.9751 173.136 40.7351 172.688C40.4951 172.224 40.1511 171.872 39.7031 171.632C39.2711 171.376 38.7751 171.248 38.2151 171.248C37.6551 171.248 37.1511 171.376 36.7031 171.632C36.2711 171.872 35.9351 172.224 35.6951 172.688C35.4551 173.152 35.3351 173.704 35.3351 174.344V182H32.6231ZM51.4856 182.288C50.1576 182.288 48.9896 181.96 47.9816 181.304C46.9896 180.648 46.2936 179.768 45.8936 178.664L47.9816 177.68C48.3336 178.416 48.8136 179 49.4216 179.432C50.0456 179.864 50.7336 180.08 51.4856 180.08C52.1256 180.08 52.6456 179.936 53.0456 179.648C53.4456 179.36 53.6456 178.968 53.6456 178.472C53.6456 178.152 53.5576 177.896 53.3816 177.704C53.2056 177.496 52.9816 177.328 52.7096 177.2C52.4536 177.072 52.1896 176.976 51.9176 176.912L49.8776 176.336C48.7576 176.016 47.9176 175.536 47.3576 174.896C46.8136 174.24 46.5416 173.48 46.5416 172.616C46.5416 171.832 46.7416 171.152 47.1416 170.576C47.5416 169.984 48.0936 169.528 48.7976 169.208C49.5016 168.888 50.2936 168.728 51.1736 168.728C52.3576 168.728 53.4136 169.024 54.3416 169.616C55.2696 170.192 55.9256 171 56.3096 172.04L54.2216 173.024C53.9656 172.4 53.5576 171.904 52.9976 171.536C52.4536 171.168 51.8376 170.984 51.1496 170.984C50.5576 170.984 50.0856 171.128 49.7336 171.416C49.3816 171.688 49.2056 172.048 49.2056 172.496C49.2056 172.8 49.2856 173.056 49.4456 173.264C49.6056 173.456 49.8136 173.616 50.0696 173.744C50.3256 173.856 50.5896 173.952 50.8616 174.032L52.9736 174.656C54.0456 174.96 54.8696 175.44 55.4456 176.096C56.0216 176.736 56.3096 177.504 56.3096 178.4C56.3096 179.168 56.1016 179.848 55.6856 180.44C55.2856 181.016 54.7256 181.472 54.0056 181.808C53.2856 182.128 52.4456 182.288 51.4856 182.288ZM64.5828 182.144C63.2228 182.144 62.1668 181.76 61.4148 180.992C60.6628 180.224 60.2868 179.144 60.2868 177.752V171.464H58.0068V169.016H58.3668C58.9748 169.016 59.4468 168.84 59.7828 168.488C60.1188 168.136 60.2868 167.656 60.2868 167.048V166.04H62.9988V169.016H65.9508V171.464H62.9988V177.632C62.9988 178.08 63.0708 178.464 63.2148 178.784C63.3588 179.088 63.5908 179.328 63.9108 179.504C64.2308 179.664 64.6468 179.744 65.1588 179.744C65.2868 179.744 65.4308 179.736 65.5908 179.72C65.7508 179.704 65.9028 179.688 66.0468 179.672V182C65.8228 182.032 65.5748 182.064 65.3028 182.096C65.0308 182.128 64.7908 182.144 64.5828 182.144ZM68.6934 182V169.016H71.2854V171.632L71.0454 171.248C71.3334 170.4 71.7974 169.792 72.4374 169.424C73.0774 169.04 73.8454 168.848 74.7414 168.848H75.5334V171.32H74.4054C73.5094 171.32 72.7814 171.6 72.2214 172.16C71.6774 172.704 71.4054 173.488 71.4054 174.512V182H68.6934ZM82.0207 182.288C81.0447 182.288 80.1887 182.072 79.4527 181.64C78.7167 181.192 78.1407 180.576 77.7247 179.792C77.3247 178.992 77.1247 178.072 77.1247 177.032V169.016H79.8367V176.792C79.8367 177.384 79.9567 177.904 80.1967 178.352C80.4367 178.8 80.7727 179.152 81.2047 179.408C81.6367 179.648 82.1327 179.768 82.6927 179.768C83.2687 179.768 83.7727 179.64 84.2047 179.384C84.6367 179.128 84.9727 178.768 85.2127 178.304C85.4687 177.84 85.5967 177.296 85.5967 176.672V169.016H88.2847V182H85.7167V179.456L86.0047 179.792C85.7007 180.592 85.1967 181.208 84.4927 181.64C83.7887 182.072 82.9647 182.288 82.0207 182.288ZM97.6192 182.288C96.3232 182.288 95.1712 181.992 94.1632 181.4C93.1712 180.792 92.3792 179.976 91.7872 178.952C91.2112 177.928 90.9232 176.768 90.9232 175.472C90.9232 174.192 91.2112 173.04 91.7872 172.016C92.3632 170.992 93.1552 170.192 94.1632 169.616C95.1712 169.024 96.3232 168.728 97.6192 168.728C98.4992 168.728 99.3232 168.888 100.091 169.208C100.859 169.512 101.523 169.936 102.083 170.48C102.659 171.024 103.083 171.656 103.355 172.376L100.979 173.48C100.707 172.808 100.267 172.272 99.6592 171.872C99.0672 171.456 98.3872 171.248 97.6192 171.248C96.8832 171.248 96.2192 171.432 95.6272 171.8C95.0512 172.152 94.5952 172.656 94.2592 173.312C93.9232 173.952 93.7552 174.68 93.7552 175.496C93.7552 176.312 93.9232 177.048 94.2592 177.704C94.5952 178.344 95.0512 178.848 95.6272 179.216C96.2192 179.584 96.8832 179.768 97.6192 179.768C98.4032 179.768 99.0832 179.568 99.6592 179.168C100.251 178.752 100.691 178.2 100.979 177.512L103.355 178.64C103.099 179.328 102.683 179.952 102.107 180.512C101.547 181.056 100.883 181.488 100.115 181.808C99.3472 182.128 98.5152 182.288 97.6192 182.288ZM111.622 182.144C110.262 182.144 109.206 181.76 108.454 180.992C107.702 180.224 107.326 179.144 107.326 177.752V171.464H105.046V169.016H105.406C106.014 169.016 106.486 168.84 106.822 168.488C107.158 168.136 107.326 167.656 107.326 167.048V166.04H110.038V169.016H112.99V171.464H110.038V177.632C110.038 178.08 110.11 178.464 110.254 178.784C110.398 179.088 110.63 179.328 110.95 179.504C111.27 179.664 111.686 179.744 112.198 179.744C112.326 179.744 112.47 179.736 112.63 179.72C112.79 179.704 112.942 179.688 113.086 179.672V182C112.862 182.032 112.614 182.064 112.342 182.096C112.07 182.128 111.83 182.144 111.622 182.144ZM121.762 182.288C120.514 182.288 119.37 181.992 118.33 181.4C117.306 180.808 116.49 180 115.882 178.976C115.274 177.952 114.97 176.792 114.97 175.496C114.97 174.184 115.274 173.024 115.882 172.016C116.49 170.992 117.306 170.192 118.33 169.616C119.354 169.024 120.498 168.728 121.762 168.728C123.042 168.728 124.186 169.024 125.194 169.616C126.218 170.192 127.026 170.992 127.618 172.016C128.226 173.024 128.53 174.184 128.53 175.496C128.53 176.808 128.226 177.976 127.618 179C127.01 180.024 126.194 180.832 125.17 181.424C124.146 182 123.01 182.288 121.762 182.288ZM121.762 179.768C122.53 179.768 123.21 179.584 123.802 179.216C124.394 178.848 124.858 178.344 125.194 177.704C125.546 177.048 125.722 176.312 125.722 175.496C125.722 174.68 125.546 173.952 125.194 173.312C124.858 172.672 124.394 172.168 123.802 171.8C123.21 171.432 122.53 171.248 121.762 171.248C121.01 171.248 120.33 171.432 119.722 171.8C119.13 172.168 118.658 172.672 118.306 173.312C117.97 173.952 117.802 174.68 117.802 175.496C117.802 176.312 117.97 177.048 118.306 177.704C118.658 178.344 119.13 178.848 119.722 179.216C120.33 179.584 121.01 179.768 121.762 179.768ZM131.178 182V169.016H133.77V171.632L133.53 171.248C133.818 170.4 134.282 169.792 134.922 169.424C135.562 169.04 136.33 168.848 137.226 168.848H138.018V171.32H136.89C135.994 171.32 135.266 171.6 134.706 172.16C134.162 172.704 133.89 173.488 133.89 174.512V182H131.178Z" fill="#0061B1"/>
<path opacity="0.7" d="M25.821 230V219.091H32.4048V220.263H27.142V223.949H32.0639V225.121H27.142V228.828H32.4901V230H25.821ZM34.9154 230V221.818H36.1299V223.097H36.2364C36.4069 222.66 36.6821 222.321 37.0621 222.079C37.442 221.834 37.8984 221.712 38.431 221.712C38.9708 221.712 39.42 221.834 39.7787 222.079C40.1409 222.321 40.4232 222.66 40.6256 223.097H40.7109C40.9204 222.674 41.2347 222.338 41.6537 222.09C42.0727 221.838 42.5752 221.712 43.1612 221.712C43.8927 221.712 44.4911 221.941 44.9563 222.399C45.4214 222.853 45.654 223.562 45.654 224.524V230H44.3969V224.524C44.3969 223.92 44.2318 223.489 43.9016 223.23C43.5713 222.971 43.1825 222.841 42.735 222.841C42.1597 222.841 41.7141 223.015 41.398 223.363C41.082 223.707 40.9239 224.144 40.9239 224.673V230H39.6455V224.396C39.6455 223.931 39.4946 223.556 39.1928 223.272C38.8909 222.985 38.5021 222.841 38.0262 222.841C37.6995 222.841 37.3941 222.928 37.11 223.102C36.8295 223.276 36.6022 223.517 36.4282 223.826C36.2577 224.132 36.1725 224.485 36.1725 224.886V230H34.9154ZM48.2525 233.068V221.818H49.467V223.118H49.6162C49.7085 222.976 49.8363 222.795 49.9997 222.575C50.1666 222.351 50.4045 222.152 50.7135 221.978C51.026 221.8 51.4485 221.712 51.9812 221.712C52.6701 221.712 53.2774 221.884 53.8029 222.228C54.3285 222.573 54.7387 223.061 55.0334 223.693C55.3282 224.325 55.4755 225.071 55.4755 225.93C55.4755 226.797 55.3282 227.548 55.0334 228.184C54.7387 228.816 54.3303 229.306 53.8083 229.654C53.2863 229.998 52.6843 230.17 52.0025 230.17C51.477 230.17 51.0561 230.083 50.7401 229.909C50.424 229.732 50.1808 229.531 50.0103 229.308C49.8399 229.08 49.7085 228.892 49.6162 228.743H49.5096V233.068H48.2525ZM49.4883 225.909C49.4883 226.527 49.5789 227.072 49.76 227.544C49.9411 228.013 50.2056 228.381 50.5537 228.647C50.9017 228.91 51.3278 229.041 51.8321 229.041C52.3576 229.041 52.7962 228.903 53.1478 228.626C53.5029 228.345 53.7692 227.969 53.9468 227.496C54.1279 227.021 54.2184 226.491 54.2184 225.909C54.2184 225.334 54.1297 224.815 53.9521 224.354C53.7781 223.888 53.5135 223.521 53.1584 223.251C52.8069 222.978 52.3647 222.841 51.8321 222.841C51.3207 222.841 50.891 222.971 50.543 223.23C50.195 223.485 49.9322 223.844 49.7547 224.306C49.5771 224.764 49.4883 225.298 49.4883 225.909ZM61.017 230.17C60.2784 230.17 59.6303 229.995 59.0728 229.643C58.5188 229.292 58.0855 228.8 57.773 228.168C57.4641 227.536 57.3096 226.797 57.3096 225.952C57.3096 225.099 57.4641 224.355 57.773 223.72C58.0855 223.084 58.5188 222.591 59.0728 222.239C59.6303 221.887 60.2784 221.712 61.017 221.712C61.7556 221.712 62.402 221.887 62.9559 222.239C63.5135 222.591 63.9467 223.084 64.2556 223.72C64.5681 224.355 64.7244 225.099 64.7244 225.952C64.7244 226.797 64.5681 227.536 64.2556 228.168C63.9467 228.8 63.5135 229.292 62.9559 229.643C62.402 229.995 61.7556 230.17 61.017 230.17ZM61.017 229.041C61.5781 229.041 62.0397 228.897 62.402 228.61C62.7642 228.322 63.0323 227.944 63.2063 227.475C63.3803 227.006 63.4673 226.499 63.4673 225.952C63.4673 225.405 63.3803 224.895 63.2063 224.423C63.0323 223.951 62.7642 223.569 62.402 223.278C62.0397 222.987 61.5781 222.841 61.017 222.841C60.4559 222.841 59.9943 222.987 59.6321 223.278C59.2699 223.569 59.0017 223.951 58.8277 224.423C58.6537 224.895 58.5667 225.405 58.5667 225.952C58.5667 226.499 58.6537 227.006 58.8277 227.475C59.0017 227.944 59.2699 228.322 59.6321 228.61C59.9943 228.897 60.4559 229.041 61.017 229.041ZM68.5187 230L66.0258 221.818H67.3468L69.1153 228.082H69.2005L70.9477 221.818H72.29L74.0159 228.061H74.1011L75.8696 221.818H77.1906L74.6977 230H73.4619L71.6721 223.714H71.5443L69.7545 230H68.5187ZM82.3046 230.17C81.5162 230.17 80.8362 229.996 80.2645 229.648C79.6963 229.297 79.2577 228.807 78.9488 228.178C78.6434 227.546 78.4907 226.811 78.4907 225.973C78.4907 225.135 78.6434 224.396 78.9488 223.757C79.2577 223.114 79.6874 222.614 80.2378 222.255C80.7918 221.893 81.4381 221.712 82.1768 221.712C82.6029 221.712 83.0237 221.783 83.4392 221.925C83.8547 222.067 84.2329 222.298 84.5738 222.617C84.9147 222.933 85.1863 223.352 85.3888 223.874C85.5912 224.396 85.6924 225.039 85.6924 225.803V226.335H79.3856V225.249H84.414C84.414 224.787 84.3216 224.375 84.137 224.013C83.9559 223.651 83.6966 223.365 83.3593 223.155C83.0255 222.946 82.6313 222.841 82.1768 222.841C81.676 222.841 81.2428 222.965 80.877 223.214C80.5148 223.459 80.2361 223.778 80.0407 224.173C79.8454 224.567 79.7478 224.989 79.7478 225.44V226.165C79.7478 226.783 79.8543 227.306 80.0674 227.736C80.284 228.162 80.5841 228.487 80.9676 228.711C81.3511 228.931 81.7968 229.041 82.3046 229.041C82.6349 229.041 82.9332 228.995 83.1995 228.903C83.4694 228.807 83.702 228.665 83.8973 228.477C84.0926 228.285 84.2435 228.047 84.3501 227.763L85.5645 228.104C85.4367 228.516 85.2219 228.878 84.92 229.19C84.6182 229.499 84.2453 229.741 83.8014 229.915C83.3575 230.085 82.8586 230.17 82.3046 230.17ZM87.9047 230V221.818H89.1192V223.054H89.2044C89.3535 222.649 89.6234 222.321 90.014 222.069C90.4047 221.816 90.845 221.69 91.3351 221.69C91.4274 221.69 91.5428 221.692 91.6813 221.696C91.8198 221.699 91.9246 221.705 91.9956 221.712V222.99C91.953 222.979 91.8553 222.963 91.7026 222.942C91.5535 222.917 91.3954 222.905 91.2285 222.905C90.8308 222.905 90.4757 222.988 90.1632 223.155C89.8542 223.319 89.6092 223.546 89.4281 223.837C89.2505 224.125 89.1618 224.453 89.1618 224.822V230H87.9047ZM99.1141 233.068C98.9011 233.068 98.7111 233.05 98.5442 233.015C98.3773 232.983 98.2619 232.951 98.1979 232.919L98.5175 231.811C98.8229 231.889 99.0928 231.918 99.3272 231.896C99.5616 231.875 99.7693 231.77 99.9504 231.582C100.135 231.397 100.304 231.097 100.456 230.682L100.691 230.043L97.6653 221.818H99.0289L101.287 228.338H101.373L103.631 221.818H104.995L101.522 231.193C101.366 231.616 101.172 231.966 100.941 232.243C100.71 232.523 100.442 232.731 100.137 232.866C99.835 233.001 99.4941 233.068 99.1141 233.068ZM109.985 230.17C109.246 230.17 108.598 229.995 108.041 229.643C107.487 229.292 107.054 228.8 106.741 228.168C106.432 227.536 106.278 226.797 106.278 225.952C106.278 225.099 106.432 224.355 106.741 223.72C107.054 223.084 107.487 222.591 108.041 222.239C108.598 221.887 109.246 221.712 109.985 221.712C110.724 221.712 111.37 221.887 111.924 222.239C112.481 222.591 112.915 223.084 113.224 223.72C113.536 224.355 113.692 225.099 113.692 225.952C113.692 226.797 113.536 227.536 113.224 228.168C112.915 228.8 112.481 229.292 111.924 229.643C111.37 229.995 110.724 230.17 109.985 230.17ZM109.985 229.041C110.546 229.041 111.008 228.897 111.37 228.61C111.732 228.322 112 227.944 112.174 227.475C112.348 227.006 112.435 226.499 112.435 225.952C112.435 225.405 112.348 224.895 112.174 224.423C112 223.951 111.732 223.569 111.37 223.278C111.008 222.987 110.546 222.841 109.985 222.841C109.424 222.841 108.962 222.987 108.6 223.278C108.238 223.569 107.97 223.951 107.796 224.423C107.622 224.895 107.535 225.405 107.535 225.952C107.535 226.499 107.622 227.006 107.796 227.475C107.97 227.944 108.238 228.322 108.6 228.61C108.962 228.897 109.424 229.041 109.985 229.041ZM121.068 226.655V221.818H122.325V230H121.068V228.615H120.982C120.791 229.031 120.492 229.384 120.087 229.675C119.683 229.963 119.171 230.107 118.553 230.107C118.042 230.107 117.587 229.995 117.19 229.771C116.792 229.544 116.479 229.203 116.252 228.748C116.025 228.29 115.911 227.713 115.911 227.017V221.818H117.168V226.932C117.168 227.528 117.335 228.004 117.669 228.359C118.006 228.714 118.436 228.892 118.958 228.892C119.271 228.892 119.589 228.812 119.912 228.652C120.238 228.493 120.512 228.248 120.732 227.917C120.956 227.587 121.068 227.166 121.068 226.655ZM124.927 230V221.818H126.142V223.054H126.227C126.376 222.649 126.646 222.321 127.037 222.069C127.427 221.816 127.867 221.69 128.358 221.69C128.45 221.69 128.565 221.692 128.704 221.696C128.842 221.699 128.947 221.705 129.018 221.712V222.99C128.975 222.979 128.878 222.963 128.725 222.942C128.576 222.917 128.418 222.905 128.251 222.905C127.853 222.905 127.498 222.988 127.186 223.155C126.877 223.319 126.632 223.546 126.451 223.837C126.273 224.125 126.184 224.453 126.184 224.822V230H124.927ZM136.604 223.651L135.474 223.97C135.403 223.782 135.299 223.599 135.16 223.422C135.025 223.24 134.84 223.091 134.606 222.974C134.372 222.857 134.072 222.798 133.706 222.798C133.205 222.798 132.788 222.914 132.454 223.145C132.124 223.372 131.959 223.661 131.959 224.013C131.959 224.325 132.072 224.572 132.3 224.753C132.527 224.934 132.882 225.085 133.365 225.206L134.579 225.504C135.311 225.682 135.856 225.953 136.215 226.319C136.573 226.681 136.753 227.148 136.753 227.72C136.753 228.189 136.618 228.608 136.348 228.977C136.082 229.347 135.709 229.638 135.229 229.851C134.75 230.064 134.192 230.17 133.557 230.17C132.722 230.17 132.032 229.989 131.485 229.627C130.938 229.265 130.592 228.736 130.446 228.04L131.639 227.741C131.753 228.182 131.968 228.512 132.284 228.732C132.603 228.952 133.021 229.062 133.535 229.062C134.121 229.062 134.587 228.938 134.931 228.69C135.279 228.437 135.453 228.136 135.453 227.784C135.453 227.5 135.354 227.262 135.155 227.07C134.956 226.875 134.651 226.729 134.239 226.634L132.875 226.314C132.126 226.136 131.575 225.861 131.224 225.488C130.876 225.112 130.702 224.641 130.702 224.077C130.702 223.615 130.831 223.207 131.09 222.852C131.353 222.496 131.71 222.218 132.161 222.015C132.616 221.813 133.131 221.712 133.706 221.712C134.516 221.712 135.151 221.889 135.613 222.244C136.078 222.599 136.408 223.068 136.604 223.651ZM142.375 230.17C141.587 230.17 140.907 229.996 140.335 229.648C139.767 229.297 139.329 228.807 139.02 228.178C138.714 227.546 138.562 226.811 138.562 225.973C138.562 225.135 138.714 224.396 139.02 223.757C139.329 223.114 139.758 222.614 140.309 222.255C140.863 221.893 141.509 221.712 142.248 221.712C142.674 221.712 143.095 221.783 143.51 221.925C143.926 222.067 144.304 222.298 144.645 222.617C144.986 222.933 145.257 223.352 145.46 223.874C145.662 224.396 145.763 225.039 145.763 225.803V226.335H139.456V225.249H144.485C144.485 224.787 144.393 224.375 144.208 224.013C144.027 223.651 143.768 223.365 143.43 223.155C143.096 222.946 142.702 222.841 142.248 222.841C141.747 222.841 141.314 222.965 140.948 223.214C140.586 223.459 140.307 223.778 140.112 224.173C139.916 224.567 139.819 224.989 139.819 225.44V226.165C139.819 226.783 139.925 227.306 140.138 227.736C140.355 228.162 140.655 228.487 141.038 228.711C141.422 228.931 141.868 229.041 142.375 229.041C142.706 229.041 143.004 228.995 143.27 228.903C143.54 228.807 143.773 228.665 143.968 228.477C144.163 228.285 144.314 228.047 144.421 227.763L145.635 228.104C145.508 228.516 145.293 228.878 144.991 229.19C144.689 229.499 144.316 229.741 143.872 229.915C143.428 230.085 142.929 230.17 142.375 230.17ZM149.233 219.091V230H147.976V219.091H149.233ZM155.479 221.818V222.884H151.068V221.818H155.479ZM152.389 230V220.689C152.389 220.22 152.499 219.83 152.719 219.517C152.94 219.205 153.225 218.97 153.577 218.814C153.929 218.658 154.3 218.58 154.69 218.58C154.999 218.58 155.251 218.604 155.447 218.654C155.642 218.704 155.788 218.75 155.883 218.793L155.521 219.879C155.457 219.858 155.369 219.831 155.255 219.799C155.145 219.767 154.999 219.751 154.818 219.751C154.403 219.751 154.103 219.856 153.918 220.066C153.737 220.275 153.646 220.582 153.646 220.987V230H152.389ZM27.5043 257L25.0114 248.818H26.3324L28.1009 255.082H28.1861L29.9332 248.818H31.2756L33.0014 255.061H33.0866L34.8551 248.818H36.1761L33.6832 257H32.4474L30.6577 250.714H30.5298L28.7401 257H27.5043ZM38.1381 257V248.818H39.3952V257H38.1381ZM38.7773 247.455C38.5322 247.455 38.321 247.371 38.1434 247.204C37.9694 247.037 37.8824 246.837 37.8824 246.602C37.8824 246.368 37.9694 246.167 38.1434 246C38.321 245.833 38.5322 245.75 38.7773 245.75C39.0223 245.75 39.2318 245.833 39.4058 246C39.5834 246.167 39.6722 246.368 39.6722 246.602C39.6722 246.837 39.5834 247.037 39.4058 247.204C39.2318 247.371 39.0223 247.455 38.7773 247.455ZM45.5559 248.818V249.884H41.3158V248.818H45.5559ZM42.5516 246.858H43.8087V254.656C43.8087 255.011 43.8602 255.278 43.9632 255.455C44.0697 255.629 44.2047 255.746 44.368 255.807C44.5349 255.864 44.7107 255.892 44.8954 255.892C45.0339 255.892 45.1475 255.885 45.2363 255.871C45.3251 255.853 45.3961 255.839 45.4493 255.828L45.705 256.957C45.6198 256.989 45.5008 257.021 45.3481 257.053C45.1954 257.089 45.0019 257.107 44.7675 257.107C44.4124 257.107 44.0644 257.03 43.7235 256.877C43.3861 256.725 43.1056 256.492 42.8819 256.18C42.6617 255.867 42.5516 255.473 42.5516 254.997V246.858ZM49.1797 252.078V257H47.9226V246.091H49.1797V250.097H49.2863C49.478 249.674 49.7657 249.338 50.1492 249.09C50.5363 248.838 51.0512 248.712 51.6939 248.712C52.2515 248.712 52.7398 248.824 53.1588 249.047C53.5778 249.267 53.9028 249.607 54.1336 250.065C54.368 250.519 54.4851 251.098 54.4851 251.801V257H53.228V251.886C53.228 251.237 53.0594 250.734 52.722 250.379C52.3882 250.02 51.9248 249.841 51.3317 249.841C50.9198 249.841 50.5505 249.928 50.2238 250.102C49.9006 250.276 49.6449 250.53 49.4567 250.864C49.2721 251.197 49.1797 251.602 49.1797 252.078ZM65.1619 248.818V249.884H60.9219V248.818H65.1619ZM62.1577 246.858H63.4148V254.656C63.4148 255.011 63.4663 255.278 63.5692 255.455C63.6758 255.629 63.8107 255.746 63.9741 255.807C64.141 255.864 64.3168 255.892 64.5014 255.892C64.6399 255.892 64.7536 255.885 64.8423 255.871C64.9311 255.853 65.0021 255.839 65.0554 255.828L65.3111 256.957C65.2259 256.989 65.1069 257.021 64.9542 257.053C64.8015 257.089 64.608 257.107 64.3736 257.107C64.0185 257.107 63.6705 257.03 63.3295 256.877C62.9922 256.725 62.7116 256.492 62.4879 256.18C62.2678 255.867 62.1577 255.473 62.1577 254.997V246.858ZM68.7858 252.078V257H67.5287V246.091H68.7858V250.097H68.8923C69.0841 249.674 69.3717 249.338 69.7553 249.09C70.1423 248.838 70.6572 248.712 71.3 248.712C71.8575 248.712 72.3458 248.824 72.7648 249.047C73.1839 249.267 73.5088 249.607 73.7396 250.065C73.974 250.519 74.0912 251.098 74.0912 251.801V257H72.8341V251.886C72.8341 251.237 72.6654 250.734 72.3281 250.379C71.9942 250.02 71.5308 249.841 70.9378 249.841C70.5259 249.841 70.1565 249.928 69.8298 250.102C69.5067 250.276 69.251 250.53 69.0628 250.864C68.8781 251.197 68.7858 251.602 68.7858 252.078ZM80.1214 257.17C79.333 257.17 78.653 256.996 78.0813 256.648C77.5131 256.297 77.0745 255.807 76.7656 255.178C76.4602 254.546 76.3075 253.811 76.3075 252.973C76.3075 252.135 76.4602 251.396 76.7656 250.757C77.0745 250.114 77.5042 249.614 78.0546 249.255C78.6086 248.893 79.2549 248.712 79.9936 248.712C80.4197 248.712 80.8405 248.783 81.256 248.925C81.6715 249.067 82.0497 249.298 82.3906 249.617C82.7315 249.933 83.0031 250.352 83.2056 250.874C83.408 251.396 83.5092 252.039 83.5092 252.803V253.335H77.2024V252.249H82.2308C82.2308 251.787 82.1384 251.375 81.9538 251.013C81.7727 250.651 81.5134 250.365 81.1761 250.155C80.8423 249.946 80.4481 249.841 79.9936 249.841C79.4928 249.841 79.0596 249.965 78.6938 250.214C78.3316 250.459 78.0529 250.778 77.8575 251.173C77.6622 251.567 77.5646 251.989 77.5646 252.44V253.165C77.5646 253.783 77.6711 254.306 77.8842 254.736C78.1008 255.162 78.4009 255.487 78.7844 255.711C79.1679 255.931 79.6136 256.041 80.1214 256.041C80.4517 256.041 80.7499 255.995 81.0163 255.903C81.2862 255.807 81.5188 255.665 81.7141 255.477C81.9094 255.285 82.0603 255.047 82.1668 254.763L83.3813 255.104C83.2535 255.516 83.0387 255.878 82.7368 256.19C82.435 256.499 82.0621 256.741 81.6182 256.915C81.1743 257.085 80.6754 257.17 80.1214 257.17ZM26.8224 281.017L26.8011 279.462H27.0568L30.6364 275.818H32.1918L28.3778 279.675H28.2713L26.8224 281.017ZM25.6506 284V273.091H26.9077V284H25.6506ZM30.8494 284L27.6534 279.952L28.5483 279.078L32.4474 284H30.8494ZM35.3669 279.078V284H34.1097V275.818H35.3242V277.097H35.4308C35.6225 276.681 35.9137 276.347 36.3044 276.095C36.695 275.839 37.1992 275.712 37.8171 275.712C38.3711 275.712 38.8558 275.825 39.2713 276.053C39.6868 276.276 40.01 276.617 40.2408 277.075C40.4716 277.53 40.587 278.105 40.587 278.801V284H39.3299V278.886C39.3299 278.244 39.163 277.743 38.8292 277.384C38.4954 277.022 38.0373 276.841 37.4549 276.841C37.0536 276.841 36.695 276.928 36.3789 277.102C36.0664 277.276 35.8196 277.53 35.6385 277.864C35.4574 278.197 35.3669 278.602 35.3669 279.078ZM46.508 284.17C45.7694 284.17 45.1213 283.995 44.5638 283.643C44.0098 283.292 43.5766 282.8 43.2641 282.168C42.9551 281.536 42.8006 280.797 42.8006 279.952C42.8006 279.099 42.9551 278.355 43.2641 277.72C43.5766 277.084 44.0098 276.591 44.5638 276.239C45.1213 275.887 45.7694 275.712 46.508 275.712C47.2467 275.712 47.893 275.887 48.4469 276.239C49.0045 276.591 49.4377 277.084 49.7467 277.72C50.0592 278.355 50.2154 279.099 50.2154 279.952C50.2154 280.797 50.0592 281.536 49.7467 282.168C49.4377 282.8 49.0045 283.292 48.4469 283.643C47.893 283.995 47.2467 284.17 46.508 284.17ZM46.508 283.041C47.0691 283.041 47.5308 282.897 47.893 282.61C48.2552 282.322 48.5233 281.944 48.6973 281.475C48.8713 281.006 48.9583 280.499 48.9583 279.952C48.9583 279.405 48.8713 278.895 48.6973 278.423C48.5233 277.951 48.2552 277.569 47.893 277.278C47.5308 276.987 47.0691 276.841 46.508 276.841C45.9469 276.841 45.4853 276.987 45.1231 277.278C44.7609 277.569 44.4928 277.951 44.3188 278.423C44.1447 278.895 44.0577 279.405 44.0577 279.952C44.0577 280.499 44.1447 281.006 44.3188 281.475C44.4928 281.944 44.7609 282.322 45.1231 282.61C45.4853 282.897 45.9469 283.041 46.508 283.041ZM54.0097 284L51.5168 275.818H52.8379L54.6063 282.082H54.6915L56.4387 275.818H57.781L59.5069 282.061H59.5921L61.3606 275.818H62.6816L60.1887 284H58.9529L57.1631 277.714H57.0353L55.2455 284H54.0097ZM65.9006 273.091V284H64.6435V273.091H65.9006ZM71.9335 284.17C71.1452 284.17 70.4651 283.996 69.8934 283.648C69.3252 283.297 68.8866 282.807 68.5777 282.178C68.2723 281.546 68.1196 280.811 68.1196 279.973C68.1196 279.135 68.2723 278.396 68.5777 277.757C68.8866 277.114 69.3163 276.614 69.8667 276.255C70.4207 275.893 71.067 275.712 71.8057 275.712C72.2318 275.712 72.6526 275.783 73.0681 275.925C73.4836 276.067 73.8618 276.298 74.2027 276.617C74.5436 276.933 74.8153 277.352 75.0177 277.874C75.2201 278.396 75.3213 279.039 75.3213 279.803V280.335H69.0145V279.249H74.0429C74.0429 278.787 73.9506 278.375 73.7659 278.013C73.5848 277.651 73.3256 277.365 72.9882 277.155C72.6544 276.946 72.2602 276.841 71.8057 276.841C71.305 276.841 70.8717 276.965 70.5059 277.214C70.1437 277.459 69.865 277.778 69.6697 278.173C69.4743 278.567 69.3767 278.989 69.3767 279.44V280.165C69.3767 280.783 69.4832 281.306 69.6963 281.736C69.9129 282.162 70.213 282.487 70.5965 282.711C70.98 282.931 71.4257 283.041 71.9335 283.041C72.2638 283.041 72.5621 282.995 72.8284 282.903C73.0983 282.807 73.3309 282.665 73.5262 282.477C73.7215 282.285 73.8724 282.047 73.979 281.763L75.1934 282.104C75.0656 282.516 74.8508 282.878 74.5489 283.19C74.2471 283.499 73.8742 283.741 73.4303 283.915C72.9864 284.085 72.4875 284.17 71.9335 284.17ZM80.6231 284.17C79.9412 284.17 79.3393 283.998 78.8173 283.654C78.2953 283.306 77.8869 282.816 77.5922 282.184C77.2974 281.548 77.1501 280.797 77.1501 279.93C77.1501 279.071 77.2974 278.325 77.5922 277.693C77.8869 277.061 78.2971 276.573 78.8226 276.228C79.3482 275.884 79.9555 275.712 80.6444 275.712C81.177 275.712 81.5979 275.8 81.9068 275.978C82.2193 276.152 82.4572 276.351 82.6206 276.575C82.7875 276.795 82.9171 276.976 83.0094 277.118H83.116V273.091H84.3731V284H83.1586V282.743H83.0094C82.9171 282.892 82.7857 283.08 82.6153 283.308C82.4448 283.531 82.2015 283.732 81.8855 283.909C81.5694 284.083 81.1486 284.17 80.6231 284.17ZM80.7935 283.041C81.2978 283.041 81.7239 282.91 82.0719 282.647C82.4199 282.381 82.6845 282.013 82.8656 281.544C83.0467 281.072 83.1373 280.527 83.1373 279.909C83.1373 279.298 83.0485 278.764 82.8709 278.306C82.6934 277.844 82.4306 277.485 82.0826 277.23C81.7346 276.971 81.3049 276.841 80.7935 276.841C80.2608 276.841 79.817 276.978 79.4618 277.251C79.1103 277.521 78.8457 277.888 78.6682 278.354C78.4942 278.815 78.4072 279.334 78.4072 279.909C78.4072 280.491 78.4959 281.021 78.6735 281.496C78.8546 281.969 79.1209 282.345 79.4725 282.626C79.8276 282.903 80.268 283.041 80.7935 283.041ZM90.4525 287.239C89.8453 287.239 89.3233 287.161 88.8865 287.004C88.4497 286.852 88.0857 286.649 87.7945 286.397C87.5069 286.148 87.2778 285.882 87.1074 285.598L88.1088 284.895C88.2224 285.044 88.3662 285.214 88.5403 285.406C88.7143 285.602 88.9522 285.77 89.254 285.912C89.5594 286.058 89.9589 286.131 90.4525 286.131C91.113 286.131 91.6581 285.971 92.0878 285.651C92.5175 285.332 92.7324 284.831 92.7324 284.149V282.487H92.6258C92.5335 282.636 92.4021 282.821 92.2317 283.041C92.0648 283.258 91.8233 283.451 91.5072 283.622C91.1947 283.789 90.7721 283.872 90.2395 283.872C89.579 283.872 88.9859 283.716 88.4604 283.403C87.9383 283.091 87.5246 282.636 87.2192 282.04C86.9174 281.443 86.7665 280.719 86.7665 279.866C86.7665 279.028 86.9138 278.299 87.2086 277.677C87.5033 277.052 87.9135 276.569 88.439 276.228C88.9646 275.884 89.5719 275.712 90.2608 275.712C90.7934 275.712 91.216 275.8 91.5285 275.978C91.8446 276.152 92.0861 276.351 92.253 276.575C92.4234 276.795 92.5548 276.976 92.6471 277.118H92.775V275.818H93.9895V284.234C93.9895 284.938 93.8297 285.509 93.5101 285.95C93.194 286.393 92.7679 286.718 92.2317 286.924C91.699 287.134 91.1059 287.239 90.4525 287.239ZM90.4099 282.743C90.9142 282.743 91.3403 282.627 91.6883 282.397C92.0363 282.166 92.3009 281.834 92.482 281.401C92.6631 280.967 92.7537 280.449 92.7537 279.845C92.7537 279.256 92.6649 278.735 92.4873 278.284C92.3098 277.833 92.047 277.48 91.699 277.224C91.351 276.969 90.9213 276.841 90.4099 276.841C89.8773 276.841 89.4334 276.976 89.0782 277.246C88.7267 277.516 88.4621 277.878 88.2846 278.332C88.1106 278.787 88.0236 279.291 88.0236 279.845C88.0236 280.413 88.1123 280.916 88.2899 281.353C88.471 281.786 88.7373 282.127 89.0889 282.375C89.444 282.62 89.8844 282.743 90.4099 282.743ZM100.021 284.17C99.2327 284.17 98.5526 283.996 97.9809 283.648C97.4127 283.297 96.9741 282.807 96.6652 282.178C96.3598 281.546 96.2071 280.811 96.2071 279.973C96.2071 279.135 96.3598 278.396 96.6652 277.757C96.9741 277.114 97.4038 276.614 97.9542 276.255C98.5082 275.893 99.1545 275.712 99.8932 275.712C100.319 275.712 100.74 275.783 101.156 275.925C101.571 276.067 101.949 276.298 102.29 276.617C102.631 276.933 102.903 277.352 103.105 277.874C103.308 278.396 103.409 279.039 103.409 279.803V280.335H97.102V279.249H102.13C102.13 278.787 102.038 278.375 101.853 278.013C101.672 277.651 101.413 277.365 101.076 277.155C100.742 276.946 100.348 276.841 99.8932 276.841C99.3925 276.841 98.9592 276.965 98.5934 277.214C98.2312 277.459 97.9525 277.778 97.7572 278.173C97.5618 278.567 97.4642 278.989 97.4642 279.44V280.165C97.4642 280.783 97.5707 281.306 97.7838 281.736C98.0004 282.162 98.3005 282.487 98.684 282.711C99.0675 282.931 99.5132 283.041 100.021 283.041C100.351 283.041 100.65 282.995 100.916 282.903C101.186 282.807 101.418 282.665 101.614 282.477C101.809 282.285 101.96 282.047 102.066 281.763L103.281 282.104C103.153 282.516 102.938 282.878 102.636 283.19C102.335 283.499 101.962 283.741 101.518 283.915C101.074 284.085 100.575 284.17 100.021 284.17ZM112.547 284.192C112.029 284.192 111.559 284.094 111.136 283.899C110.713 283.7 110.378 283.414 110.129 283.041C109.881 282.665 109.756 282.21 109.756 281.678C109.756 281.209 109.849 280.829 110.033 280.538C110.218 280.243 110.465 280.012 110.774 279.845C111.083 279.678 111.424 279.554 111.796 279.472C112.173 279.387 112.551 279.32 112.931 279.27C113.428 279.206 113.831 279.158 114.14 279.126C114.453 279.091 114.68 279.032 114.822 278.95C114.968 278.869 115.04 278.727 115.04 278.524V278.482C115.04 277.956 114.897 277.548 114.609 277.256C114.325 276.965 113.893 276.82 113.315 276.82C112.714 276.82 112.244 276.951 111.903 277.214C111.562 277.477 111.322 277.757 111.184 278.055L109.991 277.629C110.204 277.132 110.488 276.745 110.843 276.468C111.202 276.187 111.592 275.992 112.015 275.882C112.441 275.768 112.86 275.712 113.272 275.712C113.535 275.712 113.837 275.744 114.177 275.808C114.522 275.868 114.854 275.994 115.174 276.186C115.497 276.377 115.765 276.667 115.978 277.054C116.191 277.441 116.297 277.96 116.297 278.609V284H115.04V282.892H114.976C114.891 283.07 114.749 283.26 114.55 283.462C114.351 283.664 114.087 283.837 113.757 283.979C113.426 284.121 113.023 284.192 112.547 284.192ZM112.739 283.062C113.236 283.062 113.655 282.965 113.996 282.77C114.341 282.574 114.6 282.322 114.774 282.013C114.952 281.704 115.04 281.379 115.04 281.038V279.888C114.987 279.952 114.87 280.01 114.689 280.064C114.511 280.113 114.305 280.158 114.071 280.197C113.84 280.232 113.615 280.264 113.394 280.293C113.178 280.317 113.002 280.339 112.867 280.357C112.54 280.399 112.235 280.468 111.951 280.564C111.67 280.657 111.443 280.797 111.269 280.985C111.099 281.17 111.013 281.422 111.013 281.741C111.013 282.178 111.175 282.509 111.498 282.732C111.825 282.952 112.239 283.062 112.739 283.062ZM120.149 279.078V284H118.892V275.818H120.106V277.097H120.213C120.405 276.681 120.696 276.347 121.087 276.095C121.477 275.839 121.981 275.712 122.599 275.712C123.153 275.712 123.638 275.825 124.054 276.053C124.469 276.276 124.792 276.617 125.023 277.075C125.254 277.53 125.369 278.105 125.369 278.801V284H124.112V278.886C124.112 278.244 123.945 277.743 123.611 277.384C123.278 277.022 122.82 276.841 122.237 276.841C121.836 276.841 121.477 276.928 121.161 277.102C120.849 277.276 120.602 277.53 120.421 277.864C120.24 278.197 120.149 278.602 120.149 279.078ZM131.056 284.17C130.374 284.17 129.772 283.998 129.25 283.654C128.728 283.306 128.32 282.816 128.025 282.184C127.73 281.548 127.583 280.797 127.583 279.93C127.583 279.071 127.73 278.325 128.025 277.693C128.32 277.061 128.73 276.573 129.255 276.228C129.781 275.884 130.388 275.712 131.077 275.712C131.61 275.712 132.031 275.8 132.34 275.978C132.652 276.152 132.89 276.351 133.053 276.575C133.22 276.795 133.35 276.976 133.442 277.118H133.549V273.091H134.806V284H133.591V282.743H133.442C133.35 282.892 133.219 283.08 133.048 283.308C132.878 283.531 132.634 283.732 132.318 283.909C132.002 284.083 131.581 284.17 131.056 284.17ZM131.226 283.041C131.731 283.041 132.157 282.91 132.505 282.647C132.853 282.381 133.117 282.013 133.298 281.544C133.48 281.072 133.57 280.527 133.57 279.909C133.57 279.298 133.481 278.764 133.304 278.306C133.126 277.844 132.863 277.485 132.515 277.23C132.167 276.971 131.738 276.841 131.226 276.841C130.694 276.841 130.25 276.978 129.895 277.251C129.543 277.521 129.279 277.888 129.101 278.354C128.927 278.815 128.84 279.334 128.84 279.909C128.84 280.491 128.929 281.021 129.106 281.496C129.287 281.969 129.554 282.345 129.905 282.626C130.26 282.903 130.701 283.041 131.226 283.041ZM31.446 304.651L30.3168 304.97C30.2457 304.782 30.141 304.599 30.0025 304.422C29.8675 304.24 29.6829 304.091 29.4485 303.974C29.2141 303.857 28.9141 303.798 28.5483 303.798C28.0476 303.798 27.6303 303.914 27.2965 304.145C26.9663 304.372 26.8011 304.661 26.8011 305.013C26.8011 305.325 26.9148 305.572 27.142 305.753C27.3693 305.934 27.7244 306.085 28.2074 306.206L29.4219 306.504C30.1534 306.682 30.6985 306.953 31.0572 307.319C31.4158 307.681 31.5952 308.148 31.5952 308.72C31.5952 309.189 31.4602 309.608 31.1903 309.977C30.924 310.347 30.5511 310.638 30.0717 310.851C29.5923 311.064 29.0348 311.17 28.3991 311.17C27.5646 311.17 26.8739 310.989 26.3271 310.627C25.7802 310.265 25.4339 309.736 25.2884 309.04L26.4815 308.741C26.5952 309.182 26.81 309.512 27.1261 309.732C27.4457 309.952 27.8629 310.062 28.3778 310.062C28.9638 310.062 29.429 309.938 29.7734 309.69C30.1214 309.437 30.2955 309.136 30.2955 308.784C30.2955 308.5 30.196 308.262 29.9972 308.07C29.7983 307.875 29.4929 307.729 29.081 307.634L27.7173 307.314C26.968 307.136 26.4176 306.861 26.0661 306.488C25.718 306.112 25.544 305.641 25.544 305.077C25.544 304.615 25.6737 304.207 25.9329 303.852C26.1957 303.496 26.5526 303.218 27.0036 303.015C27.4581 302.813 27.973 302.712 28.5483 302.712C29.358 302.712 29.9936 302.889 30.4553 303.244C30.9205 303.599 31.2507 304.068 31.446 304.651ZM34.9594 308.017L34.9381 306.462H35.1937L38.7733 302.818H40.3287L36.5148 306.675H36.4082L34.9594 308.017ZM33.7875 311V300.091H35.0446V311H33.7875ZM38.9863 311L35.7903 306.952L36.6852 306.078L40.5844 311H38.9863ZM42.2467 311V302.818H43.5038V311H42.2467ZM42.8859 301.455C42.6408 301.455 42.4295 301.371 42.252 301.204C42.078 301.037 41.991 300.837 41.991 300.602C41.991 300.368 42.078 300.167 42.252 300C42.4295 299.833 42.6408 299.75 42.8859 299.75C43.1309 299.75 43.3404 299.833 43.5144 300C43.692 300.167 43.7808 300.368 43.7808 300.602C43.7808 300.837 43.692 301.037 43.5144 301.204C43.3404 301.371 43.1309 301.455 42.8859 301.455ZM47.3633 300.091V311H46.1062V300.091H47.3633ZM51.2229 300.091V311H49.9658V300.091H51.2229ZM59.6208 304.651L58.4916 304.97C58.4205 304.782 58.3158 304.599 58.1773 304.422C58.0423 304.24 57.8577 304.091 57.6233 303.974C57.3889 303.857 57.0889 303.798 56.7231 303.798C56.2224 303.798 55.8051 303.914 55.4713 304.145C55.1411 304.372 54.9759 304.661 54.9759 305.013C54.9759 305.325 55.0896 305.572 55.3169 305.753C55.5441 305.934 55.8992 306.085 56.3822 306.206L57.5967 306.504C58.3282 306.682 58.8733 306.953 59.232 307.319C59.5906 307.681 59.77 308.148 59.77 308.72C59.77 309.189 59.635 309.608 59.3651 309.977C59.0988 310.347 58.7259 310.638 58.2465 310.851C57.7671 311.064 57.2096 311.17 56.574 311.17C55.7394 311.17 55.0487 310.989 54.5019 310.627C53.955 310.265 53.6088 309.736 53.4632 309.04L54.6563 308.741C54.77 309.182 54.9848 309.512 55.3009 309.732C55.6205 309.952 56.0377 310.062 56.5526 310.062C57.1386 310.062 57.6038 309.938 57.9482 309.69C58.2963 309.437 58.4703 309.136 58.4703 308.784C58.4703 308.5 58.3708 308.262 58.172 308.07C57.9731 307.875 57.6677 307.729 57.2558 307.634L55.8921 307.314C55.1428 307.136 54.5924 306.861 54.2409 306.488C53.8928 306.112 53.7188 305.641 53.7188 305.077C53.7188 304.615 53.8485 304.207 54.1077 303.852C54.3705 303.496 54.7274 303.218 55.1784 303.015C55.6329 302.813 56.1478 302.712 56.7231 302.712C57.5328 302.712 58.1684 302.889 58.6301 303.244C59.0953 303.599 59.4255 304.068 59.6208 304.651ZM69.7836 314.239C69.1763 314.239 68.6543 314.161 68.2175 314.004C67.7808 313.852 67.4168 313.649 67.1256 313.397C66.8379 313.148 66.6089 312.882 66.4384 312.598L67.4398 311.895C67.5535 312.044 67.6973 312.214 67.8713 312.406C68.0453 312.602 68.2832 312.77 68.5851 312.912C68.8905 313.058 69.29 313.131 69.7836 313.131C70.4441 313.131 70.9892 312.971 71.4189 312.651C71.8486 312.332 72.0634 311.831 72.0634 311.149V309.487H71.9569C71.8646 309.636 71.7332 309.821 71.5627 310.041C71.3958 310.258 71.1543 310.451 70.8383 310.622C70.5258 310.789 70.1032 310.872 69.5705 310.872C68.91 310.872 68.317 310.716 67.7914 310.403C67.2694 310.091 66.8557 309.636 66.5503 309.04C66.2484 308.443 66.0975 307.719 66.0975 306.866C66.0975 306.028 66.2449 305.299 66.5396 304.677C66.8344 304.052 67.2445 303.569 67.7701 303.228C68.2957 302.884 68.9029 302.712 69.5918 302.712C70.1245 302.712 70.5471 302.8 70.8596 302.978C71.1756 303.152 71.4171 303.351 71.584 303.575C71.7545 303.795 71.8859 303.976 71.9782 304.118H72.106V302.818H73.3205V311.234C73.3205 311.938 73.1607 312.509 72.8411 312.95C72.5251 313.393 72.0989 313.718 71.5627 313.924C71.03 314.134 70.437 314.239 69.7836 314.239ZM69.741 309.743C70.2452 309.743 70.6714 309.627 71.0194 309.397C71.3674 309.166 71.632 308.834 71.8131 308.401C71.9942 307.967 72.0847 307.449 72.0847 306.845C72.0847 306.256 71.996 305.735 71.8184 305.284C71.6408 304.833 71.3781 304.48 71.03 304.224C70.682 303.969 70.2523 303.841 69.741 303.841C69.2083 303.841 68.7644 303.976 68.4093 304.246C68.0577 304.516 67.7932 304.878 67.6156 305.332C67.4416 305.787 67.3546 306.291 67.3546 306.845C67.3546 307.413 67.4434 307.916 67.621 308.353C67.8021 308.786 68.0684 309.127 68.42 309.375C68.7751 309.62 69.2154 309.743 69.741 309.743ZM78.3293 311.192C77.8109 311.192 77.3403 311.094 76.9178 310.899C76.4952 310.7 76.1596 310.414 75.911 310.041C75.6624 309.665 75.5381 309.21 75.5381 308.678C75.5381 308.209 75.6305 307.829 75.8151 307.538C75.9998 307.243 76.2466 307.012 76.5555 306.845C76.8645 306.678 77.2054 306.554 77.5783 306.472C77.9547 306.387 78.3329 306.32 78.7129 306.27C79.21 306.206 79.6131 306.158 79.922 306.126C80.2345 306.091 80.4618 306.032 80.6038 305.95C80.7494 305.869 80.8222 305.727 80.8222 305.524V305.482C80.8222 304.956 80.6784 304.548 80.3908 304.256C80.1067 303.965 79.6752 303.82 79.0964 303.82C78.4962 303.82 78.0257 303.951 77.6848 304.214C77.3439 304.477 77.1042 304.757 76.9657 305.055L75.7725 304.629C75.9856 304.132 76.2697 303.745 76.6248 303.468C76.9835 303.187 77.3741 302.992 77.7967 302.882C78.2228 302.768 78.6418 302.712 79.0538 302.712C79.3165 302.712 79.6184 302.744 79.9593 302.808C80.3038 302.868 80.6358 302.994 80.9554 303.186C81.2786 303.377 81.5467 303.667 81.7597 304.054C81.9728 304.441 82.0793 304.96 82.0793 305.609V311H80.8222V309.892H80.7583C80.6731 310.07 80.531 310.26 80.3322 310.462C80.1333 310.664 79.8688 310.837 79.5385 310.979C79.2082 311.121 78.8052 311.192 78.3293 311.192ZM78.5211 310.062C79.0183 310.062 79.4373 309.965 79.7782 309.77C80.1227 309.574 80.3819 309.322 80.5559 309.013C80.7335 308.704 80.8222 308.379 80.8222 308.038V306.888C80.769 306.952 80.6518 307.01 80.4707 307.064C80.2931 307.113 80.0871 307.158 79.8528 307.197C79.6219 307.232 79.3965 307.264 79.1763 307.293C78.9597 307.317 78.7839 307.339 78.6489 307.357C78.3222 307.399 78.0168 307.468 77.7327 307.564C77.4522 307.657 77.2249 307.797 77.0509 307.985C76.8805 308.17 76.7952 308.422 76.7952 308.741C76.7952 309.178 76.9568 309.509 77.28 309.732C77.6067 309.952 78.0204 310.062 78.5211 310.062ZM84.6738 311V302.818H85.9309V311H84.6738ZM85.313 301.455C85.068 301.455 84.8567 301.371 84.6791 301.204C84.5051 301.037 84.4181 300.837 84.4181 300.602C84.4181 300.368 84.5051 300.167 84.6791 300C84.8567 299.833 85.068 299.75 85.313 299.75C85.558 299.75 85.7676 299.833 85.9416 300C86.1191 300.167 86.2079 300.368 86.2079 300.602C86.2079 300.837 86.1191 301.037 85.9416 301.204C85.7676 301.371 85.558 301.455 85.313 301.455ZM89.7905 306.078V311H88.5334V302.818H89.7479V304.097H89.8544C90.0462 303.681 90.3374 303.347 90.728 303.095C91.1186 302.839 91.6229 302.712 92.2408 302.712C92.7947 302.712 93.2795 302.825 93.695 303.053C94.1104 303.276 94.4336 303.617 94.6644 304.075C94.8952 304.53 95.0107 305.105 95.0107 305.801V311H93.7536V305.886C93.7536 305.244 93.5866 304.743 93.2528 304.384C92.919 304.022 92.4609 303.841 91.8786 303.841C91.4773 303.841 91.1186 303.928 90.8026 304.102C90.4901 304.276 90.2433 304.53 90.0621 304.864C89.881 305.197 89.7905 305.602 89.7905 306.078ZM101.038 311.17C100.25 311.17 99.5698 310.996 98.9981 310.648C98.4299 310.297 97.9913 309.807 97.6824 309.178C97.377 308.546 97.2243 307.811 97.2243 306.973C97.2243 306.135 97.377 305.396 97.6824 304.757C97.9913 304.114 98.421 303.614 98.9714 303.255C99.5254 302.893 100.172 302.712 100.91 302.712C101.336 302.712 101.757 302.783 102.173 302.925C102.588 303.067 102.966 303.298 103.307 303.617C103.648 303.933 103.92 304.352 104.122 304.874C104.325 305.396 104.426 306.039 104.426 306.803V307.335H98.1192V306.249H103.148C103.148 305.787 103.055 305.375 102.871 305.013C102.689 304.651 102.43 304.365 102.093 304.155C101.759 303.946 101.365 303.841 100.91 303.841C100.41 303.841 99.9764 303.965 99.6106 304.214C99.2484 304.459 98.9697 304.778 98.7743 305.173C98.579 305.567 98.4814 305.989 98.4814 306.44V307.165C98.4814 307.783 98.5879 308.306 98.801 308.736C99.0176 309.162 99.3177 309.487 99.7012 309.711C100.085 309.931 100.53 310.041 101.038 310.041C101.368 310.041 101.667 309.995 101.933 309.903C102.203 309.807 102.436 309.665 102.631 309.477C102.826 309.285 102.977 309.047 103.084 308.763L104.298 309.104C104.17 309.516 103.955 309.878 103.654 310.19C103.352 310.499 102.979 310.741 102.535 310.915C102.091 311.085 101.592 311.17 101.038 311.17ZM109.728 311.17C109.046 311.17 108.444 310.998 107.922 310.654C107.4 310.306 106.992 309.816 106.697 309.184C106.402 308.548 106.255 307.797 106.255 306.93C106.255 306.071 106.402 305.325 106.697 304.693C106.992 304.061 107.402 303.573 107.927 303.228C108.453 302.884 109.06 302.712 109.749 302.712C110.282 302.712 110.703 302.8 111.011 302.978C111.324 303.152 111.562 303.351 111.725 303.575C111.892 303.795 112.022 303.976 112.114 304.118H112.221V300.091H113.478V311H112.263V309.743H112.114C112.022 309.892 111.89 310.08 111.72 310.308C111.549 310.531 111.306 310.732 110.99 310.909C110.674 311.083 110.253 311.17 109.728 311.17ZM109.898 310.041C110.402 310.041 110.829 309.91 111.177 309.647C111.525 309.381 111.789 309.013 111.97 308.544C112.151 308.072 112.242 307.527 112.242 306.909C112.242 306.298 112.153 305.764 111.976 305.306C111.798 304.844 111.535 304.485 111.187 304.23C110.839 303.971 110.41 303.841 109.898 303.841C109.366 303.841 108.922 303.978 108.567 304.251C108.215 304.521 107.95 304.888 107.773 305.354C107.599 305.815 107.512 306.334 107.512 306.909C107.512 307.491 107.601 308.021 107.778 308.496C107.959 308.969 108.226 309.345 108.577 309.626C108.932 309.903 109.373 310.041 109.898 310.041ZM117.171 311.085C116.908 311.085 116.683 310.991 116.494 310.803C116.306 310.615 116.212 310.389 116.212 310.126C116.212 309.864 116.306 309.638 116.494 309.45C116.683 309.262 116.908 309.168 117.171 309.168C117.434 309.168 117.659 309.262 117.847 309.45C118.036 309.638 118.13 309.864 118.13 310.126C118.13 310.3 118.085 310.46 117.997 310.606C117.911 310.751 117.796 310.869 117.65 310.957C117.508 311.043 117.348 311.085 117.171 311.085ZM121.602 311.085C121.339 311.085 121.113 310.991 120.925 310.803C120.737 310.615 120.643 310.389 120.643 310.126C120.643 309.864 120.737 309.638 120.925 309.45C121.113 309.262 121.339 309.168 121.602 309.168C121.865 309.168 122.09 309.262 122.278 309.45C122.466 309.638 122.561 309.864 122.561 310.126C122.561 310.3 122.516 310.46 122.427 310.606C122.342 310.751 122.227 310.869 122.081 310.957C121.939 311.043 121.779 311.085 121.602 311.085ZM126.033 311.085C125.77 311.085 125.544 310.991 125.356 310.803C125.168 310.615 125.074 310.389 125.074 310.126C125.074 309.864 125.168 309.638 125.356 309.45C125.544 309.262 125.77 309.168 126.033 309.168C126.295 309.168 126.521 309.262 126.709 309.45C126.897 309.638 126.991 309.864 126.991 310.126C126.991 310.3 126.947 310.46 126.858 310.606C126.773 310.751 126.658 310.869 126.512 310.957C126.37 311.043 126.21 311.085 126.033 311.085Z" fill="#1A2434"/>
<defs>
<clipPath id="clip0_420_1039">
<rect width="80" height="80" fill="white" transform="translate(24.5 25)"/>
</clipPath>
</defs>
</svg>
