<svg width="65" height="65" viewBox="0 0 65 65" fill="none" xmlns="http://www.w3.org/2000/svg">
<circle cx="32.5" cy="32.5" r="32.5" fill="#0061B1"/>
<path fill-rule="evenodd" clip-rule="evenodd" d="M24.9504 17.9167H39.7163C41.5499 17.9166 43.0631 17.9166 44.2959 18.0198C45.5762 18.1269 46.7531 18.3569 47.8586 18.9339C49.573 19.8288 50.9668 21.2566 51.8403 23.0128C52.4036 24.1452 52.6281 25.3508 52.7327 26.6624C52.8334 27.9252 52.8334 29.4753 52.8334 31.3536V41.8131C52.8334 43.6913 52.8334 45.2415 52.7327 46.5043C52.6281 47.8158 52.4036 49.0215 51.8403 50.1539C50.9668 51.9101 49.573 53.3379 47.8586 54.2327C46.7531 54.8097 45.5762 55.0397 44.2959 55.1469C43.0631 55.2501 41.5498 55.25 39.7163 55.25H24.9505C23.1169 55.25 21.6036 55.2501 20.3709 55.1469C19.0906 55.0397 17.9136 54.8097 16.8081 54.2327C15.0938 53.3379 13.6999 51.9101 12.8264 50.1539C12.2632 49.0215 12.0386 47.8158 11.934 46.5043C11.8333 45.2415 11.8333 43.6913 11.8334 41.813V31.3536C11.8333 29.4754 11.8333 27.9252 11.934 26.6624C12.0386 25.3508 12.2632 24.1452 12.8264 23.0128C13.6999 21.2566 15.0938 19.8288 16.8081 18.9339C17.9136 18.3569 19.0906 18.1269 20.3709 18.0198C21.6036 17.9166 23.1169 17.9166 24.9504 17.9167ZM20.7419 22.671C19.7432 22.7545 19.2326 22.906 18.8763 23.092C18.0191 23.5394 17.3222 24.2533 16.8855 25.1314C16.7039 25.4963 16.5561 26.0195 16.4745 27.0424C16.3907 28.0926 16.3889 29.4513 16.3889 31.45V41.7167C16.3889 43.7154 16.3907 45.074 16.4745 46.1242C16.5561 47.1472 16.7039 47.6704 16.8855 48.0353C17.3222 48.9134 18.0191 49.6273 18.8763 50.0747C19.2326 50.2606 19.7432 50.4121 20.7419 50.4957C21.7671 50.5815 23.0934 50.5833 25.0445 50.5833H39.6223C41.5734 50.5833 42.8997 50.5815 43.9249 50.4957C44.9235 50.4121 45.4342 50.2606 45.7904 50.0747C46.6476 49.6273 47.3445 48.9134 47.7813 48.0353C47.9628 47.6704 48.1107 47.1472 48.1923 46.1242C48.276 45.074 48.2778 43.7154 48.2778 41.7167V31.45C48.2778 29.4513 48.276 28.0926 48.1923 27.0424C48.1107 26.0195 47.9628 25.4963 47.7813 25.1314C47.3445 24.2533 46.6476 23.5394 45.7904 23.092C45.4342 22.906 44.9235 22.7545 43.9249 22.671C42.8997 22.5851 41.5734 22.5833 39.6223 22.5833H25.0445C23.0934 22.5833 21.7671 22.5851 20.7419 22.671Z" fill="#FFFCFF"/>
<path fill-rule="evenodd" clip-rule="evenodd" d="M27.7779 11.92L27.7778 13.2501L23.2223 13.2499L23.2225 9.97869L23.8561 9.30176C24.4085 8.71161 25.2325 7.85336 26.6729 7.21317C28.0659 6.59403 29.8622 6.25 32.3335 6.25C34.8047 6.25 36.6011 6.59406 37.9941 7.21322C39.4344 7.85342 40.2584 8.71167 40.8108 9.30171L41.4445 9.97871V13.25H36.8889V11.92C36.6873 11.7588 36.4663 11.6211 36.1808 11.4943C35.5434 11.2109 34.4177 10.9167 32.3335 10.9167C30.2493 10.9167 29.1236 11.2109 28.4861 11.4942C28.2006 11.6211 27.9795 11.7588 27.7779 11.92Z" fill="#FFFCFF"/>
<path fill-rule="evenodd" clip-rule="evenodd" d="M32.3346 45.9167C29.6222 45.9182 26.8516 45.2051 24.1334 43.1167L26.8667 39.3833C28.704 40.7949 30.4851 41.251 32.3321 41.25C34.1792 41.249 35.9642 40.7938 37.8 39.3833L40.5334 43.1167C37.8136 45.2062 35.0392 45.9152 32.3346 45.9167Z" fill="#FFFCFF"/>
<path d="M20.9445 33.0833C20.9445 31.1503 22.4742 29.5833 24.3612 29.5833C26.2481 29.5833 27.7778 31.1503 27.7778 33.0833C27.7778 35.0163 26.2481 36.5833 24.3612 36.5833C22.4742 36.5833 20.9445 35.0163 20.9445 33.0833Z" fill="#FFFCFF"/>
<path d="M36.8889 33.0833C36.8889 31.1503 38.4186 29.5833 40.3056 29.5833C42.1926 29.5833 43.7223 31.1503 43.7223 33.0833C43.7223 35.0163 42.1926 36.5833 40.3056 36.5833C38.4186 36.5833 36.8889 35.0163 36.8889 33.0833Z" fill="#FFFCFF"/>
</svg>
