<svg width="452" height="104" viewBox="0 0 452 104" fill="none" xmlns="http://www.w3.org/2000/svg">
<path d="M1.183 16V5.794C1.61233 5.71 2.04167 5.64467 2.471 5.598C2.905 5.55133 3.36233 5.528 3.843 5.528C5.21033 5.528 6.244 5.81267 6.944 6.382C7.64867 6.94667 8.001 7.84033 8.001 9.063C8.001 10.211 7.651 11.0883 6.951 11.695C6.25567 12.3017 5.166 12.605 3.682 12.605C3.43933 12.605 3.21067 12.6003 2.996 12.591C2.786 12.577 2.55967 12.5607 2.317 12.542V16H1.183ZM3.703 11.681C4.81833 11.681 5.62567 11.4687 6.125 11.044C6.62433 10.6147 6.874 9.96133 6.874 9.084C6.874 8.16467 6.629 7.49733 6.139 7.082C5.65367 6.662 4.914 6.452 3.92 6.452C3.61667 6.452 3.33433 6.46367 3.073 6.487C2.81633 6.50567 2.56433 6.536 2.317 6.578V11.597C2.54567 11.6297 2.76967 11.653 2.989 11.667C3.213 11.6763 3.451 11.681 3.703 11.681ZM9.68395 16V4.688H10.804V9.252H10.867C11.175 8.93 11.5296 8.68967 11.931 8.531C12.3323 8.36767 12.7593 8.286 13.212 8.286C13.674 8.286 14.0846 8.37467 14.444 8.552C14.808 8.72467 15.0926 9.007 15.298 9.399C15.5033 9.791 15.606 10.316 15.606 10.974V16H14.493V11.023C14.493 10.3697 14.346 9.91933 14.052 9.672C13.7626 9.42 13.3776 9.294 12.897 9.294C12.6636 9.294 12.421 9.329 12.169 9.399C11.917 9.46433 11.672 9.57167 11.434 9.721C11.196 9.86567 10.986 10.0593 10.804 10.302V16H9.68395ZM20.476 16.133C19.8227 16.133 19.2533 15.9977 18.768 15.727C18.2827 15.4517 17.907 15.027 17.641 14.453C17.375 13.8743 17.242 13.1253 17.242 12.206C17.242 11.296 17.3727 10.5517 17.634 9.973C17.9 9.39433 18.2757 8.96967 18.761 8.699C19.2463 8.42367 19.818 8.286 20.476 8.286C21.134 8.286 21.7057 8.42367 22.191 8.699C22.6763 8.96967 23.0497 9.39433 23.311 9.973C23.577 10.547 23.71 11.2913 23.71 12.206C23.71 13.116 23.5747 13.8603 23.304 14.439C23.038 15.0177 22.6623 15.4447 22.177 15.72C21.6963 15.9953 21.1293 16.133 20.476 16.133ZM20.476 15.223C20.9053 15.223 21.2763 15.1297 21.589 14.943C21.9017 14.7563 22.142 14.446 22.31 14.012C22.4827 13.5733 22.569 12.9783 22.569 12.227C22.569 11.4617 22.4827 10.8597 22.31 10.421C22.142 9.97767 21.8993 9.665 21.582 9.483C21.2693 9.29633 20.9007 9.203 20.476 9.203C20.0467 9.203 19.6757 9.29633 19.363 9.483C19.0503 9.665 18.8077 9.97533 18.635 10.414C18.467 10.848 18.383 11.4407 18.383 12.192C18.383 12.9527 18.467 13.5547 18.635 13.998C18.8077 14.4367 19.0503 14.7517 19.363 14.943C19.6757 15.1297 20.0467 15.223 20.476 15.223ZM25.4203 16V8.405H26.3653L26.4423 9.259H26.5193C26.8273 8.94633 27.1866 8.706 27.5973 8.538C28.0079 8.37 28.4443 8.286 28.9063 8.286C29.3823 8.286 29.8023 8.37467 30.1663 8.552C30.5349 8.72467 30.8219 9.00933 31.0273 9.406C31.2373 9.798 31.3423 10.323 31.3423 10.981V16H30.2293V11.03C30.2293 10.3767 30.0846 9.924 29.7953 9.672C29.5106 9.41533 29.1233 9.287 28.6333 9.287C28.4093 9.287 28.1713 9.31967 27.9193 9.385C27.6673 9.45033 27.4199 9.55767 27.1773 9.707C26.9393 9.85633 26.7269 10.0547 26.5403 10.302V16H25.4203ZM36.5763 16.133C35.7876 16.133 35.125 16 34.5883 15.734C34.0563 15.4633 33.655 15.041 33.3843 14.467C33.1136 13.8883 32.9783 13.1323 32.9783 12.199C32.9783 11.3077 33.102 10.5727 33.3493 9.994C33.6013 9.41533 33.956 8.986 34.4133 8.706C34.8753 8.426 35.4213 8.286 36.0513 8.286C36.672 8.286 37.1993 8.42833 37.6333 8.713C38.072 8.993 38.4056 9.42467 38.6343 10.008C38.863 10.5867 38.9773 11.3263 38.9773 12.227V12.57H33.5873V11.807H38.1513L37.9063 11.975C37.9063 11.2657 37.8316 10.701 37.6823 10.281C37.5376 9.861 37.3253 9.56 37.0453 9.378C36.77 9.19133 36.434 9.098 36.0373 9.098C35.6453 9.098 35.3046 9.189 35.0153 9.371C34.726 9.553 34.502 9.854 34.3433 10.274C34.1893 10.694 34.1123 11.261 34.1123 11.975V12.367C34.1123 13.067 34.2056 13.627 34.3923 14.047C34.5836 14.4623 34.8706 14.7633 35.2533 14.95C35.636 15.132 36.1213 15.223 36.7093 15.223C36.9986 15.223 37.2973 15.1973 37.6053 15.146C37.918 15.09 38.2493 15.013 38.5993 14.915V15.832C38.2353 15.9347 37.8876 16.0093 37.5563 16.056C37.2296 16.1073 36.903 16.133 36.5763 16.133ZM41.1424 16.091C40.8997 16.091 40.7037 16.021 40.5544 15.881C40.4097 15.741 40.3374 15.552 40.3374 15.314C40.3374 15.076 40.4097 14.887 40.5544 14.747C40.6991 14.607 40.8951 14.537 41.1424 14.537C41.3851 14.537 41.5787 14.6093 41.7234 14.754C41.8727 14.894 41.9474 15.0807 41.9474 15.314C41.9474 15.5473 41.8727 15.7363 41.7234 15.881C41.5741 16.021 41.3804 16.091 41.1424 16.091ZM41.1424 9.875C40.8997 9.875 40.7037 9.805 40.5544 9.665C40.4097 9.525 40.3374 9.336 40.3374 9.098C40.3374 8.86 40.4097 8.671 40.5544 8.531C40.6991 8.391 40.8951 8.321 41.1424 8.321C41.3851 8.321 41.5787 8.39333 41.7234 8.538C41.8727 8.678 41.9474 8.86467 41.9474 9.098C41.9474 9.33133 41.8727 9.52033 41.7234 9.665C41.5741 9.805 41.3804 9.875 41.1424 9.875Z" fill="#202020"/>
<path d="M85.358 10.422H82.376V13.446H81.186V10.422H78.218V9.344H81.186V6.306H82.376V9.344H85.358V10.422ZM89.0626 12.284C89.156 12.816 89.3706 13.2267 89.7066 13.516C90.052 13.8053 90.514 13.95 91.0926 13.95C91.8673 13.95 92.4366 13.6467 92.8006 13.04C93.174 12.4333 93.3513 11.4113 93.3326 9.974C93.1366 10.394 92.81 10.7253 92.3526 10.968C91.8953 11.2013 91.3866 11.318 90.8266 11.318C90.2013 11.318 89.6413 11.192 89.1466 10.94C88.6613 10.6787 88.2786 10.3007 87.9986 9.806C87.7186 9.31133 87.5786 8.714 87.5786 8.014C87.5786 7.01533 87.868 6.21267 88.4466 5.606C89.0253 4.99 89.8466 4.682 90.9106 4.682C92.2173 4.682 93.132 5.10667 93.6546 5.956C94.1866 6.80533 94.4526 8.07 94.4526 9.75C94.4526 10.926 94.3453 11.8967 94.1306 12.662C93.9253 13.4273 93.5706 14.0107 93.0666 14.412C92.572 14.8133 91.8906 15.014 91.0226 15.014C90.0706 15.014 89.3286 14.7573 88.7966 14.244C88.2646 13.7307 87.9613 13.0773 87.8866 12.284H89.0626ZM91.0366 10.24C91.662 10.24 92.1753 10.0487 92.5766 9.666C92.978 9.274 93.1786 8.74667 93.1786 8.084C93.1786 7.384 92.9826 6.81933 92.5906 6.39C92.1986 5.96067 91.648 5.746 90.9386 5.746C90.2853 5.746 89.7626 5.95133 89.3706 6.362C88.988 6.77267 88.7966 7.314 88.7966 7.986C88.7966 8.66733 88.988 9.21333 89.3706 9.624C89.7533 10.0347 90.3086 10.24 91.0366 10.24ZM95.907 6.04V4.878H98.539V15H97.251V6.04H95.907ZM104.46 9.834C104.46 8.22867 104.721 6.978 105.244 6.082C105.766 5.17667 106.681 4.724 107.988 4.724C109.285 4.724 110.195 5.17667 110.718 6.082C111.24 6.978 111.502 8.22867 111.502 9.834C111.502 11.4673 111.24 12.7367 110.718 13.642C110.195 14.5473 109.285 15 107.988 15C106.681 15 105.766 14.5473 105.244 13.642C104.721 12.7367 104.46 11.4673 104.46 9.834ZM110.242 9.834C110.242 9.022 110.186 8.336 110.074 7.776C109.971 7.20667 109.752 6.74933 109.416 6.404C109.089 6.05867 108.613 5.886 107.988 5.886C107.353 5.886 106.868 6.05867 106.532 6.404C106.205 6.74933 105.986 7.20667 105.874 7.776C105.771 8.336 105.72 9.022 105.72 9.834C105.72 10.674 105.771 11.3787 105.874 11.948C105.986 12.5173 106.205 12.9747 106.532 13.32C106.868 13.6653 107.353 13.838 107.988 13.838C108.613 13.838 109.089 13.6653 109.416 13.32C109.752 12.9747 109.971 12.5173 110.074 11.948C110.186 11.3787 110.242 10.674 110.242 9.834ZM113.097 13.978C114.282 13.026 115.211 12.2467 115.883 11.64C116.555 11.024 117.119 10.3847 117.577 9.722C118.043 9.05 118.277 8.392 118.277 7.748C118.277 7.14133 118.127 6.66533 117.829 6.32C117.539 5.96533 117.068 5.788 116.415 5.788C115.78 5.788 115.285 5.98867 114.931 6.39C114.585 6.782 114.399 7.30933 114.371 7.972H113.139C113.176 6.92667 113.493 6.11933 114.091 5.55C114.688 4.98067 115.458 4.696 116.401 4.696C117.362 4.696 118.123 4.962 118.683 5.494C119.252 6.026 119.537 6.75867 119.537 7.692C119.537 8.46667 119.303 9.22267 118.837 9.96C118.379 10.688 117.857 11.332 117.269 11.892C116.681 12.4427 115.929 13.0867 115.015 13.824H119.831V14.888H113.097V13.978ZM121.276 7.426C121.341 6.56733 121.672 5.89533 122.27 5.41C122.867 4.92467 123.642 4.682 124.594 4.682C125.228 4.682 125.774 4.79867 126.232 5.032C126.698 5.256 127.048 5.564 127.282 5.956C127.524 6.348 127.646 6.79133 127.646 7.286C127.646 7.86467 127.478 8.364 127.142 8.784C126.815 9.204 126.386 9.47467 125.854 9.596V9.666C126.46 9.81533 126.941 10.1093 127.296 10.548C127.65 10.9867 127.828 11.5607 127.828 12.27C127.828 12.802 127.706 13.2827 127.464 13.712C127.221 14.132 126.857 14.4633 126.372 14.706C125.886 14.9487 125.303 15.07 124.622 15.07C123.632 15.07 122.82 14.8133 122.186 14.3C121.551 13.7773 121.196 13.04 121.122 12.088H122.354C122.419 12.648 122.648 13.1053 123.04 13.46C123.432 13.8147 123.954 13.992 124.608 13.992C125.261 13.992 125.756 13.824 126.092 13.488C126.437 13.1427 126.61 12.6993 126.61 12.158C126.61 11.458 126.376 10.954 125.91 10.646C125.443 10.338 124.738 10.184 123.796 10.184H123.474V9.12H123.81C124.668 9.11067 125.317 8.97067 125.756 8.7C126.194 8.42 126.414 7.99067 126.414 7.412C126.414 6.91733 126.25 6.52067 125.924 6.222C125.606 5.92333 125.149 5.774 124.552 5.774C123.973 5.774 123.506 5.92333 123.152 6.222C122.797 6.52067 122.587 6.922 122.522 7.426H121.276ZM133.28 9.834C133.28 8.22867 133.541 6.978 134.064 6.082C134.587 5.17667 135.501 4.724 136.808 4.724C138.105 4.724 139.015 5.17667 139.538 6.082C140.061 6.978 140.322 8.22867 140.322 9.834C140.322 11.4673 140.061 12.7367 139.538 13.642C139.015 14.5473 138.105 15 136.808 15C135.501 15 134.587 14.5473 134.064 13.642C133.541 12.7367 133.28 11.4673 133.28 9.834ZM139.062 9.834C139.062 9.022 139.006 8.336 138.894 7.776C138.791 7.20667 138.572 6.74933 138.236 6.404C137.909 6.05867 137.433 5.886 136.808 5.886C136.173 5.886 135.688 6.05867 135.352 6.404C135.025 6.74933 134.806 7.20667 134.694 7.776C134.591 8.336 134.54 9.022 134.54 9.834C134.54 10.674 134.591 11.3787 134.694 11.948C134.806 12.5173 135.025 12.9747 135.352 13.32C135.688 13.6653 136.173 13.838 136.808 13.838C137.433 13.838 137.909 13.6653 138.236 13.32C138.572 12.9747 138.791 12.5173 138.894 11.948C139.006 11.3787 139.062 10.674 139.062 9.834ZM141.917 13.978C143.102 13.026 144.031 12.2467 144.703 11.64C145.375 11.024 145.94 10.3847 146.397 9.722C146.864 9.05 147.097 8.392 147.097 7.748C147.097 7.14133 146.948 6.66533 146.649 6.32C146.36 5.96533 145.888 5.788 145.235 5.788C144.6 5.788 144.106 5.98867 143.751 6.39C143.406 6.782 143.219 7.30933 143.191 7.972H141.959C141.996 6.92667 142.314 6.11933 142.911 5.55C143.508 4.98067 144.278 4.696 145.221 4.696C146.182 4.696 146.943 4.962 147.503 5.494C148.072 6.026 148.357 6.75867 148.357 7.692C148.357 8.46667 148.124 9.22267 147.657 9.96C147.2 10.688 146.677 11.332 146.089 11.892C145.501 12.4427 144.75 13.0867 143.835 13.824H148.651V14.888H141.917V13.978ZM156.578 5.984H151.664V9.176C151.879 8.87733 152.196 8.63467 152.616 8.448C153.036 8.252 153.489 8.154 153.974 8.154C154.749 8.154 155.379 8.31733 155.864 8.644C156.349 8.96133 156.695 9.37667 156.9 9.89C157.115 10.394 157.222 10.9307 157.222 11.5C157.222 12.172 157.096 12.774 156.844 13.306C156.592 13.838 156.205 14.258 155.682 14.566C155.169 14.874 154.529 15.028 153.764 15.028C152.784 15.028 151.991 14.776 151.384 14.272C150.777 13.768 150.409 13.096 150.278 12.256H151.524C151.645 12.788 151.902 13.2033 152.294 13.502C152.686 13.8007 153.181 13.95 153.778 13.95C154.515 13.95 155.071 13.7307 155.444 13.292C155.817 12.844 156.004 12.256 156.004 11.528C156.004 10.8 155.817 10.24 155.444 9.848C155.071 9.44667 154.52 9.246 153.792 9.246C153.297 9.246 152.863 9.36733 152.49 9.61C152.126 9.84333 151.86 10.1653 151.692 10.576H150.488V4.864H156.578V5.984ZM162.311 6.04V4.878H164.943V15H163.655V6.04H162.311ZM166.978 13.978C168.163 13.026 169.092 12.2467 169.764 11.64C170.436 11.024 171 10.3847 171.458 9.722C171.924 9.05 172.158 8.392 172.158 7.748C172.158 7.14133 172.008 6.66533 171.71 6.32C171.42 5.96533 170.949 5.788 170.296 5.788C169.661 5.788 169.166 5.98867 168.812 6.39C168.466 6.782 168.28 7.30933 168.252 7.972H167.02C167.057 6.92667 167.374 6.11933 167.972 5.55C168.569 4.98067 169.339 4.696 170.282 4.696C171.243 4.696 172.004 4.962 172.564 5.494C173.133 6.026 173.418 6.75867 173.418 7.692C173.418 8.46667 173.184 9.22267 172.718 9.96C172.26 10.688 171.738 11.332 171.15 11.892C170.562 12.4427 169.81 13.0867 168.896 13.824H173.712V14.888H166.978V13.978ZM181.638 5.984H176.724V9.176C176.939 8.87733 177.256 8.63467 177.676 8.448C178.096 8.252 178.549 8.154 179.034 8.154C179.809 8.154 180.439 8.31733 180.924 8.644C181.41 8.96133 181.755 9.37667 181.96 9.89C182.175 10.394 182.282 10.9307 182.282 11.5C182.282 12.172 182.156 12.774 181.904 13.306C181.652 13.838 181.265 14.258 180.742 14.566C180.229 14.874 179.59 15.028 178.824 15.028C177.844 15.028 177.051 14.776 176.444 14.272C175.838 13.768 175.469 13.096 175.338 12.256H176.584C176.706 12.788 176.962 13.2033 177.354 13.502C177.746 13.8007 178.241 13.95 178.838 13.95C179.576 13.95 180.131 13.7307 180.504 13.292C180.878 12.844 181.064 12.256 181.064 11.528C181.064 10.8 180.878 10.24 180.504 9.848C180.131 9.44667 179.58 9.246 178.852 9.246C178.358 9.246 177.924 9.36733 177.55 9.61C177.186 9.84333 176.92 10.1653 176.752 10.576H175.548V4.864H181.638V5.984ZM189.617 7.286C189.412 6.25 188.773 5.732 187.699 5.732C186.869 5.732 186.248 6.054 185.837 6.698C185.427 7.33267 185.226 8.38267 185.235 9.848C185.45 9.36267 185.805 8.98467 186.299 8.714C186.803 8.434 187.363 8.294 187.979 8.294C188.941 8.294 189.706 8.59267 190.275 9.19C190.854 9.78733 191.143 10.6133 191.143 11.668C191.143 12.3027 191.017 12.872 190.765 13.376C190.523 13.88 190.149 14.2813 189.645 14.58C189.151 14.8787 188.549 15.028 187.839 15.028C186.878 15.028 186.127 14.8133 185.585 14.384C185.044 13.9547 184.666 13.362 184.451 12.606C184.237 11.85 184.129 10.9167 184.129 9.806C184.129 6.38067 185.324 4.668 187.713 4.668C188.628 4.668 189.347 4.91533 189.869 5.41C190.392 5.90467 190.7 6.53 190.793 7.286H189.617ZM187.713 9.372C187.312 9.372 186.934 9.456 186.579 9.624C186.225 9.78267 185.935 10.03 185.711 10.366C185.497 10.6927 185.389 11.094 185.389 11.57C185.389 12.2793 185.595 12.858 186.005 13.306C186.416 13.7447 187.004 13.964 187.769 13.964C188.423 13.964 188.941 13.7633 189.323 13.362C189.715 12.9513 189.911 12.4007 189.911 11.71C189.911 10.982 189.725 10.4127 189.351 10.002C188.978 9.582 188.432 9.372 187.713 9.372Z" fill="#202020"/>
<path d="M2.352 48.278V51.54H5.908V52.59H2.352V55.95H6.328V57H1.078V47.228H6.328V48.278H2.352ZM17.4817 49.188C18.0791 49.188 18.6111 49.314 19.0777 49.566C19.5444 49.8087 19.9131 50.1773 20.1837 50.672C20.4544 51.1667 20.5897 51.7687 20.5897 52.478V57H19.3297V52.66C19.3297 51.8947 19.1384 51.3113 18.7557 50.91C18.3824 50.4993 17.8737 50.294 17.2297 50.294C16.5671 50.294 16.0397 50.5087 15.6477 50.938C15.2557 51.358 15.0597 51.9693 15.0597 52.772V57H13.7997V52.66C13.7997 51.8947 13.6084 51.3113 13.2257 50.91C12.8524 50.4993 12.3437 50.294 11.6997 50.294C11.0371 50.294 10.5097 50.5087 10.1177 50.938C9.72573 51.358 9.52973 51.9693 9.52973 52.772V57H8.25573V49.328H9.52973V50.434C9.78173 50.0327 10.1177 49.7247 10.5377 49.51C10.9671 49.2953 11.4384 49.188 11.9517 49.188C12.5957 49.188 13.1651 49.3327 13.6597 49.622C14.1544 49.9113 14.5231 50.336 14.7657 50.896C14.9804 50.3547 15.3351 49.9347 15.8297 49.636C16.3244 49.3373 16.8751 49.188 17.4817 49.188ZM22.2036 53.136C22.2036 52.352 22.3622 51.666 22.6796 51.078C22.9969 50.4807 23.4309 50.0187 23.9816 49.692C24.5416 49.3653 25.1622 49.202 25.8436 49.202C26.5156 49.202 27.0989 49.3467 27.5936 49.636C28.0882 49.9253 28.4569 50.2893 28.6996 50.728V49.328H29.9876V57H28.6996V55.572C28.4476 56.02 28.0696 56.3933 27.5656 56.692C27.0709 56.9813 26.4922 57.126 25.8296 57.126C25.1482 57.126 24.5322 56.958 23.9816 56.622C23.4309 56.286 22.9969 55.8147 22.6796 55.208C22.3622 54.6013 22.2036 53.9107 22.2036 53.136ZM28.6996 53.15C28.6996 52.5713 28.5829 52.0673 28.3496 51.638C28.1162 51.2087 27.7989 50.882 27.3976 50.658C27.0056 50.4247 26.5716 50.308 26.0956 50.308C25.6196 50.308 25.1856 50.42 24.7936 50.644C24.4016 50.868 24.0889 51.1947 23.8556 51.624C23.6222 52.0533 23.5056 52.5573 23.5056 53.136C23.5056 53.724 23.6222 54.2373 23.8556 54.676C24.0889 55.1053 24.4016 55.4367 24.7936 55.67C25.1856 55.894 25.6196 56.006 26.0956 56.006C26.5716 56.006 27.0056 55.894 27.3976 55.67C27.7989 55.4367 28.1162 55.1053 28.3496 54.676C28.5829 54.2373 28.6996 53.7287 28.6996 53.15ZM32.7985 48.082C32.5558 48.082 32.3505 47.998 32.1825 47.83C32.0145 47.662 31.9305 47.4567 31.9305 47.214C31.9305 46.9713 32.0145 46.766 32.1825 46.598C32.3505 46.43 32.5558 46.346 32.7985 46.346C33.0318 46.346 33.2278 46.43 33.3865 46.598C33.5545 46.766 33.6385 46.9713 33.6385 47.214C33.6385 47.4567 33.5545 47.662 33.3865 47.83C33.2278 47.998 33.0318 48.082 32.7985 48.082ZM33.4145 49.328V57H32.1405V49.328H33.4145ZM36.8598 46.64V57H35.5858V46.64H36.8598ZM39.4371 57.084C39.1945 57.084 38.9891 57 38.8211 56.832C38.6531 56.664 38.5691 56.4587 38.5691 56.216C38.5691 55.9733 38.6531 55.768 38.8211 55.6C38.9891 55.432 39.1945 55.348 39.4371 55.348C39.6705 55.348 39.8665 55.432 40.0251 55.6C40.1931 55.768 40.2771 55.9733 40.2771 56.216C40.2771 56.4587 40.1931 56.664 40.0251 56.832C39.8665 57 39.6705 57.084 39.4371 57.084ZM39.4371 51.092C39.1945 51.092 38.9891 51.008 38.8211 50.84C38.6531 50.672 38.5691 50.4667 38.5691 50.224C38.5691 49.9813 38.6531 49.776 38.8211 49.608C38.9891 49.44 39.1945 49.356 39.4371 49.356C39.6705 49.356 39.8665 49.44 40.0251 49.608C40.1931 49.776 40.2771 49.9813 40.2771 50.224C40.2771 50.4667 40.1931 50.672 40.0251 50.84C39.8665 51.008 39.6705 51.092 39.4371 51.092Z" fill="#202020"/>
<path d="M85.078 52.87C85.078 53.1127 85.064 53.3693 85.036 53.64H78.904C78.9507 54.396 79.2073 54.9887 79.674 55.418C80.15 55.838 80.724 56.048 81.396 56.048C81.9467 56.048 82.404 55.922 82.768 55.67C83.1413 55.4087 83.4027 55.0633 83.552 54.634H84.924C84.7187 55.3713 84.308 55.9733 83.692 56.44C83.076 56.8973 82.3107 57.126 81.396 57.126C80.668 57.126 80.0147 56.9627 79.436 56.636C78.8667 56.3093 78.4187 55.8473 78.092 55.25C77.7653 54.6433 77.602 53.9433 77.602 53.15C77.602 52.3567 77.7607 51.6613 78.078 51.064C78.3953 50.4667 78.8387 50.0093 79.408 49.692C79.9867 49.3653 80.6493 49.202 81.396 49.202C82.124 49.202 82.768 49.3607 83.328 49.678C83.888 49.9953 84.3173 50.434 84.616 50.994C84.924 51.5447 85.078 52.17 85.078 52.87ZM83.762 52.604C83.762 52.1187 83.6547 51.7033 83.44 51.358C83.2253 51.0033 82.9313 50.7373 82.558 50.56C82.194 50.3733 81.788 50.28 81.34 50.28C80.696 50.28 80.1453 50.4853 79.688 50.896C79.24 51.3067 78.9833 51.876 78.918 52.604H83.762ZM90.7636 57L88.9436 54.144L87.1936 57H85.8636L88.3416 53.192L85.8636 49.328H87.3056L89.1256 52.17L90.8616 49.328H92.1916L89.7276 53.122L92.2056 57H90.7636ZM92.9829 53.136C92.9829 52.352 93.1415 51.666 93.4589 51.078C93.7762 50.4807 94.2102 50.0187 94.7609 49.692C95.3209 49.3653 95.9415 49.202 96.6229 49.202C97.2949 49.202 97.8782 49.3467 98.3729 49.636C98.8675 49.9253 99.2362 50.2893 99.4789 50.728V49.328H100.767V57H99.4789V55.572C99.2269 56.02 98.8489 56.3933 98.3449 56.692C97.8502 56.9813 97.2715 57.126 96.6089 57.126C95.9275 57.126 95.3115 56.958 94.7609 56.622C94.2102 56.286 93.7762 55.8147 93.4589 55.208C93.1415 54.6013 92.9829 53.9107 92.9829 53.136ZM99.4789 53.15C99.4789 52.5713 99.3622 52.0673 99.1289 51.638C98.8955 51.2087 98.5782 50.882 98.1769 50.658C97.7849 50.4247 97.3509 50.308 96.8749 50.308C96.3989 50.308 95.9649 50.42 95.5729 50.644C95.1809 50.868 94.8682 51.1947 94.6349 51.624C94.4015 52.0533 94.2849 52.5573 94.2849 53.136C94.2849 53.724 94.4015 54.2373 94.6349 54.676C94.8682 55.1053 95.1809 55.4367 95.5729 55.67C95.9649 55.894 96.3989 56.006 96.8749 56.006C97.3509 56.006 97.7849 55.894 98.1769 55.67C98.5782 55.4367 98.8955 55.1053 99.1289 54.676C99.3622 54.2373 99.4789 53.7287 99.4789 53.15ZM112.146 49.188C112.743 49.188 113.275 49.314 113.742 49.566C114.208 49.8087 114.577 50.1773 114.848 50.672C115.118 51.1667 115.254 51.7687 115.254 52.478V57H113.994V52.66C113.994 51.8947 113.802 51.3113 113.42 50.91C113.046 50.4993 112.538 50.294 111.894 50.294C111.231 50.294 110.704 50.5087 110.312 50.938C109.92 51.358 109.724 51.9693 109.724 52.772V57H108.464V52.66C108.464 51.8947 108.272 51.3113 107.89 50.91C107.516 50.4993 107.008 50.294 106.364 50.294C105.701 50.294 105.174 50.5087 104.782 50.938C104.39 51.358 104.194 51.9693 104.194 52.772V57H102.92V49.328H104.194V50.434C104.446 50.0327 104.782 49.7247 105.202 49.51C105.631 49.2953 106.102 49.188 106.616 49.188C107.26 49.188 107.829 49.3327 108.324 49.622C108.818 49.9113 109.187 50.336 109.43 50.896C109.644 50.3547 109.999 49.9347 110.494 49.636C110.988 49.3373 111.539 49.188 112.146 49.188ZM118.618 50.742C118.87 50.3033 119.243 49.9393 119.738 49.65C120.242 49.3513 120.825 49.202 121.488 49.202C122.169 49.202 122.785 49.3653 123.336 49.692C123.896 50.0187 124.334 50.4807 124.652 51.078C124.969 51.666 125.128 52.352 125.128 53.136C125.128 53.9107 124.969 54.6013 124.652 55.208C124.334 55.8147 123.896 56.286 123.336 56.622C122.785 56.958 122.169 57.126 121.488 57.126C120.834 57.126 120.256 56.9813 119.752 56.692C119.257 56.3933 118.879 56.0247 118.618 55.586V60.64H117.344V49.328H118.618V50.742ZM123.826 53.136C123.826 52.5573 123.709 52.0533 123.476 51.624C123.242 51.1947 122.925 50.868 122.524 50.644C122.132 50.42 121.698 50.308 121.222 50.308C120.755 50.308 120.321 50.4247 119.92 50.658C119.528 50.882 119.21 51.2133 118.968 51.652C118.734 52.0813 118.618 52.5807 118.618 53.15C118.618 53.7287 118.734 54.2373 118.968 54.676C119.21 55.1053 119.528 55.4367 119.92 55.67C120.321 55.894 120.755 56.006 121.222 56.006C121.698 56.006 122.132 55.894 122.524 55.67C122.925 55.4367 123.242 55.1053 123.476 54.676C123.709 54.2373 123.826 53.724 123.826 53.136ZM128.079 46.64V57H126.805V46.64H128.079ZM137.25 52.87C137.25 53.1127 137.236 53.3693 137.208 53.64H131.076C131.123 54.396 131.379 54.9887 131.846 55.418C132.322 55.838 132.896 56.048 133.568 56.048C134.119 56.048 134.576 55.922 134.94 55.67C135.313 55.4087 135.575 55.0633 135.724 54.634H137.096C136.891 55.3713 136.48 55.9733 135.864 56.44C135.248 56.8973 134.483 57.126 133.568 57.126C132.84 57.126 132.187 56.9627 131.608 56.636C131.039 56.3093 130.591 55.8473 130.264 55.25C129.937 54.6433 129.774 53.9433 129.774 53.15C129.774 52.3567 129.933 51.6613 130.25 51.064C130.567 50.4667 131.011 50.0093 131.58 49.692C132.159 49.3653 132.821 49.202 133.568 49.202C134.296 49.202 134.94 49.3607 135.5 49.678C136.06 49.9953 136.489 50.434 136.788 50.994C137.096 51.5447 137.25 52.17 137.25 52.87ZM135.934 52.604C135.934 52.1187 135.827 51.7033 135.612 51.358C135.397 51.0033 135.103 50.7373 134.73 50.56C134.366 50.3733 133.96 50.28 133.512 50.28C132.868 50.28 132.317 50.4853 131.86 50.896C131.412 51.3067 131.155 51.876 131.09 52.604H135.934ZM145.932 48.026C146.968 48.026 147.868 48.222 148.634 48.614C149.399 49.006 149.987 49.5567 150.398 50.266C150.808 50.966 151.014 51.778 151.014 52.702C151.014 53.4393 150.892 54.1487 150.65 54.83C150.407 55.502 150.052 56.048 149.586 56.468C149.128 56.888 148.592 57.098 147.976 57.098C147.509 57.098 147.15 56.9813 146.898 56.748C146.646 56.5147 146.501 56.1973 146.464 55.796C146.174 56.1973 145.806 56.5147 145.358 56.748C144.919 56.9813 144.452 57.098 143.958 57.098C143.248 57.098 142.688 56.8833 142.278 56.454C141.876 56.0153 141.676 55.4273 141.676 54.69C141.676 53.99 141.82 53.3367 142.11 52.73C142.408 52.1233 142.819 51.638 143.342 51.274C143.864 50.9007 144.457 50.714 145.12 50.714C146.006 50.714 146.604 51.05 146.912 51.722L147.066 50.854H148.172L147.472 54.9C147.444 55.0773 147.43 55.2407 147.43 55.39C147.43 55.95 147.677 56.23 148.172 56.23C148.545 56.23 148.867 56.0527 149.138 55.698C149.418 55.3433 149.628 54.9 149.768 54.368C149.908 53.8267 149.978 53.2947 149.978 52.772C149.978 51.5493 149.609 50.602 148.872 49.93C148.144 49.258 147.112 48.922 145.778 48.922C144.667 48.922 143.664 49.1927 142.768 49.734C141.881 50.266 141.186 50.9987 140.682 51.932C140.178 52.8653 139.926 53.8967 139.926 55.026C139.916 56.258 140.285 57.2053 141.032 57.868C141.778 58.54 142.814 58.876 144.14 58.876C145.017 58.876 145.792 58.7173 146.464 58.4L146.632 59.268C145.801 59.6133 144.886 59.786 143.888 59.786C142.889 59.786 142.007 59.5947 141.242 59.212C140.486 58.8387 139.898 58.2973 139.478 57.588C139.067 56.888 138.862 56.0713 138.862 55.138C138.862 53.822 139.165 52.6227 139.772 51.54C140.378 50.448 141.218 49.5893 142.292 48.964C143.374 48.3387 144.588 48.026 145.932 48.026ZM144.336 56.104C144.756 56.104 145.143 55.9827 145.498 55.74C145.852 55.488 146.132 55.152 146.338 54.732C146.543 54.3027 146.646 53.836 146.646 53.332C146.646 52.8467 146.51 52.4547 146.24 52.156C145.978 51.848 145.605 51.694 145.12 51.694C144.672 51.694 144.275 51.8293 143.93 52.1C143.594 52.3613 143.332 52.7113 143.146 53.15C142.959 53.5793 142.866 54.0273 142.866 54.494C142.866 54.9887 142.992 55.3807 143.244 55.67C143.496 55.9593 143.86 56.104 144.336 56.104ZM156.273 49.202C156.936 49.202 157.515 49.3467 158.009 49.636C158.513 49.9253 158.887 50.2893 159.129 50.728V49.328H160.417V57.168C160.417 57.868 160.268 58.4887 159.969 59.03C159.671 59.5807 159.241 60.01 158.681 60.318C158.131 60.626 157.487 60.78 156.749 60.78C155.741 60.78 154.901 60.542 154.229 60.066C153.557 59.59 153.161 58.9413 153.039 58.12H154.299C154.439 58.5867 154.729 58.96 155.167 59.24C155.606 59.5293 156.133 59.674 156.749 59.674C157.449 59.674 158.019 59.4547 158.457 59.016C158.905 58.5773 159.129 57.9613 159.129 57.168V55.558C158.877 56.006 158.504 56.3793 158.009 56.678C157.515 56.9767 156.936 57.126 156.273 57.126C155.592 57.126 154.971 56.958 154.411 56.622C153.861 56.286 153.427 55.8147 153.109 55.208C152.792 54.6013 152.633 53.9107 152.633 53.136C152.633 52.352 152.792 51.666 153.109 51.078C153.427 50.4807 153.861 50.0187 154.411 49.692C154.971 49.3653 155.592 49.202 156.273 49.202ZM159.129 53.15C159.129 52.5713 159.013 52.0673 158.779 51.638C158.546 51.2087 158.229 50.882 157.827 50.658C157.435 50.4247 157.001 50.308 156.525 50.308C156.049 50.308 155.615 50.42 155.223 50.644C154.831 50.868 154.519 51.1947 154.285 51.624C154.052 52.0533 153.935 52.5573 153.935 53.136C153.935 53.724 154.052 54.2373 154.285 54.676C154.519 55.1053 154.831 55.4367 155.223 55.67C155.615 55.894 156.049 56.006 156.525 56.006C157.001 56.006 157.435 55.894 157.827 55.67C158.229 55.4367 158.546 55.1053 158.779 54.676C159.013 54.2373 159.129 53.7287 159.129 53.15ZM171.796 49.188C172.394 49.188 172.926 49.314 173.392 49.566C173.859 49.8087 174.228 50.1773 174.498 50.672C174.769 51.1667 174.904 51.7687 174.904 52.478V57H173.644V52.66C173.644 51.8947 173.453 51.3113 173.07 50.91C172.697 50.4993 172.188 50.294 171.544 50.294C170.882 50.294 170.354 50.5087 169.962 50.938C169.57 51.358 169.374 51.9693 169.374 52.772V57H168.114V52.66C168.114 51.8947 167.923 51.3113 167.54 50.91C167.167 50.4993 166.658 50.294 166.014 50.294C165.352 50.294 164.824 50.5087 164.432 50.938C164.04 51.358 163.844 51.9693 163.844 52.772V57H162.57V49.328H163.844V50.434C164.096 50.0327 164.432 49.7247 164.852 49.51C165.282 49.2953 165.753 49.188 166.266 49.188C166.91 49.188 167.48 49.3327 167.974 49.622C168.469 49.9113 168.838 50.336 169.08 50.896C169.295 50.3547 169.65 49.9347 170.144 49.636C170.639 49.3373 171.19 49.188 171.796 49.188ZM176.518 53.136C176.518 52.352 176.677 51.666 176.994 51.078C177.311 50.4807 177.745 50.0187 178.296 49.692C178.856 49.3653 179.477 49.202 180.158 49.202C180.83 49.202 181.413 49.3467 181.908 49.636C182.403 49.9253 182.771 50.2893 183.014 50.728V49.328H184.302V57H183.014V55.572C182.762 56.02 182.384 56.3933 181.88 56.692C181.385 56.9813 180.807 57.126 180.144 57.126C179.463 57.126 178.847 56.958 178.296 56.622C177.745 56.286 177.311 55.8147 176.994 55.208C176.677 54.6013 176.518 53.9107 176.518 53.136ZM183.014 53.15C183.014 52.5713 182.897 52.0673 182.664 51.638C182.431 51.2087 182.113 50.882 181.712 50.658C181.32 50.4247 180.886 50.308 180.41 50.308C179.934 50.308 179.5 50.42 179.108 50.644C178.716 50.868 178.403 51.1947 178.17 51.624C177.937 52.0533 177.82 52.5573 177.82 53.136C177.82 53.724 177.937 54.2373 178.17 54.676C178.403 55.1053 178.716 55.4367 179.108 55.67C179.5 55.894 179.934 56.006 180.41 56.006C180.886 56.006 181.32 55.894 181.712 55.67C182.113 55.4367 182.431 55.1053 182.664 54.676C182.897 54.2373 183.014 53.7287 183.014 53.15ZM187.113 48.082C186.87 48.082 186.665 47.998 186.497 47.83C186.329 47.662 186.245 47.4567 186.245 47.214C186.245 46.9713 186.329 46.766 186.497 46.598C186.665 46.43 186.87 46.346 187.113 46.346C187.346 46.346 187.542 46.43 187.701 46.598C187.869 46.766 187.953 46.9713 187.953 47.214C187.953 47.4567 187.869 47.662 187.701 47.83C187.542 47.998 187.346 48.082 187.113 48.082ZM187.729 49.328V57H186.455V49.328H187.729ZM191.174 46.64V57H189.9V46.64H191.174ZM193.752 57.084C193.509 57.084 193.304 57 193.136 56.832C192.968 56.664 192.884 56.4587 192.884 56.216C192.884 55.9733 192.968 55.768 193.136 55.6C193.304 55.432 193.509 55.348 193.752 55.348C193.985 55.348 194.181 55.432 194.34 55.6C194.508 55.768 194.592 55.9733 194.592 56.216C194.592 56.4587 194.508 56.664 194.34 56.832C194.181 57 193.985 57.084 193.752 57.084ZM195.809 53.15C195.809 52.3567 195.968 51.666 196.285 51.078C196.602 50.4807 197.041 50.0187 197.601 49.692C198.17 49.3653 198.819 49.202 199.547 49.202C200.49 49.202 201.264 49.4307 201.871 49.888C202.487 50.3453 202.893 50.98 203.089 51.792H201.717C201.586 51.3253 201.33 50.9567 200.947 50.686C200.574 50.4153 200.107 50.28 199.547 50.28C198.819 50.28 198.231 50.532 197.783 51.036C197.335 51.5307 197.111 52.2353 197.111 53.15C197.111 54.074 197.335 54.788 197.783 55.292C198.231 55.796 198.819 56.048 199.547 56.048C200.107 56.048 200.574 55.9173 200.947 55.656C201.32 55.3947 201.577 55.0213 201.717 54.536H203.089C202.884 55.32 202.473 55.95 201.857 56.426C201.241 56.8927 200.471 57.126 199.547 57.126C198.819 57.126 198.17 56.9627 197.601 56.636C197.041 56.3093 196.602 55.8473 196.285 55.25C195.968 54.6527 195.809 53.9527 195.809 53.15ZM208.135 57.126C207.416 57.126 206.763 56.9627 206.175 56.636C205.596 56.3093 205.139 55.8473 204.803 55.25C204.476 54.6433 204.313 53.9433 204.313 53.15C204.313 52.366 204.481 51.6753 204.817 51.078C205.162 50.4713 205.629 50.0093 206.217 49.692C206.805 49.3653 207.463 49.202 208.191 49.202C208.919 49.202 209.577 49.3653 210.165 49.692C210.753 50.0093 211.215 50.4667 211.551 51.064C211.896 51.6613 212.069 52.3567 212.069 53.15C212.069 53.9433 211.892 54.6433 211.537 55.25C211.192 55.8473 210.72 56.3093 210.123 56.636C209.526 56.9627 208.863 57.126 208.135 57.126ZM208.135 56.006C208.592 56.006 209.022 55.8987 209.423 55.684C209.824 55.4693 210.146 55.1473 210.389 54.718C210.641 54.2887 210.767 53.766 210.767 53.15C210.767 52.534 210.646 52.0113 210.403 51.582C210.16 51.1527 209.843 50.8353 209.451 50.63C209.059 50.4153 208.634 50.308 208.177 50.308C207.71 50.308 207.281 50.4153 206.889 50.63C206.506 50.8353 206.198 51.1527 205.965 51.582C205.732 52.0113 205.615 52.534 205.615 53.15C205.615 53.7753 205.727 54.3027 205.951 54.732C206.184 55.1613 206.492 55.4833 206.875 55.698C207.258 55.9033 207.678 56.006 208.135 56.006ZM222.97 49.188C223.567 49.188 224.099 49.314 224.566 49.566C225.033 49.8087 225.401 50.1773 225.672 50.672C225.943 51.1667 226.078 51.7687 226.078 52.478V57H224.818V52.66C224.818 51.8947 224.627 51.3113 224.244 50.91C223.871 50.4993 223.362 50.294 222.718 50.294C222.055 50.294 221.528 50.5087 221.136 50.938C220.744 51.358 220.548 51.9693 220.548 52.772V57H219.288V52.66C219.288 51.8947 219.097 51.3113 218.714 50.91C218.341 50.4993 217.832 50.294 217.188 50.294C216.525 50.294 215.998 50.5087 215.606 50.938C215.214 51.358 215.018 51.9693 215.018 52.772V57H213.744V49.328H215.018V50.434C215.27 50.0327 215.606 49.7247 216.026 49.51C216.455 49.2953 216.927 49.188 217.44 49.188C218.084 49.188 218.653 49.3327 219.148 49.622C219.643 49.9113 220.011 50.336 220.254 50.896C220.469 50.3547 220.823 49.9347 221.318 49.636C221.813 49.3373 222.363 49.188 222.97 49.188Z" fill="#202020"/>
<path d="M6.846 96.83H2.59L1.806 99H0.462L3.99 89.298H5.46L8.974 99H7.63L6.846 96.83ZM6.482 95.794L4.718 90.866L2.954 95.794H6.482ZM10.0356 95.136C10.0356 94.352 10.1943 93.666 10.5116 93.078C10.8289 92.4807 11.2629 92.0187 11.8136 91.692C12.3736 91.3653 12.9989 91.202 13.6896 91.202C14.2869 91.202 14.8423 91.342 15.3556 91.622C15.8689 91.8927 16.2609 92.252 16.5316 92.7V88.64H17.8196V99H16.5316V97.558C16.2796 98.0153 15.9063 98.3933 15.4116 98.692C14.9169 98.9813 14.3383 99.126 13.6756 99.126C12.9943 99.126 12.3736 98.958 11.8136 98.622C11.2629 98.286 10.8289 97.8147 10.5116 97.208C10.1943 96.6013 10.0356 95.9107 10.0356 95.136ZM16.5316 95.15C16.5316 94.5713 16.4149 94.0673 16.1816 93.638C15.9483 93.2087 15.6309 92.882 15.2296 92.658C14.8376 92.4247 14.4036 92.308 13.9276 92.308C13.4516 92.308 13.0176 92.42 12.6256 92.644C12.2336 92.868 11.9209 93.1947 11.6876 93.624C11.4543 94.0533 11.3376 94.5573 11.3376 95.136C11.3376 95.724 11.4543 96.2373 11.6876 96.676C11.9209 97.1053 12.2336 97.4367 12.6256 97.67C13.0176 97.894 13.4516 98.006 13.9276 98.006C14.4036 98.006 14.8376 97.894 15.2296 97.67C15.6309 97.4367 15.9483 97.1053 16.1816 96.676C16.4149 96.2373 16.5316 95.7287 16.5316 95.15ZM19.4965 95.136C19.4965 94.352 19.6552 93.666 19.9725 93.078C20.2899 92.4807 20.7239 92.0187 21.2745 91.692C21.8345 91.3653 22.4599 91.202 23.1505 91.202C23.7479 91.202 24.3032 91.342 24.8165 91.622C25.3299 91.8927 25.7219 92.252 25.9925 92.7V88.64H27.2805V99H25.9925V97.558C25.7405 98.0153 25.3672 98.3933 24.8725 98.692C24.3779 98.9813 23.7992 99.126 23.1365 99.126C22.4552 99.126 21.8345 98.958 21.2745 98.622C20.7239 98.286 20.2899 97.8147 19.9725 97.208C19.6552 96.6013 19.4965 95.9107 19.4965 95.136ZM25.9925 95.15C25.9925 94.5713 25.8759 94.0673 25.6425 93.638C25.4092 93.2087 25.0919 92.882 24.6905 92.658C24.2985 92.4247 23.8645 92.308 23.3885 92.308C22.9125 92.308 22.4785 92.42 22.0865 92.644C21.6945 92.868 21.3819 93.1947 21.1485 93.624C20.9152 94.0533 20.7985 94.5573 20.7985 95.136C20.7985 95.724 20.9152 96.2373 21.1485 96.676C21.3819 97.1053 21.6945 97.4367 22.0865 97.67C22.4785 97.894 22.9125 98.006 23.3885 98.006C23.8645 98.006 24.2985 97.894 24.6905 97.67C25.0919 97.4367 25.4092 97.1053 25.6425 96.676C25.8759 96.2373 25.9925 95.7287 25.9925 95.15ZM30.7075 92.574C30.9315 92.1353 31.2488 91.7947 31.6595 91.552C32.0795 91.3093 32.5881 91.188 33.1855 91.188V92.504H32.8495C31.4215 92.504 30.7075 93.2787 30.7075 94.828V99H29.4335V91.328H30.7075V92.574ZM41.6561 94.87C41.6561 95.1127 41.6421 95.3693 41.6141 95.64H35.4821C35.5288 96.396 35.7855 96.9887 36.2521 97.418C36.7281 97.838 37.3021 98.048 37.9741 98.048C38.5248 98.048 38.9821 97.922 39.3461 97.67C39.7195 97.4087 39.9808 97.0633 40.1301 96.634H41.5021C41.2968 97.3713 40.8861 97.9733 40.2701 98.44C39.6541 98.8973 38.8888 99.126 37.9741 99.126C37.2461 99.126 36.5928 98.9627 36.0141 98.636C35.4448 98.3093 34.9968 97.8473 34.6701 97.25C34.3435 96.6433 34.1801 95.9433 34.1801 95.15C34.1801 94.3567 34.3388 93.6613 34.6561 93.064C34.9735 92.4667 35.4168 92.0093 35.9861 91.692C36.5648 91.3653 37.2275 91.202 37.9741 91.202C38.7021 91.202 39.3461 91.3607 39.9061 91.678C40.4661 91.9953 40.8955 92.434 41.1941 92.994C41.5021 93.5447 41.6561 94.17 41.6561 94.87ZM40.3401 94.604C40.3401 94.1187 40.2328 93.7033 40.0181 93.358C39.8035 93.0033 39.5095 92.7373 39.1361 92.56C38.7721 92.3733 38.3661 92.28 37.9181 92.28C37.2741 92.28 36.7235 92.4853 36.2661 92.896C35.8181 93.3067 35.5615 93.876 35.4961 94.604H40.3401ZM46.0538 99.126C45.4658 99.126 44.9384 99.028 44.4718 98.832C44.0051 98.6267 43.6364 98.3467 43.3658 97.992C43.0951 97.628 42.9458 97.2127 42.9178 96.746H44.2338C44.2711 97.1287 44.4484 97.4413 44.7658 97.684C45.0924 97.9267 45.5171 98.048 46.0398 98.048C46.5251 98.048 46.9078 97.9407 47.1878 97.726C47.4678 97.5113 47.6078 97.2407 47.6078 96.914C47.6078 96.578 47.4584 96.3307 47.1598 96.172C46.8611 96.004 46.3991 95.8407 45.7738 95.682C45.2044 95.5327 44.7378 95.3833 44.3738 95.234C44.0191 95.0753 43.7111 94.8467 43.4498 94.548C43.1978 94.24 43.0718 93.8387 43.0718 93.344C43.0718 92.952 43.1884 92.5927 43.4218 92.266C43.6551 91.9393 43.9864 91.6827 44.4158 91.496C44.8451 91.3 45.3351 91.202 45.8858 91.202C46.7351 91.202 47.4211 91.4167 47.9438 91.846C48.4664 92.2753 48.7464 92.8633 48.7838 93.61H47.5098C47.4818 93.2087 47.3184 92.8867 47.0198 92.644C46.7304 92.4013 46.3384 92.28 45.8438 92.28C45.3864 92.28 45.0224 92.378 44.7518 92.574C44.4811 92.77 44.3458 93.0267 44.3458 93.344C44.3458 93.596 44.4251 93.806 44.5838 93.974C44.7518 94.1327 44.9571 94.2633 45.1998 94.366C45.4518 94.4593 45.7971 94.5667 46.2358 94.688C46.7864 94.8373 47.2344 94.9867 47.5798 95.136C47.9251 95.276 48.2191 95.4907 48.4618 95.78C48.7138 96.0693 48.8444 96.4473 48.8538 96.914C48.8538 97.334 48.7371 97.712 48.5038 98.048C48.2704 98.384 47.9391 98.65 47.5098 98.846C47.0898 99.0327 46.6044 99.126 46.0538 99.126ZM53.3682 99.126C52.7802 99.126 52.2529 99.028 51.7862 98.832C51.3196 98.6267 50.9509 98.3467 50.6802 97.992C50.4096 97.628 50.2602 97.2127 50.2322 96.746H51.5482C51.5856 97.1287 51.7629 97.4413 52.0802 97.684C52.4069 97.9267 52.8316 98.048 53.3542 98.048C53.8396 98.048 54.2222 97.9407 54.5022 97.726C54.7822 97.5113 54.9222 97.2407 54.9222 96.914C54.9222 96.578 54.7729 96.3307 54.4742 96.172C54.1756 96.004 53.7136 95.8407 53.0882 95.682C52.5189 95.5327 52.0522 95.3833 51.6882 95.234C51.3336 95.0753 51.0256 94.8467 50.7642 94.548C50.5122 94.24 50.3862 93.8387 50.3862 93.344C50.3862 92.952 50.5029 92.5927 50.7362 92.266C50.9696 91.9393 51.3009 91.6827 51.7302 91.496C52.1596 91.3 52.6496 91.202 53.2002 91.202C54.0496 91.202 54.7356 91.4167 55.2582 91.846C55.7809 92.2753 56.0609 92.8633 56.0982 93.61H54.8242C54.7962 93.2087 54.6329 92.8867 54.3342 92.644C54.0449 92.4013 53.6529 92.28 53.1582 92.28C52.7009 92.28 52.3369 92.378 52.0662 92.574C51.7956 92.77 51.6602 93.0267 51.6602 93.344C51.6602 93.596 51.7396 93.806 51.8982 93.974C52.0662 94.1327 52.2716 94.2633 52.5142 94.366C52.7662 94.4593 53.1116 94.5667 53.5502 94.688C54.1009 94.8373 54.5489 94.9867 54.8942 95.136C55.2396 95.276 55.5336 95.4907 55.7762 95.78C56.0282 96.0693 56.1589 96.4473 56.1682 96.914C56.1682 97.334 56.0516 97.712 55.8182 98.048C55.5849 98.384 55.2536 98.65 54.8242 98.846C54.4042 99.0327 53.9189 99.126 53.3682 99.126ZM58.3727 99.084C58.13 99.084 57.9247 99 57.7567 98.832C57.5887 98.664 57.5047 98.4587 57.5047 98.216C57.5047 97.9733 57.5887 97.768 57.7567 97.6C57.9247 97.432 58.13 97.348 58.3727 97.348C58.606 97.348 58.802 97.432 58.9607 97.6C59.1287 97.768 59.2127 97.9733 59.2127 98.216C59.2127 98.4587 59.1287 98.664 58.9607 98.832C58.802 99 58.606 99.084 58.3727 99.084ZM58.3727 93.092C58.13 93.092 57.9247 93.008 57.7567 92.84C57.5887 92.672 57.5047 92.4667 57.5047 92.224C57.5047 91.9813 57.5887 91.776 57.7567 91.608C57.9247 91.44 58.13 91.356 58.3727 91.356C58.606 91.356 58.802 91.44 58.9607 91.608C59.1287 91.776 59.2127 91.9813 59.2127 92.224C59.2127 92.4667 59.1287 92.672 58.9607 92.84C58.802 93.008 58.606 93.092 58.3727 93.092Z" fill="#202020"/>
<path d="M83.0844 90.278V93.54H86.6404V94.59H83.0844V97.95H87.0604V99H81.8104V89.228H87.0604V90.278H83.0844ZM92.0822 99.098C91.4382 99.098 90.8595 98.986 90.3462 98.762C89.8422 98.5287 89.4455 98.2113 89.1562 97.81C88.8668 97.3993 88.7175 96.928 88.7082 96.396H90.0662C90.1128 96.8533 90.2995 97.2407 90.6262 97.558C90.9622 97.866 91.4475 98.02 92.0822 98.02C92.6888 98.02 93.1648 97.8707 93.5102 97.572C93.8648 97.264 94.0422 96.872 94.0422 96.396C94.0422 96.0227 93.9395 95.7193 93.7342 95.486C93.5288 95.2527 93.2722 95.0753 92.9642 94.954C92.6562 94.8327 92.2408 94.702 91.7182 94.562C91.0742 94.394 90.5562 94.226 90.1642 94.058C89.7815 93.89 89.4502 93.6287 89.1702 93.274C88.8995 92.91 88.7642 92.4247 88.7642 91.818C88.7642 91.286 88.8995 90.8147 89.1702 90.404C89.4408 89.9933 89.8188 89.676 90.3042 89.452C90.7988 89.228 91.3635 89.116 91.9982 89.116C92.9128 89.116 93.6595 89.3447 94.2382 89.802C94.8262 90.2593 95.1575 90.866 95.2322 91.622H93.8322C93.7855 91.2487 93.5895 90.922 93.2442 90.642C92.8988 90.3527 92.4415 90.208 91.8722 90.208C91.3402 90.208 90.9062 90.348 90.5702 90.628C90.2342 90.8987 90.0662 91.2813 90.0662 91.776C90.0662 92.1307 90.1642 92.42 90.3602 92.644C90.5655 92.868 90.8128 93.0407 91.1022 93.162C91.4008 93.274 91.8162 93.4047 92.3482 93.554C92.9922 93.7313 93.5102 93.9087 93.9022 94.086C94.2942 94.254 94.6302 94.52 94.9102 94.884C95.1902 95.2387 95.3302 95.724 95.3302 96.34C95.3302 96.816 95.2042 97.264 94.9522 97.684C94.7002 98.104 94.3268 98.4447 93.8322 98.706C93.3375 98.9673 92.7542 99.098 92.0822 99.098ZM98.479 89.242V99H97.205V89.242H98.479ZM101.966 97.236L100.398 101.002H99.5443L100.566 97.236H101.966ZM111.582 99.098C110.677 99.098 109.851 98.888 109.104 98.468C108.357 98.0387 107.765 97.446 107.326 96.69C106.897 95.9247 106.682 95.066 106.682 94.114C106.682 93.162 106.897 92.308 107.326 91.552C107.765 90.7867 108.357 90.194 109.104 89.774C109.851 89.3447 110.677 89.13 111.582 89.13C112.497 89.13 113.327 89.3447 114.074 89.774C114.821 90.194 115.409 90.782 115.838 91.538C116.267 92.294 116.482 93.1527 116.482 94.114C116.482 95.0753 116.267 95.934 115.838 96.69C115.409 97.446 114.821 98.0387 114.074 98.468C113.327 98.888 112.497 99.098 111.582 99.098ZM111.582 97.992C112.263 97.992 112.875 97.8333 113.416 97.516C113.967 97.1987 114.396 96.746 114.704 96.158C115.021 95.57 115.18 94.8887 115.18 94.114C115.18 93.33 115.021 92.6487 114.704 92.07C114.396 91.482 113.971 91.0293 113.43 90.712C112.889 90.3947 112.273 90.236 111.582 90.236C110.891 90.236 110.275 90.3947 109.734 90.712C109.193 91.0293 108.763 91.482 108.446 92.07C108.138 92.6487 107.984 93.33 107.984 94.114C107.984 94.8887 108.138 95.57 108.446 96.158C108.763 96.746 109.193 97.1987 109.734 97.516C110.285 97.8333 110.901 97.992 111.582 97.992ZM124.968 91.328V99H123.694V97.866C123.451 98.258 123.111 98.566 122.672 98.79C122.243 99.0047 121.767 99.112 121.244 99.112C120.647 99.112 120.11 98.9907 119.634 98.748C119.158 98.496 118.78 98.1227 118.5 97.628C118.229 97.1333 118.094 96.5313 118.094 95.822V91.328H119.354V95.654C119.354 96.41 119.545 96.9933 119.928 97.404C120.311 97.8053 120.833 98.006 121.496 98.006C122.177 98.006 122.714 97.796 123.106 97.376C123.498 96.956 123.694 96.3447 123.694 95.542V91.328H124.968ZM134.119 94.87C134.119 95.1127 134.105 95.3693 134.077 95.64H127.945C127.992 96.396 128.248 96.9887 128.715 97.418C129.191 97.838 129.765 98.048 130.437 98.048C130.988 98.048 131.445 97.922 131.809 97.67C132.182 97.4087 132.444 97.0633 132.593 96.634H133.965C133.76 97.3713 133.349 97.9733 132.733 98.44C132.117 98.8973 131.352 99.126 130.437 99.126C129.709 99.126 129.056 98.9627 128.477 98.636C127.908 98.3093 127.46 97.8473 127.133 97.25C126.806 96.6433 126.643 95.9433 126.643 95.15C126.643 94.3567 126.802 93.6613 127.119 93.064C127.436 92.4667 127.88 92.0093 128.449 91.692C129.028 91.3653 129.69 91.202 130.437 91.202C131.165 91.202 131.809 91.3607 132.369 91.678C132.929 91.9953 133.358 92.434 133.657 92.994C133.965 93.5447 134.119 94.17 134.119 94.87ZM132.803 94.604C132.803 94.1187 132.696 93.7033 132.481 93.358C132.266 93.0033 131.972 92.7373 131.599 92.56C131.235 92.3733 130.829 92.28 130.381 92.28C129.737 92.28 129.186 92.4853 128.729 92.896C128.281 93.3067 128.024 93.876 127.959 94.604H132.803ZM135.325 95.136C135.325 94.352 135.483 93.666 135.801 93.078C136.118 92.4807 136.552 92.0187 137.103 91.692C137.663 91.3653 138.288 91.202 138.979 91.202C139.576 91.202 140.131 91.342 140.645 91.622C141.158 91.8927 141.55 92.252 141.821 92.7V88.64H143.109V99H141.821V97.558C141.569 98.0153 141.195 98.3933 140.701 98.692C140.206 98.9813 139.627 99.126 138.965 99.126C138.283 99.126 137.663 98.958 137.103 98.622C136.552 98.286 136.118 97.8147 135.801 97.208C135.483 96.6013 135.325 95.9107 135.325 95.136ZM141.821 95.15C141.821 94.5713 141.704 94.0673 141.471 93.638C141.237 93.2087 140.92 92.882 140.519 92.658C140.127 92.4247 139.693 92.308 139.217 92.308C138.741 92.308 138.307 92.42 137.915 92.644C137.523 92.868 137.21 93.1947 136.977 93.624C136.743 94.0533 136.627 94.5573 136.627 95.136C136.627 95.724 136.743 96.2373 136.977 96.676C137.21 97.1053 137.523 97.4367 137.915 97.67C138.307 97.894 138.741 98.006 139.217 98.006C139.693 98.006 140.127 97.894 140.519 97.67C140.92 97.4367 141.237 97.1053 141.471 96.676C141.704 96.2373 141.821 95.7287 141.821 95.15ZM152.088 99.098C151.444 99.098 150.865 98.986 150.352 98.762C149.848 98.5287 149.451 98.2113 149.162 97.81C148.873 97.3993 148.723 96.928 148.714 96.396H150.072C150.119 96.8533 150.305 97.2407 150.632 97.558C150.968 97.866 151.453 98.02 152.088 98.02C152.695 98.02 153.171 97.8707 153.516 97.572C153.871 97.264 154.048 96.872 154.048 96.396C154.048 96.0227 153.945 95.7193 153.74 95.486C153.535 95.2527 153.278 95.0753 152.97 94.954C152.662 94.8327 152.247 94.702 151.724 94.562C151.08 94.394 150.562 94.226 150.17 94.058C149.787 93.89 149.456 93.6287 149.176 93.274C148.905 92.91 148.77 92.4247 148.77 91.818C148.77 91.286 148.905 90.8147 149.176 90.404C149.447 89.9933 149.825 89.676 150.31 89.452C150.805 89.228 151.369 89.116 152.004 89.116C152.919 89.116 153.665 89.3447 154.244 89.802C154.832 90.2593 155.163 90.866 155.238 91.622H153.838C153.791 91.2487 153.595 90.922 153.25 90.642C152.905 90.3527 152.447 90.208 151.878 90.208C151.346 90.208 150.912 90.348 150.576 90.628C150.24 90.8987 150.072 91.2813 150.072 91.776C150.072 92.1307 150.17 92.42 150.366 92.644C150.571 92.868 150.819 93.0407 151.108 93.162C151.407 93.274 151.822 93.4047 152.354 93.554C152.998 93.7313 153.516 93.9087 153.908 94.086C154.3 94.254 154.636 94.52 154.916 94.884C155.196 95.2387 155.336 95.724 155.336 96.34C155.336 96.816 155.21 97.264 154.958 97.684C154.706 98.104 154.333 98.4447 153.838 98.706C153.343 98.9673 152.76 99.098 152.088 99.098ZM166.437 91.188C167.034 91.188 167.566 91.314 168.033 91.566C168.499 91.8087 168.868 92.1773 169.139 92.672C169.409 93.1667 169.545 93.7687 169.545 94.478V99H168.285V94.66C168.285 93.8947 168.093 93.3113 167.711 92.91C167.337 92.4993 166.829 92.294 166.185 92.294C165.522 92.294 164.995 92.5087 164.603 92.938C164.211 93.358 164.015 93.9693 164.015 94.772V99H162.755V94.66C162.755 93.8947 162.563 93.3113 162.181 92.91C161.807 92.4993 161.299 92.294 160.655 92.294C159.992 92.294 159.465 92.5087 159.073 92.938C158.681 93.358 158.485 93.9693 158.485 94.772V99H157.211V91.328H158.485V92.434C158.737 92.0327 159.073 91.7247 159.493 91.51C159.922 91.2953 160.393 91.188 160.907 91.188C161.551 91.188 162.12 91.3327 162.615 91.622C163.109 91.9113 163.478 92.336 163.721 92.896C163.935 92.3547 164.29 91.9347 164.785 91.636C165.279 91.3373 165.83 91.188 166.437 91.188ZM171.159 95.136C171.159 94.352 171.317 93.666 171.635 93.078C171.952 92.4807 172.386 92.0187 172.937 91.692C173.497 91.3653 174.117 91.202 174.799 91.202C175.471 91.202 176.054 91.3467 176.549 91.636C177.043 91.9253 177.412 92.2893 177.655 92.728V91.328H178.943V99H177.655V97.572C177.403 98.02 177.025 98.3933 176.521 98.692C176.026 98.9813 175.447 99.126 174.785 99.126C174.103 99.126 173.487 98.958 172.937 98.622C172.386 98.286 171.952 97.8147 171.635 97.208C171.317 96.6013 171.159 95.9107 171.159 95.136ZM177.655 95.15C177.655 94.5713 177.538 94.0673 177.305 93.638C177.071 93.2087 176.754 92.882 176.353 92.658C175.961 92.4247 175.527 92.308 175.051 92.308C174.575 92.308 174.141 92.42 173.749 92.644C173.357 92.868 173.044 93.1947 172.811 93.624C172.577 94.0533 172.461 94.5573 172.461 95.136C172.461 95.724 172.577 96.2373 172.811 96.676C173.044 97.1053 173.357 97.4367 173.749 97.67C174.141 97.894 174.575 98.006 175.051 98.006C175.527 98.006 175.961 97.894 176.353 97.67C176.754 97.4367 177.071 97.1053 177.305 96.676C177.538 96.2373 177.655 95.7287 177.655 95.15ZM182.37 92.574C182.594 92.1353 182.911 91.7947 183.322 91.552C183.742 91.3093 184.25 91.188 184.848 91.188V92.504H184.512C183.084 92.504 182.37 93.2787 182.37 94.828V99H181.096V91.328H182.37V92.574ZM195.819 96.83H191.563L190.779 99H189.435L192.963 89.298H194.433L197.947 99H196.603L195.819 96.83ZM195.455 95.794L193.691 90.866L191.927 95.794H195.455ZM200.758 88.64V99H199.484V88.64H200.758ZM206.094 91.202C206.756 91.202 207.335 91.3467 207.83 91.636C208.334 91.9253 208.707 92.2893 208.95 92.728V91.328H210.238V99.168C210.238 99.868 210.088 100.489 209.79 101.03C209.491 101.581 209.062 102.01 208.502 102.318C207.951 102.626 207.307 102.78 206.57 102.78C205.562 102.78 204.722 102.542 204.05 102.066C203.378 101.59 202.981 100.941 202.86 100.12H204.12C204.26 100.587 204.549 100.96 204.988 101.24C205.426 101.529 205.954 101.674 206.57 101.674C207.27 101.674 207.839 101.455 208.278 101.016C208.726 100.577 208.95 99.9613 208.95 99.168V97.558C208.698 98.006 208.324 98.3793 207.83 98.678C207.335 98.9767 206.756 99.126 206.094 99.126C205.412 99.126 204.792 98.958 204.232 98.622C203.681 98.286 203.247 97.8147 202.93 97.208C202.612 96.6013 202.454 95.9107 202.454 95.136C202.454 94.352 202.612 93.666 202.93 93.078C203.247 92.4807 203.681 92.0187 204.232 91.692C204.792 91.3653 205.412 91.202 206.094 91.202ZM208.95 95.15C208.95 94.5713 208.833 94.0673 208.6 93.638C208.366 93.2087 208.049 92.882 207.648 92.658C207.256 92.4247 206.822 92.308 206.346 92.308C205.87 92.308 205.436 92.42 205.044 92.644C204.652 92.868 204.339 93.1947 204.106 93.624C203.872 94.0533 203.756 94.5573 203.756 95.136C203.756 95.724 203.872 96.2373 204.106 96.676C204.339 97.1053 204.652 97.4367 205.044 97.67C205.436 97.894 205.87 98.006 206.346 98.006C206.822 98.006 207.256 97.894 207.648 97.67C208.049 97.4367 208.366 97.1053 208.6 96.676C208.833 96.2373 208.95 95.7287 208.95 95.15ZM219.391 94.87C219.391 95.1127 219.377 95.3693 219.349 95.64H213.217C213.263 96.396 213.52 96.9887 213.987 97.418C214.463 97.838 215.037 98.048 215.709 98.048C216.259 98.048 216.717 97.922 217.081 97.67C217.454 97.4087 217.715 97.0633 217.865 96.634H219.237C219.031 97.3713 218.621 97.9733 218.005 98.44C217.389 98.8973 216.623 99.126 215.709 99.126C214.981 99.126 214.327 98.9627 213.749 98.636C213.179 98.3093 212.731 97.8473 212.405 97.25C212.078 96.6433 211.915 95.9433 211.915 95.15C211.915 94.3567 212.073 93.6613 212.391 93.064C212.708 92.4667 213.151 92.0093 213.721 91.692C214.299 91.3653 214.962 91.202 215.709 91.202C216.437 91.202 217.081 91.3607 217.641 91.678C218.201 91.9953 218.63 92.434 218.929 92.994C219.237 93.5447 219.391 94.17 219.391 94.87ZM218.075 94.604C218.075 94.1187 217.967 93.7033 217.753 93.358C217.538 93.0033 217.244 92.7373 216.871 92.56C216.507 92.3733 216.101 92.28 215.653 92.28C215.009 92.28 214.458 92.4853 214.001 92.896C213.553 93.3067 213.296 93.876 213.231 94.604H218.075ZM222.346 92.574C222.57 92.1353 222.887 91.7947 223.298 91.552C223.718 91.3093 224.227 91.188 224.824 91.188V92.504H224.488C223.06 92.504 222.346 93.2787 222.346 94.828V99H221.072V91.328H222.346V92.574ZM231.343 97.236L229.775 101.002H228.921L229.943 97.236H231.343ZM235.989 90.04V88.878H238.621V99H237.333V90.04H235.989ZM246.451 91.286C246.246 90.25 245.607 89.732 244.533 89.732C243.703 89.732 243.082 90.054 242.671 90.698C242.261 91.3327 242.06 92.3827 242.069 93.848C242.284 93.3627 242.639 92.9847 243.133 92.714C243.637 92.434 244.197 92.294 244.813 92.294C245.775 92.294 246.54 92.5927 247.109 93.19C247.688 93.7873 247.977 94.6133 247.977 95.668C247.977 96.3027 247.851 96.872 247.599 97.376C247.357 97.88 246.983 98.2813 246.479 98.58C245.985 98.8787 245.383 99.028 244.673 99.028C243.712 99.028 242.961 98.8133 242.419 98.384C241.878 97.9547 241.5 97.362 241.285 96.606C241.071 95.85 240.963 94.9167 240.963 93.806C240.963 90.3807 242.158 88.668 244.547 88.668C245.462 88.668 246.181 88.9153 246.703 89.41C247.226 89.9047 247.534 90.53 247.627 91.286H246.451ZM244.547 93.372C244.146 93.372 243.768 93.456 243.413 93.624C243.059 93.7827 242.769 94.03 242.545 94.366C242.331 94.6927 242.223 95.094 242.223 95.57C242.223 96.2793 242.429 96.858 242.839 97.306C243.25 97.7447 243.838 97.964 244.603 97.964C245.257 97.964 245.775 97.7633 246.157 97.362C246.549 96.9513 246.745 96.4007 246.745 95.71C246.745 94.982 246.559 94.4127 246.185 94.002C245.812 93.582 245.266 93.372 244.547 93.372ZM249.668 91.426C249.733 90.5673 250.065 89.8953 250.662 89.41C251.259 88.9247 252.034 88.682 252.986 88.682C253.621 88.682 254.167 88.7987 254.624 89.032C255.091 89.256 255.441 89.564 255.674 89.956C255.917 90.348 256.038 90.7913 256.038 91.286C256.038 91.8647 255.87 92.364 255.534 92.784C255.207 93.204 254.778 93.4747 254.246 93.596V93.666C254.853 93.8153 255.333 94.1093 255.688 94.548C256.043 94.9867 256.22 95.5607 256.22 96.27C256.22 96.802 256.099 97.2827 255.856 97.712C255.613 98.132 255.249 98.4633 254.764 98.706C254.279 98.9487 253.695 99.07 253.014 99.07C252.025 99.07 251.213 98.8133 250.578 98.3C249.943 97.7773 249.589 97.04 249.514 96.088H250.746C250.811 96.648 251.04 97.1053 251.432 97.46C251.824 97.8147 252.347 97.992 253 97.992C253.653 97.992 254.148 97.824 254.484 97.488C254.829 97.1427 255.002 96.6993 255.002 96.158C255.002 95.458 254.769 94.954 254.302 94.646C253.835 94.338 253.131 94.184 252.188 94.184H251.866V93.12H252.202C253.061 93.1107 253.709 92.9707 254.148 92.7C254.587 92.42 254.806 91.9907 254.806 91.412C254.806 90.9173 254.643 90.5207 254.316 90.222C253.999 89.9233 253.541 89.774 252.944 89.774C252.365 89.774 251.899 89.9233 251.544 90.222C251.189 90.5207 250.979 90.922 250.914 91.426H249.668ZM257.94 93.834C257.94 92.2287 258.202 90.978 258.724 90.082C259.247 89.1767 260.162 88.724 261.468 88.724C262.766 88.724 263.676 89.1767 264.198 90.082C264.721 90.978 264.982 92.2287 264.982 93.834C264.982 95.4673 264.721 96.7367 264.198 97.642C263.676 98.5473 262.766 99 261.468 99C260.162 99 259.247 98.5473 258.724 97.642C258.202 96.7367 257.94 95.4673 257.94 93.834ZM263.722 93.834C263.722 93.022 263.666 92.336 263.554 91.776C263.452 91.2067 263.232 90.7493 262.896 90.404C262.57 90.0587 262.094 89.886 261.468 89.886C260.834 89.886 260.348 90.0587 260.012 90.404C259.686 90.7493 259.466 91.2067 259.354 91.776C259.252 92.336 259.2 93.022 259.2 93.834C259.2 94.674 259.252 95.3787 259.354 95.948C259.466 96.5173 259.686 96.9747 260.012 97.32C260.348 97.6653 260.834 97.838 261.468 97.838C262.094 97.838 262.57 97.6653 262.896 97.32C263.232 96.9747 263.452 96.5173 263.554 95.948C263.666 95.3787 263.722 94.674 263.722 93.834ZM268.369 96.284C268.463 96.816 268.677 97.2267 269.013 97.516C269.359 97.8053 269.821 97.95 270.399 97.95C271.174 97.95 271.743 97.6467 272.107 97.04C272.481 96.4333 272.658 95.4113 272.639 93.974C272.443 94.394 272.117 94.7253 271.659 94.968C271.202 95.2013 270.693 95.318 270.133 95.318C269.508 95.318 268.948 95.192 268.453 94.94C267.968 94.6787 267.585 94.3007 267.305 93.806C267.025 93.3113 266.885 92.714 266.885 92.014C266.885 91.0153 267.175 90.2127 267.753 89.606C268.332 88.99 269.153 88.682 270.217 88.682C271.524 88.682 272.439 89.1067 272.961 89.956C273.493 90.8053 273.759 92.07 273.759 93.75C273.759 94.926 273.652 95.8967 273.437 96.662C273.232 97.4273 272.877 98.0107 272.373 98.412C271.879 98.8133 271.197 99.014 270.329 99.014C269.377 99.014 268.635 98.7573 268.103 98.244C267.571 97.7307 267.268 97.0773 267.193 96.284H268.369ZM270.343 94.24C270.969 94.24 271.482 94.0487 271.883 93.666C272.285 93.274 272.485 92.7467 272.485 92.084C272.485 91.384 272.289 90.8193 271.897 90.39C271.505 89.9607 270.955 89.746 270.245 89.746C269.592 89.746 269.069 89.9513 268.677 90.362C268.295 90.7727 268.103 91.314 268.103 91.986C268.103 92.6673 268.295 93.2133 268.677 93.624C269.06 94.0347 269.615 94.24 270.343 94.24Z" fill="#202020"/>
</svg>
