<svg width="25" height="24" viewBox="0 0 25 24" fill="none" xmlns="http://www.w3.org/2000/svg">
<g clip-path="url(#clip0_381_571)">
<path fill-rule="evenodd" clip-rule="evenodd" d="M15.7998 18.75C15.7998 18.9489 15.7208 19.1397 15.5801 19.2803C15.4395 19.421 15.2487 19.5 15.0498 19.5H3.0498C2.85089 19.5 2.66013 19.421 2.51947 19.2803C2.37882 19.1397 2.2998 18.9489 2.2998 18.75V5.25C2.2998 5.05109 2.37882 4.86032 2.51947 4.71967C2.66013 4.57902 2.85089 4.5 3.0498 4.5H15.0498C15.2487 4.5 15.4395 4.57902 15.5801 4.71967C15.7208 4.86032 15.7998 5.05109 15.7998 5.25V8.25C15.7998 8.44891 15.8788 8.63968 16.0195 8.78033C16.1601 8.92098 16.3509 9 16.5498 9C16.7487 9 16.9395 8.92098 17.0801 8.78033C17.2208 8.63968 17.2998 8.44891 17.2998 8.25V5.25C17.2998 4.65326 17.0628 4.08097 16.6408 3.65901C16.2188 3.23705 15.6465 3 15.0498 3H3.0498C2.45307 3 1.88077 3.23705 1.45881 3.65901C1.03686 4.08097 0.799805 4.65326 0.799805 5.25L0.799805 18.75C0.799805 19.3467 1.03686 19.919 1.45881 20.341C1.88077 20.7629 2.45307 21 3.0498 21H15.0498C15.6465 21 16.2188 20.7629 16.6408 20.341C17.0628 19.919 17.2998 19.3467 17.2998 18.75V15.75C17.2998 15.5511 17.2208 15.3603 17.0801 15.2197C16.9395 15.079 16.7487 15 16.5498 15C16.3509 15 16.1601 15.079 16.0195 15.2197C15.8788 15.3603 15.7998 15.5511 15.7998 15.75V18.75Z" fill="black"/>
<path fill-rule="evenodd" clip-rule="evenodd" d="M24.5808 12.531C24.6507 12.4613 24.7061 12.3785 24.7439 12.2874C24.7817 12.1963 24.8011 12.0986 24.8011 12C24.8011 11.9013 24.7817 11.8036 24.7439 11.7125C24.7061 11.6214 24.6507 11.5386 24.5808 11.469L20.0808 6.96897C19.94 6.82814 19.749 6.74902 19.5498 6.74902C19.3506 6.74902 19.1596 6.82814 19.0188 6.96897C18.878 7.1098 18.7989 7.30081 18.7989 7.49997C18.7989 7.69913 18.878 7.89014 19.0188 8.03097L22.2393 11.25H9.0498C8.85089 11.25 8.66013 11.329 8.51947 11.4696C8.37882 11.6103 8.2998 11.8011 8.2998 12C8.2998 12.1989 8.37882 12.3896 8.51947 12.5303C8.66013 12.671 8.85089 12.75 9.0498 12.75H22.2393L19.0188 15.969C18.878 16.1098 18.7989 16.3008 18.7989 16.5C18.7989 16.6991 18.878 16.8901 19.0188 17.031C19.1596 17.1718 19.3506 17.2509 19.5498 17.2509C19.749 17.2509 19.94 17.1718 20.0808 17.031L24.5808 12.531Z" fill="black"/>
</g>
<defs>
<clipPath id="clip0_381_571">
<rect width="24" height="24" fill="white" transform="translate(0.799805)"/>
</clipPath>
</defs>
</svg>
