<svg width="507" height="299" viewBox="0 0 507 299" fill="none" xmlns="http://www.w3.org/2000/svg">
<g filter="url(#filter0_d_1781_1444)">
<rect width="256" height="146" transform="translate(77 42)" fill="white"/>
<rect width="256" height="93" transform="translate(77 42)" fill="#0061B1"/>
<path d="M97.7402 96.5V80.66H104.428C104.582 80.66 104.788 80.6673 105.044 80.682C105.308 80.6893 105.543 80.7113 105.748 80.748C106.694 80.8947 107.468 81.2063 108.069 81.683C108.678 82.1597 109.125 82.761 109.411 83.487C109.697 84.2057 109.84 85.0087 109.84 85.896C109.84 87.2233 109.51 88.36 108.85 89.306C108.19 90.2447 107.156 90.824 105.748 91.044L104.428 91.132H100.732V96.5H97.7402ZM106.672 96.5L103.548 90.054L106.628 89.46L110.06 96.5H106.672ZM100.732 88.338H104.296C104.45 88.338 104.619 88.3307 104.802 88.316C104.986 88.3013 105.154 88.272 105.308 88.228C105.712 88.118 106.023 87.9347 106.243 87.678C106.463 87.414 106.614 87.1243 106.694 86.809C106.782 86.4863 106.826 86.182 106.826 85.896C106.826 85.61 106.782 85.3093 106.694 84.994C106.614 84.6713 106.463 84.3817 106.243 84.125C106.023 83.861 105.712 83.674 105.308 83.564C105.154 83.52 104.986 83.4907 104.802 83.476C104.619 83.4613 104.45 83.454 104.296 83.454H100.732V88.338ZM119.177 82.97H116.955L118.781 78.68H121.003L119.177 82.97ZM118 96.83C116.783 96.83 115.709 96.5697 114.777 96.049C113.853 95.521 113.127 94.7987 112.599 93.882C112.079 92.958 111.818 91.902 111.818 90.714C111.818 89.416 112.075 88.2867 112.588 87.326C113.102 86.3653 113.809 85.621 114.711 85.093C115.613 84.5577 116.651 84.29 117.824 84.29C119.071 84.29 120.131 84.5833 121.003 85.17C121.876 85.7567 122.521 86.5817 122.939 87.645C123.357 88.7083 123.504 89.9587 123.379 91.396H120.42V90.296C120.42 89.086 120.226 88.217 119.837 87.689C119.456 87.1537 118.829 86.886 117.956 86.886C116.937 86.886 116.185 87.1977 115.701 87.821C115.225 88.437 114.986 89.35 114.986 90.56C114.986 91.6673 115.225 92.5253 115.701 93.134C116.185 93.7353 116.893 94.036 117.824 94.036C118.411 94.036 118.913 93.9077 119.331 93.651C119.749 93.3943 120.068 93.024 120.288 92.54L123.28 93.398C122.833 94.4833 122.125 95.3267 121.157 95.928C120.197 96.5293 119.144 96.83 118 96.83ZM114.062 91.396V89.174H121.938V91.396H114.062ZM130.945 102.11C130.271 102.11 129.629 102 129.02 101.78C128.412 101.567 127.865 101.267 127.381 100.878C126.905 100.497 126.516 100.049 126.215 99.536L128.987 98.194C129.178 98.546 129.449 98.8137 129.801 98.997C130.161 99.1803 130.549 99.272 130.967 99.272C131.415 99.272 131.836 99.195 132.232 99.041C132.628 98.8943 132.944 98.6707 133.178 98.37C133.42 98.0767 133.534 97.71 133.519 97.27V93.816H133.893V84.62H136.511V97.314C136.511 97.6073 136.497 97.8823 136.467 98.139C136.445 98.403 136.401 98.6633 136.335 98.92C136.145 99.646 135.789 100.244 135.268 100.713C134.755 101.182 134.124 101.531 133.376 101.758C132.628 101.993 131.818 102.11 130.945 102.11ZM130.681 96.83C129.589 96.83 128.632 96.555 127.81 96.005C126.989 95.455 126.347 94.707 125.885 93.761C125.431 92.815 125.203 91.748 125.203 90.56C125.203 89.35 125.434 88.2757 125.896 87.337C126.366 86.391 127.022 85.6467 127.865 85.104C128.709 84.5613 129.699 84.29 130.835 84.29C131.965 84.29 132.914 84.565 133.684 85.115C134.454 85.665 135.037 86.413 135.433 87.359C135.829 88.305 136.027 89.372 136.027 90.56C136.027 91.748 135.826 92.815 135.422 93.761C135.026 94.707 134.432 95.455 133.64 96.005C132.848 96.555 131.862 96.83 130.681 96.83ZM131.165 94.168C131.833 94.168 132.364 94.0177 132.76 93.717C133.164 93.4163 133.453 92.9947 133.629 92.452C133.805 91.9093 133.893 91.2787 133.893 90.56C133.893 89.8413 133.805 89.2107 133.629 88.668C133.453 88.1253 133.171 87.7037 132.782 87.403C132.401 87.1023 131.899 86.952 131.275 86.952C130.608 86.952 130.058 87.117 129.625 87.447C129.2 87.7697 128.885 88.206 128.679 88.756C128.474 89.2987 128.371 89.9 128.371 90.56C128.371 91.2273 128.47 91.836 128.668 92.386C128.866 92.9287 129.171 93.3613 129.581 93.684C129.992 94.0067 130.52 94.168 131.165 94.168ZM139.812 96.5V80.33H142.804V96.5H139.812ZM151.624 96.83C150.406 96.83 149.332 96.5697 148.401 96.049C147.477 95.521 146.751 94.7987 146.223 93.882C145.702 92.958 145.442 91.902 145.442 90.714C145.442 89.416 145.698 88.2867 146.212 87.326C146.725 86.3653 147.433 85.621 148.335 85.093C149.237 84.5577 150.274 84.29 151.448 84.29C152.694 84.29 153.754 84.5833 154.627 85.17C155.499 85.7567 156.145 86.5817 156.563 87.645C156.981 88.7083 157.127 89.9587 157.003 91.396H154.044V90.296C154.044 89.086 153.849 88.217 153.461 87.689C153.079 87.1537 152.452 86.886 151.58 86.886C150.56 86.886 149.809 87.1977 149.325 87.821C148.848 88.437 148.61 89.35 148.61 90.56C148.61 91.6673 148.848 92.5253 149.325 93.134C149.809 93.7353 150.516 94.036 151.448 94.036C152.034 94.036 152.537 93.9077 152.955 93.651C153.373 93.3943 153.692 93.024 153.912 92.54L156.904 93.398C156.456 94.4833 155.749 95.3267 154.781 95.928C153.82 96.5293 152.768 96.83 151.624 96.83ZM147.686 91.396V89.174H155.562V91.396H147.686ZM173.464 96.5V89.482C173.464 88.6973 173.277 88.0887 172.903 87.656C172.536 87.216 172.027 86.996 171.374 86.996C170.956 86.996 170.593 87.095 170.285 87.293C169.977 87.4837 169.735 87.755 169.559 88.107C169.39 88.4517 169.306 88.8513 169.306 89.306L168.052 88.47C168.052 87.656 168.243 86.9373 168.624 86.314C169.013 85.6907 169.53 85.2067 170.175 84.862C170.828 84.51 171.55 84.334 172.342 84.334C173.699 84.334 174.722 84.7373 175.411 85.544C176.108 86.3433 176.456 87.392 176.456 88.69V96.5H173.464ZM159.142 96.5V84.62H161.782V88.558H162.156V96.5H159.142ZM166.314 96.5V89.482C166.314 88.6973 166.127 88.0887 165.753 87.656C165.386 87.216 164.877 86.996 164.224 86.996C163.601 86.996 163.098 87.2123 162.717 87.645C162.343 88.0703 162.156 88.624 162.156 89.306L160.902 88.426C160.902 87.6487 161.096 86.952 161.485 86.336C161.874 85.72 162.394 85.2323 163.047 84.873C163.707 84.5137 164.444 84.334 165.258 84.334C166.189 84.334 166.952 84.532 167.546 84.928C168.147 85.324 168.591 85.852 168.877 86.512C169.163 87.172 169.306 87.898 169.306 88.69V96.5H166.314ZM184.624 96.83C183.406 96.83 182.332 96.5697 181.401 96.049C180.477 95.521 179.751 94.7987 179.223 93.882C178.702 92.958 178.442 91.902 178.442 90.714C178.442 89.416 178.698 88.2867 179.212 87.326C179.725 86.3653 180.433 85.621 181.335 85.093C182.237 84.5577 183.274 84.29 184.448 84.29C185.694 84.29 186.754 84.5833 187.627 85.17C188.499 85.7567 189.145 86.5817 189.563 87.645C189.981 88.7083 190.127 89.9587 190.003 91.396H187.044V90.296C187.044 89.086 186.849 88.217 186.461 87.689C186.079 87.1537 185.452 86.886 184.58 86.886C183.56 86.886 182.809 87.1977 182.325 87.821C181.848 88.437 181.61 89.35 181.61 90.56C181.61 91.6673 181.848 92.5253 182.325 93.134C182.809 93.7353 183.516 94.036 184.448 94.036C185.034 94.036 185.537 93.9077 185.955 93.651C186.373 93.3943 186.692 93.024 186.912 92.54L189.904 93.398C189.456 94.4833 188.749 95.3267 187.781 95.928C186.82 96.5293 185.768 96.83 184.624 96.83ZM180.686 91.396V89.174H188.562V91.396H180.686ZM200.26 96.5V90.89C200.26 90.6187 200.245 90.274 200.216 89.856C200.187 89.4307 200.095 89.0053 199.941 88.58C199.787 88.1547 199.534 87.799 199.182 87.513C198.837 87.227 198.346 87.084 197.708 87.084C197.451 87.084 197.176 87.1243 196.883 87.205C196.59 87.2857 196.315 87.4433 196.058 87.678C195.801 87.9053 195.589 88.2427 195.42 88.69C195.259 89.1373 195.178 89.7313 195.178 90.472L193.462 89.658C193.462 88.7193 193.653 87.8393 194.034 87.018C194.415 86.1967 194.987 85.533 195.75 85.027C196.52 84.521 197.488 84.268 198.654 84.268C199.585 84.268 200.344 84.4257 200.931 84.741C201.518 85.0563 201.972 85.456 202.295 85.94C202.625 86.424 202.86 86.93 202.999 87.458C203.138 87.9787 203.223 88.4553 203.252 88.888C203.281 89.3207 203.296 89.636 203.296 89.834V96.5H200.26ZM192.142 96.5V84.62H194.804V88.558H195.178V96.5H192.142ZM213.278 96.5C212.457 96.654 211.65 96.72 210.858 96.698C210.074 96.6833 209.37 96.5477 208.746 96.291C208.13 96.027 207.661 95.6053 207.338 95.026C207.045 94.4833 206.891 93.9333 206.876 93.376C206.862 92.8113 206.854 92.1733 206.854 91.462V81.32H209.846V91.286C209.846 91.748 209.85 92.166 209.857 92.54C209.872 92.9067 209.949 93.2 210.088 93.42C210.352 93.838 210.774 94.0653 211.353 94.102C211.933 94.1387 212.574 94.1093 213.278 94.014V96.5ZM204.83 86.93V84.62H213.278V86.93H204.83ZM220.55 82.97V80.33H223.542V82.97H220.55ZM220.55 96.5V84.62H223.542V96.5H220.55ZM234.936 96.5V90.89C234.936 90.6187 234.921 90.274 234.892 89.856C234.862 89.4307 234.771 89.0053 234.617 88.58C234.463 88.1547 234.21 87.799 233.858 87.513C233.513 87.227 233.022 87.084 232.384 87.084C232.127 87.084 231.852 87.1243 231.559 87.205C231.265 87.2857 230.99 87.4433 230.734 87.678C230.477 87.9053 230.264 88.2427 230.096 88.69C229.934 89.1373 229.854 89.7313 229.854 90.472L228.138 89.658C228.138 88.7193 228.328 87.8393 228.71 87.018C229.091 86.1967 229.663 85.533 230.426 85.027C231.196 84.521 232.164 84.268 233.33 84.268C234.261 84.268 235.02 84.4257 235.607 84.741C236.193 85.0563 236.648 85.456 236.971 85.94C237.301 86.424 237.535 86.93 237.675 87.458C237.814 87.9787 237.898 88.4553 237.928 88.888C237.957 89.3207 237.972 89.636 237.972 89.834V96.5H234.936ZM226.818 96.5V84.62H229.48V88.558H229.854V96.5H226.818ZM247.954 96.5C247.133 96.654 246.326 96.72 245.534 96.698C244.749 96.6833 244.045 96.5477 243.422 96.291C242.806 96.027 242.337 95.6053 242.014 95.026C241.721 94.4833 241.567 93.9333 241.552 93.376C241.537 92.8113 241.53 92.1733 241.53 91.462V81.32H244.522V91.286C244.522 91.748 244.526 92.166 244.533 92.54C244.548 92.9067 244.625 93.2 244.764 93.42C245.028 93.838 245.45 94.0653 246.029 94.102C246.608 94.1387 247.25 94.1093 247.954 94.014V96.5ZM239.506 86.93V84.62H247.954V86.93H239.506ZM255.479 96.83C254.262 96.83 253.187 96.5697 252.256 96.049C251.332 95.521 250.606 94.7987 250.078 93.882C249.557 92.958 249.297 91.902 249.297 90.714C249.297 89.416 249.554 88.2867 250.067 87.326C250.58 86.3653 251.288 85.621 252.19 85.093C253.092 84.5577 254.13 84.29 255.303 84.29C256.55 84.29 257.609 84.5833 258.482 85.17C259.355 85.7567 260 86.5817 260.418 87.645C260.836 88.7083 260.983 89.9587 260.858 91.396H257.899V90.296C257.899 89.086 257.705 88.217 257.316 87.689C256.935 87.1537 256.308 86.886 255.435 86.886C254.416 86.886 253.664 87.1977 253.18 87.821C252.703 88.437 252.465 89.35 252.465 90.56C252.465 91.6673 252.703 92.5253 253.18 93.134C253.664 93.7353 254.372 94.036 255.303 94.036C255.89 94.036 256.392 93.9077 256.81 93.651C257.228 93.3943 257.547 93.024 257.767 92.54L260.759 93.398C260.312 94.4833 259.604 95.3267 258.636 95.928C257.675 96.5293 256.623 96.83 255.479 96.83ZM251.541 91.396V89.174H259.417V91.396H251.541ZM263.342 96.5V84.62H265.982V87.524L265.696 87.15C265.85 86.7393 266.055 86.3653 266.312 86.028C266.568 85.6907 266.884 85.412 267.258 85.192C267.544 85.016 267.855 84.8803 268.193 84.785C268.53 84.6823 268.878 84.62 269.238 84.598C269.597 84.5687 269.956 84.576 270.316 84.62V87.414C269.986 87.3113 269.601 87.2783 269.161 87.315C268.728 87.3443 268.336 87.4433 267.984 87.612C267.632 87.7733 267.335 87.9897 267.093 88.261C266.851 88.525 266.667 88.8403 266.543 89.207C266.418 89.5663 266.356 89.9733 266.356 90.428V96.5H263.342ZM272.628 82.97V80.33H275.62V82.97H272.628ZM272.628 96.5V84.62H275.62V96.5H272.628ZM284.44 96.83C283.223 96.83 282.148 96.5697 281.217 96.049C280.293 95.521 279.567 94.7987 279.039 93.882C278.518 92.958 278.258 91.902 278.258 90.714C278.258 89.416 278.515 88.2867 279.028 87.326C279.541 86.3653 280.249 85.621 281.151 85.093C282.053 84.5577 283.091 84.29 284.264 84.29C285.511 84.29 286.57 84.5833 287.443 85.17C288.316 85.7567 288.961 86.5817 289.379 87.645C289.797 88.7083 289.944 89.9587 289.819 91.396H286.86V90.296C286.86 89.086 286.666 88.217 286.277 87.689C285.896 87.1537 285.269 86.886 284.396 86.886C283.377 86.886 282.625 87.1977 282.141 87.821C281.664 88.437 281.426 89.35 281.426 90.56C281.426 91.6673 281.664 92.5253 282.141 93.134C282.625 93.7353 283.333 94.036 284.264 94.036C284.851 94.036 285.353 93.9077 285.771 93.651C286.189 93.3943 286.508 93.024 286.728 92.54L289.72 93.398C289.273 94.4833 288.565 95.3267 287.597 95.928C286.636 96.5293 285.584 96.83 284.44 96.83ZM280.502 91.396V89.174H288.378V91.396H280.502ZM296.725 96.852C295.793 96.852 295.034 96.6943 294.448 96.379C293.861 96.0637 293.403 95.664 293.073 95.18C292.75 94.696 292.519 94.1937 292.38 93.673C292.24 93.145 292.156 92.6647 292.127 92.232C292.097 91.7993 292.083 91.484 292.083 91.286V84.62H295.119V90.23C295.119 90.5013 295.133 90.8497 295.163 91.275C295.192 91.693 295.284 92.1147 295.438 92.54C295.592 92.9653 295.841 93.321 296.186 93.607C296.538 93.893 297.033 94.036 297.671 94.036C297.927 94.036 298.202 93.9957 298.496 93.915C298.789 93.8343 299.064 93.6803 299.321 93.453C299.577 93.2183 299.786 92.8773 299.948 92.43C300.116 91.9753 300.201 91.3813 300.201 90.648L301.917 91.462C301.917 92.4007 301.726 93.2807 301.345 94.102C300.963 94.9233 300.388 95.587 299.618 96.093C298.855 96.599 297.891 96.852 296.725 96.852ZM300.575 96.5V92.562H300.201V84.62H303.215V96.5H300.575ZM306.289 96.5V84.62H308.929V87.524L308.643 87.15C308.797 86.7393 309.002 86.3653 309.259 86.028C309.516 85.6907 309.831 85.412 310.205 85.192C310.491 85.016 310.803 84.8803 311.14 84.785C311.477 84.6823 311.826 84.62 312.185 84.598C312.544 84.5687 312.904 84.576 313.263 84.62V87.414C312.933 87.3113 312.548 87.2783 312.108 87.315C311.675 87.3443 311.283 87.4433 310.931 87.612C310.579 87.7733 310.282 87.9897 310.04 88.261C309.798 88.525 309.615 88.8403 309.49 89.207C309.365 89.5663 309.303 89.9733 309.303 90.428V96.5H306.289Z" fill="white"/>
</g>
<g filter="url(#filter1_d_1781_1444)">
<rect x="79.8135" y="115.395" width="253.187" height="72.6054" fill="white" shape-rendering="crispEdges"/>
<rect x="80.3135" y="115.895" width="252.187" height="71.6054" stroke="#EEEEEE" shape-rendering="crispEdges"/>
<mask id="path-4-inside-1_1781_1444" fill="white">
<path d="M77 115H333V188H77V115Z"/>
</mask>
<path d="M85 188V115H69V188H85Z" fill="#0061B1" mask="url(#path-4-inside-1_1781_1444)"/>
<path d="M119.141 152.578C118.75 151.328 118.828 148.906 118.984 148.906C119.688 148.906 119.609 151.797 119.141 152.578ZM119.062 156.25C119.766 157.578 120.781 158.672 121.719 159.453C119.844 159.766 118.281 160.547 116.797 161.094C117.656 159.609 118.438 157.812 119.062 156.25ZM111.719 166.016C112.109 164.766 113.906 163.359 114.453 162.812C112.734 165.547 111.719 166.016 111.719 166.016ZM124.375 145H135V170.625C135 171.719 134.141 172.5 133.125 172.5H106.875C105.781 172.5 105 171.719 105 170.625V134.375C105 133.359 105.781 132.5 106.875 132.5H122.5V143.125C122.5 144.219 123.281 145 124.375 145ZM123.75 158.438C122.188 157.5 121.094 156.172 120.391 154.219C120.703 152.812 121.25 150.625 120.859 149.219C120.469 146.953 117.578 147.188 117.109 148.672C116.719 150.156 117.109 152.188 117.734 154.688C116.875 156.875 115.547 159.766 114.609 161.406C114.531 161.406 114.531 161.406 114.531 161.406C112.422 162.5 108.828 164.922 110.312 166.719C110.703 167.266 111.562 167.5 111.953 167.5C113.359 167.5 114.766 166.094 116.719 162.734C118.75 162.031 121.016 161.172 122.891 160.859C124.609 161.797 126.641 162.422 127.891 162.422C130.234 162.422 130.391 159.922 129.453 158.984C128.359 157.969 125.234 158.281 123.75 158.438ZM134.453 140.703C134.766 141.094 135 141.562 135 142.031V142.5H125V132.5H125.469C125.938 132.5 126.406 132.734 126.797 133.047L134.453 140.703ZM128.594 160.703C128.594 160.703 128.203 161.25 125.312 160C128.438 159.766 128.984 160.469 128.594 160.703Z" fill="#0061B1"/>
<path d="M165.649 154.022V151.705H176.569V154.022H172.498V165H169.72V154.022H165.649ZM181.413 165.195C180.387 165.195 179.505 164.987 178.764 164.572C178.029 164.152 177.462 163.559 177.064 162.793C176.665 162.022 176.466 161.111 176.466 160.06C176.466 159.034 176.665 158.134 177.064 157.359C177.462 156.584 178.022 155.981 178.745 155.548C179.472 155.115 180.325 154.899 181.303 154.899C181.961 154.899 182.573 155.005 183.14 155.217C183.711 155.424 184.209 155.738 184.633 156.158C185.062 156.578 185.395 157.106 185.633 157.742C185.871 158.374 185.99 159.114 185.99 159.962V160.722H177.57V159.008H183.387C183.387 158.61 183.3 158.257 183.127 157.95C182.954 157.642 182.714 157.402 182.406 157.229C182.104 157.052 181.751 156.963 181.348 156.963C180.928 156.963 180.556 157.06 180.232 157.255C179.911 157.446 179.66 157.703 179.479 158.028C179.297 158.348 179.204 158.705 179.199 159.099V160.728C179.199 161.222 179.29 161.648 179.472 162.007C179.658 162.366 179.92 162.643 180.258 162.838C180.595 163.033 180.996 163.13 181.459 163.13C181.766 163.13 182.047 163.087 182.303 163C182.558 162.914 182.777 162.784 182.958 162.611C183.14 162.438 183.279 162.226 183.374 161.975L185.932 162.144C185.802 162.758 185.536 163.295 185.133 163.754C184.735 164.208 184.22 164.563 183.588 164.818C182.96 165.069 182.236 165.195 181.413 165.195ZM180.245 153.743L181.621 150.789H184.179L182.199 153.743H180.245ZM190.56 151.705V165H187.795V151.705H190.56ZM197.32 165.195C196.294 165.195 195.411 164.987 194.671 164.572C193.936 164.152 193.369 163.559 192.97 162.793C192.572 162.022 192.373 161.111 192.373 160.06C192.373 159.034 192.572 158.134 192.97 157.359C193.369 156.584 193.929 155.981 194.652 155.548C195.379 155.115 196.232 154.899 197.21 154.899C197.868 154.899 198.48 155.005 199.047 155.217C199.618 155.424 200.116 155.738 200.54 156.158C200.968 156.578 201.302 157.106 201.54 157.742C201.778 158.374 201.897 159.114 201.897 159.962V160.722H193.477V159.008H199.294C199.294 158.61 199.207 158.257 199.034 157.95C198.861 157.642 198.621 157.402 198.313 157.229C198.01 157.052 197.658 156.963 197.255 156.963C196.835 156.963 196.463 157.06 196.138 157.255C195.818 157.446 195.567 157.703 195.385 158.028C195.204 158.348 195.111 158.705 195.106 159.099V160.728C195.106 161.222 195.197 161.648 195.379 162.007C195.565 162.366 195.827 162.643 196.164 162.838C196.502 163.033 196.902 163.13 197.365 163.13C197.673 163.13 197.954 163.087 198.209 163C198.465 162.914 198.683 162.784 198.865 162.611C199.047 162.438 199.185 162.226 199.281 161.975L201.838 162.144C201.709 162.758 201.442 163.295 201.04 163.754C200.642 164.208 200.127 164.563 199.495 164.818C198.867 165.069 198.142 165.195 197.32 165.195ZM196.151 153.743L197.528 150.789H200.086L198.106 153.743H196.151ZM208.207 165.195C207.186 165.195 206.307 164.978 205.571 164.546C204.84 164.108 204.277 163.503 203.883 162.728C203.494 161.953 203.299 161.062 203.299 160.053C203.299 159.032 203.496 158.136 203.89 157.366C204.288 156.591 204.853 155.987 205.584 155.554C206.316 155.117 207.186 154.899 208.194 154.899C209.064 154.899 209.826 155.057 210.479 155.372C211.133 155.688 211.65 156.132 212.031 156.703C212.412 157.275 212.621 157.945 212.66 158.716H210.051C209.977 158.218 209.782 157.818 209.466 157.515C209.155 157.208 208.746 157.054 208.239 157.054C207.811 157.054 207.437 157.171 207.116 157.404C206.8 157.634 206.554 157.969 206.376 158.411C206.199 158.852 206.11 159.387 206.11 160.014C206.11 160.65 206.197 161.191 206.37 161.637C206.547 162.083 206.796 162.423 207.116 162.656C207.437 162.89 207.811 163.007 208.239 163.007C208.555 163.007 208.839 162.942 209.09 162.812C209.345 162.682 209.555 162.494 209.72 162.247C209.888 161.996 209.999 161.696 210.051 161.345H212.66C212.617 162.107 212.409 162.778 212.037 163.358C211.669 163.933 211.161 164.383 210.512 164.708C209.862 165.032 209.094 165.195 208.207 165.195ZM217.197 159.235V165H214.431V151.705H217.119V156.788H217.236C217.461 156.199 217.824 155.738 218.326 155.405C218.828 155.067 219.458 154.899 220.215 154.899C220.908 154.899 221.512 155.05 222.027 155.353C222.546 155.652 222.949 156.082 223.234 156.645C223.524 157.203 223.667 157.872 223.663 158.651V165H220.897V159.144C220.901 158.53 220.746 158.051 220.43 157.71C220.118 157.368 219.681 157.197 219.118 157.197C218.742 157.197 218.408 157.277 218.119 157.437C217.833 157.597 217.608 157.831 217.443 158.138C217.283 158.441 217.201 158.807 217.197 159.235ZM228.683 165.188C228.046 165.188 227.479 165.078 226.982 164.857C226.484 164.632 226.09 164.301 225.8 163.864C225.514 163.422 225.372 162.873 225.372 162.215C225.372 161.661 225.473 161.196 225.677 160.819C225.88 160.443 226.157 160.14 226.508 159.91C226.858 159.681 227.256 159.508 227.702 159.391C228.152 159.274 228.624 159.192 229.117 159.144C229.697 159.084 230.165 159.027 230.52 158.975C230.875 158.919 231.132 158.837 231.292 158.729C231.452 158.621 231.532 158.46 231.532 158.248V158.209C231.532 157.798 231.403 157.48 231.143 157.255C230.888 157.03 230.524 156.918 230.052 156.918C229.555 156.918 229.159 157.028 228.864 157.249C228.57 157.465 228.375 157.738 228.28 158.067L225.722 157.859C225.852 157.253 226.107 156.729 226.488 156.288C226.869 155.842 227.36 155.5 227.962 155.262C228.568 155.02 229.269 154.899 230.065 154.899C230.619 154.899 231.149 154.963 231.656 155.093C232.166 155.223 232.619 155.424 233.013 155.697C233.411 155.97 233.725 156.32 233.954 156.749C234.183 157.173 234.298 157.681 234.298 158.274V165H231.675V163.617H231.597C231.437 163.929 231.223 164.204 230.955 164.442C230.686 164.675 230.364 164.859 229.987 164.994C229.611 165.123 229.176 165.188 228.683 165.188ZM229.475 163.28C229.881 163.28 230.241 163.2 230.552 163.039C230.864 162.875 231.108 162.654 231.286 162.377C231.463 162.1 231.552 161.786 231.552 161.436V160.378C231.465 160.434 231.346 160.486 231.195 160.534C231.048 160.577 230.881 160.618 230.695 160.657C230.509 160.692 230.323 160.724 230.137 160.754C229.951 160.78 229.782 160.804 229.63 160.826C229.306 160.873 229.022 160.949 228.78 161.053C228.538 161.157 228.349 161.297 228.215 161.475C228.081 161.648 228.014 161.864 228.014 162.124C228.014 162.501 228.15 162.788 228.423 162.988C228.7 163.182 229.05 163.28 229.475 163.28ZM236.444 165V155.028H239.125V156.768H239.229C239.41 156.149 239.716 155.682 240.144 155.366C240.572 155.046 241.066 154.886 241.624 154.886C241.763 154.886 241.912 154.894 242.072 154.912C242.232 154.929 242.373 154.953 242.494 154.983V157.437C242.364 157.398 242.185 157.363 241.955 157.333C241.726 157.303 241.516 157.288 241.326 157.288C240.919 157.288 240.555 157.376 240.235 157.554C239.919 157.727 239.668 157.969 239.482 158.281C239.3 158.592 239.209 158.952 239.209 159.359V165H236.444ZM247.952 168.947C247.056 168.947 246.288 168.824 245.648 168.577C245.011 168.335 244.505 168.004 244.128 167.584C243.752 167.164 243.507 166.692 243.395 166.169L245.953 165.824C246.031 166.024 246.154 166.21 246.323 166.383C246.491 166.556 246.714 166.694 246.991 166.798C247.273 166.906 247.615 166.961 248.017 166.961C248.619 166.961 249.114 166.813 249.504 166.519C249.898 166.229 250.094 165.742 250.094 165.058V163.234H249.978C249.856 163.511 249.675 163.773 249.432 164.02C249.19 164.266 248.878 164.468 248.497 164.623C248.117 164.779 247.662 164.857 247.134 164.857C246.385 164.857 245.704 164.684 245.089 164.338C244.479 163.987 243.992 163.453 243.629 162.734C243.269 162.012 243.09 161.098 243.09 159.995C243.09 158.865 243.274 157.922 243.642 157.164C244.009 156.407 244.498 155.84 245.109 155.463C245.723 155.087 246.396 154.899 247.128 154.899C247.686 154.899 248.153 154.994 248.53 155.184C248.906 155.37 249.209 155.604 249.439 155.885C249.673 156.162 249.852 156.435 249.978 156.703H250.081V155.028H252.828V165.097C252.828 165.946 252.62 166.655 252.204 167.227C251.789 167.798 251.213 168.226 250.478 168.512C249.746 168.802 248.904 168.947 247.952 168.947ZM248.011 162.78C248.456 162.78 248.833 162.669 249.14 162.449C249.452 162.224 249.69 161.903 249.854 161.488C250.023 161.068 250.107 160.566 250.107 159.982C250.107 159.397 250.025 158.891 249.861 158.463C249.696 158.03 249.458 157.694 249.147 157.456C248.835 157.218 248.456 157.099 248.011 157.099C247.556 157.099 247.173 157.223 246.862 157.469C246.55 157.712 246.314 158.049 246.154 158.482C245.994 158.915 245.914 159.415 245.914 159.982C245.914 160.557 245.994 161.055 246.154 161.475C246.318 161.89 246.554 162.213 246.862 162.442C247.173 162.667 247.556 162.78 248.011 162.78ZM259.573 165.195C258.547 165.195 257.664 164.987 256.924 164.572C256.188 164.152 255.621 163.559 255.223 162.793C254.825 162.022 254.626 161.111 254.626 160.06C254.626 159.034 254.825 158.134 255.223 157.359C255.621 156.584 256.182 155.981 256.905 155.548C257.632 155.115 258.484 154.899 259.462 154.899C260.12 154.899 260.733 155.005 261.3 155.217C261.871 155.424 262.369 155.738 262.793 156.158C263.221 156.578 263.554 157.106 263.792 157.742C264.03 158.374 264.149 159.114 264.149 159.962V160.722H255.729V159.008H261.546C261.546 158.61 261.46 158.257 261.287 157.95C261.113 157.642 260.873 157.402 260.566 157.229C260.263 157.052 259.91 156.963 259.508 156.963C259.088 156.963 258.716 157.06 258.391 157.255C258.071 157.446 257.82 157.703 257.638 158.028C257.456 158.348 257.363 158.705 257.359 159.099V160.728C257.359 161.222 257.45 161.648 257.632 162.007C257.818 162.366 258.08 162.643 258.417 162.838C258.755 163.033 259.155 163.13 259.618 163.13C259.925 163.13 260.207 163.087 260.462 163C260.717 162.914 260.936 162.784 261.118 162.611C261.3 162.438 261.438 162.226 261.533 161.975L264.091 162.144C263.961 162.758 263.695 163.295 263.293 163.754C262.894 164.208 262.379 164.563 261.747 164.818C261.12 165.069 260.395 165.195 259.573 165.195ZM265.954 165V155.028H268.635V156.768H268.739C268.921 156.149 269.226 155.682 269.655 155.366C270.083 155.046 270.576 154.886 271.135 154.886C271.273 154.886 271.423 154.894 271.583 154.912C271.743 154.929 271.884 154.953 272.005 154.983V157.437C271.875 157.398 271.695 157.363 271.466 157.333C271.237 157.303 271.027 157.288 270.836 157.288C270.429 157.288 270.066 157.376 269.746 157.554C269.43 157.727 269.179 157.969 268.992 158.281C268.811 158.592 268.72 158.952 268.72 159.359V165H265.954Z" fill="black"/>
</g>
<defs>
<filter id="filter0_d_1781_1444" x="0.799995" y="0.520077" width="505.4" height="298.4" filterUnits="userSpaceOnUse" color-interpolation-filters="sRGB">
<feFlood flood-opacity="0" result="BackgroundImageFix"/>
<feColorMatrix in="SourceAlpha" type="matrix" values="0 0 0 0 0 0 0 0 0 0 0 0 0 0 0 0 0 0 127 0" result="hardAlpha"/>
<feOffset dy="34.7201"/>
<feGaussianBlur stdDeviation="38.1"/>
<feComposite in2="hardAlpha" operator="out"/>
<feColorMatrix type="matrix" values="0 0 0 0 0.270833 0 0 0 0 0.0530382 0 0 0 0 0.0815082 0 0 0 0.16 0"/>
<feBlend mode="normal" in2="BackgroundImageFix" result="effect1_dropShadow_1781_1444"/>
<feBlend mode="normal" in="SourceGraphic" in2="effect1_dropShadow_1781_1444" result="shape"/>
</filter>
<filter id="filter1_d_1781_1444" x="47" y="85" width="316" height="133" filterUnits="userSpaceOnUse" color-interpolation-filters="sRGB">
<feFlood flood-opacity="0" result="BackgroundImageFix"/>
<feColorMatrix in="SourceAlpha" type="matrix" values="0 0 0 0 0 0 0 0 0 0 0 0 0 0 0 0 0 0 127 0" result="hardAlpha"/>
<feOffset/>
<feGaussianBlur stdDeviation="15"/>
<feComposite in2="hardAlpha" operator="out"/>
<feColorMatrix type="matrix" values="0 0 0 0 0 0 0 0 0 0 0 0 0 0 0 0 0 0 0.08 0"/>
<feBlend mode="normal" in2="BackgroundImageFix" result="effect1_dropShadow_1781_1444"/>
<feBlend mode="normal" in="SourceGraphic" in2="effect1_dropShadow_1781_1444" result="shape"/>
</filter>
</defs>
</svg>
