<svg width="24" height="25" viewBox="0 0 24 25" fill="none" xmlns="http://www.w3.org/2000/svg">
<path d="M0 12.2105C0 18.9542 5.17671 24.421 11.5625 24.421C17.9483 24.421 23.125 18.9542 23.125 12.2105C23.125 5.46682 17.9483 0 11.5625 0C5.17671 0 0 5.46682 0 12.2105Z" fill="#0061B1"/>
<path d="M17.3438 12.2105C17.3438 8.85259 14.7422 6.10522 11.5625 6.10522C8.38281 6.10522 5.78125 8.85259 5.78125 12.2105C5.78125 15.2631 7.87695 17.7815 10.623 18.2394V13.9657H9.17773V12.2105H10.623V10.8368C10.623 9.31048 11.4902 8.47101 12.791 8.47101C13.4414 8.47101 14.0918 8.62364 14.0918 8.62364V10.15H13.3691C12.6465 10.15 12.4297 10.6078 12.4297 11.0657V12.2105H14.0195L13.7305 13.9657H12.3574V18.3157C15.248 17.8578 17.3438 15.2631 17.3438 12.2105Z" fill="white"/>
</svg>
