<svg width="430" height="56" viewBox="0 0 430 56" fill="none" xmlns="http://www.w3.org/2000/svg">
<rect width="436" height="56" fill="#0061B1"/>
<path d="M103.466 24H101.705C101.6 23.4934 101.418 23.0483 101.158 22.6648C100.902 22.2812 100.589 21.9593 100.22 21.6989C99.8556 21.4337 99.4508 21.2348 99.0057 21.1023C98.5606 20.9697 98.0966 20.9034 97.6136 20.9034C96.733 20.9034 95.9351 21.1259 95.2202 21.571C94.5099 22.0161 93.9441 22.6719 93.5227 23.5384C93.1061 24.4048 92.8977 25.4678 92.8977 26.7273C92.8977 27.9867 93.1061 29.0497 93.5227 29.9162C93.9441 30.7827 94.5099 31.4384 95.2202 31.8835C95.9351 32.3286 96.733 32.5511 97.6136 32.5511C98.0966 32.5511 98.5606 32.4848 99.0057 32.3523C99.4508 32.2197 99.8556 32.0232 100.22 31.7628C100.589 31.4976 100.902 31.1733 101.158 30.7898C101.418 30.4015 101.6 29.9564 101.705 29.4545H103.466C103.333 30.1979 103.092 30.8632 102.741 31.4503C102.391 32.0374 101.955 32.5369 101.435 32.9489C100.914 33.3561 100.329 33.6662 99.6804 33.8793C99.0365 34.0923 98.3475 34.1989 97.6136 34.1989C96.3731 34.1989 95.2699 33.8958 94.304 33.2898C93.3381 32.6837 92.5781 31.822 92.0241 30.7045C91.4702 29.5871 91.1932 28.2614 91.1932 26.7273C91.1932 25.1932 91.4702 23.8674 92.0241 22.75C92.5781 21.6326 93.3381 20.7708 94.304 20.1648C95.2699 19.5587 96.3731 19.2557 97.6136 19.2557C98.3475 19.2557 99.0365 19.3622 99.6804 19.5753C100.329 19.7884 100.914 20.1009 101.435 20.5128C101.955 20.92 102.391 21.4171 102.741 22.0043C103.092 22.5866 103.333 23.2519 103.466 24ZM109.295 34.2557C108.604 34.2557 107.976 34.1255 107.413 33.8651C106.85 33.5999 106.402 33.2188 106.071 32.7216C105.739 32.2197 105.574 31.6136 105.574 30.9034C105.574 30.2784 105.697 29.7718 105.943 29.3835C106.189 28.9905 106.518 28.6828 106.93 28.4602C107.342 28.2377 107.797 28.072 108.294 27.9631C108.796 27.8494 109.3 27.7595 109.806 27.6932C110.469 27.608 111.007 27.544 111.419 27.5014C111.835 27.4541 112.138 27.3759 112.328 27.267C112.522 27.1581 112.619 26.9687 112.619 26.6989V26.642C112.619 25.9413 112.427 25.3968 112.044 25.0085C111.665 24.6203 111.09 24.4261 110.318 24.4261C109.518 24.4261 108.89 24.6013 108.436 24.9517C107.981 25.3021 107.662 25.6761 107.477 26.0739L105.886 25.5057C106.17 24.8428 106.549 24.3267 107.022 23.9574C107.501 23.5833 108.021 23.3229 108.585 23.1761C109.153 23.0246 109.712 22.9489 110.261 22.9489C110.611 22.9489 111.014 22.9915 111.468 23.0767C111.928 23.1572 112.37 23.3253 112.797 23.581C113.227 23.8366 113.585 24.2225 113.869 24.7386C114.153 25.2547 114.295 25.946 114.295 26.8125V34H112.619V32.5227H112.534C112.42 32.7595 112.231 33.0128 111.966 33.2827C111.7 33.5526 111.348 33.7822 110.907 33.9716C110.467 34.161 109.93 34.2557 109.295 34.2557ZM109.551 32.75C110.214 32.75 110.772 32.6198 111.227 32.3594C111.686 32.099 112.032 31.7628 112.264 31.3509C112.501 30.9389 112.619 30.5057 112.619 30.0511V28.517C112.548 28.6023 112.392 28.6804 112.15 28.7514C111.913 28.8177 111.639 28.8769 111.326 28.929C111.019 28.9763 110.718 29.0189 110.424 29.0568C110.136 29.09 109.901 29.1184 109.721 29.142C109.286 29.1989 108.878 29.2912 108.5 29.419C108.126 29.5421 107.823 29.7292 107.591 29.9801C107.363 30.2263 107.25 30.5625 107.25 30.9886C107.25 31.571 107.465 32.0114 107.896 32.3097C108.332 32.6032 108.883 32.75 109.551 32.75ZM122.099 23.0909V24.5114H116.445V23.0909H122.099ZM118.093 20.4773H119.769V30.875C119.769 31.3485 119.838 31.7036 119.975 31.9403C120.117 32.1723 120.297 32.3286 120.515 32.4091C120.737 32.4848 120.972 32.5227 121.218 32.5227C121.403 32.5227 121.554 32.5133 121.673 32.4943C121.791 32.4706 121.886 32.4517 121.957 32.4375L122.298 33.9432C122.184 33.9858 122.025 34.0284 121.822 34.071C121.618 34.1184 121.36 34.142 121.048 34.142C120.574 34.142 120.11 34.0402 119.656 33.8366C119.206 33.633 118.832 33.3229 118.533 32.9062C118.24 32.4896 118.093 31.964 118.093 31.3295V20.4773ZM127.83 34.2557C127.139 34.2557 126.512 34.1255 125.948 33.8651C125.385 33.5999 124.937 33.2188 124.606 32.7216C124.274 32.2197 124.109 31.6136 124.109 30.9034C124.109 30.2784 124.232 29.7718 124.478 29.3835C124.724 28.9905 125.053 28.6828 125.465 28.4602C125.877 28.2377 126.332 28.072 126.829 27.9631C127.331 27.8494 127.835 27.7595 128.342 27.6932C129.004 27.608 129.542 27.544 129.954 27.5014C130.371 27.4541 130.674 27.3759 130.863 27.267C131.057 27.1581 131.154 26.9687 131.154 26.6989V26.642C131.154 25.9413 130.962 25.3968 130.579 25.0085C130.2 24.6203 129.625 24.4261 128.853 24.4261C128.053 24.4261 127.425 24.6013 126.971 24.9517C126.516 25.3021 126.197 25.6761 126.012 26.0739L124.421 25.5057C124.705 24.8428 125.084 24.3267 125.558 23.9574C126.036 23.5833 126.557 23.3229 127.12 23.1761C127.688 23.0246 128.247 22.9489 128.796 22.9489C129.147 22.9489 129.549 22.9915 130.004 23.0767C130.463 23.1572 130.906 23.3253 131.332 23.581C131.763 23.8366 132.12 24.2225 132.404 24.7386C132.688 25.2547 132.83 25.946 132.83 26.8125V34H131.154V32.5227H131.069C130.955 32.7595 130.766 33.0128 130.501 33.2827C130.236 33.5526 129.883 33.7822 129.442 33.9716C129.002 34.161 128.465 34.2557 127.83 34.2557ZM128.086 32.75C128.749 32.75 129.308 32.6198 129.762 32.3594C130.221 32.099 130.567 31.7628 130.799 31.3509C131.036 30.9389 131.154 30.5057 131.154 30.0511V28.517C131.083 28.6023 130.927 28.6804 130.685 28.7514C130.449 28.8177 130.174 28.8769 129.862 28.929C129.554 28.9763 129.253 29.0189 128.96 29.0568C128.671 29.09 128.436 29.1184 128.256 29.142C127.821 29.1989 127.414 29.2912 127.035 29.419C126.661 29.5421 126.358 29.7292 126.126 29.9801C125.898 30.2263 125.785 30.5625 125.785 30.9886C125.785 31.571 126 32.0114 126.431 32.3097C126.867 32.6032 127.418 32.75 128.086 32.75ZM137.566 19.4545V34H135.89V19.4545H137.566ZM145.067 34.2273C144.083 34.2273 143.219 33.9929 142.475 33.5241C141.737 33.0554 141.159 32.3996 140.742 31.5568C140.33 30.714 140.124 29.7292 140.124 28.6023C140.124 27.4659 140.33 26.474 140.742 25.6264C141.159 24.7789 141.737 24.1207 142.475 23.652C143.219 23.1832 144.083 22.9489 145.067 22.9489C146.052 22.9489 146.914 23.1832 147.653 23.652C148.396 24.1207 148.974 24.7789 149.386 25.6264C149.802 26.474 150.011 27.4659 150.011 28.6023C150.011 29.7292 149.802 30.714 149.386 31.5568C148.974 32.3996 148.396 33.0554 147.653 33.5241C146.914 33.9929 146.052 34.2273 145.067 34.2273ZM145.067 32.7216C145.816 32.7216 146.431 32.5298 146.914 32.1463C147.397 31.7628 147.754 31.2585 147.987 30.6335C148.219 30.0085 148.335 29.3314 148.335 28.6023C148.335 27.8731 148.219 27.1937 147.987 26.5639C147.754 25.9342 147.397 25.4252 146.914 25.0369C146.431 24.6487 145.816 24.4545 145.067 24.4545C144.319 24.4545 143.704 24.6487 143.221 25.0369C142.738 25.4252 142.38 25.9342 142.148 26.5639C141.916 27.1937 141.8 27.8731 141.8 28.6023C141.8 29.3314 141.916 30.0085 142.148 30.6335C142.38 31.2585 142.738 31.7628 143.221 32.1463C143.704 32.5298 144.319 32.7216 145.067 32.7216ZM156.973 38.3182C156.163 38.3182 155.467 38.214 154.885 38.0057C154.302 37.8021 153.817 37.5322 153.429 37.196C153.045 36.8646 152.74 36.5095 152.512 36.1307L153.848 35.1932C153.999 35.392 154.191 35.6193 154.423 35.875C154.655 36.1354 154.972 36.3603 155.375 36.5497C155.782 36.7438 156.315 36.8409 156.973 36.8409C157.853 36.8409 158.58 36.6278 159.153 36.2017C159.726 35.7756 160.012 35.108 160.012 34.1989V31.983H159.87C159.747 32.1818 159.572 32.428 159.345 32.7216C159.122 33.0104 158.8 33.2685 158.379 33.4957C157.962 33.7183 157.399 33.8295 156.689 33.8295C155.808 33.8295 155.017 33.6212 154.316 33.2045C153.62 32.7879 153.069 32.1818 152.662 31.3864C152.259 30.5909 152.058 29.625 152.058 28.4886C152.058 27.3712 152.254 26.3982 152.647 25.5696C153.04 24.7363 153.587 24.0923 154.288 23.6378C154.989 23.1785 155.798 22.9489 156.717 22.9489C157.427 22.9489 157.991 23.0672 158.407 23.304C158.829 23.536 159.151 23.8011 159.373 24.0994C159.6 24.393 159.776 24.6345 159.899 24.8239H160.069V23.0909H161.689V34.3125C161.689 35.25 161.475 36.0123 161.049 36.5994C160.628 37.1913 160.06 37.6245 159.345 37.8991C158.635 38.1785 157.844 38.3182 156.973 38.3182ZM156.916 32.3239C157.588 32.3239 158.156 32.17 158.62 31.8622C159.084 31.5545 159.437 31.1117 159.679 30.5341C159.92 29.9564 160.041 29.2652 160.041 28.4602C160.041 27.6742 159.922 26.9806 159.686 26.3793C159.449 25.7779 159.099 25.3068 158.635 24.9659C158.171 24.625 157.598 24.4545 156.916 24.4545C156.206 24.4545 155.614 24.6345 155.14 24.9943C154.672 25.3542 154.319 25.8371 154.082 26.4432C153.85 27.0492 153.734 27.7216 153.734 28.4602C153.734 29.2178 153.852 29.8878 154.089 30.4702C154.331 31.0478 154.686 31.5024 155.154 31.8338C155.628 32.1605 156.215 32.3239 156.916 32.3239ZM171.632 29.5398V23.0909H173.308V34H171.632V32.1534H171.518C171.262 32.7074 170.865 33.1785 170.325 33.5668C169.785 33.9503 169.103 34.142 168.279 34.142C167.598 34.142 166.992 33.9929 166.461 33.6946C165.931 33.3916 165.514 32.937 165.211 32.331C164.908 31.7202 164.757 30.9508 164.757 30.0227V23.0909H166.433V29.9091C166.433 30.7045 166.655 31.339 167.1 31.8125C167.55 32.286 168.123 32.5227 168.819 32.5227C169.236 32.5227 169.66 32.4162 170.091 32.2031C170.526 31.9901 170.891 31.6634 171.184 31.223C171.483 30.7827 171.632 30.2216 171.632 29.5398ZM180.952 34.2273C179.901 34.2273 178.994 33.9953 178.232 33.5312C177.474 33.0625 176.889 32.4091 176.477 31.571C176.07 30.7282 175.866 29.7481 175.866 28.6307C175.866 27.5133 176.07 26.5284 176.477 25.6761C176.889 24.8191 177.462 24.1515 178.196 23.6733C178.935 23.1903 179.796 22.9489 180.781 22.9489C181.349 22.9489 181.911 23.0436 182.464 23.233C183.018 23.4223 183.523 23.7301 183.977 24.1562C184.432 24.5777 184.794 25.1364 185.064 25.8324C185.334 26.5284 185.469 27.3854 185.469 28.4034V29.1136H177.06V27.6648H183.764C183.764 27.0492 183.641 26.5 183.395 26.017C183.153 25.5341 182.808 25.1529 182.358 24.8736C181.913 24.5942 181.387 24.4545 180.781 24.4545C180.114 24.4545 179.536 24.6203 179.048 24.9517C178.565 25.2784 178.194 25.7045 177.933 26.2301C177.673 26.7557 177.543 27.3191 177.543 27.9205V28.8864C177.543 29.7102 177.685 30.4086 177.969 30.9815C178.258 31.5497 178.658 31.983 179.169 32.2812C179.68 32.5748 180.275 32.7216 180.952 32.7216C181.392 32.7216 181.79 32.66 182.145 32.5369C182.505 32.4091 182.815 32.2197 183.075 31.9688C183.336 31.7131 183.537 31.3958 183.679 31.017L185.298 31.4716C185.128 32.0208 184.841 32.5038 184.439 32.9205C184.036 33.3324 183.539 33.6544 182.947 33.8864C182.356 34.1136 181.69 34.2273 180.952 34.2273ZM197.763 34.2273C196.854 34.2273 196.051 33.9976 195.355 33.5384C194.659 33.0743 194.115 32.4209 193.722 31.5781C193.329 30.7306 193.132 29.7292 193.132 28.5739C193.132 27.428 193.329 26.4337 193.722 25.5909C194.115 24.7481 194.661 24.0971 195.362 23.6378C196.063 23.1785 196.873 22.9489 197.791 22.9489C198.501 22.9489 199.063 23.0672 199.474 23.304C199.891 23.536 200.208 23.8011 200.426 24.0994C200.649 24.393 200.821 24.6345 200.945 24.8239H201.087V19.4545H202.763V34H201.143V32.3239H200.945C200.821 32.5227 200.646 32.7737 200.419 33.0767C200.192 33.375 199.867 33.6425 199.446 33.8793C199.025 34.1113 198.464 34.2273 197.763 34.2273ZM197.99 32.7216C198.662 32.7216 199.231 32.5464 199.695 32.196C200.159 31.8409 200.511 31.3509 200.753 30.7259C200.994 30.0961 201.115 29.3693 201.115 28.5455C201.115 27.7311 200.997 27.0185 200.76 26.4077C200.523 25.7921 200.173 25.3139 199.709 24.973C199.245 24.6274 198.672 24.4545 197.99 24.4545C197.28 24.4545 196.688 24.6368 196.214 25.0014C195.746 25.3613 195.393 25.8513 195.156 26.4716C194.924 27.0871 194.808 27.7784 194.808 28.5455C194.808 29.322 194.927 30.0275 195.163 30.6619C195.405 31.2917 195.76 31.7936 196.229 32.1676C196.702 32.5369 197.289 32.7216 197.99 32.7216ZM210.639 34.2273C209.588 34.2273 208.681 33.9953 207.919 33.5312C207.161 33.0625 206.577 32.4091 206.165 31.571C205.758 30.7282 205.554 29.7481 205.554 28.6307C205.554 27.5133 205.758 26.5284 206.165 25.6761C206.577 24.8191 207.15 24.1515 207.884 23.6733C208.622 23.1903 209.484 22.9489 210.469 22.9489C211.037 22.9489 211.598 23.0436 212.152 23.233C212.706 23.4223 213.21 23.7301 213.665 24.1562C214.119 24.5777 214.482 25.1364 214.751 25.8324C215.021 26.5284 215.156 27.3854 215.156 28.4034V29.1136H206.747V27.6648H213.452C213.452 27.0492 213.329 26.5 213.082 26.017C212.841 25.5341 212.495 25.1529 212.045 24.8736C211.6 24.5942 211.075 24.4545 210.469 24.4545C209.801 24.4545 209.223 24.6203 208.736 24.9517C208.253 25.2784 207.881 25.7045 207.621 26.2301C207.36 26.7557 207.23 27.3191 207.23 27.9205V28.8864C207.23 29.7102 207.372 30.4086 207.656 30.9815C207.945 31.5497 208.345 31.983 208.857 32.2812C209.368 32.5748 209.962 32.7216 210.639 32.7216C211.08 32.7216 211.477 32.66 211.832 32.5369C212.192 32.4091 212.502 32.2197 212.763 31.9688C213.023 31.7131 213.224 31.3958 213.366 31.017L214.986 31.4716C214.815 32.0208 214.529 32.5038 214.126 32.9205C213.724 33.3324 213.227 33.6544 212.635 33.8864C212.043 34.1136 211.378 34.2273 210.639 34.2273ZM225.433 25.5341L223.928 25.9602C223.833 25.7093 223.693 25.4654 223.509 25.2287C223.329 24.9872 223.082 24.7884 222.77 24.6321C222.457 24.4759 222.057 24.3977 221.57 24.3977C220.902 24.3977 220.346 24.5516 219.901 24.8594C219.46 25.1624 219.24 25.5483 219.24 26.017C219.24 26.4337 219.392 26.7628 219.695 27.0043C219.998 27.2457 220.471 27.447 221.115 27.608L222.734 28.0057C223.71 28.2424 224.437 28.6046 224.915 29.0923C225.393 29.5753 225.632 30.1979 225.632 30.9602C225.632 31.5852 225.452 32.1439 225.092 32.6364C224.737 33.1288 224.24 33.517 223.601 33.8011C222.962 34.0852 222.218 34.2273 221.371 34.2273C220.258 34.2273 219.337 33.9858 218.608 33.5028C217.879 33.0199 217.417 32.3144 217.223 31.3864L218.814 30.9886C218.965 31.5758 219.252 32.0161 219.673 32.3097C220.099 32.6032 220.656 32.75 221.342 32.75C222.124 32.75 222.744 32.5843 223.203 32.2528C223.667 31.9167 223.899 31.5142 223.899 31.0455C223.899 30.6667 223.767 30.3494 223.501 30.0938C223.236 29.8333 222.829 29.6392 222.28 29.5114L220.462 29.0852C219.463 28.8485 218.729 28.4815 218.26 27.9844C217.796 27.4825 217.564 26.8551 217.564 26.1023C217.564 25.4867 217.737 24.9422 218.082 24.4688C218.433 23.9953 218.909 23.6236 219.51 23.3537C220.116 23.0838 220.803 22.9489 221.57 22.9489C222.649 22.9489 223.497 23.1856 224.112 23.6591C224.732 24.1326 225.173 24.7576 225.433 25.5341ZM233.78 34V23.0909H235.4V24.7955H235.542C235.769 24.2131 236.136 23.7609 236.642 23.4389C237.149 23.1122 237.757 22.9489 238.468 22.9489C239.187 22.9489 239.786 23.1122 240.265 23.4389C240.748 23.7609 241.124 24.2131 241.394 24.7955H241.507C241.787 24.232 242.206 23.7846 242.765 23.4531C243.323 23.117 243.993 22.9489 244.775 22.9489C245.75 22.9489 246.548 23.2543 247.168 23.8651C247.788 24.4711 248.098 25.4157 248.098 26.6989V34H246.422V26.6989C246.422 25.8939 246.202 25.3187 245.762 24.973C245.321 24.6274 244.803 24.4545 244.206 24.4545C243.439 24.4545 242.845 24.6866 242.424 25.1506C242.002 25.6098 241.792 26.1922 241.792 26.8977V34H240.087V26.5284C240.087 25.9081 239.886 25.4086 239.483 25.0298C239.081 24.6463 238.562 24.4545 237.928 24.4545C237.492 24.4545 237.085 24.5705 236.706 24.8026C236.332 25.0346 236.029 25.3565 235.797 25.7685C235.57 26.1757 235.456 26.6468 235.456 27.1818V34H233.78ZM254.373 34.2557C253.682 34.2557 253.055 34.1255 252.491 33.8651C251.928 33.5999 251.48 33.2188 251.149 32.7216C250.817 32.2197 250.652 31.6136 250.652 30.9034C250.652 30.2784 250.775 29.7718 251.021 29.3835C251.267 28.9905 251.596 28.6828 252.008 28.4602C252.42 28.2377 252.875 28.072 253.372 27.9631C253.874 27.8494 254.378 27.7595 254.885 27.6932C255.547 27.608 256.085 27.544 256.497 27.5014C256.913 27.4541 257.217 27.3759 257.406 27.267C257.6 27.1581 257.697 26.9687 257.697 26.6989V26.642C257.697 25.9413 257.505 25.3968 257.122 25.0085C256.743 24.6203 256.168 24.4261 255.396 24.4261C254.596 24.4261 253.968 24.6013 253.514 24.9517C253.059 25.3021 252.74 25.6761 252.555 26.0739L250.964 25.5057C251.248 24.8428 251.627 24.3267 252.1 23.9574C252.579 23.5833 253.1 23.3229 253.663 23.1761C254.231 23.0246 254.79 22.9489 255.339 22.9489C255.69 22.9489 256.092 22.9915 256.547 23.0767C257.006 23.1572 257.449 23.3253 257.875 23.581C258.306 23.8366 258.663 24.2225 258.947 24.7386C259.231 25.2547 259.373 25.946 259.373 26.8125V34H257.697V32.5227H257.612C257.498 32.7595 257.309 33.0128 257.044 33.2827C256.779 33.5526 256.426 33.7822 255.985 33.9716C255.545 34.161 255.008 34.2557 254.373 34.2557ZM254.629 32.75C255.292 32.75 255.85 32.6198 256.305 32.3594C256.764 32.099 257.11 31.7628 257.342 31.3509C257.579 30.9389 257.697 30.5057 257.697 30.0511V28.517C257.626 28.6023 257.47 28.6804 257.228 28.7514C256.992 28.8177 256.717 28.8769 256.404 28.929C256.097 28.9763 255.796 29.0189 255.502 29.0568C255.214 29.09 254.979 29.1184 254.799 29.142C254.364 29.1989 253.957 29.2912 253.578 29.419C253.204 29.5421 252.901 29.7292 252.669 29.9801C252.441 30.2263 252.328 30.5625 252.328 30.9886C252.328 31.571 252.543 32.0114 252.974 32.3097C253.41 32.6032 253.961 32.75 254.629 32.75ZM267.177 23.0909V24.5114H261.523V23.0909H267.177ZM263.171 20.4773H264.847V30.875C264.847 31.3485 264.916 31.7036 265.053 31.9403C265.195 32.1723 265.375 32.3286 265.593 32.4091C265.816 32.4848 266.05 32.5227 266.296 32.5227C266.481 32.5227 266.632 32.5133 266.751 32.4943C266.869 32.4706 266.964 32.4517 267.035 32.4375L267.376 33.9432C267.262 33.9858 267.103 34.0284 266.9 34.071C266.696 34.1184 266.438 34.142 266.126 34.142C265.652 34.142 265.188 34.0402 264.734 33.8366C264.284 33.633 263.91 33.3229 263.612 32.9062C263.318 32.4896 263.171 31.964 263.171 31.3295V20.4773ZM269.698 34V23.0909H271.374V34H269.698ZM270.55 21.2727C270.224 21.2727 269.942 21.1615 269.705 20.9389C269.473 20.7164 269.357 20.4489 269.357 20.1364C269.357 19.8239 269.473 19.5563 269.705 19.3338C269.942 19.1113 270.224 19 270.55 19C270.877 19 271.156 19.1113 271.388 19.3338C271.625 19.5563 271.744 19.8239 271.744 20.1364C271.744 20.4489 271.625 20.7164 271.388 20.9389C271.156 21.1615 270.877 21.2727 270.55 21.2727ZM279.018 34.2273C277.967 34.2273 277.06 33.9953 276.298 33.5312C275.54 33.0625 274.956 32.4091 274.544 31.571C274.136 30.7282 273.933 29.7481 273.933 28.6307C273.933 27.5133 274.136 26.5284 274.544 25.6761C274.956 24.8191 275.529 24.1515 276.262 23.6733C277.001 23.1903 277.863 22.9489 278.848 22.9489C279.416 22.9489 279.977 23.0436 280.531 23.233C281.085 23.4223 281.589 23.7301 282.044 24.1562C282.498 24.5777 282.86 25.1364 283.13 25.8324C283.4 26.5284 283.535 27.3854 283.535 28.4034V29.1136H275.126V27.6648H281.831C281.831 27.0492 281.708 26.5 281.461 26.017C281.22 25.5341 280.874 25.1529 280.424 24.8736C279.979 24.5942 279.454 24.4545 278.848 24.4545C278.18 24.4545 277.602 24.6203 277.115 24.9517C276.632 25.2784 276.26 25.7045 276 26.2301C275.739 26.7557 275.609 27.3191 275.609 27.9205V28.8864C275.609 29.7102 275.751 30.4086 276.035 30.9815C276.324 31.5497 276.724 31.983 277.235 32.2812C277.747 32.5748 278.341 32.7216 279.018 32.7216C279.458 32.7216 279.856 32.66 280.211 32.5369C280.571 32.4091 280.881 32.2197 281.142 31.9688C281.402 31.7131 281.603 31.3958 281.745 31.017L283.365 31.4716C283.194 32.0208 282.908 32.5038 282.505 32.9205C282.103 33.3324 281.606 33.6544 281.014 33.8864C280.422 34.1136 279.757 34.2273 279.018 34.2273ZM278.052 21.6136L275.836 18.3182H277.797L279.529 21.6136H278.052ZM286.085 34V23.0909H287.704V24.7386H287.818C288.017 24.1989 288.377 23.7609 288.897 23.4247C289.418 23.0885 290.005 22.9205 290.659 22.9205C290.782 22.9205 290.936 22.9228 291.12 22.9276C291.305 22.9323 291.445 22.9394 291.539 22.9489V24.6534C291.483 24.6392 291.352 24.6179 291.149 24.5895C290.95 24.5563 290.739 24.5398 290.517 24.5398C289.986 24.5398 289.513 24.651 289.096 24.8736C288.684 25.0914 288.358 25.3944 288.116 25.7827C287.879 26.1662 287.761 26.6042 287.761 27.0966V34H286.085ZM297.768 34.2273C296.717 34.2273 295.81 33.9953 295.048 33.5312C294.29 33.0625 293.706 32.4091 293.294 31.571C292.886 30.7282 292.683 29.7481 292.683 28.6307C292.683 27.5133 292.886 26.5284 293.294 25.6761C293.706 24.8191 294.279 24.1515 295.012 23.6733C295.751 23.1903 296.613 22.9489 297.598 22.9489C298.166 22.9489 298.727 23.0436 299.281 23.233C299.835 23.4223 300.339 23.7301 300.794 24.1562C301.248 24.5777 301.61 25.1364 301.88 25.8324C302.15 26.5284 302.285 27.3854 302.285 28.4034V29.1136H293.876V27.6648H300.581C300.581 27.0492 300.458 26.5 300.211 26.017C299.97 25.5341 299.624 25.1529 299.174 24.8736C298.729 24.5942 298.204 24.4545 297.598 24.4545C296.93 24.4545 296.352 24.6203 295.865 24.9517C295.382 25.2784 295.01 25.7045 294.75 26.2301C294.489 26.7557 294.359 27.3191 294.359 27.9205V28.8864C294.359 29.7102 294.501 30.4086 294.785 30.9815C295.074 31.5497 295.474 31.983 295.985 32.2812C296.497 32.5748 297.091 32.7216 297.768 32.7216C298.208 32.7216 298.606 32.66 298.961 32.5369C299.321 32.4091 299.631 32.2197 299.892 31.9688C300.152 31.7131 300.353 31.3958 300.495 31.017L302.115 31.4716C301.944 32.0208 301.658 32.5038 301.255 32.9205C300.853 33.3324 300.356 33.6544 299.764 33.8864C299.172 34.1136 298.507 34.2273 297.768 34.2273ZM312.562 25.5341L311.056 25.9602C310.962 25.7093 310.822 25.4654 310.637 25.2287C310.458 24.9872 310.211 24.7884 309.899 24.6321C309.586 24.4759 309.186 24.3977 308.699 24.3977C308.031 24.3977 307.475 24.5516 307.029 24.8594C306.589 25.1624 306.369 25.5483 306.369 26.017C306.369 26.4337 306.52 26.7628 306.824 27.0043C307.127 27.2457 307.6 27.447 308.244 27.608L309.863 28.0057C310.839 28.2424 311.565 28.6046 312.044 29.0923C312.522 29.5753 312.761 30.1979 312.761 30.9602C312.761 31.5852 312.581 32.1439 312.221 32.6364C311.866 33.1288 311.369 33.517 310.73 33.8011C310.091 34.0852 309.347 34.2273 308.5 34.2273C307.387 34.2273 306.466 33.9858 305.737 33.5028C305.008 33.0199 304.546 32.3144 304.352 31.3864L305.943 30.9886C306.094 31.5758 306.381 32.0161 306.802 32.3097C307.228 32.6032 307.785 32.75 308.471 32.75C309.252 32.75 309.873 32.5843 310.332 32.2528C310.796 31.9167 311.028 31.5142 311.028 31.0455C311.028 30.6667 310.895 30.3494 310.63 30.0938C310.365 29.8333 309.958 29.6392 309.409 29.5114L307.591 29.0852C306.592 28.8485 305.858 28.4815 305.389 27.9844C304.925 27.4825 304.693 26.8551 304.693 26.1023C304.693 25.4867 304.866 24.9422 305.211 24.4688C305.562 23.9953 306.038 23.6236 306.639 23.3537C307.245 23.0838 307.931 22.9489 308.699 22.9489C309.778 22.9489 310.626 23.1856 311.241 23.6591C311.861 24.1326 312.302 24.7576 312.562 25.5341Z" fill="white"/>
</svg>
