<svg width="24" height="25" viewBox="0 0 24 25" fill="none" xmlns="http://www.w3.org/2000/svg">
<path d="M0 12.2105C0 18.9542 5.17671 24.421 11.5625 24.421C17.9483 24.421 23.125 18.9542 23.125 12.2105C23.125 5.46682 17.9483 0 11.5625 0C5.17671 0 0 5.46682 0 12.2105Z" fill="#0061B1"/>
<path d="M11.562 7.02095C13.1519 7.02095 13.3687 7.02095 14.019 7.02095C14.5972 7.02095 14.8862 7.17359 15.103 7.2499C15.3921 7.40253 15.6089 7.47885 15.8257 7.70779C16.0425 7.93674 16.187 8.16569 16.2593 8.47095C16.3315 8.6999 16.4038 9.00516 16.4761 9.61568C16.4761 10.3025 16.4761 10.4552 16.4761 12.2104C16.4761 13.9657 16.4761 14.1183 16.4761 14.8051C16.4761 15.4157 16.3315 15.7209 16.2593 15.9499C16.1147 16.2551 16.0425 16.4841 15.8257 16.713C15.6089 16.942 15.3921 17.0946 15.103 17.1709C14.8862 17.2472 14.5972 17.3236 14.019 17.3999C13.3687 17.3999 13.2241 17.3999 11.562 17.3999C9.8999 17.3999 9.75537 17.3999 9.10498 17.3999C8.52686 17.3999 8.23779 17.2472 8.021 17.1709C7.73193 17.0183 7.51514 16.942 7.29834 16.713C7.08154 16.4841 6.93701 16.2551 6.86475 15.9499C6.79248 15.7209 6.72021 15.4157 6.64795 14.8051C6.64795 14.1183 6.64795 13.9657 6.64795 12.2104C6.64795 10.4552 6.64795 10.3025 6.64795 9.61568C6.64795 9.00516 6.79248 8.6999 6.86475 8.47095C7.00928 8.16569 7.08154 7.93674 7.29834 7.70779C7.51514 7.47885 7.73193 7.32622 8.021 7.2499C8.23779 7.17359 8.52686 7.09727 9.10498 7.02095C9.75537 7.02095 9.97217 7.02095 11.562 7.02095ZM11.562 5.87622C9.8999 5.87622 9.75537 5.87622 9.10498 5.87622C8.45459 5.87622 8.021 6.02885 7.65967 6.18148C7.29834 6.33411 6.93701 6.56306 6.57568 6.94464C6.21436 7.32622 6.06982 7.63148 5.85303 8.08937C5.7085 8.47095 5.63623 8.92884 5.56396 9.61568C5.56396 10.3025 5.56396 10.5315 5.56396 12.2104C5.56396 13.9657 5.56396 14.1183 5.56396 14.8051C5.56396 15.492 5.7085 15.9499 5.85303 16.3315C5.99756 16.713 6.21436 17.0946 6.57568 17.4762C6.93701 17.8578 7.22607 18.0104 7.65967 18.2393C8.021 18.392 8.45459 18.4683 9.10498 18.5446C9.75537 18.5446 9.97217 18.5446 11.562 18.5446C13.1519 18.5446 13.3687 18.5446 14.019 18.5446C14.6694 18.5446 15.103 18.392 15.4644 18.2393C15.8257 18.0867 16.187 17.8578 16.5483 17.4762C16.9097 17.0946 17.0542 16.7893 17.271 16.3315C17.4155 15.9499 17.4878 15.492 17.5601 14.8051C17.5601 14.1183 17.5601 13.8894 17.5601 12.2104C17.5601 10.5315 17.5601 10.3025 17.5601 9.61568C17.5601 8.92884 17.4155 8.47095 17.271 8.08937C17.1265 7.70779 16.9097 7.32622 16.5483 6.94464C16.187 6.56306 15.8979 6.41043 15.4644 6.18148C15.103 6.02885 14.6694 5.95254 14.019 5.87622C13.3687 5.87622 13.2241 5.87622 11.562 5.87622Z" fill="white"/>
<path d="M11.562 8.92884C9.82764 8.92884 8.45459 10.3788 8.45459 12.2104C8.45459 14.042 9.82764 15.492 11.562 15.492C13.2964 15.492 14.6694 14.042 14.6694 12.2104C14.6694 10.3788 13.2964 8.92884 11.562 8.92884ZM11.562 14.3472C10.478 14.3472 9.53857 13.4315 9.53857 12.2104C9.53857 11.0657 10.4058 10.0736 11.562 10.0736C12.646 10.0736 13.5854 10.9894 13.5854 12.2104C13.5854 13.3551 12.646 14.3472 11.562 14.3472Z" fill="white"/>
<path d="M14.7417 9.61568C15.1408 9.61568 15.4644 9.27401 15.4644 8.85253C15.4644 8.43105 15.1408 8.08937 14.7417 8.08937C14.3426 8.08937 14.019 8.43105 14.019 8.85253C14.019 9.27401 14.3426 9.61568 14.7417 9.61568Z" fill="white"/>
</svg>
