<svg width="24" height="24" viewBox="0 0 24 24" fill="none" xmlns="http://www.w3.org/2000/svg">
<g clip-path="url(#clip0_1964_1174)">
<path d="M0 12.2105C0 18.9542 5.17671 24.421 11.5625 24.421C17.9483 24.421 23.125 18.9542 23.125 12.2105C23.125 5.46682 17.9483 0 11.5625 0C5.17671 0 0 5.46682 0 12.2105Z" fill="#0061B1"/>
<path d="M11.8286 10.1486C12.4574 9.50606 13.2761 9.08571 14.2286 9.08571C15.2288 9.08571 16.1881 9.48306 16.8954 10.1903C17.6027 10.8976 18 11.8569 18 12.8571V18H16.6286V12.8571C16.6286 12.2206 16.3757 11.6102 15.9256 11.1601C15.4755 10.71 14.8651 10.4571 14.2286 10.4571C13.5921 10.4571 12.9816 10.71 12.5315 11.1601C12.0814 11.6102 11.8286 12.2206 11.8286 12.8571V18H10.4571V9.42857H11.8286V10.1486ZM7.02857 8.05714C6.75578 8.05714 6.49416 7.94878 6.30126 7.75588C6.10837 7.56299 6 7.30137 6 7.02857C6 6.75578 6.10837 6.49416 6.30126 6.30126C6.49416 6.10837 6.75578 6 7.02857 6C7.30137 6 7.56299 6.10837 7.75588 6.30126C7.94878 6.49416 8.05714 6.75578 8.05714 7.02857C8.05714 7.30137 7.94878 7.56299 7.75588 7.75588C7.56299 7.94878 7.30137 8.05714 7.02857 8.05714ZM6.34286 9.42857H7.71429V18H6.34286V9.42857Z" fill="white"/>
</g>
<defs>
<clipPath id="clip0_1964_1174">
<rect width="24" height="24" fill="white"/>
</clipPath>
</defs>
</svg>
