<svg width="93" height="27" viewBox="0 0 93 27" fill="none" xmlns="http://www.w3.org/2000/svg">
<path d="M45.7682 17.7996C45.2477 17.7996 44.7809 17.7129 44.3678 17.5394C43.9547 17.3576 43.6284 17.1097 43.3888 16.7958C43.1492 16.4736 43.017 16.1059 42.9922 15.6928H44.1571C44.1902 16.0315 44.3472 16.3083 44.6281 16.5231C44.9172 16.7379 45.2932 16.8453 45.7558 16.8453C46.1855 16.8453 46.5242 16.7503 46.7721 16.5603C47.0199 16.3703 47.1439 16.1307 47.1439 15.8415C47.1439 15.5441 47.0117 15.3251 46.7473 15.1847C46.4829 15.036 46.0739 14.8914 45.5204 14.7509C45.0164 14.6187 44.6033 14.4865 44.2811 14.3543C43.9671 14.2139 43.6945 14.0115 43.4631 13.7471C43.24 13.4744 43.1285 13.1192 43.1285 12.6813C43.1285 12.3343 43.2318 12.0162 43.4383 11.727C43.6449 11.4379 43.9382 11.2107 44.3182 11.0454C44.6983 10.8719 45.1321 10.7852 45.6195 10.7852C46.3714 10.7852 46.9786 10.9752 47.4413 11.3552C47.904 11.7353 48.1518 12.2558 48.1849 12.9168H47.0571C47.0323 12.5615 46.8877 12.2765 46.6233 12.0616C46.3672 11.8468 46.0202 11.7394 45.5823 11.7394C45.1775 11.7394 44.8553 11.8262 44.6157 11.9997C44.3761 12.1732 44.2563 12.4004 44.2563 12.6813C44.2563 12.9044 44.3265 13.0903 44.467 13.239C44.6157 13.3794 44.7974 13.4951 45.0123 13.586C45.2353 13.6686 45.541 13.7636 45.9293 13.871C46.4168 14.0032 46.8134 14.1354 47.1191 14.2676C47.4248 14.3915 47.685 14.5816 47.8998 14.8377C48.1229 15.0938 48.2386 15.4284 48.2468 15.8415C48.2468 16.2133 48.1436 16.5479 47.937 16.8453C47.7305 17.1428 47.4372 17.3782 47.0571 17.5517C46.6853 17.717 46.2557 17.7996 45.7682 17.7996Z" fill="#0061B1"/>
<path d="M41.459 10.8965V17.6879H40.3312V16.684C40.1164 17.031 39.8149 17.3037 39.4265 17.502C39.0465 17.692 38.6251 17.787 38.1625 17.787C37.6337 17.787 37.1586 17.6796 36.7373 17.4648C36.3159 17.2417 35.9813 16.9112 35.7334 16.4733C35.4938 16.0355 35.374 15.5026 35.374 14.8746V10.8965H36.4894V14.7259C36.4894 15.3952 36.6588 15.9115 36.9975 16.2751C37.3363 16.6303 37.7989 16.808 38.3855 16.808C38.9887 16.808 39.4637 16.6221 39.8107 16.2503C40.1577 15.8785 40.3312 15.3373 40.3312 14.6268V10.8965H41.459Z" fill="#0061B1"/>
<path d="M33.5145 8.51709V17.6879H32.3867V8.51709H33.5145Z" fill="#0061B1"/>
<path d="M25.1395 12.1484C25.3626 11.7601 25.693 11.4379 26.1309 11.1817C26.5771 10.9173 27.0935 10.7852 27.6801 10.7852C28.2832 10.7852 28.8285 10.9297 29.3159 11.2189C29.8117 11.5081 30.2 11.9171 30.4809 12.4458C30.7618 12.9663 30.9022 13.5736 30.9022 14.2676C30.9022 14.9533 30.7618 15.5647 30.4809 16.1018C30.2 16.6388 29.8117 17.056 29.3159 17.3535C28.8285 17.6509 28.2832 17.7996 27.6801 17.7996C27.1017 17.7996 26.5895 17.6715 26.1433 17.4154C25.7054 17.151 25.3708 16.8247 25.1395 16.4364V20.9103H24.0117V10.8967H25.1395V12.1484ZM29.7497 14.2676C29.7497 13.7554 29.6464 13.3092 29.4399 12.9292C29.2333 12.5491 28.9524 12.2599 28.5971 12.0616C28.2501 11.8634 27.866 11.7642 27.4446 11.7642C27.0315 11.7642 26.6473 11.8675 26.292 12.074C25.945 12.2723 25.6641 12.5656 25.4493 12.9539C25.2428 13.334 25.1395 13.776 25.1395 14.28C25.1395 14.7922 25.2428 15.2425 25.4493 15.6308C25.6641 16.0109 25.945 16.3042 26.292 16.5107C26.6473 16.709 27.0315 16.8082 27.4446 16.8082C27.866 16.8082 28.2501 16.709 28.5971 16.5107C28.9524 16.3042 29.2333 16.0109 29.4399 15.6308C29.6464 15.2425 29.7497 14.7881 29.7497 14.2676Z" fill="#0061B1"/>
<path d="M19.2185 14.0321C19.2185 14.2469 19.2061 14.4741 19.1813 14.7137H13.7531C13.7944 15.383 14.0217 15.9076 14.4348 16.2877C14.8561 16.6595 15.3642 16.8453 15.9591 16.8453C16.4466 16.8453 16.8514 16.7338 17.1736 16.5107C17.5041 16.2794 17.7354 15.9737 17.8676 15.5937H19.0821C18.9004 16.2464 18.5368 16.7793 17.9916 17.1924C17.4463 17.5972 16.7688 17.7996 15.9591 17.7996C15.3147 17.7996 14.7363 17.655 14.2241 17.3659C13.7201 17.0767 13.3235 16.6677 13.0343 16.1389C12.7452 15.6019 12.6006 14.9823 12.6006 14.28C12.6006 13.5777 12.741 12.9622 13.0219 12.4334C13.3029 11.9047 13.6953 11.4998 14.1993 11.2189C14.7115 10.9297 15.2981 10.7852 15.9591 10.7852C16.6035 10.7852 17.1736 10.9256 17.6693 11.2065C18.1651 11.4874 18.5451 11.8757 18.8095 12.3715C19.0821 12.8589 19.2185 13.4125 19.2185 14.0321ZM18.0535 13.7967C18.0535 13.367 17.9585 12.9994 17.7685 12.6937C17.5785 12.3797 17.3182 12.1443 16.9877 11.9873C16.6655 11.822 16.3061 11.7394 15.9095 11.7394C15.3394 11.7394 14.852 11.9212 14.4471 12.2847C14.0506 12.6482 13.8234 13.1522 13.7655 13.7967H18.0535Z" fill="#0061B1"/>
<path d="M9.52718 11.9999C9.72547 11.6115 10.0064 11.31 10.3699 11.0952C10.7417 10.8804 11.192 10.7729 11.7207 10.7729V11.9379H11.4233C10.1592 11.9379 9.52718 12.6236 9.52718 13.9951V17.6883H8.39941V10.8969H9.52718V11.9999Z" fill="#0061B1"/>
<path d="M5.93145 9.79357C5.71664 9.79357 5.53488 9.71921 5.38616 9.5705C5.23744 9.42178 5.16309 9.24002 5.16309 9.0252C5.16309 8.81039 5.23744 8.62863 5.38616 8.47991C5.53488 8.33119 5.71664 8.25684 5.93145 8.25684C6.138 8.25684 6.31151 8.33119 6.45196 8.47991C6.60068 8.62863 6.67504 8.81039 6.67504 9.0252C6.67504 9.24002 6.60068 9.42178 6.45196 9.5705C6.31151 9.71921 6.138 9.79357 5.93145 9.79357ZM6.47675 10.8966V17.6879H5.34898V10.8966H6.47675Z" fill="#0061B1"/>
<path d="M1.12777 16.7707H4.15166V17.6877H0V9.0498H1.12777V16.7707Z" fill="#0061B1"/>
<rect x="54" width="39" height="27" fill="#D9D9D9"/>
<path fill-rule="evenodd" clip-rule="evenodd" d="M78.4334 7.22686L83.3627 12.1562C83.6652 12.4586 83.6652 12.9491 83.3627 13.2516L78.4334 18.1809C78.1309 18.4833 77.6405 18.4833 77.338 18.1809C77.0355 17.8784 77.0355 17.3879 77.338 17.0855L80.945 13.4784L65 13.4784L65 11.9293L80.945 11.9293L77.338 8.32226C77.0355 8.01977 77.0355 7.52935 77.338 7.22686C77.6405 6.92438 78.1309 6.92438 78.4334 7.22686Z" fill="#0061B1"/>
</svg>
