<svg width="120" height="40" viewBox="0 0 120 40" fill="none" xmlns="http://www.w3.org/2000/svg">
<path d="M75.7681 0H119.768V40H75.7681V0Z" fill="white"/>
<path d="M59.0884 28.1439C58.4164 28.1439 57.8137 28.0319 57.2804 27.8079C56.7471 27.5732 56.3257 27.2532 56.0164 26.8479C55.7071 26.4319 55.5364 25.9572 55.5044 25.4239H57.0084C57.0511 25.8612 57.2537 26.2186 57.6164 26.4959C57.9897 26.7732 58.4751 26.9119 59.0724 26.9119C59.6271 26.9119 60.0644 26.7892 60.3844 26.5439C60.7044 26.2986 60.8644 25.9892 60.8644 25.6159C60.8644 25.2319 60.6937 24.9492 60.3524 24.7679C60.0111 24.5759 59.4831 24.3892 58.7684 24.2079C58.1177 24.0372 57.5844 23.8666 57.1684 23.6959C56.7631 23.5146 56.4111 23.2532 56.1124 22.9119C55.8244 22.5599 55.6804 22.1012 55.6804 21.5359C55.6804 21.0879 55.8137 20.6772 56.0804 20.3039C56.3471 19.9306 56.7257 19.6372 57.2164 19.4239C57.7071 19.1999 58.2671 19.0879 58.8964 19.0879C59.8671 19.0879 60.6511 19.3332 61.2484 19.8239C61.8457 20.3146 62.1657 20.9866 62.2084 21.8399H60.7524C60.7204 21.3812 60.5337 21.0132 60.1924 20.7359C59.8617 20.4586 59.4137 20.3199 58.8484 20.3199C58.3257 20.3199 57.9097 20.4319 57.6004 20.6559C57.2911 20.8799 57.1364 21.1732 57.1364 21.5359C57.1364 21.8239 57.2271 22.0639 57.4084 22.2559C57.6004 22.4372 57.8351 22.5866 58.1124 22.7039C58.4004 22.8106 58.7951 22.9332 59.2964 23.0719C59.9257 23.2426 60.4377 23.4132 60.8324 23.5839C61.2271 23.7439 61.5631 23.9892 61.8404 24.3199C62.1284 24.6506 62.2777 25.0826 62.2884 25.6159C62.2884 26.0959 62.1551 26.5279 61.8884 26.9119C61.6217 27.2959 61.2431 27.5999 60.7524 27.8239C60.2724 28.0372 59.7177 28.1439 59.0884 28.1439Z" fill="#0061B1"/>
<path d="M53.5259 19.2319V27.9999H52.0699V26.7039C51.7926 27.1519 51.4033 27.5039 50.9019 27.7599C50.4113 28.0053 49.8673 28.1279 49.2699 28.1279C48.5873 28.1279 47.9739 27.9893 47.4299 27.7119C46.8859 27.4239 46.4539 26.9973 46.1339 26.4319C45.8246 25.8666 45.6699 25.1786 45.6699 24.3679V19.2319H47.1099V24.1759C47.1099 25.0399 47.3286 25.7066 47.7659 26.1759C48.2033 26.6346 48.8006 26.8639 49.5579 26.8639C50.3366 26.8639 50.9499 26.6239 51.3979 26.1439C51.8459 25.6639 52.0699 24.9653 52.0699 24.0479V19.2319H53.5259Z" fill="#0061B1"/>
<path d="M43.2685 16.1599V27.9999H41.8125V16.1599H43.2685Z" fill="#0061B1"/>
<path d="M32.456 20.8479C32.744 20.3466 33.1707 19.9306 33.736 19.5999C34.312 19.2586 34.9787 19.0879 35.736 19.0879C36.5147 19.0879 37.2187 19.2746 37.848 19.6479C38.488 20.0212 38.9893 20.5492 39.352 21.2319C39.7147 21.9039 39.896 22.6879 39.896 23.5839C39.896 24.4692 39.7147 25.2586 39.352 25.9519C38.9893 26.6452 38.488 27.1839 37.848 27.5679C37.2187 27.9519 36.5147 28.1439 35.736 28.1439C34.9893 28.1439 34.328 27.9786 33.752 27.6479C33.1867 27.3066 32.7547 26.8852 32.456 26.3839V32.1599H31V19.2319H32.456V20.8479ZM38.408 23.5839C38.408 22.9226 38.2747 22.3466 38.008 21.8559C37.7413 21.3652 37.3787 20.9919 36.92 20.7359C36.472 20.4799 35.976 20.3519 35.432 20.3519C34.8987 20.3519 34.4027 20.4852 33.944 20.7519C33.496 21.0079 33.1333 21.3866 32.856 21.8879C32.5893 22.3786 32.456 22.9492 32.456 23.5999C32.456 24.2612 32.5893 24.8426 32.856 25.3439C33.1333 25.8346 33.496 26.2132 33.944 26.4799C34.4027 26.7359 34.8987 26.8639 35.432 26.8639C35.976 26.8639 36.472 26.7359 36.92 26.4799C37.3787 26.2132 37.7413 25.8346 38.008 25.3439C38.2747 24.8426 38.408 24.2559 38.408 23.5839Z" fill="#0061B1"/>
<path d="M24.8126 23.2799C24.8126 23.5572 24.7966 23.8506 24.7646 24.1599H17.7566C17.8099 25.0239 18.1032 25.7012 18.6366 26.1919C19.1806 26.6719 19.8366 26.9119 20.6046 26.9119C21.2339 26.9119 21.7566 26.7679 22.1726 26.4799C22.5992 26.1812 22.8979 25.7866 23.0686 25.2959H24.6366C24.4019 26.1386 23.9326 26.8266 23.2286 27.3599C22.5246 27.8826 21.6499 28.1439 20.6046 28.1439C19.7726 28.1439 19.0259 27.9572 18.3646 27.5839C17.7139 27.2106 17.2019 26.6826 16.8286 25.9999C16.4552 25.3066 16.2686 24.5066 16.2686 23.5999C16.2686 22.6932 16.4499 21.8986 16.8126 21.2159C17.1752 20.5332 17.6819 20.0106 18.3326 19.6479C18.9939 19.2746 19.7512 19.0879 20.6046 19.0879C21.4366 19.0879 22.1726 19.2692 22.8126 19.6319C23.4526 19.9946 23.9432 20.4959 24.2846 21.1359C24.6366 21.7652 24.8126 22.4799 24.8126 23.2799ZM23.3086 22.9759C23.3086 22.4212 23.1859 21.9466 22.9406 21.5519C22.6952 21.1466 22.3592 20.8426 21.9326 20.6399C21.5166 20.4266 21.0526 20.3199 20.5406 20.3199C19.8046 20.3199 19.1752 20.5546 18.6526 21.0239C18.1406 21.4932 17.8472 22.1439 17.7726 22.9759H23.3086Z" fill="#0061B1"/>
<path d="M12.2997 20.656C12.5557 20.1547 12.9184 19.7654 13.3877 19.488C13.8677 19.2107 14.4491 19.072 15.1318 19.072V20.576H14.7477C13.1157 20.576 12.2997 21.4614 12.2997 23.232V28H10.8438V19.232H12.2997V20.656Z" fill="#0061B1"/>
<path d="M7.65802 17.808C7.38068 17.808 7.14602 17.712 6.95402 17.52C6.76202 17.328 6.66602 17.0933 6.66602 16.816C6.66602 16.5386 6.76202 16.304 6.95402 16.112C7.14602 15.92 7.38068 15.824 7.65802 15.824C7.92468 15.824 8.14868 15.92 8.33002 16.112C8.52202 16.304 8.61802 16.5386 8.61802 16.816C8.61802 17.0933 8.52202 17.328 8.33002 17.52C8.14868 17.712 7.92468 17.808 7.65802 17.808ZM8.36202 19.232V28H6.90602V19.232H8.36202Z" fill="#0061B1"/>
<path d="M1.456 26.8159H5.36V27.9999H0V16.8479H1.456V26.8159Z" fill="#0061B1"/>
<path fill-rule="evenodd" clip-rule="evenodd" d="M103.111 14.9289L109.475 21.2928C109.866 21.6834 109.866 22.3165 109.475 22.707L103.111 29.071C102.721 29.4615 102.088 29.4615 101.697 29.071C101.306 28.6805 101.306 28.0473 101.697 27.6568L106.354 22.9999L85.7681 22.9999L85.7681 20.9999L106.354 20.9999L101.697 16.3431C101.306 15.9526 101.306 15.3194 101.697 14.9289C102.088 14.5384 102.721 14.5384 103.111 14.9289Z" fill="#0061B1"/>
</svg>
