<svg width="1030" height="106" viewBox="0 0 1030 106" fill="none" xmlns="http://www.w3.org/2000/svg">
<path d="M163.058 105C162.75 105 162.492 104.9 162.282 104.7C162.086 104.5 161.988 104.253 161.988 103.96C161.988 103.667 162.086 103.427 162.282 103.24C162.492 103.04 162.75 102.94 163.058 102.94C163.351 102.94 163.596 103.04 163.792 103.24C164.002 103.427 164.106 103.667 164.106 103.96C164.106 104.253 164.002 104.5 163.792 104.7C163.596 104.9 163.351 105 163.058 105Z" fill="black"/>
<path d="M160.12 98.8798C160.12 99.3598 160.106 99.7265 160.078 99.9798H150.578C150.62 100.806 150.83 101.513 151.207 102.1C151.585 102.686 152.081 103.133 152.696 103.44C153.311 103.733 153.982 103.88 154.709 103.88C155.66 103.88 156.457 103.66 157.1 103.22C157.757 102.78 158.191 102.186 158.401 101.44H159.953C159.673 102.506 159.072 103.38 158.149 104.06C157.24 104.726 156.094 105.06 154.709 105.06C153.633 105.06 152.668 104.833 151.815 104.38C150.962 103.913 150.291 103.26 149.802 102.42C149.327 101.566 149.089 100.573 149.089 99.4398C149.089 98.3065 149.327 97.3132 149.802 96.4598C150.277 95.6065 150.941 94.9532 151.794 94.4998C152.647 94.0465 153.619 93.8198 154.709 93.8198C155.8 93.8198 156.751 94.0465 157.562 94.4998C158.387 94.9532 159.016 95.5665 159.449 96.3398C159.897 97.0998 160.12 97.9465 160.12 98.8798ZM158.631 98.8398C158.645 98.0265 158.471 97.3332 158.107 96.7598C157.757 96.1865 157.275 95.7532 156.66 95.4598C156.045 95.1665 155.374 95.0198 154.647 95.0198C153.556 95.0198 152.626 95.3532 151.857 96.0198C151.088 96.6865 150.662 97.6265 150.578 98.8398H158.631Z" fill="black"/>
<path d="M146.436 90.0996V104.9H144.968V90.0996H146.436Z" fill="black"/>
<path d="M136.523 105.06C135.447 105.06 134.475 104.833 133.608 104.38C132.755 103.913 132.077 103.26 131.574 102.42C131.085 101.566 130.84 100.573 130.84 99.4398C130.84 98.3065 131.092 97.3198 131.595 96.4798C132.098 95.6265 132.783 94.9732 133.65 94.5198C134.517 94.0532 135.489 93.8198 136.565 93.8198C137.642 93.8198 138.614 94.0532 139.48 94.5198C140.361 94.9732 141.046 95.6265 141.536 96.4798C142.039 97.3198 142.291 98.3065 142.291 99.4398C142.291 100.56 142.039 101.546 141.536 102.4C141.032 103.253 140.34 103.913 139.46 104.38C138.579 104.833 137.6 105.06 136.523 105.06ZM136.523 103.84C137.278 103.84 137.977 103.68 138.621 103.36C139.264 103.026 139.781 102.533 140.173 101.88C140.578 101.213 140.781 100.4 140.781 99.4398C140.781 98.4798 140.585 97.6732 140.194 97.0198C139.802 96.3532 139.285 95.8598 138.642 95.5398C137.998 95.2065 137.299 95.0398 136.544 95.0398C135.789 95.0398 135.09 95.2065 134.447 95.5398C133.804 95.8598 133.287 96.3532 132.895 97.0198C132.518 97.6732 132.329 98.4798 132.329 99.4398C132.329 100.4 132.518 101.213 132.895 101.88C133.287 102.533 133.797 103.026 134.426 103.36C135.069 103.68 135.768 103.84 136.523 103.84Z" fill="black"/>
<path d="M117.979 99.4398C117.979 98.3065 118.216 97.3198 118.692 96.4798C119.167 95.6265 119.824 94.9732 120.663 94.5198C121.502 94.0532 122.46 93.8198 123.536 93.8198C124.948 93.8198 126.109 94.1532 127.018 94.8198C127.94 95.4865 128.535 96.3932 128.8 97.5398H127.227C127.032 96.7532 126.605 96.1398 125.948 95.6998C125.305 95.2465 124.501 95.0198 123.536 95.0198C122.767 95.0198 122.075 95.1865 121.46 95.5198C120.845 95.8532 120.355 96.3532 119.992 97.0198C119.642 97.6732 119.468 98.4798 119.468 99.4398C119.468 100.4 119.642 101.213 119.992 101.88C120.355 102.546 120.845 103.046 121.46 103.38C122.075 103.713 122.767 103.88 123.536 103.88C124.501 103.88 125.305 103.66 125.948 103.22C126.605 102.766 127.032 102.14 127.227 101.34H128.8C128.535 102.46 127.94 103.36 127.018 104.04C126.095 104.72 124.934 105.06 123.536 105.06C122.46 105.06 121.502 104.833 120.663 104.38C119.824 103.913 119.167 103.26 118.692 102.42C118.216 101.566 117.979 100.573 117.979 99.4398Z" fill="black"/>
<path d="M115.963 98.88C115.963 99.36 115.949 99.7267 115.921 99.98H106.421C106.463 100.807 106.672 101.513 107.05 102.1C107.427 102.687 107.924 103.133 108.539 103.44C109.154 103.733 109.825 103.88 110.552 103.88C111.503 103.88 112.3 103.66 112.943 103.22C113.6 102.78 114.034 102.187 114.243 101.44H115.795C115.516 102.507 114.915 103.38 113.992 104.06C113.083 104.727 111.936 105.06 110.552 105.06C109.476 105.06 108.511 104.833 107.658 104.38C106.805 103.913 106.134 103.26 105.645 102.42C105.169 101.567 104.932 100.573 104.932 99.44C104.932 98.3067 105.169 97.3133 105.645 96.46C106.12 95.6067 106.784 94.9533 107.637 94.5C108.49 94.0467 109.462 93.82 110.552 93.82C111.643 93.82 112.594 94.0467 113.405 94.5C114.229 94.9533 114.859 95.5667 115.292 96.34C115.739 97.1 115.963 97.9467 115.963 98.88ZM114.474 98.84C114.488 98.0267 114.313 97.3333 113.95 96.76C113.6 96.1867 113.118 95.7533 112.503 95.46C111.888 95.1667 111.216 95.02 110.489 95.02C109.399 95.02 108.469 95.3533 107.7 96.02C106.931 96.6867 106.505 97.6267 106.421 98.84H114.474ZM112.377 90.76L108.078 93.14V92.06L112.377 89.5V90.76Z" fill="black"/>
<path d="M97.1614 98.8798C97.1614 99.3598 97.1474 99.7265 97.1195 99.9798H87.6189C87.6609 100.806 87.8706 101.513 88.2481 102.1C88.6256 102.686 89.122 103.133 89.7371 103.44C90.3523 103.733 91.0235 103.88 91.7505 103.88C92.7013 103.88 93.4982 103.66 94.1414 103.22C94.7985 102.78 95.2319 102.186 95.4417 101.44H96.9936C96.714 102.506 96.1128 103.38 95.19 104.06C94.2812 104.726 93.1347 105.06 91.7505 105.06C90.6739 105.06 89.7092 104.833 88.8563 104.38C88.0034 103.913 87.3323 103.26 86.8429 102.42C86.3676 101.566 86.1299 100.573 86.1299 99.4398C86.1299 98.3065 86.3676 97.3132 86.8429 96.4598C87.3183 95.6065 87.9825 94.9532 88.8353 94.4998C89.6882 94.0465 90.6599 93.8198 91.7505 93.8198C92.8411 93.8198 93.7918 94.0465 94.6028 94.4998C95.4277 94.9532 96.0569 95.5665 96.4903 96.3398C96.9377 97.0998 97.1614 97.9465 97.1614 98.8798ZM95.6724 98.8398C95.6863 98.0265 95.5116 97.3332 95.148 96.7598C94.7985 96.1865 94.3161 95.7532 93.7009 95.4598C93.0858 95.1665 92.4146 95.0198 91.6876 95.0198C90.597 95.0198 89.6672 95.3532 88.8982 96.0198C88.1293 96.6865 87.7028 97.6265 87.6189 98.8398H95.6724Z" fill="black"/>
<path d="M80.6712 95.9198C80.9928 95.2398 81.4821 94.7131 82.1393 94.3398C82.8104 93.9665 83.6283 93.7798 84.5931 93.7798V95.2398H84.1946C83.132 95.2398 82.2791 95.5131 81.6359 96.0598C80.9928 96.6065 80.6712 97.5198 80.6712 98.7998V104.9H79.2031V93.9798H80.6712V95.9198Z" fill="black"/>
<path d="M73.6357 95.1602V101.94C73.6357 102.607 73.7685 103.067 74.0342 103.32C74.2998 103.574 74.7682 103.7 75.4393 103.7H76.7816V104.9H75.2086C74.174 104.9 73.405 104.674 72.9016 104.22C72.3983 103.754 72.1466 102.994 72.1466 101.94V95.1602H70.5527V93.9802H72.1466V91.2402H73.6357V93.9802H76.7816V95.1602H73.6357Z" fill="black"/>
<path d="M63.2841 105.06C62.2075 105.06 61.2358 104.833 60.369 104.38C59.5161 103.913 58.838 103.26 58.3346 102.42C57.8453 101.566 57.6006 100.573 57.6006 99.4398C57.6006 98.3065 57.8523 97.3198 58.3556 96.4798C58.8589 95.6265 59.544 94.9732 60.4109 94.5198C61.2778 94.0532 62.2495 93.8198 63.3261 93.8198C64.4027 93.8198 65.3744 94.0532 66.2412 94.5198C67.1221 94.9732 67.8072 95.6265 68.2965 96.4798C68.7999 97.3198 69.0516 98.3065 69.0516 99.4398C69.0516 100.56 68.7999 101.546 68.2965 102.4C67.7932 103.253 67.1011 103.913 66.2203 104.38C65.3394 104.833 64.3607 105.06 63.2841 105.06ZM63.2841 103.84C64.0391 103.84 64.7382 103.68 65.3814 103.36C66.0245 103.026 66.5418 102.533 66.9333 101.88C67.3388 101.213 67.5415 100.4 67.5415 99.4398C67.5415 98.4798 67.3458 97.6732 66.9543 97.0198C66.5628 96.3532 66.0455 95.8598 65.4023 95.5398C64.7592 95.2065 64.0601 95.0398 63.3051 95.0398C62.5501 95.0398 61.851 95.2065 61.2078 95.5398C60.5647 95.8598 60.0474 96.3532 59.6559 97.0198C59.2784 97.6732 59.0896 98.4798 59.0896 99.4398C59.0896 100.4 59.2784 101.213 59.6559 101.88C60.0474 102.533 60.5577 103.026 61.1869 103.36C61.83 103.68 62.5291 103.84 63.2841 103.84Z" fill="black"/>
<path d="M50.3689 93.7798C51.7392 93.7798 52.8577 94.1865 53.7245 94.9998C54.5914 95.7998 55.0248 96.9665 55.0248 98.4998V104.9H53.5777V98.6598C53.5777 97.4731 53.2632 96.5665 52.634 95.9398C52.0188 95.3131 51.1729 94.9998 50.0963 94.9998C48.9918 94.9998 48.1109 95.3331 47.4538 95.9998C46.7966 96.6665 46.4681 97.6465 46.4681 98.9398V104.9H45V93.9798H46.4681V95.8398C46.8316 95.1731 47.3559 94.6665 48.041 94.3198C48.7261 93.9598 49.5021 93.7798 50.3689 93.7798Z" fill="black"/>
<path d="M965 68.8798C965 69.3598 964.986 69.7265 964.958 69.9798H955.458C955.5 70.8065 955.709 71.5132 956.087 72.0998C956.464 72.6865 956.961 73.1332 957.576 73.4398C958.191 73.7332 958.862 73.8798 959.589 73.8798C960.54 73.8798 961.337 73.6598 961.98 73.2198C962.637 72.7798 963.071 72.1865 963.281 71.4398H964.832C964.553 72.5065 963.952 73.3798 963.029 74.0598C962.12 74.7265 960.974 75.0598 959.589 75.0598C958.513 75.0598 957.548 74.8332 956.695 74.3798C955.842 73.9132 955.171 73.2598 954.682 72.4198C954.206 71.5665 953.969 70.5732 953.969 69.4398C953.969 68.3065 954.206 67.3132 954.682 66.4598C955.157 65.6065 955.821 64.9532 956.674 64.4998C957.527 64.0465 958.499 63.8198 959.589 63.8198C960.68 63.8198 961.631 64.0465 962.442 64.4998C963.266 64.9532 963.896 65.5665 964.329 66.3398C964.777 67.0998 965 67.9465 965 68.8798ZM963.511 68.8398C963.525 68.0265 963.35 67.3332 962.987 66.7598C962.637 66.1865 962.155 65.7532 961.54 65.4598C960.925 65.1665 960.253 65.0198 959.526 65.0198C958.436 65.0198 957.506 65.3532 956.737 66.0198C955.968 66.6865 955.542 67.6265 955.458 68.8398H963.511Z" fill="black"/>
<path d="M939.816 69.4196C939.816 68.2996 940.054 67.3196 940.529 66.4796C941.005 65.6263 941.655 64.9729 942.48 64.5196C943.319 64.0529 944.263 63.8196 945.311 63.8196C946.318 63.8196 947.227 64.0529 948.038 64.5196C948.849 64.9863 949.443 65.5929 949.82 66.3396V60.0996H951.288V74.8996H949.82V72.4596C949.471 73.2196 948.897 73.8463 948.1 74.3396C947.304 74.8196 946.367 75.0596 945.29 75.0596C944.242 75.0596 943.298 74.8263 942.459 74.3596C941.634 73.8929 940.984 73.2329 940.508 72.3796C940.047 71.5263 939.816 70.5396 939.816 69.4196ZM949.82 69.4396C949.82 68.5596 949.632 67.7863 949.254 67.1196C948.877 66.4529 948.359 65.9396 947.702 65.5796C947.059 65.2196 946.346 65.0396 945.563 65.0396C944.752 65.0396 944.025 65.2129 943.382 65.5596C942.739 65.9063 942.228 66.4129 941.851 67.0796C941.487 67.7329 941.305 68.5129 941.305 69.4196C941.305 70.3129 941.487 71.0996 941.851 71.7796C942.228 72.4463 942.739 72.9596 943.382 73.3196C944.025 73.6663 944.752 73.8396 945.563 73.8396C946.346 73.8396 947.059 73.6596 947.702 73.2996C948.359 72.9396 948.877 72.4263 949.254 71.7596C949.632 71.0929 949.82 70.3196 949.82 69.4396Z" fill="black"/>
<path d="M932.046 68.8798C932.046 69.3598 932.032 69.7265 932.004 69.9798H922.504C922.546 70.8065 922.755 71.5132 923.133 72.0998C923.51 72.6865 924.007 73.1332 924.622 73.4398C925.237 73.7332 925.908 73.8798 926.635 73.8798C927.586 73.8798 928.383 73.6598 929.026 73.2198C929.683 72.7798 930.117 72.1865 930.326 71.4398H931.878C931.599 72.5065 930.997 73.3798 930.075 74.0598C929.166 74.7265 928.019 75.0598 926.635 75.0598C925.559 75.0598 924.594 74.8332 923.741 74.3798C922.888 73.9132 922.217 73.2598 921.728 72.4198C921.252 71.5665 921.015 70.5732 921.015 69.4398C921.015 68.3065 921.252 67.3132 921.728 66.4598C922.203 65.6065 922.867 64.9532 923.72 64.4998C924.573 64.0465 925.545 63.8198 926.635 63.8198C927.726 63.8198 928.677 64.0465 929.487 64.4998C930.312 64.9532 930.942 65.5665 931.375 66.3398C931.822 67.0998 932.046 67.9465 932.046 68.8798ZM930.557 68.8398C930.571 68.0265 930.396 67.3332 930.033 66.7598C929.683 66.1865 929.201 65.7532 928.586 65.4598C927.97 65.1665 927.299 65.0198 926.572 65.0198C925.482 65.0198 924.552 65.3532 923.783 66.0198C923.014 66.6865 922.588 67.6265 922.504 68.8398H930.557Z" fill="black"/>
<path d="M918.362 60.0996V74.8996H916.894V60.0996H918.362Z" fill="black"/>
<path d="M902.069 69.4198C902.069 68.2998 902.3 67.3198 902.761 66.4798C903.237 65.6265 903.887 64.9732 904.712 64.5198C905.551 64.0532 906.494 63.8198 907.543 63.8198C908.634 63.8198 909.57 64.0598 910.353 64.5398C911.15 65.0198 911.724 65.6332 912.073 66.3798V63.9798H913.541V74.8998H912.073V72.4798C911.71 73.2265 911.129 73.8465 910.332 74.3398C909.55 74.8198 908.613 75.0598 907.522 75.0598C906.487 75.0598 905.551 74.8265 904.712 74.3598C903.887 73.8932 903.237 73.2332 902.761 72.3798C902.3 71.5265 902.069 70.5398 902.069 69.4198ZM912.073 69.4398C912.073 68.5598 911.884 67.7865 911.507 67.1198C911.129 66.4532 910.612 65.9398 909.955 65.5798C909.312 65.2198 908.599 65.0398 907.816 65.0398C907.005 65.0398 906.278 65.2132 905.635 65.5598C904.991 65.9065 904.481 66.4132 904.104 67.0798C903.74 67.7332 903.558 68.5132 903.558 69.4198C903.558 70.3132 903.74 71.0998 904.104 71.7798C904.481 72.4465 904.991 72.9598 905.635 73.3198C906.278 73.6665 907.005 73.8398 907.816 73.8398C908.599 73.8398 909.312 73.6598 909.955 73.2998C910.612 72.9398 911.129 72.4265 911.507 71.7598C911.884 71.0932 912.073 70.3198 912.073 69.4398Z" fill="black"/>
<path d="M898.683 61.9199C898.389 61.9199 898.138 61.8199 897.928 61.6199C897.718 61.4199 897.613 61.1732 897.613 60.8799C897.613 60.5865 897.718 60.3465 897.928 60.1599C898.138 59.9599 898.389 59.8599 898.683 59.8599C898.976 59.8599 899.228 59.9599 899.438 60.1599C899.648 60.3465 899.752 60.5865 899.752 60.8799C899.752 61.1732 899.648 61.4199 899.438 61.6199C899.228 61.8199 898.976 61.9199 898.683 61.9199ZM899.417 63.9799V74.8999H897.949V63.9799H899.417Z" fill="black"/>
<path d="M883.125 69.4196C883.125 68.2996 883.363 67.3196 883.838 66.4796C884.313 65.6263 884.964 64.9729 885.788 64.5196C886.627 64.0529 887.571 63.8196 888.62 63.8196C889.626 63.8196 890.535 64.0529 891.346 64.5196C892.157 64.9863 892.751 65.5929 893.129 66.3396V60.0996H894.597V74.8996H893.129V72.4596C892.779 73.2196 892.206 73.8463 891.409 74.3396C890.612 74.8196 889.675 75.0596 888.599 75.0596C887.55 75.0596 886.606 74.8263 885.767 74.3596C884.943 73.8929 884.292 73.2329 883.817 72.3796C883.356 71.5263 883.125 70.5396 883.125 69.4196ZM893.129 69.4396C893.129 68.5596 892.94 67.7863 892.563 67.1196C892.185 66.4529 891.668 65.9396 891.011 65.5796C890.367 65.2196 889.654 65.0396 888.871 65.0396C888.06 65.0396 887.333 65.2129 886.69 65.5596C886.047 65.9063 885.537 66.4129 885.159 67.0796C884.796 67.7329 884.614 68.5129 884.614 69.4196C884.614 70.3129 884.796 71.0996 885.159 71.7796C885.537 72.4463 886.047 72.9596 886.69 73.3196C887.333 73.6663 888.06 73.8396 888.871 73.8396C889.654 73.8396 890.367 73.6596 891.011 73.2996C891.668 72.9396 892.185 72.4263 892.563 71.7596C892.94 71.0929 893.129 70.3196 893.129 69.4396Z" fill="black"/>
<path d="M875.893 63.7798C877.264 63.7798 878.382 64.1865 879.249 64.9998C880.116 65.7998 880.549 66.9665 880.549 68.4998V74.8998H879.102V68.6598C879.102 67.4731 878.788 66.5665 878.158 65.9398C877.543 65.3131 876.697 64.9998 875.621 64.9998C874.516 64.9998 873.635 65.3331 872.978 65.9998C872.321 66.6665 871.993 67.6465 871.993 68.9398V74.8998H870.524V63.9798H871.993V65.8398C872.356 65.1731 872.88 64.6665 873.565 64.3198C874.251 63.9598 875.026 63.7798 875.893 63.7798Z" fill="black"/>
<path d="M862.081 75.0598C861.004 75.0598 860.033 74.8332 859.166 74.3798C858.313 73.9132 857.635 73.2598 857.131 72.4198C856.642 71.5665 856.397 70.5732 856.397 69.4398C856.397 68.3065 856.649 67.3198 857.152 66.4798C857.656 65.6265 858.341 64.9732 859.208 64.5198C860.075 64.0532 861.046 63.8198 862.123 63.8198C863.199 63.8198 864.171 64.0532 865.038 64.5198C865.919 64.9732 866.604 65.6265 867.093 66.4798C867.597 67.3198 867.848 68.3065 867.848 69.4398C867.848 70.5598 867.597 71.5465 867.093 72.3998C866.59 73.2532 865.898 73.9132 865.017 74.3798C864.136 74.8332 863.158 75.0598 862.081 75.0598ZM862.081 73.8398C862.836 73.8398 863.535 73.6798 864.178 73.3598C864.821 73.0265 865.339 72.5332 865.73 71.8798C866.136 71.2132 866.338 70.3998 866.338 69.4398C866.338 68.4798 866.143 67.6732 865.751 67.0198C865.36 66.3532 864.842 65.8598 864.199 65.5398C863.556 65.2065 862.857 65.0398 862.102 65.0398C861.347 65.0398 860.648 65.2065 860.005 65.5398C859.362 65.8598 858.844 66.3532 858.453 67.0198C858.075 67.6732 857.886 68.4798 857.886 69.4398C857.886 70.3998 858.075 71.2132 858.453 71.8798C858.844 72.5332 859.355 73.0265 859.984 73.3598C860.627 73.6798 861.326 73.8398 862.081 73.8398Z" fill="black"/>
<path d="M849.257 63.7798C850.599 63.7798 851.69 64.1865 852.529 64.9998C853.382 65.7998 853.808 66.9665 853.808 68.4998V74.8998H852.361V68.6598C852.361 67.4731 852.06 66.5665 851.459 65.9398C850.858 65.3131 850.04 64.9998 849.005 64.9998C847.929 64.9998 847.069 65.3398 846.426 66.0198C845.783 66.6998 845.461 67.6865 845.461 68.9798V74.8998H844.014V68.6598C844.014 67.4731 843.713 66.5665 843.112 65.9398C842.511 65.3131 841.686 64.9998 840.637 64.9998C839.561 64.9998 838.701 65.3398 838.058 66.0198C837.415 66.6998 837.093 67.6865 837.093 68.9798V74.8998H835.625V63.9798H837.093V65.8598C837.457 65.1798 837.974 64.6665 838.645 64.3198C839.316 63.9598 840.064 63.7798 840.889 63.7798C841.882 63.7798 842.749 64.0065 843.49 64.4598C844.245 64.9131 844.79 65.5798 845.126 66.4598C845.433 65.5931 845.957 64.9331 846.698 64.4798C847.453 64.0131 848.306 63.7798 849.257 63.7798Z" fill="black"/>
<path d="M827.184 68.8798C827.184 69.3598 827.17 69.7265 827.142 69.9798H817.641C817.683 70.8065 817.893 71.5132 818.271 72.0998C818.648 72.6865 819.144 73.1332 819.76 73.4398C820.375 73.7332 821.046 73.8798 821.773 73.8798C822.724 73.8798 823.521 73.6598 824.164 73.2198C824.821 72.7798 825.254 72.1865 825.464 71.4398H827.016C826.736 72.5065 826.135 73.3798 825.212 74.0598C824.304 74.7265 823.157 75.0598 821.773 75.0598C820.696 75.0598 819.732 74.8332 818.879 74.3798C818.026 73.9132 817.355 73.2598 816.865 72.4198C816.39 71.5665 816.152 70.5732 816.152 69.4398C816.152 68.3065 816.39 67.3132 816.865 66.4598C817.341 65.6065 818.005 64.9532 818.858 64.4998C819.711 64.0465 820.682 63.8198 821.773 63.8198C822.864 63.8198 823.814 64.0465 824.625 64.4998C825.45 64.9532 826.079 65.5665 826.513 66.3398C826.96 67.0998 827.184 67.9465 827.184 68.8798ZM825.695 68.8398C825.709 68.0265 825.534 67.3332 825.17 66.7598C824.821 66.1865 824.339 65.7532 823.723 65.4598C823.108 65.1665 822.437 65.0198 821.71 65.0198C820.619 65.0198 819.69 65.3532 818.921 66.0198C818.152 66.6865 817.725 67.6265 817.641 68.8398H825.695Z" fill="black"/>
<path d="M803.29 69.4398C803.29 68.3065 803.528 67.3198 804.003 66.4798C804.478 65.6265 805.136 64.9732 805.975 64.5198C806.813 64.0532 807.771 63.8198 808.848 63.8198C810.26 63.8198 811.42 64.1532 812.329 64.8198C813.252 65.4865 813.846 66.3932 814.112 67.5398H812.539C812.343 66.7532 811.917 66.1398 811.26 65.6998C810.616 65.2465 809.812 65.0198 808.848 65.0198C808.079 65.0198 807.387 65.1865 806.771 65.5198C806.156 65.8532 805.667 66.3532 805.303 67.0198C804.954 67.6732 804.779 68.4798 804.779 69.4398C804.779 70.3998 804.954 71.2132 805.303 71.8798C805.667 72.5465 806.156 73.0465 806.771 73.3798C807.387 73.7132 808.079 73.8798 808.848 73.8798C809.812 73.8798 810.616 73.6598 811.26 73.2198C811.917 72.7665 812.343 72.1398 812.539 71.3398H814.112C813.846 72.4598 813.252 73.3598 812.329 74.0398C811.406 74.7198 810.246 75.0598 808.848 75.0598C807.771 75.0598 806.813 74.8332 805.975 74.3798C805.136 73.9132 804.478 73.2598 804.003 72.4198C803.528 71.5665 803.29 70.5732 803.29 69.4398Z" fill="black"/>
<path d="M796.058 63.7798C797.429 63.7798 798.547 64.1865 799.414 64.9998C800.281 65.7998 800.714 66.9665 800.714 68.4998V74.8998H799.267V68.6598C799.267 67.4731 798.953 66.5665 798.323 65.9398C797.708 65.3131 796.862 64.9998 795.786 64.9998C794.681 64.9998 793.8 65.3331 793.143 65.9998C792.486 66.6665 792.158 67.6465 792.158 68.9398V74.8998H790.689V63.9798H792.158V65.8398C792.521 65.1731 793.045 64.6665 793.73 64.3198C794.416 63.9598 795.192 63.7798 796.058 63.7798Z" fill="black"/>
<path d="M788.004 68.8798C788.004 69.3598 787.99 69.7265 787.962 69.9798H778.462C778.504 70.8065 778.713 71.5132 779.091 72.0998C779.468 72.6865 779.965 73.1332 780.58 73.4398C781.195 73.7332 781.866 73.8798 782.593 73.8798C783.544 73.8798 784.341 73.6598 784.984 73.2198C785.641 72.7798 786.075 72.1865 786.284 71.4398H787.836C787.557 72.5065 786.956 73.3798 786.033 74.0598C785.124 74.7265 783.977 75.0598 782.593 75.0598C781.517 75.0598 780.552 74.8332 779.699 74.3798C778.846 73.9132 778.175 73.2598 777.686 72.4198C777.21 71.5665 776.973 70.5732 776.973 69.4398C776.973 68.3065 777.21 67.3132 777.686 66.4598C778.161 65.6065 778.825 64.9532 779.678 64.4998C780.531 64.0465 781.503 63.8198 782.593 63.8198C783.684 63.8198 784.635 64.0465 785.445 64.4998C786.27 64.9532 786.9 65.5665 787.333 66.3398C787.78 67.0998 788.004 67.9465 788.004 68.8798ZM786.515 68.8398C786.529 68.0265 786.354 67.3332 785.991 66.7598C785.641 66.1865 785.159 65.7532 784.544 65.4598C783.928 65.1665 783.257 65.0198 782.53 65.0198C781.44 65.0198 780.51 65.3532 779.741 66.0198C778.972 66.6865 778.546 67.6265 778.462 68.8398H786.515Z" fill="black"/>
<path d="M774.291 63.98V74.9H772.823V72.98C772.488 73.66 771.97 74.18 771.271 74.54C770.572 74.9 769.789 75.08 768.922 75.08C767.552 75.08 766.434 74.68 765.567 73.88C764.7 73.0666 764.267 71.8933 764.267 70.36V63.98H765.714V70.2C765.714 71.3866 766.021 72.2933 766.636 72.92C767.266 73.5466 768.119 73.86 769.195 73.86C770.3 73.86 771.18 73.5266 771.838 72.86C772.495 72.1933 772.823 71.2133 772.823 69.92V63.98H774.291Z" fill="black"/>
<path d="M761.047 60.0996V74.8996H759.579V60.0996H761.047Z" fill="black"/>
<path d="M757.268 65.1598H754.605V74.8998H753.137V65.1598H751.543V63.9798H753.137V63.2198C753.137 62.0331 753.451 61.1598 754.081 60.5998C754.724 60.0398 755.758 59.7598 757.185 59.7598V60.9598C756.234 60.9598 755.563 61.1331 755.171 61.4798C754.794 61.8264 754.605 62.4064 754.605 63.2198V63.9798H757.268V65.1598Z" fill="black"/>
<path d="M744.856 63.7798C746.226 63.7798 747.345 64.1865 748.212 64.9998C749.079 65.7998 749.512 66.9665 749.512 68.4998V74.8998H748.065V68.6598C748.065 67.4731 747.75 66.5665 747.121 65.9398C746.506 65.3131 745.66 64.9998 744.584 64.9998C743.479 64.9998 742.598 65.3331 741.941 65.9998C741.284 66.6665 740.955 67.6465 740.955 68.9398V74.8998H739.487V63.9798H740.955V65.8398C741.319 65.1731 741.843 64.6665 742.528 64.3198C743.213 63.9598 743.989 63.7798 744.856 63.7798Z" fill="black"/>
<path d="M735.429 61.9199C735.135 61.9199 734.884 61.8199 734.674 61.6199C734.464 61.4199 734.359 61.1732 734.359 60.8799C734.359 60.5865 734.464 60.3465 734.674 60.1599C734.884 59.9599 735.135 59.8599 735.429 59.8599C735.723 59.8599 735.974 59.9599 736.184 60.1599C736.394 60.3465 736.499 60.5865 736.499 60.8799C736.499 61.1732 736.394 61.4199 736.184 61.6199C735.974 61.8199 735.723 61.9199 735.429 61.9199ZM736.163 63.9799V74.8999H734.695V63.9799H736.163Z" fill="black"/>
<path d="M732.232 59L731.981 62.86H730.953L730.701 59H732.232Z" fill="black"/>
<path d="M728.278 60.0996V74.8996H726.81V60.0996H728.278Z" fill="black"/>
<path d="M718.368 68.8798C718.368 69.3598 718.354 69.7265 718.326 69.9798H708.826C708.868 70.8065 709.078 71.5132 709.455 72.0998C709.833 72.6865 710.329 73.1332 710.944 73.4398C711.559 73.7332 712.23 73.8798 712.958 73.8798C713.908 73.8798 714.705 73.6598 715.348 73.2198C716.005 72.7798 716.439 72.1865 716.649 71.4398H718.201C717.921 72.5065 717.32 73.3798 716.397 74.0598C715.488 74.7265 714.342 75.0598 712.958 75.0598C711.881 75.0598 710.916 74.8332 710.063 74.3798C709.21 73.9132 708.539 73.2598 708.05 72.4198C707.575 71.5665 707.337 70.5732 707.337 69.4398C707.337 68.3065 707.575 67.3132 708.05 66.4598C708.525 65.6065 709.189 64.9532 710.042 64.4998C710.895 64.0465 711.867 63.8198 712.958 63.8198C714.048 63.8198 714.999 64.0465 715.81 64.4998C716.635 64.9532 717.264 65.5665 717.697 66.3398C718.145 67.0998 718.368 67.9465 718.368 68.8798ZM716.879 68.8398C716.893 68.0265 716.719 67.3332 716.355 66.7598C716.006 66.1865 715.523 65.7532 714.908 65.4598C714.293 65.1665 713.622 65.0198 712.895 65.0198C711.804 65.0198 710.874 65.3532 710.105 66.0198C709.336 66.6865 708.91 67.6265 708.826 68.8398H716.879Z" fill="black"/>
<path d="M693.185 69.4196C693.185 68.2996 693.422 67.3196 693.898 66.4796C694.373 65.6263 695.023 64.9729 695.848 64.5196C696.687 64.0529 697.631 63.8196 698.679 63.8196C699.686 63.8196 700.595 64.0529 701.406 64.5196C702.217 64.9863 702.811 65.5929 703.188 66.3396V60.0996H704.657V74.8996H703.188V72.4596C702.839 73.2196 702.266 73.8463 701.469 74.3396C700.672 74.8196 699.735 75.0596 698.658 75.0596C697.61 75.0596 696.666 74.8263 695.827 74.3596C695.002 73.8929 694.352 73.2329 693.877 72.3796C693.415 71.5263 693.185 70.5396 693.185 69.4196ZM703.188 69.4396C703.188 68.5596 703 67.7863 702.622 67.1196C702.245 66.4529 701.727 65.9396 701.07 65.5796C700.427 65.2196 699.714 65.0396 698.931 65.0396C698.12 65.0396 697.393 65.2129 696.75 65.5596C696.107 65.9063 695.596 66.4129 695.219 67.0796C694.855 67.7329 694.674 68.5129 694.674 69.4196C694.674 70.3129 694.855 71.0996 695.219 71.7796C695.596 72.4463 696.107 72.9596 696.75 73.3196C697.393 73.6663 698.12 73.8396 698.931 73.8396C699.714 73.8396 700.427 73.6596 701.07 73.2996C701.727 72.9396 702.245 72.4263 702.622 71.7596C703 71.0929 703.188 70.3196 703.188 69.4396Z" fill="black"/>
<path d="M682.534 65.1602V71.9402C682.534 72.6069 682.667 73.0669 682.933 73.3202C683.198 73.5736 683.667 73.7002 684.338 73.7002H685.68V74.9002H684.107C683.072 74.9002 682.303 74.6736 681.8 74.2202C681.297 73.7536 681.045 72.9936 681.045 71.9402V65.1602H679.451V63.9802H681.045V61.2402H682.534V63.9802H685.68V65.1602H682.534Z" fill="black"/>
<path d="M672.722 63.7798C674.093 63.7798 675.211 64.1865 676.078 64.9998C676.945 65.7998 677.378 66.9665 677.378 68.4998V74.8998H675.931V68.6598C675.931 67.4731 675.617 66.5665 674.988 65.9398C674.372 65.3131 673.526 64.9998 672.45 64.9998C671.345 64.9998 670.464 65.3331 669.807 65.9998C669.15 66.6665 668.822 67.6465 668.822 68.9398V74.8998H667.354V63.9798H668.822V65.8398C669.185 65.1731 669.709 64.6665 670.395 64.3198C671.08 63.9598 671.856 63.7798 672.722 63.7798Z" fill="black"/>
<path d="M652.53 69.4198C652.53 68.2998 652.761 67.3198 653.222 66.4798C653.698 65.6265 654.348 64.9732 655.173 64.5198C656.012 64.0532 656.955 63.8198 658.004 63.8198C659.095 63.8198 660.031 64.0598 660.814 64.5398C661.611 65.0198 662.185 65.6332 662.534 66.3798V63.9798H664.002V74.8998H662.534V72.4798C662.171 73.2265 661.59 73.8465 660.793 74.3398C660.01 74.8198 659.074 75.0598 657.983 75.0598C656.948 75.0598 656.012 74.8265 655.173 74.3598C654.348 73.8932 653.698 73.2332 653.222 72.3798C652.761 71.5265 652.53 70.5398 652.53 69.4198ZM662.534 69.4398C662.534 68.5598 662.345 67.7865 661.968 67.1198C661.59 66.4532 661.073 65.9398 660.416 65.5798C659.773 65.2198 659.06 65.0398 658.277 65.0398C657.466 65.0398 656.739 65.2132 656.096 65.5598C655.452 65.9065 654.942 66.4132 654.565 67.0798C654.201 67.7332 654.019 68.5132 654.019 69.4198C654.019 70.3132 654.201 71.0998 654.565 71.7798C654.942 72.4465 655.452 72.9598 656.096 73.3198C656.739 73.6665 657.466 73.8398 658.277 73.8398C659.06 73.8398 659.773 73.6598 660.416 73.2998C661.073 72.9398 661.59 72.4265 661.968 71.7598C662.345 71.0932 662.534 70.3198 662.534 69.4398Z" fill="black"/>
<path d="M645.299 63.7798C646.669 63.7798 647.787 64.1865 648.654 64.9998C649.521 65.7998 649.955 66.9665 649.955 68.4998V74.8998H648.507V68.6598C648.507 67.4731 648.193 66.5665 647.564 65.9398C646.949 65.3131 646.103 64.9998 645.026 64.9998C643.921 64.9998 643.041 65.3331 642.383 65.9998C641.726 66.6665 641.398 67.6465 641.398 68.9398V74.8998H639.93V63.9798H641.398V65.8398C641.761 65.1731 642.286 64.6665 642.971 64.3198C643.656 63.9598 644.432 63.7798 645.299 63.7798Z" fill="black"/>
<path d="M630.58 63.8198C631.657 63.8198 632.594 64.0598 633.391 64.5398C634.187 65.0198 634.761 65.6265 635.11 66.3598V63.9798H636.578V75.1798C636.578 76.1798 636.348 77.0665 635.886 77.8398C635.439 78.6132 634.81 79.2065 633.999 79.6198C633.188 80.0465 632.265 80.2598 631.23 80.2598C629.762 80.2598 628.539 79.9265 627.56 79.2598C626.595 78.5932 625.994 77.6865 625.757 76.5398H627.204C627.455 77.2998 627.931 77.9065 628.63 78.3598C629.343 78.8132 630.21 79.0398 631.23 79.0398C631.971 79.0398 632.636 78.8865 633.223 78.5798C633.81 78.2865 634.271 77.8465 634.607 77.2598C634.943 76.6732 635.11 75.9798 635.11 75.1798V72.4798C634.747 73.2265 634.167 73.8465 633.37 74.3398C632.587 74.8198 631.657 75.0598 630.58 75.0598C629.532 75.0598 628.588 74.8265 627.749 74.3598C626.924 73.8932 626.274 73.2332 625.799 72.3798C625.337 71.5265 625.106 70.5398 625.106 69.4198C625.106 68.2998 625.337 67.3198 625.799 66.4798C626.274 65.6265 626.924 64.9732 627.749 64.5198C628.588 64.0532 629.532 63.8198 630.58 63.8198ZM635.11 69.4398C635.11 68.5598 634.922 67.7865 634.544 67.1198C634.167 66.4532 633.649 65.9398 632.992 65.5798C632.349 65.2198 631.636 65.0398 630.853 65.0398C630.042 65.0398 629.315 65.2132 628.672 65.5598C628.029 65.9065 627.518 66.4132 627.141 67.0798C626.777 67.7332 626.595 68.5132 626.595 69.4198C626.595 70.3132 626.777 71.0998 627.141 71.7798C627.518 72.4465 628.029 72.9598 628.672 73.3198C629.315 73.6665 630.042 73.8398 630.853 73.8398C631.636 73.8398 632.349 73.6598 632.992 73.2998C633.649 72.9398 634.167 72.4265 634.544 71.7598C634.922 71.0932 635.11 70.3198 635.11 69.4398Z" fill="black"/>
<path d="M621.719 61.9199C621.425 61.9199 621.174 61.8199 620.964 61.6199C620.754 61.4199 620.649 61.1732 620.649 60.8799C620.649 60.5865 620.754 60.3465 620.964 60.1599C621.174 59.9599 621.425 59.8599 621.719 59.8599C622.013 59.8599 622.264 59.9599 622.474 60.1599C622.684 60.3465 622.789 60.5865 622.789 60.8799C622.789 61.1732 622.684 61.4199 622.474 61.6199C622.264 61.8199 622.013 61.9199 621.719 61.9199ZM622.453 63.9799V74.8999H620.985V63.9799H622.453Z" fill="black"/>
<path d="M612.541 75.0598C611.464 75.0598 610.493 74.8332 609.626 74.3798C608.773 73.9132 608.095 73.2598 607.591 72.4198C607.102 71.5665 606.857 70.5732 606.857 69.4398C606.857 68.3065 607.109 67.3198 607.612 66.4798C608.116 65.6265 608.801 64.9732 609.668 64.5198C610.535 64.0532 611.506 63.8198 612.583 63.8198C613.659 63.8198 614.631 64.0532 615.498 64.5198C616.379 64.9732 617.064 65.6265 617.553 66.4798C618.057 67.3198 618.308 68.3065 618.308 69.4398C618.308 70.5598 618.057 71.5465 617.553 72.3998C617.05 73.2532 616.358 73.9132 615.477 74.3798C614.596 74.8332 613.618 75.0598 612.541 75.0598ZM612.541 73.8398C613.296 73.8398 613.995 73.6798 614.638 73.3598C615.281 73.0265 615.799 72.5332 616.19 71.8798C616.596 71.2132 616.798 70.3998 616.798 69.4398C616.798 68.4798 616.603 67.6732 616.211 67.0198C615.82 66.3532 615.302 65.8598 614.659 65.5398C614.016 65.2065 613.317 65.0398 612.562 65.0398C611.807 65.0398 611.108 65.2065 610.465 65.5398C609.822 65.8598 609.304 66.3532 608.913 67.0198C608.535 67.6732 608.346 68.4798 608.346 69.4398C608.346 70.3998 608.535 71.2132 608.913 71.8798C609.304 72.5332 609.815 73.0265 610.444 73.3598C611.087 73.6798 611.786 73.8398 612.541 73.8398Z" fill="black"/>
<path d="M599.718 63.7798C601.06 63.7798 602.151 64.1865 602.99 64.9998C603.843 65.7998 604.269 66.9665 604.269 68.4998V74.8998H602.822V68.6598C602.822 67.4731 602.521 66.5665 601.92 65.9398C601.319 65.3131 600.501 64.9998 599.466 64.9998C598.39 64.9998 597.53 65.3398 596.887 66.0198C596.244 66.6998 595.922 67.6865 595.922 68.9798V74.8998H594.475V68.6598C594.475 67.4731 594.174 66.5665 593.573 65.9398C592.972 65.3131 592.147 64.9998 591.098 64.9998C590.022 64.9998 589.162 65.3398 588.519 66.0198C587.876 66.6998 587.554 67.6865 587.554 68.9798V74.8998H586.086V63.9798H587.554V65.8598C587.918 65.1798 588.435 64.6665 589.106 64.3198C589.777 63.9598 590.525 63.7798 591.35 63.7798C592.343 63.7798 593.21 64.0065 593.951 64.4598C594.706 64.9131 595.251 65.5798 595.586 66.4598C595.894 65.5931 596.418 64.9331 597.159 64.4798C597.914 64.0131 598.767 63.7798 599.718 63.7798Z" fill="black"/>
<path d="M583.4 68.88C583.4 69.36 583.386 69.7267 583.358 69.98H573.857C573.899 70.8067 574.109 71.5133 574.486 72.1C574.864 72.6867 575.36 73.1333 575.975 73.44C576.591 73.7333 577.262 73.88 577.989 73.88C578.94 73.88 579.736 73.66 580.38 73.22C581.037 72.78 581.47 72.1867 581.68 71.44H583.232C582.952 72.5067 582.351 73.38 581.428 74.06C580.519 74.7267 579.373 75.06 577.989 75.06C576.912 75.06 575.947 74.8333 575.095 74.38C574.242 73.9133 573.571 73.26 573.081 72.42C572.606 71.5667 572.368 70.5733 572.368 69.44C572.368 68.3067 572.606 67.3133 573.081 66.46C573.557 65.6067 574.221 64.9533 575.074 64.5C575.927 64.0467 576.898 63.82 577.989 63.82C579.079 63.82 580.03 64.0467 580.841 64.5C581.666 64.9533 582.295 65.5667 582.729 66.34C583.176 67.1 583.4 67.9467 583.4 68.88ZM581.911 68.84C581.925 68.0267 581.75 67.3333 581.386 66.76C581.037 66.1867 580.554 65.7533 579.939 65.46C579.324 65.1667 578.653 65.02 577.926 65.02C576.835 65.02 575.906 65.3533 575.137 66.02C574.368 66.6867 573.941 67.6267 573.857 68.84H581.911ZM579.813 60.76L575.514 63.14V62.06L579.813 59.5V60.76Z" fill="black"/>
<path d="M567.472 65.1602V71.9402C567.472 72.6069 567.604 73.0669 567.87 73.3202C568.136 73.5736 568.604 73.7002 569.275 73.7002H570.617V74.9002H569.045C568.01 74.9002 567.241 74.6736 566.738 74.2202C566.234 73.7536 565.983 72.9936 565.983 71.9402V65.1602H564.389V63.9802H565.983V61.2402H567.472V63.9802H570.617V65.1602H567.472Z" fill="black"/>
<path d="M557.526 72.5801L555.345 77.8201H554.338L555.89 72.5801H557.526Z" fill="black"/>
<path d="M553.497 68.8798C553.497 69.3598 553.483 69.7265 553.455 69.9798H543.955C543.997 70.8065 544.207 71.5132 544.584 72.0998C544.962 72.6865 545.458 73.1332 546.073 73.4398C546.688 73.7332 547.359 73.8798 548.086 73.8798C549.037 73.8798 549.834 73.6598 550.477 73.2198C551.134 72.7798 551.568 72.1865 551.778 71.4398H553.33C553.05 72.5065 552.449 73.3798 551.526 74.0598C550.617 74.7265 549.471 75.0598 548.086 75.0598C547.01 75.0598 546.045 74.8332 545.192 74.3798C544.339 73.9132 543.668 73.2598 543.179 72.4198C542.704 71.5665 542.466 70.5732 542.466 69.4398C542.466 68.3065 542.704 67.3132 543.179 66.4598C543.654 65.6065 544.318 64.9532 545.171 64.4998C546.024 64.0465 546.996 63.8198 548.086 63.8198C549.177 63.8198 550.128 64.0465 550.939 64.4998C551.764 64.9532 552.393 65.5665 552.826 66.3398C553.274 67.0998 553.497 67.9465 553.497 68.8798ZM552.008 68.8398C552.022 68.0265 551.848 67.3332 551.484 66.7598C551.134 66.1865 550.652 65.7532 550.037 65.4598C549.422 65.1665 548.751 65.0198 548.024 65.0198C546.933 65.0198 546.003 65.3532 545.234 66.0198C544.465 66.6865 544.039 67.6265 543.955 68.8398H552.008Z" fill="black"/>
<path d="M528.313 69.4196C528.313 68.2996 528.551 67.3196 529.027 66.4796C529.502 65.6263 530.152 64.9729 530.977 64.5196C531.816 64.0529 532.76 63.8196 533.808 63.8196C534.815 63.8196 535.724 64.0529 536.535 64.5196C537.346 64.9863 537.94 65.5929 538.317 66.3396V60.0996H539.785V74.8996H538.317V72.4596C537.968 73.2196 537.395 73.8463 536.598 74.3396C535.801 74.8196 534.864 75.0596 533.787 75.0596C532.739 75.0596 531.795 74.8263 530.956 74.3596C530.131 73.8929 529.481 73.2329 529.006 72.3796C528.544 71.5263 528.313 70.5396 528.313 69.4196ZM538.317 69.4396C538.317 68.5596 538.129 67.7863 537.751 67.1196C537.374 66.4529 536.856 65.9396 536.199 65.5796C535.556 65.2196 534.843 65.0396 534.06 65.0396C533.249 65.0396 532.522 65.2129 531.879 65.5596C531.236 65.9063 530.725 66.4129 530.348 67.0796C529.984 67.7329 529.803 68.5129 529.803 69.4196C529.803 70.3129 529.984 71.0996 530.348 71.7796C530.725 72.4463 531.236 72.9596 531.879 73.3196C532.522 73.6663 533.249 73.8396 534.06 73.8396C534.843 73.8396 535.556 73.6596 536.199 73.2996C536.856 72.9396 537.374 72.4263 537.751 71.7596C538.129 71.0929 538.317 70.3196 538.317 69.4396Z" fill="black"/>
<path d="M521.082 63.7798C522.452 63.7798 523.571 64.1865 524.437 64.9998C525.304 65.7998 525.738 66.9665 525.738 68.4998V74.8998H524.291V68.6598C524.291 67.4731 523.976 66.5665 523.347 65.9398C522.732 65.3131 521.886 64.9998 520.809 64.9998C519.705 64.9998 518.824 65.3331 518.167 65.9998C517.51 66.6665 517.181 67.6465 517.181 68.9398V74.8998H515.713V63.9798H517.181V65.8398C517.544 65.1731 518.069 64.6665 518.754 64.3198C519.439 63.9598 520.215 63.7798 521.082 63.7798Z" fill="black"/>
<path d="M507.269 75.0598C506.193 75.0598 505.221 74.8332 504.354 74.3798C503.501 73.9132 502.823 73.2598 502.32 72.4198C501.831 71.5665 501.586 70.5732 501.586 69.4398C501.586 68.3065 501.838 67.3198 502.341 66.4798C502.844 65.6265 503.529 64.9732 504.396 64.5198C505.263 64.0532 506.235 63.8198 507.311 63.8198C508.388 63.8198 509.36 64.0532 510.227 64.5198C511.107 64.9732 511.793 65.6265 512.282 66.4798C512.785 67.3198 513.037 68.3065 513.037 69.4398C513.037 70.5598 512.785 71.5465 512.282 72.3998C511.779 73.2532 511.086 73.9132 510.206 74.3798C509.325 74.8332 508.346 75.0598 507.269 75.0598ZM507.269 73.8398C508.024 73.8398 508.724 73.6798 509.367 73.3598C510.01 73.0265 510.527 72.5332 510.919 71.8798C511.324 71.2132 511.527 70.3998 511.527 69.4398C511.527 68.4798 511.331 67.6732 510.94 67.0198C510.548 66.3532 510.031 65.8598 509.388 65.5398C508.745 65.2065 508.045 65.0398 507.29 65.0398C506.535 65.0398 505.836 65.2065 505.193 65.5398C504.55 65.8598 504.033 66.3532 503.641 67.0198C503.264 67.6732 503.075 68.4798 503.075 69.4398C503.075 70.3998 503.264 71.2132 503.641 71.8798C504.033 72.5332 504.543 73.0265 505.172 73.3598C505.815 73.6798 506.514 73.8398 507.269 73.8398Z" fill="black"/>
<path d="M494.446 63.7798C495.788 63.7798 496.878 64.1865 497.717 64.9998C498.57 65.7998 498.997 66.9665 498.997 68.4998V74.8998H497.549V68.6598C497.549 67.4731 497.249 66.5665 496.648 65.9398C496.046 65.3131 495.229 64.9998 494.194 64.9998C493.117 64.9998 492.257 65.3398 491.614 66.0198C490.971 66.6998 490.65 67.6865 490.65 68.9798V74.8998H489.202V68.6598C489.202 67.4731 488.902 66.5665 488.301 65.9398C487.699 65.3131 486.875 64.9998 485.826 64.9998C484.749 64.9998 483.889 65.3398 483.246 66.0198C482.603 66.6998 482.282 67.6865 482.282 68.9798V74.8998H480.813V63.9798H482.282V65.8598C482.645 65.1798 483.162 64.6665 483.834 64.3198C484.505 63.9598 485.253 63.7798 486.078 63.7798C487.07 63.7798 487.937 64.0065 488.678 64.4598C489.433 64.9131 489.978 65.5798 490.314 66.4598C490.622 65.5931 491.146 64.9331 491.887 64.4798C492.642 64.0131 493.495 63.7798 494.446 63.7798Z" fill="black"/>
<path d="M472.372 68.8798C472.372 69.3598 472.358 69.7265 472.33 69.9798H462.83C462.872 70.8065 463.082 71.5132 463.459 72.0998C463.837 72.6865 464.333 73.1332 464.948 73.4398C465.563 73.7332 466.234 73.8798 466.961 73.8798C467.912 73.8798 468.709 73.6598 469.352 73.2198C470.009 72.7798 470.443 72.1865 470.653 71.4398H472.205C471.925 72.5065 471.324 73.3798 470.401 74.0598C469.492 74.7265 468.346 75.0598 466.961 75.0598C465.885 75.0598 464.92 74.8332 464.067 74.3798C463.214 73.9132 462.543 73.2598 462.054 72.4198C461.579 71.5665 461.341 70.5732 461.341 69.4398C461.341 68.3065 461.579 67.3132 462.054 66.4598C462.529 65.6065 463.193 64.9532 464.046 64.4998C464.899 64.0465 465.871 63.8198 466.961 63.8198C468.052 63.8198 469.003 64.0465 469.814 64.4998C470.639 64.9532 471.268 65.5665 471.701 66.3398C472.149 67.0998 472.372 67.9465 472.372 68.8798ZM470.883 68.8398C470.897 68.0265 470.723 67.3332 470.359 66.7598C470.009 66.1865 469.527 65.7532 468.912 65.4598C468.297 65.1665 467.626 65.0198 466.899 65.0198C465.808 65.0198 464.878 65.3532 464.109 66.0198C463.34 66.6865 462.914 67.6265 462.83 68.8398H470.883Z" fill="black"/>
<path d="M458.688 60.0996V74.8996H457.22V60.0996H458.688Z" fill="black"/>
<path d="M444.715 75.0598C443.401 75.0598 442.325 74.7732 441.486 74.1998C440.661 73.6132 440.199 72.8198 440.102 71.8198H441.612C441.681 72.4332 441.982 72.9332 442.513 73.3198C443.059 73.6932 443.786 73.8798 444.695 73.8798C445.491 73.8798 446.114 73.6998 446.561 73.3398C447.022 72.9798 447.253 72.5332 447.253 71.9998C447.253 71.6265 447.127 71.3198 446.876 71.0798C446.624 70.8398 446.302 70.6532 445.911 70.5198C445.533 70.3732 445.016 70.2198 444.359 70.0598C443.506 69.8465 442.814 69.6332 442.283 69.4198C441.751 69.2065 441.297 68.8932 440.919 68.4798C440.556 68.0532 440.374 67.4865 440.374 66.7798C440.374 66.2465 440.542 65.7532 440.878 65.2998C441.213 64.8465 441.688 64.4865 442.304 64.2198C442.919 63.9532 443.618 63.8198 444.401 63.8198C445.631 63.8198 446.624 64.1198 447.379 64.7198C448.134 65.3065 448.539 66.1198 448.595 67.1598H447.127C447.085 66.5198 446.82 66.0065 446.33 65.6198C445.855 65.2198 445.198 65.0198 444.359 65.0198C443.618 65.0198 443.017 65.1865 442.555 65.5198C442.094 65.8532 441.863 66.2665 441.863 66.7598C441.863 67.1865 441.996 67.5398 442.262 67.8198C442.541 68.0865 442.884 68.2998 443.289 68.4598C443.695 68.6065 444.24 68.7732 444.925 68.9598C445.75 69.1732 446.407 69.3798 446.897 69.5798C447.386 69.7798 447.805 70.0732 448.155 70.4598C448.505 70.8465 448.686 71.3598 448.7 71.9998C448.7 72.5865 448.532 73.1132 448.197 73.5798C447.861 74.0332 447.393 74.3932 446.792 74.6598C446.191 74.9265 445.498 75.0598 444.715 75.0598Z" fill="black"/>
<path d="M434.643 65.9198C434.964 65.2398 435.454 64.7131 436.111 64.3398C436.782 63.9665 437.6 63.7798 438.565 63.7798V65.2398H438.166C437.104 65.2398 436.251 65.5131 435.608 66.0598C434.964 66.6065 434.643 67.5198 434.643 68.7998V74.8998H433.175V63.9798H434.643V65.9198Z" fill="black"/>
<path d="M430.489 68.8798C430.489 69.3598 430.475 69.7265 430.447 69.9798H420.946C420.988 70.8065 421.198 71.5132 421.575 72.0998C421.953 72.6865 422.449 73.1332 423.064 73.4398C423.679 73.7332 424.351 73.8798 425.078 73.8798C426.028 73.8798 426.825 73.6598 427.469 73.2198C428.126 72.7798 428.559 72.1865 428.769 71.4398H430.321C430.041 72.5065 429.44 73.3798 428.517 74.0598C427.608 74.7265 426.462 75.0598 425.078 75.0598C424.001 75.0598 423.036 74.8332 422.183 74.3798C421.331 73.9132 420.659 73.2598 420.17 72.4198C419.695 71.5665 419.457 70.5732 419.457 69.4398C419.457 68.3065 419.695 67.3132 420.17 66.4598C420.645 65.6065 421.31 64.9532 422.162 64.4998C423.015 64.0465 423.987 63.8198 425.078 63.8198C426.168 63.8198 427.119 64.0465 427.93 64.4998C428.755 64.9532 429.384 65.5665 429.817 66.3398C430.265 67.0998 430.489 67.9465 430.489 68.8798ZM429 68.8398C429.013 68.0265 428.839 67.3332 428.475 66.7598C428.126 66.1865 427.643 65.7532 427.028 65.4598C426.413 65.1665 425.742 65.0198 425.015 65.0198C423.924 65.0198 422.994 65.3532 422.225 66.0198C421.456 66.6865 421.03 67.6265 420.946 68.8398H429Z" fill="black"/>
<path d="M412.728 73.54L416.587 63.98H418.139L413.546 74.9H411.889L407.296 63.98H408.869L412.728 73.54Z" fill="black"/>
<path d="M393.836 69.4198C393.836 68.2998 394.067 67.3198 394.528 66.4798C395.003 65.6265 395.654 64.9732 396.478 64.5198C397.317 64.0532 398.261 63.8198 399.31 63.8198C400.4 63.8198 401.337 64.0598 402.12 64.5398C402.917 65.0198 403.49 65.6332 403.84 66.3798V63.9798H405.308V74.8998H403.84V72.4798C403.476 73.2265 402.896 73.8465 402.099 74.3398C401.316 74.8198 400.379 75.0598 399.289 75.0598C398.254 75.0598 397.317 74.8265 396.478 74.3598C395.654 73.8932 395.003 73.2332 394.528 72.3798C394.067 71.5265 393.836 70.5398 393.836 69.4198ZM403.84 69.4398C403.84 68.5598 403.651 67.7865 403.274 67.1198C402.896 66.4532 402.379 65.9398 401.722 65.5798C401.078 65.2198 400.365 65.0398 399.582 65.0398C398.771 65.0398 398.044 65.2132 397.401 65.5598C396.758 65.9065 396.248 66.4132 395.87 67.0798C395.507 67.7332 395.325 68.5132 395.325 69.4198C395.325 70.3132 395.507 71.0998 395.87 71.7798C396.248 72.4465 396.758 72.9598 397.401 73.3198C398.044 73.6665 398.771 73.8398 399.582 73.8398C400.365 73.8398 401.078 73.6598 401.722 73.2998C402.379 72.9398 402.896 72.4265 403.274 71.7598C403.651 71.0932 403.84 70.3198 403.84 69.4398Z" fill="black"/>
<path d="M388.376 65.9198C388.698 65.2398 389.187 64.7131 389.844 64.3398C390.515 63.9665 391.333 63.7798 392.298 63.7798V65.2398H391.9C390.837 65.2398 389.984 65.5131 389.341 66.0598C388.698 66.6065 388.376 67.5198 388.376 68.7998V74.8998H386.908V63.9798H388.376V65.9198Z" fill="black"/>
<path d="M381.342 65.1602V71.9402C381.342 72.6069 381.475 73.0669 381.74 73.3202C382.006 73.5736 382.474 73.7002 383.145 73.7002H384.488V74.9002H382.915C381.88 74.9002 381.111 74.6736 380.608 74.2202C380.104 73.7536 379.853 72.9936 379.853 71.9402V65.1602H378.259V63.9802H379.853V61.2402H381.342V63.9802H384.488V65.1602H381.342Z" fill="black"/>
<path d="M358.854 69.42C358.854 68.3 359.085 67.32 359.547 66.48C360.022 65.6267 360.672 64.9733 361.497 64.52C362.336 64.0533 363.28 63.82 364.328 63.82C365.419 63.82 366.356 64.06 367.139 64.54C367.936 65.02 368.509 65.6333 368.858 66.38V63.98H370.326V74.9H368.858V72.48C368.495 73.2267 367.915 73.8467 367.118 74.34C366.335 74.82 365.398 75.06 364.307 75.06C363.273 75.06 362.336 74.8267 361.497 74.36C360.672 73.8933 360.022 73.2333 359.547 72.38C359.085 71.5267 358.854 70.54 358.854 69.42ZM368.858 69.44C368.858 68.56 368.67 67.7867 368.292 67.12C367.915 66.4533 367.397 65.94 366.74 65.58C366.097 65.22 365.384 65.04 364.601 65.04C363.79 65.04 363.063 65.2133 362.42 65.56C361.777 65.9067 361.266 66.4133 360.889 67.08C360.525 67.7333 360.344 68.5133 360.344 69.42C360.344 70.3133 360.525 71.1 360.889 71.78C361.266 72.4467 361.777 72.96 362.42 73.32C363.063 73.6667 363.79 73.84 364.601 73.84C365.384 73.84 366.097 73.66 366.74 73.3C367.397 72.94 367.915 72.4267 368.292 71.76C368.67 71.0933 368.858 70.32 368.858 69.44ZM366.887 62.06V63.14L362.588 60.76V59.5L366.887 62.06Z" fill="black"/>
<path d="M338.947 69.4196C338.947 68.2996 339.185 67.3196 339.66 66.4796C340.136 65.6263 340.786 64.9729 341.611 64.5196C342.45 64.0529 343.393 63.8196 344.442 63.8196C345.449 63.8196 346.358 64.0529 347.168 64.5196C347.979 64.9863 348.574 65.5929 348.951 66.3396V60.0996H350.419V74.8996H348.951V72.4596C348.602 73.2196 348.028 73.8463 347.231 74.3396C346.434 74.8196 345.498 75.0596 344.421 75.0596C343.372 75.0596 342.429 74.8263 341.59 74.3596C340.765 73.8929 340.115 73.2329 339.639 72.3796C339.178 71.5263 338.947 70.5396 338.947 69.4196ZM348.951 69.4396C348.951 68.5596 348.762 67.7863 348.385 67.1196C348.007 66.4529 347.49 65.9396 346.833 65.5796C346.19 65.2196 345.477 65.0396 344.694 65.0396C343.883 65.0396 343.156 65.2129 342.513 65.5596C341.869 65.9063 341.359 66.4129 340.982 67.0796C340.618 67.7329 340.436 68.5129 340.436 69.4196C340.436 70.3129 340.618 71.0996 340.982 71.7796C341.359 72.4463 341.869 72.9596 342.513 73.3196C343.156 73.6663 343.883 73.8396 344.694 73.8396C345.477 73.8396 346.19 73.6596 346.833 73.2996C347.49 72.9396 348.007 72.4263 348.385 71.7596C348.762 71.0929 348.951 70.3196 348.951 69.4396Z" fill="black"/>
<path d="M331.716 63.7798C333.086 63.7798 334.204 64.1865 335.071 64.9998C335.938 65.7998 336.372 66.9665 336.372 68.4998V74.8998H334.924V68.6598C334.924 67.4731 334.61 66.5665 333.981 65.9398C333.365 65.3131 332.52 64.9998 331.443 64.9998C330.338 64.9998 329.458 65.3331 328.8 65.9998C328.143 66.6665 327.815 67.6465 327.815 68.9398V74.8998H326.347V63.9798H327.815V65.8398C328.178 65.1731 328.703 64.6665 329.388 64.3198C330.073 63.9598 330.849 63.7798 331.716 63.7798Z" fill="black"/>
<path d="M323.66 68.8798C323.66 69.3598 323.646 69.7265 323.618 69.9798H314.118C314.16 70.8065 314.37 71.5132 314.747 72.0998C315.125 72.6865 315.621 73.1332 316.236 73.4398C316.851 73.7332 317.522 73.8798 318.25 73.8798C319.2 73.8798 319.997 73.6598 320.64 73.2198C321.298 72.7798 321.731 72.1865 321.941 71.4398H323.493C323.213 72.5065 322.612 73.3798 321.689 74.0598C320.78 74.7265 319.634 75.0598 318.25 75.0598C317.173 75.0598 316.208 74.8332 315.355 74.3798C314.502 73.9132 313.831 73.2598 313.342 72.4198C312.867 71.5665 312.629 70.5732 312.629 69.4398C312.629 68.3065 312.867 67.3132 313.342 66.4598C313.817 65.6065 314.481 64.9532 315.334 64.4998C316.187 64.0465 317.159 63.8198 318.25 63.8198C319.34 63.8198 320.291 64.0465 321.102 64.4998C321.927 64.9532 322.556 65.5665 322.989 66.3398C323.437 67.0998 323.66 67.9465 323.66 68.8798ZM322.171 68.8398C322.185 68.0265 322.011 67.3332 321.647 66.7598C321.298 66.1865 320.815 65.7532 320.2 65.4598C319.585 65.1665 318.914 65.0198 318.187 65.0198C317.096 65.0198 316.166 65.3532 315.397 66.0198C314.628 66.6865 314.202 67.6265 314.118 68.8398H322.171Z" fill="black"/>
<path d="M307.733 65.1602V71.9402C307.733 72.6069 307.866 73.0669 308.132 73.3202C308.397 73.5736 308.866 73.7002 309.537 73.7002H310.879V74.9002H309.306C308.272 74.9002 307.503 74.6736 306.999 74.2202C306.496 73.7536 306.244 72.9936 306.244 71.9402V65.1602H304.65V63.9802H306.244V61.2402H307.733V63.9802H310.879V65.1602H307.733Z" fill="black"/>
<path d="M303.138 68.88C303.138 69.36 303.124 69.7267 303.096 69.98H293.595C293.637 70.8067 293.847 71.5133 294.225 72.1C294.602 72.6867 295.099 73.1333 295.714 73.44C296.329 73.7333 297 73.88 297.727 73.88C298.678 73.88 299.475 73.66 300.118 73.22C300.775 72.78 301.208 72.1867 301.418 71.44H302.97C302.691 72.5067 302.089 73.38 301.167 74.06C300.258 74.7267 299.111 75.06 297.727 75.06C296.65 75.06 295.686 74.8333 294.833 74.38C293.98 73.9133 293.309 73.26 292.82 72.42C292.344 71.5667 292.106 70.5733 292.106 69.44C292.106 68.3067 292.344 67.3133 292.82 66.46C293.295 65.6067 293.959 64.9533 294.812 64.5C295.665 64.0467 296.636 63.82 297.727 63.82C298.818 63.82 299.768 64.0467 300.579 64.5C301.404 64.9533 302.033 65.5667 302.467 66.34C302.914 67.1 303.138 67.9467 303.138 68.88ZM301.649 68.84C301.663 68.0267 301.488 67.3333 301.125 66.76C300.775 66.1867 300.293 65.7533 299.677 65.46C299.062 65.1667 298.391 65.02 297.664 65.02C296.574 65.02 295.644 65.3533 294.875 66.02C294.106 66.6867 293.679 67.6267 293.595 68.84H301.649ZM299.552 60.76L295.252 63.14V62.06L299.552 59.5V60.76Z" fill="black"/>
<path d="M290.315 59L290.064 62.86H289.036L288.784 59H290.315Z" fill="black"/>
<path d="M282.937 75.0598C281.623 75.0598 280.546 74.7732 279.707 74.1998C278.882 73.6132 278.421 72.8198 278.323 71.8198H279.833C279.903 72.4332 280.204 72.9332 280.735 73.3198C281.28 73.6932 282.007 73.8798 282.916 73.8798C283.713 73.8798 284.335 73.6998 284.783 73.3398C285.244 72.9798 285.475 72.5332 285.475 71.9998C285.475 71.6265 285.349 71.3198 285.097 71.0798C284.846 70.8398 284.524 70.6532 284.133 70.5198C283.755 70.3732 283.238 70.2198 282.581 70.0598C281.728 69.8465 281.036 69.6332 280.504 69.4198C279.973 69.2065 279.519 68.8932 279.141 68.4798C278.778 68.0532 278.596 67.4865 278.596 66.7798C278.596 66.2465 278.764 65.7532 279.099 65.2998C279.435 64.8465 279.91 64.4865 280.525 64.2198C281.141 63.9532 281.84 63.8198 282.623 63.8198C283.853 63.8198 284.846 64.1198 285.601 64.7198C286.356 65.3065 286.761 66.1198 286.817 67.1598H285.349C285.307 66.5198 285.041 66.0065 284.552 65.6198C284.077 65.2198 283.42 65.0198 282.581 65.0198C281.84 65.0198 281.238 65.1865 280.777 65.5198C280.316 65.8532 280.085 66.2665 280.085 66.7598C280.085 67.1865 280.218 67.5398 280.483 67.8198C280.763 68.0865 281.106 68.2998 281.511 68.4598C281.917 68.6065 282.462 68.7732 283.147 68.9598C283.972 69.1732 284.629 69.3798 285.118 69.5798C285.608 69.7798 286.027 70.0732 286.377 70.4598C286.726 70.8465 286.908 71.3598 286.922 71.9998C286.922 72.5865 286.754 73.1132 286.419 73.5798C286.083 74.0332 285.615 74.3932 285.013 74.6598C284.412 74.9265 283.72 75.0598 282.937 75.0598Z" fill="black"/>
<path d="M269.181 61.9199C268.887 61.9199 268.636 61.8199 268.426 61.6199C268.216 61.4199 268.111 61.1732 268.111 60.8799C268.111 60.5865 268.216 60.3465 268.426 60.1599C268.636 59.9599 268.887 59.8599 269.181 59.8599C269.475 59.8599 269.726 59.9599 269.936 60.1599C270.146 60.3465 270.251 60.5865 270.251 60.8799C270.251 61.1732 270.146 61.4199 269.936 61.6199C269.726 61.8199 269.475 61.9199 269.181 61.9199ZM269.915 63.9799V74.8999H268.447V63.9799H269.915Z" fill="black"/>
<path d="M260.544 63.7798C261.914 63.7798 263.032 64.1865 263.899 64.9998C264.766 65.7998 265.2 66.9665 265.2 68.4998V74.8998H263.753V68.6598C263.753 67.4731 263.438 66.5665 262.809 65.9398C262.194 65.3131 261.348 64.9998 260.271 64.9998C259.167 64.9998 258.286 65.3331 257.629 65.9998C256.971 66.6665 256.643 67.6465 256.643 68.9398V74.8998H255.175V63.9798H256.643V65.8398C257.006 65.1731 257.531 64.6665 258.216 64.3198C258.901 63.9598 259.677 63.7798 260.544 63.7798Z" fill="black"/>
<path d="M247.364 63.7798C248.706 63.7798 249.796 64.1865 250.635 64.9998C251.488 65.7998 251.915 66.9665 251.915 68.4998V74.8998H250.467V68.6598C250.467 67.4731 250.167 66.5665 249.566 65.9398C248.964 65.3131 248.147 64.9998 247.112 64.9998C246.035 64.9998 245.175 65.3398 244.532 66.0198C243.889 66.6998 243.568 67.6865 243.568 68.9798V74.8998H242.12V68.6598C242.12 67.4731 241.82 66.5665 241.219 65.9398C240.617 65.3131 239.792 64.9998 238.744 64.9998C237.667 64.9998 236.807 65.3398 236.164 66.0198C235.521 66.6998 235.2 67.6865 235.2 68.9798V74.8998H233.731V63.9798H235.2V65.8598C235.563 65.1798 236.08 64.6665 236.751 64.3198C237.423 63.9598 238.171 63.7798 238.996 63.7798C239.988 63.7798 240.855 64.0065 241.596 64.4598C242.351 64.9131 242.896 65.5798 243.232 66.4598C243.54 65.5931 244.064 64.9331 244.805 64.4798C245.56 64.0131 246.413 63.7798 247.364 63.7798Z" fill="black"/>
<path d="M230.38 63.98V74.9H228.912V72.98C228.577 73.66 228.059 74.18 227.36 74.54C226.661 74.9 225.878 75.08 225.011 75.08C223.641 75.08 222.523 74.68 221.656 73.88C220.789 73.0666 220.355 71.8933 220.355 70.36V63.98H221.803V70.2C221.803 71.3866 222.11 72.2933 222.725 72.92C223.355 73.5466 224.207 73.86 225.284 73.86C226.389 73.86 227.269 73.5266 227.927 72.86C228.584 72.1933 228.912 71.2133 228.912 69.92V63.98H230.38Z" fill="black"/>
<path d="M217.136 60.0996V74.8996H215.668V60.0996H217.136Z" fill="black"/>
<path d="M200.844 69.4198C200.844 68.2998 201.074 67.3198 201.536 66.4798C202.011 65.6265 202.661 64.9732 203.486 64.5198C204.325 64.0532 205.269 63.8198 206.318 63.8198C207.408 63.8198 208.345 64.0598 209.128 64.5398C209.925 65.0198 210.498 65.6332 210.848 66.3798V63.9798H212.316V74.8998H210.848V72.4798C210.484 73.2265 209.904 73.8465 209.107 74.3398C208.324 74.8198 207.387 75.0598 206.297 75.0598C205.262 75.0598 204.325 74.8265 203.486 74.3598C202.661 73.8932 202.011 73.2332 201.536 72.3798C201.074 71.5265 200.844 70.5398 200.844 69.4198ZM210.848 69.4398C210.848 68.5598 210.659 67.7865 210.281 67.1198C209.904 66.4532 209.387 65.9398 208.729 65.5798C208.086 65.2198 207.373 65.0398 206.59 65.0398C205.779 65.0398 205.052 65.2132 204.409 65.5598C203.766 65.9065 203.256 66.4132 202.878 67.0798C202.515 67.7332 202.333 68.5132 202.333 69.4198C202.333 70.3132 202.515 71.0998 202.878 71.7798C203.256 72.4465 203.766 72.9598 204.409 73.3198C205.052 73.6665 205.779 73.8398 206.59 73.8398C207.373 73.8398 208.086 73.6598 208.729 73.2998C209.387 72.9398 209.904 72.4265 210.281 71.7598C210.659 71.0932 210.848 70.3198 210.848 69.4398Z" fill="black"/>
<path d="M199.051 59L198.8 62.86H197.772L197.521 59H199.051Z" fill="black"/>
<path d="M183.599 69.4196C183.599 68.2996 183.836 67.3196 184.312 66.4796C184.787 65.6263 185.437 64.9729 186.262 64.5196C187.101 64.0529 188.045 63.8196 189.093 63.8196C190.1 63.8196 191.009 64.0529 191.82 64.5196C192.631 64.9863 193.225 65.5929 193.602 66.3396V60.0996H195.071V74.8996H193.602V72.4596C193.253 73.2196 192.68 73.8463 191.883 74.3396C191.086 74.8196 190.149 75.0596 189.072 75.0596C188.024 75.0596 187.08 74.8263 186.241 74.3596C185.416 73.8929 184.766 73.2329 184.291 72.3796C183.829 71.5263 183.599 70.5396 183.599 69.4196ZM193.602 69.4396C193.602 68.5596 193.414 67.7863 193.036 67.1196C192.659 66.4529 192.141 65.9396 191.484 65.5796C190.841 65.2196 190.128 65.0396 189.345 65.0396C188.534 65.0396 187.807 65.2129 187.164 65.5596C186.521 65.9063 186.01 66.4129 185.633 67.0796C185.269 67.7329 185.088 68.5129 185.088 69.4196C185.088 70.3129 185.269 71.0996 185.633 71.7796C186.01 72.4463 186.521 72.9596 187.164 73.3196C187.807 73.6663 188.534 73.8396 189.345 73.8396C190.128 73.8396 190.841 73.6596 191.484 73.2996C192.141 72.9396 192.659 72.4263 193.036 71.7596C193.414 71.0929 193.602 70.3196 193.602 69.4396Z" fill="black"/>
<path d="M175.164 63.98V74.9H173.695V72.98C173.36 73.66 172.843 74.18 172.143 74.54C171.444 74.9 170.661 75.08 169.795 75.08C168.424 75.08 167.306 74.68 166.439 73.88C165.572 73.0666 165.139 71.8933 165.139 70.36V63.98H166.586V70.2C166.586 71.3866 166.893 72.2933 167.509 72.92C168.138 73.5466 168.991 73.86 170.067 73.86C171.172 73.86 172.053 73.5266 172.71 72.86C173.367 72.1933 173.695 71.2133 173.695 69.92V63.98H175.164Z" fill="black"/>
<path d="M150.42 69.4198C150.42 68.2998 150.651 67.3198 151.112 66.4798C151.587 65.6265 152.238 64.9732 153.062 64.5198C153.901 64.0532 154.845 63.8198 155.894 63.8198C156.984 63.8198 157.921 64.0598 158.704 64.5398C159.501 65.0198 160.074 65.6332 160.424 66.3798V63.9798H161.892V74.8998H160.424V72.4798C160.06 73.2265 159.48 73.8465 158.683 74.3398C157.9 74.8198 156.963 75.0598 155.873 75.0598C154.838 75.0598 153.901 74.8265 153.062 74.3598C152.238 73.8932 151.587 73.2332 151.112 72.3798C150.651 71.5265 150.42 70.5398 150.42 69.4198ZM160.424 69.4398C160.424 68.5598 160.235 67.7865 159.858 67.1198C159.48 66.4532 158.963 65.9398 158.306 65.5798C157.662 65.2198 156.949 65.0398 156.166 65.0398C155.355 65.0398 154.628 65.2132 153.985 65.5598C153.342 65.9065 152.832 66.4132 152.454 67.0798C152.091 67.7332 151.909 68.5132 151.909 69.4198C151.909 70.3132 152.091 71.0998 152.454 71.7798C152.832 72.4465 153.342 72.9598 153.985 73.3198C154.628 73.6665 155.355 73.8398 156.166 73.8398C156.949 73.8398 157.662 73.6598 158.306 73.2998C158.963 72.9398 159.48 72.4265 159.858 71.7598C160.235 71.0932 160.424 70.3198 160.424 69.4398Z" fill="black"/>
<path d="M148.406 68.8798C148.406 69.3598 148.392 69.7265 148.364 69.9798H138.863C138.905 70.8065 139.115 71.5132 139.492 72.0998C139.87 72.6865 140.366 73.1332 140.981 73.4398C141.596 73.7332 142.268 73.8798 142.995 73.8798C143.945 73.8798 144.742 73.6598 145.386 73.2198C146.043 72.7798 146.476 72.1865 146.686 71.4398H148.238C147.958 72.5065 147.357 73.3798 146.434 74.0598C145.525 74.7265 144.379 75.0598 142.995 75.0598C141.918 75.0598 140.953 74.8332 140.1 74.3798C139.248 73.9132 138.576 73.2598 138.087 72.4198C137.612 71.5665 137.374 70.5732 137.374 69.4398C137.374 68.3065 137.612 67.3132 138.087 66.4598C138.562 65.6065 139.227 64.9532 140.079 64.4998C140.932 64.0465 141.904 63.8198 142.995 63.8198C144.085 63.8198 145.036 64.0465 145.847 64.4998C146.672 64.9532 147.301 65.5665 147.734 66.3398C148.182 67.0998 148.406 67.9465 148.406 68.8798ZM146.916 68.8398C146.93 68.0265 146.756 67.3332 146.392 66.7598C146.043 66.1865 145.56 65.7532 144.945 65.4598C144.33 65.1665 143.659 65.0198 142.932 65.0198C141.841 65.0198 140.911 65.3532 140.142 66.0198C139.373 66.6865 138.947 67.6265 138.863 68.8398H146.916Z" fill="black"/>
<path d="M131.297 75.0598C129.982 75.0598 128.906 74.7732 128.067 74.1998C127.242 73.6132 126.78 72.8198 126.683 71.8198H128.193C128.263 72.4332 128.563 72.9332 129.094 73.3198C129.64 73.6932 130.367 73.8798 131.276 73.8798C132.073 73.8798 132.695 73.6998 133.142 73.3398C133.604 72.9798 133.834 72.5332 133.834 71.9998C133.834 71.6265 133.708 71.3198 133.457 71.0798C133.205 70.8398 132.883 70.6532 132.492 70.5198C132.114 70.3732 131.597 70.2198 130.94 70.0598C130.087 69.8465 129.395 69.6332 128.864 69.4198C128.332 69.2065 127.878 68.8932 127.501 68.4798C127.137 68.0532 126.955 67.4865 126.955 66.7798C126.955 66.2465 127.123 65.7532 127.459 65.2998C127.794 64.8465 128.27 64.4865 128.885 64.2198C129.5 63.9532 130.199 63.8198 130.982 63.8198C132.212 63.8198 133.205 64.1198 133.96 64.7198C134.715 65.3065 135.121 66.1198 135.176 67.1598H133.708C133.666 66.5198 133.401 66.0065 132.911 65.6198C132.436 65.2198 131.779 65.0198 130.94 65.0198C130.199 65.0198 129.598 65.1865 129.136 65.5198C128.675 65.8532 128.444 66.2665 128.444 66.7598C128.444 67.1865 128.577 67.5398 128.843 67.8198C129.122 68.0865 129.465 68.2998 129.87 68.4598C130.276 68.6065 130.821 68.7732 131.506 68.9598C132.331 69.1732 132.988 69.3798 133.478 69.5798C133.967 69.7798 134.387 70.0732 134.736 70.4598C135.086 70.8465 135.267 71.3598 135.281 71.9998C135.281 72.5865 135.114 73.1132 134.778 73.5798C134.442 74.0332 133.974 74.3932 133.373 74.6598C132.772 74.9265 132.08 75.0598 131.297 75.0598Z" fill="black"/>
<path d="M124.667 68.88C124.667 69.36 124.653 69.7267 124.625 69.98H115.125C115.167 70.8067 115.376 71.5133 115.754 72.1C116.131 72.6867 116.628 73.1333 117.243 73.44C117.858 73.7333 118.529 73.88 119.256 73.88C120.207 73.88 121.004 73.66 121.647 73.22C122.304 72.78 122.738 72.1867 122.948 71.44H124.499C124.22 72.5067 123.619 73.38 122.696 74.06C121.787 74.7267 120.641 75.06 119.256 75.06C118.18 75.06 117.215 74.8333 116.362 74.38C115.509 73.9133 114.838 73.26 114.349 72.42C113.873 71.5667 113.636 70.5733 113.636 69.44C113.636 68.3067 113.873 67.3133 114.349 66.46C114.824 65.6067 115.488 64.9533 116.341 64.5C117.194 64.0467 118.166 63.82 119.256 63.82C120.347 63.82 121.298 64.0467 122.109 64.5C122.934 64.9533 123.563 65.5667 123.996 66.34C124.444 67.1 124.667 67.9467 124.667 68.88ZM123.178 68.84C123.192 68.0267 123.017 67.3333 122.654 66.76C122.304 66.1867 121.822 65.7533 121.207 65.46C120.592 65.1667 119.92 65.02 119.193 65.02C118.103 65.02 117.173 65.3533 116.404 66.02C115.635 66.6867 115.209 67.6267 115.125 68.84H123.178ZM121.081 60.76L116.782 63.14V62.06L121.081 59.5V60.76Z" fill="black"/>
<path d="M108.177 65.9198C108.499 65.2398 108.988 64.7131 109.645 64.3398C110.316 63.9665 111.134 63.7798 112.099 63.7798V65.2398H111.7C110.638 65.2398 109.785 65.5131 109.142 66.0598C108.499 66.6065 108.177 67.5198 108.177 68.7998V74.8998H106.709V63.9798H108.177V65.9198Z" fill="black"/>
<path d="M98.2678 68.8798C98.2678 69.3598 98.2539 69.7265 98.2259 69.9798H88.7254C88.7673 70.8065 88.977 71.5132 89.3545 72.0998C89.7321 72.6865 90.2284 73.1332 90.8436 73.4398C91.4588 73.7332 92.1299 73.8798 92.8569 73.8798C93.8077 73.8798 94.6047 73.6598 95.2478 73.2198C95.9049 72.7798 96.3384 72.1865 96.5481 71.4398H98.1001C97.8204 72.5065 97.2192 73.3798 96.2964 74.0598C95.3876 74.7265 94.2411 75.0598 92.8569 75.0598C91.7804 75.0598 90.8156 74.8332 89.9628 74.3798C89.1099 73.9132 88.4387 73.2598 87.9494 72.4198C87.474 71.5665 87.2363 70.5732 87.2363 69.4398C87.2363 68.3065 87.474 67.3132 87.9494 66.4598C88.4248 65.6065 89.0889 64.9532 89.9418 64.4998C90.7947 64.0465 91.7664 63.8198 92.8569 63.8198C93.9475 63.8198 94.8983 64.0465 95.7092 64.4998C96.5341 64.9532 97.1633 65.5665 97.5967 66.3398C98.0441 67.0998 98.2678 67.9465 98.2678 68.8798ZM96.7788 68.8398C96.7928 68.0265 96.618 67.3332 96.2545 66.7598C95.9049 66.1865 95.4226 65.7532 94.8074 65.4598C94.1922 65.1665 93.5211 65.0198 92.794 65.0198C91.7035 65.0198 90.7737 65.3532 90.0047 66.0198C89.2357 66.6865 88.8093 67.6265 88.7254 68.8398H96.7788Z" fill="black"/>
<path d="M81.7776 65.9198C82.0992 65.2398 82.5886 64.7131 83.2457 64.3398C83.9168 63.9665 84.7348 63.7798 85.6995 63.7798V65.2398H85.301C84.2384 65.2398 83.3855 65.5131 82.7424 66.0598C82.0992 66.6065 81.7776 67.5198 81.7776 68.7998V74.8998H80.3096V63.9798H81.7776V65.9198Z" fill="black"/>
<path d="M74.7421 65.1602V71.9402C74.7421 72.6069 74.875 73.0669 75.1406 73.3202C75.4063 73.5736 75.8746 73.7002 76.5458 73.7002H77.888V74.9002H76.3151C75.2804 74.9002 74.5114 74.6736 74.0081 74.2202C73.5048 73.7536 73.2531 72.9936 73.2531 71.9402V65.1602H71.6592V63.9802H73.2531V61.2402H74.7421V63.9802H77.888V65.1602H74.7421Z" fill="black"/>
<path d="M64.3896 75.0598C63.313 75.0598 62.3413 74.8332 61.4744 74.3798C60.6215 73.9132 59.9434 73.2598 59.4401 72.4198C58.9507 71.5665 58.7061 70.5732 58.7061 69.4398C58.7061 68.3065 58.9577 67.3198 59.4611 66.4798C59.9644 65.6265 60.6495 64.9732 61.5164 64.5198C62.3832 64.0532 63.355 63.8198 64.4315 63.8198C65.5081 63.8198 66.4798 64.0532 67.3467 64.5198C68.2276 64.9732 68.9127 65.6265 69.402 66.4798C69.9054 67.3198 70.157 68.3065 70.157 69.4398C70.157 70.5598 69.9054 71.5465 69.402 72.3998C68.8987 73.2532 68.2066 73.9132 67.3257 74.3798C66.4449 74.8332 65.4662 75.0598 64.3896 75.0598ZM64.3896 73.8398C65.1446 73.8398 65.8437 73.6798 66.4868 73.3598C67.13 73.0265 67.6473 72.5332 68.0388 71.8798C68.4443 71.2132 68.647 70.3998 68.647 69.4398C68.647 68.4798 68.4513 67.6732 68.0598 67.0198C67.6683 66.3532 67.151 65.8598 66.5078 65.5398C65.8647 65.2065 65.1656 65.0398 64.4106 65.0398C63.6556 65.0398 62.9565 65.2065 62.3133 65.5398C61.6702 65.8598 61.1528 66.3532 60.7614 67.0198C60.3839 67.6732 60.1951 68.4798 60.1951 69.4398C60.1951 70.3998 60.3839 71.2132 60.7614 71.8798C61.1528 72.5332 61.6632 73.0265 62.2923 73.3598C62.9355 73.6798 63.6346 73.8398 64.3896 73.8398Z" fill="black"/>
<path d="M56.0525 74.8999H54.5844L46.4681 63.1399V74.8999H45V60.9199H46.4681L54.5844 72.6599V60.9199H56.0525V74.8999Z" fill="black"/>
<line x1="285" y1="21.5" y2="21.5" stroke="black"/>
<line x1="1030" y1="21.5" x2="729" y2="21.5" stroke="black"/>
<path d="M319.281 22.5469C319.281 24.3073 319.057 25.9115 318.609 27.3594C318.172 28.7969 317.51 30.0365 316.625 31.0781C315.74 32.1094 314.63 32.9062 313.297 33.4688C311.964 34.0312 310.401 34.3125 308.609 34.3125C306.786 34.3125 305.203 34.0312 303.859 33.4688C302.526 32.9062 301.417 32.1042 300.531 31.0625C299.656 30.0208 299 28.776 298.562 27.3281C298.125 25.8802 297.906 24.276 297.906 22.5156C297.906 20.1615 298.292 18.1094 299.062 16.3594C299.844 14.599 301.026 13.2344 302.609 12.2656C304.203 11.2865 306.214 10.7969 308.641 10.7969C311.016 10.7969 312.99 11.2812 314.562 12.25C316.135 13.2188 317.312 14.5833 318.094 16.3438C318.885 18.0938 319.281 20.1615 319.281 22.5469ZM301.844 22.5469C301.844 24.3073 302.083 25.8333 302.562 27.125C303.042 28.4062 303.776 29.3958 304.766 30.0938C305.766 30.7812 307.047 31.125 308.609 31.125C310.182 31.125 311.464 30.7812 312.453 30.0938C313.443 29.3958 314.172 28.4062 314.641 27.125C315.109 25.8333 315.344 24.3073 315.344 22.5469C315.344 19.8698 314.807 17.776 313.734 16.2656C312.672 14.7448 310.974 13.9844 308.641 13.9844C307.078 13.9844 305.792 14.3281 304.781 15.0156C303.781 15.7031 303.042 16.6875 302.562 17.9688C302.083 19.2396 301.844 20.7656 301.844 22.5469ZM342.125 11.1562V25.9375C342.125 27.5312 341.786 28.9583 341.109 30.2188C340.443 31.4792 339.432 32.4792 338.078 33.2188C336.724 33.9479 335.021 34.3125 332.969 34.3125C330.042 34.3125 327.812 33.5469 326.281 32.0156C324.76 30.474 324 28.4271 324 25.875V11.1562H327.75V25.5469C327.75 27.4531 328.198 28.8594 329.094 29.7656C329.99 30.6719 331.328 31.125 333.109 31.125C334.339 31.125 335.339 30.9115 336.109 30.4844C336.891 30.0469 337.464 29.4115 337.828 28.5781C338.203 27.7344 338.391 26.7188 338.391 25.5312V11.1562H342.125ZM332.156 3.92188C332.438 4.40104 332.781 4.93229 333.188 5.51562C333.594 6.09896 334.016 6.66667 334.453 7.21875C334.891 7.77083 335.276 8.24479 335.609 8.64062V9.04688H333.156C332.76 8.75521 332.318 8.40104 331.828 7.98438C331.339 7.55729 330.839 7.11458 330.328 6.65625C329.828 6.1875 329.365 5.74479 328.938 5.32812C328.521 4.90104 328.188 4.53646 327.938 4.23438V3.92188H332.156ZM369.469 27.7812C369.469 29.1354 369.135 30.3021 368.469 31.2812C367.812 32.2604 366.865 33.0104 365.625 33.5312C364.396 34.0521 362.927 34.3125 361.219 34.3125C360.385 34.3125 359.589 34.2656 358.828 34.1719C358.068 34.0781 357.349 33.9427 356.672 33.7656C356.005 33.5781 355.396 33.3542 354.844 33.0938V29.5625C355.771 29.9688 356.807 30.3385 357.953 30.6719C359.099 30.9948 360.266 31.1562 361.453 31.1562C362.422 31.1562 363.224 31.0312 363.859 30.7812C364.505 30.5208 364.984 30.1562 365.297 29.6875C365.609 29.2083 365.766 28.651 365.766 28.0156C365.766 27.3385 365.583 26.7656 365.219 26.2969C364.854 25.8281 364.302 25.401 363.562 25.0156C362.833 24.6198 361.917 24.1979 360.812 23.75C360.062 23.4479 359.344 23.1042 358.656 22.7188C357.979 22.3333 357.375 21.8802 356.844 21.3594C356.312 20.8385 355.891 20.224 355.578 19.5156C355.276 18.7969 355.125 17.9531 355.125 16.9844C355.125 15.6927 355.432 14.5885 356.047 13.6719C356.672 12.7552 357.547 12.0521 358.672 11.5625C359.807 11.0729 361.13 10.8281 362.641 10.8281C363.839 10.8281 364.964 10.9531 366.016 11.2031C367.078 11.4531 368.12 11.8073 369.141 12.2656L367.953 15.2812C367.016 14.8958 366.104 14.5885 365.219 14.3594C364.344 14.1302 363.448 14.0156 362.531 14.0156C361.74 14.0156 361.068 14.1354 360.516 14.375C359.964 14.6146 359.542 14.9531 359.25 15.3906C358.969 15.8177 358.828 16.3281 358.828 16.9219C358.828 17.5885 358.99 18.151 359.312 18.6094C359.646 19.0573 360.156 19.4688 360.844 19.8438C361.542 20.2188 362.438 20.6354 363.531 21.0938C364.792 21.6146 365.859 22.1615 366.734 22.7344C367.62 23.3073 368.297 23.9948 368.766 24.7969C369.234 25.5885 369.469 26.5833 369.469 27.7812ZM394.156 22.5469C394.156 24.3073 393.932 25.9115 393.484 27.3594C393.047 28.7969 392.385 30.0365 391.5 31.0781C390.615 32.1094 389.505 32.9062 388.172 33.4688C386.839 34.0312 385.276 34.3125 383.484 34.3125C381.661 34.3125 380.078 34.0312 378.734 33.4688C377.401 32.9062 376.292 32.1042 375.406 31.0625C374.531 30.0208 373.875 28.776 373.438 27.3281C373 25.8802 372.781 24.276 372.781 22.5156C372.781 20.1615 373.167 18.1094 373.938 16.3594C374.719 14.599 375.901 13.2344 377.484 12.2656C379.078 11.2865 381.089 10.7969 383.516 10.7969C385.891 10.7969 387.865 11.2812 389.438 12.25C391.01 13.2188 392.188 14.5833 392.969 16.3438C393.76 18.0938 394.156 20.1615 394.156 22.5469ZM376.719 22.5469C376.719 24.3073 376.958 25.8333 377.438 27.125C377.917 28.4062 378.651 29.3958 379.641 30.0938C380.641 30.7812 381.922 31.125 383.484 31.125C385.057 31.125 386.339 30.7812 387.328 30.0938C388.318 29.3958 389.047 28.4062 389.516 27.125C389.984 25.8333 390.219 24.3073 390.219 22.5469C390.219 19.8698 389.682 17.776 388.609 16.2656C387.547 14.7448 385.849 13.9844 383.516 13.9844C381.953 13.9844 380.667 14.3281 379.656 15.0156C378.656 15.7031 377.917 16.6875 377.438 17.9688C376.958 19.2396 376.719 20.7656 376.719 22.5469ZM418.125 34H413.516L402.328 15.7656H402.188C402.229 16.3802 402.266 17.0312 402.297 17.7188C402.339 18.4062 402.37 19.1146 402.391 19.8438C402.422 20.5729 402.448 21.3125 402.469 22.0625V34H399.062V11.1562H403.641L414.812 29.2656H414.922C414.901 28.7344 414.875 28.125 414.844 27.4375C414.812 26.75 414.781 26.0417 414.75 25.3125C414.729 24.5729 414.714 23.8594 414.703 23.1719V11.1562H418.125V34ZM432.047 34H428.281V14.3438H421.594V11.1562H438.719V14.3438H432.047V34ZM440.344 26.9688V23.8594H448.406V26.9688H440.344ZM452.531 34V11.1562H456.281V34H452.531ZM462.312 34V11.1562H466.062V30.8125H475.766V34H462.312ZM492.906 27.7812C492.906 29.1354 492.573 30.3021 491.906 31.2812C491.25 32.2604 490.302 33.0104 489.062 33.5312C487.833 34.0521 486.365 34.3125 484.656 34.3125C483.823 34.3125 483.026 34.2656 482.266 34.1719C481.505 34.0781 480.786 33.9427 480.109 33.7656C479.443 33.5781 478.833 33.3542 478.281 33.0938V29.5625C479.208 29.9688 480.245 30.3385 481.391 30.6719C482.536 30.9948 483.703 31.1562 484.891 31.1562C485.859 31.1562 486.661 31.0312 487.297 30.7812C487.943 30.5208 488.422 30.1562 488.734 29.6875C489.047 29.2083 489.203 28.651 489.203 28.0156C489.203 27.3385 489.021 26.7656 488.656 26.2969C488.292 25.8281 487.74 25.401 487 25.0156C486.271 24.6198 485.354 24.1979 484.25 23.75C483.5 23.4479 482.781 23.1042 482.094 22.7188C481.417 22.3333 480.812 21.8802 480.281 21.3594C479.75 20.8385 479.328 20.224 479.016 19.5156C478.714 18.7969 478.562 17.9531 478.562 16.9844C478.562 15.6927 478.87 14.5885 479.484 13.6719C480.109 12.7552 480.984 12.0521 482.109 11.5625C483.245 11.0729 484.568 10.8281 486.078 10.8281C487.276 10.8281 488.401 10.9531 489.453 11.2031C490.516 11.4531 491.557 11.8073 492.578 12.2656L491.391 15.2812C490.453 14.8958 489.542 14.5885 488.656 14.3594C487.781 14.1302 486.885 14.0156 485.969 14.0156C485.177 14.0156 484.505 14.1354 483.953 14.375C483.401 14.6146 482.979 14.9531 482.688 15.3906C482.406 15.8177 482.266 16.3281 482.266 16.9219C482.266 17.5885 482.427 18.151 482.75 18.6094C483.083 19.0573 483.594 19.4688 484.281 19.8438C484.979 20.2188 485.875 20.6354 486.969 21.0938C488.229 21.6146 489.297 22.1615 490.172 22.7344C491.057 23.3073 491.734 23.9948 492.203 24.7969C492.672 25.5885 492.906 26.5833 492.906 27.7812ZM515.484 34L508.906 14.9219H508.766C508.797 15.349 508.833 15.9323 508.875 16.6719C508.917 17.4115 508.953 18.2031 508.984 19.0469C509.016 19.8906 509.031 20.6979 509.031 21.4688V34H505.625V11.1562H510.891L517.219 29.3906H517.312L523.859 11.1562H529.109V34H525.531V21.2812C525.531 20.5833 525.542 19.8281 525.562 19.0156C525.594 18.2031 525.625 17.4323 525.656 16.7031C525.698 15.974 525.729 15.3906 525.75 14.9531H525.625L518.797 34H515.484ZM549.281 34L547.047 27.6562H538.312L536.078 34H532.125L540.625 11.0625H544.781L553.266 34H549.281ZM546.078 24.4375L543.906 18.1875C543.823 17.9167 543.703 17.5365 543.547 17.0469C543.391 16.5469 543.234 16.0417 543.078 15.5312C542.922 15.0104 542.792 14.5729 542.688 14.2188C542.583 14.6458 542.453 15.125 542.297 15.6562C542.151 16.1771 542.005 16.6667 541.859 17.125C541.724 17.5833 541.62 17.9375 541.547 18.1875L539.359 24.4375H546.078ZM556.281 34V11.1562H560.031V34H556.281ZM585.125 34H580.516L569.328 15.7656H569.188C569.229 16.3802 569.266 17.0312 569.297 17.7188C569.339 18.4062 569.37 19.1146 569.391 19.8438C569.422 20.5729 569.448 21.3125 569.469 22.0625V34H566.062V11.1562H570.641L581.812 29.2656H581.922C581.901 28.7344 581.875 28.125 581.844 27.4375C581.812 26.75 581.781 26.0417 581.75 25.3125C581.729 24.5729 581.714 23.8594 581.703 23.1719V11.1562H585.125V34ZM599.047 34H595.281V14.3438H588.594V11.1562H605.719V14.3438H599.047V34ZM622.156 34H609.219V11.1562H622.156V14.3125H612.969V20.5156H621.578V23.6562H612.969V30.8281H622.156V34ZM646.156 34H641.547L630.359 15.7656H630.219C630.26 16.3802 630.297 17.0312 630.328 17.7188C630.37 18.4062 630.401 19.1146 630.422 19.8438C630.453 20.5729 630.479 21.3125 630.5 22.0625V34H627.094V11.1562H631.672L642.844 29.2656H642.953C642.932 28.7344 642.906 28.125 642.875 27.4375C642.844 26.75 642.812 26.0417 642.781 25.3125C642.76 24.5729 642.745 23.8594 642.734 23.1719V11.1562H646.156V34ZM666.312 34L664.078 27.6562H655.344L653.109 34H649.156L657.656 11.0625H661.812L670.297 34H666.312ZM663.109 24.4375L660.938 18.1875C660.854 17.9167 660.734 17.5365 660.578 17.0469C660.422 16.5469 660.266 16.0417 660.109 15.5312C659.953 15.0104 659.823 14.5729 659.719 14.2188C659.615 14.6458 659.484 15.125 659.328 15.6562C659.182 16.1771 659.036 16.6667 658.891 17.125C658.755 17.5833 658.651 17.9375 658.578 18.1875L656.391 24.4375H663.109ZM692.375 34H687.766L676.578 15.7656H676.438C676.479 16.3802 676.516 17.0312 676.547 17.7188C676.589 18.4062 676.62 19.1146 676.641 19.8438C676.672 20.5729 676.698 21.3125 676.719 22.0625V34H673.312V11.1562H677.891L689.062 29.2656H689.172C689.151 28.7344 689.125 28.125 689.094 27.4375C689.062 26.75 689.031 26.0417 689 25.3125C688.979 24.5729 688.964 23.8594 688.953 23.1719V11.1562H692.375V34ZM706.297 34H702.531V14.3438H695.844V11.1562H712.969V14.3438H706.297V34ZM717.875 27.0312V26.0469C717.875 25.276 717.964 24.6042 718.141 24.0312C718.318 23.4583 718.615 22.9219 719.031 22.4219C719.448 21.9115 720.01 21.3802 720.719 20.8281C721.448 20.2552 722.026 19.7604 722.453 19.3438C722.891 18.9271 723.203 18.5104 723.391 18.0938C723.589 17.6667 723.688 17.1719 723.688 16.6094C723.688 15.724 723.385 15.0521 722.781 14.5938C722.188 14.125 721.349 13.8906 720.266 13.8906C719.307 13.8906 718.406 14.026 717.562 14.2969C716.719 14.5677 715.885 14.9062 715.062 15.3125L713.766 12.5625C714.714 12.0417 715.74 11.625 716.844 11.3125C717.958 10.9896 719.182 10.8281 720.516 10.8281C722.641 10.8281 724.281 11.3438 725.438 12.375C726.604 13.4062 727.188 14.7656 727.188 16.4531C727.188 17.3802 727.042 18.1771 726.75 18.8438C726.458 19.5 726.026 20.1094 725.453 20.6719C724.891 21.224 724.208 21.8073 723.406 22.4219C722.75 22.9427 722.245 23.3958 721.891 23.7812C721.547 24.1562 721.307 24.5365 721.172 24.9219C721.047 25.3073 720.984 25.7708 720.984 26.3125V27.0312H717.875ZM717.281 32.0625C717.281 31.2083 717.5 30.6094 717.938 30.2656C718.385 29.9115 718.932 29.7344 719.578 29.7344C720.203 29.7344 720.74 29.9115 721.188 30.2656C721.635 30.6094 721.859 31.2083 721.859 32.0625C721.859 32.8958 721.635 33.5 721.188 33.875C720.74 34.2396 720.203 34.4219 719.578 34.4219C718.932 34.4219 718.385 34.2396 717.938 33.875C717.5 33.5 717.281 32.8958 717.281 32.0625Z" fill="black"/>
</svg>
