<svg width="654" height="89" viewBox="0 0 654 89" fill="none" xmlns="http://www.w3.org/2000/svg">
<path d="M171.5 14.5H235.5" stroke="#0061B1" stroke-width="4"/>
<path opacity="0.7" d="M261.614 23V5.54545H267.511C268.881 5.54545 270 5.79261 270.869 6.28693C271.744 6.77557 272.392 7.4375 272.812 8.27273C273.233 9.10795 273.443 10.0398 273.443 11.0682C273.443 12.0966 273.233 13.0312 272.812 13.8722C272.398 14.7131 271.756 15.3835 270.886 15.8835C270.017 16.3778 268.903 16.625 267.545 16.625H263.318V14.75H267.477C268.415 14.75 269.168 14.5881 269.736 14.2642C270.304 13.9403 270.716 13.5028 270.972 12.9517C271.233 12.3949 271.364 11.767 271.364 11.0682C271.364 10.3693 271.233 9.74432 270.972 9.19318C270.716 8.64205 270.301 8.21023 269.727 7.89773C269.153 7.57955 268.392 7.42045 267.443 7.42045H263.727V23H261.614ZM282.233 23.2727C281.051 23.2727 280.014 22.9915 279.122 22.429C278.236 21.8665 277.542 21.0795 277.042 20.0682C276.548 19.0568 276.301 17.875 276.301 16.5227C276.301 15.1591 276.548 13.9687 277.042 12.9517C277.542 11.9347 278.236 11.1449 279.122 10.5824C280.014 10.0199 281.051 9.73864 282.233 9.73864C283.415 9.73864 284.449 10.0199 285.335 10.5824C286.227 11.1449 286.92 11.9347 287.415 12.9517C287.915 13.9687 288.165 15.1591 288.165 16.5227C288.165 17.875 287.915 19.0568 287.415 20.0682C286.92 21.0795 286.227 21.8665 285.335 22.429C284.449 22.9915 283.415 23.2727 282.233 23.2727ZM282.233 21.4659C283.131 21.4659 283.869 21.2358 284.449 20.7756C285.028 20.3153 285.457 19.7102 285.736 18.9602C286.014 18.2102 286.153 17.3977 286.153 16.5227C286.153 15.6477 286.014 14.8324 285.736 14.0767C285.457 13.321 285.028 12.7102 284.449 12.2443C283.869 11.7784 283.131 11.5455 282.233 11.5455C281.335 11.5455 280.596 11.7784 280.017 12.2443C279.437 12.7102 279.008 13.321 278.73 14.0767C278.452 14.8324 278.312 15.6477 278.312 16.5227C278.312 17.3977 278.452 18.2102 278.73 18.9602C279.008 19.7102 279.437 20.3153 280.017 20.7756C280.596 21.2358 281.335 21.4659 282.233 21.4659ZM299.965 17.6477V9.90909H301.976V23H299.965V20.7841H299.829C299.522 21.4489 299.045 22.0142 298.397 22.4801C297.749 22.9403 296.931 23.1705 295.942 23.1705C295.124 23.1705 294.397 22.9915 293.76 22.6335C293.124 22.2699 292.624 21.7244 292.26 20.9972C291.897 20.2642 291.715 19.3409 291.715 18.2273V9.90909H293.726V18.0909C293.726 19.0455 293.993 19.8068 294.527 20.375C295.067 20.9432 295.755 21.2273 296.59 21.2273C297.09 21.2273 297.598 21.0994 298.116 20.8438C298.638 20.5881 299.076 20.196 299.428 19.6676C299.786 19.1392 299.965 18.4659 299.965 17.6477ZM306.14 23V9.90909H308.083V11.8864H308.22C308.458 11.2386 308.89 10.7131 309.515 10.3097C310.14 9.90625 310.845 9.70454 311.629 9.70454C311.777 9.70454 311.961 9.70739 312.183 9.71307C312.404 9.71875 312.572 9.72727 312.686 9.73864V11.7841C312.618 11.767 312.461 11.7415 312.217 11.7074C311.978 11.6676 311.726 11.6477 311.458 11.6477C310.822 11.6477 310.254 11.7812 309.754 12.0483C309.26 12.3097 308.868 12.6733 308.578 13.1392C308.294 13.5994 308.152 14.125 308.152 14.7159V23H306.14ZM324.083 27.9091V20.9886H323.913C323.765 21.2273 323.555 21.5284 323.282 21.892C323.009 22.25 322.62 22.571 322.115 22.8551C321.609 23.1335 320.936 23.2727 320.095 23.2727C319.004 23.2727 318.041 22.9972 317.206 22.446C316.37 21.8892 315.717 21.1051 315.245 20.0938C314.774 19.0767 314.538 17.875 314.538 16.4886C314.538 15.1136 314.774 13.9205 315.245 12.9091C315.717 11.8977 316.373 11.1165 317.214 10.5653C318.055 10.0142 319.027 9.73864 320.129 9.73864C320.981 9.73864 321.654 9.88068 322.149 10.1648C322.649 10.4432 323.029 10.7614 323.291 11.1193C323.558 11.4716 323.765 11.7614 323.913 11.9886H324.152V9.90909H326.095V27.9091H324.083ZM320.367 21.4659C321.174 21.4659 321.856 21.2557 322.413 20.8352C322.97 20.4091 323.393 19.821 323.683 19.071C323.973 18.3153 324.117 17.4432 324.117 16.4545C324.117 15.4773 323.975 14.6222 323.691 13.8892C323.407 13.1506 322.987 12.5767 322.43 12.1676C321.873 11.7528 321.186 11.5455 320.367 11.5455C319.515 11.5455 318.805 11.7642 318.237 12.2017C317.674 12.6335 317.251 13.2216 316.967 13.9659C316.688 14.7045 316.549 15.5341 316.549 16.4545C316.549 17.3864 316.691 18.233 316.975 18.9943C317.265 19.75 317.691 20.3523 318.254 20.8011C318.822 21.2443 319.527 21.4659 320.367 21.4659ZM335.575 23.2727C334.393 23.2727 333.356 22.9915 332.464 22.429C331.578 21.8665 330.884 21.0795 330.384 20.0682C329.89 19.0568 329.643 17.875 329.643 16.5227C329.643 15.1591 329.89 13.9687 330.384 12.9517C330.884 11.9347 331.578 11.1449 332.464 10.5824C333.356 10.0199 334.393 9.73864 335.575 9.73864C336.757 9.73864 337.791 10.0199 338.677 10.5824C339.569 11.1449 340.262 11.9347 340.757 12.9517C341.257 13.9687 341.507 15.1591 341.507 16.5227C341.507 17.875 341.257 19.0568 340.757 20.0682C340.262 21.0795 339.569 21.8665 338.677 22.429C337.791 22.9915 336.757 23.2727 335.575 23.2727ZM335.575 21.4659C336.472 21.4659 337.211 21.2358 337.791 20.7756C338.37 20.3153 338.799 19.7102 339.078 18.9602C339.356 18.2102 339.495 17.3977 339.495 16.5227C339.495 15.6477 339.356 14.8324 339.078 14.0767C338.799 13.321 338.37 12.7102 337.791 12.2443C337.211 11.7784 336.472 11.5455 335.575 11.5455C334.677 11.5455 333.938 11.7784 333.359 12.2443C332.779 12.7102 332.35 13.321 332.072 14.0767C331.793 14.8324 331.654 15.6477 331.654 16.5227C331.654 17.3977 331.793 18.2102 332.072 18.9602C332.35 19.7102 332.779 20.3153 333.359 20.7756C333.938 21.2358 334.677 21.4659 335.575 21.4659ZM353.307 17.6477V9.90909H355.318V23H353.307V20.7841H353.17C352.864 21.4489 352.386 22.0142 351.739 22.4801C351.091 22.9403 350.273 23.1705 349.284 23.1705C348.466 23.1705 347.739 22.9915 347.102 22.6335C346.466 22.2699 345.966 21.7244 345.602 20.9972C345.239 20.2642 345.057 19.3409 345.057 18.2273V9.90909H347.068V18.0909C347.068 19.0455 347.335 19.8068 347.869 20.375C348.409 20.9432 349.097 21.2273 349.932 21.2273C350.432 21.2273 350.94 21.0994 351.457 20.8438C351.98 20.5881 352.418 20.196 352.77 19.6676C353.128 19.1392 353.307 18.4659 353.307 17.6477ZM359.482 23V9.90909H361.494V23H359.482ZM360.505 7.72727C360.113 7.72727 359.775 7.59375 359.491 7.3267C359.212 7.05966 359.073 6.73864 359.073 6.36364C359.073 5.98864 359.212 5.66761 359.491 5.40057C359.775 5.13352 360.113 5 360.505 5C360.897 5 361.232 5.13352 361.511 5.40057C361.795 5.66761 361.937 5.98864 361.937 6.36364C361.937 6.73864 361.795 7.05966 361.511 7.3267C361.232 7.59375 360.897 7.72727 360.505 7.72727ZM378.206 23.2727C376.978 23.2727 375.922 22.983 375.035 22.4034C374.149 21.8239 373.467 21.0256 372.99 20.0085C372.512 18.9915 372.274 17.8295 372.274 16.5227C372.274 15.1932 372.518 14.0199 373.007 13.0028C373.501 11.9801 374.189 11.1818 375.069 10.608C375.956 10.0284 376.99 9.73864 378.172 9.73864C379.092 9.73864 379.922 9.90909 380.66 10.25C381.399 10.5909 382.004 11.0682 382.476 11.6818C382.947 12.2955 383.24 13.0114 383.353 13.8295H381.342C381.189 13.233 380.848 12.7045 380.319 12.2443C379.797 11.7784 379.092 11.5455 378.206 11.5455C377.422 11.5455 376.734 11.75 376.143 12.1591C375.558 12.5625 375.101 13.1335 374.771 13.8722C374.447 14.6051 374.285 15.4659 374.285 16.4545C374.285 17.4659 374.444 18.3466 374.762 19.0966C375.086 19.8466 375.541 20.429 376.126 20.8438C376.717 21.2585 377.41 21.4659 378.206 21.4659C378.728 21.4659 379.203 21.375 379.629 21.1932C380.055 21.0114 380.416 20.75 380.711 20.4091C381.007 20.0682 381.217 19.6591 381.342 19.1818H383.353C383.24 19.9545 382.958 20.6506 382.51 21.2699C382.066 21.8835 381.478 22.3722 380.745 22.7358C380.018 23.0938 379.172 23.2727 378.206 23.2727ZM392.262 23.2727C391.001 23.2727 389.913 22.9943 388.998 22.4375C388.089 21.875 387.387 21.0909 386.893 20.0852C386.404 19.0739 386.16 17.8977 386.16 16.5568C386.16 15.2159 386.404 14.0341 386.893 13.0114C387.387 11.983 388.075 11.1818 388.956 10.608C389.842 10.0284 390.876 9.73864 392.058 9.73864C392.74 9.73864 393.413 9.85227 394.078 10.0795C394.742 10.3068 395.348 10.6761 395.893 11.1875C396.438 11.6932 396.873 12.3636 397.197 13.1989C397.521 14.0341 397.683 15.0625 397.683 16.2841V17.1364H387.592V15.3977H395.637C395.637 14.6591 395.49 14 395.194 13.4205C394.904 12.8409 394.49 12.3835 393.95 12.0483C393.416 11.7131 392.785 11.5455 392.058 11.5455C391.257 11.5455 390.563 11.7443 389.978 12.142C389.399 12.5341 388.953 13.0455 388.64 13.6761C388.328 14.3068 388.171 14.983 388.171 15.7045V16.8636C388.171 17.8523 388.342 18.6903 388.683 19.3778C389.029 20.0597 389.51 20.5795 390.123 20.9375C390.737 21.2898 391.45 21.4659 392.262 21.4659C392.791 21.4659 393.268 21.392 393.694 21.2443C394.126 21.0909 394.498 20.8636 394.811 20.5625C395.123 20.2557 395.365 19.875 395.535 19.4205L397.478 19.9659C397.274 20.625 396.93 21.2045 396.447 21.7045C395.964 22.1989 395.367 22.5852 394.657 22.8636C393.947 23.1364 393.149 23.2727 392.262 23.2727ZM410.495 12.8409L408.688 13.3523C408.575 13.0511 408.407 12.7585 408.186 12.4744C407.97 12.1847 407.674 11.946 407.299 11.7585C406.924 11.571 406.444 11.4773 405.859 11.4773C405.058 11.4773 404.39 11.6619 403.856 12.0312C403.328 12.3949 403.063 12.858 403.063 13.4205C403.063 13.9205 403.245 14.3153 403.609 14.6051C403.972 14.8949 404.541 15.1364 405.313 15.3295L407.257 15.8068C408.427 16.0909 409.299 16.5256 409.873 17.1108C410.447 17.6903 410.734 18.4375 410.734 19.3523C410.734 20.1023 410.518 20.7727 410.086 21.3636C409.66 21.9545 409.063 22.4205 408.296 22.7614C407.529 23.1023 406.637 23.2727 405.62 23.2727C404.285 23.2727 403.18 22.983 402.305 22.4034C401.43 21.8239 400.876 20.9773 400.643 19.8636L402.552 19.3864C402.734 20.0909 403.078 20.6193 403.583 20.9716C404.095 21.3239 404.762 21.5 405.586 21.5C406.524 21.5 407.268 21.3011 407.819 20.9034C408.376 20.5 408.654 20.017 408.654 19.4545C408.654 19 408.495 18.6193 408.177 18.3125C407.859 18 407.37 17.767 406.711 17.6136L404.529 17.1023C403.33 16.8182 402.45 16.3778 401.887 15.7812C401.33 15.179 401.052 14.4261 401.052 13.5227C401.052 12.7841 401.259 12.1307 401.674 11.5625C402.095 10.9943 402.666 10.5483 403.387 10.2244C404.115 9.90057 404.938 9.73864 405.859 9.73864C407.154 9.73864 408.171 10.0227 408.91 10.5909C409.654 11.1591 410.183 11.9091 410.495 12.8409ZM426.79 23.2727C425.562 23.2727 424.506 22.983 423.619 22.4034C422.733 21.8239 422.051 21.0256 421.574 20.0085C421.097 18.9915 420.858 17.8295 420.858 16.5227C420.858 15.1932 421.102 14.0199 421.591 13.0028C422.085 11.9801 422.773 11.1818 423.653 10.608C424.54 10.0284 425.574 9.73864 426.756 9.73864C427.676 9.73864 428.506 9.90909 429.244 10.25C429.983 10.5909 430.588 11.0682 431.06 11.6818C431.531 12.2955 431.824 13.0114 431.937 13.8295H429.926C429.773 13.233 429.432 12.7045 428.903 12.2443C428.381 11.7784 427.676 11.5455 426.79 11.5455C426.006 11.5455 425.318 11.75 424.727 12.1591C424.142 12.5625 423.685 13.1335 423.355 13.8722C423.031 14.6051 422.869 15.4659 422.869 16.4545C422.869 17.4659 423.028 18.3466 423.347 19.0966C423.67 19.8466 424.125 20.429 424.71 20.8438C425.301 21.2585 425.994 21.4659 426.79 21.4659C427.312 21.4659 427.787 21.375 428.213 21.1932C428.639 21.0114 429 20.75 429.295 20.4091C429.591 20.0682 429.801 19.6591 429.926 19.1818H431.937C431.824 19.9545 431.543 20.6506 431.094 21.2699C430.651 21.8835 430.062 22.3722 429.329 22.7358C428.602 23.0938 427.756 23.2727 426.79 23.2727ZM437.369 5.54545V23H435.358V5.54545H437.369ZM449.783 17.6477V9.90909H451.794V23H449.783V20.7841H449.647C449.34 21.4489 448.863 22.0142 448.215 22.4801C447.567 22.9403 446.749 23.1705 445.76 23.1705C444.942 23.1705 444.215 22.9915 443.579 22.6335C442.942 22.2699 442.442 21.7244 442.079 20.9972C441.715 20.2642 441.533 19.3409 441.533 18.2273V9.90909H443.544V18.0909C443.544 19.0455 443.812 19.8068 444.346 20.375C444.885 20.9432 445.573 21.2273 446.408 21.2273C446.908 21.2273 447.417 21.0994 447.934 20.8438C448.456 20.5881 448.894 20.196 449.246 19.6676C449.604 19.1392 449.783 18.4659 449.783 17.6477ZM456.231 23V5.54545H458.242V11.9886H458.413C458.561 11.7614 458.765 11.4716 459.027 11.1193C459.294 10.7614 459.674 10.4432 460.169 10.1648C460.669 9.88068 461.345 9.73864 462.197 9.73864C463.299 9.73864 464.271 10.0142 465.112 10.5653C465.953 11.1165 466.609 11.8977 467.081 12.9091C467.552 13.9205 467.788 15.1136 467.788 16.4886C467.788 17.875 467.552 19.0767 467.081 20.0938C466.609 21.1051 465.956 21.8892 465.12 22.446C464.285 22.9972 463.322 23.2727 462.231 23.2727C461.39 23.2727 460.717 23.1335 460.211 22.8551C459.706 22.571 459.316 22.25 459.044 21.892C458.771 21.5284 458.561 21.2273 458.413 20.9886H458.174V23H456.231ZM458.208 16.4545C458.208 17.4432 458.353 18.3153 458.643 19.071C458.933 19.821 459.356 20.4091 459.913 20.8352C460.47 21.2557 461.152 21.4659 461.958 21.4659C462.799 21.4659 463.501 21.2443 464.064 20.8011C464.632 20.3523 465.058 19.75 465.342 18.9943C465.632 18.233 465.777 17.3864 465.777 16.4545C465.777 15.5341 465.635 14.7045 465.35 13.9659C465.072 13.2216 464.649 12.6335 464.081 12.2017C463.518 11.7642 462.811 11.5455 461.958 11.5455C461.14 11.5455 460.453 11.7528 459.896 12.1676C459.339 12.5767 458.919 13.1506 458.635 13.8892C458.35 14.6222 458.208 15.4773 458.208 16.4545ZM480.617 12.8409L478.811 13.3523C478.697 13.0511 478.529 12.7585 478.308 12.4744C478.092 12.1847 477.796 11.946 477.421 11.7585C477.046 11.571 476.566 11.4773 475.981 11.4773C475.18 11.4773 474.512 11.6619 473.978 12.0312C473.45 12.3949 473.186 12.858 473.186 13.4205C473.186 13.9205 473.367 14.3153 473.731 14.6051C474.095 14.8949 474.663 15.1364 475.436 15.3295L477.379 15.8068C478.549 16.0909 479.421 16.5256 479.995 17.1108C480.569 17.6903 480.856 18.4375 480.856 19.3523C480.856 20.1023 480.64 20.7727 480.208 21.3636C479.782 21.9545 479.186 22.4205 478.419 22.7614C477.651 23.1023 476.759 23.2727 475.742 23.2727C474.407 23.2727 473.302 22.983 472.427 22.4034C471.552 21.8239 470.998 20.9773 470.765 19.8636L472.674 19.3864C472.856 20.0909 473.2 20.6193 473.705 20.9716C474.217 21.3239 474.884 21.5 475.708 21.5C476.646 21.5 477.39 21.3011 477.941 20.9034C478.498 20.5 478.776 20.017 478.776 19.4545C478.776 19 478.617 18.6193 478.299 18.3125C477.981 18 477.492 17.767 476.833 17.6136L474.651 17.1023C473.453 16.8182 472.572 16.3778 472.009 15.7812C471.453 15.179 471.174 14.4261 471.174 13.5227C471.174 12.7841 471.382 12.1307 471.796 11.5625C472.217 10.9943 472.788 10.5483 473.509 10.2244C474.237 9.90057 475.061 9.73864 475.981 9.73864C477.276 9.73864 478.294 10.0227 479.032 10.5909C479.776 11.1591 480.305 11.9091 480.617 12.8409Z" fill="#1A2434"/>
<path d="M2.99466 81V54.18H6.95466L17.0347 68.148H15.0547L24.9547 54.18H28.9147V81H24.7027V59.184L26.2867 59.616L16.1707 73.44H15.7387L5.83866 59.616L7.24266 59.184V81H2.99466ZM43.2075 81.432C41.2635 81.432 39.5355 80.988 38.0235 80.1C36.5355 79.188 35.3715 77.964 34.5315 76.428C33.6915 74.868 33.2715 73.128 33.2715 71.208C33.2715 69.24 33.6915 67.5 34.5315 65.988C35.3955 64.476 36.5475 63.288 37.9875 62.424C39.4275 61.536 41.0595 61.092 42.8835 61.092C44.3475 61.092 45.6555 61.344 46.8075 61.848C47.9595 62.352 48.9315 63.048 49.7235 63.936C50.5155 64.8 51.1155 65.796 51.5235 66.924C51.9555 68.052 52.1715 69.252 52.1715 70.524C52.1715 70.836 52.1595 71.16 52.1355 71.496C52.1115 71.832 52.0635 72.144 51.9915 72.432H36.4755V69.192H49.6875L47.7435 70.668C47.9835 69.492 47.8995 68.448 47.4915 67.536C47.1075 66.6 46.5075 65.868 45.6915 65.34C44.8995 64.788 43.9635 64.512 42.8835 64.512C41.8035 64.512 40.8435 64.788 40.0035 65.34C39.1635 65.868 38.5155 66.636 38.0595 67.644C37.6035 68.628 37.4235 69.828 37.5195 71.244C37.3995 72.564 37.5795 73.716 38.0595 74.7C38.5635 75.684 39.2595 76.452 40.1475 77.004C41.0595 77.556 42.0915 77.832 43.2435 77.832C44.4195 77.832 45.4155 77.568 46.2315 77.04C47.0715 76.512 47.7315 75.828 48.2115 74.988L51.5235 76.608C51.1395 77.52 50.5395 78.348 49.7235 79.092C48.9315 79.812 47.9715 80.388 46.8435 80.82C45.7395 81.228 44.5275 81.432 43.2075 81.432ZM56.1416 81V61.524H60.2096V81H56.1416ZM56.1416 58.86V54.18H60.2096V58.86H56.1416ZM64.9658 81V53.748H69.0338V81H64.9658ZM73.7901 81V53.748H77.8581V81H73.7901ZM91.7583 81.432C89.8143 81.432 88.0863 80.988 86.5743 80.1C85.0863 79.188 83.9223 77.964 83.0823 76.428C82.2423 74.868 81.8223 73.128 81.8223 71.208C81.8223 69.24 82.2423 67.5 83.0823 65.988C83.9463 64.476 85.0983 63.288 86.5383 62.424C87.9783 61.536 89.6103 61.092 91.4343 61.092C92.8983 61.092 94.2063 61.344 95.3583 61.848C96.5103 62.352 97.4823 63.048 98.2743 63.936C99.0663 64.8 99.6663 65.796 100.074 66.924C100.506 68.052 100.722 69.252 100.722 70.524C100.722 70.836 100.71 71.16 100.686 71.496C100.662 71.832 100.614 72.144 100.542 72.432H85.0263V69.192H98.2383L96.2943 70.668C96.5343 69.492 96.4503 68.448 96.0423 67.536C95.6583 66.6 95.0583 65.868 94.2423 65.34C93.4503 64.788 92.5143 64.512 91.4343 64.512C90.3543 64.512 89.3943 64.788 88.5543 65.34C87.7143 65.868 87.0663 66.636 86.6103 67.644C86.1543 68.628 85.9743 69.828 86.0703 71.244C85.9503 72.564 86.1303 73.716 86.6103 74.7C87.1143 75.684 87.8103 76.452 88.6983 77.004C89.6103 77.556 90.6423 77.832 91.7943 77.832C92.9703 77.832 93.9663 77.568 94.7823 77.04C95.6223 76.512 96.2823 75.828 96.7623 74.988L100.074 76.608C99.6903 77.52 99.0903 78.348 98.2743 79.092C97.4823 79.812 96.5223 80.388 95.3943 80.82C94.2903 81.228 93.0783 81.432 91.7583 81.432ZM111.64 81.432C110.176 81.432 108.892 81.108 107.788 80.46C106.684 79.788 105.82 78.864 105.196 77.688C104.596 76.488 104.296 75.108 104.296 73.548V61.524H108.364V73.188C108.364 74.076 108.544 74.856 108.904 75.528C109.264 76.2 109.768 76.728 110.416 77.112C111.064 77.472 111.808 77.652 112.648 77.652C113.512 77.652 114.268 77.46 114.916 77.076C115.564 76.692 116.068 76.152 116.428 75.456C116.812 74.76 117.004 73.944 117.004 73.008V61.524H121.036V81H117.184V77.184L117.616 77.688C117.16 78.888 116.404 79.812 115.348 80.46C114.292 81.108 113.056 81.432 111.64 81.432ZM125.786 81V61.524H129.674V65.448L129.314 64.872C129.746 63.6 130.442 62.688 131.402 62.136C132.362 61.56 133.514 61.272 134.858 61.272H136.046V64.98H134.354C133.01 64.98 131.918 65.4 131.078 66.24C130.262 67.056 129.854 68.232 129.854 69.768V81H125.786ZM147.973 81.432C146.029 81.432 144.301 80.988 142.789 80.1C141.301 79.188 140.137 77.964 139.297 76.428C138.457 74.868 138.037 73.128 138.037 71.208C138.037 69.24 138.457 67.5 139.297 65.988C140.161 64.476 141.313 63.288 142.753 62.424C144.193 61.536 145.825 61.092 147.649 61.092C149.113 61.092 150.421 61.344 151.573 61.848C152.725 62.352 153.697 63.048 154.489 63.936C155.281 64.8 155.881 65.796 156.289 66.924C156.721 68.052 156.937 69.252 156.937 70.524C156.937 70.836 156.925 71.16 156.901 71.496C156.877 71.832 156.829 72.144 156.757 72.432H141.241V69.192H154.453L152.509 70.668C152.749 69.492 152.665 68.448 152.257 67.536C151.873 66.6 151.273 65.868 150.457 65.34C149.665 64.788 148.729 64.512 147.649 64.512C146.569 64.512 145.609 64.788 144.769 65.34C143.929 65.868 143.281 66.636 142.825 67.644C142.369 68.628 142.189 69.828 142.285 71.244C142.165 72.564 142.345 73.716 142.825 74.7C143.329 75.684 144.025 76.452 144.913 77.004C145.825 77.556 146.857 77.832 148.009 77.832C149.185 77.832 150.181 77.568 150.997 77.04C151.837 76.512 152.497 75.828 152.977 74.988L156.289 76.608C155.905 77.52 155.305 78.348 154.489 79.092C153.697 79.812 152.737 80.388 151.609 80.82C150.505 81.228 149.293 81.432 147.973 81.432ZM176.344 81.432C174.4 81.432 172.672 80.988 171.16 80.1C169.672 79.188 168.508 77.964 167.668 76.428C166.828 74.868 166.408 73.128 166.408 71.208C166.408 69.24 166.828 67.5 167.668 65.988C168.532 64.476 169.684 63.288 171.124 62.424C172.564 61.536 174.196 61.092 176.02 61.092C177.484 61.092 178.792 61.344 179.944 61.848C181.096 62.352 182.068 63.048 182.86 63.936C183.652 64.8 184.252 65.796 184.66 66.924C185.092 68.052 185.308 69.252 185.308 70.524C185.308 70.836 185.296 71.16 185.272 71.496C185.248 71.832 185.2 72.144 185.128 72.432H169.612V69.192H182.824L180.88 70.668C181.12 69.492 181.036 68.448 180.628 67.536C180.244 66.6 179.644 65.868 178.828 65.34C178.036 64.788 177.1 64.512 176.02 64.512C174.94 64.512 173.98 64.788 173.14 65.34C172.3 65.868 171.652 66.636 171.196 67.644C170.74 68.628 170.56 69.828 170.656 71.244C170.536 72.564 170.716 73.716 171.196 74.7C171.7 75.684 172.396 76.452 173.284 77.004C174.196 77.556 175.228 77.832 176.38 77.832C177.556 77.832 178.552 77.568 179.368 77.04C180.208 76.512 180.868 75.828 181.348 74.988L184.66 76.608C184.276 77.52 183.676 78.348 182.86 79.092C182.068 79.812 181.108 80.388 179.98 80.82C178.876 81.228 177.664 81.432 176.344 81.432ZM186.983 81L193.787 71.244L186.983 61.524H191.771L197.351 69.66H195.047L200.627 61.524H205.415L198.575 71.244L205.379 81H200.591L195.083 72.828H197.315L191.771 81H186.983ZM208.192 88.2V61.524H212.08V65.556L211.612 64.62C212.332 63.516 213.292 62.652 214.492 62.028C215.692 61.404 217.06 61.092 218.596 61.092C220.444 61.092 222.1 61.536 223.564 62.424C225.052 63.312 226.216 64.524 227.056 66.06C227.92 67.596 228.352 69.324 228.352 71.244C228.352 73.164 227.92 74.892 227.056 76.428C226.216 77.964 225.064 79.188 223.6 80.1C222.136 80.988 220.468 81.432 218.596 81.432C217.084 81.432 215.704 81.12 214.456 80.496C213.232 79.872 212.284 78.972 211.612 77.796L212.26 77.04V88.2H208.192ZM218.2 77.652C219.352 77.652 220.372 77.376 221.26 76.824C222.148 76.272 222.844 75.516 223.348 74.556C223.876 73.572 224.14 72.468 224.14 71.244C224.14 70.02 223.876 68.928 223.348 67.968C222.844 67.008 222.148 66.252 221.26 65.7C220.372 65.148 219.352 64.872 218.2 64.872C217.072 64.872 216.052 65.148 215.14 65.7C214.252 66.252 213.544 67.008 213.016 67.968C212.512 68.928 212.26 70.02 212.26 71.244C212.26 72.468 212.512 73.572 213.016 74.556C213.544 75.516 214.252 76.272 215.14 76.824C216.052 77.376 217.072 77.652 218.2 77.652ZM241.454 81.432C239.51 81.432 237.782 80.988 236.27 80.1C234.782 79.188 233.618 77.964 232.778 76.428C231.938 74.868 231.518 73.128 231.518 71.208C231.518 69.24 231.938 67.5 232.778 65.988C233.642 64.476 234.794 63.288 236.234 62.424C237.674 61.536 239.306 61.092 241.13 61.092C242.594 61.092 243.902 61.344 245.054 61.848C246.206 62.352 247.178 63.048 247.97 63.936C248.762 64.8 249.362 65.796 249.77 66.924C250.202 68.052 250.418 69.252 250.418 70.524C250.418 70.836 250.406 71.16 250.382 71.496C250.358 71.832 250.31 72.144 250.238 72.432H234.722V69.192H247.934L245.99 70.668C246.23 69.492 246.146 68.448 245.738 67.536C245.354 66.6 244.754 65.868 243.938 65.34C243.146 64.788 242.21 64.512 241.13 64.512C240.05 64.512 239.09 64.788 238.25 65.34C237.41 65.868 236.762 66.636 236.306 67.644C235.85 68.628 235.67 69.828 235.766 71.244C235.646 72.564 235.826 73.716 236.306 74.7C236.81 75.684 237.506 76.452 238.394 77.004C239.306 77.556 240.338 77.832 241.49 77.832C242.666 77.832 243.662 77.568 244.478 77.04C245.318 76.512 245.978 75.828 246.458 74.988L249.77 76.608C249.386 77.52 248.786 78.348 247.97 79.092C247.178 79.812 246.218 80.388 245.09 80.82C243.986 81.228 242.774 81.432 241.454 81.432ZM238.97 57.96L241.598 52.02H246.926L243.002 57.96H238.97ZM254.388 81V61.524H258.276V65.448L257.916 64.872C258.348 63.6 259.044 62.688 260.004 62.136C260.964 61.56 262.116 61.272 263.46 61.272H264.648V64.98H262.956C261.612 64.98 260.52 65.4 259.68 66.24C258.864 67.056 258.456 68.232 258.456 69.768V81H254.388ZM267.431 81V61.524H271.499V81H267.431ZM267.431 58.86V54.18H271.499V58.86H267.431ZM285.399 81.432C283.455 81.432 281.727 80.988 280.215 80.1C278.727 79.188 277.563 77.964 276.723 76.428C275.883 74.868 275.463 73.128 275.463 71.208C275.463 69.24 275.883 67.5 276.723 65.988C277.587 64.476 278.739 63.288 280.179 62.424C281.619 61.536 283.251 61.092 285.075 61.092C286.539 61.092 287.847 61.344 288.999 61.848C290.151 62.352 291.123 63.048 291.915 63.936C292.707 64.8 293.307 65.796 293.715 66.924C294.147 68.052 294.363 69.252 294.363 70.524C294.363 70.836 294.351 71.16 294.327 71.496C294.303 71.832 294.255 72.144 294.183 72.432H278.667V69.192H291.879L289.935 70.668C290.175 69.492 290.091 68.448 289.683 67.536C289.299 66.6 288.699 65.868 287.883 65.34C287.091 64.788 286.155 64.512 285.075 64.512C283.995 64.512 283.035 64.788 282.195 65.34C281.355 65.868 280.707 66.636 280.251 67.644C279.795 68.628 279.615 69.828 279.711 71.244C279.591 72.564 279.771 73.716 280.251 74.7C280.755 75.684 281.451 76.452 282.339 77.004C283.251 77.556 284.283 77.832 285.435 77.832C286.611 77.832 287.607 77.568 288.423 77.04C289.263 76.512 289.923 75.828 290.403 74.988L293.715 76.608C293.331 77.52 292.731 78.348 291.915 79.092C291.123 79.812 290.163 80.388 289.035 80.82C287.931 81.228 286.719 81.432 285.399 81.432ZM298.333 81V61.524H302.221V65.34L301.753 64.836C302.233 63.612 303.001 62.688 304.057 62.064C305.113 61.416 306.337 61.092 307.729 61.092C309.169 61.092 310.441 61.404 311.545 62.028C312.649 62.652 313.513 63.516 314.137 64.62C314.761 65.724 315.073 66.996 315.073 68.436V81H311.041V69.516C311.041 68.532 310.861 67.704 310.501 67.032C310.141 66.336 309.625 65.808 308.953 65.448C308.305 65.064 307.561 64.872 306.721 64.872C305.881 64.872 305.125 65.064 304.453 65.448C303.805 65.808 303.301 66.336 302.941 67.032C302.581 67.728 302.401 68.556 302.401 69.516V81H298.333ZM328.679 81.432C326.735 81.432 325.007 80.988 323.495 80.1C322.007 79.188 320.819 77.964 319.931 76.428C319.067 74.892 318.635 73.152 318.635 71.208C318.635 69.288 319.067 67.56 319.931 66.024C320.795 64.488 321.983 63.288 323.495 62.424C325.007 61.536 326.735 61.092 328.679 61.092C329.999 61.092 331.235 61.332 332.387 61.812C333.539 62.268 334.535 62.904 335.375 63.72C336.239 64.536 336.875 65.484 337.283 66.564L333.719 68.22C333.311 67.212 332.651 66.408 331.739 65.808C330.851 65.184 329.831 64.872 328.679 64.872C327.575 64.872 326.579 65.148 325.691 65.7C324.827 66.228 324.143 66.984 323.639 67.968C323.135 68.928 322.883 70.02 322.883 71.244C322.883 72.468 323.135 73.572 323.639 74.556C324.143 75.516 324.827 76.272 325.691 76.824C326.579 77.376 327.575 77.652 328.679 77.652C329.855 77.652 330.875 77.352 331.739 76.752C332.627 76.128 333.287 75.3 333.719 74.268L337.283 75.96C336.899 76.992 336.275 77.928 335.411 78.768C334.571 79.584 333.575 80.232 332.423 80.712C331.271 81.192 330.023 81.432 328.679 81.432ZM350.403 81.432C348.459 81.432 346.731 80.988 345.219 80.1C343.731 79.188 342.567 77.964 341.727 76.428C340.887 74.868 340.467 73.128 340.467 71.208C340.467 69.24 340.887 67.5 341.727 65.988C342.591 64.476 343.743 63.288 345.183 62.424C346.623 61.536 348.255 61.092 350.079 61.092C351.543 61.092 352.851 61.344 354.003 61.848C355.155 62.352 356.127 63.048 356.919 63.936C357.711 64.8 358.311 65.796 358.719 66.924C359.151 68.052 359.367 69.252 359.367 70.524C359.367 70.836 359.355 71.16 359.331 71.496C359.307 71.832 359.259 72.144 359.187 72.432H343.671V69.192H356.883L354.939 70.668C355.179 69.492 355.095 68.448 354.687 67.536C354.303 66.6 353.703 65.868 352.887 65.34C352.095 64.788 351.159 64.512 350.079 64.512C348.999 64.512 348.039 64.788 347.199 65.34C346.359 65.868 345.711 66.636 345.255 67.644C344.799 68.628 344.619 69.828 344.715 71.244C344.595 72.564 344.775 73.716 345.255 74.7C345.759 75.684 346.455 76.452 347.343 77.004C348.255 77.556 349.287 77.832 350.439 77.832C351.615 77.832 352.611 77.568 353.427 77.04C354.267 76.512 354.927 75.828 355.407 74.988L358.719 76.608C358.335 77.52 357.735 78.348 356.919 79.092C356.127 79.812 355.167 80.388 354.039 80.82C352.935 81.228 351.723 81.432 350.403 81.432ZM378.63 81.432C376.758 81.432 375.078 80.988 373.59 80.1C372.126 79.188 370.962 77.964 370.098 76.428C369.258 74.892 368.838 73.164 368.838 71.244C368.838 69.324 369.27 67.596 370.134 66.06C370.998 64.524 372.162 63.312 373.626 62.424C375.09 61.536 376.746 61.092 378.594 61.092C380.154 61.092 381.534 61.404 382.734 62.028C383.934 62.652 384.882 63.516 385.578 64.62L384.966 65.556V53.748H388.998V81H385.146V77.04L385.614 77.796C384.942 78.972 383.982 79.872 382.734 80.496C381.486 81.12 380.118 81.432 378.63 81.432ZM379.026 77.652C380.154 77.652 381.162 77.376 382.05 76.824C382.962 76.272 383.67 75.516 384.174 74.556C384.702 73.572 384.966 72.468 384.966 71.244C384.966 70.02 384.702 68.928 384.174 67.968C383.67 67.008 382.962 66.252 382.05 65.7C381.162 65.148 380.154 64.872 379.026 64.872C377.898 64.872 376.878 65.148 375.966 65.7C375.054 66.252 374.346 67.008 373.842 67.968C373.338 68.928 373.086 70.02 373.086 71.244C373.086 72.468 373.338 73.572 373.842 74.556C374.346 75.516 375.042 76.272 375.93 76.824C376.842 77.376 377.874 77.652 379.026 77.652ZM395.223 63.576L394.683 54.18H398.463L397.923 63.576H395.223ZM409.985 81.432C408.665 81.432 407.501 81.204 406.493 80.748C405.509 80.268 404.741 79.62 404.189 78.804C403.637 77.964 403.361 76.98 403.361 75.852C403.361 74.796 403.589 73.848 404.045 73.008C404.525 72.168 405.257 71.46 406.241 70.884C407.225 70.308 408.461 69.9 409.949 69.66L416.717 68.544V71.748L410.741 72.792C409.661 72.984 408.869 73.332 408.365 73.836C407.861 74.316 407.609 74.94 407.609 75.708C407.609 76.452 407.885 77.064 408.437 77.544C409.013 78 409.745 78.228 410.633 78.228C411.737 78.228 412.697 77.988 413.513 77.508C414.353 77.028 415.001 76.392 415.457 75.6C415.913 74.784 416.141 73.884 416.141 72.9V67.896C416.141 66.936 415.781 66.156 415.061 65.556C414.365 64.932 413.429 64.62 412.253 64.62C411.173 64.62 410.225 64.908 409.409 65.484C408.617 66.036 408.029 66.756 407.645 67.644L404.261 65.952C404.621 64.992 405.209 64.152 406.025 63.432C406.841 62.688 407.789 62.112 408.869 61.704C409.973 61.296 411.137 61.092 412.361 61.092C413.897 61.092 415.253 61.38 416.429 61.956C417.629 62.532 418.553 63.336 419.201 64.368C419.873 65.376 420.209 66.552 420.209 67.896V81H416.321V77.472L417.149 77.58C416.693 78.372 416.105 79.056 415.385 79.632C414.689 80.208 413.885 80.652 412.973 80.964C412.085 81.276 411.089 81.432 409.985 81.432ZM424.966 88.2V61.524H428.854V65.556L428.386 64.62C429.106 63.516 430.066 62.652 431.266 62.028C432.466 61.404 433.834 61.092 435.37 61.092C437.218 61.092 438.874 61.536 440.338 62.424C441.826 63.312 442.99 64.524 443.83 66.06C444.694 67.596 445.126 69.324 445.126 71.244C445.126 73.164 444.694 74.892 443.83 76.428C442.99 77.964 441.838 79.188 440.374 80.1C438.91 80.988 437.242 81.432 435.37 81.432C433.858 81.432 432.478 81.12 431.23 80.496C430.006 79.872 429.058 78.972 428.386 77.796L429.034 77.04V88.2H424.966ZM434.974 77.652C436.126 77.652 437.146 77.376 438.034 76.824C438.922 76.272 439.618 75.516 440.122 74.556C440.65 73.572 440.914 72.468 440.914 71.244C440.914 70.02 440.65 68.928 440.122 67.968C439.618 67.008 438.922 66.252 438.034 65.7C437.146 65.148 436.126 64.872 434.974 64.872C433.846 64.872 432.826 65.148 431.914 65.7C431.026 66.252 430.318 67.008 429.79 67.968C429.286 68.928 429.034 70.02 429.034 71.244C429.034 72.468 429.286 73.572 429.79 74.556C430.318 75.516 431.026 76.272 431.914 76.824C432.826 77.376 433.846 77.652 434.974 77.652ZM449.083 88.2V61.524H452.971V65.556L452.503 64.62C453.223 63.516 454.183 62.652 455.383 62.028C456.583 61.404 457.951 61.092 459.487 61.092C461.335 61.092 462.991 61.536 464.455 62.424C465.943 63.312 467.107 64.524 467.947 66.06C468.811 67.596 469.243 69.324 469.243 71.244C469.243 73.164 468.811 74.892 467.947 76.428C467.107 77.964 465.955 79.188 464.491 80.1C463.027 80.988 461.359 81.432 459.487 81.432C457.975 81.432 456.595 81.12 455.347 80.496C454.123 79.872 453.175 78.972 452.503 77.796L453.151 77.04V88.2H449.083ZM459.091 77.652C460.243 77.652 461.263 77.376 462.151 76.824C463.039 76.272 463.735 75.516 464.239 74.556C464.767 73.572 465.031 72.468 465.031 71.244C465.031 70.02 464.767 68.928 464.239 67.968C463.735 67.008 463.039 66.252 462.151 65.7C461.263 65.148 460.243 64.872 459.091 64.872C457.963 64.872 456.943 65.148 456.031 65.7C455.143 66.252 454.435 67.008 453.907 67.968C453.403 68.928 453.151 70.02 453.151 71.244C453.151 72.468 453.403 73.572 453.907 74.556C454.435 75.516 455.143 76.272 456.031 76.824C456.943 77.376 457.963 77.652 459.091 77.652ZM473.2 81V61.524H477.088V65.448L476.728 64.872C477.16 63.6 477.856 62.688 478.816 62.136C479.776 61.56 480.928 61.272 482.272 61.272H483.46V64.98H481.768C480.424 64.98 479.332 65.4 478.492 66.24C477.676 67.056 477.268 68.232 477.268 69.768V81H473.2ZM495.387 81.432C493.443 81.432 491.715 80.988 490.203 80.1C488.715 79.188 487.551 77.964 486.711 76.428C485.871 74.868 485.451 73.128 485.451 71.208C485.451 69.24 485.871 67.5 486.711 65.988C487.575 64.476 488.727 63.288 490.167 62.424C491.607 61.536 493.239 61.092 495.063 61.092C496.527 61.092 497.835 61.344 498.987 61.848C500.139 62.352 501.111 63.048 501.903 63.936C502.695 64.8 503.295 65.796 503.703 66.924C504.135 68.052 504.351 69.252 504.351 70.524C504.351 70.836 504.339 71.16 504.315 71.496C504.291 71.832 504.243 72.144 504.171 72.432H488.655V69.192H501.867L499.923 70.668C500.163 69.492 500.079 68.448 499.671 67.536C499.287 66.6 498.687 65.868 497.871 65.34C497.079 64.788 496.143 64.512 495.063 64.512C493.983 64.512 493.023 64.788 492.183 65.34C491.343 65.868 490.695 66.636 490.239 67.644C489.783 68.628 489.603 69.828 489.699 71.244C489.579 72.564 489.759 73.716 490.239 74.7C490.743 75.684 491.439 76.452 492.327 77.004C493.239 77.556 494.271 77.832 495.423 77.832C496.599 77.832 497.595 77.568 498.411 77.04C499.251 76.512 499.911 75.828 500.391 74.988L503.703 76.608C503.319 77.52 502.719 78.348 501.903 79.092C501.111 79.812 500.151 80.388 499.023 80.82C497.919 81.228 496.707 81.432 495.387 81.432ZM508.321 81V61.524H512.209V65.34L511.741 64.836C512.221 63.612 512.989 62.688 514.045 62.064C515.101 61.416 516.325 61.092 517.717 61.092C519.157 61.092 520.429 61.404 521.533 62.028C522.637 62.652 523.501 63.516 524.125 64.62C524.749 65.724 525.061 66.996 525.061 68.436V81H521.029V69.516C521.029 68.532 520.849 67.704 520.489 67.032C520.129 66.336 519.613 65.808 518.941 65.448C518.293 65.064 517.549 64.872 516.709 64.872C515.869 64.872 515.113 65.064 514.441 65.448C513.793 65.808 513.289 66.336 512.929 67.032C512.569 67.728 512.389 68.556 512.389 69.516V81H508.321ZM537.839 81.216C535.799 81.216 534.215 80.64 533.087 79.488C531.959 78.336 531.395 76.716 531.395 74.628V65.196H527.975V61.524H528.515C529.427 61.524 530.135 61.26 530.639 60.732C531.143 60.204 531.395 59.484 531.395 58.572V57.06H535.463V61.524H539.891V65.196H535.463V74.448C535.463 75.12 535.571 75.696 535.787 76.176C536.003 76.632 536.351 76.992 536.831 77.256C537.311 77.496 537.935 77.616 538.703 77.616C538.895 77.616 539.111 77.604 539.351 77.58C539.591 77.556 539.819 77.532 540.035 77.508V81C539.699 81.048 539.327 81.096 538.919 81.144C538.511 81.192 538.151 81.216 537.839 81.216ZM544.005 81V61.524H548.073V81H544.005ZM544.005 58.86V54.18H548.073V58.86H544.005ZM560.029 81.432C558.037 81.432 556.285 80.94 554.773 79.956C553.285 78.972 552.241 77.652 551.641 75.996L554.773 74.52C555.301 75.624 556.021 76.5 556.933 77.148C557.869 77.796 558.901 78.12 560.029 78.12C560.989 78.12 561.769 77.904 562.369 77.472C562.969 77.04 563.269 76.452 563.269 75.708C563.269 75.228 563.137 74.844 562.873 74.556C562.609 74.244 562.273 73.992 561.865 73.8C561.481 73.608 561.085 73.464 560.677 73.368L557.617 72.504C555.937 72.024 554.677 71.304 553.837 70.344C553.021 69.36 552.613 68.22 552.613 66.924C552.613 65.748 552.913 64.728 553.513 63.864C554.113 62.976 554.941 62.292 555.997 61.812C557.053 61.332 558.241 61.092 559.561 61.092C561.337 61.092 562.921 61.536 564.313 62.424C565.705 63.288 566.689 64.5 567.265 66.06L564.133 67.536C563.749 66.6 563.137 65.856 562.297 65.304C561.481 64.752 560.557 64.476 559.525 64.476C558.637 64.476 557.929 64.692 557.401 65.124C556.873 65.532 556.609 66.072 556.609 66.744C556.609 67.2 556.729 67.584 556.969 67.896C557.209 68.184 557.521 68.424 557.905 68.616C558.289 68.784 558.685 68.928 559.093 69.048L562.261 69.984C563.869 70.44 565.105 71.16 565.969 72.144C566.833 73.104 567.265 74.256 567.265 75.6C567.265 76.752 566.953 77.772 566.329 78.66C565.729 79.524 564.889 80.208 563.809 80.712C562.729 81.192 561.469 81.432 560.029 81.432ZM578.451 81.432C576.459 81.432 574.707 80.94 573.195 79.956C571.707 78.972 570.663 77.652 570.063 75.996L573.195 74.52C573.723 75.624 574.443 76.5 575.355 77.148C576.291 77.796 577.323 78.12 578.451 78.12C579.411 78.12 580.191 77.904 580.791 77.472C581.391 77.04 581.691 76.452 581.691 75.708C581.691 75.228 581.559 74.844 581.295 74.556C581.031 74.244 580.695 73.992 580.287 73.8C579.903 73.608 579.507 73.464 579.099 73.368L576.039 72.504C574.359 72.024 573.099 71.304 572.259 70.344C571.443 69.36 571.035 68.22 571.035 66.924C571.035 65.748 571.335 64.728 571.935 63.864C572.535 62.976 573.363 62.292 574.419 61.812C575.475 61.332 576.663 61.092 577.983 61.092C579.759 61.092 581.343 61.536 582.735 62.424C584.127 63.288 585.111 64.5 585.687 66.06L582.555 67.536C582.171 66.6 581.559 65.856 580.719 65.304C579.903 64.752 578.979 64.476 577.947 64.476C577.059 64.476 576.351 64.692 575.823 65.124C575.295 65.532 575.031 66.072 575.031 66.744C575.031 67.2 575.151 67.584 575.391 67.896C575.631 68.184 575.943 68.424 576.327 68.616C576.711 68.784 577.107 68.928 577.515 69.048L580.683 69.984C582.291 70.44 583.527 71.16 584.391 72.144C585.255 73.104 585.687 74.256 585.687 75.6C585.687 76.752 585.375 77.772 584.751 78.66C584.151 79.524 583.311 80.208 582.231 80.712C581.151 81.192 579.891 81.432 578.451 81.432ZM595.505 81.432C594.185 81.432 593.021 81.204 592.013 80.748C591.029 80.268 590.261 79.62 589.709 78.804C589.157 77.964 588.881 76.98 588.881 75.852C588.881 74.796 589.109 73.848 589.565 73.008C590.045 72.168 590.777 71.46 591.761 70.884C592.745 70.308 593.981 69.9 595.469 69.66L602.237 68.544V71.748L596.261 72.792C595.181 72.984 594.389 73.332 593.885 73.836C593.381 74.316 593.129 74.94 593.129 75.708C593.129 76.452 593.405 77.064 593.957 77.544C594.533 78 595.265 78.228 596.153 78.228C597.257 78.228 598.217 77.988 599.033 77.508C599.873 77.028 600.521 76.392 600.977 75.6C601.433 74.784 601.661 73.884 601.661 72.9V67.896C601.661 66.936 601.301 66.156 600.581 65.556C599.885 64.932 598.949 64.62 597.773 64.62C596.693 64.62 595.745 64.908 594.929 65.484C594.137 66.036 593.549 66.756 593.165 67.644L589.781 65.952C590.141 64.992 590.729 64.152 591.545 63.432C592.361 62.688 593.309 62.112 594.389 61.704C595.493 61.296 596.657 61.092 597.881 61.092C599.417 61.092 600.773 61.38 601.949 61.956C603.149 62.532 604.073 63.336 604.721 64.368C605.393 65.376 605.729 66.552 605.729 67.896V81H601.841V77.472L602.669 77.58C602.213 78.372 601.625 79.056 600.905 79.632C600.209 80.208 599.405 80.652 598.493 80.964C597.605 81.276 596.609 81.432 595.505 81.432ZM619.881 88.92C618.465 88.92 617.157 88.692 615.957 88.236C614.757 87.78 613.725 87.144 612.861 86.328C611.997 85.536 611.349 84.6 610.917 83.52L614.661 81.972C614.997 82.884 615.609 83.64 616.497 84.24C617.409 84.84 618.525 85.14 619.845 85.14C620.877 85.14 621.801 84.936 622.617 84.528C623.433 84.144 624.081 83.568 624.561 82.8C625.041 82.056 625.281 81.156 625.281 80.1V75.708L626.001 76.536C625.329 77.784 624.393 78.732 623.193 79.38C622.017 80.028 620.685 80.352 619.197 80.352C617.397 80.352 615.777 79.932 614.337 79.092C612.897 78.252 611.757 77.1 610.917 75.636C610.101 74.172 609.693 72.528 609.693 70.704C609.693 68.856 610.101 67.212 610.917 65.772C611.757 64.332 612.885 63.192 614.301 62.352C615.717 61.512 617.337 61.092 619.161 61.092C620.649 61.092 621.969 61.416 623.121 62.064C624.297 62.688 625.257 63.6 626.001 64.8L625.461 65.808V61.524H629.313V80.1C629.313 81.78 628.905 83.28 628.089 84.6C627.297 85.944 626.193 87 624.777 87.768C623.361 88.536 621.729 88.92 619.881 88.92ZM619.665 76.572C620.745 76.572 621.705 76.32 622.545 75.816C623.385 75.288 624.045 74.592 624.525 73.728C625.029 72.84 625.281 71.844 625.281 70.74C625.281 69.636 625.029 68.64 624.525 67.752C624.021 66.864 623.349 66.168 622.509 65.664C621.669 65.136 620.721 64.872 619.665 64.872C618.561 64.872 617.577 65.136 616.713 65.664C615.849 66.168 615.165 66.864 614.661 67.752C614.181 68.616 613.941 69.612 613.941 70.74C613.941 71.82 614.181 72.804 614.661 73.692C615.165 74.58 615.849 75.288 616.713 75.816C617.577 76.32 618.561 76.572 619.665 76.572ZM643.219 81.432C641.275 81.432 639.547 80.988 638.035 80.1C636.547 79.188 635.383 77.964 634.543 76.428C633.703 74.868 633.283 73.128 633.283 71.208C633.283 69.24 633.703 67.5 634.543 65.988C635.407 64.476 636.559 63.288 637.999 62.424C639.439 61.536 641.071 61.092 642.895 61.092C644.359 61.092 645.667 61.344 646.819 61.848C647.971 62.352 648.943 63.048 649.735 63.936C650.527 64.8 651.127 65.796 651.535 66.924C651.967 68.052 652.183 69.252 652.183 70.524C652.183 70.836 652.171 71.16 652.147 71.496C652.123 71.832 652.075 72.144 652.003 72.432H636.487V69.192H649.699L647.755 70.668C647.995 69.492 647.911 68.448 647.503 67.536C647.119 66.6 646.519 65.868 645.703 65.34C644.911 64.788 643.975 64.512 642.895 64.512C641.815 64.512 640.855 64.788 640.015 65.34C639.175 65.868 638.527 66.636 638.071 67.644C637.615 68.628 637.435 69.828 637.531 71.244C637.411 72.564 637.591 73.716 638.071 74.7C638.575 75.684 639.271 76.452 640.159 77.004C641.071 77.556 642.103 77.832 643.255 77.832C644.431 77.832 645.427 77.568 646.243 77.04C647.083 76.512 647.743 75.828 648.223 74.988L651.535 76.608C651.151 77.52 650.551 78.348 649.735 79.092C648.943 79.812 647.983 80.388 646.855 80.82C645.751 81.228 644.539 81.432 643.219 81.432Z" fill="#0061B1"/>
</svg>
