<svg width="22" height="23" viewBox="0 0 22 23" fill="none" xmlns="http://www.w3.org/2000/svg">
<path d="M16.8205 20.4505H2.15017V5.78018H11.9304V4.15015H2.15017C1.25366 4.15015 0.520142 4.88366 0.520142 5.78018V20.4505C0.520142 21.347 1.25366 22.0805 2.15017 22.0805H16.8205C17.717 22.0805 18.4505 21.347 18.4505 20.4505V10.6703H16.8205V20.4505Z" fill="black"/>
<path d="M5.41028 9.04028V10.6703H11.9304H13.5604V9.04028H5.41028Z" fill="black"/>
<path d="M5.41028 12.3003H13.5604V13.9303H5.41028V12.3003Z" fill="black"/>
<path d="M5.41028 15.5604H13.5604V17.1905H5.41028V15.5604Z" fill="black"/>
<path d="M18.4505 0.890137H16.8205V4.1502H13.5604V5.78024H16.8205V9.0403H18.4505V5.78024H21.7106V4.1502H18.4505V0.890137Z" fill="black"/>
</svg>
