<svg width="30" height="20" viewBox="0 0 30 20" fill="none" xmlns="http://www.w3.org/2000/svg">
<path d="M22.457 3.88524C20.3107 1.73974 16.8625 1.70717 14.7563 3.81251C12.6502 5.91785 12.6828 9.36472 14.8291 11.5102C15.8376 12.5183 17.1335 13.0592 18.4424 13.1312C20.4443 13.2412 22.7583 13.3325 24.0961 14.8253L24.4382 15.2069C24.8936 15.7171 25.6773 15.7453 26.1512 15.2716L26.2199 15.203C26.6937 14.7293 26.6655 13.9459 26.1551 13.4906L25.7739 13.1492C24.2804 11.8117 24.1899 9.49813 24.0795 7.49667C24.0074 6.18837 23.4656 4.89341 22.457 3.88524ZM21.1953 10.249C19.8126 11.6312 17.5477 11.6098 16.1386 10.2012C14.7295 8.79268 14.7081 6.52865 16.0908 5.14645C17.4735 3.76425 19.7384 3.78564 21.1475 5.19421C22.559 6.60511 22.578 8.86681 21.1953 10.249Z" fill="#C0C4D4"/>
<rect y="0.424805" width="1" height="18" rx="0.5" fill="#ACB1C6"/>
</svg>
