<svg width="316" height="133" viewBox="0 0 316 133" fill="none" xmlns="http://www.w3.org/2000/svg">
<g filter="url(#filter0_d_1781_1408)">
<rect x="32.8135" y="30.3945" width="253.187" height="72.6054" fill="white" shape-rendering="crispEdges"/>
<rect x="33.3135" y="30.8945" width="252.187" height="71.6054" stroke="#EEEEEE" shape-rendering="crispEdges"/>
<mask id="path-3-inside-1_1781_1408" fill="white">
<path d="M30 30H286V103H30V30Z"/>
</mask>
<path d="M38 103V30H22V103H38Z" fill="#0061B1" mask="url(#path-3-inside-1_1781_1408)"/>
<path d="M72.1406 67.5781C71.75 66.3281 71.8281 63.9062 71.9844 63.9062C72.6875 63.9062 72.6094 66.7969 72.1406 67.5781ZM72.0625 71.25C72.7656 72.5781 73.7812 73.6719 74.7188 74.4531C72.8438 74.7656 71.2812 75.5469 69.7969 76.0938C70.6562 74.6094 71.4375 72.8125 72.0625 71.25ZM64.7188 81.0156C65.1094 79.7656 66.9062 78.3594 67.4531 77.8125C65.7344 80.5469 64.7188 81.0156 64.7188 81.0156ZM77.375 60H88V85.625C88 86.7188 87.1406 87.5 86.125 87.5H59.875C58.7812 87.5 58 86.7188 58 85.625V49.375C58 48.3594 58.7812 47.5 59.875 47.5H75.5V58.125C75.5 59.2188 76.2812 60 77.375 60ZM76.75 73.4375C75.1875 72.5 74.0938 71.1719 73.3906 69.2188C73.7031 67.8125 74.25 65.625 73.8594 64.2188C73.4688 61.9531 70.5781 62.1875 70.1094 63.6719C69.7188 65.1562 70.1094 67.1875 70.7344 69.6875C69.875 71.875 68.5469 74.7656 67.6094 76.4062C67.5312 76.4062 67.5312 76.4062 67.5312 76.4062C65.4219 77.5 61.8281 79.9219 63.3125 81.7188C63.7031 82.2656 64.5625 82.5 64.9531 82.5C66.3594 82.5 67.7656 81.0938 69.7188 77.7344C71.75 77.0312 74.0156 76.1719 75.8906 75.8594C77.6094 76.7969 79.6406 77.4219 80.8906 77.4219C83.2344 77.4219 83.3906 74.9219 82.4531 73.9844C81.3594 72.9688 78.2344 73.2812 76.75 73.4375ZM87.4531 55.7031C87.7656 56.0938 88 56.5625 88 57.0312V57.5H78V47.5H78.4688C78.9375 47.5 79.4062 47.7344 79.7969 48.0469L87.4531 55.7031ZM81.5938 75.7031C81.5938 75.7031 81.2031 76.25 78.3125 75C81.4375 74.7656 81.9844 75.4688 81.5938 75.7031Z" fill="#0061B1"/>
<path d="M118.649 69.0222V66.7045H129.569V69.0222H125.498V80H122.72V69.0222H118.649ZM134.413 80.1948C133.387 80.1948 132.505 79.987 131.764 79.5715C131.029 79.1517 130.462 78.5588 130.064 77.7927C129.665 77.0224 129.466 76.1113 129.466 75.0596C129.466 74.0339 129.665 73.1337 130.064 72.359C130.462 71.5843 131.022 70.9806 131.745 70.5478C132.472 70.115 133.325 69.8986 134.303 69.8986C134.961 69.8986 135.573 70.0046 136.14 70.2167C136.711 70.4244 137.209 70.7382 137.633 71.158C138.062 71.5778 138.395 72.1058 138.633 72.742C138.871 73.3739 138.99 74.114 138.99 74.9623V75.7218H130.57V74.008H136.387C136.387 73.6098 136.3 73.2571 136.127 72.9498C135.954 72.6425 135.714 72.4023 135.406 72.2292C135.104 72.0517 134.751 71.963 134.348 71.963C133.928 71.963 133.556 72.0604 133.232 72.2551C132.911 72.4456 132.66 72.7031 132.479 73.0277C132.297 73.3479 132.204 73.705 132.199 74.0988V75.7283C132.199 76.2217 132.29 76.648 132.472 77.0072C132.658 77.3664 132.92 77.6434 133.258 77.8382C133.595 78.0329 133.996 78.1303 134.459 78.1303C134.766 78.1303 135.047 78.087 135.303 78.0005C135.558 77.9139 135.777 77.7841 135.958 77.611C136.14 77.4379 136.279 77.2258 136.374 76.9748L138.932 77.1436C138.802 77.7581 138.536 78.2948 138.133 78.7536C137.735 79.208 137.22 79.5629 136.588 79.8182C135.96 80.0692 135.236 80.1948 134.413 80.1948ZM133.245 68.743L134.621 65.7892H137.179L135.199 68.743H133.245ZM143.56 66.7045V80H140.795V66.7045H143.56ZM150.32 80.1948C149.294 80.1948 148.411 79.987 147.671 79.5715C146.936 79.1517 146.369 78.5588 145.97 77.7927C145.572 77.0224 145.373 76.1113 145.373 75.0596C145.373 74.0339 145.572 73.1337 145.97 72.359C146.369 71.5843 146.929 70.9806 147.652 70.5478C148.379 70.115 149.232 69.8986 150.21 69.8986C150.868 69.8986 151.48 70.0046 152.047 70.2167C152.618 70.4244 153.116 70.7382 153.54 71.158C153.968 71.5778 154.302 72.1058 154.54 72.742C154.778 73.3739 154.897 74.114 154.897 74.9623V75.7218H146.477V74.008H152.294C152.294 73.6098 152.207 73.2571 152.034 72.9498C151.861 72.6425 151.621 72.4023 151.313 72.2292C151.01 72.0517 150.658 71.963 150.255 71.963C149.835 71.963 149.463 72.0604 149.138 72.2551C148.818 72.4456 148.567 72.7031 148.385 73.0277C148.204 73.3479 148.111 73.705 148.106 74.0988V75.7283C148.106 76.2217 148.197 76.648 148.379 77.0072C148.565 77.3664 148.827 77.6434 149.164 77.8382C149.502 78.0329 149.902 78.1303 150.365 78.1303C150.673 78.1303 150.954 78.087 151.209 78.0005C151.465 77.9139 151.683 77.7841 151.865 77.611C152.047 77.4379 152.185 77.2258 152.281 76.9748L154.838 77.1436C154.709 77.7581 154.442 78.2948 154.04 78.7536C153.642 79.208 153.127 79.5629 152.495 79.8182C151.867 80.0692 151.142 80.1948 150.32 80.1948ZM149.151 68.743L150.528 65.7892H153.086L151.106 68.743H149.151ZM161.207 80.1948C160.186 80.1948 159.307 79.9784 158.571 79.5456C157.84 79.1084 157.277 78.5025 156.883 77.7278C156.494 76.9531 156.299 76.0616 156.299 75.0532C156.299 74.0318 156.496 73.1359 156.89 72.3655C157.288 71.5908 157.853 70.987 158.584 70.5543C159.316 70.1171 160.186 69.8986 161.194 69.8986C162.064 69.8986 162.826 70.0565 163.479 70.3725C164.133 70.6884 164.65 71.132 165.031 71.7033C165.412 72.2746 165.621 72.9454 165.66 73.7158H163.051C162.977 73.2181 162.782 72.8178 162.466 72.5148C162.155 72.2075 161.746 72.0539 161.239 72.0539C160.811 72.0539 160.437 72.1707 160.116 72.4045C159.8 72.6338 159.554 72.9692 159.376 73.4107C159.199 73.8522 159.11 74.3867 159.11 75.0142C159.11 75.6504 159.197 76.1914 159.37 76.6372C159.547 77.083 159.796 77.4227 160.116 77.6564C160.437 77.8901 160.811 78.007 161.239 78.007C161.555 78.007 161.839 77.9421 162.09 77.8122C162.345 77.6824 162.555 77.4941 162.72 77.2474C162.888 76.9964 162.999 76.6956 163.051 76.345H165.66C165.617 77.1068 165.409 77.7776 165.037 78.3575C164.669 78.9332 164.161 79.3833 163.512 79.7079C162.862 80.0325 162.094 80.1948 161.207 80.1948ZM170.197 74.2352V80H167.431V66.7045H170.119V71.7877H170.236C170.461 71.1991 170.824 70.7382 171.326 70.4049C171.828 70.0674 172.458 69.8986 173.215 69.8986C173.908 69.8986 174.512 70.05 175.027 70.353C175.546 70.6516 175.949 71.0823 176.234 71.6449C176.524 72.2032 176.667 72.8719 176.663 73.6509V80H173.897V74.1443C173.901 73.5297 173.746 73.0515 173.43 72.7096C173.118 72.3677 172.681 72.1967 172.118 72.1967C171.742 72.1967 171.408 72.2768 171.119 72.4369C170.833 72.597 170.608 72.8308 170.443 73.138C170.283 73.441 170.201 73.8067 170.197 74.2352ZM181.683 80.1883C181.046 80.1883 180.479 80.0779 179.982 79.8572C179.484 79.6321 179.09 79.301 178.8 78.8639C178.514 78.4225 178.372 77.8728 178.372 77.215C178.372 76.661 178.473 76.1957 178.677 75.8192C178.88 75.4427 179.157 75.1397 179.508 74.9103C179.858 74.681 180.256 74.5078 180.702 74.391C181.152 74.2741 181.624 74.1919 182.117 74.1443C182.697 74.0837 183.165 74.0274 183.52 73.9755C183.875 73.9192 184.132 73.837 184.292 73.7288C184.452 73.6206 184.532 73.4605 184.532 73.2484V73.2095C184.532 72.7983 184.403 72.4802 184.143 72.2551C183.888 72.0301 183.524 71.9176 183.052 71.9176C182.555 71.9176 182.159 72.0279 181.864 72.2486C181.57 72.465 181.375 72.7377 181.28 73.0666L178.722 72.8589C178.852 72.253 179.107 71.7293 179.488 71.2878C179.869 70.8421 180.36 70.5002 180.962 70.2621C181.568 70.0198 182.269 69.8986 183.065 69.8986C183.619 69.8986 184.149 69.9635 184.656 70.0933C185.166 70.2232 185.619 70.4244 186.013 70.6971C186.411 70.9697 186.725 71.3203 186.954 71.7488C187.183 72.1729 187.298 72.6814 187.298 73.2744V80H184.675V78.6172H184.597C184.437 78.9288 184.223 79.2037 183.955 79.4417C183.686 79.6754 183.364 79.8593 182.987 79.9935C182.611 80.1233 182.176 80.1883 181.683 80.1883ZM182.475 78.2796C182.881 78.2796 183.241 78.1996 183.552 78.0394C183.864 77.875 184.108 77.6543 184.286 77.3773C184.463 77.1003 184.552 76.7865 184.552 76.4359V75.3778C184.465 75.434 184.346 75.486 184.195 75.5336C184.048 75.5768 183.881 75.618 183.695 75.6569C183.509 75.6915 183.323 75.724 183.137 75.7543C182.951 75.7803 182.782 75.8041 182.63 75.8257C182.306 75.8733 182.022 75.949 181.78 76.0529C181.538 76.1568 181.349 76.2974 181.215 76.4749C181.081 76.648 181.014 76.8644 181.014 77.1241C181.014 77.5006 181.15 77.7884 181.423 77.9875C181.7 78.1823 182.05 78.2796 182.475 78.2796ZM189.444 80V70.0284H192.125V71.7682H192.229C192.41 71.1493 192.716 70.6819 193.144 70.366C193.572 70.0457 194.066 69.8856 194.624 69.8856C194.763 69.8856 194.912 69.8942 195.072 69.9116C195.232 69.9289 195.373 69.9527 195.494 69.983V72.4369C195.364 72.398 195.185 72.3633 194.955 72.333C194.726 72.3027 194.516 72.2876 194.326 72.2876C193.919 72.2876 193.555 72.3763 193.235 72.5538C192.919 72.7269 192.668 72.9692 192.482 73.2809C192.3 73.5925 192.209 73.9517 192.209 74.3585V80H189.444ZM200.952 83.9471C200.056 83.9471 199.288 83.8237 198.648 83.577C198.011 83.3347 197.505 83.0036 197.128 82.5838C196.752 82.164 196.507 81.6922 196.395 81.1685L198.953 80.8245C199.031 81.0236 199.154 81.2097 199.323 81.3828C199.491 81.5559 199.714 81.6944 199.991 81.7983C200.273 81.9065 200.615 81.9606 201.017 81.9606C201.619 81.9606 202.114 81.8134 202.504 81.5191C202.898 81.2291 203.094 80.7422 203.094 80.0584V78.2342H202.978C202.856 78.5112 202.675 78.773 202.432 79.0197C202.19 79.2664 201.878 79.4677 201.497 79.6235C201.117 79.7793 200.662 79.8572 200.134 79.8572C199.385 79.8572 198.704 79.6841 198.089 79.3378C197.479 78.9873 196.992 78.4528 196.629 77.7343C196.269 77.0116 196.09 76.0984 196.09 74.9947C196.09 73.8651 196.274 72.9216 196.642 72.1643C197.009 71.4069 197.498 70.8399 198.109 70.4634C198.723 70.0868 199.396 69.8986 200.128 69.8986C200.686 69.8986 201.153 69.9938 201.53 70.1842C201.906 70.3703 202.209 70.604 202.439 70.8853C202.673 71.1623 202.852 71.435 202.978 71.7033H203.081V70.0284H205.828V80.0974C205.828 80.9457 205.62 81.6554 205.204 82.2267C204.789 82.798 204.213 83.2265 203.478 83.5121C202.746 83.8021 201.904 83.9471 200.952 83.9471ZM201.011 77.7798C201.456 77.7798 201.833 77.6694 202.14 77.4487C202.452 77.2236 202.69 76.9034 202.854 76.4879C203.023 76.0681 203.107 75.566 203.107 74.9817C203.107 74.3975 203.025 73.8911 202.861 73.4626C202.696 73.0298 202.458 72.6944 202.147 72.4564C201.835 72.2184 201.456 72.0993 201.011 72.0993C200.556 72.0993 200.173 72.2227 199.862 72.4694C199.55 72.7117 199.314 73.0493 199.154 73.4821C198.994 73.9149 198.914 74.4148 198.914 74.9817C198.914 75.5574 198.994 76.0551 199.154 76.4749C199.318 76.8904 199.554 77.2128 199.862 77.4422C200.173 77.6672 200.556 77.7798 201.011 77.7798ZM212.573 80.1948C211.547 80.1948 210.664 79.987 209.924 79.5715C209.188 79.1517 208.621 78.5588 208.223 77.7927C207.825 77.0224 207.626 76.1113 207.626 75.0596C207.626 74.0339 207.825 73.1337 208.223 72.359C208.621 71.5843 209.182 70.9806 209.905 70.5478C210.632 70.115 211.484 69.8986 212.462 69.8986C213.12 69.8986 213.733 70.0046 214.3 70.2167C214.871 70.4244 215.369 70.7382 215.793 71.158C216.221 71.5778 216.554 72.1058 216.792 72.742C217.03 73.3739 217.149 74.114 217.149 74.9623V75.7218H208.729V74.008H214.546C214.546 73.6098 214.46 73.2571 214.287 72.9498C214.113 72.6425 213.873 72.4023 213.566 72.2292C213.263 72.0517 212.91 71.963 212.508 71.963C212.088 71.963 211.716 72.0604 211.391 72.2551C211.071 72.4456 210.82 72.7031 210.638 73.0277C210.456 73.3479 210.363 73.705 210.359 74.0988V75.7283C210.359 76.2217 210.45 76.648 210.632 77.0072C210.818 77.3664 211.08 77.6434 211.417 77.8382C211.755 78.0329 212.155 78.1303 212.618 78.1303C212.925 78.1303 213.207 78.087 213.462 78.0005C213.717 77.9139 213.936 77.7841 214.118 77.611C214.3 77.4379 214.438 77.2258 214.533 76.9748L217.091 77.1436C216.961 77.7581 216.695 78.2948 216.293 78.7536C215.894 79.208 215.379 79.5629 214.747 79.8182C214.12 80.0692 213.395 80.1948 212.573 80.1948ZM218.954 80V70.0284H221.635V71.7682H221.739C221.921 71.1493 222.226 70.6819 222.655 70.366C223.083 70.0457 223.576 69.8856 224.135 69.8856C224.273 69.8856 224.423 69.8942 224.583 69.9116C224.743 69.9289 224.884 69.9527 225.005 69.983V72.4369C224.875 72.398 224.695 72.3633 224.466 72.333C224.237 72.3027 224.027 72.2876 223.836 72.2876C223.429 72.2876 223.066 72.3763 222.746 72.5538C222.43 72.7269 222.179 72.9692 221.992 73.2809C221.811 73.5925 221.72 73.9517 221.72 74.3585V80H218.954Z" fill="black"/>
</g>
<defs>
<filter id="filter0_d_1781_1408" x="0" y="0" width="316" height="133" filterUnits="userSpaceOnUse" color-interpolation-filters="sRGB">
<feFlood flood-opacity="0" result="BackgroundImageFix"/>
<feColorMatrix in="SourceAlpha" type="matrix" values="0 0 0 0 0 0 0 0 0 0 0 0 0 0 0 0 0 0 127 0" result="hardAlpha"/>
<feOffset/>
<feGaussianBlur stdDeviation="15"/>
<feComposite in2="hardAlpha" operator="out"/>
<feColorMatrix type="matrix" values="0 0 0 0 0 0 0 0 0 0 0 0 0 0 0 0 0 0 0.08 0"/>
<feBlend mode="normal" in2="BackgroundImageFix" result="effect1_dropShadow_1781_1408"/>
<feBlend mode="normal" in="SourceGraphic" in2="effect1_dropShadow_1781_1408" result="shape"/>
</filter>
</defs>
</svg>
