<svg width="535" height="185" viewBox="0 0 535 185" fill="none" xmlns="http://www.w3.org/2000/svg">
<path d="M12.1772 11.5186C14.6382 11.5186 16.6694 11.818 18.271 12.417C19.8856 13.016 21.0835 13.9274 21.8647 15.1514C22.659 16.3753 23.0562 17.9313 23.0562 19.8193C23.0562 21.2256 22.7957 22.4235 22.2749 23.4131C21.7541 24.4027 21.0705 25.223 20.2241 25.874C19.3778 26.5251 18.4728 27.0459 17.5093 27.4365L25.6147 40.0732H20.3218L13.4272 28.6279H8.8374V40.0732H4.1499V11.5186H12.1772ZM11.8647 15.4248H8.8374V24.7607H12.0796C14.2541 24.7607 15.8296 24.3571 16.8062 23.5498C17.7957 22.7425 18.2905 21.5511 18.2905 19.9756C18.2905 18.3219 17.7632 17.1501 16.7085 16.46C15.6668 15.7699 14.0522 15.4248 11.8647 15.4248ZM37.8413 18.042C39.7684 18.042 41.422 18.4391 42.8022 19.2334C44.1825 20.0277 45.2437 21.154 45.9858 22.6123C46.728 24.0706 47.0991 25.8154 47.0991 27.8467V30.3076H32.6655C32.7176 32.404 33.2775 34.0186 34.3452 35.1514C35.4259 36.2842 36.9364 36.8506 38.8765 36.8506C40.2567 36.8506 41.4937 36.7204 42.5874 36.46C43.6942 36.1865 44.8335 35.7894 46.0054 35.2686V38.999C44.9246 39.5068 43.8244 39.8779 42.7046 40.1123C41.5848 40.3467 40.2437 40.4639 38.6812 40.4639C36.5588 40.4639 34.6903 40.0537 33.0757 39.2334C31.4741 38.4001 30.2176 37.1631 29.3062 35.5225C28.4077 33.8818 27.9585 31.8441 27.9585 29.4092C27.9585 26.9873 28.3687 24.93 29.189 23.2373C30.0093 21.5446 31.1616 20.2555 32.646 19.3701C34.1304 18.4847 35.8621 18.042 37.8413 18.042ZM37.8413 21.499C36.396 21.499 35.2241 21.9678 34.3257 22.9053C33.4403 23.8428 32.9194 25.2165 32.7632 27.0264H42.6069C42.5939 25.9456 42.4116 24.9886 42.0601 24.1553C41.7215 23.3219 41.2007 22.6709 40.4976 22.2021C39.8075 21.7334 38.922 21.499 37.8413 21.499ZM50.1069 49.6826C49.4299 49.6826 48.7853 49.6305 48.1733 49.5264C47.5614 49.4352 47.047 49.3245 46.6304 49.1943V45.5225C47.0731 45.6527 47.5028 45.7503 47.9194 45.8154C48.3361 45.8805 48.8114 45.9131 49.3452 45.9131C50.1916 45.9131 50.8882 45.6787 51.4351 45.21C51.995 44.7412 52.2749 43.8493 52.2749 42.5342V18.4521H56.8647V42.9443C56.8647 44.2594 56.6304 45.4248 56.1616 46.4404C55.7059 47.4561 54.9767 48.2503 53.9741 48.8232C52.9845 49.3962 51.6955 49.6826 50.1069 49.6826ZM52.0015 12.6904C52.0015 11.766 52.2489 11.1149 52.7437 10.7373C53.2515 10.3597 53.87 10.1709 54.5991 10.1709C55.3022 10.1709 55.9077 10.3597 56.4155 10.7373C56.9364 11.1149 57.1968 11.766 57.1968 12.6904C57.1968 13.6019 56.9364 14.2529 56.4155 14.6436C55.9077 15.0212 55.3022 15.21 54.5991 15.21C53.87 15.21 53.2515 15.0212 52.7437 14.6436C52.2489 14.2529 52.0015 13.6019 52.0015 12.6904ZM82.5874 29.2139C82.5874 31.0107 82.353 32.6058 81.8843 33.999C81.4155 35.3923 80.7319 36.5706 79.8335 37.5342C78.9351 38.4847 77.8543 39.2139 76.5913 39.7217C75.3283 40.2165 73.9025 40.4639 72.314 40.4639C70.8296 40.4639 69.4689 40.2165 68.2319 39.7217C66.995 39.2139 65.9207 38.4847 65.0093 37.5342C64.1108 36.5706 63.4142 35.3923 62.9194 33.999C62.4246 32.6058 62.1772 31.0107 62.1772 29.2139C62.1772 26.8311 62.5874 24.8128 63.4077 23.1592C64.241 21.4925 65.4259 20.223 66.9624 19.3506C68.4989 18.4782 70.3283 18.042 72.4507 18.042C74.4429 18.042 76.2007 18.4782 77.7241 19.3506C79.2476 20.223 80.439 21.4925 81.2983 23.1592C82.1577 24.8258 82.5874 26.8441 82.5874 29.2139ZM66.9038 29.2139C66.9038 30.7894 67.0926 32.137 67.4702 33.2568C67.8608 34.3766 68.4598 35.236 69.2671 35.835C70.0744 36.4209 71.116 36.7139 72.3921 36.7139C73.6681 36.7139 74.7098 36.4209 75.5171 35.835C76.3244 35.236 76.9168 34.3766 77.2944 33.2568C77.672 32.137 77.8608 30.7894 77.8608 29.2139C77.8608 27.6383 77.672 26.3037 77.2944 25.21C76.9168 24.1032 76.3244 23.2633 75.5171 22.6904C74.7098 22.1045 73.6616 21.8115 72.3726 21.8115C70.4715 21.8115 69.0848 22.4495 68.2124 23.7256C67.34 25.0016 66.9038 26.8311 66.9038 29.2139ZM8.29053 88.0732H3.68115V57.6826H8.29053V88.0732ZM18.5249 59.5186L18.8179 59.9482C18.5835 60.8988 18.2775 61.9144 17.8999 62.9951C17.5353 64.0758 17.1382 65.1566 16.7085 66.2373C16.2788 67.318 15.8426 68.3402 15.3999 69.3037H12.0796C12.2619 68.5355 12.4507 67.7282 12.646 66.8818C12.8413 66.0225 13.0301 65.1631 13.2124 64.3037C13.3947 63.4313 13.5575 62.5915 13.7007 61.7842C13.8439 60.9639 13.9676 60.2087 14.0718 59.5186H18.5249ZM31.2007 66.042C33.1278 66.042 34.7814 66.4391 36.1616 67.2334C37.5418 68.0277 38.603 69.154 39.3452 70.6123C40.0874 72.0706 40.4585 73.8154 40.4585 75.8467V78.3076H26.0249C26.077 80.404 26.6369 82.0186 27.7046 83.1514C28.7853 84.2842 30.2957 84.8506 32.2358 84.8506C33.616 84.8506 34.853 84.7204 35.9468 84.46C37.0535 84.1865 38.1929 83.7894 39.3647 83.2686V86.999C38.284 87.5068 37.1838 87.8779 36.064 88.1123C34.9442 88.3467 33.603 88.4639 32.0405 88.4639C29.9181 88.4639 28.0496 88.0537 26.4351 87.2334C24.8335 86.4001 23.577 85.1631 22.6655 83.5225C21.7671 81.8818 21.3179 79.8441 21.3179 77.4092C21.3179 74.9873 21.728 72.93 22.5483 71.2373C23.3687 69.5446 24.521 68.2555 26.0054 67.3701C27.4897 66.4847 29.2215 66.042 31.2007 66.042ZM31.2007 69.499C29.7554 69.499 28.5835 69.9678 27.6851 70.9053C26.7996 71.8428 26.2788 73.2165 26.1226 75.0264H35.9663C35.9533 73.9456 35.771 72.9886 35.4194 72.1553C35.0809 71.3219 34.5601 70.6709 33.8569 70.2021C33.1668 69.7334 32.2814 69.499 31.2007 69.499ZM37.5874 57.4287V57.8193C37.2749 58.1969 36.8517 58.6527 36.3179 59.1865C35.784 59.7074 35.2046 60.2607 34.5796 60.8467C33.9546 61.4196 33.3361 61.973 32.7241 62.5068C32.1121 63.0277 31.5588 63.4704 31.064 63.835H27.9976V63.3271C28.4272 62.8324 28.9025 62.2399 29.4233 61.5498C29.9572 60.8597 30.478 60.1501 30.9858 59.4209C31.5067 58.6917 31.9429 58.0277 32.2944 57.4287H37.5874ZM50.5757 88.0732L42.353 66.4521H47.2163L51.6694 79.1475C51.9559 79.9548 52.2163 80.8271 52.4507 81.7646C52.6851 82.7021 52.8478 83.4899 52.939 84.1279H53.0952C53.1864 83.4639 53.3621 82.6696 53.6226 81.7451C53.883 80.8076 54.1499 79.9417 54.4233 79.1475L58.8765 66.4521H63.7202L55.4976 88.0732H50.5757ZM75.6147 66.042C77.5418 66.042 79.1955 66.4391 80.5757 67.2334C81.9559 68.0277 83.0171 69.154 83.7593 70.6123C84.5015 72.0706 84.8726 73.8154 84.8726 75.8467V78.3076H70.439C70.491 80.404 71.0509 82.0186 72.1187 83.1514C73.1994 84.2842 74.7098 84.8506 76.6499 84.8506C78.0301 84.8506 79.2671 84.7204 80.3608 84.46C81.4676 84.1865 82.6069 83.7894 83.7788 83.2686V86.999C82.6981 87.5068 81.5978 87.8779 80.478 88.1123C79.3582 88.3467 78.0171 88.4639 76.4546 88.4639C74.3322 88.4639 72.4637 88.0537 70.8491 87.2334C69.2476 86.4001 67.991 85.1631 67.0796 83.5225C66.1812 81.8818 65.7319 79.8441 65.7319 77.4092C65.7319 74.9873 66.1421 72.93 66.9624 71.2373C67.7827 69.5446 68.9351 68.2555 70.4194 67.3701C71.9038 66.4847 73.6356 66.042 75.6147 66.042ZM75.6147 69.499C74.1694 69.499 72.9976 69.9678 72.0991 70.9053C71.2137 71.8428 70.6929 73.2165 70.5366 75.0264H80.3804C80.3674 73.9456 80.1851 72.9886 79.8335 72.1553C79.495 71.3219 78.9741 70.6709 78.271 70.2021C77.5809 69.7334 76.6955 69.499 75.6147 69.499ZM101.318 66.042C103.753 66.042 105.647 66.6735 107.001 67.9365C108.369 69.1865 109.052 71.1982 109.052 73.9717V88.0732H104.462V74.8311C104.462 73.1514 104.117 71.8949 103.427 71.0615C102.737 70.2152 101.669 69.792 100.224 69.792C98.1278 69.792 96.6694 70.4365 95.8491 71.7256C95.0418 73.0146 94.6382 74.8831 94.6382 77.3311V88.0732H90.0483V66.4521H93.6226L94.2671 69.3818H94.521C94.9897 68.6266 95.5692 68.0081 96.2593 67.5264C96.9624 67.0316 97.7437 66.6605 98.603 66.4131C99.4754 66.1657 100.38 66.042 101.318 66.042ZM124.091 66.042C126.018 66.042 127.672 66.4391 129.052 67.2334C130.432 68.0277 131.494 69.154 132.236 70.6123C132.978 72.0706 133.349 73.8154 133.349 75.8467V78.3076H118.916C118.968 80.404 119.528 82.0186 120.595 83.1514C121.676 84.2842 123.186 84.8506 125.126 84.8506C126.507 84.8506 127.744 84.7204 128.837 84.46C129.944 84.1865 131.083 83.7894 132.255 83.2686V86.999C131.175 87.5068 130.074 87.8779 128.955 88.1123C127.835 88.3467 126.494 88.4639 124.931 88.4639C122.809 88.4639 120.94 88.0537 119.326 87.2334C117.724 86.4001 116.468 85.1631 115.556 83.5225C114.658 81.8818 114.208 79.8441 114.208 77.4092C114.208 74.9873 114.619 72.93 115.439 71.2373C116.259 69.5446 117.412 68.2555 118.896 67.3701C120.38 66.4847 122.112 66.042 124.091 66.042ZM124.091 69.499C122.646 69.499 121.474 69.9678 120.576 70.9053C119.69 71.8428 119.169 73.2165 119.013 75.0264H128.857C128.844 73.9456 128.662 72.9886 128.31 72.1553C127.972 71.3219 127.451 70.6709 126.748 70.2021C126.057 69.7334 125.172 69.499 124.091 69.499ZM162.958 66.042C165.38 66.042 167.203 66.667 168.427 67.917C169.664 69.167 170.283 71.1722 170.283 73.9326V88.0732H165.693V74.7529C165.693 73.1123 165.374 71.8753 164.736 71.042C164.098 70.2087 163.128 69.792 161.826 69.792C160.003 69.792 158.688 70.3779 157.88 71.5498C157.086 72.7087 156.689 74.3949 156.689 76.6084V88.0732H152.099V74.7529C152.099 73.6592 151.956 72.7477 151.669 72.0186C151.396 71.2764 150.973 70.723 150.4 70.3584C149.827 69.9808 149.104 69.792 148.232 69.792C146.969 69.792 145.96 70.0785 145.205 70.6514C144.462 71.2243 143.929 72.0706 143.603 73.1904C143.278 74.2972 143.115 75.6579 143.115 77.2725V88.0732H138.525V66.4521H142.099L142.744 69.3623H142.998C143.44 68.6071 143.987 67.9886 144.638 67.5068C145.302 67.012 146.038 66.6475 146.845 66.4131C147.653 66.1657 148.492 66.042 149.365 66.042C150.979 66.042 152.34 66.3285 153.447 66.9014C154.554 67.4613 155.38 68.3206 155.927 69.4795H156.279C156.956 68.3076 157.9 67.4417 159.111 66.8818C160.322 66.3219 161.604 66.042 162.958 66.042ZM185.302 66.042C187.229 66.042 188.883 66.4391 190.263 67.2334C191.643 68.0277 192.705 69.154 193.447 70.6123C194.189 72.0706 194.56 73.8154 194.56 75.8467V78.3076H180.126C180.179 80.404 180.738 82.0186 181.806 83.1514C182.887 84.2842 184.397 84.8506 186.337 84.8506C187.718 84.8506 188.955 84.7204 190.048 84.46C191.155 84.1865 192.294 83.7894 193.466 83.2686V86.999C192.386 87.5068 191.285 87.8779 190.166 88.1123C189.046 88.3467 187.705 88.4639 186.142 88.4639C184.02 88.4639 182.151 88.0537 180.537 87.2334C178.935 86.4001 177.679 85.1631 176.767 83.5225C175.869 81.8818 175.419 79.8441 175.419 77.4092C175.419 74.9873 175.83 72.93 176.65 71.2373C177.47 69.5446 178.623 68.2555 180.107 67.3701C181.591 66.4847 183.323 66.042 185.302 66.042ZM185.302 69.499C183.857 69.499 182.685 69.9678 181.787 70.9053C180.901 71.8428 180.38 73.2165 180.224 75.0264H190.068C190.055 73.9456 189.873 72.9886 189.521 72.1553C189.182 71.3219 188.662 70.6709 187.958 70.2021C187.268 69.7334 186.383 69.499 185.302 69.499ZM211.005 66.042C213.44 66.042 215.335 66.6735 216.689 67.9365C218.056 69.1865 218.74 71.1982 218.74 73.9717V88.0732H214.15V74.8311C214.15 73.1514 213.805 71.8949 213.115 71.0615C212.425 70.2152 211.357 69.792 209.912 69.792C207.815 69.792 206.357 70.4365 205.537 71.7256C204.729 73.0146 204.326 74.8831 204.326 77.3311V88.0732H199.736V66.4521H203.31L203.955 69.3818H204.208C204.677 68.6266 205.257 68.0081 205.947 67.5264C206.65 67.0316 207.431 66.6605 208.291 66.4131C209.163 66.1657 210.068 66.042 211.005 66.042ZM233.212 84.7529C233.811 84.7529 234.404 84.7008 234.99 84.5967C235.576 84.4795 236.11 84.3428 236.591 84.1865V87.6631C236.083 87.8844 235.426 88.0732 234.619 88.2295C233.811 88.3857 232.972 88.4639 232.099 88.4639C230.875 88.4639 229.775 88.262 228.798 87.8584C227.822 87.4417 227.047 86.7321 226.474 85.7295C225.901 84.7269 225.615 83.3402 225.615 81.5693V69.9482H222.666V67.8975L225.83 66.2764L227.333 61.6475H230.224V66.4521H236.416V69.9482H230.224V81.5107C230.224 82.6045 230.498 83.4183 231.044 83.9521C231.591 84.486 232.314 84.7529 233.212 84.7529ZM240.322 85.6514C240.322 84.5837 240.595 83.835 241.142 83.4053C241.702 82.9626 242.379 82.7412 243.173 82.7412C243.968 82.7412 244.645 82.9626 245.205 83.4053C245.778 83.835 246.064 84.5837 246.064 85.6514C246.064 86.693 245.778 87.4482 245.205 87.917C244.645 88.3727 243.968 88.6006 243.173 88.6006C242.379 88.6006 241.702 88.3727 241.142 87.917C240.595 87.4482 240.322 86.693 240.322 85.6514Z" fill="#06241B"/>
<path d="M92.4507 18.4521V40.0732H87.8608V18.4521H92.4507ZM90.1851 10.1709C90.8882 10.1709 91.4937 10.3597 92.0015 10.7373C92.5223 11.1149 92.7827 11.766 92.7827 12.6904C92.7827 13.6019 92.5223 14.2529 92.0015 14.6436C91.4937 15.0212 90.8882 15.21 90.1851 15.21C89.4559 15.21 88.8374 15.0212 88.3296 14.6436C87.8348 14.2529 87.5874 13.6019 87.5874 12.6904C87.5874 11.766 87.8348 11.1149 88.3296 10.7373C88.8374 10.3597 89.4559 10.1709 90.1851 10.1709ZM105.205 49.6826C102.275 49.6826 100.029 49.1553 98.4663 48.1006C96.9038 47.0459 96.1226 45.568 96.1226 43.667C96.1226 42.3389 96.5392 41.2126 97.3726 40.2881C98.2059 39.3766 99.3973 38.7451 100.947 38.3936C100.361 38.1331 99.853 37.7295 99.4233 37.1826C99.0067 36.6227 98.7983 36.0042 98.7983 35.3271C98.7983 34.5199 99.0262 33.8298 99.4819 33.2568C99.9377 32.6839 100.621 32.1305 101.533 31.5967C100.4 31.1149 99.4884 30.3337 98.7983 29.2529C98.1213 28.1592 97.7827 26.8766 97.7827 25.4053C97.7827 23.8428 98.1147 22.5146 98.7788 21.4209C99.4429 20.3141 100.413 19.4743 101.689 18.9014C102.965 18.3154 104.508 18.0225 106.318 18.0225C106.708 18.0225 107.132 18.0485 107.587 18.1006C108.056 18.1396 108.486 18.1917 108.876 18.2568C109.28 18.3089 109.586 18.3675 109.794 18.4326H117.275V20.9912L113.603 21.6748C113.955 22.1696 114.235 22.736 114.443 23.374C114.651 23.999 114.755 24.6826 114.755 25.4248C114.755 27.6644 113.981 29.4287 112.431 30.7178C110.895 31.9938 108.772 32.6318 106.064 32.6318C105.413 32.6058 104.781 32.5537 104.169 32.4756C103.701 32.762 103.343 33.0811 103.095 33.4326C102.848 33.7712 102.724 34.1553 102.724 34.585C102.724 34.9365 102.848 35.223 103.095 35.4443C103.343 35.6527 103.707 35.8089 104.189 35.9131C104.684 36.0173 105.283 36.0693 105.986 36.0693H109.716C112.086 36.0693 113.896 36.5706 115.146 37.5732C116.396 38.5758 117.021 40.0472 117.021 41.9873C117.021 44.4482 116.005 46.3428 113.974 47.6709C111.943 49.012 109.02 49.6826 105.205 49.6826ZM105.38 46.46C106.982 46.46 108.33 46.3037 109.423 45.9912C110.517 45.6787 111.344 45.2295 111.904 44.6436C112.464 44.0706 112.744 43.387 112.744 42.5928C112.744 41.8896 112.568 41.3493 112.216 40.9717C111.865 40.5941 111.337 40.3337 110.634 40.1904C109.931 40.0472 109.059 39.9756 108.017 39.9756H104.619C103.772 39.9756 103.024 40.1058 102.373 40.3662C101.722 40.6396 101.214 41.0303 100.849 41.5381C100.498 42.0459 100.322 42.6579 100.322 43.374C100.322 44.3636 100.758 45.1253 101.63 45.6592C102.516 46.193 103.766 46.46 105.38 46.46ZM106.279 29.624C107.62 29.624 108.616 29.2594 109.267 28.5303C109.918 27.7881 110.244 26.7464 110.244 25.4053C110.244 23.9469 109.905 22.8532 109.228 22.124C108.564 21.3949 107.574 21.0303 106.259 21.0303C104.97 21.0303 103.987 21.4014 103.31 22.1436C102.646 22.8857 102.314 23.986 102.314 25.4443C102.314 26.7594 102.646 27.7881 103.31 28.5303C103.987 29.2594 104.977 29.624 106.279 29.624ZM132.49 18.042C134.925 18.042 136.819 18.6735 138.173 19.9365C139.541 21.1865 140.224 23.1982 140.224 25.9717V40.0732H135.634V26.8311C135.634 25.1514 135.289 23.8949 134.599 23.0615C133.909 22.2152 132.841 21.792 131.396 21.792C129.3 21.792 127.841 22.4365 127.021 23.7256C126.214 25.0146 125.81 26.8831 125.81 29.3311V40.0732H121.22V18.4521H124.794L125.439 21.3818H125.693C126.162 20.6266 126.741 20.0081 127.431 19.5264C128.134 19.0316 128.916 18.6605 129.775 18.4131C130.647 18.1657 131.552 18.042 132.49 18.042ZM155.263 18.042C157.19 18.042 158.844 18.4391 160.224 19.2334C161.604 20.0277 162.666 21.154 163.408 22.6123C164.15 24.0706 164.521 25.8154 164.521 27.8467V30.3076H150.087C150.139 32.404 150.699 34.0186 151.767 35.1514C152.848 36.2842 154.358 36.8506 156.298 36.8506C157.679 36.8506 158.916 36.7204 160.009 36.46C161.116 36.1865 162.255 35.7894 163.427 35.2686V38.999C162.347 39.5068 161.246 39.8779 160.126 40.1123C159.007 40.3467 157.666 40.4639 156.103 40.4639C153.981 40.4639 152.112 40.0537 150.498 39.2334C148.896 38.4001 147.639 37.1631 146.728 35.5225C145.83 33.8818 145.38 31.8441 145.38 29.4092C145.38 26.9873 145.791 24.93 146.611 23.2373C147.431 21.5446 148.583 20.2555 150.068 19.3701C151.552 18.4847 153.284 18.042 155.263 18.042ZM155.263 21.499C153.818 21.499 152.646 21.9678 151.748 22.9053C150.862 23.8428 150.341 25.2165 150.185 27.0264H160.029C160.016 25.9456 159.833 24.9886 159.482 24.1553C159.143 23.3219 158.623 22.6709 157.919 22.2021C157.229 21.7334 156.344 21.499 155.263 21.499ZM184.169 40.0732H167.744V37.2412L178.662 21.9873H168.408V18.4521H183.857V21.5771L173.154 36.5381H184.169V40.0732ZM207.705 18.042C210.439 18.042 212.503 18.6475 213.896 19.8584C215.302 21.0693 216.005 22.9574 216.005 25.5225V40.0732H212.744L211.865 37.0068H211.708C211.097 37.7881 210.465 38.4326 209.814 38.9404C209.163 39.4482 208.408 39.8258 207.548 40.0732C206.702 40.3337 205.667 40.4639 204.443 40.4639C203.154 40.4639 202.001 40.2295 200.986 39.7607C199.97 39.279 199.169 38.5498 198.583 37.5732C197.998 36.5967 197.705 35.3597 197.705 33.8623C197.705 31.6357 198.531 29.9626 200.185 28.8428C201.852 27.723 204.365 27.1045 207.724 26.9873L211.474 26.8506V25.7178C211.474 24.2204 211.123 23.1527 210.419 22.5146C209.729 21.8766 208.753 21.5576 207.49 21.5576C206.409 21.5576 205.361 21.7139 204.345 22.0264C203.33 22.3389 202.34 22.723 201.376 23.1787L199.892 19.9365C200.947 19.3766 202.145 18.9209 203.486 18.5693C204.84 18.2178 206.246 18.042 207.705 18.042ZM211.455 29.7412L208.662 29.8389C206.37 29.917 204.762 30.3076 203.837 31.0107C202.913 31.7139 202.451 32.6774 202.451 33.9014C202.451 34.9691 202.77 35.7503 203.408 36.2451C204.046 36.7269 204.886 36.9678 205.927 36.9678C207.516 36.9678 208.831 36.5186 209.873 35.6201C210.927 34.7087 211.455 33.374 211.455 31.6162V29.7412ZM241.279 18.4521V40.0732H237.666L237.041 37.1631H236.787C236.331 37.9053 235.751 38.5238 235.048 39.0186C234.345 39.5003 233.564 39.8584 232.705 40.0928C231.845 40.3402 230.94 40.4639 229.99 40.4639C228.362 40.4639 226.969 40.1904 225.81 39.6436C224.664 39.0837 223.785 38.2243 223.173 37.0654C222.561 35.9066 222.255 34.4092 222.255 32.5732V18.4521H226.865V31.7139C226.865 33.3936 227.203 34.6501 227.88 35.4834C228.57 36.3167 229.638 36.7334 231.083 36.7334C232.477 36.7334 233.583 36.4469 234.404 35.874C235.224 35.3011 235.804 34.4548 236.142 33.335C236.494 32.2152 236.669 30.8415 236.669 29.2139V18.4521H241.279ZM245.693 49.6826C245.016 49.6826 244.371 49.6305 243.759 49.5264C243.147 49.4352 242.633 49.3245 242.216 49.1943V45.5225C242.659 45.6527 243.089 45.7503 243.505 45.8154C243.922 45.8805 244.397 45.9131 244.931 45.9131C245.778 45.9131 246.474 45.6787 247.021 45.21C247.581 44.7412 247.861 43.8493 247.861 42.5342V18.4521H252.451V42.9443C252.451 44.2594 252.216 45.4248 251.748 46.4404C251.292 47.4561 250.563 48.2503 249.56 48.8232C248.57 49.3962 247.281 49.6826 245.693 49.6826ZM247.587 12.6904C247.587 11.766 247.835 11.1149 248.33 10.7373C248.837 10.3597 249.456 10.1709 250.185 10.1709C250.888 10.1709 251.494 10.3597 252.001 10.7373C252.522 11.1149 252.783 11.766 252.783 12.6904C252.783 13.6019 252.522 14.2529 252.001 14.6436C251.494 15.0212 250.888 15.21 250.185 15.21C249.456 15.21 248.837 15.0212 248.33 14.6436C247.835 14.2529 247.587 13.6019 247.587 12.6904ZM278.173 29.2139C278.173 31.0107 277.939 32.6058 277.47 33.999C277.001 35.3923 276.318 36.5706 275.419 37.5342C274.521 38.4847 273.44 39.2139 272.177 39.7217C270.914 40.2165 269.488 40.4639 267.9 40.4639C266.416 40.4639 265.055 40.2165 263.818 39.7217C262.581 39.2139 261.507 38.4847 260.595 37.5342C259.697 36.5706 259 35.3923 258.505 33.999C258.011 32.6058 257.763 31.0107 257.763 29.2139C257.763 26.8311 258.173 24.8128 258.994 23.1592C259.827 21.4925 261.012 20.223 262.548 19.3506C264.085 18.4782 265.914 18.042 268.037 18.042C270.029 18.042 271.787 18.4782 273.31 19.3506C274.833 20.223 276.025 21.4925 276.884 23.1592C277.744 24.8258 278.173 26.8441 278.173 29.2139ZM262.49 29.2139C262.49 30.7894 262.679 32.137 263.056 33.2568C263.447 34.3766 264.046 35.236 264.853 35.835C265.66 36.4209 266.702 36.7139 267.978 36.7139C269.254 36.7139 270.296 36.4209 271.103 35.835C271.91 35.236 272.503 34.3766 272.88 33.2568C273.258 32.137 273.447 30.7894 273.447 29.2139C273.447 27.6383 273.258 26.3037 272.88 25.21C272.503 24.1032 271.91 23.2633 271.103 22.6904C270.296 22.1045 269.248 21.8115 267.958 21.8115C266.057 21.8115 264.671 22.4495 263.798 23.7256C262.926 25.0016 262.49 26.8311 262.49 29.2139ZM302.294 18.4521V40.0732H298.681L298.056 37.1631H297.802C297.347 37.9053 296.767 38.5238 296.064 39.0186C295.361 39.5003 294.58 39.8584 293.72 40.0928C292.861 40.3402 291.956 40.4639 291.005 40.4639C289.378 40.4639 287.985 40.1904 286.826 39.6436C285.68 39.0837 284.801 38.2243 284.189 37.0654C283.577 35.9066 283.271 34.4092 283.271 32.5732V18.4521H287.88V31.7139C287.88 33.3936 288.219 34.6501 288.896 35.4834C289.586 36.3167 290.654 36.7334 292.099 36.7334C293.492 36.7334 294.599 36.4469 295.419 35.874C296.24 35.3011 296.819 34.4548 297.158 33.335C297.509 32.2152 297.685 30.8415 297.685 29.2139V18.4521H302.294ZM319.833 18.042C320.198 18.042 320.595 18.0615 321.025 18.1006C321.455 18.1396 321.826 18.1917 322.138 18.2568L321.708 22.5537C321.435 22.4756 321.097 22.417 320.693 22.3779C320.302 22.3389 319.951 22.3193 319.638 22.3193C318.818 22.3193 318.037 22.4561 317.294 22.7295C316.552 22.9899 315.895 23.3936 315.322 23.9404C314.749 24.4743 314.3 25.1449 313.974 25.9521C313.649 26.7594 313.486 27.6969 313.486 28.7646V40.0732H308.876V18.4521H312.47L313.095 22.2607H313.31C313.74 21.4925 314.274 20.7894 314.912 20.1514C315.55 19.5133 316.279 19.0055 317.099 18.6279C317.932 18.2373 318.844 18.042 319.833 18.042ZM333.408 40.4639C330.83 40.4639 328.759 39.5264 327.197 37.6514C325.647 35.7633 324.873 32.9834 324.873 29.3115C324.873 25.6006 325.66 22.7946 327.236 20.8936C328.824 18.9925 330.914 18.042 333.505 18.042C334.599 18.042 335.556 18.1917 336.376 18.4912C337.197 18.7777 337.9 19.1683 338.486 19.6631C339.085 20.1579 339.593 20.7113 340.009 21.3232H340.224C340.159 20.9196 340.081 20.3402 339.99 19.585C339.912 18.8167 339.873 18.1071 339.873 17.4561V9.68262H344.482V40.0732H340.888L340.068 37.124H339.873C339.482 37.749 338.987 38.3154 338.388 38.8232C337.802 39.318 337.099 39.7152 336.279 40.0146C335.472 40.3141 334.514 40.4639 333.408 40.4639ZM334.697 36.7334C336.663 36.7334 338.05 36.167 338.857 35.0342C339.664 33.9014 340.081 32.2021 340.107 29.9365V29.3311C340.107 26.9092 339.716 25.0537 338.935 23.7646C338.154 22.4626 336.728 21.8115 334.658 21.8115C333.004 21.8115 331.741 22.4821 330.869 23.8232C330.009 25.1514 329.58 27.0068 329.58 29.3896C329.58 31.7725 330.009 33.5954 330.869 34.8584C331.741 36.1084 333.017 36.7334 334.697 36.7334ZM354.892 11.5186L354.111 21.8311H351.162L350.4 11.5186H354.892ZM365.38 9.68262V17.3193C365.38 18.1136 365.354 18.8883 365.302 19.6436C365.263 20.3988 365.218 20.9847 365.166 21.4014H365.419C365.875 20.6462 366.435 20.0277 367.099 19.5459C367.763 19.0511 368.505 18.68 369.326 18.4326C370.159 18.1852 371.044 18.0615 371.982 18.0615C373.636 18.0615 375.042 18.3415 376.201 18.9014C377.36 19.4482 378.245 20.3011 378.857 21.46C379.482 22.6188 379.794 24.1227 379.794 25.9717V40.0732H375.205V26.8311C375.205 25.1514 374.86 23.8949 374.169 23.0615C373.479 22.2152 372.412 21.792 370.966 21.792C369.573 21.792 368.466 22.085 367.646 22.6709C366.839 23.2438 366.259 24.0967 365.908 25.2295C365.556 26.3493 365.38 27.7165 365.38 29.3311V40.0732H360.791V9.68262H365.38ZM405.068 18.4521V40.0732H401.455L400.83 37.1631H400.576C400.12 37.9053 399.541 38.5238 398.837 39.0186C398.134 39.5003 397.353 39.8584 396.494 40.0928C395.634 40.3402 394.729 40.4639 393.779 40.4639C392.151 40.4639 390.758 40.1904 389.599 39.6436C388.453 39.0837 387.574 38.2243 386.962 37.0654C386.35 35.9066 386.044 34.4092 386.044 32.5732V18.4521H390.654V31.7139C390.654 33.3936 390.992 34.6501 391.669 35.4834C392.36 36.3167 393.427 36.7334 394.873 36.7334C396.266 36.7334 397.373 36.4469 398.193 35.874C399.013 35.3011 399.593 34.4548 399.931 33.335C400.283 32.2152 400.458 30.8415 400.458 29.2139V18.4521H405.068ZM416.24 18.4521V40.0732H411.65V18.4521H416.24ZM413.974 10.1709C414.677 10.1709 415.283 10.3597 415.791 10.7373C416.311 11.1149 416.572 11.766 416.572 12.6904C416.572 13.6019 416.311 14.2529 415.791 14.6436C415.283 15.0212 414.677 15.21 413.974 15.21C413.245 15.21 412.626 15.0212 412.119 14.6436C411.624 14.2529 411.376 13.6019 411.376 12.6904C411.376 11.766 411.624 11.1149 412.119 10.7373C412.626 10.3597 413.245 10.1709 413.974 10.1709Z" fill="#0061B1"/>
<path d="M9.0759 127.481C10.2999 127.481 11.3839 127.737 12.3279 128.249C13.2719 128.753 14.0319 129.429 14.6079 130.277C15.1839 131.125 15.5239 132.057 15.6279 133.073H13.2639C13.1359 132.393 12.8919 131.777 12.5319 131.225C12.1719 130.673 11.6999 130.233 11.1159 129.905C10.5319 129.577 9.8319 129.413 9.0159 129.413C7.9679 129.413 7.0799 129.661 6.3519 130.157C5.6319 130.645 5.0839 131.401 4.7079 132.425C4.3399 133.449 4.1559 134.761 4.1559 136.361C4.1559 138.777 4.5679 140.553 5.3919 141.689C6.2239 142.817 7.4319 143.381 9.0159 143.381C9.8319 143.381 10.5319 143.209 11.1159 142.865C11.6999 142.521 12.1719 142.061 12.5319 141.485C12.8919 140.909 13.1359 140.285 13.2639 139.613H15.6279C15.5399 140.349 15.3399 141.061 15.0279 141.749C14.7239 142.429 14.3039 143.037 13.7679 143.573C13.2319 144.109 12.5719 144.533 11.7879 144.845C11.0119 145.157 10.1079 145.313 9.0759 145.313C7.5159 145.313 6.1839 144.957 5.0799 144.245C3.9839 143.533 3.1439 142.509 2.5599 141.173C1.9839 139.837 1.6959 138.225 1.6959 136.337C1.6959 134.457 1.9839 132.857 2.5599 131.537C3.1359 130.217 3.9719 129.213 5.0679 128.525C6.1719 127.829 7.5079 127.481 9.0759 127.481ZM23.6679 145.313C22.5239 145.313 21.5239 145.069 20.6679 144.581C19.8119 144.085 19.1479 143.361 18.6759 142.409C18.2039 141.457 17.9679 140.293 17.9679 138.917C17.9679 137.621 18.1879 136.485 18.6279 135.509C19.0679 134.533 19.7119 133.777 20.5599 133.241C21.4159 132.697 22.4519 132.425 23.6679 132.425C24.8119 132.425 25.8039 132.677 26.6439 133.181C27.4919 133.677 28.1479 134.409 28.6119 135.377C29.0759 136.345 29.3079 137.525 29.3079 138.917C29.3079 140.181 29.0919 141.293 28.6599 142.253C28.2359 143.213 27.6039 143.965 26.7639 144.509C25.9319 145.045 24.8999 145.313 23.6679 145.313ZM23.6679 143.561C24.4119 143.561 25.0399 143.373 25.5519 142.997C26.0639 142.621 26.4519 142.081 26.7159 141.377C26.9799 140.673 27.1119 139.837 27.1119 138.869C27.1119 137.981 26.9959 137.185 26.7639 136.481C26.5319 135.769 26.1599 135.205 25.6479 134.789C25.1439 134.373 24.4839 134.165 23.6679 134.165C22.9159 134.165 22.2799 134.353 21.7599 134.729C21.2399 135.097 20.8439 135.633 20.5719 136.337C20.3079 137.041 20.1759 137.885 20.1759 138.869C20.1759 139.741 20.2959 140.533 20.5359 141.245C20.7759 141.957 21.1519 142.521 21.6639 142.937C22.1759 143.353 22.8439 143.561 23.6679 143.561ZM32.2125 145.073V132.665H34.3485V134.465C34.6925 133.921 35.1645 133.445 35.7645 133.037C36.3645 132.629 37.1445 132.425 38.1045 132.425C38.5525 132.425 39.0085 132.501 39.4725 132.653C39.9445 132.805 40.3765 133.033 40.7685 133.337C41.1605 133.641 41.4645 134.013 41.6805 134.453C42.0645 133.845 42.5845 133.357 43.2405 132.989C43.8965 132.613 44.6365 132.425 45.4605 132.425C45.8925 132.425 46.3445 132.493 46.8165 132.629C47.2885 132.757 47.7245 132.989 48.1245 133.325C48.5325 133.653 48.8645 134.113 49.1205 134.705C49.3765 135.289 49.5045 136.041 49.5045 136.961V145.073H47.2725V137.177C47.2725 136.425 47.1525 135.845 46.9125 135.437C46.6725 135.021 46.3565 134.729 45.9645 134.561C45.5805 134.393 45.1685 134.309 44.7285 134.309C44.3445 134.309 43.9365 134.385 43.5045 134.537C43.0725 134.689 42.7045 134.945 42.4005 135.305C42.0965 135.665 41.9445 136.157 41.9445 136.781V145.073H39.7365V136.529C39.7365 136.041 39.6045 135.633 39.3405 135.305C39.0845 134.977 38.7605 134.729 38.3685 134.561C37.9845 134.393 37.6005 134.309 37.2165 134.309C36.7925 134.309 36.3645 134.393 35.9325 134.561C35.5085 134.729 35.1485 134.997 34.8525 135.365C34.5645 135.725 34.4205 136.197 34.4205 136.781V145.073H32.2125ZM52.9781 145.073V132.665H55.1141V134.465C55.4581 133.921 55.9301 133.445 56.5301 133.037C57.1301 132.629 57.9101 132.425 58.8701 132.425C59.3181 132.425 59.7741 132.501 60.2381 132.653C60.7101 132.805 61.1421 133.033 61.5341 133.337C61.9261 133.641 62.2301 134.013 62.4461 134.453C62.8301 133.845 63.3501 133.357 64.0061 132.989C64.6621 132.613 65.4021 132.425 66.2261 132.425C66.6581 132.425 67.1101 132.493 67.5821 132.629C68.0541 132.757 68.4901 132.989 68.8901 133.325C69.2981 133.653 69.6301 134.113 69.8861 134.705C70.1421 135.289 70.2701 136.041 70.2701 136.961V145.073H68.0381V137.177C68.0381 136.425 67.9181 135.845 67.6781 135.437C67.4381 135.021 67.1221 134.729 66.7301 134.561C66.3461 134.393 65.9341 134.309 65.4941 134.309C65.1101 134.309 64.7021 134.385 64.2701 134.537C63.8381 134.689 63.4701 134.945 63.1661 135.305C62.8621 135.665 62.7101 136.157 62.7101 136.781V145.073H60.5021V136.529C60.5021 136.041 60.3701 135.633 60.1061 135.305C59.8501 134.977 59.5261 134.729 59.1341 134.561C58.7501 134.393 58.3661 134.309 57.9821 134.309C57.5581 134.309 57.1301 134.393 56.6981 134.561C56.2741 134.729 55.9141 134.997 55.6181 135.365C55.3301 135.725 55.1861 136.197 55.1861 136.781V145.073H52.9781ZM75.3277 139.385C75.3277 140.169 75.4557 140.881 75.7117 141.521C75.9757 142.153 76.3717 142.657 76.8997 143.033C77.4357 143.409 78.1037 143.597 78.9037 143.597C79.6957 143.597 80.3757 143.413 80.9437 143.045C81.5197 142.677 81.8877 142.145 82.0477 141.449H84.1477C83.9957 142.289 83.6597 142.997 83.1397 143.573C82.6197 144.149 81.9917 144.585 81.2557 144.881C80.5197 145.169 79.7517 145.313 78.9517 145.313C77.7917 145.313 76.7717 145.061 75.8917 144.557C75.0117 144.053 74.3237 143.329 73.8277 142.385C73.3317 141.441 73.0837 140.309 73.0837 138.989C73.0837 137.685 73.3077 136.541 73.7557 135.557C74.2037 134.573 74.8517 133.805 75.6997 133.253C76.5557 132.701 77.5837 132.425 78.7837 132.425C79.9517 132.425 80.9397 132.677 81.7477 133.181C82.5557 133.685 83.1677 134.397 83.5837 135.317C84.0077 136.229 84.2197 137.313 84.2197 138.569V139.385H75.3277ZM75.3397 137.885H82.0837C82.0837 137.173 81.9637 136.533 81.7237 135.965C81.4837 135.389 81.1157 134.937 80.6197 134.609C80.1317 134.273 79.5157 134.105 78.7717 134.105C77.9957 134.105 77.3517 134.293 76.8397 134.669C76.3357 135.037 75.9557 135.513 75.6997 136.097C75.4517 136.673 75.3317 137.269 75.3397 137.885ZM87.2672 145.073V132.665H89.4152V134.465C89.6152 134.121 89.8912 133.797 90.2432 133.493C90.6032 133.189 91.0352 132.945 91.5392 132.761C92.0512 132.577 92.6392 132.485 93.3032 132.485C94.0872 132.485 94.8072 132.641 95.4632 132.953C96.1272 133.265 96.6552 133.753 97.0472 134.417C97.4472 135.073 97.6472 135.921 97.6472 136.961V145.073H95.4272V137.177C95.4272 136.209 95.1712 135.493 94.6592 135.029C94.1552 134.557 93.4992 134.321 92.6912 134.321C92.1312 134.321 91.6072 134.413 91.1192 134.597C90.6312 134.773 90.2352 135.045 89.9312 135.413C89.6272 135.773 89.4752 136.229 89.4752 136.781V145.073H87.2672ZM106.063 132.425C106.951 132.425 107.751 132.597 108.463 132.941C109.175 133.277 109.755 133.757 110.203 134.381C110.659 135.005 110.943 135.741 111.055 136.589H109.087C109.015 136.157 108.847 135.761 108.583 135.401C108.327 135.041 107.987 134.753 107.563 134.537C107.139 134.321 106.643 134.213 106.075 134.213C105.011 134.213 104.147 134.597 103.483 135.365C102.819 136.133 102.487 137.309 102.487 138.893C102.487 140.325 102.791 141.473 103.399 142.337C104.015 143.193 104.919 143.621 106.111 143.621C106.679 143.621 107.171 143.513 107.587 143.297C108.011 143.073 108.351 142.781 108.607 142.421C108.863 142.053 109.027 141.661 109.099 141.245H111.031C110.927 142.077 110.647 142.797 110.191 143.405C109.735 144.013 109.151 144.485 108.439 144.821C107.735 145.149 106.943 145.313 106.063 145.313C104.951 145.313 103.963 145.069 103.099 144.581C102.243 144.093 101.571 143.373 101.083 142.421C100.595 141.469 100.351 140.301 100.351 138.917C100.351 137.621 100.571 136.489 101.011 135.521C101.459 134.545 102.107 133.785 102.955 133.241C103.811 132.697 104.847 132.425 106.063 132.425ZM115.64 139.385C115.64 140.169 115.768 140.881 116.024 141.521C116.288 142.153 116.684 142.657 117.212 143.033C117.748 143.409 118.416 143.597 119.216 143.597C120.008 143.597 120.688 143.413 121.256 143.045C121.832 142.677 122.2 142.145 122.36 141.449H124.46C124.308 142.289 123.972 142.997 123.452 143.573C122.932 144.149 122.304 144.585 121.568 144.881C120.832 145.169 120.064 145.313 119.264 145.313C118.104 145.313 117.084 145.061 116.204 144.557C115.324 144.053 114.636 143.329 114.14 142.385C113.644 141.441 113.396 140.309 113.396 138.989C113.396 137.685 113.62 136.541 114.068 135.557C114.516 134.573 115.164 133.805 116.012 133.253C116.868 132.701 117.896 132.425 119.096 132.425C120.264 132.425 121.252 132.677 122.06 133.181C122.868 133.685 123.48 134.397 123.896 135.317C124.32 136.229 124.532 137.313 124.532 138.569V139.385H115.64ZM115.652 137.885H122.396C122.396 137.173 122.276 136.533 122.036 135.965C121.796 135.389 121.428 134.937 120.932 134.609C120.444 134.273 119.828 134.105 119.084 134.105C118.308 134.105 117.664 134.293 117.152 134.669C116.648 135.037 116.268 135.513 116.012 136.097C115.764 136.673 115.644 137.269 115.652 137.885ZM126.374 145.073V143.693L133.382 134.297H126.674V132.665H136.022V134.045L129.026 143.441H136.082V145.073H126.374ZM147.699 145.313C146.899 145.313 146.191 145.173 145.575 144.893C144.959 144.605 144.475 144.193 144.123 143.657C143.779 143.121 143.607 142.473 143.607 141.713C143.607 140.337 144.087 139.313 145.047 138.641C146.007 137.969 147.547 137.609 149.667 137.561L151.887 137.501V136.529C151.887 135.769 151.659 135.169 151.203 134.729C150.747 134.281 150.039 134.057 149.079 134.057C148.367 134.065 147.739 134.233 147.195 134.561C146.659 134.889 146.311 135.425 146.151 136.169H144.195C144.243 135.361 144.471 134.681 144.879 134.129C145.287 133.569 145.855 133.145 146.583 132.857C147.319 132.569 148.187 132.425 149.187 132.425C150.267 132.425 151.163 132.577 151.875 132.881C152.595 133.185 153.131 133.633 153.483 134.225C153.843 134.817 154.023 135.545 154.023 136.409V145.073H152.127L151.971 142.745C151.491 143.713 150.879 144.385 150.135 144.761C149.399 145.129 148.587 145.313 147.699 145.313ZM148.371 143.717C148.787 143.717 149.199 143.641 149.607 143.489C150.023 143.337 150.403 143.133 150.747 142.877C151.091 142.613 151.363 142.321 151.563 142.001C151.771 141.673 151.879 141.337 151.887 140.993V138.869L150.039 138.905C149.095 138.921 148.303 139.017 147.663 139.193C147.031 139.369 146.555 139.645 146.235 140.021C145.923 140.397 145.767 140.889 145.767 141.497C145.767 142.193 146.007 142.737 146.487 143.129C146.975 143.521 147.603 143.717 148.371 143.717ZM147.567 127.721H145.047L148.323 131.213H150.039L147.567 127.721ZM166.777 145.313C165.977 145.313 165.269 145.173 164.653 144.893C164.037 144.605 163.553 144.193 163.201 143.657C162.857 143.121 162.685 142.473 162.685 141.713C162.685 140.337 163.165 139.313 164.125 138.641C165.085 137.969 166.625 137.609 168.745 137.561L170.965 137.501V136.529C170.965 135.769 170.737 135.169 170.281 134.729C169.825 134.281 169.117 134.057 168.157 134.057C167.445 134.065 166.817 134.233 166.273 134.561C165.737 134.889 165.389 135.425 165.229 136.169H163.273C163.321 135.361 163.549 134.681 163.957 134.129C164.365 133.569 164.933 133.145 165.661 132.857C166.397 132.569 167.265 132.425 168.265 132.425C169.345 132.425 170.241 132.577 170.953 132.881C171.673 133.185 172.209 133.633 172.561 134.225C172.921 134.817 173.101 135.545 173.101 136.409V145.073H171.205L171.049 142.745C170.569 143.713 169.957 144.385 169.213 144.761C168.477 145.129 167.665 145.313 166.777 145.313ZM167.449 143.717C167.865 143.717 168.277 143.641 168.685 143.489C169.101 143.337 169.481 143.133 169.825 142.877C170.169 142.613 170.441 142.321 170.641 142.001C170.849 141.673 170.957 141.337 170.965 140.993V138.869L169.117 138.905C168.173 138.921 167.381 139.017 166.741 139.193C166.109 139.369 165.633 139.645 165.313 140.021C165.001 140.397 164.845 140.889 164.845 141.497C164.845 142.193 165.085 142.737 165.565 143.129C166.053 143.521 166.681 143.717 167.449 143.717ZM176.892 148.937V132.665H179.1L179.124 134.825C179.268 134.569 179.452 134.301 179.676 134.021C179.908 133.741 180.188 133.481 180.516 133.241C180.852 133.001 181.24 132.805 181.68 132.653C182.128 132.501 182.636 132.425 183.204 132.425C184.196 132.425 185.068 132.653 185.82 133.109C186.58 133.557 187.172 134.245 187.596 135.173C188.02 136.101 188.232 137.277 188.232 138.701C188.232 140.125 188.024 141.329 187.608 142.313C187.2 143.289 186.608 144.033 185.832 144.545C185.056 145.057 184.12 145.313 183.024 145.313C182.472 145.313 181.98 145.233 181.548 145.073C181.124 144.921 180.752 144.721 180.432 144.473C180.12 144.217 179.856 143.945 179.64 143.657C179.432 143.369 179.26 143.093 179.124 142.829V148.937H176.892ZM182.604 143.585C183.628 143.585 184.464 143.197 185.112 142.421C185.76 141.637 186.084 140.421 186.084 138.773C186.084 137.357 185.788 136.233 185.196 135.401C184.604 134.569 183.74 134.153 182.604 134.153C181.452 134.153 180.58 134.581 179.988 135.437C179.396 136.285 179.1 137.397 179.1 138.773C179.1 139.661 179.232 140.469 179.496 141.197C179.76 141.925 180.152 142.505 180.672 142.937C181.192 143.369 181.836 143.585 182.604 143.585ZM191.142 148.937V132.665H193.35L193.374 134.825C193.518 134.569 193.702 134.301 193.926 134.021C194.158 133.741 194.438 133.481 194.766 133.241C195.102 133.001 195.49 132.805 195.93 132.653C196.378 132.501 196.886 132.425 197.454 132.425C198.446 132.425 199.318 132.653 200.07 133.109C200.83 133.557 201.422 134.245 201.846 135.173C202.27 136.101 202.482 137.277 202.482 138.701C202.482 140.125 202.274 141.329 201.858 142.313C201.45 143.289 200.858 144.033 200.082 144.545C199.306 145.057 198.37 145.313 197.274 145.313C196.722 145.313 196.23 145.233 195.798 145.073C195.374 144.921 195.002 144.721 194.682 144.473C194.37 144.217 194.106 143.945 193.89 143.657C193.682 143.369 193.51 143.093 193.374 142.829V148.937H191.142ZM196.854 143.585C197.878 143.585 198.714 143.197 199.362 142.421C200.01 141.637 200.334 140.421 200.334 138.773C200.334 137.357 200.038 136.233 199.446 135.401C198.854 134.569 197.99 134.153 196.854 134.153C195.702 134.153 194.83 134.581 194.238 135.437C193.646 136.285 193.35 137.397 193.35 138.773C193.35 139.661 193.482 140.469 193.746 141.197C194.01 141.925 194.402 142.505 194.922 142.937C195.442 143.369 196.086 143.585 196.854 143.585ZM205.392 145.073V132.665H207.504V135.053C207.712 134.461 208.004 133.973 208.38 133.589C208.756 133.197 209.184 132.905 209.664 132.713C210.152 132.521 210.656 132.425 211.176 132.425C211.36 132.425 211.54 132.437 211.716 132.461C211.892 132.485 212.028 132.525 212.124 132.581V134.729C212.004 134.673 211.848 134.637 211.656 134.621C211.472 134.597 211.316 134.585 211.188 134.585C210.692 134.553 210.228 134.585 209.796 134.681C209.364 134.769 208.984 134.925 208.656 135.149C208.328 135.373 208.068 135.669 207.876 136.037C207.692 136.397 207.6 136.837 207.6 137.357V145.073H205.392ZM216.023 139.385C216.023 140.169 216.151 140.881 216.407 141.521C216.671 142.153 217.067 142.657 217.595 143.033C218.131 143.409 218.799 143.597 219.599 143.597C220.391 143.597 221.071 143.413 221.639 143.045C222.215 142.677 222.583 142.145 222.743 141.449H224.843C224.691 142.289 224.355 142.997 223.835 143.573C223.315 144.149 222.687 144.585 221.951 144.881C221.215 145.169 220.447 145.313 219.647 145.313C218.487 145.313 217.467 145.061 216.587 144.557C215.707 144.053 215.019 143.329 214.523 142.385C214.027 141.441 213.779 140.309 213.779 138.989C213.779 137.685 214.003 136.541 214.451 135.557C214.899 134.573 215.547 133.805 216.395 133.253C217.251 132.701 218.279 132.425 219.479 132.425C220.647 132.425 221.635 132.677 222.443 133.181C223.251 133.685 223.863 134.397 224.279 135.317C224.703 136.229 224.915 137.313 224.915 138.569V139.385H216.023ZM216.035 137.885H222.779C222.779 137.173 222.659 136.533 222.419 135.965C222.179 135.389 221.811 134.937 221.315 134.609C220.827 134.273 220.211 134.105 219.467 134.105C218.691 134.105 218.047 134.293 217.535 134.669C217.031 135.037 216.651 135.513 216.395 136.097C216.147 136.673 216.027 137.269 216.035 137.885ZM227.962 145.073V132.665H230.11V134.465C230.31 134.121 230.586 133.797 230.938 133.493C231.298 133.189 231.73 132.945 232.234 132.761C232.746 132.577 233.334 132.485 233.998 132.485C234.782 132.485 235.502 132.641 236.158 132.953C236.822 133.265 237.35 133.753 237.742 134.417C238.142 135.073 238.342 135.921 238.342 136.961V145.073H236.122V137.177C236.122 136.209 235.866 135.493 235.354 135.029C234.85 134.557 234.194 134.321 233.386 134.321C232.826 134.321 232.302 134.413 231.814 134.597C231.326 134.773 230.93 135.045 230.626 135.413C230.322 135.773 230.17 136.229 230.17 136.781V145.073H227.962ZM246.29 145.313C244.682 145.313 243.406 144.761 242.462 143.657C241.518 142.553 241.046 140.941 241.046 138.821C241.046 137.533 241.234 136.409 241.61 135.449C241.994 134.489 242.562 133.745 243.314 133.217C244.066 132.689 245.002 132.425 246.122 132.425C246.714 132.425 247.238 132.501 247.694 132.653C248.158 132.805 248.558 132.997 248.894 133.229C249.23 133.461 249.502 133.701 249.71 133.949C249.926 134.197 250.086 134.425 250.19 134.633V127.241H252.422V145.073H250.73L250.49 142.529C250.41 142.769 250.282 143.049 250.106 143.369C249.93 143.681 249.682 143.989 249.362 144.293C249.042 144.589 248.63 144.833 248.126 145.025C247.63 145.217 247.018 145.313 246.29 145.313ZM246.686 143.609C247.942 143.609 248.838 143.229 249.374 142.469C249.918 141.701 250.19 140.449 250.19 138.713C250.182 137.745 250.058 136.921 249.818 136.241C249.586 135.561 249.218 135.045 248.714 134.693C248.218 134.333 247.558 134.153 246.734 134.153C245.71 134.153 244.878 134.517 244.238 135.245C243.598 135.973 243.278 137.129 243.278 138.713C243.278 140.265 243.566 141.469 244.142 142.325C244.726 143.181 245.574 143.609 246.686 143.609ZM256.228 145.073V132.665H258.34V135.053C258.548 134.461 258.84 133.973 259.216 133.589C259.592 133.197 260.02 132.905 260.5 132.713C260.988 132.521 261.492 132.425 262.012 132.425C262.196 132.425 262.376 132.437 262.552 132.461C262.728 132.485 262.864 132.525 262.96 132.581V134.729C262.84 134.673 262.684 134.637 262.492 134.621C262.308 134.597 262.152 134.585 262.024 134.585C261.528 134.553 261.064 134.585 260.632 134.681C260.2 134.769 259.82 134.925 259.492 135.149C259.164 135.373 258.904 135.669 258.712 136.037C258.528 136.397 258.436 136.837 258.436 137.357V145.073H256.228ZM266.859 139.385C266.859 140.169 266.987 140.881 267.243 141.521C267.507 142.153 267.903 142.657 268.431 143.033C268.967 143.409 269.635 143.597 270.435 143.597C271.227 143.597 271.907 143.413 272.475 143.045C273.051 142.677 273.419 142.145 273.579 141.449H275.679C275.527 142.289 275.191 142.997 274.671 143.573C274.151 144.149 273.523 144.585 272.787 144.881C272.051 145.169 271.283 145.313 270.483 145.313C269.323 145.313 268.303 145.061 267.423 144.557C266.543 144.053 265.855 143.329 265.359 142.385C264.863 141.441 264.615 140.309 264.615 138.989C264.615 137.685 264.839 136.541 265.287 135.557C265.735 134.573 266.383 133.805 267.231 133.253C268.087 132.701 269.115 132.425 270.315 132.425C271.483 132.425 272.471 132.677 273.279 133.181C274.087 133.685 274.699 134.397 275.115 135.317C275.539 136.229 275.751 137.313 275.751 138.569V139.385H266.859ZM266.871 137.885H273.615C273.615 137.173 273.495 136.533 273.255 135.965C273.015 135.389 272.647 134.937 272.151 134.609C271.663 134.273 271.047 134.105 270.303 134.105C269.527 134.105 268.883 134.293 268.371 134.669C267.867 135.037 267.487 135.513 267.231 136.097C266.983 136.673 266.863 137.269 266.871 137.885ZM285.468 139.385C285.468 140.169 285.596 140.881 285.852 141.521C286.116 142.153 286.512 142.657 287.04 143.033C287.576 143.409 288.244 143.597 289.044 143.597C289.836 143.597 290.516 143.413 291.084 143.045C291.66 142.677 292.028 142.145 292.188 141.449H294.288C294.136 142.289 293.8 142.997 293.28 143.573C292.76 144.149 292.132 144.585 291.396 144.881C290.66 145.169 289.892 145.313 289.092 145.313C287.932 145.313 286.912 145.061 286.032 144.557C285.152 144.053 284.464 143.329 283.968 142.385C283.472 141.441 283.224 140.309 283.224 138.989C283.224 137.685 283.448 136.541 283.896 135.557C284.344 134.573 284.992 133.805 285.84 133.253C286.696 132.701 287.724 132.425 288.924 132.425C290.092 132.425 291.08 132.677 291.888 133.181C292.696 133.685 293.308 134.397 293.724 135.317C294.148 136.229 294.36 137.313 294.36 138.569V139.385H285.468ZM285.48 137.885H292.224C292.224 137.173 292.104 136.533 291.864 135.965C291.624 135.389 291.256 134.937 290.76 134.609C290.272 134.273 289.656 134.105 288.912 134.105C288.136 134.105 287.492 134.293 286.98 134.669C286.476 135.037 286.096 135.513 285.84 136.097C285.592 136.673 285.472 137.269 285.48 137.885ZM297.408 145.073V132.665H299.556V134.465C299.756 134.121 300.032 133.797 300.384 133.493C300.744 133.189 301.176 132.945 301.68 132.761C302.192 132.577 302.78 132.485 303.444 132.485C304.228 132.485 304.948 132.641 305.604 132.953C306.268 133.265 306.796 133.753 307.188 134.417C307.588 135.073 307.788 135.921 307.788 136.961V145.073H305.568V137.177C305.568 136.209 305.312 135.493 304.8 135.029C304.296 134.557 303.64 134.321 302.832 134.321C302.272 134.321 301.748 134.413 301.26 134.597C300.772 134.773 300.376 135.045 300.072 135.413C299.768 135.773 299.616 136.229 299.616 136.781V145.073H297.408ZM326.346 132.665L321.87 145.073H319.854L315.366 132.665H317.454L320.754 142.289H320.958L324.27 132.665H326.346ZM333.207 145.313C332.063 145.313 331.063 145.069 330.207 144.581C329.351 144.085 328.687 143.361 328.215 142.409C327.743 141.457 327.507 140.293 327.507 138.917C327.507 137.621 327.727 136.485 328.167 135.509C328.607 134.533 329.251 133.777 330.099 133.241C330.955 132.697 331.991 132.425 333.207 132.425C334.351 132.425 335.343 132.677 336.183 133.181C337.031 133.677 337.687 134.409 338.151 135.377C338.615 136.345 338.847 137.525 338.847 138.917C338.847 140.181 338.631 141.293 338.199 142.253C337.775 143.213 337.143 143.965 336.303 144.509C335.471 145.045 334.439 145.313 333.207 145.313ZM333.207 143.561C333.951 143.561 334.579 143.373 335.091 142.997C335.603 142.621 335.991 142.081 336.255 141.377C336.519 140.673 336.651 139.837 336.651 138.869C336.651 137.981 336.535 137.185 336.303 136.481C336.071 135.769 335.699 135.205 335.187 134.789C334.683 134.373 334.023 134.165 333.207 134.165C332.455 134.165 331.819 134.353 331.299 134.729C330.779 135.097 330.383 135.633 330.111 136.337C329.847 137.041 329.715 137.885 329.715 138.869C329.715 139.741 329.835 140.533 330.075 141.245C330.315 141.957 330.691 142.521 331.203 142.937C331.715 143.353 332.383 143.561 333.207 143.561ZM346.124 145.313C345.476 145.305 344.864 145.213 344.288 145.037C343.72 144.853 343.216 144.585 342.776 144.233C342.336 143.881 341.988 143.445 341.732 142.925C341.484 142.397 341.36 141.785 341.36 141.089V132.665H343.58V140.861C343.58 141.669 343.828 142.325 344.324 142.829C344.828 143.333 345.584 143.585 346.592 143.585C347.504 143.585 348.236 143.349 348.788 142.877C349.348 142.397 349.628 141.685 349.628 140.741V132.665H351.836V145.073H350.072L349.844 142.697C349.692 143.321 349.432 143.825 349.064 144.209C348.704 144.593 348.268 144.877 347.756 145.061C347.252 145.237 346.708 145.321 346.124 145.313ZM359.702 145.313C358.838 145.313 358.034 145.181 357.29 144.917C356.554 144.645 355.942 144.225 355.454 143.657C354.966 143.081 354.658 142.349 354.53 141.461H356.546C356.658 141.949 356.858 142.357 357.146 142.685C357.442 143.005 357.81 143.249 358.25 143.417C358.69 143.577 359.17 143.657 359.69 143.657C360.522 143.657 361.194 143.501 361.706 143.189C362.218 142.877 362.474 142.397 362.474 141.749C362.474 141.293 362.338 140.929 362.066 140.657C361.802 140.377 361.39 140.173 360.83 140.045L358.262 139.409C357.262 139.169 356.462 138.793 355.862 138.281C355.262 137.769 354.962 137.053 354.962 136.133C354.954 135.405 355.126 134.765 355.478 134.213C355.83 133.661 356.358 133.225 357.062 132.905C357.766 132.585 358.642 132.425 359.69 132.425C361.034 132.425 362.118 132.729 362.942 133.337C363.774 133.937 364.206 134.821 364.238 135.989H362.282C362.202 135.397 361.934 134.929 361.478 134.585C361.03 134.233 360.426 134.057 359.666 134.057C358.874 134.057 358.23 134.217 357.734 134.537C357.238 134.849 356.99 135.337 356.99 136.001C356.99 136.441 357.166 136.789 357.518 137.045C357.87 137.293 358.39 137.501 359.078 137.669L361.562 138.293C362.138 138.445 362.61 138.645 362.978 138.893C363.354 139.141 363.65 139.417 363.866 139.721C364.09 140.025 364.246 140.345 364.334 140.681C364.43 141.009 364.478 141.325 364.478 141.629C364.478 142.389 364.286 143.045 363.902 143.597C363.526 144.141 362.982 144.565 362.27 144.869C361.566 145.165 360.71 145.313 359.702 145.313ZM375.417 132.665V145.073H373.269V132.665H375.417ZM375.465 127.733V130.037H373.197V127.733H375.465ZM379.462 145.073V132.665H381.61V134.465C381.81 134.121 382.086 133.797 382.438 133.493C382.798 133.189 383.23 132.945 383.734 132.761C384.246 132.577 384.834 132.485 385.498 132.485C386.282 132.485 387.002 132.641 387.658 132.953C388.322 133.265 388.85 133.753 389.242 134.417C389.642 135.073 389.842 135.921 389.842 136.961V145.073H387.622V137.177C387.622 136.209 387.366 135.493 386.854 135.029C386.35 134.557 385.694 134.321 384.886 134.321C384.326 134.321 383.802 134.413 383.314 134.597C382.826 134.773 382.43 135.045 382.126 135.413C381.822 135.773 381.67 136.229 381.67 136.781V145.073H379.462ZM397.531 145.313C396.667 145.313 395.863 145.181 395.119 144.917C394.383 144.645 393.771 144.225 393.283 143.657C392.795 143.081 392.487 142.349 392.359 141.461H394.375C394.487 141.949 394.687 142.357 394.975 142.685C395.271 143.005 395.639 143.249 396.079 143.417C396.519 143.577 396.999 143.657 397.519 143.657C398.351 143.657 399.023 143.501 399.535 143.189C400.047 142.877 400.303 142.397 400.303 141.749C400.303 141.293 400.167 140.929 399.895 140.657C399.631 140.377 399.219 140.173 398.659 140.045L396.091 139.409C395.091 139.169 394.291 138.793 393.691 138.281C393.091 137.769 392.791 137.053 392.791 136.133C392.783 135.405 392.955 134.765 393.307 134.213C393.659 133.661 394.187 133.225 394.891 132.905C395.595 132.585 396.471 132.425 397.519 132.425C398.863 132.425 399.947 132.729 400.771 133.337C401.603 133.937 402.035 134.821 402.067 135.989H400.111C400.031 135.397 399.763 134.929 399.307 134.585C398.859 134.233 398.255 134.057 397.495 134.057C396.703 134.057 396.059 134.217 395.563 134.537C395.067 134.849 394.819 135.337 394.819 136.001C394.819 136.441 394.995 136.789 395.347 137.045C395.699 137.293 396.219 137.501 396.907 137.669L399.391 138.293C399.967 138.445 400.439 138.645 400.807 138.893C401.183 139.141 401.479 139.417 401.695 139.721C401.919 140.025 402.075 140.345 402.163 140.681C402.259 141.009 402.307 141.325 402.307 141.629C402.307 142.389 402.115 143.045 401.731 143.597C401.355 144.141 400.811 144.565 400.099 144.869C399.395 145.165 398.539 145.313 397.531 145.313ZM410.352 132.425C411.24 132.425 412.04 132.597 412.752 132.941C413.464 133.277 414.044 133.757 414.492 134.381C414.948 135.005 415.232 135.741 415.344 136.589H413.376C413.304 136.157 413.136 135.761 412.872 135.401C412.616 135.041 412.276 134.753 411.852 134.537C411.428 134.321 410.932 134.213 410.364 134.213C409.3 134.213 408.436 134.597 407.772 135.365C407.108 136.133 406.776 137.309 406.776 138.893C406.776 140.325 407.08 141.473 407.688 142.337C408.304 143.193 409.208 143.621 410.4 143.621C410.968 143.621 411.46 143.513 411.876 143.297C412.3 143.073 412.64 142.781 412.896 142.421C413.152 142.053 413.316 141.661 413.388 141.245H415.32C415.216 142.077 414.936 142.797 414.48 143.405C414.024 144.013 413.44 144.485 412.728 144.821C412.024 145.149 411.232 145.313 410.352 145.313C409.24 145.313 408.252 145.069 407.388 144.581C406.532 144.093 405.86 143.373 405.372 142.421C404.884 141.469 404.64 140.301 404.64 138.917C404.64 137.621 404.86 136.489 405.3 135.521C405.748 134.545 406.396 133.785 407.244 133.241C408.1 132.697 409.136 132.425 410.352 132.425ZM418.345 145.073V132.665H420.457V135.053C420.665 134.461 420.957 133.973 421.333 133.589C421.709 133.197 422.137 132.905 422.617 132.713C423.105 132.521 423.609 132.425 424.129 132.425C424.313 132.425 424.493 132.437 424.669 132.461C424.845 132.485 424.981 132.525 425.077 132.581V134.729C424.957 134.673 424.801 134.637 424.609 134.621C424.425 134.597 424.269 134.585 424.141 134.585C423.645 134.553 423.181 134.585 422.749 134.681C422.317 134.769 421.937 134.925 421.609 135.149C421.281 135.373 421.021 135.669 420.829 136.037C420.645 136.397 420.553 136.837 420.553 137.357V145.073H418.345ZM430.05 132.665V145.073H427.902V132.665H430.05ZM430.098 127.733V130.037H427.83V127.733H430.098ZM443.651 132.665L439.175 145.073H437.159L432.671 132.665H434.759L438.059 142.289H438.263L441.575 132.665H443.651ZM449.012 145.313C448.212 145.313 447.504 145.173 446.888 144.893C446.272 144.605 445.788 144.193 445.436 143.657C445.092 143.121 444.92 142.473 444.92 141.713C444.92 140.337 445.4 139.313 446.36 138.641C447.32 137.969 448.86 137.609 450.98 137.561L453.2 137.501V136.529C453.2 135.769 452.972 135.169 452.516 134.729C452.06 134.281 451.352 134.057 450.392 134.057C449.68 134.065 449.052 134.233 448.508 134.561C447.972 134.889 447.624 135.425 447.464 136.169H445.508C445.556 135.361 445.784 134.681 446.192 134.129C446.6 133.569 447.168 133.145 447.896 132.857C448.632 132.569 449.5 132.425 450.5 132.425C451.58 132.425 452.476 132.577 453.188 132.881C453.908 133.185 454.444 133.633 454.796 134.225C455.156 134.817 455.336 135.545 455.336 136.409V145.073H453.44L453.284 142.745C452.804 143.713 452.192 144.385 451.448 144.761C450.712 145.129 449.9 145.313 449.012 145.313ZM449.684 143.717C450.1 143.717 450.512 143.641 450.92 143.489C451.336 143.337 451.716 143.133 452.06 142.877C452.404 142.613 452.676 142.321 452.876 142.001C453.084 141.673 453.192 141.337 453.2 140.993V138.869L451.352 138.905C450.408 138.921 449.616 139.017 448.976 139.193C448.344 139.369 447.868 139.645 447.548 140.021C447.236 140.397 447.08 140.889 447.08 141.497C447.08 142.193 447.32 142.737 447.8 143.129C448.288 143.521 448.916 143.717 449.684 143.717ZM459.127 145.073V132.665H461.275V134.465C461.475 134.121 461.751 133.797 462.103 133.493C462.463 133.189 462.895 132.945 463.399 132.761C463.911 132.577 464.499 132.485 465.163 132.485C465.947 132.485 466.667 132.641 467.323 132.953C467.987 133.265 468.515 133.753 468.907 134.417C469.307 135.073 469.507 135.921 469.507 136.961V145.073H467.287V137.177C467.287 136.209 467.031 135.493 466.519 135.029C466.015 134.557 465.359 134.321 464.551 134.321C463.991 134.321 463.467 134.413 462.979 134.597C462.491 134.773 462.095 135.045 461.791 135.413C461.487 135.773 461.335 136.229 461.335 136.781V145.073H459.127ZM478.696 134.285H475.9V142.001C475.9 142.441 475.944 142.765 476.032 142.973C476.128 143.173 476.284 143.301 476.5 143.357C476.724 143.413 477.028 143.441 477.412 143.441H478.768V144.929C478.616 144.985 478.384 145.033 478.072 145.073C477.768 145.113 477.388 145.133 476.932 145.133C476.076 145.133 475.412 145.017 474.94 144.785C474.468 144.553 474.136 144.209 473.944 143.753C473.76 143.297 473.668 142.737 473.668 142.073V134.285H471.652V132.665H473.728L474.268 129.053H475.9V132.653H478.696V134.285ZM7.4679 181.177C5.5159 181.177 3.9959 180.893 2.9079 180.325C1.8279 179.765 1.2879 178.961 1.2879 177.913C1.2879 177.465 1.3919 177.085 1.5999 176.773C1.8079 176.453 2.0559 176.189 2.3439 175.981C2.6319 175.773 2.8999 175.609 3.1479 175.489C3.3959 175.361 3.5559 175.269 3.6279 175.213C3.4919 175.133 3.3199 175.033 3.1119 174.913C2.9119 174.793 2.7359 174.633 2.5839 174.433C2.4319 174.233 2.3559 173.973 2.3559 173.653C2.3559 173.261 2.5399 172.901 2.9079 172.573C3.2759 172.245 3.8199 172.001 4.5399 171.841C3.8119 171.473 3.2439 170.985 2.8359 170.377C2.4279 169.769 2.2239 169.109 2.2239 168.397C2.2239 167.597 2.4399 166.901 2.8719 166.309C3.3119 165.717 3.9359 165.265 4.7439 164.953C5.5519 164.633 6.5119 164.473 7.6239 164.473C8.4319 164.473 9.1119 164.569 9.6639 164.761C10.2159 164.945 10.7279 165.209 11.1999 165.553C11.3279 165.497 11.5279 165.413 11.7999 165.301C12.0799 165.181 12.3879 165.053 12.7239 164.917C13.0599 164.781 13.3719 164.653 13.6599 164.533C13.9559 164.405 14.1919 164.309 14.3679 164.245L14.3559 166.297L12.1839 166.705C12.3039 166.961 12.3999 167.241 12.4719 167.545C12.5519 167.849 12.5919 168.133 12.5919 168.397C12.5919 169.125 12.3999 169.785 12.0159 170.377C11.6399 170.969 11.0679 171.441 10.2999 171.793C9.5319 172.145 8.5719 172.321 7.4199 172.321C7.3239 172.321 7.1999 172.321 7.0479 172.321C6.9039 172.313 6.7799 172.305 6.6759 172.297C5.8279 172.321 5.2439 172.417 4.9239 172.585C4.6039 172.745 4.4439 172.925 4.4439 173.125C4.4439 173.357 4.6239 173.517 4.9839 173.605C5.3439 173.693 5.9559 173.769 6.8199 173.833C7.1319 173.849 7.5159 173.869 7.9719 173.893C8.4359 173.917 8.9479 173.949 9.5079 173.989C10.8119 174.069 11.8159 174.401 12.5199 174.985C13.2239 175.569 13.5759 176.357 13.5759 177.349C13.5759 178.477 13.0719 179.397 12.0639 180.109C11.0559 180.821 9.5239 181.177 7.4679 181.177ZM7.8639 179.749C9.0079 179.749 9.8839 179.577 10.4919 179.233C11.0999 178.889 11.4039 178.369 11.4039 177.673C11.4039 177.177 11.2159 176.773 10.8399 176.461C10.4719 176.141 9.9079 175.957 9.1479 175.909L5.6679 175.681C5.3559 175.665 5.0319 175.745 4.6959 175.921C4.3599 176.089 4.0719 176.325 3.8319 176.629C3.5999 176.933 3.4839 177.277 3.4839 177.661C3.4839 178.317 3.8399 178.829 4.5519 179.197C5.2719 179.565 6.3759 179.749 7.8639 179.749ZM7.4799 170.893C8.3759 170.893 9.0959 170.685 9.6399 170.269C10.1919 169.853 10.4679 169.237 10.4679 168.421C10.4679 167.581 10.1919 166.941 9.6399 166.501C9.0959 166.061 8.3759 165.841 7.4799 165.841C6.5759 165.841 5.8439 166.065 5.2839 166.513C4.7319 166.953 4.4559 167.589 4.4559 168.421C4.4559 169.205 4.7199 169.813 5.2479 170.245C5.7759 170.677 6.5199 170.893 7.4799 170.893ZM17.1422 177.073V164.665H19.2542V167.053C19.4622 166.461 19.7542 165.973 20.1302 165.589C20.5062 165.197 20.9342 164.905 21.4142 164.713C21.9022 164.521 22.4062 164.425 22.9262 164.425C23.1102 164.425 23.2902 164.437 23.4662 164.461C23.6422 164.485 23.7782 164.525 23.8742 164.581V166.729C23.7542 166.673 23.5982 166.637 23.4062 166.621C23.2222 166.597 23.0662 166.585 22.9382 166.585C22.4422 166.553 21.9782 166.585 21.5462 166.681C21.1142 166.769 20.7342 166.925 20.4062 167.149C20.0782 167.373 19.8182 167.669 19.6262 168.037C19.4422 168.397 19.3502 168.837 19.3502 169.357V177.073H17.1422ZM29.5742 177.313C28.7742 177.313 28.0662 177.173 27.4502 176.893C26.8342 176.605 26.3502 176.193 25.9982 175.657C25.6542 175.121 25.4822 174.473 25.4822 173.713C25.4822 172.337 25.9622 171.313 26.9222 170.641C27.8822 169.969 29.4222 169.609 31.5422 169.561L33.7622 169.501V168.529C33.7622 167.769 33.5342 167.169 33.0782 166.729C32.6222 166.281 31.9142 166.057 30.9542 166.057C30.2422 166.065 29.6142 166.233 29.0702 166.561C28.5342 166.889 28.1862 167.425 28.0262 168.169H26.0702C26.1182 167.361 26.3462 166.681 26.7542 166.129C27.1622 165.569 27.7302 165.145 28.4582 164.857C29.1942 164.569 30.0622 164.425 31.0622 164.425C32.1422 164.425 33.0382 164.577 33.7502 164.881C34.4702 165.185 35.0062 165.633 35.3582 166.225C35.7182 166.817 35.8982 167.545 35.8982 168.409V177.073H34.0022L33.8462 174.745C33.3662 175.713 32.7542 176.385 32.0102 176.761C31.2742 177.129 30.4622 177.313 29.5742 177.313ZM30.2462 175.717C30.6622 175.717 31.0742 175.641 31.4822 175.489C31.8982 175.337 32.2782 175.133 32.6222 174.877C32.9662 174.613 33.2382 174.321 33.4382 174.001C33.6462 173.673 33.7542 173.337 33.7622 172.993V170.869L31.9142 170.905C30.9702 170.921 30.1782 171.017 29.5382 171.193C28.9062 171.369 28.4302 171.645 28.1102 172.021C27.7982 172.397 27.6422 172.889 27.6422 173.497C27.6422 174.193 27.8822 174.737 28.3622 175.129C28.8502 175.521 29.4782 175.717 30.2462 175.717ZM45.407 166.285H42.611V174.001C42.611 174.441 42.655 174.765 42.743 174.973C42.839 175.173 42.995 175.301 43.211 175.357C43.435 175.413 43.739 175.441 44.123 175.441H45.479V176.929C45.327 176.985 45.095 177.033 44.783 177.073C44.479 177.113 44.099 177.133 43.643 177.133C42.787 177.133 42.123 177.017 41.651 176.785C41.179 176.553 40.847 176.209 40.655 175.753C40.471 175.297 40.379 174.737 40.379 174.073V166.285H38.363V164.665H40.439L40.979 161.053H42.611V164.653H45.407V166.285ZM53.0381 177.313C52.3901 177.305 51.7781 177.213 51.2021 177.037C50.6341 176.853 50.1301 176.585 49.6901 176.233C49.2501 175.881 48.9021 175.445 48.6461 174.925C48.3981 174.397 48.2741 173.785 48.2741 173.089V164.665H50.4941V172.861C50.4941 173.669 50.7421 174.325 51.2381 174.829C51.7421 175.333 52.4981 175.585 53.5061 175.585C54.4181 175.585 55.1501 175.349 55.7021 174.877C56.2621 174.397 56.5421 173.685 56.5421 172.741V164.665H58.7501V177.073H56.9861L56.7581 174.697C56.6061 175.321 56.3461 175.825 55.9781 176.209C55.6181 176.593 55.1821 176.877 54.6701 177.061C54.1661 177.237 53.6221 177.321 53.0381 177.313ZM64.7531 164.665V177.073H62.6051V164.665H64.7531ZM64.8011 159.733V162.037H62.5331V159.733H64.8011ZM75.1258 166.285H72.3298V174.001C72.3298 174.441 72.3738 174.765 72.4618 174.973C72.5578 175.173 72.7138 175.301 72.9298 175.357C73.1538 175.413 73.4578 175.441 73.8418 175.441H75.1978V176.929C75.0458 176.985 74.8138 177.033 74.5018 177.073C74.1978 177.113 73.8178 177.133 73.3618 177.133C72.5058 177.133 71.8418 177.017 71.3698 176.785C70.8978 176.553 70.5658 176.209 70.3738 175.753C70.1898 175.297 70.0978 174.737 70.0978 174.073V166.285H68.0818V164.665H70.1578L70.6978 161.053H72.3298V164.653H75.1258V166.285ZM79.5699 171.385C79.5699 172.169 79.6979 172.881 79.9539 173.521C80.2179 174.153 80.6139 174.657 81.1419 175.033C81.6779 175.409 82.3459 175.597 83.1459 175.597C83.9379 175.597 84.6179 175.413 85.1859 175.045C85.7619 174.677 86.1299 174.145 86.2899 173.449H88.3899C88.2379 174.289 87.9019 174.997 87.3819 175.573C86.8619 176.149 86.2339 176.585 85.4979 176.881C84.7619 177.169 83.9939 177.313 83.1939 177.313C82.0339 177.313 81.0139 177.061 80.1339 176.557C79.2539 176.053 78.5659 175.329 78.0699 174.385C77.5739 173.441 77.3259 172.309 77.3259 170.989C77.3259 169.685 77.5499 168.541 77.9979 167.557C78.4459 166.573 79.0939 165.805 79.9419 165.253C80.7979 164.701 81.8259 164.425 83.0259 164.425C84.1939 164.425 85.1819 164.677 85.9899 165.181C86.7979 165.685 87.4099 166.397 87.8259 167.317C88.2499 168.229 88.4619 169.313 88.4619 170.569V171.385H79.5699ZM79.5819 169.885H86.3259C86.3259 169.173 86.2059 168.533 85.9659 167.965C85.7259 167.389 85.3579 166.937 84.8619 166.609C84.3739 166.273 83.7579 166.105 83.0139 166.105C82.2379 166.105 81.5939 166.293 81.0819 166.669C80.5779 167.037 80.1979 167.513 79.9419 168.097C79.6939 168.673 79.5739 169.269 79.5819 169.885ZM91.5093 177.073V164.665H93.6453V166.465C93.9893 165.921 94.4613 165.445 95.0613 165.037C95.6613 164.629 96.4413 164.425 97.4013 164.425C97.8493 164.425 98.3053 164.501 98.7693 164.653C99.2413 164.805 99.6733 165.033 100.065 165.337C100.457 165.641 100.761 166.013 100.977 166.453C101.361 165.845 101.881 165.357 102.537 164.989C103.193 164.613 103.933 164.425 104.757 164.425C105.189 164.425 105.641 164.493 106.113 164.629C106.585 164.757 107.021 164.989 107.421 165.325C107.829 165.653 108.161 166.113 108.417 166.705C108.673 167.289 108.801 168.041 108.801 168.961V177.073H106.569V169.177C106.569 168.425 106.449 167.845 106.209 167.437C105.969 167.021 105.653 166.729 105.261 166.561C104.877 166.393 104.465 166.309 104.025 166.309C103.641 166.309 103.233 166.385 102.801 166.537C102.369 166.689 102.001 166.945 101.697 167.305C101.393 167.665 101.241 168.157 101.241 168.781V177.073H99.0333V168.529C99.0333 168.041 98.9013 167.633 98.6373 167.305C98.3813 166.977 98.0573 166.729 97.6653 166.561C97.2813 166.393 96.8973 166.309 96.5133 166.309C96.0893 166.309 95.6613 166.393 95.2293 166.561C94.8053 166.729 94.4453 166.997 94.1493 167.365C93.8613 167.725 93.7173 168.197 93.7173 168.781V177.073H91.5093ZM113.859 171.385C113.859 172.169 113.987 172.881 114.243 173.521C114.507 174.153 114.903 174.657 115.431 175.033C115.967 175.409 116.635 175.597 117.435 175.597C118.227 175.597 118.907 175.413 119.475 175.045C120.051 174.677 120.419 174.145 120.579 173.449H122.679C122.527 174.289 122.191 174.997 121.671 175.573C121.151 176.149 120.523 176.585 119.787 176.881C119.051 177.169 118.283 177.313 117.483 177.313C116.323 177.313 115.303 177.061 114.423 176.557C113.543 176.053 112.855 175.329 112.359 174.385C111.863 173.441 111.615 172.309 111.615 170.989C111.615 169.685 111.839 168.541 112.287 167.557C112.735 166.573 113.383 165.805 114.231 165.253C115.087 164.701 116.115 164.425 117.315 164.425C118.483 164.425 119.471 164.677 120.279 165.181C121.087 165.685 121.699 166.397 122.115 167.317C122.539 168.229 122.751 169.313 122.751 170.569V171.385H113.859ZM113.871 169.885H120.615C120.615 169.173 120.495 168.533 120.255 167.965C120.015 167.389 119.647 166.937 119.151 166.609C118.663 166.273 118.047 166.105 117.303 166.105C116.527 166.105 115.883 166.293 115.371 166.669C114.867 167.037 114.487 167.513 114.231 168.097C113.983 168.673 113.863 169.269 113.871 169.885ZM125.798 177.073V164.665H127.946V166.465C128.146 166.121 128.422 165.797 128.774 165.493C129.134 165.189 129.566 164.945 130.07 164.761C130.582 164.577 131.17 164.485 131.834 164.485C132.618 164.485 133.338 164.641 133.994 164.953C134.658 165.265 135.186 165.753 135.578 166.417C135.978 167.073 136.178 167.921 136.178 168.961V177.073H133.958V169.177C133.958 168.209 133.702 167.493 133.19 167.029C132.686 166.557 132.03 166.321 131.222 166.321C130.662 166.321 130.138 166.413 129.65 166.597C129.162 166.773 128.766 167.045 128.462 167.413C128.158 167.773 128.006 168.229 128.006 168.781V177.073H125.798ZM145.368 166.285H142.572V174.001C142.572 174.441 142.616 174.765 142.704 174.973C142.8 175.173 142.956 175.301 143.172 175.357C143.396 175.413 143.7 175.441 144.084 175.441H145.44V176.929C145.288 176.985 145.056 177.033 144.744 177.073C144.44 177.113 144.06 177.133 143.604 177.133C142.748 177.133 142.084 177.017 141.612 176.785C141.14 176.553 140.808 176.209 140.616 175.753C140.432 175.297 140.34 174.737 140.34 174.073V166.285H138.324V164.665H140.4L140.94 161.053H142.572V164.653H145.368V166.285ZM148.04 177.073V174.241H150.68V177.073H148.04Z" fill="#06241B"/>
</svg>
