<svg width="18" height="23" viewBox="0 0 18 23" fill="none" xmlns="http://www.w3.org/2000/svg">
<path d="M1.50003 21.375C1.49778 21.6706 1.61288 21.9551 1.82008 22.166C2.02728 22.3769 2.30966 22.497 2.6053 22.5H15.3948C15.6904 22.497 15.9728 22.3769 16.18 22.166C16.3872 21.9551 16.5023 21.6706 16.5 21.375V6.375H1.50003V21.375ZM3.00003 7.875H15V21H3.00003V7.875Z" fill="black"/>
<path d="M6.375 9.375H4.875V18.75H6.375V9.375Z" fill="black"/>
<path d="M9.75 9.375H8.25V18.75H9.75V9.375Z" fill="black"/>
<path d="M13.125 9.375H11.625V18.75H13.125V9.375Z" fill="black"/>
<path d="M12.375 3.375V1.125C12.375 0.494156 11.9303 0 11.3625 0H6.6375C6.06975 0 5.625 0.494156 5.625 1.125V3.375H0V4.875H18V3.375H12.375ZM7.125 1.5H10.875V3.375H7.125V1.5Z" fill="black"/>
</svg>
