<svg width="24" height="25" viewBox="0 0 24 25" fill="none" xmlns="http://www.w3.org/2000/svg">
<path d="M0 12.2105C0 18.9542 5.17671 24.421 11.5625 24.421C17.9483 24.421 23.125 18.9542 23.125 12.2105C23.125 5.46682 17.9483 0 11.5625 0C5.17671 0 0 5.46682 0 12.2105Z" fill="#0061B1"/>
<path d="M13.2942 10.928L18.3572 5H17.1572L12.7622 10.147L9.2502 5H5.2002L10.5102 12.784L5.2002 19H6.4002L11.0422 13.564L14.7512 19H18.8012L13.2942 10.928ZM11.6512 12.852L11.1132 12.077L6.8322 5.91H8.6752L12.1292 10.887L12.6672 11.662L17.1582 18.132H15.3152L11.6512 12.852Z" fill="white"/>
</svg>
