<svg width="24" height="25" viewBox="0 0 24 25" fill="none" xmlns="http://www.w3.org/2000/svg">
<path d="M0 12.2105C0 18.9542 5.17671 24.421 11.5625 24.421C17.9483 24.421 23.125 18.9542 23.125 12.2105C23.125 5.46682 17.9483 0 11.5625 0C5.17671 0 0 5.46682 0 12.2105Z" fill="#0061B1"/>
<path d="M10.6 5H9.7L9.1 7.3L8.5 5H7.5C7.7 5.6 7.9 6.1 8.1 6.7C8.4 7.5 8.6 8.2 8.6 8.6V11H9.5V8.6L10.6 5ZM13 9.5V8C13 7.5 12.9 7.2 12.7 6.9C12.5 6.6 12.2 6.5 11.8 6.5C11.4 6.5 11.1 6.7 10.9 7C10.7 7.2 10.6 7.5 10.6 8V9.6C10.6 10.1 10.7 10.4 10.9 10.6C11.1 10.9 11.4 11 11.8 11C12.2 11 12.5 10.8 12.7 10.5C12.9 10.4 13 10 13 9.5ZM12.2 9.7C12.2 10.1 12.1 10.3 11.8 10.3C11.5 10.3 11.4 10.1 11.4 9.7V7.8C11.4 7.4 11.5 7.2 11.8 7.2C12.1 7.2 12.2 7.4 12.2 7.8V9.7ZM16 11V6.5H15.2V9.9C15 10.2 14.9 10.3 14.7 10.3C14.6 10.3 14.5 10.2 14.5 10.1V6.5H13.7V10C13.7 10.3 13.7 10.5 13.8 10.7C13.8 10.9 14 11 14.3 11C14.6 11 14.9 10.8 15.2 10.5V11H16ZM16.4 15.5C16.1 15.5 16 15.7 16 16.1V16.5H16.8V16.1C16.8 15.7 16.7 15.5 16.4 15.5ZM13.5 15.5C13.4 15.5 13.2 15.6 13.1 15.7V18.4C13.2 18.5 13.4 18.6 13.5 18.6C13.7 18.6 13.8 18.4 13.8 18V16.1C13.8 15.7 13.7 15.5 13.5 15.5Z" fill="white"/>
<path d="M18.3999 13.3C18.1999 12.6 17.5999 12 16.9999 12C15.3999 11.8 13.6999 11.8 11.9999 11.8C10.2999 11.8 8.6999 11.8 6.9999 12C6.3999 12 5.7999 12.6 5.5999 13.3C5.3999 14.3 5.3999 15.4 5.3999 16.4C5.3999 17.4 5.3999 18.5 5.5999 19.5C5.7999 20.2 6.2999 20.7 6.9999 20.8C8.6999 21 10.2999 21 11.9999 21C13.6999 21 15.2999 21 16.9999 20.8C17.6999 20.7 18.2999 20.2 18.3999 19.5C18.5999 18.5 18.5999 17.4 18.5999 16.4C18.5999 15.4 18.5999 14.3 18.3999 13.3ZM9.1999 14.2H8.1999V19.3H7.2999V14.2H6.3999V13.3H9.1999V14.2ZM11.5999 19.3H10.7999V18.8C10.4999 19.2 10.1999 19.3 9.8999 19.3C9.5999 19.3 9.4999 19.2 9.3999 19C9.3999 18.9 9.2999 18.7 9.2999 18.3V14.8H10.0999V18.3C10.0999 18.4 10.1999 18.5 10.2999 18.5C10.4999 18.5 10.5999 18.4 10.7999 18.1V14.8H11.5999V19.3ZM14.5999 17.9C14.5999 18.3 14.5999 18.6 14.4999 18.8C14.3999 19.1 14.1999 19.3 13.8999 19.3C13.5999 19.3 13.2999 19.1 13.0999 18.8V19.2H12.2999V13.3H13.0999V15.2C13.3999 14.9 13.5999 14.7 13.8999 14.7C14.1999 14.7 14.3999 14.9 14.4999 15.2C14.5999 15.4 14.5999 15.7 14.5999 16.1V17.9ZM17.5999 17.2H15.9999V18C15.9999 18.4 16.0999 18.6 16.3999 18.6C16.5999 18.6 16.6999 18.5 16.7999 18.3V17.8H17.5999V18.4C17.5999 18.6 17.4999 18.7 17.3999 18.9C17.1999 19.2 16.8999 19.4 16.3999 19.4C15.9999 19.4 15.6999 19.2 15.3999 18.9C15.1999 18.7 15.0999 18.3 15.0999 17.9V16.4C15.0999 15.9 15.1999 15.6 15.2999 15.4C15.4999 15.1 15.7999 14.9 16.2999 14.9C16.6999 14.9 16.9999 15.1 17.1999 15.4C17.3999 15.6 17.3999 16 17.3999 16.4V17.2H17.5999Z" fill="white"/>
</svg>
