<svg width="206" height="80" viewBox="0 0 206 80" fill="none" xmlns="http://www.w3.org/2000/svg">
<path d="M39.6621 26.3844H40.506V24.5502C40.506 24.3151 40.3185 24.127 40.084 24.127C39.8496 24.127 39.6621 24.3151 39.6621 24.5502V26.3844Z" fill="#706F6F"/>
<path d="M37.8809 26.3844H38.7247V24.5502C38.7247 24.3151 38.5372 24.127 38.3028 24.127C38.0684 24.127 37.8809 24.3151 37.8809 24.5502V26.3844Z" fill="#706F6F"/>
<path d="M41.3975 26.3844H42.2413V24.5502C42.2413 24.3151 42.0538 24.127 41.8194 24.127C41.585 24.127 41.3975 24.3151 41.3975 24.5502V26.3844Z" fill="#706F6F"/>
<path d="M40.2715 19.612C40.8341 19.706 41.0216 20.2234 41.0216 20.5526V21.258H41.5373V21.6813C42.85 22.2927 43.8345 23.7037 43.8345 25.1616C43.8345 25.1616 43.8345 25.1616 43.8345 25.2087V26.4315H46.9288V25.1616C46.8819 21.117 43.9752 18.6243 40.1777 18.5773L40.2715 19.612Z" fill="#706F6F"/>
<path d="M39.709 20.5526V21.3051H40.4591V20.5526C40.4591 20.3645 40.2716 20.1764 40.084 20.1764C39.8496 20.1764 39.709 20.3175 39.709 20.5526Z" fill="#706F6F"/>
<path d="M40.6472 28.4068C37.4592 27.6073 36.2871 26.9018 36.2871 24.8794C36.2871 23.4215 37.2717 22.1987 38.6312 21.6343V21.3051H39.1469V20.5996C39.1469 20.2704 39.3813 19.753 39.9439 19.659L40.0377 18.5773C36.1934 18.6243 32.9585 21.258 33.0991 24.8794C33.2867 28.9241 37.6467 30.0058 40.0377 30.5232C41.913 30.8994 46.3668 31.9811 47.492 35.1322C47.4451 35.1322 47.867 29.8647 40.6472 28.4068Z" fill="#706F6F"/>
<path d="M39.5685 33.9565C42.8034 34.9441 43.6004 36.1199 43.6004 37.813C43.6004 40.3997 41.5845 41.4815 39.0997 41.4815C36.7087 41.4815 34.6459 40.3527 33.2395 38.8948L32.7238 39.9765C33.7552 41.9047 36.5681 43.6449 39.7561 43.6449C43.8348 43.6919 47.2572 41.7637 47.2572 37.9541C47.2572 33.8154 42.8034 32.2163 40.3187 31.652C38.3496 31.2287 33.427 29.9118 32.5362 27.137C32.5831 27.137 31.5986 31.9341 39.5685 33.9565Z" fill="#706F6F"/>
<path d="M27.098 50.5115H25.8322L25.5509 51.4051H24.8477L26.1135 47.9718H26.8167L28.0825 51.4051H27.4262L27.098 50.5115ZM26.4416 48.5362C26.4416 48.5362 26.3479 48.8654 26.301 49.0535L25.9728 49.9941H26.9105L26.5823 49.0535C26.5354 48.8654 26.4416 48.5362 26.4416 48.5362Z" fill="#706F6F"/>
<path d="M29.4893 47.9247H30.1456V50.8406H31.7396V51.405H29.4893V47.9247Z" fill="#706F6F"/>
<path d="M33.2393 47.9247H33.8956V50.8406H35.4427V51.405H33.2393V47.9247Z" fill="#706F6F"/>
<path d="M37.5997 47.9247H36.9434V51.358H37.5997V47.9247Z" fill="#706F6F"/>
<path d="M41.2562 50.5115H39.9904L39.7091 51.4051H39.0527L40.3185 47.9718H41.0218L42.2876 51.4051H41.6313L41.2562 50.5115ZM40.6467 48.5362C40.6467 48.5362 40.553 48.8654 40.5061 49.0535L40.1779 49.9941H41.1155L40.7874 49.0535C40.7405 48.8654 40.6467 48.5362 40.6467 48.5362Z" fill="#706F6F"/>
<path d="M43.6943 47.9247H44.3507L45.7103 49.9C45.8509 50.0881 45.9916 50.4173 45.9916 50.4173C45.9916 50.4173 45.9447 50.0881 45.9447 49.9V47.9247H46.601V51.358H45.9447L44.5851 49.3826C44.4445 49.1945 44.3038 48.8653 44.3038 48.8653C44.3038 48.8653 44.3507 49.1945 44.3507 49.3826V51.358H43.6943V47.9247Z" fill="#706F6F"/>
<path d="M50.1175 47.8777C51.0082 47.8777 51.4302 48.348 51.4302 48.348L51.102 48.8183C51.102 48.8183 50.6801 48.4421 50.1175 48.4421C49.3674 48.4421 48.8985 49.0064 48.8985 49.6178C48.8985 50.2763 49.3674 50.8406 50.1175 50.8406C50.7269 50.8406 51.1489 50.4174 51.1489 50.4174L51.4771 50.8877C51.4771 50.8877 50.9614 51.4521 50.0706 51.4521C48.9923 51.4521 48.1953 50.6525 48.1953 49.6649C48.2891 48.6302 49.0861 47.8777 50.1175 47.8777Z" fill="#706F6F"/>
<path d="M53.1172 47.9247H55.2738V48.4891H53.7735V49.3826H54.9925V49.947H53.7735V50.8406H55.3675V51.405H53.1172V47.9247Z" fill="#706F6F"/>
<path d="M25.2696 55.4967C25.2696 55.4967 25.6446 55.873 26.1603 55.873C26.4416 55.873 26.676 55.7319 26.676 55.4497C26.676 54.8383 24.9883 54.9324 24.9883 53.8977C24.9883 53.3333 25.504 52.91 26.2072 52.91C26.9104 52.91 27.2855 53.2863 27.2855 53.2863L27.0042 53.8036C27.0042 53.8036 26.676 53.5214 26.2072 53.5214C25.9259 53.5214 25.6915 53.7096 25.6915 53.9447C25.6915 54.5561 27.3793 54.415 27.3793 55.4967C27.3793 56.0611 26.9573 56.4844 26.2072 56.4844C25.4102 56.4844 24.9883 56.0141 24.9883 56.0141L25.2696 55.4967Z" fill="#706F6F"/>
<path d="M30.0989 55.873C30.7553 55.873 31.271 55.3557 31.271 54.6502C31.271 53.9918 30.7553 53.4744 30.0989 53.4744C29.4426 53.4744 28.9269 53.9918 28.9269 54.6502C28.88 55.3557 29.4426 55.873 30.0989 55.873ZM30.0989 52.863C31.1303 52.863 31.9273 53.6155 31.9273 54.6032C31.9273 55.6379 31.1303 56.3904 30.0989 56.3904C29.0675 56.3904 28.2705 55.5908 28.2705 54.6032C28.2236 53.6626 29.0206 52.863 30.0989 52.863Z" fill="#706F6F"/>
<path d="M34.2238 54.5561C34.552 54.5561 34.7864 54.368 34.7864 53.9917C34.7864 53.6625 34.6458 53.4744 34.1301 53.4744H33.6144V54.5561H34.2238ZM32.958 52.957H34.1301C34.5051 52.957 34.6926 53.0041 34.8333 53.0511C35.2083 53.1922 35.3959 53.5214 35.3959 53.9917C35.3959 54.415 35.1615 54.7912 34.7864 54.9323C34.7864 54.9323 34.8333 54.9794 34.9271 55.1205L35.6772 56.3903H34.9739L34.2707 55.1205H33.6612V56.3903H33.0049V52.957H32.958Z" fill="#706F6F"/>
<path d="M37.9279 55.8259C38.2561 55.8259 38.4436 55.6378 38.4436 55.3086C38.4436 55.0264 38.2561 54.7912 37.9279 54.7912H37.2247V55.7789H37.9279V55.8259ZM37.8811 54.368C38.1623 54.368 38.303 54.1798 38.303 53.9447C38.303 53.7095 38.1623 53.5214 37.8342 53.5214H37.2247V54.368H37.8811ZM36.6152 52.957H37.8811C38.5374 52.957 39.0062 53.2863 39.0062 53.8506C39.0062 54.1798 38.8656 54.462 38.5843 54.6031C38.9593 54.6972 39.1469 55.0734 39.1469 55.4027C39.1469 56.1081 38.5843 56.3903 37.9279 56.3903H36.6152V52.957Z" fill="#706F6F"/>
<path d="M41.8186 55.873C42.475 55.873 42.9907 55.3557 42.9907 54.6502C42.9907 53.9918 42.475 53.4744 41.8186 53.4744C41.1623 53.4744 40.6466 53.9918 40.6466 54.6502C40.6466 55.3557 41.1623 55.873 41.8186 55.873ZM41.8186 52.863C42.85 52.863 43.647 53.6155 43.647 54.6032C43.647 55.6379 42.85 56.3904 41.8186 56.3904C40.7872 56.3904 39.9902 55.5908 39.9902 54.6032C39.9902 53.6626 40.7872 52.863 41.8186 52.863Z" fill="#706F6F"/>
<path d="M44.7725 52.957H45.4288L46.7884 54.9323C46.929 55.1205 47.0697 55.4497 47.0697 55.4497C47.0697 55.4497 47.0228 55.1205 47.0228 54.9323V52.957H47.6792V56.3903H47.0228L45.6632 54.415C45.5226 54.2269 45.3819 53.8977 45.3819 53.8977C45.3819 53.8977 45.4288 54.2269 45.4288 54.415V56.3903H44.7725V52.957Z" fill="#706F6F"/>
<path d="M48.9922 52.957H49.6485L51.0081 54.9323C51.1488 55.1205 51.2894 55.4497 51.2894 55.4497C51.2894 55.4497 51.2425 55.1205 51.2425 54.9323V52.957H51.8989V56.3903H51.2425L49.8829 54.415C49.7423 54.2269 49.6017 53.8977 49.6017 53.8977C49.6017 53.8977 49.6485 54.2269 49.6485 54.415V56.3903H48.9922V52.957Z" fill="#706F6F"/>
<path d="M53.2109 52.957V56.3903H55.4144V55.8259H53.8673V54.9323H55.0862V54.368H53.8673V53.4744H55.3675V52.957H53.2109Z" fill="#706F6F"/>
<path d="M24.9883 57.8953H25.6446V60.1057C25.6446 60.576 25.9728 60.8582 26.4416 60.8582C26.9104 60.8582 27.2386 60.576 27.2386 60.1057V57.8953H27.895V60.1057C27.895 60.9053 27.3324 61.4226 26.4416 61.4226C25.5509 61.4226 24.9883 60.9053 24.9883 60.1057V57.8953Z" fill="#706F6F"/>
<path d="M28.9736 57.9424H29.63L30.9896 59.9177C31.1302 60.1058 31.2709 60.435 31.2709 60.435C31.2709 60.435 31.224 60.1058 31.224 59.9177V57.9424H31.8803V61.3757H31.224L29.8644 59.4004C29.7237 59.2122 29.5831 58.883 29.5831 58.883C29.5831 58.883 29.63 59.2122 29.63 59.4004V61.3757H28.9736V57.9424Z" fill="#706F6F"/>
<path d="M33.7081 57.9424H33.0518V61.3757H33.7081V57.9424Z" fill="#706F6F"/>
<path d="M34.4111 57.9424H35.1144L35.9114 60.1999C36.0051 60.388 36.052 60.7172 36.052 60.7172C36.052 60.7172 36.0989 60.435 36.1927 60.1999L36.9896 57.9424H37.6929L36.3802 61.3757H35.7238L34.4111 57.9424Z" fill="#706F6F"/>
<path d="M38.3496 57.9424H40.5062V58.4597H39.006V59.3533H40.2249V59.9177H39.006V60.8583H40.5999V61.3757H38.3496V57.9424Z" fill="#706F6F"/>
<path d="M42.757 59.5414C43.0852 59.5414 43.3196 59.3533 43.3196 58.9771C43.3196 58.6479 43.179 58.4597 42.6633 58.4597H42.1476V59.5414H42.757ZM41.4912 57.9424H42.6633C43.0383 57.9424 43.2258 57.9894 43.3665 58.0364C43.7416 58.1775 43.9291 58.5068 43.9291 58.9771C43.9291 59.4004 43.6947 59.7766 43.3196 59.9177C43.3196 59.9177 43.3665 59.9647 43.4603 60.1058L44.2104 61.3757H43.5071L42.8039 60.1058H42.1944V61.3757H41.5381V57.9424H41.4912Z" fill="#706F6F"/>
<path d="M45.1475 60.482C45.1475 60.482 45.5226 60.8582 46.0383 60.8582C46.3196 60.8582 46.554 60.7171 46.554 60.4349C46.554 59.8235 44.8662 59.9176 44.8662 58.8829C44.8662 58.3185 45.3819 57.8953 46.0851 57.8953C46.7884 57.8953 47.1634 58.2715 47.1634 58.2715L46.8821 58.7889C46.8821 58.7889 46.554 58.5067 46.0851 58.5067C45.8039 58.5067 45.5694 58.6948 45.5694 58.93C45.5694 59.5414 47.2572 59.4003 47.2572 60.482C47.2572 61.0464 46.8353 61.4696 46.0851 61.4696C45.2882 61.4696 44.8662 60.9993 44.8662 60.9993L45.1475 60.482Z" fill="#706F6F"/>
<path d="M48.7579 57.9424H48.1016V61.3757H48.7579V57.9424Z" fill="#706F6F"/>
<path d="M50.6799 58.4597H49.5078V57.9424H52.5083V58.4597H51.3362V61.3757H50.6799V58.4597Z" fill="#706F6F"/>
<path d="M53.2109 57.9423V61.3756H55.4144V60.8582H53.8204V59.9176H55.0393V59.4003H53.8204V58.5067H55.3206V57.9893H53.2109V57.9423ZM54.4299 57.0487L54.0548 57.7071H54.5705L55.0862 57.0487H54.4299Z" fill="#706F6F"/>
<path d="M153.633 34.3798H149.414V50.7466C149.414 54.7913 147.257 57.1428 143.46 57.1428C139.709 57.1428 137.646 54.8853 137.646 50.7466V34.3798H132.911V51.311C132.911 54.5561 133.849 57.0958 135.677 58.883C137.318 60.5291 139.756 61.4227 142.663 61.4227C145.288 61.4227 147.632 60.4821 149.461 58.836V61.1405H154.102V34.3798H153.633Z" fill="#706F6F"/>
<path d="M164.79 26.4315H160.571V34.5209H157.336V38.3774H160.571V53.7566C160.571 58.2716 163.337 61.1405 167.65 61.1405H170.791V56.9077H168.306C166.29 56.9077 165.259 55.826 165.259 53.6155V38.3774H170.744V34.5209H165.259V26.4315H164.79Z" fill="#706F6F"/>
<path d="M173.276 47.7366C173.276 56.2022 177.824 61.4227 185.138 61.4227C188.888 61.4227 191.279 60.341 193.951 57.4251L194.28 57.0958L191.045 53.9448L190.717 54.321C188.841 56.3904 187.435 57.0958 185.138 57.0958C182.747 57.0958 180.824 56.1552 179.559 54.368C178.433 52.816 177.965 50.8877 177.965 47.7366C177.965 44.5856 178.433 42.6573 179.559 41.1052C180.824 39.3181 182.747 38.3774 185.138 38.3774C187.435 38.3774 188.841 39.0829 190.717 41.1052L191.045 41.4815L194.28 38.4245L193.951 38.0953C191.279 35.1793 188.888 34.0976 185.138 34.0976C177.824 34.0506 173.276 39.271 173.276 47.7366Z" fill="#706F6F"/>
<path d="M78.6211 45.291V61.1875H121.143V34.8971C107.266 37.2957 100.046 40.5879 87.4818 47.1722L78.6211 45.291Z" fill="#FFD500"/>
<path d="M121.19 18.5303H78.668V37.2487C92.7795 32.1223 107.829 28.8301 121.19 27.7954V18.5303Z" fill="#FFD500"/>
<path d="M121.19 27.7954C107.829 28.8301 92.7797 32.1222 78.6682 37.2486C75.9959 38.2363 73.3236 39.271 70.7451 40.3997L87.5758 44.4914C101.172 37.3897 109.61 34.1446 125.878 31.6519V27.5132C124.284 27.6072 122.737 27.7013 121.19 27.7954Z" fill="#706F6F"/>
<path d="M67.9794 18.5773L62.0254 61.0464" stroke="#706F6F"/>
</svg>
