<svg width="19" height="21" viewBox="0 0 19 21" fill="none" xmlns="http://www.w3.org/2000/svg">
<path d="M0 20.2145C0 19.9022 0.0899081 19.2095 0.196725 18.6984C0.80613 15.7829 2.83471 13.3036 5.6007 12.0939C6.52483 11.6897 7.49878 11.441 8.54855 11.3413C8.9635 11.3018 9.81417 11.3018 10.2291 11.3413C11.7015 11.4812 13.0208 11.9114 14.2631 12.6567C14.5698 12.8407 14.9286 13.0827 14.9282 13.1053C14.9282 13.113 14.8395 13.1464 14.7313 13.1793C14.3643 13.291 13.9342 13.523 13.5986 13.7903C12.6993 14.5066 12.194 15.6752 12.2982 16.7982C12.445 18.3817 13.5572 19.6233 15.1321 19.962C15.3205 20.0025 15.4028 20.008 15.8245 20.008C16.36 20.008 16.5251 19.984 16.9434 19.8457C17.5036 19.6605 18.0765 19.2888 18.4502 18.8681L18.5887 18.7121L18.6325 18.9566C18.7118 19.3994 18.7776 19.9704 18.7776 20.2145V20.3224H9.38882H0V20.2145ZM15.5198 19.6539C13.8429 19.4937 12.5762 18.048 12.6536 16.3825C12.6897 15.6042 12.9927 14.9016 13.5319 14.3457C14.1576 13.7005 14.9312 13.372 15.8245 13.372C16.7178 13.372 17.4915 13.7005 18.1172 14.3457C19.4873 15.7582 19.2289 18.0492 17.576 19.1451C17.147 19.4296 16.6424 19.6037 16.0984 19.6548C15.8512 19.6781 15.772 19.678 15.5198 19.6539ZM16.2115 18.9053C16.4297 18.8747 16.7205 18.7785 16.9453 18.6627C17.6129 18.3186 18.0796 17.6918 18.2195 16.9514C18.2381 16.8527 18.2516 16.6729 18.2516 16.5239C18.2516 16.375 18.2381 16.1951 18.2195 16.0965C18.0811 15.3641 17.6174 14.7357 16.9622 14.393C16.5989 14.203 16.2418 14.1161 15.8245 14.1161C15.5304 14.1161 15.3069 14.1514 15.0442 14.2395C14.2117 14.5187 13.5933 15.2299 13.4296 16.0965C13.3878 16.3178 13.3878 16.73 13.4296 16.9514C13.5695 17.6918 14.0362 18.3186 14.7039 18.6627C15.1751 18.9055 15.6575 18.9832 16.2115 18.9053ZM14.6433 17.7303C14.6433 17.419 14.7556 17.1568 14.9878 16.9259C15.2301 16.6849 15.5014 16.5751 15.8449 16.5789C16.4795 16.5858 17.0058 17.1133 17.0058 17.7425V17.8776H15.8245H14.6433V17.7303ZM15.6718 16.2435C15.3137 16.1497 15.1244 15.7678 15.2726 15.4381C15.4034 15.1472 15.7654 15.0168 16.0537 15.1567C16.4091 15.3292 16.4964 15.7959 16.2258 16.0762C16.0939 16.2127 15.8432 16.2884 15.6718 16.2435ZM9.01882 9.95719C7.40303 9.81302 6.00756 8.86821 5.30377 7.44191C4.98296 6.79174 4.8406 6.17995 4.8406 5.45174C4.8406 5.01837 4.87667 4.72672 4.97919 4.33139C5.06769 3.99012 5.1443 3.78478 5.30377 3.46158C5.74785 2.56161 6.47559 1.83964 7.38275 1.39909C8.03812 1.08083 8.65479 0.939575 9.38882 0.939575C9.82565 0.939575 10.1197 0.975359 10.5182 1.07706C10.8621 1.16486 11.0691 1.24088 11.3949 1.39909C12.302 1.83964 13.0298 2.56161 13.4739 3.46158C13.7947 4.11174 13.9371 4.72353 13.9371 5.45174C13.9371 6.00261 13.8478 6.51654 13.6668 7.00751C13.4511 7.59262 13.0611 8.19592 12.608 8.64541C11.7815 9.46539 10.6987 9.92683 9.51102 9.96522C9.34859 9.97047 9.12712 9.96686 9.01882 9.95719Z" fill="black"/>
</svg>
