<svg width="30" height="41" viewBox="0 0 30 41" fill="none" xmlns="http://www.w3.org/2000/svg">
<path d="M14.1406 20.5781C13.75 19.3281 13.8281 16.9062 13.9844 16.9062C14.6875 16.9062 14.6094 19.7969 14.1406 20.5781ZM14.0625 24.25C14.7656 25.5781 15.7812 26.6719 16.7188 27.4531C14.8438 27.7656 13.2812 28.5469 11.7969 29.0938C12.6562 27.6094 13.4375 25.8125 14.0625 24.25ZM6.71875 34.0156C7.10938 32.7656 8.90625 31.3594 9.45312 30.8125C7.73438 33.5469 6.71875 34.0156 6.71875 34.0156ZM19.375 13H30V38.625C30 39.7188 29.1406 40.5 28.125 40.5H1.875C0.78125 40.5 0 39.7188 0 38.625V2.375C0 1.35938 0.78125 0.5 1.875 0.5H17.5V11.125C17.5 12.2188 18.2812 13 19.375 13ZM18.75 26.4375C17.1875 25.5 16.0938 24.1719 15.3906 22.2188C15.7031 20.8125 16.25 18.625 15.8594 17.2188C15.4688 14.9531 12.5781 15.1875 12.1094 16.6719C11.7188 18.1562 12.1094 20.1875 12.7344 22.6875C11.875 24.875 10.5469 27.7656 9.60938 29.4062C9.53125 29.4062 9.53125 29.4062 9.53125 29.4062C7.42188 30.5 3.82812 32.9219 5.3125 34.7188C5.70312 35.2656 6.5625 35.5 6.95312 35.5C8.35938 35.5 9.76562 34.0938 11.7188 30.7344C13.75 30.0312 16.0156 29.1719 17.8906 28.8594C19.6094 29.7969 21.6406 30.4219 22.8906 30.4219C25.2344 30.4219 25.3906 27.9219 24.4531 26.9844C23.3594 25.9688 20.2344 26.2812 18.75 26.4375ZM29.4531 8.70312C29.7656 9.09375 30 9.5625 30 10.0312V10.5H20V0.5H20.4688C20.9375 0.5 21.4062 0.734375 21.7969 1.04688L29.4531 8.70312ZM23.5938 28.7031C23.5938 28.7031 23.2031 29.25 20.3125 28C23.4375 27.7656 23.9844 28.4688 23.5938 28.7031Z" fill="#0061B1"/>
</svg>
